<svg version="1.1" id="Layer_1" xmlns="http://www.w3.org/2000/svg" x="0" y="0" viewBox="0 0 293.9 38.1" style="enable-background:new 0 0 293.9 38.1" xml:space="preserve"><style>.st0{fill:#147bb8}</style><path class="st0" d="M.5.1h1.1v4L4 .1h1.2v6H4.1V2.2L1.7 6.1H.5v-6zM6.5 1.8h1.4l1.1 3 1.1-3h1.4v4.4h-1V3.3l-1 2.8h-1l-1-2.9v2.9h-1V1.8zM12.6 1.8h3.9v4.4h-1.2V2.7h-1.6v3.4h-1.2V1.8zM17.5 3.9c0-.4.1-.8.3-1.1s.5-.6.8-.8.7-.3 1.2-.3c.7 0 1.2.2 1.6.6.4.4.6 1 .6 1.6 0 .7-.2 1.2-.6 1.6-.4.4-1 .6-1.6.6-.4 0-.8-.1-1.1-.3-.4-.2-.6-.4-.8-.8-.3-.2-.4-.6-.4-1.1zm1.2 0c0 .4.1.8.3 1s.5.3.8.3c.3 0 .6-.1.8-.3.2-.2.3-.6.3-1s-.1-.8-.3-1c-.2-.2-.5-.3-.8-.3-.3 0-.6.1-.8.3s-.3.6-.3 1zM22.8 1.8h1.1v.6c.1-.2.3-.4.6-.5.2-.1.5-.2.8-.2.5 0 .9.2 1.3.6s.5.9.5 1.7c0 .7-.2 1.3-.5 1.7-.4.4-.8.6-1.3.6-.2 0-.5 0-.7-.1s-.4-.4-.6-.6v2.2h-1.2v-6zM24 3.9c0 .5.1.9.3 1.1.2.2.4.4.7.4.3 0 .5-.1.7-.3.2-.2.3-.6.3-1.1 0-.5-.1-.8-.3-1-.2-.2-.4-.3-.7-.3-.3 0-.5.1-.7.3-.2.1-.3.4-.3.9zM27.4 1.8h3.9v.9h-1.4v3.4h-1.2V2.7h-1.4v-.9zM34.5 4.7l1.1.2c-.1.4-.4.7-.7 1s-.7.3-1.2.3c-.8 0-1.3-.2-1.7-.7-.3-.4-.4-.9-.4-1.5 0-.7.2-1.3.6-1.7.4-.4.9-.6 1.4-.6.6 0 1.2.2 1.5.6.4.4.6 1.1.5 2h-2.9c0 .3.1.6.3.8.2.2.4.3.7.3.2 0 .3 0 .5-.1s.3-.3.3-.6zm.1-1.1c0-.3-.1-.6-.3-.8-.2-.2-.4-.3-.6-.3-.3 0-.5.1-.6.3s-.2.4-.2.7h1.7zM36.6 1.8h1.1v.6c.2-.2.3-.4.6-.5.2-.1.5-.2.8-.2.5 0 .9.2 1.3.6s.5.9.5 1.7c0 .7-.2 1.3-.5 1.7-.4.3-.8.5-1.3.5-.2 0-.5 0-.7-.1s-.4-.3-.6-.5v2.2h-1.2v-6zm1.2 2.1c0 .5.1.9.3 1.1.2.2.4.4.7.4.3 0 .5-.1.7-.3.2-.2.3-.6.3-1.1 0-.5-.1-.8-.3-1-.2-.2-.4-.3-.7-.3-.3 0-.5.1-.7.3-.2.1-.3.4-.3.9zM44.1 1.8h1.1v2.7L47 1.8h1.1v4.4H47V3.3l-1.8 2.8h-1.1V1.8zM51.4 3.9c0-.4.1-.8.3-1.1s.5-.6.8-.8.7-.3 1.2-.3c.7 0 1.2.2 1.6.6.4.4.6 1 .6 1.6 0 .7-.2 1.2-.6 1.6-.4.4-1 .6-1.6.6-.4 0-.8-.1-1.1-.3-.4-.2-.6-.4-.8-.8-.3-.2-.4-.6-.4-1.1zm1.1 0c0 .4.1.8.3 1s.5.3.8.3c.3 0 .6-.1.8-.3.2-.2.3-.6.3-1s-.1-.8-.3-1c-.2-.2-.5-.3-.8-.3-.3 0-.6.1-.8.3s-.3.6-.3 1zM56.7 1.8h1.1v.6c.1-.2.3-.4.6-.5.2-.1.5-.2.8-.2.5 0 .9.2 1.3.6s.5.9.5 1.6c0 .7-.2 1.3-.5 1.7-.4.4-.8.6-1.3.6-.2 0-.5 0-.7-.1s-.4-.3-.6-.5v2.2h-1.2v-6zm1.2 2.1c0 .5.1.9.3 1.1.2.2.4.4.7.4.3 0 .5-.1.7-.3.2-.2.3-.6.3-1.1 0-.5-.1-.8-.3-1-.2-.2-.4-.3-.7-.3-.3 0-.5.1-.7.3-.3.1-.3.4-.3.9zM61.8 1.8h2.9v.9H63v3.4h-1.2V1.8zM66.2 3.1l-1-.2c.1-.4.3-.7.6-.9s.7-.3 1.3-.3c.5 0 .9.1 1.1.2s.4.3.5.5c.1.2.2.5.2 1v1.3c0 .4 0 .7.1.8s.1.4.2.6H68c0-.1-.1-.2-.1-.3v-.1c-.2.2-.4.3-.6.4-.2.1-.5.1-.7.1-.4 0-.8-.1-1.1-.4-.3-.2-.4-.6-.4-.9 0-.2.1-.5.2-.7.1-.2.3-.3.5-.4.2-.1.5-.2.9-.3.5-.1.9-.2 1.1-.3 0-.2-.1-.4-.2-.5s-.3-.2-.6-.2c-.2 0-.4 0-.5.1-.1.2-.2.3-.3.5zm1.6.9c-.1 0-.4.1-.7.2s-.5.1-.6.2c-.2.1-.2.2-.2.4s.1.3.2.4.3.2.5.2.4-.1.6-.2c.1-.1.2-.2.3-.4V4zM70 1.8h1.2v1.6h1.6V1.8H74v4.4h-1.2V4.3h-1.6v1.8H70V1.8zM75.1 1.8h1.1v2.7L78 1.8h1.1v4.4H78V3.3l-1.8 2.8h-1.1V1.8zM81.4 4.3v-.7h.4c.1 0 .2-.1.3-.2.1-.1.1-.2.1-.3 0-.1 0-.3-.1-.4-.1-.1-.2-.2-.4-.2s-.3 0-.4.1c-.2 0-.3.2-.4.4l-1-.2c.1-.4.3-.7.7-.8.3-.2.7-.3 1.1-.3.5 0 .9.1 1.2.4.3.2.4.5.4.9 0 .2-.1.4-.2.6s-.3.3-.6.4c.3.1.6.2.7.4.2.2.2.4.2.7 0 .3-.2.6-.5.9-.3.2-.8.4-1.4.4-1 0-1.7-.4-1.9-1.2l1.1-.2c.2.4.4.6.8.6.2 0 .4-.1.5-.2.1-.1.2-.2.2-.4s-.1-.3-.2-.4c-.1-.1-.3-.1-.5-.1h-.1zM85.2 3.1l-1-.2c.1-.4.3-.7.6-.9s.7-.3 1.3-.3c.5 0 .9.1 1.1.2s.4.3.5.5c.1.2.2.5.2 1v1.3c0 .4 0 .7.1.8s.1.4.2.6H87c0-.1-.1-.2-.1-.3v-.1c-.2.2-.4.3-.6.4-.2.1-.5.1-.7.1-.4 0-.8-.1-1.1-.4-.3-.2-.5-.5-.5-.9 0-.2.1-.5.2-.7.1-.2.3-.3.5-.4.2-.1.5-.2.9-.3.5-.1.9-.2 1.1-.3 0-.2-.1-.4-.2-.5s-.3-.1-.6-.1c-.2 0-.4 0-.5.1 0 .1-.1.2-.2.4zm1.5.9c-.1 0-.4.1-.7.2s-.5.1-.6.2c-.2.1-.2.2-.2.4s.1.3.2.4.3.2.5.2.4-.1.6-.2c.1-.1.2-.2.3-.4V4zM89 1.8h1.2v3.4h1.6V1.8H93v3.4h.5v2.1h-.9V6.1H89V1.8zM94.1 1.8h1.1v2.7L97 1.8h1.1v4.4H97V3.3l-1.8 2.8h-1.1V1.8zM103 1.8v4.4h-1.1V4.3h-.1c-.2 0-.4 0-.5.1l-.4.4-.1.1-.8 1.2h-1.3l.8-1.3c.2-.4.4-.6.6-.6-.3 0-.6-.1-.8-.4-.2-.2-.3-.5-.3-.9 0-.3.1-.5.2-.7.1-.2.3-.3.5-.4s.5-.1 1-.1h2.3zm-1.1.7h-.8c-.3 0-.5 0-.6.1-.1.1-.2.2-.2.4s.1.3.2.4c.1.1.4.1.7.1h.8v-1zM104.2 5h1.2v.8c0 .3 0 .6-.1.8-.1.2-.2.4-.3.5-.2.2-.4.3-.6.4l-.3-.5c.2-.1.4-.2.5-.3.1-.1.1-.3.2-.5h-.6V5zM108.3 1.8h1.2l1 3.1 1-3.1h1.2L111.3 6l-.3.7c-.1.3-.2.4-.3.6l-.3.3c-.1.1-.3.1-.4.2-.2 0-.4.1-.6.1-.2 0-.4 0-.7-.1l-.1-.9c.2 0 .3.1.5.1.3 0 .5-.1.6-.2l.3-.6-1.7-4.4zM113.5 1.8h3.9v4.4h-1.2V2.7h-1.6v3.4h-1.2V1.8zM118.3 3.9c0-.4.1-.8.3-1.1s.5-.6.8-.8.7-.3 1.2-.3c.7 0 1.2.2 1.6.6.4.4.6 1 .6 1.6 0 .7-.2 1.2-.6 1.6-.4.4-1 .6-1.6.6-.4 0-.8-.1-1.1-.3-.4-.2-.6-.4-.8-.8-.3-.2-.4-.6-.4-1.1zm1.2 0c0 .4.1.8.3 1s.5.3.8.3c.3 0 .6-.1.8-.3.2-.2.3-.6.3-1s-.1-.8-.3-1c-.2-.2-.5-.3-.8-.3-.3 0-.6.1-.8.3s-.3.6-.3 1zM123.8 1.8h3.9v4.4h-1.1V2.7H125v2c0 .5-.1.8-.2 1s-.2.3-.4.4c-.1.1-.4.1-.7.1-.2 0-.4 0-.7-.1v-.8h.5c.2 0 .3-.1.3-.2s.1-.4.1-.9V1.8zM128.8 1.8h1.2v1.6h1.6V1.8h1.2v4.4h-1.2V4.3H130v1.8h-1.2V1.8zM133.7 3.9c0-.4.1-.8.3-1.1s.5-.6.8-.8.7-.3 1.2-.3c.7 0 1.2.2 1.6.6.4.4.6 1 .6 1.6 0 .7-.2 1.2-.6 1.6-.4.4-1 .6-1.6.6-.4 0-.8-.1-1.1-.3-.4-.2-.6-.4-.8-.8-.3-.2-.4-.6-.4-1.1zm1.1 0c0 .4.1.8.3 1s.5.3.8.3c.3 0 .6-.1.8-.3.2-.2.3-.6.3-1s-.1-.8-.3-1c-.2-.2-.5-.3-.8-.3-.3 0-.6.1-.8.3s-.3.6-.3 1zM139 1.8h1.4l1.1 3 1.1-3h1.4v4.4h-1V3.3l-1 2.8h-1l-1-2.9v2.9h-1V1.8zM144.8 3.9c0-.4.1-.8.3-1.1s.5-.6.8-.8.7-.3 1.2-.3c.7 0 1.2.2 1.6.6.4.4.6 1 .6 1.6 0 .7-.2 1.2-.6 1.6-.4.4-1 .6-1.6.6-.4 0-.8-.1-1.1-.3-.4-.2-.6-.4-.8-.8-.3-.2-.4-.6-.4-1.1zm1.2 0c0 .4.1.8.3 1s.5.3.8.3c.3 0 .6-.1.8-.3.2-.2.3-.6.3-1s-.1-.8-.3-1c-.2-.2-.5-.3-.8-.3-.3 0-.6.1-.8.3s-.3.6-.3 1zM149.8 1.8h1.2v1c0 .2 0 .4.1.5s.1.2.3.3c.1.1.3.1.5.1s.4 0 .7-.1V1.8h1.2v4.4h-1.2V4.4c-.4.1-.8.2-1 .2-.4 0-.7-.1-1-.2-.3-.2-.5-.3-.6-.6-.1-.2-.2-.6-.2-.9V1.8zM157.3 4.7l1.1.2c-.1.4-.4.7-.7 1s-.7.3-1.2.3c-.8 0-1.3-.2-1.7-.7-.3-.4-.4-.9-.4-1.5 0-.7.2-1.3.6-1.7.4-.4.9-.6 1.4-.6.6 0 1.2.2 1.5.6.4.4.6 1.1.5 2h-2.9c0 .3.1.6.3.8.2.2.4.3.7.3.2 0 .3 0 .5-.1s.3-.3.3-.6zm.1-1.1c0-.3-.1-.6-.3-.8-.2-.2-.4-.3-.6-.3-.3 0-.5.1-.6.3s-.2.4-.2.7h1.7zM159.5 1.8h1.2v1.6h1.6V1.8h1.2v4.4h-1.2V4.3h-1.6v1.8h-1.2V1.8zM164.5 1.8h1.2v1.6h1.6V1.8h1.2v4.4h-1.2V4.3h-1.6v1.8h-1.2V1.8zM170.5 3.1l-1-.2c.1-.4.3-.7.6-.9s.7-.3 1.3-.3c.5 0 .9.1 1.1.2s.4.3.5.5c.1.2.2.5.2 1v1.3c0 .4 0 .7.1.8s.1.4.2.6h-1.1c0-.1-.1-.2-.1-.3v-.1c-.2.2-.4.3-.6.4-.2.1-.5.1-.7.1-.4 0-.8-.1-1.1-.4-.3-.2-.4-.6-.4-.9 0-.2.1-.5.2-.7.1-.2.3-.3.5-.4.2-.1.5-.2.9-.3.5-.1.9-.2 1.1-.3 0-.2-.1-.4-.2-.5s-.3-.1-.6-.1c-.2 0-.4 0-.5.1-.2.1-.3.2-.4.4zm1.5.9c-.1 0-.4.1-.7.2s-.5.1-.6.2c-.2.1-.2.2-.2.4s.1.3.2.4.3.2.5.2.4-.1.6-.2c.1-.1.2-.2.3-.4V4zM178 1.8v4.4h-1.1V4.3h-.1c-.2 0-.4 0-.5.1l-.4.4-.1.1-.8 1.2h-1.3l.8-1.3c.2-.4.4-.6.6-.6-.3 0-.6-.1-.8-.4-.2-.2-.3-.5-.3-.9 0-.3.1-.5.2-.7.1-.2.3-.3.5-.4s.5-.1 1-.1h2.3zm-1.1.7h-.8c-.3 0-.5 0-.6.1-.1.1-.2.2-.2.4s.1.3.2.4c.1.1.4.1.7.1h.8v-1zM181.5 1.8h1.2v1.6h1.6V1.8h1.2v4.4h-1.2V4.3h-1.6v1.8h-1.2V1.8zM187.5 3.1l-1-.2c.1-.4.3-.7.6-.9s.7-.3 1.3-.3c.5 0 .9.1 1.1.2s.4.3.5.5c.1.2.2.5.2 1v1.3c0 .4 0 .7.1.8s.1.4.2.6h-1.1c0-.1-.1-.2-.1-.3v-.1c-.2.2-.4.3-.6.4-.2.1-.5.1-.7.1-.4 0-.8-.1-1.1-.4-.3-.2-.4-.6-.4-.9 0-.2.1-.5.2-.7.1-.2.3-.3.5-.4.2-.1.5-.2.9-.3.5-.1.9-.2 1.1-.3 0-.2-.1-.4-.2-.5s-.3-.1-.6-.1c-.2 0-.4 0-.5.1-.3.1-.4.2-.4.4zm1.5.9c-.1 0-.4.1-.7.2s-.5.1-.6.2c-.2.1-.2.2-.2.4s.1.3.2.4.3.2.5.2.4-.1.6-.2c.1-.1.2-.2.3-.4V4zM193.6 1.8h3.9v4.4h-1.2V2.7h-1.6v3.4h-1.2V1.8zM198.6 1.8h1.1v.6c.1-.2.3-.4.6-.5.2-.1.5-.2.8-.2.5 0 .9.2 1.3.6s.5.9.5 1.7c0 .7-.2 1.3-.5 1.7-.4.4-.8.6-1.3.6-.2 0-.5 0-.7-.1s-.4-.3-.6-.5v2.2h-1.2V1.8zm1.2 2.1c0 .5.1.9.3 1.1.2.2.4.4.7.4.3 0 .5-.1.7-.3.2-.2.3-.6.3-1.1 0-.5-.1-.8-.3-1-.2-.2-.4-.3-.7-.3-.3 0-.5.1-.7.3-.2.1-.3.4-.3.9zM203.8 1.8h1.1v2.7l1.8-2.7h1.1v4.4h-1.1V3.3l-1.8 2.8h-1.1V1.8zM208.9 1.8h1.2v1.6h1.6V1.8h1.2v4.4h-1.2V4.3h-1.6v1.8h-1.2V1.8zM217.7 1.8v4.4h-1.1V4.3h-.1c-.2 0-.4 0-.5.1l-.4.4-.1.1-.8 1.2h-1.3l.8-1.3c.2-.4.4-.6.6-.6-.3 0-.6-.1-.8-.4-.2-.2-.3-.5-.3-.9 0-.3.1-.5.2-.7.1-.2.3-.3.5-.4s.5-.1 1-.1h2.3zm-1.1.7h-.8c-.3 0-.5 0-.6.1-.2.1-.2.3-.2.5s.1.3.2.4c.1.1.4.1.7.1h.8V2.5zM218.4 1.8h3.9v.9h-1.4v3.4h-1.2V2.7h-1.4v-.9zM223 1.8h1.1v2.7l1.8-2.7h1.1v4.4h-1.1V3.3l-1.8 2.8H223V1.8zM230.7 4.7l1.1.2c-.1.4-.4.7-.7 1s-.7.3-1.2.3c-.8 0-1.3-.2-1.7-.7-.3-.4-.4-.9-.4-1.5 0-.7.2-1.3.6-1.7.4-.4.9-.6 1.4-.6.6 0 1.2.2 1.5.6.4.4.6 1.1.5 2H229c0 .3.1.6.3.8.2.2.4.3.7.3.2 0 .3 0 .5-.1s.1-.3.2-.6zm.1-1.1c0-.3-.1-.6-.3-.8-.2-.2-.4-.3-.6-.3-.3 0-.5.1-.6.3s-.2.4-.2.7h1.7zM235.1 1.8h3.9v4.4h-1.2V2.7h-1.6v3.4H235V1.8zM240.2 1.8h1.1v.6c.1-.2.3-.4.6-.5.2-.1.5-.2.8-.2.5 0 .9.2 1.3.6s.5.9.5 1.7c0 .7-.2 1.3-.5 1.7-.4.4-.8.6-1.3.6-.2 0-.5 0-.7-.1s-.4-.3-.6-.5v2.2h-1.2V1.8zm1.2 2.1c0 .5.1.9.3 1.1.2.2.4.4.7.4.3 0 .5-.1.7-.3.2-.2.3-.6.3-1.1 0-.5-.1-.8-.3-1-.2-.2-.4-.3-.7-.3-.3 0-.5.1-.7.3-.2.1-.3.4-.3.9zM247.9 4.7l1.1.2c-.1.4-.4.7-.7 1s-.7.3-1.2.3c-.8 0-1.3-.2-1.7-.7-.2-.4-.4-.9-.4-1.5 0-.7.2-1.3.6-1.7.4-.4.9-.6 1.4-.6.6 0 1.2.2 1.5.6.4.4.6 1.1.5 2h-2.9c0 .3.1.6.3.8.2.2.4.3.7.3.2 0 .3 0 .5-.1s.2-.3.3-.6zm.1-1.1c0-.3-.1-.6-.3-.8-.2-.2-.4-.3-.6-.3-.3 0-.5.1-.6.3s-.2.4-.2.7h1.7zM249.4 1.8h3.9v.9H252v3.4h-1.2V2.7h-1.4v-.9zM256.6 4.7l1.1.2c-.1.4-.4.7-.7 1s-.7.3-1.2.3c-.8 0-1.3-.2-1.7-.7-.3-.4-.4-.9-.4-1.5 0-.7.2-1.3.6-1.7.4-.4.9-.6 1.4-.6.6 0 1.2.2 1.5.6.4.4.6 1.1.5 2h-2.9c0 .3.1.6.3.8.2.2.4.3.7.3.2 0 .3 0 .5-.1s.2-.3.3-.6zm0-1.1c0-.3-.1-.6-.3-.8-.2-.2-.4-.3-.6-.3-.3 0-.5.1-.6.3s-.2.4-.2.7h1.7zM258.7 1.8h1.2v1.6h1.6V1.8h1.2v4.4h-1.2V4.3h-1.6v1.8h-1.2V1.8zM265 4.3v-.7h.4c.1 0 .2-.1.3-.2.1-.1.1-.2.1-.3 0-.1 0-.3-.1-.4-.1-.1-.2-.2-.4-.2s-.3 0-.4.1c-.1.1-.2.2-.3.5l-1-.2c.1-.4.3-.7.6-.9.3-.2.7-.3 1.1-.3.5 0 .9.1 1.2.4.3.2.4.5.4.9 0 .2-.1.4-.2.6s-.3.3-.6.4c.3.1.6.2.7.4.2.2.2.4.2.7 0 .3-.2.6-.5.9-.3.2-.8.4-1.4.4-1 0-1.7-.4-1.9-1.2l1.1-.2c.2.4.4.6.8.6.2 0 .4-.1.5-.2.1-.1.2-.2.2-.4s-.1-.3-.2-.4c-.1-.1-.3-.1-.5-.1h-.1zM267.9 1.8h1.1v2.7l1.8-2.7h1.1v4.4h-1.1V3.3L269 6.1h-1.1V1.8zM273.1 1.8h1.1v2.7l1.8-2.7h1.1v4.4H276V3.3l-1.8 2.8h-1.1V1.8zm2.7-1.8h.6c0 .4-.2.7-.4.9-.2.2-.5.3-.9.3s-.7-.1-.9-.3c-.2-.2-.4-.5-.4-.9h.6c0 .2.1.3.2.4.1.1.3.1.5.1s.4 0 .5-.1c.2-.1.2-.2.2-.4zM.2 14c0-.4.1-.8.3-1.1.2-.4.5-.6.8-.8s.7-.3 1.2-.3c.7 0 1.2.2 1.6.6s.6 1 .6 1.6c0 .7-.2 1.2-.6 1.6-.4.4-1 .6-1.6.6-.4 0-.8-.1-1.1-.3-.4-.2-.6-.4-.8-.8-.3-.2-.4-.6-.4-1.1zm1.2 0c0 .4.1.8.3 1s.5.3.8.3c.3 0 .6-.1.8-.3.2-.2.3-.6.3-1s-.1-.8-.3-1c-.2-.2-.5-.3-.8-.3-.3 0-.6.1-.8.3s-.3.6-.3 1zM4.8 11.8h3.9v.9H7.4v3.4H6.2v-3.4H4.8v-.9zM11.8 11.8h3.9v4.4h-1.2v-3.4h-1.6v3.4h-1.2v-4.4zM16.6 14c0-.4.1-.8.3-1.1.2-.4.5-.6.8-.8s.7-.3 1.2-.3c.7 0 1.2.2 1.6.6s.6 1 .6 1.6c0 .7-.2 1.2-.6 1.6-.4.4-1 .6-1.6.6-.4 0-.8-.1-1.1-.3-.4-.2-.6-.4-.8-.8-.3-.2-.4-.6-.4-1.1zm1.2 0c0 .4.1.8.3 1s.5.3.8.3c.3 0 .6-.1.8-.3.2-.2.3-.6.3-1s-.1-.8-.3-1c-.2-.2-.5-.3-.8-.3-.3 0-.6.1-.8.3s-.3.6-.3 1zM21.3 11.8h3.9v.9h-1.4v3.4h-1.2v-3.4h-1.4v-.9zM25.9 11.8H27v.6c.1-.2.3-.4.6-.5.2-.1.5-.2.8-.2.5 0 .9.2 1.3.6.4.4.5.9.5 1.7 0 .7-.2 1.3-.5 1.7-.4.4-.8.6-1.3.6-.2 0-.5 0-.7-.1s-.4-.3-.6-.5v2.2h-1.2v-6.1zm1.1 2.1c0 .5.1.9.3 1.1.2.2.4.4.7.4.3 0 .5-.1.7-.3.2-.2.3-.6.3-1.1 0-.5-.1-.8-.3-1-.2-.2-.4-.3-.7-.3-.3 0-.5.1-.7.3-.2.2-.3.5-.3.9zM33.5 14.8l1.1.2c-.1.4-.4.7-.7 1s-.7.3-1.2.3c-.8 0-1.3-.2-1.7-.7-.3-.4-.4-.9-.4-1.5 0-.7.2-1.3.6-1.7.4-.4.9-.6 1.4-.6.6 0 1.2.2 1.5.6.4.4.6 1.1.5 2h-2.9c0 .3.1.6.3.8.2.2.4.3.7.3.2 0 .3 0 .5-.1.2-.2.3-.4.3-.6zm.1-1.2c0-.3-.1-.6-.3-.8-.2-.2-.4-.3-.6-.3-.3 0-.5.1-.6.3-.2.2-.2.4-.2.7h1.7zM38.9 10h.8c0 .3-.1.6-.3.8-.2.2-.5.3-1.2.3H37.9c-.4 0-.7 0-.9.1-.2.1-.4.2-.6.5-.1.2-.2.6-.2 1.1.2-.3.4-.6.7-.7.3-.2.6-.2 1-.2.6 0 1.1.2 1.5.7.4.4.6 1 .6 1.5 0 .6-.2 1.1-.6 1.6-.4.4-1 .7-1.6.7-.5 0-.9-.1-1.2-.3-.3-.2-.6-.5-.8-.9s-.2-1-.2-1.9c0-1 .2-1.8.6-2.2.4-.5 1.1-.7 2-.7h.6c-.1-.2 0-.2.1-.4zm-2.4 4c0 .4.1.7.3.9.2.2.4.3.7.3.3 0 .6-.1.8-.4.2-.2.3-.5.3-.9s-.1-.7-.3-.9c-.2-.2-.4-.4-.7-.4-.3 0-.5.1-.7.3s-.4.8-.4 1.1zM40.7 11.8h1.1v2.7l1.8-2.7h1.1v4.4h-1.1v-2.8l-1.8 2.8h-1.1v-4.4zM45.4 11.8h3.9v.9H48v3.4h-1.2v-3.4h-1.4v-.9zM52.6 14.8l1.1.2c-.1.4-.4.7-.7 1s-.7.3-1.2.3c-.8 0-1.3-.2-1.7-.7-.3-.4-.4-.9-.4-1.5 0-.7.2-1.3.6-1.7.4-.4.9-.6 1.4-.6.6 0 1.2.2 1.5.6.4.4.6 1.1.5 2h-2.9c0 .3.1.6.3.8.2.2.4.3.7.3.2 0 .3 0 .5-.1l.3-.6zm0-1.2c0-.3-.1-.6-.3-.8-.2-.2-.4-.3-.6-.3-.3 0-.5.1-.6.3-.2.2-.2.4-.2.7h1.7zM55 11.8h3.9v4.4h-1.1v-3.4h-1.6v2c0 .5-.1.8-.2 1s-.2.3-.4.4c-.1.1-.4.1-.7.1-.2 0-.4 0-.7-.1v-.8h.5c.2 0 .3-.1.3-.2s.1-.4.1-.9v-2.5zM62.4 14.8l1.1.2c-.1.4-.4.7-.7 1s-.7.3-1.2.3c-.8 0-1.3-.2-1.7-.7-.3-.4-.4-.9-.4-1.5 0-.7.2-1.3.6-1.7.4-.4.9-.6 1.4-.6.6 0 1.2.2 1.5.6.4.4.6 1.1.5 2h-2.9c0 .3.1.6.3.8.2.2.4.3.7.3.2 0 .3 0 .5-.1.2-.2.3-.4.3-.6zm.1-1.2c0-.3-.1-.6-.3-.8-.2-.2-.4-.3-.6-.3-.3 0-.5.1-.6.3-.2.2-.2.4-.2.7h1.7zM64.6 11.8h1.1v2.7l1.8-2.7h1.1v4.4h-1.1v-2.8l-1.8 2.8h-1.1v-4.4zm2.7-1.7h.6c0 .4-.2.7-.4.9-.2.2-.5.3-.9.3s-.7-.1-.9-.3c-.2-.2-.4-.5-.4-.9h.6c0 .2.1.3.2.4.1.1.3.2.5.2s.4-.1.5-.2c.1-.1.2-.2.2-.4zM72.1 11.8h2.5c.5 0 .9.1 1.2.3.3.2.4.5.4.9 0 .2-.1.5-.2.6-.1.2-.3.3-.5.4.3.1.5.2.7.4s.2.4.2.7c0 .3-.1.6-.4.8-.2.2-.6.3-1.1.3h-2.7v-4.4zm1.2 1.8h.7c.4 0 .6 0 .8-.1.2-.1.2-.2.2-.4s-.1-.3-.2-.4c-.1-.1-.4-.1-.8-.1h-.7v1zm0 1.9h.9c.3 0 .6 0 .7-.1s.2-.2.2-.4-.1-.4-.3-.4c-.2-.1-.5-.1-1-.1h-.6v1zM79.6 16.2v-6h1.9c.7 0 1.2 0 1.4.1.3.1.6.3.9.6.2.3.3.7.3 1.2 0 .4-.1.7-.2.9-.1.3-.3.4-.5.6l-.6.3c-.3.1-.7.1-1.3.1h-.8v2.3h-1.1zm1.2-5v1.7h.7c.5 0 .8 0 1-.1.2-.1.3-.2.4-.3s.1-.3.1-.5-.1-.4-.2-.5c-.1-.1-.3-.2-.5-.3h-1.5zM87.5 14.8l1.1.2c-.1.4-.4.7-.7 1s-.7.3-1.2.3c-.8 0-1.3-.2-1.7-.7-.3-.4-.4-.9-.4-1.5 0-.7.2-1.3.6-1.7.4-.4.9-.6 1.4-.6.6 0 1.2.2 1.5.6.4.4.6 1.1.5 2h-2.9c0 .3.1.6.3.8.2.2.4.3.7.3.2 0 .3 0 .5-.1l.3-.6zm0-1.2c0-.3-.1-.6-.3-.8-.2-.2-.4-.3-.6-.3-.3 0-.5.1-.6.3-.2.2-.2.4-.2.7h1.7zM93.3 13.1l-1.1.2c0-.2-.1-.4-.3-.5-.1-.1-.3-.2-.5-.2-.3 0-.5.1-.7.3-.2.2-.3.5-.3 1s.1.9.3 1.1c.2.2.4.3.7.3.2 0 .4-.1.5-.2s.2-.3.3-.6l1.1.2c-.1.5-.3.9-.7 1.2-.3.3-.8.4-1.3.4-.6 0-1.1-.2-1.5-.6-.4-.4-.6-1-.6-1.7s.2-1.3.6-1.7.9-.6 1.5-.6c.5 0 1 .1 1.3.3.4.3.6.7.7 1.1zM94.1 11.8H98v4.4h-1.2v-3.4h-1.6v3.4H94v-4.4zM98.7 11.8h1.2l1 3.1 1-3.1h1.2l-1.5 4.2-.3.8c-.1.3-.2.4-.3.6l-.3.3c-.1.1-.3.1-.4.2-.2 0-.4.1-.6.1-.2 0-.4 0-.7-.1V17c.2 0 .3.1.5.1.3 0 .5-.1.6-.2l.3-.6-1.7-4.5zM107.2 10h.8c0 .3-.1.6-.3.8-.2.2-.5.3-1.2.3H106.2c-.4 0-.7 0-.9.1-.2.1-.4.2-.6.5-.1.2-.2.6-.2 1.1.2-.3.4-.6.7-.7.3-.2.6-.2 1-.2.6 0 1.1.2 1.5.7.4.4.6 1 .6 1.5 0 .6-.2 1.1-.6 1.6-.4.4-1 .7-1.6.7-.5 0-.9-.1-1.2-.3-.3-.2-.6-.5-.8-.9s-.2-1-.2-1.9c0-1 .2-1.8.6-2.2.4-.5 1.1-.7 2-.7h.6c-.1-.2 0-.2.1-.4zm-2.3 4c0 .4.1.7.3.9.2.2.4.3.7.3.3 0 .6-.1.8-.4.2-.2.3-.5.3-.9s-.1-.7-.3-.9c-.2-.2-.4-.4-.7-.4-.3 0-.5.1-.7.3s-.4.8-.4 1.1zM109.2 11.8h3.9v4.4H112v-3.4h-1.6v2c0 .5-.1.8-.2 1s-.2.3-.4.4c-.1.1-.4.1-.7.1-.2 0-.4 0-.7-.1v-.8h.5c.2 0 .3-.1.3-.2s.1-.4.1-.9v-2.5zM114.2 11.8h1.1v2.7l1.8-2.7h1.1v4.4h-1.1v-2.8l-1.8 2.8h-1.1v-4.4zM119.3 11.8h1.1v1.8c.2 0 .3-.1.4-.2.1-.1.2-.3.3-.6.1-.4.3-.7.5-.8s.4-.2.7-.2h.5v.8c-.3 0-.5 0-.6.1-.1.1-.2.2-.3.5-.1.4-.3.6-.6.7.4.1.7.4.9.9v.1l.6 1.2h-1.2l-.6-1.3c-.1-.3-.2-.4-.3-.5-.1-.1-.2-.1-.4-.1v1.9h-1.1v-4.3zM126.1 14.8l1.1.2c-.1.4-.4.7-.7 1s-.7.3-1.2.3c-.8 0-1.3-.2-1.7-.7-.3-.4-.4-.9-.4-1.5 0-.7.2-1.3.6-1.7.4-.4.9-.6 1.4-.6.6 0 1.2.2 1.5.6.4.4.6 1.1.5 2h-2.9c0 .3.1.6.3.8.2.2.4.3.7.3.2 0 .3 0 .5-.1.2-.2.2-.4.3-.6zm.1-1.2c0-.3-.1-.6-.3-.8-.2-.2-.4-.3-.6-.3-.3 0-.5.1-.6.3-.2.2-.2.4-.2.7h1.7zM130.6 10.2h1.2v2.6c.3 0 .5-.1.5-.2.1-.1.2-.4.4-.9.3-.7.5-1.1.8-1.2.3-.2.7-.2 1.2-.2h.2v.7h-.2c-.2 0-.4 0-.5.1l-.3.3c-.1.1-.2.4-.3.8-.1.2-.2.4-.2.5-.1.1-.2.3-.5.4.3.1.5.2.7.5.2.2.4.6.6 1l.8 1.6h-1.4l-.7-1.6s0-.1-.1-.1c0 0-.1-.1-.2-.3-.2-.3-.3-.5-.4-.6-.1-.1-.3-.1-.5-.1v2.6h-1.2v-5.9zM136.7 13.2l-1-.2c.1-.4.3-.7.6-.9s.7-.3 1.3-.3c.5 0 .9.1 1.1.2.3.1.4.3.5.5.1.2.2.5.2 1v1.3c0 .4 0 .7.1.8s.1.4.2.6h-1.1c0-.1-.1-.2-.1-.3v-.1c-.2.2-.4.3-.6.4-.2.1-.5.1-.7.1-.4 0-.8-.1-1.1-.4-.3-.2-.4-.5-.4-.9 0-.2.1-.5.2-.7.1-.2.3-.3.5-.4.2-.1.5-.2.9-.3.5-.1.9-.2 1.1-.3v-.1c0-.2-.1-.4-.2-.5-.1-.1-.3-.1-.6-.1-.2 0-.4 0-.5.1-.3.1-.4.3-.4.5zm1.5.9c-.1 0-.4.1-.7.2-.3.1-.5.1-.6.2-.2.1-.2.2-.2.4s.1.3.2.4c.1.1.3.2.5.2s.4-.1.6-.2c.1-.1.2-.2.3-.4v-.8zM141.8 14.4v-.8h.4c.1 0 .2-.1.3-.2.1-.1.1-.2.1-.3 0-.1 0-.3-.1-.4-.1-.1-.2-.2-.4-.2s-.3 0-.4.1c-.1.1-.2.2-.3.5l-1-.2c.1-.4.3-.7.6-.9s.7-.3 1.1-.3c.5 0 .9.1 1.2.4.3.2.4.5.4.9 0 .2-.1.4-.2.6-.1.1-.3.3-.6.4.3.1.6.2.7.4.2.2.2.4.2.7 0 .3-.2.6-.5.9-.3.2-.8.4-1.4.4-1 0-1.7-.4-1.9-1.2l1.1-.2c.2.4.4.6.8.6.2 0 .4-.1.5-.2s.2-.2.2-.4-.1-.3-.2-.4c-.1-.1-.3-.1-.5-.1h-.1zM145.5 13.2l-1-.2c.1-.4.3-.7.6-.9s.7-.3 1.3-.3c.5 0 .9.1 1.1.2.3.1.4.3.5.5.1.2.2.5.2 1v1.3c0 .4 0 .7.1.8s.1.4.2.6h-1.1c0-.1-.1-.2-.1-.3v-.1c-.2.2-.4.3-.6.4-.2.1-.5.1-.7.1-.4 0-.8-.1-1.1-.4-.3-.2-.4-.5-.4-.9 0-.2.1-.5.2-.7.1-.2.3-.3.5-.4.2-.1.5-.2.9-.3.5-.1.9-.2 1.1-.3v-.1c0-.2-.1-.4-.2-.5-.1-.1-.3-.1-.6-.1-.2 0-.4 0-.5.1-.2.1-.3.3-.4.5zm1.5.9c-.1 0-.4.1-.7.2-.3.1-.5.1-.6.2-.2.1-.2.2-.2.4s.1.3.2.4c.1.1.3.2.5.2s.4-.1.6-.2c.1-.1.2-.2.3-.4v-.8zM148.8 16.2l1.6-2.2-1.5-2.1h1.4l.7 1.1.8-1.2h1.4l-1.5 2.1 1.6 2.3h-1.4l-.9-1.3-.9 1.3h-1.3zM157.6 13.1l-1.1.2c0-.2-.1-.4-.3-.5-.1-.1-.3-.2-.5-.2-.3 0-.5.1-.7.3-.2.2-.3.5-.3 1s.1.9.3 1.1c.2.2.4.3.7.3.2 0 .4-.1.5-.2s.2-.3.3-.6l1.1.2c-.1.5-.3.9-.7 1.2-.3.3-.8.4-1.3.4-.6 0-1.1-.2-1.5-.6-.4-.4-.6-1-.6-1.7s.2-1.3.6-1.7.9-.6 1.5-.6c.5 0 1 .1 1.3.3.3.3.5.7.7 1.1zM157.9 11.8h3.9v.9h-1.4v3.4h-1.2v-3.4h-1.4v-.9zM163.4 13.2l-1-.2c.1-.4.3-.7.6-.9s.7-.3 1.3-.3c.5 0 .9.1 1.1.2.3.1.4.3.5.5.1.2.2.5.2 1v1.3c0 .4 0 .7.1.8s.1.4.2.6h-1.1c0-.1-.1-.2-.1-.3v-.1c-.2.2-.4.3-.6.4-.2.1-.5.1-.7.1-.4 0-.8-.1-1.1-.4-.3-.2-.4-.5-.4-.9 0-.2.1-.5.2-.7.1-.2.3-.3.5-.4.2-.1.5-.2.9-.3.5-.1.9-.2 1.1-.3v-.1c0-.2-.1-.4-.2-.5-.1-.1-.3-.1-.6-.1-.2 0-.4 0-.5.1-.2.1-.3.3-.4.5zm1.5.9c-.1 0-.4.1-.7.2-.3.1-.5.1-.6.2-.2.1-.2.2-.2.4s.1.3.2.4c.1.1.3.2.5.2s.4-.1.6-.2c.1-.1.2-.2.3-.4v-.8zM167.2 11.8h1.2v1.6h1.6v-1.6h1.2v4.4H170v-1.8h-1.6v1.8h-1.2v-4.4zM172.5 13v-1.2h1.2V13h-1.2zm0 3.2V15h1.2v1.2h-1.2zM2 26.3V21H0v-.7h4.8v.7h-2v5.3H2zM4.8 23.3c0-1 .3-1.8.8-2.3s1.2-.8 2.1-.8c.6 0 1.1.1 1.5.4.4.3.8.6 1 1.1.2.5.3 1 .3 1.6 0 .6-.1 1.2-.4 1.6-.2.5-.6.8-1 1.1-.5.2-.9.4-1.5.4s-1.1-.1-1.5-.4c-.4-.3-.8-.6-1-1.1s-.3-1-.3-1.6zm.8 0c0 .7.2 1.3.6 1.7.4.4.9.6 1.5.6s1.1-.2 1.5-.6.6-1 .6-1.8c0-.5-.1-.9-.2-1.3-.2-.4-.4-.6-.7-.8-.3-.2-.7-.3-1.1-.3-.6 0-1 .2-1.5.6-.5.4-.7 1-.7 1.9zM11.1 23.3c0-1 .3-1.8.8-2.3s1.2-.8 2.1-.8c.6 0 1.1.1 1.5.4.4.3.8.6 1 1.1.2.5.3 1 .3 1.6 0 .6-.1 1.2-.4 1.6-.2.5-.6.8-1 1.1-.5.2-.9.4-1.5.4s-1.1-.1-1.5-.4c-.4-.3-.8-.6-1-1.1s-.3-1-.3-1.6zm.8 0c0 .7.2 1.3.6 1.7.4.4.9.6 1.5.6s1.1-.2 1.5-.6.6-1 .6-1.8c0-.5-.1-.9-.2-1.3-.2-.4-.4-.6-.7-.8-.3-.2-.7-.3-1.1-.3-.6 0-1 .2-1.5.6-.5.4-.7 1-.7 1.9zM20.5 24.1l1.1 1.9H21l-1.3-1.9 1.3-1.9h.6l-1.1 1.9zm1.6 0 1.1 1.9h-.6l-1.3-1.9 1.3-1.9h.6l-1.1 1.9zM24.3 20.3h3.9v.7h-3.1v1.9h1.4c.5 0 1 .1 1.3.2.3.1.6.3.8.6.2.3.3.6.3 1 0 .3-.1.6-.2.9-.1.3-.3.5-.6.6s-.7.2-1.4.2h-2.4v-6.1zm.8 5.3h1.6c.4 0 .8-.1 1-.3s.3-.4.3-.8c0-.2-.1-.5-.2-.6-.1-.2-.3-.3-.5-.3s-.6-.1-1.1-.1h-1.1v2.1zM32.3 25.7c-.3.2-.5.4-.8.5-.3.1-.5.1-.8.1-.5 0-.8-.1-1.1-.4s-.4-.5-.4-.9c0-.2 0-.4.1-.6.1-.2.2-.3.4-.4s.3-.2.5-.2c.1 0 .4-.1.7-.1.6-.1 1-.2 1.3-.3v-.2c0-.3-.1-.5-.2-.6-.2-.2-.5-.2-.8-.2-.3 0-.6.1-.8.2-.2.1-.3.3-.4.6l-.7-.1c.1-.3.2-.6.3-.7.2-.2.4-.3.7-.4.3-.1.6-.2 1-.2s.7 0 .9.1c.2.1.4.2.5.3s.2.3.2.5v3c0 .2.1.4.2.5h-.8c.1-.1 0-.3 0-.5zm-.1-1.6c-.3.1-.7.2-1.2.3-.3 0-.5.1-.6.1s-.2.1-.3.2c-.1.1-.1.3-.1.4 0 .2.1.4.2.5.1.1.4.2.7.2.3 0 .5-.1.8-.2.2-.1.4-.3.5-.5.1-.2.1-.4.1-.7v-.3zM33.8 27.9l-.1-.7c.2 0 .3.1.4.1.2 0 .3 0 .4-.1s.2-.1.2-.2.1-.3.2-.5c0 0 0-.1.1-.2l-1.7-4.4h.8l.9 2.5c.1.3.2.7.3 1 .1-.3.2-.7.3-1l.9-2.5h.7l-1.7 4.4c-.2.5-.3.8-.4 1-.1.2-.3.4-.5.5.1.2-.1.2-.3.2-.2 0-.3 0-.5-.1zM37.8 21.9h.7v3.7h1.7v-3.7h.8v3.7h1.7v-3.7h.7v4.4h-5.6v-4.4zM45.9 26.3l2.3-3.1-2-2.9h.9l1.1 1.5c.2.3.4.6.5.7.1-.2.3-.4.5-.7l1.2-1.6h.9L49.2 23l2.3 3.2h-1L49 24.1c-.1-.1-.2-.3-.3-.4-.1.2-.2.4-.3.5l-1.5 2.1h-1zM54.8 24.9l.8.1c-.1.4-.3.8-.7 1-.3.2-.7.4-1.2.4-.6 0-1.1-.2-1.5-.6-.4-.4-.6-.9-.6-1.6 0-.7.2-1.3.6-1.7s.9-.6 1.5-.6 1.1.2 1.4.6c.4.4.6 1 .6 1.7v.2h-3.2c0 .5.2.8.4 1.1.2.3.5.4.9.4.3 0 .5-.1.7-.2 0-.3.2-.5.3-.8zm-2.4-1.2h2.4c0-.4-.1-.6-.3-.8-.2-.3-.5-.4-.9-.4-.3 0-.6.1-.9.3-.2.2-.3.5-.3.9zM56.4 21.9h3.4v4.4h-.7v-3.7h-2v3.2c0 .2-.1.3-.3.4s-.4.2-.6.2h-.6v-.6h.6l.1-.1v-3.8zM63.5 24.7l.7.1c-.1.5-.3.9-.6 1.2-.3.3-.7.4-1.2.4-.6 0-1.1-.2-1.4-.6-.4-.4-.5-.9-.5-1.7 0-.5.1-.9.2-1.2.2-.4.4-.6.7-.8.3-.2.7-.3 1-.3.5 0 .9.1 1.2.4s.5.6.6 1l-.7.1c-.1-.3-.2-.5-.4-.7s-.4-.2-.6-.2c-.4 0-.7.1-.9.4-.2.3-.3.7-.3 1.3 0 .6.1 1 .3 1.3.2.3.5.4.9.4.3 0 .5-.1.7-.3.2-.2.3-.5.3-.8zM65.8 24.1l-1.1-1.9h.6l1.3 1.9-1.3 1.9h-.6l1.1-1.9zm1.6 0-1.1-1.9h.6l1.3 1.9-1.3 1.9h-.6l1.1-1.9zM69.3 26.3v-.8h.8v.8c0 .3-.1.6-.2.7-.1.2-.3.3-.5.4l-.2-.3c.2-.1.3-.2.3-.3.1-.1.1-.3.1-.6h-.3zM73.4 21.9h2.5v.6h-1.8v3.7h-.7v-4.3zM75.4 26.3v-.8h.8v.8h-.8zM78.9 26.3l2.3-6h.9l2.5 6h-.9l-.7-1.8h-2.5l-.7 1.8h-.9zm1.7-2.5h2l-.6-1.7c-.2-.5-.3-.9-.4-1.2-.1.4-.2.8-.3 1.1l-.7 1.8z"/><path class="st0" d="M85.2 21.9h3.4v4.4h-.7v-3.7h-2v3.2c0 .2-.1.3-.3.4s-.4.2-.6.2h-.6v-.6h.6l.1-.1v-3.8zM89.5 21.9h1.1l1.1 3.5 1.3-3.5h1.1v4.4h-.7v-3.5l-1.3 3.5h-.7l-1.2-3.7v3.7h-.7v-4.4zM97.9 25.7c-.3.2-.5.4-.8.5-.3.1-.5.1-.8.1-.5 0-.8-.1-1.1-.4s-.4-.5-.4-.9c0-.2 0-.4.1-.6.1-.2.2-.3.4-.4s.3-.2.5-.2c.1 0 .4-.1.7-.1.6-.1 1-.2 1.3-.3v-.2c0-.3-.1-.5-.2-.6-.2-.2-.5-.2-.8-.2-.3 0-.6.1-.8.2-.2.1-.3.3-.4.6H95c.1-.3.2-.6.3-.7.2-.2.4-.3.7-.4.3-.1.6-.2 1-.2s.7 0 .9.1c.2.1.4.2.5.3s.2.3.2.5v3c0 .2.1.4.2.5H98c0-.2 0-.4-.1-.6zm0-1.6c-.3.1-.7.2-1.2.3-.3 0-.5.1-.6.1s-.2.1-.3.2c-.1.1-.1.2-.1.4s.1.4.2.5c.1.1.4.2.7.2.3 0 .5-.1.8-.2.2-.1.4-.3.5-.5.1-.2.1-.4.1-.7v-.3zM99 21.9h3.5v.6h-1.4v3.7h-.7v-3.7H99v-.6zM103 21.9h.7v1.7h.9c.6 0 1.1.1 1.4.4.3.2.5.6.5 1s-.1.7-.4.9c-.3.3-.7.4-1.3.4H103v-4.4zm.8 3.8h.8c.5 0 .8-.1 1-.2.2-.1.3-.3.3-.5s-.1-.4-.2-.5-.5-.2-1-.2h-.9v1.4zm3.3-3.8h.7v4.4h-.7v-4.4zM109 26.3v-.8h.8v.8c0 .3-.1.6-.2.7-.1.2-.3.3-.5.4l-.2-.3c.2-.1.3-.2.3-.3.1-.1.1-.3.1-.6h-.3zM112 26.3l2.3-6h.9l2.5 6h-.9l-.7-1.8h-2.5l-.7 1.8h-.9zm1.8-2.5h2l-.6-1.7c-.2-.5-.3-.9-.4-1.2-.1.4-.2.8-.3 1.1l-.7 1.8zM121.7 25.6v.7h-4c0-.2 0-.3.1-.5.1-.3.3-.5.5-.8.2-.3.5-.6 1-.9.7-.5 1.1-1 1.3-1.3s.3-.6.3-.9c0-.3-.1-.5-.3-.7s-.5-.3-.8-.3c-.4 0-.6.1-.9.3-.2.2-.3.5-.3.9l-.8-.1c.1-.6.2-1 .6-1.3.3-.3.8-.4 1.4-.4.6 0 1 .2 1.4.5.3.3.5.7.5 1.2 0 .2 0 .5-.1.7-.1.2-.3.5-.5.7-.2.3-.6.6-1.1 1.1-.4.4-.7.6-.9.8s-.2.3-.3.4h2.9zM126.1 21.7l-.7.1c-.1-.3-.2-.5-.3-.6-.2-.2-.4-.3-.7-.3-.2 0-.4.1-.6.2-.2.2-.4.4-.5.7s-.2.8-.2 1.4c.2-.3.4-.5.7-.6s.5-.2.8-.2c.5 0 .9.2 1.3.5.3.4.5.8.5 1.4 0 .4-.1.7-.2 1.1-.2.3-.4.6-.7.7-.3.2-.6.3-1 .3-.6 0-1.1-.2-1.5-.7-.4-.5-.6-1.2-.6-2.2 0-1.2.2-2 .6-2.5.4-.5.9-.7 1.5-.7.5 0 .9.1 1.2.4.1.2.3.6.4 1zm-3 2.6c0 .3.1.5.2.7.1.2.3.4.5.5.2.1.4.2.6.2.3 0 .6-.1.8-.4.2-.3.3-.6.3-1s-.1-.7-.3-1-.5-.4-.8-.4c-.3 0-.6.1-.8.4-.4.3-.5.6-.5 1zM128.5 26.3V21h-2v-.7h4.8v.7h-2v5.3h-.8zM131.7 24.9l.7-.1c.1.3.2.6.3.7.2.2.4.2.7.2.2 0 .4-.1.6-.2.2-.1.3-.2.4-.4.1-.2.2-.4.3-.7.1-.3.1-.6.1-.9v-.1c-.1.2-.3.4-.6.6-.3.1-.5.2-.8.2-.5 0-.9-.2-1.3-.5-.3-.4-.5-.8-.5-1.4 0-.6.2-1.1.5-1.5.4-.4.8-.6 1.4-.6.4 0 .7.1 1.1.3.3.2.6.5.7.9.2.4.3 1 .3 1.7 0 .8-.1 1.4-.2 1.8-.2.5-.4.8-.7 1-.3.2-.7.4-1.2.4s-.9-.1-1.2-.4-.5-.6-.6-1zm3-2.7c0-.4-.1-.8-.3-1-.2-.2-.5-.4-.8-.4-.3 0-.6.1-.9.4s-.4.6-.4 1 .1.7.3.9c.2.2.5.4.9.4.3 0 .6-.1.8-.4.3-.1.4-.5.4-.9zM139.2 23.9v-.7h2.5v2.2c-.4.3-.8.5-1.2.7-.4.2-.8.2-1.3.2-.6 0-1.1-.1-1.6-.4-.5-.3-.8-.6-1.1-1.1-.2-.5-.4-1-.4-1.6 0-.6.1-1.1.4-1.6s.6-.9 1.1-1.1c.5-.2 1-.4 1.6-.4.4 0 .8.1 1.2.2.4.1.6.3.8.6s.4.6.5 1l-.7.2c-.1-.3-.2-.5-.3-.7-.1-.2-.3-.3-.6-.4-.2-.1-.5-.2-.8-.2-.4 0-.7.1-.9.2-.3.1-.5.3-.6.4-.2.2-.3.4-.4.6-.2.4-.2.8-.2 1.2 0 .5.1 1 .3 1.3.2.4.5.6.8.8s.7.3 1.1.3c.3 0 .7-.1 1-.2.3-.1.6-.3.7-.4v-1.1h-1.9zM142.4 23.3c0-1 .3-1.8.8-2.3s1.2-.8 2.1-.8c.6 0 1.1.1 1.5.4.4.3.8.6 1 1.1.2.5.3 1 .3 1.6 0 .6-.1 1.2-.4 1.6-.2.5-.6.8-1 1.1-.5.2-.9.4-1.5.4s-1.1-.1-1.5-.4c-.4-.3-.8-.6-1-1.1s-.3-1-.3-1.6zm.9 0c0 .7.2 1.3.6 1.7.4.4.9.6 1.5.6s1.1-.2 1.5-.6.6-1 .6-1.8c0-.5-.1-.9-.2-1.3-.2-.4-.4-.6-.7-.8-.3-.2-.7-.3-1.1-.3-.6 0-1 .2-1.5.6-.5.4-.7 1-.7 1.9zM149.1 26.3v-.8h.8v.8c0 .3-.1.6-.2.7-.1.2-.3.3-.5.4l-.2-.3c.2-.1.3-.2.3-.3.1-.1.1-.3.1-.6h-.3zM153.1 27.9l-.1-.7c.2 0 .3.1.4.1.2 0 .3 0 .4-.1s.2-.1.2-.2.1-.3.2-.5c0 0 0-.1.1-.2l-1.7-4.4h.8l.9 2.5c.1.3.2.7.3 1 .1-.3.2-.7.3-1l.9-2.5h.7l-1.7 4.4c-.2.5-.3.8-.4 1-.1.2-.3.4-.5.5-.2.1-.4.2-.6.2.2 0 0 0-.2-.1zM157.3 21.9h3.4v4.4h-.7v-3.7h-2v3.2c0 .2-.1.3-.3.4s-.4.2-.6.2h-.6v-.6h.6l.1-.1v-3.8zM161.9 26.3v-.8h.8v.8h-.8zM165.4 26.3l2.3-3.1-2-2.9h.9l1.1 1.5c.2.3.4.6.5.7.1-.2.3-.4.5-.7l1.2-1.6h.9l-2.1 2.8 2.3 3.2h-1l-1.5-2.1c-.1-.1-.2-.3-.3-.4-.1.2-.2.4-.3.5l-1.5 2.1h-1zM174.1 25.7c-.3.2-.5.4-.8.5-.3.1-.5.1-.8.1-.5 0-.8-.1-1.1-.4s-.4-.5-.4-.9c0-.2 0-.4.1-.6.1-.2.2-.3.4-.4s.3-.2.5-.2c.1 0 .4-.1.7-.1.6-.1 1-.2 1.3-.3v-.2c0-.3-.1-.5-.2-.6-.2-.2-.5-.2-.8-.2-.3 0-.6.1-.8.2-.2.1-.3.3-.4.6l-.7-.1c.1-.3.2-.6.3-.7.2-.2.4-.3.7-.4.3-.1.6-.2 1-.2s.7 0 .9.1c.2.1.4.2.5.3s.2.3.2.5v3c0 .2.1.4.2.5h-.8c.1-.1 0-.3 0-.5zm0-1.6c-.3.1-.7.2-1.2.3-.3 0-.5.1-.6.1s-.2.1-.3.2c-.1.1-.1.2-.1.4s.1.4.2.5c.1.1.4.2.7.2.3 0 .5-.1.8-.2.2-.1.4-.3.5-.5.1-.2.1-.4.1-.7v-.3zM176.3 21.9h3v3.7h.5v1.8h-.6v-1.2h-3.4v1.2h-.6v-1.8h.4c.5-.7.7-1.9.7-3.7zm.6.6c-.1 1.4-.3 2.5-.7 3.1h2.3v-3.1h-1.6zM183.1 21.9v1.9c.2 0 .4 0 .5-.1.1-.1.2-.4.4-.8s.3-.7.5-.8c.1-.1.3-.2.6-.2h.3v.6h-.2c-.2 0-.3 0-.4.1-.1.1-.1.2-.3.5-.1.3-.2.5-.3.6s-.2.2-.4.3c.3.1.6.4.9.9l.8 1.3h-.8l-.8-1.3c-.2-.3-.3-.5-.4-.5s-.3-.1-.4-.1v2h-.8v-2c-.2 0-.3 0-.4.1-.1.1-.3.3-.4.5l-.8 1.3h-.8l.8-1.3c.3-.5.6-.8.9-.9-.2-.1-.4-.2-.5-.3-.1-.1-.2-.4-.4-.8-.1-.2-.1-.2-.2-.3-.1 0-.2-.1-.3-.1h-.2v-.6h.1c.3 0 .5 0 .6.1s.2.1.3.2c.1.1.2.3.4.7.2.4.3.7.4.8.1.1.3.1.5.1v-1.9h.8zM185.8 21.9h.7v3.3l2-3.3h.8v4.4h-.7V23l-2 3.3h-.8v-4.4zM190.3 21.9h1.1l1.1 3.5 1.3-3.5h1.1v4.4h-.7v-3.5l-1.3 3.5h-.7l-1.2-3.7v3.7h-.7v-4.4zM195.9 27.9l-.1-.7c.2 0 .3.1.4.1.2 0 .3 0 .4-.1s.2-.1.2-.2.1-.3.2-.5c0 0 0-.1.1-.2l-1.7-4.4h.8l.9 2.5c.1.3.2.7.3 1 .1-.3.2-.7.3-1l.9-2.5h.7l-1.7 4.4c-.2.5-.3.8-.4 1-.1.2-.3.4-.5.5-.2.1-.4.2-.6.2.2 0 0 0-.2-.1zM199.9 21.9h.7v1.9c.2 0 .4 0 .5-.1.1-.1.2-.4.4-.8.1-.3.3-.6.4-.7s.2-.2.3-.2c.1 0 .3-.1.6-.1h.1v.6h-.2c-.2 0-.3 0-.4.1-.1.1-.1.2-.3.5-.1.3-.2.5-.3.6s-.2.2-.4.3c.3.1.6.4.9.9l.8 1.3h-.8l-.8-1.3c-.2-.3-.3-.4-.4-.5s-.3-.1-.4-.1v2h-.7v-4.4zM206.4 25.7c-.3.2-.5.4-.8.5-.3.1-.5.1-.8.1-.5 0-.8-.1-1.1-.4s-.4-.5-.4-.9c0-.2 0-.4.1-.6.1-.2.2-.3.4-.4s.3-.2.5-.2c.1 0 .4-.1.7-.1.6-.1 1-.2 1.3-.3v-.2c0-.3-.1-.5-.2-.6-.2-.2-.5-.2-.8-.2-.3 0-.6.1-.8.2-.2.1-.3.3-.4.6l-.7-.1c.1-.3.2-.6.3-.7.2-.2.4-.3.7-.4.3-.1.6-.2 1-.2s.7 0 .9.1c.2.1.4.2.5.3s.2.3.2.5v3c0 .2.1.4.2.5h-.8c.1-.1.1-.3 0-.5zm0-1.6c-.3.1-.7.2-1.2.3-.3 0-.5.1-.6.1s-.2.1-.3.2c-.1.1-.1.2-.1.4s.1.4.2.5c.1.1.4.2.7.2.3 0 .5-.1.8-.2.2-.1.4-.3.5-.5.1-.2.1-.4.1-.7v-.3zM208.1 21.9h.7v1.8h2v-1.8h.7v4.4h-.7v-1.9h-2v1.9h-.7v-4.4zM215.3 25.7c-.3.2-.5.4-.8.5-.3.1-.5.1-.8.1-.5 0-.8-.1-1.1-.4s-.4-.5-.4-.9c0-.2 0-.4.1-.6.1-.2.2-.3.4-.4s.3-.2.5-.2c.1 0 .4-.1.7-.1.6-.1 1-.2 1.3-.3v-.2c0-.3-.1-.5-.2-.6-.2-.2-.5-.2-.8-.2-.3 0-.6.1-.8.2-.2.1-.3.3-.4.6l-.7-.1c.1-.3.2-.6.3-.7.2-.2.4-.3.7-.4.3-.1.6-.2 1-.2s.7 0 .9.1c.2.1.4.2.5.3s.2.3.2.5v3c0 .2.1.4.2.5h-.8c.1-.1 0-.3 0-.5zm-.1-1.6c-.3.1-.7.2-1.2.3-.3 0-.5.1-.6.1s-.2.1-.3.2c-.1.1-.1.2-.1.4s.1.4.2.5c.1.1.4.2.7.2.3 0 .5-.1.8-.2.2-.1.4-.3.5-.5.1-.2.1-.4.1-.7v-.3zM217.1 26.3v-.8h.8v.8c0 .3-.1.6-.2.7-.1.2-.3.3-.5.4l-.2-.3c.2-.1.3-.2.3-.3.1-.1.1-.3.1-.6h-.3zM221.8 21.9h3v3.7h.5v1.8h-.6v-1.2h-3.4v1.2h-.6v-1.8h.4c.4-.7.7-1.9.7-3.7zm.6.6c-.1 1.4-.3 2.5-.7 3.1h2.3v-3.1h-1.6zM226.1 26.3v-.8h.8v.8h-.8zM233.8 25.6v.7h-4c0-.2 0-.3.1-.5.1-.3.3-.5.5-.8.2-.3.5-.6 1-.9.7-.5 1.1-1 1.3-1.3s.3-.6.3-.9c0-.3-.1-.5-.3-.7s-.5-.3-.8-.3c-.4 0-.6.1-.9.3-.2.2-.3.5-.3.9l-.8-.1c.1-.6.2-1 .6-1.3.3-.3.8-.4 1.4-.4.6 0 1 .2 1.4.5.3.3.5.7.5 1.2 0 .2 0 .5-.1.7-.1.2-.3.5-.5.7-.2.3-.6.6-1.1 1.1-.4.4-.7.6-.9.8s-.2.3-.3.4h2.9zM238.2 25.6v.7h-4c0-.2 0-.3.1-.5.1-.3.3-.5.5-.8.2-.3.5-.6 1-.9.7-.5 1.1-1 1.3-1.3s.3-.6.3-.9c0-.3-.1-.5-.3-.7s-.5-.3-.8-.3c-.4 0-.6.1-.9.3-.2.2-.3.5-.3.9l-.8-.1c.1-.6.2-1 .6-1.3.3-.3.8-.4 1.4-.4.6 0 1 .2 1.4.5.3.3.5.7.5 1.2 0 .2 0 .5-.1.7-.1.2-.3.5-.5.7-.2.3-.6.6-1.1 1.1-.4.4-.7.6-.9.8s-.2.3-.3.4h2.9zM238.5 26.4l1.7-6.2h.6l-1.7 6.2h-.6zM240.9 24.7l.8-.1c.1.4.2.7.4.8.2.2.5.3.8.3.4 0 .7-.1.9-.4s.4-.6.4-1.1c0-.4-.1-.8-.4-1s-.5-.4-.9-.4c-.2 0-.5.1-.6.2-.2.1-.3.2-.5.4l-.7-.1.6-3.1h3v.8h-2.4l-.3 1.6c.4-.3.7-.4 1.1-.4.5 0 1 .2 1.3.5.4.4.5.8.5 1.4 0 .5-.2 1-.5 1.4-.4.5-.9.7-1.6.7-.5 0-1-.2-1.3-.5s-.5-.5-.6-1zM245.8 26.3v-.8h.8v.8c0 .3-.1.6-.2.7-.1.2-.3.3-.5.4l-.2-.3c.2-.1.3-.2.3-.3.1-.1.1-.3.1-.6h-.3zM0 32h3.5v.6H2.1v3.7h-.7v-3.7H0V32zM6.9 34.9l.8.1c-.1.4-.3.8-.7 1-.3.2-.7.4-1.2.4-.6 0-1.1-.2-1.5-.6-.4-.4-.6-.9-.6-1.6 0-.7.2-1.3.6-1.7s.9-.6 1.5-.6 1.1.2 1.4.6c.4.4.6 1 .6 1.7v.2H4.5c0 .5.2.8.4 1.1.2.3.5.4.9.4.3 0 .5-.1.7-.2.2-.2.3-.5.4-.8zm-2.4-1.2h2.4c0-.4-.1-.6-.3-.8-.2-.3-.5-.4-.9-.4-.3 0-.6.1-.9.3-.2.3-.3.6-.3.9zM8.5 32h3.4v4.4h-.7v-3.7h-2v3.2c0 .2-.1.3-.3.4s-.4.2-.6.2h-.6v-.6h.6l.1-.1V32zM13 36.3v-.8h.8v.8H13zM15.1 32.8V32h.9v.8h-.9zm0 3.5v-.8h.9v.8h-.9zM20.7 35.4v-1.6h-1.6V33h1.6v-1.6h.7V33H23v.7h-1.6v1.6h-.7zM25.8 31.1v-.7h3.9v.6a5 5 0 0 0-1.1 1.6c-.4.7-.7 1.4-.9 2.1-.1.5-.2 1.1-.3 1.7h-.8c0-.5.1-1 .3-1.7.2-.7.4-1.3.8-1.9.3-.6.7-1.1 1.1-1.6h-3zM32.4 31.1v-.7h3.9v.6a5 5 0 0 0-1.1 1.6c-.4.7-.7 1.4-.9 2.1-.1.5-.2 1.1-.3 1.7h-.8c0-.5.1-1 .3-1.7.2-.7.4-1.3.8-1.9.3-.6.7-1.1 1.1-1.6h-3zM40.7 35.6v.7h-4c0-.2 0-.3.1-.5.1-.3.3-.5.5-.8.2-.3.5-.6 1-.9.7-.5 1.1-1 1.3-1.3s.3-.6.3-.9c0-.3-.1-.5-.3-.7s-.5-.3-.8-.3c-.4 0-.6.1-.9.3-.2.2-.3.5-.3.9l-.7-.1c.1-.6.2-1 .6-1.3.3-.3.8-.4 1.4-.4.6 0 1 .2 1.4.5.3.3.5.7.5 1.2 0 .2 0 .5-.1.7-.1.2-.3.5-.5.7-.2.3-.6.6-1.1 1.1-.4.4-.7.6-.9.8s-.2.3-.3.4h2.8zM41.3 31.1v-.7h3.9v.6a5 5 0 0 0-1.1 1.6c-.4.7-.7 1.4-.9 2.1-.1.5-.2 1.1-.3 1.7h-.8c0-.5.1-1 .3-1.7.2-.7.4-1.3.8-1.9.3-.6.7-1.1 1.1-1.6h-3zM47.9 34.7l.7-.1c.1.4.2.7.4.9.2.2.5.3.7.3.3 0 .6-.1.9-.4.2-.2.4-.5.4-.9 0-.3-.1-.6-.3-.8-.2-.2-.5-.3-.8-.3-.1 0-.3 0-.5.1l.1-.6h.1c.3 0 .6-.1.8-.2.3-.2.4-.4.4-.8 0-.3-.1-.5-.3-.7-.2-.2-.4-.3-.7-.3-.3 0-.5.1-.7.3-.2.2-.3.5-.4.8l-.7-.1c.1-.5.3-.9.6-1.1s.7-.4 1.2-.4c.3 0 .6.1.9.2.3.1.5.3.6.6.1.2.2.5.2.8 0 .3-.1.5-.2.7s-.3.4-.6.5c.4.1.6.3.8.5.2.3.3.6.3 1 0 .5-.2 1-.6 1.3-.4.4-.9.5-1.5.5-.5 0-1-.2-1.3-.5-.3-.3-.5-.8-.5-1.3zM52.2 34.5v-.7h2.3v.7h-2.3zM57.7 36.3H57v-4.7c-.2.2-.4.3-.7.5-.3.2-.5.3-.8.4v-.7c.4-.2.8-.4 1.1-.7.3-.3.5-.5.7-.8h.5v6zM61.5 36.3h-.7v-4.7c-.2.2-.4.3-.7.5-.3.2-.5.3-.8.4v-.7c.4-.2.8-.4 1.1-.7.3-.3.5-.5.7-.8h.5v6zM65.3 36.3h-.7v-4.7c-.2.2-.4.3-.7.5-.3.2-.5.3-.8.4v-.7c.4-.2.8-.4 1.1-.7.3-.3.5-.5.7-.8h.5v6zM66.9 34.5v-.7h2.3v.7h-2.3zM69.6 34.8l.8-.1c.1.4.2.7.4.8.2.2.5.3.8.3.4 0 .7-.1.9-.4s.4-.6.4-1.1c0-.4-.1-.8-.4-1s-.6-.3-1-.3c-.2 0-.5.1-.6.2-.2.1-.3.2-.5.4l-.7-.1.6-3.1h3v.7h-2.4l-.3 1.6c.4-.3.7-.4 1.1-.4.5 0 1 .2 1.3.5.4.4.5.8.5 1.4 0 .5-.2 1-.5 1.4-.4.5-.9.7-1.6.7-.5 0-1-.2-1.3-.5s-.4-.5-.5-1zM76.8 36.3h-.7v-4.7c-.2.2-.4.3-.7.5-.3.2-.5.3-.8.4v-.7c.4-.2.8-.4 1.1-.7.3-.3.5-.5.7-.8h.5v6zM82.3 31.8l-.7.1c-.1-.3-.2-.5-.3-.6-.2-.2-.4-.3-.7-.3-.2 0-.4.1-.6.2-.2.2-.4.4-.5.7s-.2.8-.2 1.4c.2-.3.4-.5.7-.6s.5-.2.8-.2c.5 0 .9.2 1.3.5.3.4.5.8.5 1.4 0 .4-.1.7-.2 1.1-.2.3-.4.6-.7.7-.3.2-.6.3-1 .3-.6 0-1.1-.2-1.5-.7-.4-.5-.6-1.2-.6-2.2 0-1.2.2-2 .6-2.5.4-.5.9-.7 1.5-.7.5 0 .9.1 1.2.4.2.2.4.5.4 1zm-3 2.6c0 .3.1.5.2.7.1.2.3.4.5.5.2.1.4.2.6.2.3 0 .6-.1.8-.4.2-.3.3-.6.3-1s-.1-.7-.3-1-.5-.4-.8-.4c-.3 0-.6.1-.8.4-.3.3-.5.6-.5 1zM83.4 36.3v-.8h.8v.8c0 .3-.1.6-.2.7-.1.2-.3.3-.5.4l-.2-.3c.2-.1.3-.2.3-.3.1-.1.1-.3.1-.6h-.3zM90 30.3h.7v2.1c.2-.2.3-.3.5-.4s.4-.1.6-.1c.5 0 .9.2 1.2.6s.5 1 .5 1.6c0 .7-.2 1.2-.5 1.6-.3.4-.7.6-1.2.6-.2 0-.3 0-.5-.1-.2 0-.4-.2-.6-.4v2H90v-2c-.1.2-.3.3-.5.4s-.4.1-.6.1c-.5 0-.9-.2-1.2-.6s-.5-1-.5-1.7c0-.6.2-1.2.5-1.6s.7-.6 1.2-.6c.2 0 .4 0 .6.1s.3.2.5.4v-2zm-2.1 3.8c0 .6.1 1.1.3 1.3.2.3.5.4.8.4.3 0 .6-.1.7-.4.2-.3.2-.7.2-1.2 0-.6-.1-1-.2-1.3-.2-.3-.4-.4-.8-.4-.3 0-.6.1-.7.4s-.3.7-.3 1.2zm2.8.1c0 .7.1 1.1.3 1.3.2.2.4.3.7.3.3 0 .6-.1.8-.4s.3-.7.3-1.3c0-.6-.1-1-.3-1.2s-.4-.4-.8-.4c-.3 0-.6.1-.7.4-.2.3-.3.7-.3 1.3zM97 35.8c-.3.2-.5.4-.8.5-.3.1-.5.1-.8.1-.5 0-.8-.1-1.1-.4s-.4-.5-.4-.9c0-.2 0-.4.1-.6.1-.2.2-.3.4-.4s.3-.2.5-.2c.1 0 .4-.1.7-.1.6-.1 1-.2 1.3-.3v-.2c0-.3-.1-.5-.2-.6-.2-.2-.5-.2-.8-.2-.3 0-.6.1-.8.2-.2.1-.3.3-.4.6l-.7-.1c.1-.3.2-.6.3-.7.2-.2.4-.3.7-.4.3-.1.6-.2 1-.2s.7 0 .9.1c.2.1.4.2.5.3s.2.3.2.5v3c0 .2.1.4.2.5H97v-.5zm-.1-1.7c-.3.1-.7.2-1.2.3-.3 0-.5.1-.6.1s-.2.1-.3.2c-.1.1-.1.2-.1.4s.1.4.2.5c.1.1.4.2.7.2.3 0 .5-.1.8-.2.2-.1.4-.3.5-.5.1-.2.1-.4.1-.7v-.3zM98.6 32h.7v1.9c.2 0 .4 0 .5-.1.1-.1.2-.4.4-.8.1-.3.3-.6.4-.7s.2-.2.3-.2c.1 0 .3-.1.6-.1h.1v.6h-.2c-.2 0-.3 0-.4.1-.1.1-.1.2-.3.5-.1.3-.2.5-.3.6s-.2.2-.4.3c.3.1.6.4.9.9l.8 1.3h-.7l-.8-1.3c-.2-.3-.3-.4-.4-.5s-.3-.1-.4-.1v2h-.7V32zM105 34.7l.7.1c-.1.5-.3.9-.6 1.2-.3.3-.7.4-1.2.4-.6 0-1.1-.2-1.4-.6-.4-.4-.5-.9-.5-1.7 0-.5.1-.9.2-1.2.2-.4.4-.6.7-.8.3-.2.7-.3 1-.3.5 0 .9.1 1.2.4s.5.6.6 1l-.7.1c-.1-.3-.2-.5-.4-.7s-.4-.2-.6-.2c-.4 0-.7.1-.9.4-.2.3-.3.7-.3 1.3 0 .6.1 1 .3 1.3.2.3.5.4.9.4.3 0 .5-.1.7-.3.1-.1.2-.4.3-.8zM109.8 35.4v-1.6h-1.6V33h1.6v-1.6h.7V33h1.6v.7h-1.6v1.6h-.7zM112.8 31.1v-.7h3.9v.6a5 5 0 0 0-1.1 1.6c-.4.7-.7 1.4-.9 2.1-.1.5-.2 1.1-.3 1.7h-.8c0-.5.1-1 .3-1.7.2-.7.4-1.3.8-1.9.3-.6.7-1.1 1.1-1.6h-3zM119.4 31.1v-.7h3.9v.6a5 5 0 0 0-1.1 1.6c-.4.7-.7 1.4-.9 2.1-.1.5-.2 1.1-.3 1.7h-.8c0-.5.1-1 .3-1.7.2-.7.4-1.3.8-1.9.3-.6.7-1.1 1.1-1.6h-3zM127.6 35.6v.7h-4c0-.2 0-.3.1-.5.1-.3.3-.5.5-.8.2-.3.5-.6 1-.9.7-.5 1.1-1 1.3-1.3s.3-.6.3-.9c0-.3-.1-.5-.3-.7s-.5-.3-.8-.3c-.4 0-.6.1-.9.3-.2.2-.3.5-.3.9l-.8-.1c.1-.6.2-1 .6-1.3.3-.3.8-.4 1.4-.4.6 0 1 .2 1.4.5.3.3.5.7.5 1.2 0 .2 0 .5-.1.7-.1.2-.3.5-.5.7-.2.3-.6.6-1.1 1.1-.4.4-.7.6-.9.8s-.2.3-.3.4h2.9zM128.3 31.1v-.7h3.9v.6a5 5 0 0 0-1.1 1.6c-.4.7-.7 1.4-.9 2.1-.1.5-.2 1.1-.3 1.7h-.8c0-.5.1-1 .3-1.7.2-.7.4-1.3.8-1.9.3-.6.7-1.1 1.1-1.6h-3zM134.8 34.7l.7-.1c.1.4.2.7.4.9.2.2.5.3.7.3.3 0 .6-.1.9-.4.2-.2.4-.5.4-.9 0-.3-.1-.6-.3-.8-.2-.2-.5-.3-.8-.3-.1 0-.3 0-.5.1l.1-.6h.1c.3 0 .6-.1.8-.2.3-.2.4-.4.4-.8 0-.3-.1-.5-.3-.7-.2-.2-.4-.3-.7-.3-.3 0-.5.1-.7.3-.2.2-.3.5-.4.8l-.7-.1c.1-.5.3-.9.6-1.1s.7-.4 1.2-.4c.3 0 .6.1.9.2.3.1.5.3.6.6.1.2.2.5.2.8 0 .3-.1.5-.2.7s-.3.4-.6.5c.4.1.6.3.8.5.2.3.3.6.3 1 0 .5-.2 1-.6 1.3-.4.4-.9.5-1.5.5-.5 0-1-.2-1.3-.5-.2-.3-.4-.8-.5-1.3zM139.2 34.5v-.7h2.3v.7h-2.3zM144.6 36.3h-.7v-4.7c-.2.2-.4.3-.7.5-.3.2-.5.3-.8.4v-.7c.4-.2.8-.4 1.1-.7.3-.3.5-.5.7-.8h.5v6zM148.5 36.3h-.7v-4.7c-.2.2-.4.3-.7.5-.3.2-.5.3-.8.4v-.7c.4-.2.8-.4 1.1-.7.3-.3.5-.5.7-.8h.5v6zM152.3 36.3h-.7v-4.7c-.2.2-.4.3-.7.5-.3.2-.5.3-.8.4v-.7c.4-.2.8-.4 1.1-.7.3-.3.5-.5.7-.8h.5v6zM153.9 34.5v-.7h2.3v.7h-2.3zM156.6 34.8l.8-.1c.1.4.2.7.4.8.2.2.5.3.8.3.4 0 .7-.1.9-.4s.4-.6.4-1.1c0-.4-.1-.8-.4-1s-.5-.4-.9-.4c-.2 0-.5.1-.6.2-.2.1-.3.2-.5.4l-.7-.1.6-3.1h3v.7H158l-.3 1.6c.4-.3.7-.4 1.1-.4.5 0 1 .2 1.3.5.4.4.5.8.5 1.4 0 .5-.2 1-.5 1.4-.4.5-.9.7-1.6.7-.5 0-1-.2-1.3-.5s-.6-.4-.6-.9zM163.8 36.3h-.7v-4.7c-.2.2-.4.3-.7.5-.3.2-.5.3-.8.4v-.7c.4-.2.8-.4 1.1-.7.3-.3.5-.5.7-.8h.5v6zM165.5 31.1v-.7h3.9v.6a5 5 0 0 0-1.1 1.6c-.4.7-.7 1.4-.9 2.1-.1.5-.2 1.1-.3 1.7h-.8c0-.5.1-1 .3-1.7.2-.7.4-1.3.8-1.9.3-.6.7-1.1 1.1-1.6h-3zM170.3 36.3v-.8h.8v.8c0 .3-.1.6-.2.7-.1.2-.3.3-.5.4l-.2-.3c.2-.1.3-.2.3-.3.1-.1.1-.3.1-.6h-.3zM177 33.8c0-.4-.2-.7-.4-.9-.2-.2-.5-.4-.8-.4-.6 0-.9.3-1 .9l-.7-.1c.1-.4.2-.7.5-1 .3-.3.7-.4 1.2-.4.6 0 1.1.2 1.4.6s.5 1 .5 1.7-.1 1.3-.5 1.7c-.3.4-.8.6-1.4.6-.5 0-.9-.1-1.3-.4-.3-.3-.5-.7-.6-1.2l.7-.1c.1.7.5 1.1 1.1 1.1.4 0 .6-.1.8-.4s.3-.6.4-1.1h-1.5v-.6h1.6zM178.6 32h3.4v4.4h-.7v-3.7h-2v3.2c0 .2-.1.3-.3.4s-.4.2-.6.2h-.6v-.6h.6l.1-.1V32zM183.2 36.3v-.8h.8v.8h-.8zM187.2 32h3.4v4.4h-.7v-3.7h-2v3.7h-.7V32zM191.3 34.2c0-.8.2-1.4.7-1.8.4-.3.8-.5 1.4-.5.6 0 1.1.2 1.5.6.4.4.6.9.6 1.6 0 .6-.1 1-.3 1.3-.2.3-.4.6-.7.7-.3.2-.7.3-1.1.3-.6 0-1.1-.2-1.5-.6-.5-.3-.6-.9-.6-1.6zm.7 0c0 .6.1 1 .4 1.3s.5.4.9.4.7-.1.9-.4c.2-.3.4-.7.4-1.3 0-.5-.1-.9-.4-1.2-.2-.3-.5-.4-.9-.4s-.7.1-.9.4c-.3.2-.4.6-.4 1.2zM195.5 32h.7v.8c0 .4 0 .6.1.8 0 .2.1.3.3.4s.4.2.6.2c.3 0 .6-.1 1.1-.2v-2h.7v4.4h-.7v-1.8c-.5.1-.9.2-1.3.2-.3 0-.6-.1-.9-.3-.3-.2-.4-.4-.5-.6s-.1-.5-.1-.8V32zM199.6 32h3.5v.6h-1.4v3.7h-.7v-3.7h-1.4V32zM206.3 35.8c-.3.2-.5.4-.8.5-.3.1-.5.1-.8.1-.5 0-.8-.1-1.1-.4s-.4-.5-.4-.9c0-.2 0-.4.1-.6.1-.2.2-.3.4-.4s.3-.2.5-.2c.1 0 .4-.1.7-.1.6-.1 1-.2 1.3-.3v-.2c0-.3-.1-.5-.2-.6-.2-.2-.5-.2-.8-.2-.3 0-.6.1-.8.2-.2.1-.3.3-.4.6l-.7-.1c.1-.3.2-.6.3-.7.2-.2.4-.3.7-.4.3-.1.6-.2 1-.2s.7 0 .9.1c.2.1.4.2.5.3s.2.3.2.5v3c0 .2.1.4.2.5h-.8c.1-.1.1-.3 0-.5zm0-1.7c-.3.1-.7.2-1.2.3-.3 0-.5.1-.6.1s-.2.1-.3.2c-.1.1-.1.2-.1.4s.1.4.2.5c.1.1.4.2.7.2.3 0 .5-.1.8-.2.2-.1.4-.3.5-.5.1-.2.1-.4.1-.7v-.3zM208.2 32.8V32h.8v.8h-.8zm0 3.5v-.8h.8v.8h-.8zM211.9 34.2c0-.8.2-1.4.7-1.8.4-.3.8-.5 1.4-.5.6 0 1.1.2 1.5.6.4.4.6.9.6 1.6 0 .6-.1 1-.3 1.3-.2.3-.4.6-.7.7-.3.2-.7.3-1.1.3-.6 0-1.1-.2-1.5-.6-.4-.3-.6-.9-.6-1.6zm.8 0c0 .6.1 1 .4 1.3s.5.4.9.4.7-.1.9-.4c.2-.3.4-.7.4-1.3 0-.5-.1-.9-.4-1.2-.2-.3-.5-.4-.9-.4s-.7.1-.9.4c-.3.2-.4.6-.4 1.2zM216.8 36.3v-3.8h-.7V32h.7v-.5c0-.3 0-.5.1-.7.1-.2.2-.3.4-.5.2-.1.4-.2.8-.2.2 0 .4 0 .7.1l-.1.6h-.4c-.2 0-.4 0-.5.1s-.1.3-.1.5v.6h.8v.6h-.8v3.8h-.9z"/><path class="st0" d="M218.8 36.3v-3.8h-.7V32h.7v-.5c0-.3 0-.5.1-.7.1-.2.2-.3.4-.5.2-.1.4-.2.8-.2.2 0 .4 0 .7.1l-.1.6h-.4c-.2 0-.4 0-.5.1s-.1.3-.1.5v.6h.8v.6h-.8v3.8h-.9zM220.8 31.2v-.8h.7v.8h-.7zm0 5.1V32h.7v4.4h-.7zM225.2 34.7l.7.1c-.1.5-.3.9-.6 1.2-.3.3-.7.4-1.2.4-.6 0-1.1-.2-1.4-.6-.4-.4-.5-.9-.5-1.7 0-.5.1-.9.2-1.2.2-.4.4-.6.7-.8.3-.2.7-.3 1-.3.5 0 .9.1 1.2.4s.5.6.6 1l-.7.1c-.1-.3-.2-.5-.4-.7s-.4-.2-.6-.2c-.4 0-.7.1-.9.4-.2.3-.3.7-.3 1.3 0 .6.1 1 .3 1.3.2.3.5.4.9.4.3 0 .5-.1.7-.3.2-.1.3-.4.3-.8zM229.4 34.9l.8.1c-.1.4-.3.8-.7 1-.3.2-.7.4-1.2.4-.6 0-1.1-.2-1.5-.6-.4-.4-.6-.9-.6-1.6 0-.7.2-1.3.6-1.7s.9-.6 1.5-.6 1.1.2 1.4.6c.4.4.6 1 .6 1.7v.2h-3.2c0 .5.2.8.4 1.1.2.3.5.4.9.4.3 0 .5-.1.7-.2 0-.2.2-.5.3-.8zm-2.4-1.2h2.4c0-.4-.1-.6-.3-.8-.2-.3-.5-.4-.9-.4-.3 0-.6.1-.9.3-.2.3-.3.6-.3.9zM231.1 36.3v-.8h.8v.8h-.8zM233 36.3v-6h.8v3l3-3h1.1l-2.5 2.4 2.6 3.6h-1l-2.1-3-1 1v2.1h-.9zM238 36.3v-.7l3.1-3.8c.2-.3.4-.5.6-.7h-3.4v-.7h4.3v.6l-3.4 4.2-.4.4h3.8v.7H238zM247.5 35.7c-.2.2-.4.4-.6.5-.2.1-.4.2-.7.2-.2 0-.5-.1-.7-.2-.2-.1-.4-.4-.6-.7s-.2-.6-.2-1 .1-.9.3-1.3.5-.8.8-1c.3-.2.7-.3 1-.3.2 0 .5.1.7.2.2.1.4.3.6.6l.1-.6h.7l-.6 2.8c-.1.4-.1.6-.1.6 0 .1 0 .1.1.2s.1.1.2.1.3-.1.6-.2c.3-.2.6-.5.7-.9s.3-.7.3-1.1c0-.5-.1-.9-.3-1.3-.2-.4-.6-.7-1-1s-1-.4-1.5-.4c-.6 0-1.2.1-1.8.4-.5.3-.9.7-1.2 1.3s-.4 1.2-.4 1.8c0 .7.1 1.2.4 1.7s.7.8 1.3 1.1c.6.2 1.2.3 1.8.3.7 0 1.3-.1 1.8-.4s.8-.5 1.1-.9h.7c-.1.3-.4.6-.7.9s-.7.5-1.2.7-1 .3-1.7.3c-.6 0-1.2-.1-1.7-.2-.5-.2-.9-.4-1.3-.7-.4-.3-.6-.7-.8-1.1-.2-.5-.3-1.1-.3-1.7 0-.7.1-1.3.4-1.9.3-.7.8-1.3 1.4-1.7.6-.4 1.4-.6 2.2-.6.7 0 1.3.1 1.8.4.5.3 1 .7 1.3 1.2.3.5.4 1 .4 1.5 0 .8-.3 1.5-.8 2.1-.5.6-1 .8-1.6.8-.2 0-.3 0-.5-.1-.1-.1-.2-.1-.3-.2-.1 0-.1-.1-.1-.2zm-2-1.1c0 .4.1.7.3.9.2.2.4.3.6.3.2 0 .3 0 .5-.1s.3-.2.5-.4.3-.4.4-.7.1-.6.1-.8c0-.4-.1-.7-.3-.9-.2-.2-.4-.3-.7-.3-.2 0-.3 0-.5.1s-.3.2-.4.4c-.1.2-.3.4-.3.7s-.2.5-.2.8zM252.3 36.3h-.7v-6h.7v2.1c.3-.4.7-.6 1.2-.6.3 0 .5.1.8.2.2.1.4.3.6.5s.3.4.4.7c.1.3.1.6.1.9 0 .7-.2 1.3-.6 1.7-.4.4-.8.6-1.3.6s-.9-.2-1.2-.6v.5zm0-2.2c0 .5.1.9.2 1.1.2.4.5.6.9.6.3 0 .6-.1.8-.4.2-.3.4-.7.4-1.3 0-.6-.1-1-.3-1.3-.2-.3-.5-.4-.8-.4-.3 0-.6.1-.8.4-.3.4-.4.8-.4 1.3zM258.9 35.8c-.3.2-.5.4-.8.5-.3.1-.5.1-.8.1-.5 0-.8-.1-1.1-.4s-.4-.5-.4-.9c0-.2 0-.4.1-.6.1-.2.2-.3.4-.4s.3-.2.5-.2c.1 0 .4-.1.7-.1.6-.1 1-.2 1.3-.3v-.2c0-.3-.1-.5-.2-.6-.2-.2-.5-.2-.8-.2-.3 0-.6.1-.8.2-.2.1-.3.3-.4.6l-.7-.1c.1-.3.2-.6.3-.7.2-.2.4-.3.7-.4.3-.1.6-.2 1-.2s.7 0 .9.1c.2.1.4.2.5.3s.2.3.2.5v3c0 .2.1.4.2.5h-.7c0-.1-.1-.3-.1-.5zm-.1-1.7c-.3.1-.7.2-1.2.3-.3 0-.5.1-.6.1s-.2.1-.3.2c-.1.1-.1.2-.1.4s.1.4.2.5c.1.1.4.2.7.2.3 0 .5-.1.8-.2.2-.1.4-.3.5-.5.1-.2.1-.4.1-.7v-.3zM263.4 36.3v-.6c-.3.5-.8.7-1.4.7-.3 0-.5 0-.7-.1-.2-.1-.4-.2-.5-.4-.1-.1-.2-.3-.2-.5V32h.7v3.2c0 .2.1.3.3.5.2.1.3.2.6.2s.4-.1.6-.2c.2-.1.3-.3.4-.5.1-.2.1-.5.1-.9V32h.7v4.4h-.6zM264.7 35l.7-.1c0 .3.2.5.3.7.2.2.4.2.8.2.3 0 .6-.1.8-.2s.2-.3.2-.5-.1-.3-.2-.4c-.1-.1-.4-.1-.8-.2-.5-.1-.9-.3-1.1-.4s-.4-.2-.5-.4c-.1-.2-.2-.4-.2-.6 0-.2 0-.4.1-.5.1-.2.2-.3.4-.4.1-.1.3-.2.5-.2.2-.1.4-.1.6-.1.3 0 .6 0 .9.1s.4.2.6.4.2.4.3.7l-.7.1c0-.2-.1-.4-.3-.5s-.4-.2-.7-.2c-.3 0-.6.1-.7.2-.1.1-.2.2-.2.4 0 .1 0 .2.1.3.1.1.2.1.3.2.1 0 .3.1.7.2.5.1.9.3 1.1.3.2.1.4.2.5.4.1.2.2.4.2.6 0 .2-.1.5-.2.7s-.4.4-.6.5-.6.2-.9.2c-.6 0-1-.1-1.3-.4-.5-.3-.7-.6-.7-1.1zM271.8 34.7l.7.1c-.1.5-.3.9-.6 1.2-.3.3-.7.4-1.2.4-.6 0-1.1-.2-1.4-.6-.4-.4-.5-.9-.5-1.7 0-.5.1-.9.2-1.2.2-.4.4-.6.7-.8.3-.2.7-.3 1-.3.5 0 .9.1 1.2.4s.5.6.6 1l-.7.1c-.1-.3-.2-.5-.4-.7s-.4-.2-.6-.2c-.4 0-.7.1-.9.4-.2.3-.3.7-.3 1.3 0 .6.1 1 .3 1.3.2.3.5.4.9.4.3 0 .5-.1.7-.3.1-.1.2-.4.3-.8zM272.9 36.3v-6h.7v2.2c.3-.4.8-.6 1.3-.6.3 0 .6.1.8.2.2.1.4.3.5.5.1.2.2.5.2 1v2.8h-.7v-2.8c0-.4-.1-.6-.2-.8-.2-.2-.4-.3-.7-.3-.2 0-.4.1-.6.2-.2.1-.3.3-.4.5-.1.2-.1.5-.1.8v2.4h-.8zM277.6 36.3v-.8h.8v.8h-.8zM282.4 34.7l.7.1c-.1.5-.3.9-.6 1.2-.3.3-.7.4-1.2.4-.6 0-1.1-.2-1.4-.6-.4-.4-.5-.9-.5-1.7 0-.5.1-.9.2-1.2.2-.4.4-.6.7-.8.3-.2.7-.3 1-.3.5 0 .9.1 1.2.4s.5.6.6 1l-.7.1c-.1-.3-.2-.5-.4-.7s-.4-.2-.6-.2c-.4 0-.7.1-.9.4-.2.3-.3.7-.3 1.3 0 .6.1 1 .3 1.3.2.3.5.4.9.4.3 0 .5-.1.7-.3.1-.1.2-.4.3-.8zM283.2 34.2c0-.8.2-1.4.7-1.8.4-.3.8-.5 1.4-.5.6 0 1.1.2 1.5.6.4.4.6.9.6 1.6 0 .6-.1 1-.3 1.3-.2.3-.4.6-.7.7-.3.2-.7.3-1.1.3-.6 0-1.1-.2-1.5-.6-.4-.3-.6-.9-.6-1.6zm.8 0c0 .6.1 1 .4 1.3s.5.4.9.4.7-.1.9-.4c.2-.3.4-.7.4-1.3 0-.5-.1-.9-.4-1.2-.2-.3-.5-.4-.9-.4s-.7.1-.9.4c-.3.2-.4.6-.4 1.2zM288 36.3V32h.7v.6c.1-.2.3-.4.5-.5.2-.1.5-.2.8-.2.3 0 .6.1.8.2s.4.3.4.6c.3-.5.8-.8 1.3-.8.4 0 .8.1 1 .4s.3.6.3 1.1v3h-.7v-2.7c0-.3 0-.5-.1-.6 0-.1-.1-.2-.3-.3-.1-.1-.3-.1-.4-.1-.3 0-.6.1-.8.3-.2.2-.3.5-.3 1v2.5h-.7v-2.8c0-.3-.1-.6-.2-.7-.1-.2-.3-.2-.6-.2-.2 0-.4.1-.6.2-.2.1-.3.3-.4.5-.1.2-.1.5-.1.9v2.3h-.6z"/></svg>