<?xml version="1.0" encoding="utf-8"?>
<!-- Generator: Adobe Illustrator 25.2.3, SVG Export Plug-In . SVG Version: 6.00 Build 0)  -->
<svg version="1.1" id="Layer_1" xmlns="http://www.w3.org/2000/svg" xmlns:xlink="http://www.w3.org/1999/xlink" x="0px" y="0px"
	 viewBox="0 0 907 60.4" style="enable-background:new 0 0 907 60.4;" xml:space="preserve">
<style type="text/css">
	.st0{fill:#147BB8;}
</style>
<g>
	<path class="st0" d="M0,0.8h38.9v48.9H29V9H9.9v40.7H0V0.8z"/>
	<path class="st0" d="M47,25.6c0-5,0.7-9.2,2.2-12.5c1.1-2.5,2.6-4.7,4.6-6.7c1.9-2,4-3.4,6.3-4.4c3-1.3,6.6-1.9,10.5-1.9
		c7.2,0,13,2.2,17.3,6.7c4.3,4.5,6.5,10.7,6.5,18.7c0,7.9-2.1,14.1-6.4,18.5c-4.3,4.5-10,6.7-17.2,6.7c-7.3,0-13.1-2.2-17.4-6.7
		C49.1,39.5,47,33.4,47,25.6z M57.2,25.3c0,5.5,1.3,9.7,3.8,12.6c2.6,2.9,5.8,4.3,9.7,4.3s7.2-1.4,9.7-4.3c2.5-2.8,3.8-7.1,3.8-12.8
		c0-5.6-1.2-9.8-3.7-12.5c-2.5-2.8-5.7-4.1-9.8-4.1s-7.4,1.4-9.8,4.2C58.4,15.4,57.2,19.6,57.2,25.3z"/>
	<path class="st0" d="M105.2,0.8H139v40.7h4.3v18.9h-8.2V49.8h-30.8v10.7h-8.2V41.6h4.1c2-4.2,3.4-9,4-14.6c0.6-5.5,1-12.5,1-21V0.8
		z M114.6,9c0,14.9-1.3,25.7-4,32.5h18.6V9H114.6z"/>
	<path class="st0" d="M153.9,0.8h33.8v40.7h4.3v18.9h-8.2V49.8H153v10.7h-8.2V41.6h4.1c2-4.2,3.4-9,4-14.6c0.6-5.5,1-12.5,1-21V0.8z
		 M163.3,9c0,14.9-1.3,25.7-4,32.5h18.6V9H163.3z"/>
	<path class="st0" d="M198.6,49.8V0.8h36.3v8.3h-26.4V20h24.6v8.2h-24.6v13.3h27.3v8.2H198.6z"/>
	<path class="st0" d="M244.2,49.8V0.8h15.9c6,0,9.9,0.2,11.7,0.7c2.8,0.7,5.2,2.3,7,4.8c1.9,2.5,2.8,5.6,2.8,9.5
		c0,3-0.5,5.5-1.6,7.6c-1.1,2-2.5,3.7-4.2,4.8s-3.4,1.9-5.1,2.3c-2.4,0.5-5.8,0.7-10.2,0.7h-6.4v18.5H244.2z M254.1,9.1V23h5.4
		c3.9,0,6.5-0.3,7.8-0.8c1.3-0.5,2.3-1.3,3.1-2.4c0.7-1.1,1.1-2.4,1.1-3.8c0-1.8-0.5-3.2-1.6-4.4c-1-1.2-2.4-1.9-4-2.2
		c-1.2-0.2-3.5-0.3-7.1-0.3H254.1z"/>
	<path class="st0" d="M319.7,0.8v20.8c1.6-0.1,2.9-0.7,3.7-1.8c0.8-1.1,2-3.6,3.5-7.5c2-5.1,4-8.3,6-9.7c2-1.4,5.4-2.1,10.1-2.1
		c0.2,0,0.7,0,1.4,0v7.3l-1.4,0c-2,0-3.5,0.3-4.4,0.8c-0.9,0.5-1.7,1.3-2.3,2.3c-0.6,1-1.4,3.1-2.6,6.3c-0.6,1.7-1.3,3.1-2,4.2
		c-0.7,1.1-1.9,2.2-3.7,3.2c2.2,0.6,4,1.9,5.5,3.8c1.4,1.9,3,4.5,4.7,8l6.7,13.4h-11.6l-5.9-12.6c-0.1-0.2-0.3-0.5-0.6-1
		c-0.2-0.3-0.6-1.1-1.2-2.3c-1.2-2.3-2.3-3.8-3.1-4.5c-0.8-0.6-1.8-1-3-1v21.4H310V28.3c-1.1,0-2.1,0.3-2.9,0.9
		c-0.8,0.6-1.8,2.1-3.1,4.5c-0.7,1.3-1.1,2.1-1.2,2.3c-0.2,0.3-0.4,0.7-0.6,1l-5.9,12.6h-11.6l6.7-13.4c1.6-3.3,3.2-5.9,4.7-7.9
		c1.5-1.9,3.3-3.2,5.6-3.9c-1.8-1-3-2.1-3.7-3.2c-0.7-1.1-1.4-2.5-2-4.3c-1.1-3.1-2-5.2-2.5-6.2c-0.6-1-1.3-1.8-2.3-2.3
		c-0.9-0.5-2.5-0.8-4.6-0.8c-0.3,0-0.7,0-1.3,0V0.5c0.7,0,1.2,0,1.4,0c4.8,0,8.2,0.7,10.2,2.1c2,1.4,4,4.7,5.9,9.7
		c1.5,3.9,2.7,6.4,3.5,7.5c0.8,1.1,2.1,1.7,3.7,1.8V0.8H319.7z"/>
	<path class="st0" d="M350.9,0.8h9.9v20.8c2.2-0.2,3.7-0.8,4.5-1.7c0.8-0.9,2-3.4,3.6-7.6c2-5.3,4.1-8.6,6.2-9.9
		c2-1.3,5.4-1.9,9.9-1.9c0.2,0,0.7,0,1.4,0v7.3l-1.4,0c-2,0-3.5,0.3-4.4,0.8s-1.7,1.3-2.3,2.3c-0.6,1-1.4,3.1-2.6,6.3
		c-0.6,1.7-1.3,3.1-2,4.2c-0.7,1.1-1.9,2.2-3.7,3.2c2.2,0.6,4,1.9,5.5,3.8c1.4,1.9,3,4.6,4.7,8l6.7,13.4h-11.6l-5.8-12.6
		c-0.1-0.2-0.3-0.5-0.6-1c-0.1-0.2-0.5-0.9-1.2-2.3c-1.3-2.4-2.3-3.9-3.1-4.5c-0.8-0.6-2.1-0.9-3.7-0.9v21.4h-9.9V0.8z"/>
	<path class="st0" d="M436.5,49.8h-10.7l-4.3-11.1H402l-4,11.1h-10.5l19.1-48.9h10.4L436.5,49.8z M418.3,30.4l-6.7-18.2L405,30.4
		H418.3z"/>
	<path class="st0" d="M460.8,0.8h19.6c3.9,0,6.8,0.2,8.7,0.5c1.9,0.3,3.6,1,5.1,2c1.5,1,2.8,2.4,3.8,4.1s1.5,3.6,1.5,5.7
		c0,2.3-0.6,4.4-1.9,6.3c-1.2,1.9-2.9,3.3-5,4.3c3,0.9,5.3,2.3,6.9,4.4c1.6,2.1,2.4,4.6,2.4,7.4c0,2.2-0.5,4.4-1.6,6.5
		c-1,2.1-2.4,3.8-4.2,5c-1.8,1.3-4,2-6.6,2.3c-1.6,0.2-5.6,0.3-11.9,0.3h-16.7V0.8z M470.7,9v11.3h6.5c3.8,0,6.2-0.1,7.2-0.2
		c1.7-0.2,3-0.8,4-1.8c1-1,1.5-2.2,1.5-3.8c0-1.5-0.4-2.7-1.3-3.7c-0.8-0.9-2.1-1.5-3.7-1.7C483.8,9,481,9,476.4,9H470.7z
		 M470.7,28.4v13.1h9.1c3.6,0,5.8-0.1,6.8-0.3c1.5-0.3,2.7-0.9,3.6-2c0.9-1,1.4-2.4,1.4-4.2c0-1.5-0.4-2.7-1.1-3.7
		c-0.7-1-1.7-1.8-3.1-2.2c-1.3-0.5-4.3-0.7-8.8-0.7H470.7z"/>
	<path class="st0" d="M550.8,49.8h-10.7l-4.3-11.1h-19.6l-4,11.1h-10.5l19.1-48.9h10.4L550.8,49.8z M532.7,30.4l-6.7-18.2l-6.6,18.2
		H532.7z"/>
	<path class="st0" d="M556.3,0.8h9.9v40.7h14.2V0.8h9.8v40.7h14.6V0.8h9.8l0.1,49l-58.4,0V0.8z"/>
	<path class="st0" d="M624.9,0.8h9.2v32.6L654,0.8h9.8v48.9h-9.2V17.8l-19.8,31.9h-9.9V0.8z"/>
	<path class="st0" d="M668.9,49.8l16.7-25.5L670.5,0.8H682l9.8,15.7l9.6-15.7h11.4l-15.2,23.8l16.7,25.2h-11.9l-10.8-16.9
		l-10.9,16.9H668.9z"/>
	<path class="st0" d="M739,0.8h33.1V9h-23.3v40.7H739V0.8z"/>
	<path class="st0" d="M779,0.8h34.3v48.9h-9.9V9.1h-14.7V30c0,6-0.2,10.2-0.6,12.5s-1.4,4.2-2.9,5.5s-4,2-7.3,2
		c-1.2,0-3.3-0.1-6.3-0.3v-7.6l2.2,0c2.1,0,3.5-0.3,4.2-0.8c0.7-0.6,1.1-1.9,1.1-4.1l0-8.4V0.8z"/>
	<path class="st0" d="M867.6,49.8h-10.7l-4.3-11.1H833l-4,11.1h-10.5l19.1-48.9H848L867.6,49.8z M849.4,30.4l-6.7-18.2l-6.6,18.2
		H849.4z"/>
	<path class="st0" d="M879.8,14.2l-9.6-2.2c2.1-8,8-11.9,17.7-11.9c5.7,0,10.1,1.3,13,3.8c2.9,2.5,4.4,5.5,4.4,8.9
		c0,2.3-0.7,4.4-2,6.3c-1.3,1.9-3.3,3.5-6,5c3.2,1.1,5.7,2.7,7.3,4.7c1.6,2,2.4,4.5,2.4,7.5c0,4.3-1.6,7.8-4.7,10.4
		c-3.1,2.6-7.9,4-14.1,4c-5.1,0-9.2-0.9-12.1-2.6c-3-1.7-5.2-4.9-6.7-9.6l9-3c0.9,2.9,2.2,4.8,3.7,5.7c1.5,0.9,3.5,1.3,5.7,1.3
		c3.1,0,5.4-0.7,6.8-2c1.4-1.3,2.1-2.9,2.1-4.6c0-2-0.8-3.6-2.4-4.8c-1.6-1.2-4-1.8-7.3-1.8h-2.2v-7.4h1.1c3,0,5.3-0.7,6.9-2
		c1.6-1.4,2.4-3.2,2.4-5.4c0-1.8-0.7-3.3-2-4.5C892,8.7,890.2,8,887.8,8C883.6,8,881,10.1,879.8,14.2z"/>
</g>
</svg>
