<svg version="1.1" id="Layer_1" xmlns="http://www.w3.org/2000/svg" x="0" y="0" viewBox="0 0 300.1 47" style="enable-background:new 0 0 300.1 47" xml:space="preserve"><style>.st1{fill:#147bb8}</style><path class="st1" d="M-.6 24h5.5v2.2H.5V32h2c.7 0 1.3.2 1.8.5.4.3.8.9 1.1 1.7.3.9.4 1.9.4 3.1 0 .9-.1 1.9-.3 2.6-.2.9-.5 1.5-.9 2.1-.4.5-1 .9-1.9.9H-.6V24zM.5 40.7h2.2c.6 0 1.1-.3 1.4-.9.3-.6.5-1.4.5-2.4 0-.9-.1-1.4-.3-1.9-.2-.5-.4-.9-.7-1-.3-.1-.8-.2-1.6-.2H.5v6.4zm5.4 2L9.2 24h1.2l3.5 18.7h-1.3l-1-5.7H8l-.9 5.7H5.9zM8.3 35h2.9l-.9-5.1c-.3-1.5-.5-2.9-.6-3.9-.1 1.2-.3 2.4-.5 3.6L8.3 35zm7.6-11H21v16.4h.8v6.5h-1v-4.3h-5.6v4.3h-1v-6.5h.7c.7-2.2 1-6.9 1-13.7V24zm4 2.3H17v1c0 1.5-.1 3.8-.2 6.5s-.4 5-.8 6.9h3.9V26.3zm3.4 16.4v-2.6h1.1v2.6h-1.1zm6.4 0V24h1.1v7.7h4.4V24h1.1v18.7h-1.1V34h-4.4v8.7h-1.1zm8.5 0V24h6.1v2.2h-5v5.7H44v2.2h-4.7v6.3h5.2v2.2l-6.3.1zm16.7 0v-8.2h-1.3c-.3 0-.5 0-.6.2l-.5.5c-.2.2-.4.7-.6 1.2-.2.5-.5 1.3-.8 2.5l-1.1 4h-1.4l1.5-5.1c.3-1 .6-1.9.9-2.4.2-.3.4-.7.7-.9-.8-.2-1.4-.9-1.8-1.7-.4-.9-.6-2.1-.6-3.4 0-1 .1-1.9.4-2.7.2-.9.5-1.4.9-1.7.4-.3 1-.5 1.7-.5H56v18.7h-1.1v-.5zm0-16.6h-2.7c-.6 0-1.1.3-1.4.9-.2.7-.4 1.4-.4 2.2 0 .7.1 1.2.2 1.7s.4.9.7 1.2c.3.2.7.3 1.2.3h2.4v-6.3zm2.9 16.6V24H61c.6 0 1.2.2 1.6.5.4.3.7 1 .9 1.7.2.9.3 1.5.3 2.4 0 .9-.1 1.5-.3 2.2-.2.7-.5 1.2-.9 1.7.5.3.9.9 1.2 1.7.3.9.4 1.7.4 2.7 0 .9-.1 1.7-.3 2.4-.2.7-.4 1.4-.6 1.7-.2.3-.6.7-.9.9-.4.2-.8.3-1.4.3h-3.2v.5zm1.1-10.8h1.8c.5 0 .9 0 1.1-.2.3-.2.5-.5.6-.9.1-.5.2-1 .2-1.7s-.1-1.2-.2-1.7-.3-.9-.6-1c-.2-.2-.7-.3-1.3-.3h-1.7v5.8h.1zm0 8.6H61c.4 0 .6 0 .8-.2.3-.2.5-.3.6-.5s.3-.5.4-1c.1-.5.2-1 .2-1.5 0-.7-.1-1.4-.2-1.9-.2-.5-.4-.9-.7-1-.3-.2-.7-.3-1.2-.3h-2v6.4zM66.2 24h5.3v18.7h-1.1V26.3h-3.1v9.6c0 1.9 0 3.4-.1 4.3-.1.9-.3 1.5-.5 2.1-.3.5-.6.7-1 .7-.2 0-.5-.2-.9-.3l.2-2.2c.2.2.3.2.5.2.3 0 .4-.2.6-.7s.2-1.4.2-2.9L66.2 24zm12.7 18.7v-8.2h-1.3c-.3 0-.5 0-.6.2l-.5.5c-.2.2-.4.7-.6 1.2s-.5 1.3-.8 2.5l-1.1 4h-1.4l1.5-5.1c.3-1 .6-1.9.9-2.4.2-.3.4-.7.7-.9-.8-.2-1.4-.9-1.8-1.7-.4-.8-.6-2.1-.6-3.4 0-1 .1-1.9.4-2.7.2-.9.5-1.4.9-1.7.4-.3 1-.5 1.7-.5H80v18.7h-1.1v-.5zm0-16.6h-2.7c-.6 0-1.1.3-1.4.9-.2.7-.4 1.4-.4 2.2 0 .7.1 1.2.2 1.7s.4.9.7 1.2c.3.2.7.3 1.2.3h2.4v-6.3zm3 16.6V24H88v2.2h-5v5.7h4.7v2.2H83v6.3h5.2v2.2l-6.3.1zm10 0V26.3h-2.8V24h6.7v2.2H93v16.4l-1.1.1zm11.1-6.5 1.1.7c-.2 2.1-.7 3.6-1.3 4.6-.6 1-1.4 1.5-2.2 1.5-.9 0-1.7-.3-2.2-1.2-.6-.9-1-2.1-1.3-3.6s-.4-3.3-.4-5c0-1.9.2-3.6.5-5.1.3-1.4.8-2.6 1.4-3.3s1.3-1.2 2-1.2c.8 0 1.6.5 2.1 1.4.6 1 1 2.2 1.2 3.9l-1.1.5c-.2-1.4-.5-2.4-.9-2.9-.4-.7-.8-.9-1.4-.9s-1.2.3-1.6 1c-.4.7-.7 1.5-.9 2.7-.2 1.2-.3 2.4-.3 3.6 0 1.5.1 2.9.3 4.1.2 1.2.5 2.1 1 2.6.4.5.9.9 1.4.9.6 0 1.2-.3 1.6-1.2.5-.4.8-1.6 1-3.1zm8 6.5v-8.2h-1.3c-.3 0-.5 0-.6.2l-.5.5c-.2.2-.4.7-.6 1.2s-.5 1.4-.8 2.6l-1.1 3.9h-1.4l1.5-5.1c.3-1 .6-1.9.9-2.4.2-.3.4-.7.7-.9-.8-.2-1.4-.9-1.8-1.7-.4-.8-.6-2.1-.6-3.4 0-1 .1-1.9.4-2.7.2-.9.5-1.4.9-1.7.4-.3 1-.5 1.7-.5h3.7v18.7H111v-.5zm0-16.6h-2.6c-.6 0-1.1.3-1.4.9-.3.5-.4 1.4-.4 2.2 0 .7.1 1.2.2 1.7s.4.9.7 1.2c.3.2.7.3 1.2.3h2.4l-.1-6.3zm6.9-2.1h5.3v18.7h-1.1V26.3H119v9.6c0 1.9 0 3.4-.1 4.3-.1.9-.3 1.5-.5 2.1-.3.5-.6.7-1 .7-.2 0-.5-.2-.9-.3l.2-2.2c.2.2.3.2.5.2.3 0 .4-.2.6-.7s.2-1.4.2-2.9l-.1-13.1zm7.2 18.7V24h6.1v2.2h-5v5.7h4.7v2.2h-4.7v6.3h5.2v2.2l-6.3.1zm7.8-18.7h1.1v8.2c.5 0 .9-.2 1.1-.7.2-.5.5-1.5.8-3.1.2-1.2.4-2.1.6-2.6.2-.5.4-.9.6-1.2.3-.3.6-.5.9-.5h.7v2.1h-.4c-.4 0-.6.2-.8.5-.2.3-.4 1.2-.6 2.4-.3 1.5-.5 2.6-.7 2.9-.2.3-.4.7-.7 1 .5.3 1.1 1.4 1.6 3.3l1.7 6.2h-1.4l-1.4-5.1c-.4-1.4-.7-2.4-1-2.9s-.6-.9-1-.9v8.7h-1.1V24zm6 18.7 3.2-18.7h1.2l3.5 18.7h-1.3l-1-5.7H141l-.9 5.7h-1.2zm2.4-7.7h2.9l-.9-5.1c-.3-1.5-.5-2.9-.6-3.9-.1 1.2-.3 2.4-.5 3.6l-.9 5.4zm6.4 7.7V24h3.2c.6 0 1 0 1.3.2.4.2.8.5 1 .9.3.5.5 1 .7 1.9s.3 1.5.3 2.6c0 1.5-.2 2.9-.7 4.1-.5 1-1.3 1.7-2.5 1.7h-2.2v7.5h-1.1v-.2zm1.1-9.7h2.2c.7 0 1.2-.3 1.5-.9.3-.5.5-1.4.5-2.6 0-.9-.1-1.4-.3-2.1-.2-.5-.4-.9-.7-1-.2-.2-.5-.2-1-.2h-2.2V33zm12.6 3.2 1.1.7c-.2 2.1-.7 3.6-1.3 4.6S159.8 43 159 43c-.9 0-1.7-.3-2.2-1.2-.6-.9-1-2.1-1.3-3.6s-.4-3.3-.4-5c0-1.9.2-3.6.5-5.1.3-1.4.8-2.6 1.4-3.3.6-.7 1.3-1.2 2-1.2.8 0 1.6.5 2.1 1.4.6 1 1 2.2 1.2 3.9l-1.1.5c-.2-1.4-.5-2.4-.9-2.9-.4-.7-.8-.9-1.4-.9-.6 0-1.2.3-1.6 1-.4.7-.7 1.5-.9 2.7-.2 1.2-.3 2.4-.3 3.6 0 1.5.1 2.9.3 4.1s.5 2.1 1 2.6c.4.5.9.9 1.4.9.6 0 1.2-.3 1.6-1.2.6-.4.9-1.6 1-3.1zm4.3 6.5V26.3h-2.8V24h6.7v2.2h-2.8v16.4l-1.1.1zm5 0V24h3.2c.6 0 1.2.2 1.6.5.4.3.7 1 .9 1.7.2.9.3 1.5.3 2.4 0 .9-.1 1.5-.3 2.2-.2.7-.5 1.2-.9 1.7.5.3.9.9 1.2 1.7.3.9.4 1.7.4 2.7 0 .9-.1 1.7-.3 2.4s-.4 1.4-.6 1.7c-.2.3-.6.7-.9.9-.4.2-.8.3-1.4.3h-3.2v.5zm1.1-10.8h1.8c.5 0 .9 0 1.1-.2.3-.2.5-.5.6-.9.1-.5.2-1 .2-1.7s-.1-1.2-.2-1.7-.3-.9-.6-1c-.2-.2-.7-.3-1.3-.3h-1.7l.1 5.8zm0 8.6h2.1c.4 0 .6 0 .8-.2.3-.2.5-.3.6-.5s.3-.5.4-1c.1-.5.2-1 .2-1.5 0-.7-.1-1.4-.2-1.9-.2-.5-.4-.9-.7-1-.3-.2-.7-.3-1.2-.3h-2v6.4zm6.8 2.2V24h6.1v2.2h-5v5.7h4.7v2.2h-4.7v6.3h5.2v2.2l-6.3.1zm7.9 0V24h1.1v7.7h4.4V24h1.1v18.7H192V34h-4.4v8.7h-1.1zm8.5 0V24h1.1v7.7h4.4V24h1.1v18.7h-1.1V34h-4.4v8.7H195zm8.6-18.7h1.1v7.9h2c1.3 0 2.2.5 2.6 1.5.4 1 .6 2.2.6 3.6s-.2 2.7-.7 3.8c-.4 1-1.3 1.5-2.5 1.5h-3.2l.1-18.3zm1.1 16.7h2c.7 0 1.2-.3 1.5-.9.3-.6.5-1.4.5-2.6 0-.9-.1-1.4-.3-1.9s-.4-.9-.7-1c-.3-.2-.8-.2-1.5-.2h-1.5v6.6zM211 24h1.1v18.7H211V24zm3 18.7V24h1.7l2 13.2c.2 1.2.3 2.2.4 2.7.1-.7.2-1.7.4-2.9l2-13h1.5v18.7h-1.1V27.1l-2.5 15.6h-1L215 26.8v15.9h-1zm19.1-6.5 1.1.7c-.2 2.1-.7 3.6-1.3 4.6s-1.4 1.5-2.2 1.5c-.9 0-1.7-.3-2.2-1.2-.6-.9-1-2.1-1.3-3.6s-.4-3.3-.4-5c0-1.9.2-3.6.5-5.1.3-1.4.8-2.6 1.4-3.3.6-.7 1.3-1.2 2-1.2.8 0 1.6.5 2.1 1.4.5.9 1 2.2 1.2 3.9l-1.1.5c-.2-1.4-.5-2.4-.9-2.9-.4-.7-.8-.9-1.4-.9-.6 0-1.2.3-1.6 1-.4.7-.7 1.5-.9 2.7-.2 1.2-.3 2.4-.3 3.6 0 1.5.1 2.9.3 4.1s.5 2.1 1 2.6c.4.5.9.9 1.4.9.6 0 1.2-.3 1.6-1.2.6-.4.9-1.6 1-3.1zm2.5 6.5V24h3.2c.6 0 1 0 1.3.2.4.2.8.5 1 .9.3.5.5 1 .7 1.9s.3 1.5.3 2.6c0 1.5-.2 2.9-.7 4.1-.5 1-1.3 1.7-2.5 1.7h-2.2v7.5h-1.1v-.2zm1.1-9.7h2.2c.7 0 1.2-.3 1.5-.9.3-.5.5-1.4.5-2.6 0-.9-.1-1.4-.3-2.1-.2-.5-.4-.9-.7-1-.2-.2-.5-.2-1-.2h-2.2V33zm6.8 9.7V24h6.1v2.2h-5v5.7h4.7v2.2h-4.7v6.3h5.2v2.2l-6.3.1zm8.6-18.7h5.1v16.4h.8v6.5h-1v-4.3h-5.6v4.3h-1v-6.5h.7c.7-2.2 1-6.9 1-13.7V24zm4.1 2.3h-2.9v1c0 1.5-.1 3.8-.2 6.5s-.4 5-.8 6.9h3.9V26.3zm9.2 9.9 1.1.7c-.2 2.1-.7 3.6-1.3 4.6-.6 1-1.4 1.5-2.2 1.5-.9 0-1.7-.3-2.2-1.2-.6-.9-1-2.1-1.3-3.6s-.4-3.3-.4-5c0-1.9.2-3.6.5-5.1.3-1.4.8-2.6 1.4-3.3s1.3-1.2 2-1.2c.8 0 1.6.5 2.1 1.4.6 1 1 2.2 1.2 3.9l-1.1.5c-.2-1.4-.5-2.4-.9-2.9-.4-.7-.8-.9-1.4-.9s-1.2.3-1.6 1c-.4.7-.7 1.5-.9 2.7-.2 1.2-.3 2.4-.3 3.6 0 1.5.1 2.9.3 4.1.2 1.2.5 2.1 1 2.6.4.5.9.9 1.4.9.6 0 1.2-.3 1.6-1.2.5-.4.8-1.6 1-3.1zm4.2 6.5V26.3h-2.8V24h6.7v2.2h-2.8v16.4l-1.1.1zm5.1 0V24h3.2c.6 0 1.2.2 1.6.5.4.3.7 1 .9 1.7.2.9.3 1.5.3 2.4 0 .9-.1 1.5-.3 2.2-.2.7-.5 1.2-.9 1.7.5.3.9.9 1.2 1.7.3.9.4 1.7.4 2.7 0 .9-.1 1.7-.3 2.4-.2.7-.4 1.4-.6 1.7-.2.3-.6.7-.9.9-.4.2-.8.3-1.4.3h-3.2v.5zm1.1-10.8h1.8c.5 0 .9 0 1.1-.2.3-.2.5-.5.6-.9.1-.5.2-1 .2-1.7s-.1-1.2-.2-1.7-.3-.9-.6-1c-.2-.2-.7-.3-1.3-.3h-1.7v5.8h.1zm0 8.6h2.1c.4 0 .6 0 .8-.2.3-.2.5-.3.6-.5s.3-.5.4-1 .2-1 .2-1.5c0-.7-.1-1.4-.2-1.9-.2-.5-.4-.9-.7-1-.3-.2-.7-.3-1.2-.3h-2v6.4zm6-6.9c0-3.1.4-5.5 1.1-7.2.8-1.7 1.7-2.6 2.9-2.6.8 0 1.5.3 2.1 1.2s1.1 1.9 1.4 3.4.5 3.1.5 5-.2 3.6-.5 5.1-.8 2.6-1.5 3.4c-.6.7-1.3 1.2-2.1 1.2s-1.5-.3-2.1-1.2-1.1-2.1-1.4-3.4c-.2-1.6-.4-3.1-.4-4.9zm1.2 0c0 2.2.3 3.9.8 5.3s1.2 1.9 2.1 1.9c.8 0 1.5-.7 2.1-1.9.5-1.4.8-3.1.8-5.5 0-1.5-.1-2.9-.3-3.9-.2-1.2-.6-2.1-1-2.6-.4-.7-1-.9-1.5-.9-.8 0-1.5.7-2 1.9-.7.9-1 3-1 5.7zm8.3 9.1V24h1.7l2 13.2c.2 1.2.3 2.2.4 2.7.1-.7.2-1.7.4-2.9l2-13h1.5v18.7h-1.1V27.1l-2.5 15.6h-1l-2.3-15.9v15.9h-1.1z" style="opacity:.5"/><path class="st1" d="M.2.4h5.9v7.5H4.6V1.7H1.7v6.2H.2V.4zM10.4 6.2l1.4.2c-.2.5-.5.9-.9 1.2-.3.3-.8.4-1.4.4-.9 0-1.6-.3-2.1-.9-.3-.5-.5-1.1-.5-1.9 0-.9.2-1.6.7-2.1.5-.5 1.1-.8 1.8-.8.8 0 1.4.3 1.9.8s.7 1.3.7 2.4H8.3c0 .4.1.8.3 1 .2.2.5.4.8.4.2 0 .4-.1.6-.2.2-.1.4-.3.4-.5zm.1-1.5c0-.4-.1-.7-.3-.9-.2-.3-.5-.4-.8-.4-.3 0-.6.1-.8.3s-.2.6-.2 1h2.1zM12.7 2.5H14v.8c.2-.3.4-.5.7-.7.3-.2.6-.3 1-.3.6 0 1.2.2 1.6.7.5.6.7 1.3.7 2.1 0 .9-.2 1.6-.7 2.1-.4.5-1 .8-1.6.8-.3 0-.6-.1-.8-.2s-.5-.3-.8-.6v2.7h-1.4V2.5zm1.4 2.6c0 .6.1 1.1.4 1.3.2.3.5.4.9.4.3 0 .6-.1.8-.4.2-.3.3-.7.3-1.3 0-.6-.1-1-.3-1.3-.2-.3-.5-.4-.8-.4-.4 0-.6.1-.9.4-.3.4-.4.8-.4 1.3zM21.9 6.2l1.4.2c-.2.5-.5.9-.9 1.2-.4.3-.8.4-1.4.4-.9 0-1.6-.3-2.1-.9-.4-.5-.5-1.1-.5-1.9 0-.9.2-1.6.7-2.1.5-.5 1.1-.8 1.8-.8.8 0 1.4.3 1.9.8s.7 1.3.7 2.4h-3.6c0 .4.1.8.3 1 .2.2.5.4.8.4.2 0 .4-.1.6-.2.1-.1.2-.3.3-.5zm.1-1.5c0-.4-.1-.7-.3-.9-.2-.2-.5-.3-.7-.3-.3 0-.6.1-.8.3s-.3.5-.3.9H22zM28.7 7.9h-4.1v1.4h-1.2V6.7h.6c.2-.3.4-.7.6-1.3.2-.6.3-1.6.3-3h4.4v4.2h.6v2.6h-1.2V7.9zm-.9-1.2V3.6h-1.7c-.1 1.5-.3 2.5-.7 3.1h2.4zM32.9 2.5h4.8v5.4h-1.4V3.6h-1.9v4.3H33V2.5zM38.9 2.5h1.3v.8c.2-.3.4-.5.7-.7.3-.2.6-.3 1-.3.6 0 1.2.2 1.6.7.4.5.7 1.2.7 2.1 0 .9-.2 1.6-.7 2.1-.4.5-1 .8-1.6.8-.3 0-.6-.1-.8-.2-.2-.1-.5-.3-.8-.6v2.7h-1.4V2.5zm1.4 2.6c0 .6.1 1.1.4 1.3.2.3.5.4.9.4.3 0 .6-.1.8-.4.2-.3.3-.7.3-1.3 0-.6-.1-1-.3-1.3-.2-.3-.5-.4-.8-.4-.4 0-.6.1-.9.4-.3.4-.4.8-.4 1.3zM44.9 2.5h1.4v3.4l2.2-3.4h1.4v5.4h-1.4V4.4l-2.2 3.5h-1.4V2.5zM51 2.5h1.8l1.3 3.8 1.4-3.8h1.8v5.4h-1.2V4.3l-1.3 3.6h-1.2l-1.3-3.6v3.6H51V2.5zM61.5 6.2l1.4.2c-.2.5-.5.9-.9 1.2-.4.3-.9.4-1.5.4-.9 0-1.6-.3-2.1-.9-.4-.5-.5-1.1-.5-1.9 0-.9.2-1.6.7-2.1.5-.5 1.1-.8 1.8-.8.8 0 1.4.3 1.9.8.5.6.7 1.4.7 2.5h-3.6c0 .4.1.8.3 1 .2.2.5.4.8.4.2 0 .4-.1.6-.2s.3-.4.4-.6zm.1-1.5c0-.4-.1-.7-.3-.9-.2-.2-.5-.3-.7-.3-.3 0-.6.1-.8.3s-.3.5-.3.9h2.1zM63.7 2.5h1.4v2h2v-2h1.4v5.4h-1.4V5.6h-2v2.3h-1.4V2.5zM72.9 6.2l1.4.2c-.2.5-.5.9-.9 1.2-.4.3-.9.4-1.5.4-.9 0-1.6-.3-2.1-.9-.4-.5-.5-1.1-.5-1.9 0-.9.2-1.6.7-2.1.5-.5 1.1-.8 1.8-.8.8 0 1.4.3 1.9.8s.7 1.3.7 2.4h-3.6c0 .4.1.8.3 1 .2.2.5.4.8.4.2 0 .4-.1.6-.2s.3-.3.4-.5zm0-1.5c0-.4-.1-.7-.3-.9-.2-.2-.5-.3-.7-.3-.3 0-.6.1-.8.3-.2.2-.3.5-.3.9h2.1zM75.1 2.5h1.4v2h2v-2H80v5.4h-1.4V5.6h-2v2.3h-1.4V2.5zM81.1 2.5h1.4v3.4l2.2-3.4H86v5.4h-1.4V4.4l-2.2 3.5H81V2.5zM90.3 6.2l1.4.2c-.2.5-.5.9-.9 1.2-.4.3-.8.4-1.4.4-.9 0-1.6-.3-2.1-.9-.4-.5-.5-1.1-.5-1.9 0-.9.2-1.6.7-2.1.5-.5 1.1-.8 1.8-.8.8 0 1.4.3 1.9.8s.7 1.3.7 2.4h-3.6c0 .4.1.8.3 1 .2.2.5.4.8.4.2 0 .4-.1.6-.2s.2-.3.3-.5zm.1-1.5c0-.4-.1-.7-.3-.9-.2-.2-.5-.3-.7-.3-.3 0-.6.1-.8.3-.2.2-.3.5-.3.9h2.1zM92.5 2.5h1.8l1.3 3.8L97 2.5h1.8v5.4h-1.2V4.3l-1.3 3.6H95l-1.3-3.6v3.6h-1.2V2.5zM102.3 2.5h1.4v2h2v-2h1.4v5.4h-1.4V5.6h-2v2.3h-1.4V2.5zM111.4 6.2l1.4.2c-.2.5-.5.9-.9 1.2-.4.3-.9.4-1.5.4-.9 0-1.6-.3-2.1-.9-.4-.5-.5-1.1-.5-1.9 0-.9.2-1.6.7-2.1.5-.5 1.1-.8 1.8-.8.8 0 1.4.3 1.9.8s.7 1.3.7 2.4h-3.6c0 .4.1.8.3 1 .2.2.5.4.8.4.2 0 .4-.1.6-.2s.3-.3.4-.5zm.1-1.5c0-.4-.1-.7-.3-.9-.2-.2-.5-.3-.7-.3-.3 0-.6.1-.8.3-.2.2-.3.5-.3.9h2.1zM113.4 5.1c0-.5.1-.9.4-1.4.2-.4.6-.8 1-1 .4-.2.9-.4 1.4-.4.8 0 1.5.3 2 .8s.8 1.2.8 2-.3 1.5-.8 2-1.2.8-2 .8c-.5 0-1-.1-1.4-.3-.4-.2-.8-.6-1-1-.3-.4-.4-.9-.4-1.5zm1.5.1c0 .5.1.9.4 1.2s.6.4.9.4c.4 0 .7-.1.9-.4.3-.3.4-.7.4-1.2s-.1-.9-.4-1.2c-.3-.3-.6-.4-.9-.4-.4 0-.7.1-.9.4s-.4.6-.4 1.2zM123.8.2h1c0 .4-.1.8-.3 1-.2.2-.7.3-1.4.3h-.5c-.5 0-.8 0-1.1.1-.3.1-.5.3-.7.6-.2.3-.3.8-.3 1.4.2-.4.5-.7.8-.9.3-.2.7-.3 1.2-.3.7 0 1.3.3 1.8.8.5.6.7 1.2.7 1.9 0 .8-.3 1.4-.8 2-.5.5-1.2.8-2 .8-.6 0-1.1-.1-1.5-.4-.4-.3-.7-.7-.9-1.1-.2-.5-.3-1.3-.3-2.4 0-1.3.2-2.2.7-2.8.5-.6 1.3-.9 2.5-.9h.7c.2.1.3.1.4-.1zm-2.9 5c0 .5.1.9.4 1.2.2.3.5.4.9.4s.7-.1.9-.4c.2-.3.4-.7.4-1.1 0-.5-.1-.9-.4-1.2-.2-.3-.6-.4-.9-.4-.4 0-.7.1-.9.4s-.4.6-.4 1.1z"/><path class="st1" d="m124.9 7.9 2-2.8-1.9-2.6h1.7l1 1.5 1-1.5h1.7L128.5 5l2 2.8h-1.8l-1.1-1.7-1.1 1.7h-1.6z"/><path class="st1" d="M130.4 5.1c0-.5.1-.9.4-1.4.2-.4.6-.8 1-1 .4-.2.9-.4 1.4-.4.8 0 1.5.3 2 .8s.8 1.2.8 2-.3 1.5-.8 2-1.2.8-2 .8c-.5 0-1-.1-1.4-.3-.4-.2-.8-.6-1-1-.3-.4-.4-.9-.4-1.5zm1.5.1c0 .5.1.9.4 1.2s.6.4.9.4.7-.1.9-.4c.3-.3.4-.7.4-1.2s-.1-.9-.4-1.2c-.3-.3-.6-.4-.9-.4s-.7.1-.9.4-.4.6-.4 1.2zM141.1 7.9H137v1.4h-1.2V6.7h.6c.2-.3.4-.7.6-1.3.2-.6.3-1.6.3-3h4.4v4.2h.6v2.6h-1.2V7.9zm-.8-1.2V3.6h-1.7c-.1 1.5-.3 2.5-.7 3.1h2.4zM142.8 2.5h1.4v3.4l2.2-3.4h1.4v5.4h-1.4V4.4l-2.2 3.5h-1.4V2.5zM149 2.5h1.8l1.3 3.8 1.4-3.8h1.8v5.4H154V4.3l-1.3 3.6h-1.2l-1.3-3.6v3.6H149V2.5zM155.8 5.1c0-.5.1-.9.4-1.4.2-.4.6-.8 1-1 .4-.2.9-.4 1.4-.4.8 0 1.5.3 2 .8s.8 1.2.8 2-.3 1.5-.8 2-1.2.8-2 .8c-.5 0-1-.1-1.4-.3-.4-.2-.8-.6-1-1-.3-.4-.4-.9-.4-1.5zm1.5.1c0 .5.1.9.4 1.2s.6.4.9.4.7-.1.9-.4c.3-.3.4-.7.4-1.2s-.1-.9-.4-1.2c-.3-.3-.6-.4-.9-.4s-.7.1-.9.4-.4.6-.4 1.2zM164.4 5.1c0-.5.1-.9.4-1.4.2-.4.6-.8 1-1 .4-.2.9-.4 1.4-.4.8 0 1.5.3 2 .8s.8 1.2.8 2-.3 1.5-.8 2-1.2.8-2 .8c-.5 0-1-.1-1.4-.3-.4-.2-.8-.6-1-1-.3-.4-.4-.9-.4-1.5zm1.4.1c0 .5.1.9.4 1.2s.6.4.9.4c.4 0 .7-.1.9-.4.3-.3.4-.7.4-1.2s-.1-.9-.4-1.2c-.3-.3-.6-.4-.9-.4-.4 0-.7.1-.9.4s-.4.6-.4 1.2z"/><path class="st1" d="M172 5.7v-1h.5c.1 0 .2-.1.3-.2.2-.2.2-.3.2-.5s-.1-.3-.2-.5c-.1-.1-.3-.2-.6-.2-.2 0-.4 0-.5.1s-.3.3-.4.6l-1.2-.3c.1-.5.4-.8.8-1.1s.9-.4 1.4-.4c.7 0 1.2.1 1.5.4.4.3.5.7.5 1.1 0 .3-.1.5-.2.7-.2.2-.4.4-.7.5.4.1.7.3.9.5.2.2.3.5.3.8 0 .4-.2.8-.6 1.1-.4.3-1 .5-1.7.5-1.3 0-2.1-.5-2.4-1.5l1.3-.2c.2.5.6.8 1 .8.3 0 .5-.1.6-.2.2-.1.2-.3.2-.5s-.1-.4-.3-.5c-.2-.1-.4-.2-.7-.2zM175.3 2.5h1.4v2h2v-2h1.4v5.4h-1.4V5.6h-2v2.3h-1.4V2.5zM182.4 4.1l-1.3-.2c.1-.5.4-.9.8-1.2s.9-.4 1.6-.4c.6 0 1.1.1 1.4.2.3.2.5.3.7.6.1.2.2.7.2 1.3v1.7c0 .5 0 .8.1 1.1 0 .2.1.5.3.7h-1.4c0-.1-.1-.2-.1-.4 0-.1 0-.1-.1-.2-.2.2-.5.4-.8.5-.3.1-.6.2-.9.2-.6 0-1-.2-1.3-.5-.3-.3-.5-.7-.5-1.1 0-.3.1-.6.2-.8.1-.2.4-.4.6-.6.3-.1.6-.2 1.1-.3.7-.1 1.1-.2 1.4-.4v-.1c0-.3-.1-.5-.2-.6-.1-.1-.4-.2-.8-.2-.3 0-.5 0-.6.1-.2.2-.3.4-.4.6zm1.9 1.2c-.2.1-.5.1-.9.2s-.7.2-.8.2c-.2.1-.3.3-.3.5s.1.4.2.5c.1.1.3.2.6.2s.5-.1.7-.3c.2-.1.3-.3.3-.5 0-.1.1-.4.1-.7v-.1zM186.7 2.5h1.4v2.2c.2 0 .4-.1.5-.2.1-.1.2-.4.4-.8.2-.5.4-.9.6-1 .2-.1.5-.2.9-.2h.6v.9c-.4 0-.6 0-.7.1-.1.1-.2.3-.3.7-.2.5-.4.8-.7.9.5.1.8.5 1.1 1.2 0 0 0 .1.1.1l.8 1.5h-1.5l-.9-1.6c-.1-.3-.3-.5-.4-.6-.1-.1-.3-.1-.5-.1v2.3h-1.4V2.5z"/><path class="st1" d="M191.1 5.1c0-.5.1-.9.4-1.4.2-.4.6-.8 1-1 .4-.2.9-.4 1.4-.4.8 0 1.5.3 2 .8s.8 1.2.8 2-.3 1.5-.8 2-1.2.8-2 .8c-.5 0-1-.1-1.4-.3-.4-.2-.8-.6-1-1-.2-.4-.4-.9-.4-1.5zm1.5.1c0 .5.1.9.4 1.2s.6.4.9.4.7-.1.9-.4c.3-.3.4-.7.4-1.2s-.1-.9-.4-1.2c-.3-.3-.6-.4-.9-.4s-.7.1-.9.4-.4.6-.4 1.2zM197.4 2.5h1.8l1.3 3.8 1.4-3.8h1.8v5.4h-1.2V4.3l-1.3 3.6H200l-1.3-3.6v3.6h-1.2V2.5zM204.7 2.5h1.4v3.4l2.2-3.4h1.4v5.4h-1.4V4.4l-2.2 3.5h-1.4V2.5zM210.1 2.5h4.9v1.2h-1.7V8h-1.4V3.6h-1.7V2.5zM215.5 2.5h1.4v2.2h1.4c.6 0 1 0 1.3.1.3.1.6.3.8.5.2.3.3.6.3.9 0 .5-.2.9-.5 1.2-.4.3-.9.4-1.6.4h-3.1V2.5zM217 7h1.3c.4 0 .7-.1.8-.2.1-.1.2-.3.2-.5 0-.3-.1-.4-.3-.5-.2-.1-.6-.1-1.1-.1h-.9V7zM226.3 4.1l-1.4.3c0-.3-.2-.5-.3-.6-.2-.1-.4-.2-.7-.2-.4 0-.6.1-.9.4-.2.2-.3.7-.3 1.2 0 .6.1 1.1.3 1.4.2.3.5.4.9.4.3 0 .5-.1.7-.2.2-.2.3-.4.4-.8l1.4.2c-.1.6-.4 1.1-.8 1.5-.4.3-1 .5-1.7.5-.8 0-1.4-.2-1.9-.7-.5-.5-.7-1.2-.7-2.1 0-.9.2-1.6.7-2.1.5-.5 1.1-.7 1.9-.7.7 0 1.2.1 1.6.4.3.1.6.5.8 1.1z"/><path class="st1" d="M231.6 2.5v5.4h-1.4V5.6h-.1c-.3 0-.5 0-.7.1-.1.1-.3.2-.5.5l-.1.1-.9 1.5h-1.7l1-1.6c.3-.4.6-.7.8-.8-.4 0-.7-.2-1-.5-.2-.3-.4-.6-.4-1.1 0-.3.1-.6.2-.9.2-.2.4-.4.7-.5.3-.1.7-.1 1.2-.1h2.9zm-1.4.9h-1c-.4 0-.6.1-.8.2-.2.1-.2.3-.2.5s.1.4.3.5c.2.1.5.2.9.2h.9V3.4zM240 4.1l-1.4.3c0-.3-.2-.5-.3-.6-.2-.1-.4-.2-.7-.2-.4 0-.6.1-.9.4-.2.2-.3.7-.3 1.2 0 .6.1 1.1.3 1.4.2.3.5.4.9.4.3 0 .5-.1.7-.2.2-.2.3-.4.4-.8l1.4.2c-.1.6-.4 1.1-.8 1.5-.4.3-1 .5-1.7.5-.8 0-1.4-.2-1.9-.7-.5-.5-.7-1.2-.7-2.1 0-.9.2-1.6.7-2.1.5-.5 1.1-.7 1.9-.7.7 0 1.2.1 1.6.4.3.1.6.5.8 1.1zM242.9 5.1c0-.5.1-.9.4-1.4.2-.4.6-.8 1-1 .4-.2.9-.4 1.4-.4.8 0 1.5.3 2 .8s.8 1.2.8 2-.3 1.5-.8 2-1.2.8-2 .8c-.5 0-1-.1-1.4-.3-.4-.2-.8-.6-1-1-.3-.4-.4-.9-.4-1.5zm1.5.1c0 .5.1.9.4 1.2s.6.4.9.4.7-.1.9-.4c.3-.3.4-.7.4-1.2s-.1-.9-.4-1.2c-.3-.3-.6-.4-.9-.4s-.7.1-.9.4-.4.6-.4 1.2zM253.8 4.1l-1.4.3c0-.3-.2-.5-.3-.6-.2-.1-.4-.2-.7-.2-.4 0-.6.1-.9.4-.2.2-.3.7-.3 1.2 0 .6.1 1.1.3 1.4.2.3.5.4.9.4.3 0 .5-.1.7-.2.2-.2.3-.4.4-.8l1.4.2c-.1.6-.4 1.1-.8 1.5-.4.3-1 .5-1.7.5-.8 0-1.4-.2-1.9-.7-.5-.5-.7-1.2-.7-2.1 0-.9.2-1.6.7-2.1.5-.5 1.1-.7 1.9-.7.7 0 1.2.1 1.6.4.4.1.7.5.8 1.1zM254.5 2.5h1.4v2h2v-2h1.4v5.4H258V5.6h-2v2.3h-1.4V2.5zM260.2 5.1c0-.5.1-.9.4-1.4.2-.4.6-.8 1-1 .4-.2.9-.4 1.4-.4.8 0 1.5.3 2 .8s.8 1.2.8 2-.3 1.5-.8 2-1.2.8-2 .8c-.5 0-1-.1-1.4-.3-.4-.2-.8-.6-1-1-.3-.4-.4-.9-.4-1.5zm1.4.1c0 .5.1.9.4 1.2.3.3.6.4.9.4.4 0 .7-.1.9-.4.3-.3.4-.7.4-1.2s-.1-.9-.4-1.2c-.3-.3-.6-.4-.9-.4-.4 0-.7.1-.9.4-.2.2-.4.6-.4 1.2zM266.5 2.5h3.1c.6 0 1.1.1 1.4.4.3.2.5.6.5 1.1 0 .3-.1.6-.3.8-.2.2-.4.4-.7.4.4.1.7.3.8.5.2.3.3.5.3.8 0 .4-.2.8-.5 1-.3.3-.8.4-1.4.4h-3.4V2.5zm1.5 2.2h.9c.4 0 .8-.1 1-.2.2-.1.3-.3.3-.5s-.1-.4-.3-.5c-.2-.1-.5-.1-1-.1h-.9v1.3zm0 2.3h1.1c.4 0 .7 0 .9-.1.2-.1.3-.3.3-.5 0-.3-.1-.4-.3-.5-.2-.1-.6-.2-1.2-.2h-.8V7zM272.5 2.5h1.4v2h2v-2h1.4v5.4H276V5.6h-2v2.3h-1.4V2.5zM278.5 2.5h1.4v2.2h1.4c.6 0 1 0 1.3.1.3.1.5.3.8.5.2.3.3.6.3.9 0 .5-.2.9-.5 1.2-.4.3-.9.4-1.6.4h-3.1V2.5zm1.4 4.5h1.3c.3 0 .6-.1.8-.2.2-.1.2-.3.2-.5 0-.3-.1-.4-.3-.5-.2-.1-.6-.1-1.1-.1h-.9V7zm4.6-4.5h1.4v5.4h-1.4V2.5zM287.1 2.5h1.8l1.3 3.8 1.4-3.8h1.8v5.4h-1.2V4.3l-1.3 3.6h-1.2l-1.3-3.6v3.6h-1.2V2.5zM294.4 2.5h1.4v3.4l2.2-3.4h1.4v5.4H298V4.4l-2.2 3.5h-1.4V2.5zM.1 12.9h4.8v5.4H3.5V14h-2v4.3H.1v-5.4zM5.8 15.5c0-.5.1-.9.4-1.4s.6-.8 1-1 .9-.4 1.4-.4c.8 0 1.5.3 2 .8s.8 1.2.8 2-.3 1.5-.8 2-1.2.8-2 .8c-.5 0-1-.1-1.4-.3-.5-.2-.8-.6-1-1-.3-.3-.4-.8-.4-1.5zm1.4.1c0 .5.1.9.4 1.2.3.3.6.4.9.4.4 0 .7-.1.9-.4.3-.3.4-.7.4-1.2s-.1-.9-.4-1.2c-.2-.3-.5-.4-.8-.4-.4 0-.7.1-.9.4-.3.3-.5.7-.5 1.2zM12.1 12.9h1.4v2.2c.2 0 .4-.1.5-.2.1-.1.2-.4.4-.8.2-.5.4-.9.6-1 .2-.1.5-.2.9-.2h.6v.9c-.4 0-.6 0-.7.1-.1.1-.2.3-.3.7-.2.5-.4.8-.7.9.5.1.8.5 1.1 1.2 0 0 0 .1.1.1l.8 1.5h-1.5l-.7-1.6c-.1-.3-.3-.5-.4-.6-.1-.1-.3-.1-.5-.1v2.3h-1.4v-5.4z"/><path class="st1" d="m18 14.6-1.3-.2c.1-.5.4-.9.8-1.2s.9-.4 1.6-.4c.6 0 1.1.1 1.4.2.3.2.5.3.7.6.1.2.2.7.2 1.3v1.7c0 .5 0 .8.1 1.1 0 .2.1.5.3.7h-1.4c0-.1-.1-.2-.1-.4 0-.1 0-.1-.1-.2-.2.2-.5.4-.8.5-.3.1-.6.2-.9.2-.6 0-1-.2-1.3-.5-.3-.3-.5-.7-.5-1.1 0-.3.1-.6.2-.8.1-.2.4-.4.6-.6.3-.1.6-.2 1.1-.3.7-.1 1.1-.2 1.4-.4v-.1c0-.3-.1-.5-.2-.6-.1-.1-.4-.2-.8-.2-.3 0-.5 0-.6.1-.2.1-.3.3-.4.6zm2 1.1c-.2.1-.5.1-.9.2s-.7.2-.8.2c-.2.1-.3.3-.3.5s.1.4.2.5c.1.1.3.2.6.2s.5-.1.7-.3c.2-.1.3-.3.3-.5 0-.1.1-.4.1-.7v-.1zM24 16.1v-.9h.5c.1 0 .2-.1.3-.2.1-.1.2-.3.2-.4 0-.2-.1-.3-.2-.5-.1-.1-.3-.2-.6-.2-.2 0-.4 0-.5.1-.1.1-.3.3-.4.6l-1.2-.3c.1-.5.4-.8.8-1.1.4-.2.9-.4 1.4-.4.7 0 1.2.1 1.5.4.4.3.5.7.5 1.1 0 .3-.1.5-.2.7-.2.2-.4.4-.7.5.4.1.7.3.9.5.2.2.3.5.3.8 0 .4-.2.8-.6 1.1-.4.3-1 .5-1.7.5-1.3 0-2.1-.5-2.4-1.5l1.3-.2c.2.5.6.8 1 .8.3 0 .5-.1.6-.2.2-.1.2-.3.2-.5s-.1-.4-.3-.5c-.2-.1-.4-.2-.7-.2zM28.3 14.6l-1.3-.3c.1-.5.4-.9.8-1.2s.9-.4 1.6-.4c.6 0 1.1.1 1.4.2.3.2.5.3.7.6.1.2.2.7.2 1.3v1.7c0 .5 0 .8.1 1.1 0 .2.1.5.3.7h-1.4c0-.1-.1-.2-.1-.4 0-.1 0-.1-.1-.2-.2.2-.5.4-.8.5-.3.1-.6.2-.9.2-.6 0-1-.2-1.3-.5-.3-.3-.5-.7-.5-1.1 0-.3.1-.6.2-.8.1-.2.4-.4.6-.6.3-.1.6-.2 1.1-.3.7-.1 1.1-.2 1.4-.4v-.1c0-.3-.1-.5-.2-.6-.1-.1-.4-.2-.8-.2-.3 0-.5 0-.6.1-.2.2-.3.4-.4.7zm1.9 1.1c-.2.1-.5.1-.9.2s-.7.2-.8.2c-.2.1-.3.3-.3.5s.1.4.2.5c.1.1.3.2.6.2s.5-.1.7-.3c.2-.1.3-.3.3-.5 0-.1.1-.4.1-.7v-.1zM32.6 12.9H34v2h2v-2h1.4v5.4H36V16h-2v2.3h-1.4v-5.4zM38.6 12.9H40v3.4l2.2-3.4h1.4v5.4h-1.4v-3.5L40 18.3h-1.4v-5.4zM49.3 12.9v5.4h-1.4v-2.2h-.1c-.3 0-.5 0-.7.1-.1.1-.3.2-.5.5l-.1.1-.9 1.5h-1.7l1-1.6c.3-.4.6-.7.8-.8-.4 0-.7-.2-1-.5-.2-.3-.4-.6-.4-1.1 0-.3.1-.6.2-.9.2-.2.4-.4.7-.5.3-.1.7-.1 1.2-.1h2.9zm-1.4.9h-1c-.4 0-.6.1-.8.2-.2.1-.2.3-.2.5s.1.4.3.5c.2.1.5.2.9.2h.9v-1.4zM50.4 12.9h1.8l1.3 3.8 1.4-3.8h1.8v5.4h-1.2v-3.6l-1.3 3.6H53l-1.3-3.6v3.6h-1.2v-5.4zM57.7 12.9h1.4v3.4l2.2-3.4h1.4v5.4h-1.4v-3.5l-2.2 3.5h-1.4v-5.4zM66.3 12.9h1.4v3.4l2.2-3.4h1.4v5.4h-1.4v-3.5l-2.2 3.5h-1.4v-5.4zM74.9 12.9h4.8v5.4h-1.4V14h-1.9v4.3H75v-5.4zM80.8 12.9h1.3v.8c.2-.3.4-.5.7-.7.3-.2.6-.3 1-.3.6 0 1.2.2 1.6.7.4.5.7 1.2.7 2.1 0 .9-.2 1.6-.7 2.1-.4.5-1 .8-1.6.8-.3 0-.6-.1-.8-.2-.2-.1-.5-.3-.8-.6v2.7h-1.4v-7.4zm1.4 2.6c0 .6.1 1.1.4 1.3.2.3.5.4.9.4.3 0 .6-.1.8-.4.2-.3.3-.7.3-1.3 0-.6-.1-1-.3-1.3s-.5-.4-.8-.4c-.4 0-.6.1-.9.4-.3.4-.4.8-.4 1.3zM86.5 15.5c0-.5.1-.9.4-1.4.2-.4.6-.8 1-1 .4-.2.9-.4 1.4-.4.8 0 1.5.3 2 .8s.8 1.2.8 2-.3 1.5-.8 2-1.2.8-2 .8c-.5 0-1-.1-1.4-.3-.4-.2-.8-.6-1-1-.3-.3-.4-.8-.4-1.5zm1.5.1c0 .5.1.9.4 1.2s.6.4.9.4.7-.1.9-.4c.3-.3.4-.7.4-1.2s-.1-.9-.4-1.2c-.2-.3-.5-.4-.9-.4s-.7.1-.9.4-.4.7-.4 1.2zM92 12.9h4.9v1.2h-1.7v4.3h-1.4v-4.3H92v-1.2zM97.3 12.9h1.4v3.4l2.2-3.4h1.4v5.4h-1.4v-3.5l-2.2 3.5h-1.4v-5.4zM103.4 12.9h3.1c.6 0 1.1.1 1.4.4s.5.6.5 1.1c0 .3-.1.6-.3.8-.2.2-.4.4-.7.4.4.1.7.3.8.5.2.3.3.5.3.8 0 .4-.2.8-.5 1-.3.3-.8.4-1.4.4h-3.4v-5.4zm1.5 2.3h.9c.4 0 .8-.1 1-.2.2-.1.3-.3.3-.5s-.1-.4-.3-.5c-.2-.1-.5-.1-1-.1h-.9v1.3zm0 2.2h1.1c.4 0 .7 0 .9-.1.2-.1.3-.3.3-.5 0-.3-.1-.4-.3-.5-.2-.1-.6-.2-1.2-.2h-.7v1.3zM109 15.5c0-.5.1-.9.4-1.4.2-.4.6-.8 1-1 .4-.2.9-.4 1.4-.4.8 0 1.5.3 2 .8s.8 1.2.8 2-.3 1.5-.8 2-1.2.8-2 .8c-.5 0-1-.1-1.4-.3-.4-.2-.8-.6-1-1-.3-.3-.4-.8-.4-1.5zm1.5.1c0 .5.1.9.4 1.2.3.3.6.4.9.4s.7-.1.9-.4c.3-.3.4-.7.4-1.2s-.1-.9-.4-1.2c-.3-.3-.6-.4-.9-.4s-.7.1-.9.4c-.3.3-.4.7-.4 1.2zM115.3 12.9h4.8v5.4h-1.4V14h-1.9v4.3h-1.4v-5.4zM120.9 15.5c0-.5.1-.9.4-1.4s.6-.8 1-1c.4-.2.9-.4 1.4-.4.8 0 1.5.3 2 .8s.8 1.2.8 2-.3 1.5-.8 2-1.2.8-2 .8c-.5 0-1-.1-1.4-.3-.4-.2-.8-.6-1-1-.2-.3-.4-.8-.4-1.5zm1.5.1c0 .5.1.9.4 1.2.3.3.6.4.9.4s.7-.1.9-.4c.3-.3.4-.7.4-1.2s-.1-.9-.4-1.2c-.3-.3-.6-.4-.9-.4s-.7.1-.9.4c-.3.3-.4.7-.4 1.2zM127.2 12.9h1.4v2.2c.2 0 .4-.1.5-.2.1-.1.2-.4.4-.8.2-.5.4-.9.6-1s.5-.2.9-.2h.6v.9c-.4 0-.6 0-.7.1-.1.1-.2.3-.3.7-.2.5-.4.8-.7.9.5.1.8.5 1.1 1.2 0 0 0 .1.1.1l.8 1.5h-1.5l-.7-1.6c-.1-.3-.3-.5-.4-.6-.1-.1-.3-.1-.5-.1v2.3h-1.4v-5.4zM133.2 14.6l-1.3-.2c.1-.5.4-.9.8-1.2s.9-.4 1.6-.4c.6 0 1.1.1 1.4.2.3.2.5.3.7.6.1.2.2.7.2 1.3v1.7c0 .5 0 .8.1 1.1 0 .2.1.5.3.7h-1.4c0-.1-.1-.2-.1-.4 0-.1 0-.1-.1-.2-.2.2-.5.4-.8.5-.3.1-.6.2-.9.2-.6 0-1-.2-1.3-.5-.3-.3-.5-.7-.5-1.1 0-.3.1-.6.2-.8.1-.2.4-.4.6-.6.3-.1.6-.2 1.1-.3.7-.1 1.1-.2 1.4-.4v-.1c0-.3-.1-.5-.2-.6-.1-.1-.4-.2-.8-.2-.3 0-.5 0-.6.1-.2.1-.3.3-.4.6zm1.9 1.1c-.2.1-.5.1-.9.2s-.7.2-.8.2c-.2.1-.3.3-.3.5s.1.4.2.5c.1.1.3.2.6.2s.5-.1.7-.3c.2-.1.3-.3.3-.5 0-.1.1-.4.1-.7v-.1zM139.2 16.1v-.9h.5c.1 0 .2-.1.3-.2.1-.1.1-.3.1-.4 0-.2-.1-.3-.2-.5-.1-.1-.3-.2-.6-.2-.2 0-.4 0-.5.1s-.3.3-.4.6l-1.2-.3c.1-.5.4-.8.8-1.1s.9-.4 1.4-.4c.7 0 1.2.1 1.5.4.4.3.5.7.5 1.1 0 .3-.1.5-.2.7-.2.2-.4.4-.7.5.4.1.7.3.9.5.2.2.3.5.3.8 0 .4-.2.8-.6 1.1-.4.3-1 .5-1.7.5-1.3 0-2.1-.5-2.4-1.5l1.3-.2c.2.5.6.8 1 .8.3 0 .5-.1.6-.2.2-.1.2-.3.2-.5s-.1-.4-.3-.5c-.2-.1-.4-.2-.7-.2h.1zM143.5 14.6l-1.3-.2c.1-.5.4-.9.8-1.2s.9-.4 1.6-.4c.6 0 1.1.1 1.4.2.3.2.5.3.7.6.1.2.2.7.2 1.3v1.7c0 .5 0 .8.1 1.1 0 .2.1.5.3.7h-1.4c0-.1-.1-.2-.1-.4 0-.1 0-.1-.1-.2-.2.2-.5.4-.8.5-.3.1-.6.2-.9.2-.6 0-1-.2-1.3-.5-.3-.3-.5-.7-.5-1.1 0-.3.1-.6.2-.8.1-.2.4-.4.6-.6.3-.1.6-.2 1.1-.3.7-.1 1.1-.2 1.4-.4v-.1c0-.3-.1-.5-.2-.6-.1-.1-.4-.2-.8-.2-.3 0-.5 0-.6.1-.2.1-.3.3-.4.6zm1.9 1.1c-.2.1-.5.1-.9.2s-.7.2-.8.2c-.2.1-.3.3-.3.5s.1.4.2.5c.1.1.3.2.6.2s.5-.1.7-.3c.2-.1.3-.3.3-.5 0-.1.1-.4.1-.7v-.1zM147.8 12.9h1.4v2h2v-2h1.4v5.4h-1.4V16h-2v2.3h-1.4v-5.4zM153.7 12.9h1.4v3.4l2.2-3.4h1.4v5.4h-1.4v-3.5l-2.2 3.5h-1.4v-5.4zM164.5 12.9v5.4H163v-2.2h-.1c-.3 0-.5 0-.7.1-.1.1-.3.2-.5.5l-.1.1-.9 1.5H159l1-1.6c.3-.4.6-.7.8-.8-.4 0-.7-.2-1-.5-.2-.3-.4-.6-.4-1.1 0-.3.1-.6.2-.9.2-.2.4-.4.7-.5.3-.1.7-.1 1.2-.1h3zm-1.5.9h-1c-.4 0-.6.1-.8.2-.2.1-.2.3-.2.5s.1.4.3.5c.2.1.5.2.9.2h.9v-1.4zM165.6 12.9h1.8l1.3 3.8 1.4-3.8h1.8v5.4h-1.2v-3.6l-1.3 3.6h-1.2l-1.3-3.6v3.6h-1.2v-5.4zM172.9 12.9h1.4v3.4l2.2-3.4h1.4v5.4h-1.4v-3.5l-2.2 3.5h-1.4v-5.4zM181.4 12.9h1.4v2.2c.2 0 .4-.1.5-.2.1-.1.2-.4.4-.8.2-.5.4-.9.6-1 .2-.1.5-.2.9-.2h.6v.9c-.4 0-.6 0-.7.1-.1.1-.2.3-.3.7-.2.5-.4.8-.7.9.5.1.8.5 1.1 1.2 0 0 0 .1.1.1l.8 1.5h-1.5l-.7-1.6c-.1-.3-.3-.5-.4-.6-.1-.1-.3-.1-.5-.1v2.3h-1.4v-5.4zM188.8 12.9h4.8v5.4h-1.4V14h-1.9v4.3h-1.4v-5.4zM194.8 12.9h1.3v.8c.2-.3.4-.5.7-.7.3-.2.6-.3 1-.3.6 0 1.2.2 1.6.7.4.5.7 1.2.7 2.1 0 .9-.2 1.6-.7 2.1-.4.5-1 .8-1.6.8-.3 0-.6-.1-.8-.2-.2-.1-.5-.3-.8-.6v2.7h-1.4v-7.4zm1.4 2.6c0 .6.1 1.1.4 1.3.2.3.5.4.9.4.3 0 .6-.1.8-.4.2-.3.3-.7.3-1.3 0-.6-.1-1-.3-1.3-.2-.3-.5-.4-.8-.4-.3 0-.6.1-.9.4-.3.4-.4.8-.4 1.3zM200.8 12.9h1.4v3.4l2.2-3.4h1.4v5.4h-1.4v-3.5l-2.2 3.5h-1.4v-5.4zM206.9 12.9h1.8l1.3 3.8 1.4-3.8h1.8v5.4H212v-3.6l-1.3 3.6h-1.2l-1.3-3.6v3.6H207v-5.4zM217.4 16.6l1.4.2c-.2.5-.5.9-.9 1.2-.4.3-.9.4-1.5.4-.9 0-1.6-.3-2.1-.9-.4-.5-.5-1.1-.5-1.9 0-.9.2-1.6.7-2.1.5-.5 1.1-.8 1.8-.8.8 0 1.4.3 1.9.8s.7 1.3.7 2.4h-3.6c0 .4.1.8.3 1 .2.2.5.4.8.4.2 0 .4-.1.6-.2.2 0 .3-.2.4-.5zm.1-1.5c0-.4-.1-.7-.3-.9-.2-.2-.5-.3-.7-.3-.3 0-.6.1-.8.3-.2.2-.3.5-.3.9h2.1zM219.6 12.9h1.4v2h2v-2h1.4v5.4H223V16h-2v2.3h-1.4v-5.4zM228.8 16.6l1.4.2c-.2.5-.5.9-.9 1.2-.4.3-.9.4-1.5.4-.9 0-1.6-.3-2.1-.9-.4-.5-.5-1.1-.5-1.9 0-.9.2-1.6.7-2.1.5-.5 1.1-.8 1.8-.8.8 0 1.4.3 1.9.8s.7 1.3.7 2.4h-3.6c0 .4.1.8.3 1 .2.2.5.4.8.4.2 0 .4-.1.6-.2.2 0 .3-.2.4-.5zm0-1.5c0-.4-.1-.7-.3-.9-.2-.2-.5-.3-.7-.3-.3 0-.6.1-.8.3-.2.2-.3.5-.3.9h2.1zM231 12.9h1.4v2h2v-2h1.4v5.4h-1.4V16h-2v2.3H231v-5.4zM237 12.9h1.4v3.4l2.2-3.4h1.4v5.4h-1.4v-3.5l-2.2 3.5H237v-5.4zM243 12.9h1.4v2.2h1.1c.1-.7.3-1.3.8-1.7.5-.4 1.1-.6 1.8-.6.8 0 1.4.2 1.9.7.5.5.7 1.2.7 2.1 0 .5-.1 1-.3 1.4-.2.4-.5.7-.8 1-.4.3-.9.4-1.5.4-.9 0-1.5-.2-1.9-.7-.4-.5-.7-1-.7-1.5h-1.1v2.1H243v-5.4zm5.2 1c-.4 0-.7.1-.9.4-.2.3-.3.7-.3 1.2 0 .7.1 1.2.3 1.4.2.3.5.4.9.4s.6-.1.8-.4c.2-.3.3-.7.3-1.3 0-.7-.1-1.1-.3-1.4-.2-.2-.4-.3-.8-.3z"/></svg>