<?xml version="1.0" encoding="utf-8"?>
<!-- Generator: Adobe Illustrator 25.2.3, SVG Export Plug-In . SVG Version: 6.00 Build 0)  -->
<svg version="1.1" id="Layer_1" xmlns="http://www.w3.org/2000/svg" xmlns:xlink="http://www.w3.org/1999/xlink" x="0px" y="0px"
	 viewBox="0 0 25.6 279.6" style="enable-background:new 0 0 25.6 279.6;" xml:space="preserve">
<style type="text/css">
	.st0{fill:#147BB8;}
</style>
<g>
	<path class="st0" d="M25.1,279.6h-25v-18.1h3v14.8h7.7v-13.8h2.9v13.8h8.5v-15.4h3V279.6z"/>
	<path class="st0" d="M25.1,256.2h-25v-3.3h10.3v-13H0.1v-3.3h25v3.3H13.3v13h11.8V256.2z"/>
	<path class="st0" d="M17.6,232.7h-3.1v-9.4h3.1V232.7z"/>
	<path class="st0" d="M25.1,219.6h-25v-3.3h12.4L0.1,203.8v-4.5l10.1,10.5l14.9-11v4.4l-12.7,8.9l4,4.1h8.7V219.6z"/>
	<path class="st0" d="M25.1,198.1h-3.1L6,185.3c-1.1-0.9-2.1-1.8-3-2.6v14h-3v-17.9h3l17.4,14.1l1.8,1.5v-16h3V198.1z"/>
	<path class="st0" d="M17.6,176.4h-3.1v-9.4h3.1V176.4z"/>
	<path class="st0" d="M12.8,164.4c-3,0-5.3-0.3-7.1-0.9c-1.8-0.6-3.2-1.5-4.2-2.7c-1-1.2-1.5-2.7-1.5-4.5c0-1.3,0.3-2.5,0.8-3.5
		c0.5-1,1.3-1.8,2.3-2.5s2.3-1.2,3.7-1.6c1.5-0.4,3.4-0.6,5.9-0.6c2.9,0,5.3,0.3,7.1,0.9c1.8,0.6,3.2,1.5,4.2,2.7
		c1,1.2,1.5,2.7,1.5,4.6c0,2.4-0.9,4.3-2.6,5.7C20.9,163.5,17.5,164.4,12.8,164.4z M12.8,161.2c4.1,0,6.8-0.5,8.2-1.4
		c1.4-1,2-2.1,2-3.6s-0.7-2.6-2-3.6c-1.4-1-4.1-1.4-8.2-1.4c-4.1,0-6.9,0.5-8.2,1.4c-1.4,1-2,2.2-2,3.6c0,1.4,0.6,2.5,1.8,3.4
		C5.9,160.7,8.7,161.2,12.8,161.2z"/>
	<path class="st0" d="M22.2,128.8h3v16.5c-0.7,0-1.5-0.1-2.1-0.4c-1.1-0.4-2.2-1.1-3.3-2c-1.1-0.9-2.4-2.3-3.8-4
		c-2.2-2.7-4-4.6-5.3-5.5c-1.3-1-2.5-1.4-3.7-1.4c-1.2,0-2.2,0.4-3.1,1.3c-0.8,0.9-1.3,2-1.3,3.4c0,1.5,0.4,2.7,1.3,3.6
		s2.1,1.3,3.7,1.3l-0.3,3.2c-2.4-0.2-4.2-1-5.4-2.4C0.6,140.9,0,139,0,136.6c0-2.4,0.7-4.3,2-5.7c1.3-1.4,3-2.1,5-2.1
		c1,0,2,0.2,3,0.6c1,0.4,2,1.1,3.1,2c1.1,1,2.5,2.5,4.4,4.7c1.5,1.8,2.6,3,3.2,3.6c0.6,0.5,1.1,1,1.7,1.3V128.8z"/>
	<path class="st0" d="M22.2,109.3h3v16.5c-0.7,0-1.5-0.1-2.1-0.4c-1.1-0.4-2.2-1.1-3.3-2c-1.1-0.9-2.4-2.3-3.8-4
		c-2.2-2.7-4-4.6-5.3-5.5c-1.3-1-2.5-1.4-3.7-1.4c-1.2,0-2.2,0.4-3.1,1.3c-0.8,0.9-1.3,2-1.3,3.4c0,1.5,0.4,2.7,1.3,3.6
		s2.1,1.3,3.7,1.3l-0.3,3.2c-2.4-0.2-4.2-1-5.4-2.4c-1.2-1.4-1.9-3.3-1.9-5.7c0-2.4,0.7-4.3,2-5.7c1.3-1.4,3-2.1,5-2.1
		c1,0,2,0.2,3,0.6c1,0.4,2,1.1,3.1,2c1.1,1,2.5,2.5,4.4,4.7c1.5,1.8,2.6,3,3.2,3.6c0.6,0.5,1.1,1,1.7,1.3V109.3z"/>
	<path class="st0" d="M12.8,106c-3,0-5.3-0.3-7.1-0.9c-1.8-0.6-3.2-1.5-4.2-2.7c-1-1.2-1.5-2.7-1.5-4.5c0-1.3,0.3-2.5,0.8-3.5
		c0.5-1,1.3-1.8,2.3-2.5s2.3-1.2,3.7-1.6c1.5-0.4,3.4-0.6,5.9-0.6c2.9,0,5.3,0.3,7.1,0.9c1.8,0.6,3.2,1.5,4.2,2.7
		c1,1.2,1.5,2.7,1.5,4.6c0,2.4-0.9,4.3-2.6,5.7C20.9,105.2,17.5,106,12.8,106z M12.8,102.9c4.1,0,6.8-0.5,8.2-1.4c1.4-1,2-2.1,2-3.6
		s-0.7-2.6-2-3.6c-1.4-1-4.1-1.4-8.2-1.4c-4.1,0-6.9,0.5-8.2,1.4c-1.4,1-2,2.2-2,3.6c0,1.4,0.6,2.5,1.8,3.4
		C5.9,102.3,8.7,102.9,12.8,102.9z"/>
	<path class="st0" d="M22.2,70.4h3V87c-0.7,0-1.5-0.1-2.1-0.4c-1.1-0.4-2.2-1.1-3.3-2c-1.1-0.9-2.4-2.3-3.8-4
		c-2.2-2.7-4-4.6-5.3-5.5c-1.3-1-2.5-1.4-3.7-1.4c-1.2,0-2.2,0.4-3.1,1.3c-0.8,0.9-1.3,2-1.3,3.4c0,1.5,0.4,2.7,1.3,3.6
		s2.1,1.3,3.7,1.3l-0.3,3.2c-2.4-0.2-4.2-1-5.4-2.4C0.6,82.5,0,80.6,0,78.3c0-2.4,0.7-4.3,2-5.7c1.3-1.4,3-2.1,5-2.1
		c1,0,2,0.2,3,0.6c1,0.4,2,1.1,3.1,2c1.1,1,2.5,2.5,4.4,4.7c1.5,1.8,2.6,3,3.2,3.6c0.6,0.5,1.1,1,1.7,1.3V70.4z"/>
	<path class="st0" d="M18.6,67.1l-0.3-3.2c1.6-0.2,2.8-0.8,3.5-1.7c0.8-0.9,1.2-1.9,1.2-3.2c0-1.5-0.6-2.7-1.7-3.8
		c-1.1-1-2.6-1.5-4.4-1.5c-1.8,0-3.1,0.5-4.1,1.5c-1,1-1.5,2.3-1.5,3.9c0,1,0.2,1.9,0.7,2.7c0.4,0.8,1,1.4,1.8,1.9l-0.4,2.9
		L0.4,64.2V51.7h2.9v10l6.7,1.3c-1-1.5-1.6-3.1-1.6-4.7c0-2.2,0.8-4,2.3-5.5c1.5-1.5,3.5-2.3,5.8-2.3c2.3,0,4.2,0.7,5.9,2
		c2,1.6,3,3.8,3,6.6c0,2.3-0.6,4.1-1.9,5.6C22.4,66.1,20.7,66.9,18.6,67.1z"/>
	<path class="st0" d="M17.6,48h-3.1v-9.4h3.1V48z"/>
	<path class="st0" d="M25.1,24.5v3.1H5.5c0.7,0.7,1.4,1.7,2.1,2.9c0.7,1.2,1.2,2.3,1.6,3.2h-3c-0.8-1.7-1.8-3.2-2.9-4.5
		C2.2,27.9,1.1,27,0,26.4v-2H25.1z"/>
	<path class="st0" d="M18.6,16.6l-0.3-3.2c1.6-0.2,2.8-0.8,3.5-1.7c0.8-0.9,1.2-1.9,1.2-3.2c0-1.5-0.6-2.7-1.7-3.8
		c-1.1-1-2.6-1.5-4.4-1.5c-1.8,0-3.1,0.5-4.1,1.5c-1,1-1.5,2.3-1.5,3.9c0,1,0.2,1.9,0.7,2.7c0.4,0.8,1,1.4,1.8,1.9L13.3,16L0.4,13.6
		V1.2h2.9v10l6.7,1.3c-1-1.5-1.6-3.1-1.6-4.7c0-2.2,0.8-4,2.3-5.5C12.3,0.8,14.3,0,16.6,0c2.3,0,4.2,0.7,5.9,2c2,1.6,3,3.8,3,6.6
		c0,2.3-0.6,4.1-1.9,5.6C22.4,15.6,20.7,16.4,18.6,16.6z"/>
</g>
</svg>
