<svg version="1.1" id="Layer_1" xmlns="http://www.w3.org/2000/svg" x="0" y="0" viewBox="0 0 25.6 279.4" style="enable-background:new 0 0 25.6 279.4" xml:space="preserve"><style>.st0{fill:#fff}</style><path class="st0" d="M25.1 279.4H.1v-18.1h3v14.8h7.7v-13.8h2.9v13.8h8.5v-15.4h3v18.7zM25.1 256.1H.1v-3.3h10.3v-13H.1v-3.3h25v3.3H13.3v13h11.8v3.3zM17.6 232.5h-3.1v-9.4h3.1v9.4zM25.1 219.4H.1v-3.3h12.4L.1 203.7v-4.5l10.1 10.5 14.9-11v4.4L12.5 212l4 4.1h8.7v3.3zM25.1 197.9H22L6 185.1c-1.1-.9-2.1-1.8-3-2.6v14H0v-17.9h3l17.4 14.1 1.8 1.5v-16h3v19.7zM17.6 176.2h-3.1v-9.4h3.1v9.4zM12.8 164.2c-3 0-5.3-.3-7.1-.9-1.8-.6-3.2-1.5-4.2-2.7-1-1.2-1.5-2.7-1.5-4.5 0-1.3.3-2.5.8-3.5s1.3-1.8 2.3-2.5 2.3-1.2 3.7-1.6c1.5-.4 3.4-.6 5.9-.6 2.9 0 5.3.3 7.1.9 1.8.6 3.2 1.5 4.2 2.7 1 1.2 1.5 2.7 1.5 4.6 0 2.4-.9 4.3-2.6 5.7-2 1.6-5.4 2.4-10.1 2.4zm0-3.2c4.1 0 6.8-.5 8.2-1.4s2-2.1 2-3.6-.7-2.6-2-3.6c-1.4-1-4.1-1.4-8.2-1.4s-6.9.5-8.2 1.4c-1.4 1-2 2.2-2 3.6s.6 2.5 1.8 3.4c1.5 1.1 4.3 1.6 8.4 1.6zM25.1 133.2v3.1H5.5c.7.7 1.4 1.7 2.1 2.9s1.2 2.3 1.6 3.2h-3c-.8-1.7-1.8-3.2-2.9-4.5-1.1-1.3-2.3-2.2-3.3-2.7v-2h25.1zM22.2 109.1h3v16.5c-.7 0-1.5-.1-2.1-.4-1.1-.4-2.2-1.1-3.3-2s-2.4-2.3-3.8-4c-2.2-2.7-4-4.6-5.3-5.5-1.3-1-2.5-1.4-3.7-1.4-1.2 0-2.2.4-3.1 1.3-.8.9-1.3 2-1.3 3.4 0 1.5.4 2.7 1.3 3.6.9.9 2.1 1.3 3.7 1.3l-.3 3.2c-2.4-.2-4.2-1-5.4-2.4C.6 121.2 0 119.4 0 117c0-2.4.7-4.3 2-5.7 1.3-1.4 3-2.1 5-2.1 1 0 2 .2 3 .6 1 .4 2 1.1 3.1 2s2.5 2.5 4.4 4.7c1.5 1.8 2.6 3 3.1 3.6.6.5 1.1 1 1.7 1.3v-12.3zM12.8 105.8c-3 0-5.3-.3-7.1-.9-1.8-.6-3.2-1.5-4.2-2.7C.5 101 0 99.5 0 97.7c0-1.3.3-2.5.8-3.5s1.3-1.8 2.3-2.5 2.3-1.2 3.7-1.6c1.5-.4 3.4-.6 5.9-.6 2.9 0 5.3.3 7.1.9 1.8.6 3.2 1.5 4.2 2.7 1 1.2 1.5 2.7 1.5 4.6 0 2.4-.9 4.3-2.6 5.7-2 1.6-5.4 2.4-10.1 2.4zm0-3.1c4.1 0 6.8-.5 8.2-1.4s2-2.1 2-3.6-.7-2.6-2-3.6c-1.4-1-4.1-1.4-8.2-1.4s-6.9.5-8.2 1.4c-1.4 1-2 2.2-2 3.6s.6 2.5 1.8 3.4c1.5 1.1 4.3 1.6 8.4 1.6zM22.2 70.2h3v16.5c-.7 0-1.5-.1-2.1-.4-1.1-.4-2.2-1.1-3.3-2s-2.4-2.3-3.8-4c-2.2-2.7-4-4.6-5.3-5.5-1.3-1-2.5-1.4-3.7-1.4-1.2 0-2.2.4-3.1 1.3-.8.9-1.3 2-1.3 3.4 0 1.5.4 2.7 1.3 3.6.9.9 2.1 1.3 3.7 1.3l-.3 3.2c-2.4-.2-4.2-1-5.4-2.4C.6 82.4 0 80.5 0 78.1c0-2.4.7-4.3 2-5.7 1.3-1.4 3-2.1 5-2.1 1 0 2 .2 3 .6 1 .4 2 1.1 3.1 2s2.5 2.5 4.4 4.7c1.5 1.8 2.6 3 3.1 3.6.6.5 1.1 1 1.7 1.3V70.2zM18.6 66.9l-.3-3.2c1.6-.2 2.8-.8 3.5-1.7.8-.9 1.2-1.9 1.2-3.2 0-1.5-.6-2.7-1.7-3.8s-2.6-1.5-4.4-1.5c-1.8 0-3.1.5-4.1 1.5-1 1-1.5 2.3-1.5 3.9 0 1 .2 1.9.7 2.7.5.8 1 1.4 1.8 1.9l-.4 2.9L.4 64V51.5h2.9v10l6.7 1.3c-1-1.5-1.6-3.1-1.6-4.7 0-2.2.8-4 2.3-5.5 1.5-1.5 3.5-2.3 5.8-2.3s4.2.7 5.9 2c2 1.6 3 3.8 3 6.6 0 2.3-.6 4.1-1.9 5.6-1.1 1.4-2.8 2.2-4.9 2.4zM17.6 47.8h-3.1v-9.4h3.1v9.4zM12.8 35.9c-3 0-5.3-.3-7.1-.9-1.8-.6-3.2-1.5-4.2-2.7C.5 31 0 29.5 0 27.7c0-1.3.3-2.5.8-3.5s1.3-1.8 2.3-2.5 2.3-1.2 3.7-1.6c1.5-.4 3.4-.6 5.9-.6 2.9 0 5.3.3 7.1.9 1.8.6 3.2 1.5 4.2 2.7 1 1.2 1.5 2.7 1.5 4.6 0 2.4-.9 4.3-2.6 5.7-2 1.6-5.4 2.5-10.1 2.5zm0-3.2c4.1 0 6.8-.5 8.2-1.4s2-2.1 2-3.6-.7-2.6-2-3.6c-1.4-1-4.1-1.4-8.2-1.4s-6.9.5-8.2 1.4c-1.4 1-2 2.2-2 3.6s.6 2.5 1.8 3.4c1.5 1.1 4.3 1.6 8.4 1.6zM18.5 16.4l-.4-3.1c1.7-.4 3-1 3.8-1.8S23 9.6 23 8.4c0-1.4-.5-2.7-1.5-3.7s-2.2-1.5-3.7-1.5c-1.4 0-2.6.5-3.5 1.4s-1.4 2.1-1.4 3.5c0 .6.1 1.3.3 2.2l-2.6-.3v-.5c0-1.3-.3-2.5-1-3.5S7.9 4.4 6.4 4.4c-1.1 0-2.1.4-2.8 1.1s-1.1 1.7-1.1 3c0 1.2.4 2.2 1.1 3 .8.8 1.9 1.3 3.4 1.5l-.5 3.1c-2.1-.4-3.7-1.2-4.8-2.6-1.1-1.3-1.7-3-1.7-5 0-1.4.3-2.6.9-3.8.6-1.2 1.4-2 2.4-2.6 1-.6 2.1-.9 3.2-.9s2.1.3 3 .9c.9.6 1.6 1.4 2.1 2.6.3-1.5 1-2.6 2.1-3.4 1.1-.8 2.4-1.2 4-1.2 2.2 0 4 .8 5.6 2.4s2.3 3.6 2.3 6c0 2.2-.7 4-2 5.5-1.3 1.4-3 2.2-5.1 2.4z"/></svg>