<?xml version="1.0" encoding="utf-8"?>
<!-- Generator: Adobe Illustrator 25.2.3, SVG Export Plug-In . SVG Version: 6.00 Build 0)  -->
<svg version="1.1" id="Layer_1" xmlns="http://www.w3.org/2000/svg" xmlns:xlink="http://www.w3.org/1999/xlink" x="0px" y="0px"
	 viewBox="0 0 300 54" style="enable-background:new 0 0 300 54;" xml:space="preserve">
<style type="text/css">
	.st0{fill:url(#SVGID_1_);}
	.st1{fill:#231F20;}
	.st2{fill:#8C734B;}
	.st3{fill:#0072BC;}
	.st4{fill:#EC1C24;}
	.st5{fill:#00ADEE;}
	.st6{fill:#00A14B;}
	.st7{fill:#EC297B;}
	.st8{fill:#0071BB;}
	.st9{fill:#F6921E;}
	.st10{fill:#37B34A;}
	.st11{fill:#7F2629;}
</style>
<linearGradient id="SVGID_1_" gradientUnits="userSpaceOnUse" x1="150" y1="54" x2="150" y2="0">
	<stop  offset="0" style="stop-color:#FFFFFF"/>
	<stop  offset="1" style="stop-color:#C6DFEE"/>
</linearGradient>
<rect class="st0" width="300" height="54"/>
<g>
	<g>
		<g>
			<path class="st1" d="M124.7,11.7c1.7,0,6,0.7,6,6.6s-4.4,6.6-6,6.6c-1.7,0-6-0.7-6-6.6S123.1,11.7,124.7,11.7z M124.7,22.7
				c1.4,0,3.4-0.9,3.4-4.4s-2-4.4-3.4-4.4c-1.4,0-3.4,0.9-3.4,4.4S123.3,22.7,124.7,22.7z"/>
			<path class="st1" d="M135.1,18.8l3.1-3.5h3l-3.3,3.6l3.4,5.7h-2.9l-2.2-4l-1,1.1v3h-2.4v-9.3h2.4V18.8z"/>
			<path class="st1" d="M144.4,15.3l2,6.9h0l1.9-6.9h2.6l-3.2,9.2c-1.1,3-1.5,3.9-3.6,3.9c-0.3,0-0.8,0-1.1,0v-2c0.1,0,0.3,0,0.5,0
				c0.9,0,1.4-0.1,1.6-1.4l-3.4-9.7H144.4z"/>
			<path class="st1" d="M152.4,15.3h4.2c2.1,0,3.6,0.9,3.6,2.4c0,1.1-0.8,1.8-1.7,2c1,0.2,2,0.8,2,2.4c0,1.7-1.3,2.6-3.4,2.6h-4.7
				V15.3z M154.8,19h1.6c0.8,0,1.4-0.3,1.4-1.1c0-0.8-0.6-1-1.4-1h-1.6V19z M154.8,22.9h1.8c0.9,0,1.5-0.3,1.5-1.2
				c0-0.8-0.6-1.2-1.5-1.2h-1.8V22.9z"/>
			<path class="st1" d="M162.1,18.3c0.3-2.9,2.3-3.3,4.2-3.3c1.3,0,3.7,0.4,3.7,2.7v5.1c0,1.1,0.2,1.3,0.5,1.4v0.4h-2.6
				c-0.1-0.5-0.2-0.6-0.2-1.1c-0.6,0.6-1.4,1.4-3,1.4c-1.4,0-2.8-0.8-2.8-2.7c0-2.2,2-3,4.4-3.2c1-0.1,1.4-0.4,1.4-0.8
				c0-1-1-1.1-1.6-1.1c-1.2,0-1.4,0.8-1.5,1.3H162.1z M165.9,20.5c-0.9,0.2-1.7,0.4-1.7,1.4c0,0.9,0.7,1.1,1.1,1.1
				c1.1,0,2.2-0.7,2.2-1.8V20C167.3,20.2,166.9,20.4,165.9,20.5z"/>
			<path class="st1" d="M174.6,21.2l3.5-5.9h2.6v9.3h-2.4v-5.9l-3.5,5.9h-2.6v-9.3h2.4V21.2z M179.8,11.4c-0.1,0.8-0.5,2.6-3.1,2.6
				c-2.3,0-2.7-1.9-2.8-2.6h1.2c0.1,0.5,0.3,1.2,1.7,1.2c0.8,0,1.7-0.1,1.9-1.2H179.8z"/>
			<path class="st1" d="M185,24.6v-7.4h-2.8v-2h8v2h-2.8v7.4H185z"/>
		</g>
		<g>
			<path class="st2" d="M127,29.8c2.2,0,5.5,1.1,5.5,4.8c0,3.7-3.4,4.8-5.5,4.8v1.3h-2.5v-1.3c-2.2,0-5.5-1.1-5.5-4.8
				c0-3.7,3.4-4.8,5.5-4.8v-1.2h2.5V29.8z M124.5,37.3v-5.5c-1.3,0-3,0.5-3,2.8C121.5,36.9,123.2,37.3,124.5,37.3z M127,31.8v5.5
				c1.3,0,3-0.5,3-2.7C130,32.3,128.3,31.8,127,31.8z"/>
			<path class="st2" d="M143.3,36.1c0,3.2-2.2,4.7-4.6,4.7c-2.4,0-4.6-1.5-4.6-4.7c0-3.2,2.2-4.7,4.6-4.7
				C141.1,31.4,143.3,32.9,143.3,36.1z M136.6,36.1c0,1.1,0.3,2.7,2.2,2.7s2.2-1.6,2.2-2.7c0-1.2-0.3-2.7-2.2-2.7
				S136.6,35,136.6,36.1z"/>
			<path class="st2" d="M147.5,33L147.5,33c0.5-0.7,1.1-1.5,2.7-1.5c2,0,3.7,1.6,3.7,4.7c0,2.5-1.1,4.8-3.8,4.8
				c-1.6,0-2.2-0.9-2.5-1.4l0,0v4.8h-2.4V31.7h2.3V33z M147.5,36.2c0,1.1,0.4,2.7,2,2.7c1.5,0,2.1-1.2,2.1-2.6c0-1.4-0.4-2.9-2-2.9
				C148,33.5,147.5,34.8,147.5,36.2z"/>
			<path class="st2" d="M157.5,40.6v-7.1h-2.7v-1.9h7.7v1.9h-2.7v7.1H157.5z"/>
			<path class="st2" d="M171.8,38c-0.6,2.2-2.4,2.9-3.9,2.9c-2.5,0-4.5-1.2-4.5-4.9c0-1.1,0.4-4.5,4.3-4.5c2.5,0,4.2,1.4,4.2,4.5
				v0.9h-6.1c0,0.7,0.1,2.2,2.1,2.2c0.7,0,1.3-0.3,1.5-1H171.8z M169.4,35.3c-0.1-1.4-1.1-1.9-1.8-1.9c-1.1,0-1.7,0.7-1.8,1.9H169.4
				z"/>
		</g>
		<g>
			<path class="st1" d="M194.3,16.2c-1.3,0-2.5-0.9-2.5-2.4c0-1.5,1.2-2.4,2.5-2.4c1.3,0,2.4,0.9,2.4,2.4
				C196.7,15.3,195.6,16.2,194.3,16.2 M194.3,11.9c-1,0-1.8,0.7-1.8,1.9c0,1.1,0.8,1.9,1.8,1.9c0.9,0,1.7-0.8,1.7-1.9
				C196,12.7,195.2,11.9,194.3,11.9 M193.9,15.1h-0.6v-2.6h1c0.7,0,1.1,0.2,1.1,0.8c0,0.5-0.3,0.7-0.6,0.7l0.7,1.2h-0.7l-0.6-1.1
				h-0.3V15.1z M193.9,13.5h0.5c0.3,0,0.4,0,0.4-0.3c0-0.3-0.3-0.3-0.5-0.3h-0.4V13.5z"/>
		</g>
	</g>
	<g>
		<g>
			<g>
				<g>
					<g>
						<path class="st3" d="M14.9,41.6c0,0.1,0,0.3-0.1,0.4s-0.1,0.3-0.2,0.4c-0.1,0.1-0.2,0.2-0.4,0.3c-0.2,0.1-0.4,0.1-0.6,0.1
							h-0.8c0,0-0.1,0-0.1,0c0,0-0.1-0.1-0.1-0.2v-3.4c0-0.1,0-0.1,0.1-0.2c0,0,0.1,0,0.1,0h1.8c0,0,0,0,0,0c0,0,0,0,0,0
							c0,0,0,0,0,0.1c0,0,0,0.1,0,0.1c0,0,0,0.1,0,0.1c0,0,0,0,0,0.1c0,0,0,0,0,0c0,0,0,0,0,0h-1.5v1.2h0.6c0.2,0,0.4,0,0.5,0.1
							c0.1,0,0.3,0.1,0.4,0.2c0.1,0.1,0.2,0.2,0.2,0.3C14.8,41.3,14.9,41.5,14.9,41.6z M14.4,41.7c0-0.1,0-0.2,0-0.3
							c0-0.1-0.1-0.2-0.1-0.2c-0.1-0.1-0.1-0.1-0.2-0.1c-0.1,0-0.2,0-0.4,0h-0.6v1.4h0.6c0.1,0,0.3,0,0.3,0c0.1,0,0.2-0.1,0.2-0.1
							c0.1-0.1,0.1-0.1,0.1-0.2C14.4,41.9,14.4,41.8,14.4,41.7z"/>
						<path class="st3" d="M18,42.6c0,0,0,0.1,0,0.1c0,0,0,0,0,0.1c0,0,0,0-0.1,0c0,0-0.1,0-0.1,0c-0.1,0-0.1,0-0.1,0
							c0,0-0.1,0-0.1,0c0,0,0,0,0,0c0,0,0,0,0,0l-0.3-0.9h-1.4l-0.3,0.9c0,0,0,0,0,0c0,0,0,0,0,0c0,0,0,0-0.1,0c0,0-0.1,0-0.1,0
							c-0.1,0-0.1,0-0.1,0c0,0-0.1,0-0.1,0c0,0,0,0,0-0.1c0,0,0-0.1,0-0.1l1.2-3.5c0,0,0,0,0-0.1c0,0,0,0,0.1,0c0,0,0.1,0,0.1,0
							c0,0,0.1,0,0.1,0c0.1,0,0.1,0,0.1,0c0,0,0.1,0,0.1,0c0,0,0,0,0.1,0c0,0,0,0,0,0.1L18,42.6z M16.6,39.5L16.6,39.5L16,41.4h1.2
							L16.6,39.5z"/>
						<path class="st3" d="M21,42.7C21,42.7,21,42.7,21,42.7C21,42.8,21,42.8,21,42.7c-0.1,0.1-0.1,0.1-0.1,0.1c0,0-0.1,0-0.1,0
							c0,0-0.1,0-0.1,0s-0.1,0-0.1,0c0,0,0,0,0,0c0,0,0,0,0,0v-3.3h-1c0,0.5-0.1,0.9-0.1,1.2c0,0.3-0.1,0.6-0.2,0.9
							c-0.1,0.3-0.1,0.5-0.2,0.6c-0.1,0.2-0.1,0.3-0.2,0.4c-0.1,0.1-0.2,0.2-0.3,0.2c-0.1,0-0.2,0.1-0.4,0.1c0,0,0,0,0,0
							c0,0,0,0,0,0c0,0,0,0,0-0.1c0,0,0-0.1,0-0.1c0,0,0-0.1,0-0.1c0,0,0-0.1,0-0.1c0,0,0,0,0,0s0,0,0,0c0.1,0,0.1,0,0.2,0
							c0.1,0,0.1-0.1,0.2-0.2c0.1-0.1,0.1-0.2,0.2-0.3c0-0.1,0.1-0.3,0.1-0.6c0-0.2,0.1-0.5,0.1-0.9c0-0.3,0.1-0.7,0.1-1.2
							c0-0.1,0-0.1,0.1-0.2c0,0,0.1-0.1,0.1-0.1h1.5c0,0,0.1,0,0.1,0.1c0,0,0,0.1,0,0.2V42.7z"/>
						<path class="st3" d="M24.5,42.6c0,0,0,0.1,0,0.1c0,0,0,0,0,0.1c0,0,0,0-0.1,0c0,0-0.1,0-0.1,0c-0.1,0-0.1,0-0.1,0
							c0,0-0.1,0-0.1,0c0,0,0,0,0,0c0,0,0,0,0,0l-0.3-0.9h-1.4L22,42.7c0,0,0,0,0,0c0,0,0,0,0,0c0,0,0,0-0.1,0c0,0-0.1,0-0.1,0
							c-0.1,0-0.1,0-0.1,0c0,0-0.1,0-0.1,0c0,0,0,0,0-0.1c0,0,0-0.1,0-0.1l1.2-3.5c0,0,0,0,0-0.1c0,0,0,0,0.1,0c0,0,0.1,0,0.1,0
							c0,0,0.1,0,0.1,0c0.1,0,0.1,0,0.1,0c0,0,0.1,0,0.1,0c0,0,0,0,0.1,0c0,0,0,0,0,0.1L24.5,42.6z M23,39.5L23,39.5l-0.6,1.9h1.2
							L23,39.5z"/>
						<path class="st3" d="M27.5,42.7C27.5,42.7,27.5,42.7,27.5,42.7C27.5,42.8,27.5,42.8,27.5,42.7c-0.1,0.1-0.1,0.1-0.1,0.1
							c0,0-0.1,0-0.1,0c0,0-0.1,0-0.1,0s-0.1,0-0.1,0c0,0,0,0,0,0c0,0,0,0,0,0v-3.3h-1c0,0.5-0.1,0.9-0.1,1.2c0,0.3-0.1,0.6-0.2,0.9
							c-0.1,0.3-0.1,0.5-0.2,0.6c-0.1,0.2-0.1,0.3-0.2,0.4c-0.1,0.1-0.2,0.2-0.3,0.2c-0.1,0-0.2,0.1-0.4,0.1c0,0,0,0,0,0
							c0,0,0,0,0,0c0,0,0,0,0-0.1c0,0,0-0.1,0-0.1c0,0,0-0.1,0-0.1c0,0,0-0.1,0-0.1c0,0,0,0,0,0c0,0,0,0,0,0c0.1,0,0.1,0,0.2,0
							c0.1,0,0.1-0.1,0.2-0.2c0.1-0.1,0.1-0.2,0.2-0.3c0-0.1,0.1-0.3,0.1-0.6c0-0.2,0.1-0.5,0.1-0.9s0.1-0.7,0.1-1.2
							c0-0.1,0-0.1,0.1-0.2c0,0,0.1-0.1,0.1-0.1h1.5c0,0,0.1,0,0.1,0.1c0,0,0,0.1,0,0.2V42.7z"/>
						<path class="st3" d="M31,42.6c0,0,0,0.1,0,0.1c0,0,0,0,0,0.1c0,0,0,0-0.1,0c0,0-0.1,0-0.1,0c-0.1,0-0.1,0-0.1,0
							c0,0-0.1,0-0.1,0c0,0,0,0,0,0c0,0,0,0,0,0l-0.3-0.9h-1.4l-0.3,0.9c0,0,0,0,0,0c0,0,0,0,0,0c0,0,0,0-0.1,0c0,0-0.1,0-0.1,0
							c-0.1,0-0.1,0-0.1,0c0,0-0.1,0-0.1,0c0,0,0,0,0-0.1c0,0,0-0.1,0-0.1l1.2-3.5c0,0,0,0,0-0.1c0,0,0,0,0.1,0c0,0,0.1,0,0.1,0
							c0,0,0.1,0,0.1,0c0.1,0,0.1,0,0.1,0c0,0,0.1,0,0.1,0c0,0,0,0,0.1,0c0,0,0,0,0,0.1L31,42.6z M29.5,39.5L29.5,39.5l-0.6,1.9h1.2
							L29.5,39.5z"/>
						<path class="st3" d="M33.6,40.1c0,0.2,0,0.4-0.1,0.5c-0.1,0.2-0.1,0.3-0.2,0.4c-0.1,0.1-0.2,0.2-0.4,0.3
							c-0.2,0.1-0.3,0.1-0.5,0.1H32v1.4c0,0,0,0,0,0c0,0,0,0,0,0c0,0,0,0-0.1,0c0,0-0.1,0-0.1,0c0,0-0.1,0-0.1,0c0,0-0.1,0-0.1,0
							c0,0,0,0,0,0c0,0,0,0,0,0v-3.5c0-0.1,0-0.1,0.1-0.2c0,0,0.1-0.1,0.1-0.1h0.7c0.1,0,0.1,0,0.2,0c0.1,0,0.1,0,0.2,0
							c0.1,0,0.2,0.1,0.3,0.1c0.1,0.1,0.2,0.1,0.2,0.2c0.1,0.1,0.1,0.2,0.2,0.3C33.6,39.8,33.6,39.9,33.6,40.1z M33.2,40.1
							c0-0.2,0-0.3-0.1-0.4c-0.1-0.1-0.1-0.2-0.2-0.2c-0.1-0.1-0.2-0.1-0.2-0.1c-0.1,0-0.2,0-0.2,0H32v1.5h0.4c0.1,0,0.3,0,0.3-0.1
							c0.1,0,0.2-0.1,0.2-0.2c0.1-0.1,0.1-0.2,0.1-0.3C33.1,40.3,33.2,40.2,33.2,40.1z"/>
						<path class="st3" d="M35.6,40.8c0,0.1,0,0.1,0,0.2c0,0,0,0-0.1,0h-0.6v1.7c0,0,0,0,0,0c0,0,0,0,0,0c0,0,0,0-0.1,0
							c0,0-0.1,0-0.1,0c0,0-0.1,0-0.1,0c0,0-0.1,0-0.1,0c0,0,0,0,0,0c0,0,0,0,0,0V41h-0.3c0,0-0.1,0-0.1,0c0,0,0-0.1,0-0.2
							c0-0.1,0-0.1,0-0.2c0,0,0-0.1,0.1-0.1h0.3v-1.4c0-0.1,0-0.1,0.1-0.2c0,0,0.1-0.1,0.1-0.1h1.5c0,0,0,0,0,0c0,0,0,0,0,0
							c0,0,0,0,0,0.1s0,0.1,0,0.1c0,0,0,0.1,0,0.1s0,0,0,0.1c0,0,0,0,0,0c0,0,0,0,0,0h-1.2v1.2h0.6c0,0,0,0,0,0c0,0,0,0,0,0
							C35.5,40.7,35.5,40.7,35.6,40.8C35.6,40.7,35.6,40.8,35.6,40.8z"/>
						<path class="st3" d="M38.8,42.6c0,0,0,0.1,0,0.1c0,0,0,0,0,0.1c0,0,0,0-0.1,0c0,0-0.1,0-0.1,0c-0.1,0-0.1,0-0.1,0
							c0,0-0.1,0-0.1,0c0,0,0,0,0,0c0,0,0,0,0,0l-0.3-0.9h-1.4l-0.3,0.9c0,0,0,0,0,0c0,0,0,0,0,0c0,0,0,0-0.1,0c0,0-0.1,0-0.1,0
							c-0.1,0-0.1,0-0.1,0c0,0-0.1,0-0.1,0c0,0,0,0,0-0.1c0,0,0-0.1,0-0.1l1.2-3.5c0,0,0,0,0-0.1c0,0,0,0,0.1,0c0,0,0.1,0,0.1,0
							c0,0,0.1,0,0.1,0c0.1,0,0.1,0,0.1,0c0,0,0.1,0,0.1,0c0,0,0,0,0.1,0c0,0,0,0,0,0.1L38.8,42.6z M37.3,39.5L37.3,39.5l-0.6,1.9
							h1.2L37.3,39.5z"/>
						<path class="st3" d="M43.2,42.6c0,0,0,0.1,0,0.1c0,0,0,0,0,0.1c0,0,0,0-0.1,0c0,0-0.1,0-0.1,0c-0.1,0-0.1,0-0.1,0
							c0,0-0.1,0-0.1,0c0,0,0,0,0,0c0,0,0,0,0,0l-0.3-0.9H41l-0.3,0.9c0,0,0,0,0,0c0,0,0,0,0,0c0,0,0,0-0.1,0c0,0-0.1,0-0.1,0
							c-0.1,0-0.1,0-0.1,0c0,0-0.1,0-0.1,0c0,0,0,0,0-0.1c0,0,0-0.1,0-0.1l1.2-3.5c0,0,0,0,0-0.1c0,0,0,0,0.1,0c0,0,0.1,0,0.1,0
							c0,0,0.1,0,0.1,0c0.1,0,0.1,0,0.1,0c0,0,0.1,0,0.1,0c0,0,0,0,0.1,0c0,0,0,0,0,0.1L43.2,42.6z M41.7,39.5L41.7,39.5l-0.6,1.9
							h1.2L41.7,39.5z"/>
						<path class="st3" d="M45.9,40.1c0,0.2,0,0.4-0.1,0.5c-0.1,0.2-0.1,0.3-0.2,0.4c-0.1,0.1-0.2,0.2-0.4,0.3
							c-0.2,0.1-0.3,0.1-0.5,0.1h-0.4v1.4c0,0,0,0,0,0c0,0,0,0,0,0c0,0,0,0-0.1,0c0,0-0.1,0-0.1,0c0,0-0.1,0-0.1,0c0,0-0.1,0-0.1,0
							c0,0,0,0,0,0c0,0,0,0,0,0v-3.5c0-0.1,0-0.1,0.1-0.2c0,0,0.1-0.1,0.1-0.1h0.7c0.1,0,0.1,0,0.2,0s0.1,0,0.2,0
							c0.1,0,0.2,0.1,0.3,0.1c0.1,0.1,0.2,0.1,0.2,0.2c0.1,0.1,0.1,0.2,0.2,0.3C45.8,39.8,45.9,39.9,45.9,40.1z M45.4,40.1
							c0-0.2,0-0.3-0.1-0.4c-0.1-0.1-0.1-0.2-0.2-0.2s-0.2-0.1-0.2-0.1c-0.1,0-0.2,0-0.2,0h-0.4v1.5h0.4c0.1,0,0.3,0,0.3-0.1
							c0.1,0,0.2-0.1,0.2-0.2c0.1-0.1,0.1-0.2,0.1-0.3C45.4,40.3,45.4,40.2,45.4,40.1z"/>
						<path class="st3" d="M49,42.7C49,42.7,49,42.7,49,42.7C49,42.8,49,42.8,49,42.7c-0.1,0.1-0.1,0.1-0.1,0.1c0,0-0.1,0-0.1,0
							c0,0-0.1,0-0.1,0c0,0-0.1,0-0.1,0c0,0,0,0,0,0c0,0,0,0,0,0V41H47v1.7c0,0,0,0,0,0c0,0,0,0,0,0c0,0,0,0-0.1,0c0,0-0.1,0-0.1,0
							c0,0-0.1,0-0.1,0c0,0-0.1,0-0.1,0c0,0,0,0,0,0c0,0,0,0,0,0V39c0,0,0,0,0,0c0,0,0,0,0,0c0,0,0,0,0.1,0c0,0,0.1,0,0.1,0
							c0,0,0.1,0,0.1,0c0,0,0.1,0,0.1,0c0,0,0,0,0,0c0,0,0,0,0,0v1.5h1.6V39c0,0,0,0,0,0c0,0,0,0,0,0c0,0,0,0,0.1,0c0,0,0.1,0,0.1,0
							c0,0,0.1,0,0.1,0c0,0,0.1,0,0.1,0c0,0,0,0,0,0c0,0,0,0,0,0V42.7z"/>
						<path class="st3" d="M52.5,42.6c0,0,0,0.1,0,0.1c0,0,0,0,0,0.1c0,0,0,0-0.1,0c0,0-0.1,0-0.1,0c-0.1,0-0.1,0-0.1,0
							c0,0-0.1,0-0.1,0c0,0,0,0,0,0c0,0,0,0,0,0l-0.3-0.9h-1.4L50,42.7c0,0,0,0,0,0c0,0,0,0,0,0c0,0,0,0-0.1,0c0,0-0.1,0-0.1,0
							c-0.1,0-0.1,0-0.1,0c0,0-0.1,0-0.1,0c0,0,0,0,0-0.1c0,0,0-0.1,0-0.1l1.2-3.5c0,0,0,0,0-0.1c0,0,0,0,0.1,0c0,0,0.1,0,0.1,0
							c0,0,0.1,0,0.1,0c0.1,0,0.1,0,0.1,0c0,0,0.1,0,0.1,0c0,0,0,0,0.1,0c0,0,0,0,0,0.1L52.5,42.6z M51,39.5L51,39.5l-0.6,1.9h1.2
							L51,39.5z"/>
						<path class="st3" d="M55.5,42.7C55.5,42.7,55.5,42.7,55.5,42.7C55.5,42.8,55.5,42.8,55.5,42.7c-0.1,0.1-0.1,0.1-0.1,0.1
							c0,0-0.1,0-0.1,0s-0.1,0-0.1,0s-0.1,0-0.1,0c0,0,0,0,0,0c0,0,0,0,0,0v-3.3h-1c0,0.5-0.1,0.9-0.1,1.2c0,0.3-0.1,0.6-0.2,0.9
							c-0.1,0.3-0.1,0.5-0.2,0.6c-0.1,0.2-0.1,0.3-0.2,0.4c-0.1,0.1-0.2,0.2-0.3,0.2c-0.1,0-0.2,0.1-0.4,0.1c0,0,0,0,0,0
							c0,0,0,0,0,0c0,0,0,0,0-0.1c0,0,0-0.1,0-0.1c0,0,0-0.1,0-0.1c0,0,0-0.1,0-0.1c0,0,0,0,0,0c0,0,0,0,0,0c0.1,0,0.1,0,0.2,0
							c0.1,0,0.1-0.1,0.2-0.2c0.1-0.1,0.1-0.2,0.2-0.3c0-0.1,0.1-0.3,0.1-0.6c0-0.2,0.1-0.5,0.1-0.9s0.1-0.7,0.1-1.2
							c0-0.1,0-0.1,0.1-0.2c0,0,0.1-0.1,0.1-0.1h1.5c0,0,0.1,0,0.1,0.1c0,0,0,0.1,0,0.2V42.7z"/>
						<path class="st3" d="M57.6,40.8c0,0.1,0,0.1,0,0.2c0,0,0,0-0.1,0h-0.6v1.7c0,0,0,0,0,0c0,0,0,0,0,0c0,0,0,0-0.1,0
							c0,0-0.1,0-0.1,0c0,0-0.1,0-0.1,0c0,0-0.1,0-0.1,0c0,0,0,0,0,0c0,0,0,0,0,0V41h-0.3c0,0-0.1,0-0.1,0c0,0,0-0.1,0-0.2
							c0-0.1,0-0.1,0-0.2c0,0,0-0.1,0.1-0.1h0.3v-1.4c0-0.1,0-0.1,0.1-0.2c0,0,0.1-0.1,0.1-0.1h1.5c0,0,0,0,0,0c0,0,0,0,0,0
							c0,0,0,0,0,0.1s0,0.1,0,0.1c0,0,0,0.1,0,0.1s0,0,0,0.1c0,0,0,0,0,0c0,0,0,0,0,0h-1.2v1.2h0.6c0,0,0,0,0,0c0,0,0,0,0,0
							C57.6,40.7,57.6,40.7,57.6,40.8C57.6,40.7,57.6,40.8,57.6,40.8z"/>
						<path class="st3" d="M60.9,42.6c0,0,0,0.1,0,0.1c0,0,0,0,0,0.1c0,0,0,0-0.1,0c0,0-0.1,0-0.1,0c-0.1,0-0.1,0-0.1,0
							c0,0-0.1,0-0.1,0c0,0,0,0,0,0c0,0,0,0,0,0l-0.3-0.9h-1.4l-0.3,0.9c0,0,0,0,0,0c0,0,0,0,0,0c0,0,0,0-0.1,0c0,0-0.1,0-0.1,0
							c-0.1,0-0.1,0-0.1,0c0,0-0.1,0-0.1,0c0,0,0,0,0-0.1c0,0,0-0.1,0-0.1l1.2-3.5c0,0,0,0,0-0.1c0,0,0,0,0.1,0c0,0,0.1,0,0.1,0
							c0,0,0.1,0,0.1,0c0.1,0,0.1,0,0.1,0c0,0,0.1,0,0.1,0c0,0,0,0,0.1,0c0,0,0,0,0,0.1L60.9,42.6z M59.4,39.5L59.4,39.5l-0.6,1.9
							H60L59.4,39.5z"/>
						<path class="st3" d="M63.9,42.7C63.9,42.7,63.9,42.7,63.9,42.7C63.9,42.8,63.9,42.8,63.9,42.7c-0.1,0.1-0.1,0.1-0.1,0.1
							c0,0-0.1,0-0.1,0c0,0-0.1,0-0.1,0c0,0-0.1,0-0.1,0c0,0,0,0,0,0c0,0,0,0,0,0V41h-1.6v1.7c0,0,0,0,0,0c0,0,0,0,0,0
							c0,0,0,0-0.1,0c0,0-0.1,0-0.1,0c0,0-0.1,0-0.1,0c0,0-0.1,0-0.1,0c0,0,0,0,0,0c0,0,0,0,0,0V39c0,0,0,0,0,0c0,0,0,0,0,0
							c0,0,0,0,0.1,0c0,0,0.1,0,0.1,0c0,0,0.1,0,0.1,0c0,0,0.1,0,0.1,0c0,0,0,0,0,0c0,0,0,0,0,0v1.5h1.6V39c0,0,0,0,0,0c0,0,0,0,0,0
							c0,0,0,0,0.1,0c0,0,0.1,0,0.1,0c0,0,0.1,0,0.1,0c0,0,0.1,0,0.1,0c0,0,0,0,0,0c0,0,0,0,0,0V42.7z"/>
					</g>
				</g>
			</g>
		</g>
		<g>
			<g>
				<g>
					<path class="st4" d="M74.6,36.6c-0.3,0-0.6-0.2-0.6-0.6l-0.1-0.6l-2.4,0.2l0.1,0.6c0,0.4-0.2,0.6-0.5,0.7
						c-0.3,0-0.6-0.2-0.6-0.6l-0.1-0.9c0-0.4,0.2-0.6,0.5-0.7l0.1,0c0.1-0.8,0.1-1.6,0-2.6c0-0.4,0.2-0.6,0.5-0.7l2-0.2
						c0.3,0,0.6,0.2,0.6,0.6l0.3,2.5l0.1,0c0.3,0,0.6,0.2,0.6,0.6l0.1,0.9C75.1,36.3,74.9,36.6,74.6,36.6z M73,32.3l-1,0.1
						c0.1,0.9,0.1,1.7,0,2.4l1.2-0.1L73,32.3z"/>
					<path class="st5" d="M76.7,34.6c0,0.6,0.5,0.9,1,0.9c0.6,0,1-0.4,1.3-0.3c0.2,0,0.4,0.3,0.4,0.5c0,0.5-1.1,0.9-1.9,0.8
						c-1.3-0.1-2-1.1-1.9-2.3c0.1-1.1,1-2.1,2.2-2c1.2,0.1,1.9,1.3,1.9,2.2c0,0.3-0.2,0.5-0.5,0.5L76.7,34.6z M78.5,34
						c0-0.5-0.3-0.9-0.8-0.9c-0.5,0-0.9,0.3-1,0.8L78.5,34z"/>
					<path class="st6" d="M80.5,32.1h-0.8c-0.3,0-0.5-0.2-0.5-0.5c0-0.3,0.2-0.5,0.5-0.5h2.7c0.3,0,0.5,0.1,0.5,0.5
						c0,0.4-0.3,0.5-0.5,0.5h-0.8v2.6c0,0.4-0.2,0.6-0.6,0.6c-0.3,0-0.6-0.3-0.6-0.6V32.1z"/>
					<path class="st7" d="M85.4,33.2c-0.3,0.1-0.6-0.1-0.9,0c-0.6,0.1-0.8,0.8-0.7,1.3c0.1,0.5,0.6,1,1.2,0.9
						c0.3-0.1,0.6-0.4,0.8-0.4c0.3-0.1,0.5,0.1,0.6,0.4c0.1,0.6-0.8,1-1.2,1.1c-1.2,0.3-2.2-0.5-2.5-1.7c-0.3-1.1,0.3-2.3,1.5-2.6
						c0.4-0.1,1.4-0.1,1.5,0.4C85.7,32.8,85.6,33.1,85.4,33.2z"/>
					<path class="st8" d="M86.4,31.7c0-0.4,0.2-0.6,0.6-0.6s0.6,0.3,0.6,0.6v1l1.2-1.4c0.1-0.2,0.4-0.2,0.5-0.2
						c0.3,0,0.5,0.3,0.5,0.5c0,0.2-0.1,0.3-0.2,0.4l-1.1,1.1l1.4,1.3c0.1,0.1,0.1,0.3,0.1,0.4c0,0.3-0.2,0.5-0.5,0.5
						c-0.2,0-0.4-0.2-0.5-0.3l-1.4-1.5h0v1.2c0,0.4-0.2,0.6-0.6,0.6s-0.6-0.3-0.6-0.6V31.7z"/>
					<path class="st9" d="M93.9,36.1c-0.3,0-0.6-0.2-0.6-0.6l-0.1-1.7l0,0L91.8,36c-0.1,0.2-0.2,0.3-0.4,0.3c-0.3,0-0.6-0.2-0.6-0.6
						l-0.3-3c0-0.4,0.2-0.6,0.5-0.7c0.3,0,0.6,0.2,0.6,0.6l0.1,1.6l0,0l1.3-2c0.1-0.2,0.3-0.4,0.5-0.4c0.3,0,0.6,0.2,0.6,0.6l0.3,3
						C94.5,35.8,94.3,36.1,93.9,36.1z"/>
					<path class="st10" d="M98.3,36.3c-0.3,0-0.5-0.3-0.5-0.7l0.2-1.6l0,0l-1.8,1.8c-0.1,0.1-0.3,0.2-0.5,0.2
						c-0.3,0-0.5-0.3-0.5-0.7l0.4-3c0.1-0.4,0.3-0.6,0.7-0.5c0.3,0,0.5,0.3,0.5,0.7L96.6,34l0,0l1.7-1.7c0.2-0.2,0.4-0.3,0.6-0.3
						c0.3,0,0.5,0.3,0.5,0.7l-0.4,3C98.9,36.1,98.6,36.3,98.3,36.3z M97,30.3c0.5,0.1,0.3,0.6,0.8,0.7c0.4,0.1,0.4-0.5,0.9-0.4
						c0.2,0,0.3,0.3,0.3,0.5c-0.1,0.6-0.9,0.7-1.3,0.6c-0.5-0.1-1.2-0.4-1.1-1C96.7,30.5,96.8,30.3,97,30.3z"/>
				</g>
			</g>
			<g>
				<g>
					<g>
						<path class="st4" d="M24.5,25.3c0,0.1,0,0.1-0.1,0.2c0,0.1-0.1,0.1-0.2,0.1c-0.1,0-0.2,0.1-0.4,0.1c-0.2,0-0.4,0-0.7,0
							c-0.3,0-0.5,0-0.7,0c-0.2,0-0.3,0-0.4-0.1c-0.1,0-0.2-0.1-0.2-0.1c0-0.1-0.1-0.1-0.1-0.2V14.4h-2.9c-0.2,1.6-0.4,3-0.6,4.2
							c-0.2,1.2-0.4,2.2-0.6,3.1c-0.2,0.9-0.5,1.6-0.8,2.1c-0.3,0.5-0.6,1-0.9,1.3c-0.4,0.3-0.8,0.5-1.2,0.7
							c-0.4,0.1-0.9,0.2-1.5,0.2c-0.1,0-0.2,0-0.3,0c-0.1,0-0.1-0.1-0.2-0.2c0-0.1-0.1-0.2-0.1-0.3c0-0.1,0-0.3,0-0.5
							c0-0.3,0-0.5,0-0.7c0-0.2,0-0.3,0.1-0.4c0-0.1,0.1-0.2,0.1-0.2c0.1,0,0.1-0.1,0.2-0.1c0.2,0,0.4,0,0.6-0.1
							c0.2-0.1,0.4-0.3,0.6-0.5c0.2-0.3,0.4-0.6,0.5-1.1c0.2-0.5,0.3-1.1,0.5-1.8c0.2-0.8,0.3-1.7,0.5-2.8c0.2-1.1,0.3-2.4,0.5-3.9
							c0-0.4,0.1-0.6,0.3-0.7c0.1-0.1,0.3-0.2,0.6-0.2h6.7c0.3,0,0.4,0.1,0.6,0.2c0.1,0.1,0.2,0.4,0.2,0.7V25.3z"/>
						<path class="st4" d="M44.7,18.8c0,1.1-0.1,2.1-0.4,3c-0.3,0.9-0.7,1.6-1.2,2.2s-1.2,1.1-2,1.4c-0.8,0.3-1.7,0.5-2.8,0.5
							c-1,0-1.8-0.1-2.5-0.4s-1.4-0.6-1.9-1.2c-0.5-0.5-0.9-1.2-1.2-1.9c-0.3-0.8-0.4-1.6-0.5-2.7h-2.1v5.5c0,0.1,0,0.1-0.1,0.2
							c0,0.1-0.1,0.1-0.2,0.1c-0.1,0-0.2,0.1-0.4,0.1c-0.2,0-0.4,0-0.7,0c-0.3,0-0.5,0-0.7,0c-0.2,0-0.3,0-0.4-0.1
							c-0.1,0-0.2-0.1-0.2-0.1c0-0.1-0.1-0.1-0.1-0.2V12.5c0-0.1,0-0.1,0.1-0.2c0-0.1,0.1-0.1,0.2-0.1c0.1,0,0.2-0.1,0.4-0.1
							c0.2,0,0.4,0,0.7,0c0.3,0,0.5,0,0.7,0c0.2,0,0.3,0,0.4,0.1c0.1,0,0.2,0.1,0.2,0.1c0,0.1,0.1,0.1,0.1,0.2v5.1h2.1
							c0.1-0.9,0.3-1.7,0.6-2.4c0.3-0.7,0.7-1.3,1.2-1.8c0.5-0.5,1.1-0.9,1.9-1.1c0.7-0.3,1.6-0.4,2.5-0.4c1,0,1.9,0.1,2.6,0.4
							c0.8,0.3,1.4,0.7,1.9,1.3c0.5,0.6,0.9,1.3,1.2,2.2C44.5,16.6,44.7,17.6,44.7,18.8z M41.8,18.9c0-0.7-0.1-1.4-0.2-1.9
							c-0.1-0.6-0.3-1.1-0.6-1.5c-0.3-0.4-0.6-0.8-1-1c-0.4-0.2-1-0.4-1.6-0.4c-0.7,0-1.2,0.1-1.7,0.4c-0.4,0.3-0.8,0.6-1,1
							c-0.3,0.4-0.4,0.9-0.5,1.5c-0.1,0.6-0.2,1.2-0.2,1.8c0,0.5,0,0.9,0.1,1.3c0,0.4,0.1,0.8,0.2,1.2s0.2,0.7,0.4,1
							c0.2,0.3,0.4,0.5,0.6,0.7c0.3,0.2,0.5,0.4,0.9,0.5c0.3,0.1,0.7,0.2,1.2,0.2c0.6,0,1.2-0.1,1.6-0.4c0.4-0.2,0.8-0.6,1-1
							c0.3-0.4,0.4-0.9,0.6-1.5C41.7,20.2,41.8,19.6,41.8,18.9z"/>
						<path class="st4" d="M54.6,13.2c0,0.2,0,0.4,0,0.5c0,0.1,0,0.3-0.1,0.3c0,0.1-0.1,0.2-0.1,0.2c-0.1,0-0.1,0.1-0.2,0.1h-3.4
							v10.9c0,0.1,0,0.1-0.1,0.2c0,0.1-0.1,0.1-0.2,0.1c-0.1,0-0.2,0.1-0.4,0.1c-0.2,0-0.4,0-0.7,0c-0.3,0-0.5,0-0.7,0
							c-0.2,0-0.3,0-0.4-0.1c-0.1,0-0.2-0.1-0.2-0.1c0-0.1-0.1-0.1-0.1-0.2V14.4h-3.4c-0.1,0-0.1,0-0.2-0.1c0,0-0.1-0.1-0.1-0.2
							c0-0.1-0.1-0.2-0.1-0.3c0-0.1,0-0.3,0-0.5c0-0.2,0-0.4,0-0.5c0-0.1,0-0.3,0.1-0.4c0-0.1,0.1-0.1,0.1-0.2c0,0,0.1-0.1,0.2-0.1
							h9.6c0.1,0,0.1,0,0.2,0.1c0.1,0,0.1,0.1,0.1,0.2c0,0.1,0.1,0.2,0.1,0.4C54.6,12.9,54.6,13,54.6,13.2z"/>
						<path class="st4" d="M64.4,24.6c0,0.2,0,0.4,0,0.5c0,0.1,0,0.2-0.1,0.3c0,0.1-0.1,0.1-0.1,0.2c-0.1,0-0.1,0.1-0.2,0.1h-6.8
							c-0.2,0-0.4-0.1-0.6-0.2c-0.2-0.1-0.2-0.4-0.2-0.7V13c0-0.3,0.1-0.5,0.2-0.7c0.2-0.1,0.4-0.2,0.6-0.2h6.8c0.1,0,0.1,0,0.2,0.1
							c0,0,0.1,0.1,0.1,0.2c0,0.1,0.1,0.2,0.1,0.3c0,0.1,0,0.3,0,0.5c0,0.2,0,0.4,0,0.5c0,0.1,0,0.2-0.1,0.3c0,0.1-0.1,0.1-0.1,0.2
							c0,0-0.1,0.1-0.2,0.1h-4.8v3.3h4.1c0.1,0,0.1,0,0.2,0.1c0.1,0,0.1,0.1,0.1,0.2c0,0.1,0.1,0.2,0.1,0.3c0,0.1,0,0.3,0,0.5
							c0,0.2,0,0.4,0,0.5c0,0.1,0,0.2-0.1,0.3c0,0.1-0.1,0.1-0.1,0.2c-0.1,0-0.1,0.1-0.2,0.1h-4.1v3.8H64c0.1,0,0.1,0,0.2,0.1
							c0.1,0,0.1,0.1,0.1,0.2c0,0.1,0.1,0.2,0.1,0.3C64.4,24.2,64.4,24.4,64.4,24.6z"/>
						<path class="st4" d="M78.3,25.3c0,0.1,0,0.1-0.1,0.2c0,0.1-0.1,0.1-0.2,0.1c-0.1,0-0.2,0.1-0.4,0.1c-0.2,0-0.4,0-0.7,0
							c-0.3,0-0.5,0-0.7,0c-0.2,0-0.3,0-0.4-0.1c-0.1,0-0.2-0.1-0.2-0.1c0-0.1-0.1-0.1-0.1-0.2v-7.1c0-0.3,0-0.5,0-0.8
							c0-0.3,0-0.5,0-0.7h0c-0.1,0.1-0.1,0.2-0.2,0.3c-0.1,0.1-0.2,0.3-0.2,0.4c-0.1,0.1-0.2,0.3-0.3,0.4c-0.1,0.2-0.2,0.3-0.3,0.4
							l-4.7,7c-0.1,0.1-0.1,0.1-0.2,0.2c-0.1,0.1-0.1,0.1-0.2,0.1c-0.1,0-0.2,0.1-0.3,0.1c-0.1,0-0.3,0-0.5,0c-0.3,0-0.5,0-0.7,0
							c-0.2,0-0.3,0-0.4-0.1c-0.1,0-0.2-0.1-0.2-0.1c0-0.1-0.1-0.1-0.1-0.2V12.5c0-0.1,0-0.1,0.1-0.2c0-0.1,0.1-0.1,0.2-0.1
							c0.1,0,0.2-0.1,0.4-0.1c0.2,0,0.4,0,0.7,0c0.3,0,0.5,0,0.7,0c0.2,0,0.3,0,0.4,0.1c0.1,0,0.2,0.1,0.2,0.1
							c0,0.1,0.1,0.1,0.1,0.2v7.2c0,0.2,0,0.5,0,0.7c0,0.3,0,0.5,0,0.7h0c0.1-0.2,0.3-0.5,0.5-0.8c0.2-0.3,0.4-0.6,0.6-0.9l4.7-7
							c0-0.1,0.1-0.1,0.2-0.2c0.1-0.1,0.1-0.1,0.2-0.1c0.1,0,0.2-0.1,0.4-0.1c0.1,0,0.3,0,0.5,0c0.3,0,0.5,0,0.6,0
							c0.2,0,0.3,0,0.4,0.1c0.1,0,0.2,0.1,0.2,0.1c0,0.1,0.1,0.1,0.1,0.2V25.3z"/>
						<path class="st4" d="M91.7,25.3c0,0.1,0,0.1-0.1,0.2c0,0.1-0.1,0.1-0.2,0.1c-0.1,0-0.2,0.1-0.4,0.1c-0.2,0-0.4,0-0.7,0
							c-0.3,0-0.5,0-0.7,0c-0.2,0-0.3,0-0.4-0.1c-0.1,0-0.2-0.1-0.2-0.1c0-0.1-0.1-0.1-0.1-0.2v-5.5h-5.1v5.5c0,0.1,0,0.1-0.1,0.2
							c0,0.1-0.1,0.1-0.2,0.1c-0.1,0-0.2,0.1-0.4,0.1c-0.2,0-0.4,0-0.7,0c-0.3,0-0.5,0-0.7,0s-0.3,0-0.4-0.1c-0.1,0-0.2-0.1-0.2-0.1
							c0-0.1-0.1-0.1-0.1-0.2V12.5c0-0.1,0-0.1,0.1-0.2c0-0.1,0.1-0.1,0.2-0.1c0.1,0,0.2-0.1,0.4-0.1s0.4,0,0.7,0c0.3,0,0.5,0,0.7,0
							c0.2,0,0.3,0,0.4,0.1c0.1,0,0.2,0.1,0.2,0.1c0,0.1,0.1,0.1,0.1,0.2v5H89v-5c0-0.1,0-0.1,0.1-0.2c0-0.1,0.1-0.1,0.2-0.1
							c0.1,0,0.2-0.1,0.4-0.1c0.2,0,0.4,0,0.7,0c0.3,0,0.5,0,0.7,0c0.2,0,0.3,0,0.4,0.1c0.1,0,0.2,0.1,0.2,0.1
							c0,0.1,0.1,0.1,0.1,0.2V25.3z"/>
						<path class="st4" d="M99.3,18.9c0,0.4,0,0.7-0.1,0.8C99.1,19.9,99,20,98.8,20h-4.4c-0.2,0-0.3-0.1-0.4-0.2
							C94,19.6,94,19.3,94,18.9c0-0.4,0-0.7,0.1-0.8c0.1-0.2,0.2-0.2,0.4-0.2h4.4c0.1,0,0.2,0,0.2,0.1c0.1,0,0.1,0.1,0.2,0.2
							c0,0.1,0.1,0.2,0.1,0.3C99.3,18.5,99.3,18.7,99.3,18.9z"/>
					</g>
					<g>
						<path class="st3" d="M17.1,36.2C17.1,36.3,17.1,36.3,17.1,36.2c0,0.1-0.1,0.1-0.1,0.1c0,0-0.1,0-0.2,0s-0.2,0-0.3,0
							c-0.1,0-0.2,0-0.3,0c-0.1,0-0.1,0-0.2,0c0,0-0.1,0-0.1-0.1c0,0,0-0.1-0.1-0.1l-0.5-1.3c-0.1-0.2-0.1-0.4-0.2-0.5
							c-0.1-0.1-0.2-0.2-0.2-0.3c-0.1-0.1-0.2-0.1-0.3-0.2c-0.1,0-0.2-0.1-0.4-0.1h-0.3v2.4c0,0,0,0.1,0,0.1c0,0-0.1,0-0.1,0.1
							c0,0-0.1,0-0.2,0s-0.2,0-0.3,0c-0.1,0-0.2,0-0.3,0s-0.1,0-0.2,0c0,0-0.1,0-0.1-0.1c0,0,0-0.1,0-0.1v-5.6c0,0,0-0.1,0-0.1
							c0,0,0.1,0,0.1-0.1c0,0,0.1,0,0.2,0s0.2,0,0.3,0c0.1,0,0.2,0,0.3,0s0.1,0,0.2,0c0,0,0.1,0,0.1,0.1s0,0.1,0,0.1v2.2h0.3
							c0.1,0,0.3,0,0.4-0.1c0.1,0,0.2-0.1,0.3-0.2c0.1-0.1,0.2-0.2,0.2-0.3c0.1-0.1,0.1-0.3,0.2-0.5l0.4-1.2c0,0,0-0.1,0.1-0.1
							c0,0,0.1-0.1,0.1-0.1s0.1,0,0.2,0s0.2,0,0.3,0c0.1,0,0.2,0,0.3,0c0.1,0,0.1,0,0.2,0c0,0,0.1,0,0.1,0.1c0,0,0,0.1,0,0.1
							c0,0,0,0.1,0,0.1c0,0.1,0,0.1-0.1,0.2L16.4,32c-0.1,0.2-0.1,0.4-0.2,0.5c-0.1,0.1-0.2,0.3-0.2,0.4c-0.1,0.1-0.2,0.2-0.3,0.2
							c-0.1,0.1-0.2,0.1-0.3,0.2v0c0.1,0.1,0.2,0.1,0.3,0.2c0.1,0.1,0.2,0.1,0.3,0.2c0.1,0.1,0.2,0.2,0.2,0.4
							c0.1,0.1,0.2,0.3,0.2,0.5l0.5,1.2c0,0.1,0.1,0.2,0.1,0.3C17.1,36.2,17.1,36.2,17.1,36.2z"/>
						<path class="st3" d="M23.8,33.4c0,0.5-0.1,0.9-0.2,1.3c-0.1,0.4-0.3,0.7-0.5,1c-0.2,0.3-0.5,0.5-0.9,0.6
							c-0.4,0.1-0.8,0.2-1.2,0.2c-0.5,0-0.9-0.1-1.2-0.2c-0.3-0.1-0.6-0.3-0.9-0.6c-0.2-0.2-0.4-0.6-0.5-0.9
							c-0.1-0.4-0.2-0.8-0.2-1.4c0-0.5,0.1-0.9,0.2-1.3s0.3-0.7,0.5-1c0.2-0.3,0.5-0.5,0.9-0.6c0.4-0.1,0.8-0.2,1.2-0.2
							c0.4,0,0.8,0.1,1.2,0.2c0.3,0.1,0.6,0.3,0.9,0.5c0.2,0.2,0.4,0.6,0.5,0.9S23.8,32.8,23.8,33.4z M22.6,33.4
							c0-0.3,0-0.6-0.1-0.9c0-0.3-0.1-0.5-0.2-0.7c-0.1-0.2-0.3-0.3-0.5-0.4s-0.4-0.1-0.7-0.1c-0.3,0-0.5,0.1-0.7,0.2
							c-0.2,0.1-0.4,0.3-0.5,0.4s-0.2,0.4-0.3,0.7c-0.1,0.2-0.1,0.5-0.1,0.8c0,0.3,0,0.6,0.1,0.9c0,0.3,0.1,0.5,0.2,0.7
							c0.1,0.2,0.3,0.3,0.5,0.4c0.2,0.1,0.4,0.1,0.7,0.1c0.3,0,0.5-0.1,0.7-0.2s0.4-0.3,0.5-0.4c0.1-0.2,0.2-0.4,0.3-0.7
							S22.6,33.7,22.6,33.4z"/>
						<path class="st3" d="M32.4,36.2C32.4,36.3,32.4,36.3,32.4,36.2c0,0.1-0.1,0.1-0.1,0.1c0,0-0.1,0-0.2,0s-0.2,0-0.3,0
							c-0.1,0-0.2,0-0.3,0s-0.1,0-0.2,0s-0.1,0-0.1-0.1c0,0,0-0.1,0-0.1v-4.8h0l-1.7,4.8c0,0,0,0.1-0.1,0.1c0,0-0.1,0-0.1,0.1
							c0,0-0.1,0-0.2,0c-0.1,0-0.2,0-0.3,0s-0.2,0-0.3,0c-0.1,0-0.1,0-0.2,0s-0.1,0-0.1-0.1c0,0,0-0.1-0.1-0.1l-1.7-4.8h0v4.8
							c0,0,0,0.1,0,0.1c0,0,0,0-0.1,0.1c0,0-0.1,0-0.2,0c-0.1,0-0.2,0-0.3,0c-0.1,0-0.2,0-0.3,0s-0.1,0-0.2,0c0,0-0.1,0-0.1-0.1
							c0,0,0-0.1,0-0.1v-5.3c0-0.2,0-0.3,0.1-0.4c0.1-0.1,0.2-0.1,0.3-0.1h0.8c0.1,0,0.3,0,0.4,0c0.1,0,0.2,0.1,0.3,0.1
							c0.1,0.1,0.1,0.1,0.2,0.2c0,0.1,0.1,0.2,0.1,0.3l1.3,3.5h0l1.3-3.5c0-0.1,0.1-0.2,0.1-0.3s0.1-0.2,0.2-0.2
							c0.1-0.1,0.1-0.1,0.2-0.1c0.1,0,0.2,0,0.3,0h0.8c0.1,0,0.2,0,0.2,0c0.1,0,0.1,0.1,0.1,0.1c0,0,0.1,0.1,0.1,0.2
							c0,0.1,0,0.1,0,0.2V36.2z"/>
						<path class="st3" d="M38.9,36.2C38.9,36.3,38.9,36.3,38.9,36.2c0,0.1-0.1,0.1-0.1,0.1c0,0-0.1,0-0.2,0c-0.1,0-0.2,0-0.3,0
							s-0.2,0-0.3,0c-0.1,0-0.1,0-0.2,0c0,0-0.1,0-0.1-0.1c0,0,0,0,0-0.1v-4.8h-2.2v4.8c0,0,0,0.1,0,0.1c0,0-0.1,0-0.1,0.1
							c0,0-0.1,0-0.2,0s-0.2,0-0.3,0c-0.1,0-0.2,0-0.3,0s-0.1,0-0.2,0c0,0-0.1,0-0.1-0.1c0,0,0,0,0-0.1v-5.4c0-0.1,0-0.2,0.1-0.3
							c0.1-0.1,0.1-0.1,0.3-0.1h3.9c0.1,0,0.2,0,0.3,0.1c0.1,0.1,0.1,0.2,0.1,0.3V36.2z"/>
						<path class="st3" d="M45.5,36.2C45.5,36.3,45.5,36.3,45.5,36.2c0,0.1-0.1,0.1-0.1,0.1c0,0-0.1,0-0.2,0c-0.1,0-0.2,0-0.3,0
							c-0.1,0-0.2,0-0.3,0s-0.1,0-0.2,0c0,0-0.1,0-0.1-0.1c0,0,0,0,0-0.1v-4.8h-1.3c-0.1,0.7-0.2,1.3-0.3,1.8
							c-0.1,0.5-0.2,1-0.3,1.3c-0.1,0.4-0.2,0.7-0.3,0.9s-0.3,0.4-0.4,0.6c-0.2,0.1-0.3,0.2-0.5,0.3c-0.2,0.1-0.4,0.1-0.7,0.1
							c0,0-0.1,0-0.1,0c0,0-0.1,0-0.1-0.1c0,0,0-0.1,0-0.1c0-0.1,0-0.1,0-0.2c0-0.1,0-0.2,0-0.3c0-0.1,0-0.1,0-0.2
							c0,0,0-0.1,0.1-0.1c0,0,0.1,0,0.1,0c0.1,0,0.2,0,0.3-0.1c0.1,0,0.2-0.1,0.3-0.2c0.1-0.1,0.2-0.3,0.2-0.5
							c0.1-0.2,0.1-0.5,0.2-0.8s0.1-0.7,0.2-1.2c0.1-0.5,0.1-1.1,0.2-1.7c0-0.2,0.1-0.3,0.1-0.3c0.1-0.1,0.1-0.1,0.2-0.1h2.9
							c0.1,0,0.2,0,0.3,0.1c0.1,0.1,0.1,0.2,0.1,0.3V36.2z"/>
						<path class="st3" d="M51,35.9c0,0.1,0,0.2,0,0.2c0,0.1,0,0.1,0,0.1s0,0.1-0.1,0.1c0,0,0,0-0.1,0h-3c-0.1,0-0.2,0-0.3-0.1
							c-0.1-0.1-0.1-0.2-0.1-0.3v-5.2c0-0.1,0-0.2,0.1-0.3c0.1-0.1,0.2-0.1,0.3-0.1h3c0,0,0.1,0,0.1,0c0,0,0,0,0.1,0.1
							c0,0,0,0.1,0,0.1s0,0.1,0,0.2c0,0.1,0,0.2,0,0.2c0,0.1,0,0.1,0,0.1c0,0,0,0.1-0.1,0.1c0,0,0,0-0.1,0h-2.1v1.4h1.8
							c0,0,0.1,0,0.1,0c0,0,0,0,0.1,0.1c0,0,0,0.1,0,0.1c0,0.1,0,0.1,0,0.2c0,0.1,0,0.2,0,0.2c0,0.1,0,0.1,0,0.1c0,0,0,0.1-0.1,0.1
							c0,0,0,0-0.1,0h-1.8v1.7h2.1c0,0,0.1,0,0.1,0c0,0,0,0,0.1,0.1s0,0.1,0,0.1S51,35.8,51,35.9z"/>
						<path class="st3" d="M57,36.2C57,36.3,57,36.3,57,36.2c0,0.1-0.1,0.1-0.1,0.1c0,0-0.1,0-0.2,0c-0.1,0-0.2,0-0.3,0
							c-0.1,0-0.2,0-0.3,0c-0.1,0-0.1,0-0.2,0s-0.1,0-0.1-0.1c0,0,0-0.1-0.1-0.1l-0.5-1.3c-0.1-0.2-0.1-0.4-0.2-0.5
							c-0.1-0.1-0.2-0.2-0.2-0.3c-0.1-0.1-0.2-0.1-0.3-0.2c-0.1,0-0.2-0.1-0.4-0.1h-0.3v2.4c0,0,0,0.1,0,0.1c0,0-0.1,0-0.1,0.1
							c0,0-0.1,0-0.2,0s-0.2,0-0.3,0c-0.1,0-0.2,0-0.3,0c-0.1,0-0.1,0-0.2,0s-0.1,0-0.1-0.1c0,0,0-0.1,0-0.1v-5.6c0,0,0-0.1,0-0.1
							s0.1,0,0.1-0.1c0,0,0.1,0,0.2,0c0.1,0,0.2,0,0.3,0c0.1,0,0.2,0,0.3,0s0.1,0,0.2,0c0,0,0.1,0,0.1,0.1s0,0.1,0,0.1v2.2h0.3
							c0.1,0,0.3,0,0.4-0.1s0.2-0.1,0.3-0.2c0.1-0.1,0.2-0.2,0.2-0.3c0.1-0.1,0.1-0.3,0.2-0.5l0.4-1.2c0,0,0-0.1,0.1-0.1
							c0,0,0.1-0.1,0.1-0.1s0.1,0,0.2,0c0.1,0,0.2,0,0.3,0c0.1,0,0.2,0,0.3,0c0.1,0,0.1,0,0.2,0c0,0,0.1,0,0.1,0.1c0,0,0,0.1,0,0.1
							c0,0,0,0.1,0,0.1c0,0.1,0,0.1-0.1,0.2L56.3,32c-0.1,0.2-0.1,0.4-0.2,0.5c-0.1,0.1-0.2,0.3-0.2,0.4c-0.1,0.1-0.2,0.2-0.3,0.2
							c-0.1,0.1-0.2,0.1-0.3,0.2v0c0.1,0.1,0.2,0.1,0.3,0.2s0.2,0.1,0.3,0.2c0.1,0.1,0.2,0.2,0.2,0.4c0.1,0.1,0.2,0.3,0.2,0.5
							l0.5,1.2c0,0.1,0.1,0.2,0.1,0.3S57,36.2,57,36.2z"/>
						<path class="st3" d="M62.5,35.5c0,0.1,0,0.1,0,0.2c0,0.1,0,0.1,0,0.1s0,0.1,0,0.1c0,0,0,0.1-0.1,0.1c0,0-0.1,0.1-0.2,0.1
							s-0.2,0.1-0.4,0.2c-0.1,0.1-0.3,0.1-0.5,0.1c-0.2,0-0.4,0.1-0.6,0.1c-0.4,0-0.8-0.1-1.1-0.2c-0.3-0.1-0.6-0.3-0.8-0.6
							c-0.2-0.2-0.4-0.6-0.5-0.9c-0.1-0.4-0.2-0.8-0.2-1.3c0-0.5,0.1-1,0.2-1.3c0.1-0.4,0.3-0.7,0.6-1s0.5-0.5,0.9-0.6
							s0.7-0.2,1.1-0.2c0.2,0,0.3,0,0.5,0c0.2,0,0.3,0.1,0.4,0.1c0.1,0,0.2,0.1,0.4,0.2c0.1,0.1,0.2,0.1,0.2,0.1
							c0,0,0.1,0.1,0.1,0.1c0,0,0,0.1,0,0.1s0,0.1,0,0.2c0,0.1,0,0.1,0,0.2c0,0.1,0,0.2,0,0.2c0,0.1,0,0.1,0,0.2c0,0,0,0.1-0.1,0.1
							c0,0,0,0-0.1,0c0,0-0.1,0-0.2-0.1c-0.1-0.1-0.2-0.1-0.3-0.2s-0.2-0.1-0.4-0.2c-0.2-0.1-0.3-0.1-0.6-0.1c-0.2,0-0.4,0-0.6,0.1
							c-0.2,0.1-0.3,0.2-0.5,0.4s-0.2,0.4-0.3,0.6c-0.1,0.3-0.1,0.5-0.1,0.9c0,0.3,0,0.7,0.1,0.9s0.2,0.5,0.3,0.6
							c0.1,0.2,0.3,0.3,0.5,0.4c0.2,0.1,0.4,0.1,0.6,0.1c0.2,0,0.4,0,0.6-0.1c0.2-0.1,0.3-0.1,0.4-0.2c0.1-0.1,0.2-0.1,0.3-0.2
							c0.1,0,0.1-0.1,0.2-0.1c0,0,0.1,0,0.1,0c0,0,0,0,0,0.1s0,0.1,0,0.2S62.5,35.4,62.5,35.5z"/>
						<path class="st3" d="M67.6,31.7c0,0.3,0,0.5-0.1,0.7c-0.1,0.2-0.2,0.4-0.4,0.6c-0.2,0.2-0.4,0.3-0.6,0.4
							c-0.2,0.1-0.5,0.1-0.7,0.1c-0.3,0-0.5,0-0.7-0.1c-0.2-0.1-0.4-0.2-0.6-0.4c-0.2-0.2-0.3-0.3-0.4-0.6S64,32,64,31.7
							c0-0.3,0-0.5,0.1-0.7c0.1-0.2,0.2-0.4,0.4-0.6c0.2-0.2,0.4-0.3,0.6-0.4c0.2-0.1,0.5-0.1,0.7-0.1c0.3,0,0.5,0,0.7,0.1
							c0.2,0.1,0.4,0.2,0.6,0.4c0.2,0.2,0.3,0.3,0.4,0.6S67.6,31.5,67.6,31.7z M67.1,31.7c0-0.2,0-0.4-0.1-0.6s-0.2-0.3-0.3-0.5
							c-0.1-0.1-0.3-0.2-0.4-0.3c-0.2-0.1-0.3-0.1-0.5-0.1c-0.2,0-0.4,0-0.6,0.1c-0.2,0.1-0.3,0.2-0.4,0.3c-0.1,0.1-0.2,0.3-0.3,0.4
							c-0.1,0.2-0.1,0.4-0.1,0.5c0,0.2,0,0.4,0.1,0.6s0.2,0.3,0.3,0.5c0.1,0.1,0.3,0.2,0.4,0.3s0.3,0.1,0.5,0.1c0.2,0,0.4,0,0.6-0.1
							s0.3-0.2,0.4-0.3c0.1-0.1,0.2-0.3,0.3-0.4C67.1,32.1,67.1,31.9,67.1,31.7z M66.6,32.6C66.6,32.6,66.6,32.6,66.6,32.6
							C66.6,32.6,66.6,32.6,66.6,32.6c-0.1,0.1-0.1,0.1-0.1,0.1c0,0-0.1,0-0.1,0c-0.1,0-0.1,0-0.1,0c0,0-0.1,0-0.1,0c0,0,0,0,0,0
							c0,0,0,0,0-0.1L66,32.2c0-0.1-0.1-0.2-0.1-0.2c-0.1,0-0.1-0.1-0.2-0.1h-0.1v0.6c0,0,0,0.1,0,0.1c0,0-0.1,0-0.2,0s-0.2,0-0.2,0
							c0,0,0,0,0-0.1v-1.6c0-0.1,0-0.1,0.1-0.2s0.1-0.1,0.2-0.1h0.5c0.1,0,0.2,0,0.3,0c0.1,0,0.2,0.1,0.2,0.1c0.1,0,0.1,0.1,0.1,0.2
							c0,0.1,0.1,0.2,0.1,0.2c0,0.1,0,0.3-0.1,0.3c-0.1,0.1-0.2,0.1-0.3,0.2c0.1,0,0.1,0.1,0.2,0.1c0.1,0.1,0.1,0.1,0.2,0.3l0.1,0.3
							C66.6,32.5,66.6,32.6,66.6,32.6z M66,31.3C66,31.3,66,31.2,66,31.3c0-0.1,0-0.2-0.1-0.2c0,0-0.1,0-0.1-0.1c0,0-0.1,0-0.2,0
							h-0.2v0.5h0.2c0.1,0,0.2,0,0.3-0.1C66,31.5,66,31.4,66,31.3z"/>
					</g>
				</g>
			</g>
		</g>
	</g>
	<g>
		<g>
			<path class="st11" d="M211.6,31.8V18.1c0-0.8,0.2-1.2,0.9-1.4c1.4-0.4,3.1-0.5,4.8-0.5c4.2,0,6,1.7,6,4.7c0,1.5-0.6,2.6-2,3.5
				c2,0.7,2.7,2.2,2.7,4c0,3.4-1.7,5.1-6.2,5.1c-2,0-3.9-0.1-5.3-0.5C211.8,33,211.6,32.6,211.6,31.8z M215.3,19.4v3.9h2.3
				c1.6,0,2.1-0.6,2.1-2c0-1.5-0.6-2.1-2.7-2.1C216.4,19.2,215.8,19.2,215.3,19.4z M220.3,28.4c0-1.5-0.6-2.3-2.1-2.3h-2.8v4.3
				c0.7,0.1,1.4,0.2,2.3,0.2C219.6,30.7,220.3,30.1,220.3,28.4z"/>
		</g>
		<g>
			<path class="st11" d="M230.6,32.9c-0.1,0.3-0.3,0.4-0.8,0.4h-3.3c-0.2,0-0.3-0.1-0.3-0.3V21c0-0.2,0.1-0.3,0.3-0.3h2.6
				c0.2,0,0.3,0.1,0.3,0.3v8.2l4-8.1c0.1-0.3,0.3-0.4,0.8-0.4h3.3c0.2,0,0.3,0.1,0.3,0.3v12c0,0.2-0.1,0.3-0.3,0.3h-2.6
				c-0.2,0-0.3-0.1-0.3-0.3v-8.2L230.6,32.9z"/>
			<path class="st11" d="M240.8,27.9c-0.3,0-0.4-0.1-0.4-0.3V26c0-0.2,0.1-0.3,0.4-0.3h2.3c1.7,0,2.7-0.4,2.7-1.5
				c0-1.1-0.9-1.5-2.6-1.5c-1,0-1.8,0.1-2.8,0.2c-0.3,0-0.4-0.1-0.4-0.3v-1.3c0-0.2,0.1-0.3,0.3-0.3c1.1-0.3,2.4-0.4,3.7-0.4
				c3.1,0,5.1,1.4,5.1,3.6c0,1-0.5,2-1.7,2.7c1.4,0.7,1.9,1.7,1.9,2.9c0,2.3-2.1,3.8-5.5,3.8c-1.3,0-2.7-0.1-3.7-0.4
				c-0.2-0.1-0.3-0.2-0.3-0.3v-1.3c0-0.2,0.1-0.3,0.4-0.3c1,0.1,1.8,0.2,2.9,0.2c1.8,0,3-0.4,3-1.7c0-1.3-1-1.7-2.7-1.7H240.8z"/>
			<path class="st11" d="M249.6,31.5c0-0.2,0.1-0.3,0.3-0.3c0.5,0.1,1.1,0.1,1.6,0.1c1.1,0,1.4-0.5,1.4-1.3v-9
				c0-0.2,0.1-0.3,0.3-0.3h9.3c0.3,0,0.4,0.1,0.4,0.3v12c0,0.2-0.1,0.3-0.4,0.3H260c-0.3,0-0.4-0.1-0.4-0.3V22.9h-3.5v6.2
				c0,2.3-0.1,4.4-3.7,4.4c-0.6,0-1.6-0.1-2.2-0.2c-0.3-0.1-0.6-0.2-0.6-0.5V31.5z"/>
			<path class="st11" d="M269.9,22.7c-0.9,0-1.1,0.3-1.1,1v2h5.2c0.2,0,0.4,0.1,0.4,0.3v1.6c0,0.2-0.1,0.3-0.4,0.3h-5.2v2.3
				c0,0.7,0.2,1,1.1,1h4.7c0.2,0,0.3,0.1,0.3,0.3V33c0,0.2-0.1,0.3-0.4,0.4c-1.6,0.1-3.4,0.2-5.5,0.2c-2.6,0-3.5-0.7-3.5-2.7v-7.7
				c0-2,0.9-2.7,3.5-2.7c2.1,0,3.7,0.1,5.3,0.2c0.3,0,0.4,0.1,0.4,0.4v1.3c0,0.2-0.1,0.3-0.3,0.3H269.9z"/>
			<path class="st11" d="M276.6,33.3c-0.2,0-0.3-0.1-0.2-0.3l2.8-4.7c-1.5-0.6-2.1-1.8-2.1-3.4v-0.5c0-2.5,1.4-3.9,5.2-3.9
				c1.5,0,3.1,0.1,4.3,0.4c0.6,0.1,0.8,0.4,0.8,1V33c0,0.2-0.1,0.3-0.4,0.3h-2.5c-0.3,0-0.4-0.1-0.4-0.3v-4.3
				c-0.6,0-1.3,0.1-1.9,0.1h-0.2l-2.3,4.1c-0.1,0.3-0.4,0.4-0.8,0.4H276.6z M284.1,26.5v-3.7c-0.5-0.1-1.1-0.2-1.6-0.2
				c-1.8,0-2.4,0.5-2.4,1.7v0.4c0,1.2,0.5,1.7,2.4,1.7C283,26.6,283.6,26.6,284.1,26.5z"/>
		</g>
	</g>
</g>
</svg>
