<svg version="1.1" id="Layer_1" xmlns="http://www.w3.org/2000/svg" x="0" y="0" viewBox="0 0 300 73" style="enable-background:new 0 0 300 73" xml:space="preserve"><style>.st1{fill:#231f20}.st2{fill:#8c734b}.st3{fill:#0072bc}.st4{fill:#ec1c24}.st11{fill:#7f2629}</style><linearGradient id="SVGID_1_" gradientUnits="userSpaceOnUse" x1="150" y1="73" x2="150" y2="0"><stop offset="0" style="stop-color:#fff"/><stop offset="1" style="stop-color:#c6dfee"/></linearGradient><path style="fill:url(#SVGID_1_)" d="M0 0h300v73H0z"/><path class="st1" d="M124.7 32c1.7 0 6 .7 6 6.6s-4.4 6.6-6 6.6c-1.7 0-6-.7-6-6.6s4.4-6.6 6-6.6zm0 11c1.4 0 3.4-.9 3.4-4.4s-2-4.4-3.4-4.4-3.4.9-3.4 4.4 2 4.4 3.4 4.4zM135.1 39.1l3.1-3.5h3l-3.3 3.6 3.4 5.7h-2.9l-2.2-4-1 1.1v3h-2.4v-9.3h2.4v3.4zM144.4 35.6l2 6.9 1.9-6.9h2.6l-3.2 9.2c-1.1 3-1.5 3.9-3.6 3.9H143v-2h.5c.9 0 1.4-.1 1.6-1.4l-3.4-9.7h2.7zM152.4 35.6h4.2c2.1 0 3.6.9 3.6 2.4 0 1.1-.8 1.8-1.7 2 1 .2 2 .8 2 2.4 0 1.7-1.3 2.6-3.4 2.6h-4.7v-9.4zm2.4 3.8h1.6c.8 0 1.4-.3 1.4-1.1s-.6-1-1.4-1h-1.6v2.1zm0 3.8h1.8c.9 0 1.5-.3 1.5-1.2 0-.8-.6-1.2-1.5-1.2h-1.8v2.4zM162.1 38.6c.3-2.9 2.3-3.3 4.2-3.3 1.3 0 3.7.4 3.7 2.7v5.1c0 1.1.2 1.3.5 1.4v.4h-2.6c-.1-.5-.2-.6-.2-1.1-.6.6-1.4 1.4-3 1.4-1.4 0-2.8-.8-2.8-2.7 0-2.2 2-3 4.4-3.2 1-.1 1.4-.4 1.4-.8 0-1-1-1.1-1.6-1.1-1.2 0-1.4.8-1.5 1.3h-2.5zm3.8 2.3c-.9.2-1.7.4-1.7 1.4 0 .9.7 1.1 1.1 1.1 1.1 0 2.2-.7 2.2-1.8v-1.2c-.2.2-.6.3-1.6.5zM174.6 41.5l3.5-5.9h2.6v9.3h-2.4V39l-3.5 5.9h-2.6v-9.3h2.4v5.9zm5.2-9.7c-.1.8-.5 2.6-3.1 2.6-2.3 0-2.7-1.9-2.8-2.6h1.2c.1.5.3 1.2 1.7 1.2.8 0 1.7-.1 1.9-1.2h1.1zM185 44.9v-7.4h-2.8v-2h8v2h-2.8v7.4H185z"/><path class="st2" d="M127 50.1c2.2 0 5.5 1.1 5.5 4.8 0 3.7-3.4 4.8-5.5 4.8V61h-2.5v-1.3c-2.2 0-5.5-1.1-5.5-4.8 0-3.7 3.4-4.8 5.5-4.8v-1.2h2.5v1.2zm-2.5 7.5v-5.5c-1.3 0-3 .5-3 2.8s1.7 2.7 3 2.7zm2.5-5.5v5.5c1.3 0 3-.5 3-2.7 0-2.3-1.7-2.8-3-2.8zM143.3 56.5c0 3.2-2.2 4.7-4.6 4.7-2.4 0-4.6-1.5-4.6-4.7s2.2-4.7 4.6-4.7c2.4 0 4.6 1.4 4.6 4.7zm-6.7 0c0 1.1.3 2.7 2.2 2.7s2.2-1.6 2.2-2.7c0-1.2-.3-2.7-2.2-2.7s-2.2 1.5-2.2 2.7zM147.5 53.3c.5-.7 1.1-1.5 2.7-1.5 2 0 3.7 1.6 3.7 4.7 0 2.5-1.1 4.8-3.8 4.8-1.6 0-2.2-.9-2.5-1.4v4.8h-2.4V52h2.3v1.3zm0 3.3c0 1.1.4 2.7 2 2.7 1.5 0 2.1-1.2 2.1-2.6 0-1.4-.4-2.9-2-2.9s-2.1 1.3-2.1 2.8zM157.5 61v-7.1h-2.7V52h7.7v1.9h-2.7V61h-2.3zM171.8 58.3c-.6 2.2-2.4 2.9-3.9 2.9-2.5 0-4.5-1.2-4.5-4.9 0-1.1.4-4.5 4.3-4.5 2.5 0 4.2 1.4 4.2 4.5v.9h-6.1c0 .7.1 2.2 2.1 2.2.7 0 1.3-.3 1.5-1h2.4zm-2.4-2.7c-.1-1.4-1.1-1.9-1.8-1.9-1.1 0-1.7.7-1.8 1.9h3.6z"/><path class="st1" d="M194.3 36.6c-1.3 0-2.5-.9-2.5-2.4s1.2-2.4 2.5-2.4 2.4.9 2.4 2.4-1.1 2.4-2.4 2.4m0-4.4c-1 0-1.8.7-1.8 1.9 0 1.1.8 1.9 1.8 1.9.9 0 1.7-.8 1.7-1.9 0-1.1-.8-1.9-1.7-1.9m-.4 3.2h-.6v-2.6h1c.7 0 1.1.2 1.1.8 0 .5-.3.7-.6.7l.7 1.2h-.7l-.6-1.1h-.3v1zm0-1.5h.5c.3 0 .4 0 .4-.3s-.3-.3-.5-.3h-.4v.6z"/><path class="st3" d="M14.9 62c0 .1 0 .3-.1.4s-.1.3-.2.4c-.1.1-.2.2-.4.3-.2.1-.4.1-.6.1h-.9s-.1-.1-.1-.2v-3.4c0-.1 0-.1.1-.2H14.6v.4h-1.5V61h.6c.2 0 .4 0 .5.1.1 0 .3.1.4.2.1.1.2.2.2.3 0 .1.1.2.1.4zm-.5 0v-.3c0-.1-.1-.2-.1-.2-.1-.1-.1-.1-.2-.1h-1v1.4H14c.1 0 .2-.1.2-.1.1-.1.1-.1.1-.2.1-.3.1-.4.1-.5zM18 62.9v.2h-.4l-.3-.9h-1.4l-.3.8h-.4v-.2l1.2-3.5v-.1h.6v.1l1 3.6zm-1.4-3.1-.6 1.9h1.2l-.6-1.9zM21 63c0 .1 0 .1 0 0 0 .1 0 .1 0 0l-.1.1H20.6v-3.3h-1c0 .5-.1.9-.1 1.2 0 .3-.1.6-.2.9-.1.3-.1.5-.2.6-.1.2-.1.3-.2.4-.1.1-.2.2-.3.2-.1 0-.2.1-.4.1v-.4h.2c.1 0 .1-.1.2-.2s.1-.2.2-.3c0-.1.1-.3.1-.6 0-.2.1-.5.1-.9 0-.3.1-.7.1-1.2 0-.1 0-.1.1-.2l.1-.1h1.5s.1 0 .1.1V63zM24.5 62.9v.2h-.4l-.3-.9h-1.4l-.4.8h-.4v-.2l1.2-3.5v-.1h.6v.1l1.1 3.6zM23 59.8l-.6 1.9h1.2l-.6-1.9zM27.5 63c0 .1 0 .1 0 0 0 .1 0 .1 0 0l-.1.1H27.1v-3.3h-1c0 .5-.1.9-.1 1.2 0 .3-.1.6-.2.9-.1.3-.1.5-.2.6-.1.2-.1.3-.2.4-.1.1-.2.2-.3.2-.1 0-.2.1-.4.1v-.4h.2c.1 0 .1-.1.2-.2s.1-.2.2-.3c0-.1.1-.3.1-.6 0-.2.1-.5.1-.9s.1-.7.1-1.2c0-.1 0-.1.1-.2l.1-.1h1.5s.1 0 .1.1V63zM31 62.9v.2h-.4l-.3-.9h-1.4l-.4.8h-.4v-.2l1.2-3.5v-.1h.6v.1l1.1 3.6zm-1.5-3.1-.6 1.9h1.2l-.6-1.9zM33.6 60.4c0 .2 0 .4-.1.5-.1.2-.1.3-.2.4-.1.1-.2.2-.4.3-.2.1-.3.1-.5.1H32V63h-.4v-3.5c0-.1 0-.1.1-.2l.1-.1H32.9c.1 0 .2.1.3.1.1.1.2.1.2.2.1.1.1.2.2.3v.6zm-.4.1c0-.2 0-.3-.1-.4-.1-.1-.1-.2-.2-.3-.1-.1-.2-.1-.2-.1H32v1.5h.4c.1 0 .3 0 .3-.1.1 0 .2-.1.2-.2.1-.1.1-.2.1-.3.1.1.2 0 .2-.1zM35.6 61.1v.2h-.7V63h-.4v-1.7h-.4v-.4s0-.1.1-.1h.3v-1.4c0-.1 0-.1.1-.2l.1-.1h1.5v.4H35v1.2h.6c-.1.3-.1.3 0 .4zM38.8 62.9v.2h-.4l-.3-.9h-1.4l-.4.8h-.4v-.2l1.2-3.5v-.1h.6v.1l1.1 3.6zm-1.5-3.1-.6 1.9h1.2l-.6-1.9zM43.2 62.9v.2h-.4l-.3-.9H41l-.3.8h-.4v-.2l1.2-3.5v-.1h.6v.1l1.1 3.6zm-1.5-3.1-.6 1.9h1.2l-.6-1.9zM45.9 60.4c0 .2 0 .4-.1.5-.1.2-.1.3-.2.4-.1.1-.2.2-.4.3-.2.1-.3.1-.5.1h-.4V63h-.4v-3.5c0-.1 0-.1.1-.2l.1-.1H45.2c.1 0 .2.1.3.1.1.1.2.1.2.2.1.1.1.2.2.3-.1.3 0 .5 0 .6zm-.5.1c0-.2 0-.3-.1-.4-.1-.1-.1-.2-.2-.2s-.2-.1-.2-.1H44.3v1.5h.4c.1 0 .3 0 .3-.1.1 0 .2-.1.2-.2.1-.1.1-.2.1-.3.1 0 .1-.1.1-.2zM49 63c0 .1 0 .1 0 0 0 .1 0 .1 0 0l-.1.1H48.6v-1.7H47V63h-.4v-3.7h.4v1.5h1.6v-1.5h.4V63zM52.5 62.9v.2h-.4l-.3-.9h-1.4l-.4.8h-.4v-.2l1.2-3.5v-.1h.6v.1l1.1 3.6zM51 59.8l-.6 1.9h1.2l-.6-1.9zM55.5 63c0 .1 0 .1 0 0 0 .1 0 .1 0 0l-.1.1H55.1v-3.3h-1c0 .5-.1.9-.1 1.2 0 .3-.1.6-.2.9-.1.3-.1.5-.2.6-.1.2-.1.3-.2.4-.1.1-.2.2-.3.2-.1 0-.2.1-.4.1v-.4h.2c.1 0 .1-.1.2-.2s.1-.2.2-.3c0-.1.1-.3.1-.6 0-.2.1-.5.1-.9s.1-.7.1-1.2c0-.1 0-.1.1-.2l.1-.1h1.5s.1 0 .1.1V63zM57.6 61.1v.2h-.7V63h-.4v-1.7h-.4v-.4s0-.1.1-.1h.3v-1.4c0-.1 0-.1.1-.2l.1-.1h1.5v.4H57v1.2h.6v.4zM60.9 62.9v.2h-.4l-.3-.9h-1.4l-.4.8H58v-.2l1.2-3.5v-.1h.6v.1l1.1 3.6zm-1.5-3.1-.6 1.9H60l-.6-1.9zM63.9 63c0 .1 0 .1 0 0 0 .1 0 .1 0 0l-.1.1H63.5v-1.7h-1.6V63h-.4v-3.7h.4v1.5h1.6v-1.5h.4V63z"/><path class="st4" d="M74.6 56.9c-.3 0-.6-.2-.6-.6l-.1-.6-2.4.3.1.6c0 .4-.2.6-.5.7-.3 0-.6-.2-.6-.6l-.1-.9c0-.4.2-.6.5-.7h.1c.1-.8.1-1.6 0-2.6 0-.4.2-.6.5-.7l2-.2c.3 0 .6.2.6.6l.3 2.5h.1c.3 0 .6.2.6.6l.1.9c-.1.4-.3.7-.6.7zM73 52.6l-1 .1c.1.9.1 1.7 0 2.4l1.2-.1-.2-2.4z"/><path d="M76.7 54.9c0 .6.5.9 1 .9.6 0 1-.4 1.3-.3.2 0 .4.3.4.5 0 .5-1.1.9-1.9.8-1.3-.1-2-1.1-1.9-2.3.1-1.1 1-2.1 2.2-2 1.2.1 1.9 1.3 1.9 2.2 0 .3-.2.5-.5.5l-2.5-.3zm1.8-.6c0-.5-.3-.9-.8-.9s-.9.3-1 .8l1.8.1z" style="fill:#00adee"/><path d="M80.5 52.4h-.8c-.3 0-.5-.2-.5-.5s.2-.5.5-.5h2.7c.3 0 .5.1.5.5s-.3.5-.5.5h-.8V55c0 .4-.2.6-.6.6-.3 0-.6-.3-.6-.6v-2.6z" style="fill:#00a14b"/><path d="M85.4 53.5c-.3.1-.6-.1-.9 0-.6.1-.8.8-.7 1.3.1.5.6 1 1.2.9.3-.1.6-.4.8-.4.3-.1.5.1.6.4.1.6-.8 1-1.2 1.1-1.2.3-2.2-.5-2.5-1.7-.3-1.1.3-2.3 1.5-2.6.4-.1 1.4-.1 1.5.4 0 .2-.1.6-.3.6z" style="fill:#ec297b"/><path d="M86.4 52c0-.4.2-.6.6-.6s.6.3.6.6v1l1.2-1.4c.1-.2.4-.2.5-.2.3 0 .5.3.5.5s-.1.3-.2.4l-1.1 1.1 1.4 1.3c.1.1.1.3.1.4 0 .3-.2.5-.5.5-.2 0-.4-.2-.5-.3l-1.4-1.5V55c0 .4-.2.6-.6.6s-.6-.3-.6-.6v-3z" style="fill:#0071bb"/><path d="M93.9 56.4c-.3 0-.6-.2-.6-.6l-.1-1.7-1.4 2.2c-.1.2-.2.3-.4.3-.3 0-.6-.2-.6-.6l-.3-3c0-.4.2-.6.5-.7.3 0 .6.2.6.6l.1 1.6 1.3-2c.1-.2.3-.4.5-.4.3 0 .6.2.6.6l.3 3c.1.4-.1.7-.5.7z" style="fill:#f6921e"/><path d="M98.3 56.6c-.3 0-.5-.3-.5-.7l.2-1.6-1.8 1.7c-.1.1-.3.2-.5.2-.3 0-.5-.3-.5-.7l.4-3c.1-.4.3-.6.7-.5.3 0 .5.3.5.7l-.2 1.6 1.7-1.7c.2-.2.4-.3.6-.3.3 0 .5.3.5.7l-.4 3c-.1.5-.4.7-.7.6zm-1.3-6c.5.1.3.6.8.7.4.1.4-.5.9-.4.2 0 .3.3.3.5-.1.6-.9.7-1.3.6-.5-.1-1.2-.4-1.1-1 .1-.2.2-.4.4-.4z" style="fill:#37b34a"/><path class="st4" d="M24.5 45.6c0 .1 0 .1-.1.2 0 .1-.1.1-.2.1-.1.1-.2.1-.4.1h-1.4c-.2 0-.3 0-.4-.1-.1 0-.2-.1-.2-.1 0-.1-.1-.1-.1-.2V34.7h-2.9c-.2 1.6-.4 3-.6 4.2-.2 1.2-.4 2.2-.6 3.1-.2.9-.5 1.6-.8 2.1-.3.5-.6 1-.9 1.3-.4.3-.8.5-1.2.7-.4.1-.9.2-1.5.2h-.3c-.1 0-.1-.1-.2-.2 0-.1-.1-.2-.1-.3v-1.2c0-.2 0-.3.1-.4 0-.1.1-.2.1-.2.1 0 .1-.1.2-.1.2 0 .4 0 .6-.1.2-.1.4-.3.6-.5.2-.3.4-.6.5-1.1.2-.5.3-1.1.5-1.8.2-.8.3-1.7.5-2.8.2-1.1.3-2.4.5-3.9 0-.4.1-.6.3-.7.1-.1.3-.2.6-.2h6.7c.3 0 .4.1.6.2.1.1.2.4.2.7v11.9zM44.7 39.1c0 1.1-.1 2.1-.4 3-.3.9-.7 1.6-1.2 2.2-.5.6-1.2 1.1-2 1.4-.8.3-1.7.5-2.8.5-1 0-1.8-.1-2.5-.4s-1.4-.6-1.9-1.2c-.5-.5-.9-1.2-1.2-1.9-.3-.8-.4-1.6-.5-2.7h-2.1v5.5c0 .1 0 .1-.1.2 0 .1-.1.1-.2.1s-.2.1-.4.1H28c-.2 0-.3 0-.4-.1-.1 0-.2-.1-.2-.1 0-.1-.1-.1-.1-.2V32.8c0-.1 0-.1.1-.2 0-.1.1-.1.2-.1s.2-.1.4-.1h1.4c.2 0 .3 0 .4.1.1 0 .2.1.2.1 0 .1.1.1.1.2v5.1h2.1c.1-.9.3-1.7.6-2.4s.7-1.3 1.2-1.8 1.1-.9 1.9-1.1c.7-.3 1.6-.4 2.5-.4 1 0 1.9.1 2.6.4.8.3 1.4.7 1.9 1.3.5.6.9 1.3 1.2 2.2.4.8.6 1.8.6 3zm-2.9.1c0-.7-.1-1.4-.2-1.9-.1-.6-.3-1.1-.6-1.5-.3-.4-.6-.8-1-1-.4-.2-1-.4-1.6-.4-.7 0-1.2.1-1.7.4-.4.3-.8.6-1 1-.3.4-.4.9-.5 1.5-.1.6-.2 1.2-.2 1.8 0 .5 0 .9.1 1.3 0 .4.1.8.2 1.2s.2.7.4 1 .4.5.6.7c.3.2.5.4.9.5.3.1.7.2 1.2.2.6 0 1.2-.1 1.6-.4.4-.2.8-.6 1-1 .3-.4.4-.9.6-1.5.1-.6.2-1.2.2-1.9zM54.6 33.6v.5c0 .1 0 .3-.1.3 0 .1-.1.2-.1.2-.1 0-.1.1-.2.1h-3.4v10.9c0 .1 0 .1-.1.2 0 .1-.1.1-.2.1s-.2.1-.4.1h-1.4c-.2 0-.3 0-.4-.1-.1 0-.2-.1-.2-.1 0-.1-.1-.1-.1-.2V34.7h-3.4c-.1 0-.1 0-.2-.1 0 0-.1-.1-.1-.2s-.1-.2-.1-.3v-1c0-.1 0-.3.1-.4 0-.1.1-.1.1-.2 0 0 .1-.1.2-.1h9.6c.1 0 .1 0 .2.1.1 0 .1.1.1.2s.1.2.1.4v.5zM64.4 44.9v.5c0 .1 0 .2-.1.3 0 .1-.1.1-.1.2-.1.1-.2.1-.2.1h-6.8c-.2 0-.4-.1-.6-.2-.2-.1-.2-.4-.2-.7V33.3c0-.3.1-.5.2-.7s.4-.2.6-.2H64c.1 0 .1 0 .2.1 0 0 .1.1.1.2s.1.2.1.3v1c0 .1 0 .2-.1.3 0 .1-.1.1-.1.2 0 0-.1.1-.2.1h-4.8v3.3h4.1c.1 0 .1 0 .2.1.1 0 .1.1.1.2s.1.2.1.3v1c0 .1 0 .2-.1.3 0 .1-.1.1-.1.2-.1 0-.1.1-.2.1h-4.1v3.8H64c.1 0 .1 0 .2.1.1 0 .1.1.1.2s.1.2.1.3v.4zM78.3 45.6c0 .1 0 .1-.1.2 0 .1-.1.1-.2.1s-.2.1-.4.1h-1.4c-.2 0-.3 0-.4-.1-.1 0-.2-.1-.2-.1 0-.1-.1-.1-.1-.2V37c-.1.1-.1.2-.2.3-.1.1-.2.3-.2.4-.1.1-.2.3-.3.4-.1.2-.2.3-.3.4l-4.7 7-.2.2c-.1.1-.1.1-.2.1s-.2.1-.3.1h-1.2c-.2 0-.3 0-.4-.1-.1 0-.2-.1-.2-.1 0-.1-.1-.1-.1-.2V32.8c0-.1 0-.1.1-.2 0-.1.1-.1.2-.1s.2-.1.4-.1h1.4c.2 0 .3 0 .4.1.1 0 .2.1.2.1 0 .1.1.1.1.2v8.6c.1-.2.3-.5.5-.8l.6-.9 4.7-7c0-.1.1-.1.2-.2s.1-.1.2-.1.2-.1.4-.1h1.1c.2 0 .3 0 .4.1.1 0 .2.1.2.1 0 .1.1.1.1.2v12.9zM91.7 45.6c0 .1 0 .1-.1.2 0 .1-.1.1-.2.1-.1.1-.2.1-.4.1h-1.4c-.2 0-.3 0-.4-.1-.1 0-.2-.1-.2-.1 0-.1-.1-.1-.1-.2v-5.5h-5.1v5.5c0 .1 0 .1-.1.2 0 .1-.1.1-.2.1s-.2.1-.4.1h-1.4c-.2 0-.3 0-.4-.1-.1 0-.2-.1-.2-.1 0-.1-.1-.1-.1-.2V32.8c0-.1 0-.1.1-.2 0-.1.1-.1.2-.1s.2-.1.4-.1h1.4c.2 0 .3 0 .4.1.1 0 .2.1.2.1 0 .1.1.1.1.2v5H89v-5c0-.1 0-.1.1-.2 0-.1.1-.1.2-.1s.2-.1.4-.1h1.4c.2 0 .3 0 .4.1.1 0 .2.1.2.1 0 .1.1.1.1.2v12.8zM99.3 39.2c0 .4 0 .7-.1.8-.1.2-.2.2-.4.2h-4.4c-.2 0-.3-.1-.4-.2v-.8c0-.4 0-.7.1-.8.1-.2.2-.2.4-.2h4.4c.1 0 .2 0 .2.1.1 0 .1.1.2.2 0 .1.1.2.1.3-.1.1-.1.2-.1.4z"/><path class="st3" d="M17.1 56.6c0 .1-.1.1-.1.1h-1s-.1 0-.1-.1c0 0 0-.1-.1-.1l-.5-1.3c-.1-.2-.1-.4-.2-.5-.1-.1-.2-.2-.2-.3-.1-.1-.2-.1-.3-.2-.1 0-.2-.1-.4-.1h-.3v2.5s-.1 0-.1.1h-1s-.1 0-.1-.1V50.9s.1 0 .1-.1h1s.1 0 .1.1V53.2h.3c.1 0 .3 0 .4-.1.1 0 .2-.1.3-.2.1-.1.2-.2.2-.3.1-.1.1-.3.2-.5l.4-1.2s0-.1.1-.1l.1-.1h1s.1 0 .1.1v.2c0 .1 0 .1-.1.2l-.4 1.1c-.1.2-.1.4-.2.5-.2.2-.3.3-.3.4-.1.1-.2.2-.3.2-.1.1-.2.1-.3.2.1.1.2.1.3.2.1.1.2.1.3.2.1.1.2.2.2.4.1.1.2.3.2.5l.5 1.2c0 .1.1.2.1.3.1.1.1.1.1.2zM23.8 53.7c0 .5-.1.9-.2 1.3s-.3.7-.5 1c-.2.3-.5.5-.9.6-.4.1-.8.2-1.2.2-.5 0-.9-.1-1.2-.2-.3-.1-.6-.3-.9-.6-.2-.2-.4-.6-.5-.9-.1-.4-.2-.8-.2-1.4 0-.5.1-.9.2-1.3s.3-.7.5-1 .5-.5.9-.6.8-.2 1.2-.2c.4 0 .8.1 1.2.2s.6.3.9.5c.2.2.4.6.5.9s.2 1 .2 1.5zm-1.2.1c0-.3 0-.6-.1-.9 0-.3-.1-.5-.2-.7-.1-.2-.3-.3-.5-.4s-.4-.1-.7-.1c-.3 0-.5.1-.7.2s-.4.3-.5.4-.2.4-.3.7c-.1.2-.1.5-.1.8 0 .3 0 .6.1.9 0 .3.1.5.2.7.1.2.3.3.5.4.2.1.4.1.7.1.3 0 .5-.1.7-.2s.4-.3.5-.4c.1-.2.2-.4.3-.7s.1-.6.1-.8zM32.4 56.6c0 .1-.1.1-.1.1h-1c-.1 0-.1 0-.1-.1V51.7l-1.7 4.8s0 .1-.1.1c0 0-.1 0-.1.1h-1c-.1 0-.1 0-.1-.1 0 0 0-.1-.1-.1l-1.7-4.8V56.6l-.1.1h-1s-.1 0-.1-.1V51.2c0-.2 0-.3.1-.4.1-.1.2-.1.3-.1H26.8c.1 0 .2.1.3.1l.2.2c0 .1.1.2.1.3l1.3 3.5 1.3-3.5c0-.1.1-.2.1-.3 0-.1.1-.2.2-.2.1-.1.1-.1.2-.1h1.3c.1 0 .1.1.1.1s.1.1.1.2V56.6zM38.9 56.6c0 .1-.1.1-.1.1h-1s-.1 0-.1-.1V51.7h-2.2V56.6s-.1 0-.1.1h-1s-.1 0-.1-.1v-5.5c0-.1 0-.2.1-.3s.1-.1.3-.1h3.9c.1 0 .2 0 .3.1.1.1.1.2.1.3v5.5zM45.5 56.6c0 .1-.1.1-.1.1h-1s-.1 0-.1-.1V51.7H43c-.1.7-.2 1.3-.3 1.8-.1.5-.2 1-.3 1.3-.1.4-.2.7-.3.9s-.3.4-.4.6c-.2.1-.3.2-.5.3-.2.1-.4.1-.7.1h-.1s-.1 0-.1-.1v-.8s0-.1.1-.1h.1c.1 0 .2 0 .3-.1.1 0 .2-.1.3-.2.1-.1.2-.3.2-.5.1-.2.1-.5.2-.8s.1-.7.2-1.2.1-1.1.2-1.7c0-.2.1-.3.1-.3s.1-.1.2-.1h2.9c.1 0 .2 0 .3.1s.1.2.1.3v5.4zM51 56.3V56.6s0 .1-.1.1h-3.1c-.1 0-.2 0-.3-.1-.1-.1-.1-.2-.1-.3v-5.2c0-.1 0-.2.1-.3.1-.1.2-.1.3-.1h3.1l.1.1v.6s0 .1-.1.1h-2.2v1.4H50.6l.1.1v.6s0 .1-.1.1H48.7v1.7h2.2l.1.1c.1.1 0 .1 0 .1v.7zM57 56.6c0 .1-.1.1-.1.1h-1c-.1 0-.1 0-.1-.1 0 0 0-.1-.1-.1l-.5-1.3c-.1-.2-.1-.4-.2-.5-.1-.1-.2-.2-.2-.3-.1-.1-.2-.1-.3-.2-.1 0-.2-.1-.4-.1h-.3v2.5s-.1 0-.1.1h-1c-.1 0-.1 0-.1-.1V50.9s.1 0 .1-.1h1s.1 0 .1.1V53.2h.3c.1 0 .3 0 .4-.1s.2-.1.3-.2c.1-.1.2-.2.2-.3.1-.1.1-.3.2-.5l.4-1.2s0-.1.1-.1l.1-.1h1s.1 0 .1.1v.2c0 .1 0 .1-.1.2l-.4 1.1c-.1.2-.1.4-.2.5-.1.1-.2.3-.2.4-.1.1-.2.2-.3.2-.1.1-.2.1-.3.2.1.1.2.1.3.2s.2.1.3.2c.1.1.2.2.2.4.1.1.2.3.2.5l.5 1.2c0 .1.1.2.1.3v.2zM62.5 55.8v.4s0 .1-.1.1c0 0-.1.1-.2.1s-.2.1-.4.2c-.1.1-.3.1-.5.1s-.4.1-.6.1c-.4 0-.8-.1-1.1-.2-.3-.1-.6-.3-.8-.6-.2-.2-.4-.6-.5-.9-.1-.4-.2-.8-.2-1.3s.1-1 .2-1.3c.1-.4.3-.7.6-1 .2-.3.5-.5.9-.6s.7-.2 1.1-.2h.5c.2 0 .3.1.4.1.1 0 .2.1.4.2.1.1.2.1.2.1l.1.1V52.1s0 .1-.1.1h-.1s-.1 0-.2-.1c0 0-.1-.1-.2-.1s-.2-.1-.4-.2-.3-.1-.6-.1c-.2 0-.4 0-.6.1-.2.1-.3.2-.5.4s-.2.4-.3.6c-.1.3-.1.5-.1.9 0 .3 0 .7.1.9s.2.5.3.6c.1.2.3.3.5.4.2.1.4.1.6.1.2 0 .4 0 .6-.1.2-.1.3-.1.4-.2.1-.1.2-.1.3-.2.1 0 .1-.1.2-.1h.1V55.8zM67.6 52c0 .3 0 .5-.1.7-.1.2-.2.4-.4.6-.2.2-.4.3-.6.4-.2.1-.5.1-.7.1-.3 0-.5 0-.7-.1-.2-.1-.4-.2-.6-.4-.2-.2-.3-.3-.4-.6s-.1-.4-.1-.6c0-.3 0-.5.1-.7.1-.2.2-.4.4-.6.2-.2.4-.3.6-.4s.5-.1.7-.1c.3 0 .5 0 .7.1.2.1.4.2.6.4s.3.3.4.6.1.4.1.6zm-.5.1c0-.2 0-.4-.1-.6s-.2-.3-.3-.5c-.1-.1-.3-.2-.4-.3-.2-.1-.3-.1-.5-.1s-.4 0-.6.1c-.2.1-.3.2-.4.3-.1.1-.2.3-.3.4s-.1.4-.1.5c0 .2 0 .4.1.6s.2.3.3.5c.1.1.3.2.4.3s.3.1.5.1.4 0 .6-.1.3-.2.4-.3c.1-.1.2-.3.3-.4.1-.2.1-.3.1-.5zm-.5.8c0 .1 0 .1 0 0l-.1.1H66.2v-.1l-.2-.3c0-.1-.1-.2-.1-.2-.1 0-.1-.1-.2-.1h-.1v.7h-.4V51.3c0-.1 0-.1.1-.2s.1-.1.2-.1h.8c.1 0 .2.1.2.1s.1.1.1.2.1.2.1.2c0 .1 0 .3-.1.3-.1.1-.2.1-.3.2.1 0 .1.1.2.1.1.1.1.1.2.3l.1.3-.2.2zm-.6-1.3c0-.1 0-.2-.1-.2 0 0-.1 0-.1-.1h-.4v.5h.2c.1 0 .2 0 .3-.1.1.1.1 0 .1-.1z"/><path class="st11" d="M211.6 52.1V38.4c0-.8.2-1.2.9-1.4 1.4-.4 3.1-.5 4.8-.5 4.2 0 6 1.7 6 4.7 0 1.5-.6 2.6-2 3.5 2 .7 2.7 2.2 2.7 4 0 3.4-1.7 5.1-6.2 5.1-2 0-3.9-.1-5.3-.5-.7 0-.9-.4-.9-1.2zm3.7-12.4v3.9h2.3c1.6 0 2.1-.6 2.1-2 0-1.5-.6-2.1-2.7-2.1-.6 0-1.2.1-1.7.2zm5 9c0-1.5-.6-2.3-2.1-2.3h-2.8v4.3c.7.1 1.4.2 2.3.2 1.9.1 2.6-.5 2.6-2.2zM230.6 53.3c-.1.3-.3.4-.8.4h-3.3c-.2 0-.3-.1-.3-.3v-12c0-.2.1-.3.3-.3h2.6c.2 0 .3.1.3.3v8.2l4-8.1c.1-.3.3-.4.8-.4h3.3c.2 0 .3.1.3.3v12c0 .2-.1.3-.3.3h-2.6c-.2 0-.3-.1-.3-.3v-8.2l-4 8.1zM240.8 48.3c-.3 0-.4-.1-.4-.3v-1.6c0-.2.1-.3.4-.3h2.3c1.7 0 2.7-.4 2.7-1.5s-.9-1.5-2.6-1.5c-1 0-1.8.1-2.8.2-.3 0-.4-.1-.4-.3v-1.3c0-.2.1-.3.3-.3 1.1-.3 2.4-.4 3.7-.4 3.1 0 5.1 1.4 5.1 3.6 0 1-.5 2-1.7 2.7 1.4.7 1.9 1.7 1.9 2.9 0 2.3-2.1 3.8-5.5 3.8-1.3 0-2.7-.1-3.7-.4-.2-.1-.3-.2-.3-.3V52c0-.2.1-.3.4-.3 1 .1 1.8.2 2.9.2 1.8 0 3-.4 3-1.7 0-1.3-1-1.7-2.7-1.7h-2.6zM249.6 51.8c0-.2.1-.3.3-.3.5.1 1.1.1 1.6.1 1.1 0 1.4-.5 1.4-1.3v-9c0-.2.1-.3.3-.3h9.3c.3 0 .4.1.4.3v12c0 .2-.1.3-.4.3H260c-.3 0-.4-.1-.4-.3v-10h-3.5v6.2c0 2.3-.1 4.4-3.7 4.4-.6 0-1.6-.1-2.2-.2-.3-.1-.6-.2-.6-.5v-1.4zM269.9 43c-.9 0-1.1.3-1.1 1v2h5.2c.2 0 .4.1.4.3V48c0 .2-.1.3-.4.3h-5.2v2.3c0 .7.2 1 1.1 1h4.7c.2 0 .3.1.3.3v1.3c0 .2-.1.3-.4.4-1.6.1-3.4.2-5.5.2-2.6 0-3.5-.7-3.5-2.7v-7.7c0-2 .9-2.7 3.5-2.7 2.1 0 3.7.1 5.3.2.3 0 .4.1.4.4v1.3c0 .2-.1.3-.3.3h-4.5zM276.6 53.6c-.2 0-.3-.1-.2-.3l2.8-4.7c-1.5-.6-2.1-1.8-2.1-3.4v-.5c0-2.5 1.4-3.9 5.2-3.9 1.5 0 3.1.1 4.3.4.6.1.8.4.8 1v11.1c0 .2-.1.3-.4.3h-2.5c-.3 0-.4-.1-.4-.3V49c-.6 0-1.3.1-1.9.1h-.2l-2.3 4.1c-.1.3-.4.4-.8.4h-2.3zm7.5-6.7v-3.7c-.5-.1-1.1-.2-1.6-.2-1.8 0-2.4.5-2.4 1.7v.4c0 1.2.5 1.7 2.4 1.7.5.1 1.1.1 1.6.1z"/><path d="M142 13.2c1.9 0 3.7-.1 5.6.1 1.4.1 2.7 1.2 2.7 2.6.1 1-.6 1.9-1.4 2.4.5.2 1.1.5 1.4.9.9 1.1.7 2.8-.4 3.7-.8.7-2 .9-3 .9H142V13.2zm3.3 2.4v2c.5 0 1 0 1.5-.2.6-.3.7-1.3.1-1.6-.5-.3-1.1-.2-1.6-.2m0 3.8v2c.6 0 1.3.1 1.9-.1.7-.2.7-1.4 0-1.7-.6-.2-1.3-.1-1.9-.2zm-28-6.2c1.9-.4 4 0 5.5 1.4 1.9 1.8 2.1 5.1.5 7.2-2.1 2.8-6.7 2.9-9 .3-1.5-1.8-1.7-4.5-.5-6.5.7-1.3 2-2.1 3.5-2.4m.4 2.9c-1.9 1-1.7 4.5.6 5 1.7.4 2.9-1.5 2.6-3-.1-1.5-1.7-2.9-3.2-2m-13.5-2.9h3.4v7.9h3.4v2.7h-6.9l.1-10.6zm22.7 0h3.4l2.4 4.2c.7-1.4 1.5-2.8 2.2-4.2h3.7v10.6h-3.5v-5.1c-.5 1-1.1 2-1.6 3h-1.7c-.5-1-1.1-2-1.6-3v5.2h-3.3V13.2zm-74.4.5c1.9-1.1 4.4-.8 6.2.4-.5.8-.9 1.6-1.4 2.3-.8-.5-1.8-1-2.8-.7-.4.1-.5.7-.1.9 1.2.7 2.8.7 3.7 1.8 1.2 1.6.5 4.3-1.4 5.1-2.1.8-4.6.4-6.4-1 .5-.8.9-1.5 1.4-2.3.9.7 2.1 1.4 3.3 1 .5-.2.4-.9-.1-1.1-.9-.5-2.3-.6-3.3-1.5-1.3-1.4-.8-4 .9-4.9zm10.3 1.5c1.5-2 4.4-2.8 6.7-1.8.6.3 1.1.7 1.6 1.1-.6.8-1.2 1.6-1.7 2.3-.7-.7-1.8-1.2-2.8-.8-1.9 1-1.9 4.1 0 4.9 1 .4 2.1-.1 2.9-.8.6.8 1.1 1.5 1.7 2.3-1.1.9-2.4 1.5-3.8 1.5-1.9.1-3.9-.8-4.9-2.5-1.1-1.8-1-4.4.3-6.2m-50.2-2c1.9.1 3.7-.1 5.6.1 1.4.1 2.7 1.2 2.7 2.6.1 1-.6 1.9-1.4 2.4.5.2 1.1.5 1.4.9.9 1.1.7 2.8-.4 3.7-.8.7-2 .9-3 .9h-4.9V13.2zm3.3 2.3v2c.5 0 1 0 1.5-.2.6-.3.7-1.3 0-1.6-.4-.2-1-.1-1.5-.2m0 3.9v2c.6 0 1.3.1 1.9-.1.7-.3.7-1.4 0-1.7-.6-.2-1.2-.1-1.9-.2zm7.7 4.4c1.2-3.5 2.4-7.1 3.7-10.6h3.8c1.2 3.5 2.4 7.1 3.7 10.6h-3.6c-.2-.7-.4-1.3-.6-1.9h-3.1c-.2.7-.4 1.3-.5 1.9h-3.4zm4.7-4.5h1.6c-.3-.9-.5-1.8-.8-2.7-.2.9-.5 1.8-.8 2.7zm8.9-6.1h3.5v6.3c0 .8.6 1.7 1.5 1.7.9.1 1.7-.8 1.6-1.7.1-2.1 0-4.2 0-6.3h3.5V19c0 1.4-.4 2.9-1.6 3.8-1.4 1.2-3.4 1.2-5.1.9-1.9-.3-3.3-2-3.5-3.9 0-2.1.1-4.4.1-6.6zm37.4 0h3.5v3.9h2.7v-3.9h3.5v10.6h-3.5v-3.7h-2.7v3.7h-3.5V13.2zm18 3.6H96v3.4h-3.4v-3.4z" style="fill:#009ea8"/></svg>