<svg version="1.1" id="Layer_1" xmlns="http://www.w3.org/2000/svg" x="0" y="0" viewBox="0 0 300 65.7" style="enable-background:new 0 0 300 65.7" xml:space="preserve"><style>.st0{fill:#147bb8}</style><path class="st0" d="M.5 0h6c1.2 0 2.1 0 2.7.1.6.1 1.1.3 1.6.6s.8.7 1.1 1.3c.3.5.5 1.1.5 1.8s-.2 1.3-.6 1.9c-.4.6-.9 1-1.5 1.3.9.3 1.6.7 2.1 1.4.5.6.7 1.4.7 2.3 0 .7-.2 1.3-.5 2-.3.6-.7 1.2-1.3 1.5-.5.4-1.2.6-2 .7-.5 0-1.8.1-3.7.1H.5V0zm3 2.5V6h2c1.2 0 1.9 0 2.2-.1.5-.1.9-.2 1.2-.5.3-.3.4-.7.4-1.2s-.1-.8-.4-1.1c-.2-.3-.5-.5-1-.6-.3 0-1.2-.1-2.6-.1H3.5zm0 5.9v4h2.8c1.1 0 1.8 0 2.1-.1.4-.1.8-.3 1.1-.6s.4-.7.4-1.3c0-.4-.1-.8-.3-1.1-.2-.3-.5-.5-.9-.6-.5-.2-1.3-.3-2.7-.3H3.5zM15.5 4.1h2.8v6.8l4.4-6.8h2.8V15h-2.8V8l-4.4 7h-2.8V4.1zM27.2 4.1H37v2.3h-3.5V15h-2.9V6.4h-3.5V4.1zM40.8 7.4 38.2 7c.3-1 .8-1.8 1.5-2.3.7-.5 1.8-.8 3.2-.8 1.3 0 2.2.2 2.9.5.6.3 1.1.7 1.3 1.2.3.5.4 1.3.4 2.6v3.3c0 1 0 1.7.1 2.1.1.5.3.9.5 1.5h-2.8c-.1-.2-.2-.5-.3-.8 0-.2-.1-.3-.1-.3-.5.5-1 .8-1.6 1.1-.6.2-1.2.4-1.8.4-1.1 0-2-.3-2.6-.9-.6-.6-1-1.4-1-2.3 0-.6.1-1.2.4-1.6.3-.5.7-.8 1.2-1.1.5-.3 1.3-.5 2.3-.7 1.3-.3 2.3-.5 2.8-.7v-.6c0-.6-.1-.9-.4-1.2-.3-.2-.8-.4-1.5-.4-.5 0-.9.1-1.2.3-.3.3-.5.6-.7 1.1zm3.9 2.4c-.4.1-.9.3-1.7.4-.8.2-1.3.3-1.6.5-.4.3-.6.6-.6 1s.1.7.4 1c.3.3.7.4 1.1.4.5 0 1-.2 1.5-.5.3-.3.6-.6.7-.9.1-.2.1-.7.1-1.4v-.5zM50.4 4.1H54l2.7 7.6 2.7-7.6h3.5V15h-2.4V7.8L57.8 15h-2.5l-2.5-7.1V15h-2.5V4.1zM65.7 4.1h2.8v6.8l4.4-6.8h2.8V15H73V8l-4.5 7h-2.8V4.1zM78.5 4.1h2.9v4h4.1v-4h2.9V15h-2.9v-4.6h-4.1V15h-2.9V4.1zM91.2 4.1H94v4h4.1v-4h2.9V15h-2.9v-4.6H94V15h-2.9V4.1zM103.3 9.4c0-1 .2-1.9.7-2.8.5-.9 1.1-1.6 2-2 .9-.5 1.8-.7 2.9-.7 1.6 0 3 .5 4 1.6s1.6 2.4 1.6 4-.5 3-1.6 4.1c-1.1 1.1-2.4 1.6-4 1.6-1 0-1.9-.2-2.8-.7s-1.6-1.1-2.1-2c-.5-.8-.7-1.9-.7-3.1zm2.9.1c0 1.1.3 1.9.8 2.5.5.6 1.1.9 1.9.9s1.4-.3 1.9-.9c.5-.6.8-1.4.8-2.5s-.3-1.9-.8-2.5c-.5-.6-1.1-.9-1.9-.9s-1.4.3-1.9.9-.8 1.5-.8 2.5zM116.4 11V8.1h5.6V11h-5.6zM123.7 4.1h3.6l2.7 7.6 2.7-7.6h3.5V15h-2.4V7.8l-2.6 7.1h-2.5l-2.5-7.1V15h-2.5V4.1zM139.1 4.1h2.8v6.8l4.4-6.8h2.8V15h-2.8V8l-4.5 6.9H139V4.1zM151.9 4.1h2.9v4h4.1v-4h2.9V15h-2.9v-4.6h-4.1V15h-2.9V4.1zM170.9 11.5l2.9.5c-.4 1-.9 1.8-1.7 2.4-.8.5-1.8.8-3 .8-1.9 0-3.3-.6-4.2-1.8-.7-1-1.1-2.2-1.1-3.7 0-1.8.5-3.2 1.4-4.2.9-1 2.1-1.5 3.6-1.5 1.6 0 2.9.5 3.8 1.6.9 1.1 1.4 2.7 1.3 4.9h-7.2c0 .9.3 1.5.7 2 .4.5 1 .7 1.7.7.4 0 .8-.1 1.1-.4s.6-.7.7-1.3zm.2-2.9c0-.8-.2-1.5-.6-1.9-.4-.4-.9-.6-1.5-.6s-1.1.2-1.6.7c-.4.5-.6 1.1-.6 1.9h4.3zM176.2 4.1h2.7v1.6c.3-.5.8-1 1.4-1.3.6-.3 1.2-.5 2-.5 1.3 0 2.3.5 3.2 1.5.9 1 1.3 2.4 1.3 4.1 0 1.8-.4 3.2-1.3 4.2s-2 1.5-3.2 1.5c-.6 0-1.1-.1-1.6-.4-.5-.2-1-.6-1.5-1.2v5.5h-2.9v-15zm2.8 5.3c0 1.2.2 2.1.7 2.7s1.1.9 1.8.9 1.2-.3 1.7-.8c.4-.5.7-1.4.7-2.6 0-1.1-.2-2-.7-2.5s-1-.8-1.7-.8-1.3.3-1.7.8-.8 1.2-.8 2.3zM191.2 7.4l-2.6-.4c.3-1 .8-1.8 1.5-2.3.7-.5 1.8-.8 3.2-.8 1.3 0 2.2.2 2.9.5.6.3 1.1.7 1.3 1.2.3.5.4 1.3.4 2.6v3.3c0 1 0 1.7.1 2.1.1.5.3.9.5 1.5h-2.8c-.1-.2-.2-.5-.3-.8 0-.2-.1-.3-.1-.3-.5.5-1 .8-1.6 1.1-.6.2-1.2.4-1.8.4-1.1 0-2-.3-2.6-.9-.6-.6-1-1.4-1-2.3 0-.6.1-1.2.4-1.6.3-.5.7-.8 1.2-1.1.5-.3 1.3-.5 2.3-.7 1.3-.3 2.3-.5 2.8-.7v-.6c0-.6-.1-.9-.4-1.2-.3-.2-.8-.4-1.5-.4-.5 0-.9.1-1.2.3-.3.3-.5.6-.7 1.1zm3.8 2.4c-.4.1-.9.3-1.7.4-.8.2-1.3.3-1.6.5-.4.3-.6.6-.6 1s.1.7.4 1c.3.3.7.4 1.1.4.5 0 1-.2 1.5-.5.3-.3.6-.6.7-.9.1-.2.1-.7.1-1.4v-.5zM201.4 4.1h9.6V15h-2.9V6.5h-3.9v4.9c0 1.2-.1 2.1-.4 2.6s-.6.8-.9 1c-.3.2-.9.2-1.7.2-.5 0-1.1-.1-1.8-.2v-2.1h1.2c.4 0 .6-.1.7-.4.1-.3.1-1 .1-2.1V4.1zM214 4.1h2.9v4.5h2.9c1.1 0 2 .1 2.6.2.6.2 1.1.5 1.5 1.1.4.5.6 1.2.6 1.9 0 1-.4 1.8-1.1 2.4-.7.5-1.8.8-3.2.8H214V4.1zm2.9 9.1h2.7c.8 0 1.4-.1 1.6-.4.2-.3.4-.6.4-1 0-.5-.2-.9-.6-1.1-.4-.2-1.1-.3-2.2-.3h-1.9v2.8zM226.7 4.1h2.9v4h4.1v-4h2.9V15h-2.9v-4.6h-4.1V15h-2.9V4.1zM239.5 4.1h2.9v4.5h2.9c1.1 0 2 .1 2.6.2.6.2 1.1.5 1.5 1 .4.5.6 1.2.6 1.9 0 1-.4 1.8-1.1 2.4-.7.5-1.8.8-3.2.8h-6.1V4.1zm2.8 9.1h2.7c.7 0 1.2-.1 1.5-.3.3-.2.5-.6.5-1.1 0-.5-.2-.9-.6-1.1-.4-.2-1.1-.3-2.2-.3h-1.9v2.8zm9.3-9.1h2.9V15h-2.9V4.1zM263.6 11.5l2.9.5c-.4 1-.9 1.8-1.7 2.4-.8.5-1.8.8-3 .8-1.9 0-3.3-.6-4.2-1.8-.7-1-1.1-2.2-1.1-3.7 0-1.8.5-3.2 1.4-4.2.9-1 2.1-1.5 3.6-1.5 1.6 0 2.9.5 3.8 1.6.9 1.1 1.4 2.7 1.3 4.9h-7.2c0 .9.3 1.5.7 2 .4.5 1 .7 1.7.7.4 0 .8-.1 1.1-.4s.5-.7.7-1.3zm.2-2.9c0-.8-.2-1.5-.6-1.9-.4-.4-.9-.6-1.5-.6s-1.1.2-1.6.7c-.4.5-.6 1.1-.6 1.9h4.3zM.4 21h2.9v4.4c.5-.1.8-.2 1-.4.2-.2.4-.8.7-1.6.4-1.1.8-1.8 1.2-2.1s1-.4 1.7-.4c.2 0 .6 0 1.1.1v1.9c-.8 0-1.2.1-1.5.2-.2.1-.4.6-.7 1.3-.3 1-.8 1.6-1.4 1.8.9.3 1.7 1 2.3 2.4 0 .1.1.1.1.2l1.6 3h-3L5 28.7c-.3-.6-.5-1-.8-1.2-.2-.2-.5-.3-1-.3v4.6H.4V21zM10 26.3c0-1 .2-1.9.7-2.8.5-.9 1.1-1.6 2-2s1.8-.7 2.9-.7c1.6 0 3 .5 4 1.6s1.6 2.4 1.6 4-.5 3-1.6 4.1c-1.1 1.1-2.4 1.6-4 1.6-1 0-1.9-.2-2.8-.7s-1.6-1.1-2.1-2c-.4-.8-.7-1.9-.7-3.1zm3 .1c0 1.1.3 1.9.8 2.5.5.6 1.1.9 1.9.9.7 0 1.4-.3 1.9-.9s.8-1.4.8-2.5-.3-1.9-.8-2.5c-.5-.6-1.1-.9-1.9-.9-.7 0-1.4.3-1.9.9-.6.6-.8 1.5-.8 2.5zM23.3 21h3.6l2.7 7.6 2.7-7.6h3.5v10.8h-2.4v-7.1l-2.6 7.1h-2.5l-2.5-7.1v7.1h-2.5V21zM38.5 21h9.6v10.8h-2.9v-8.5h-3.9v8.5h-2.9V21zM52.1 21h9.6v10.8h-2.9v-8.5h-3.9v4.9c0 1.2-.1 2.1-.4 2.6s-.6.8-.9 1c-.3.2-.9.2-1.7.2-.5 0-1.1-.1-1.8-.2v-2.1h1.2c.4 0 .6-.1.7-.4.1-.3.1-1 .1-2.1V21zM70.6 28.4l2.9.5c-.4 1-.9 1.8-1.7 2.4-.8.5-1.8.8-3 .8-1.9 0-3.3-.6-4.2-1.8-.7-1-1.1-2.2-1.1-3.7 0-1.8.5-3.2 1.4-4.2.9-1 2.1-1.5 3.6-1.5 1.6 0 2.9.5 3.8 1.6.9 1.1 1.4 2.7 1.3 4.9h-7.2c0 .9.3 1.5.7 2 .4.5 1 .7 1.7.7.4 0 .8-.1 1.1-.4.3-.3.5-.7.7-1.3zm.1-2.9c0-.8-.2-1.5-.6-1.9s-.9-.6-1.5-.6-1.1.2-1.6.7-.6 1.1-.6 1.9h4.3zM75.8 21h2.9v4.4c.5-.1.8-.2 1-.4.2-.2.4-.8.7-1.6.4-1.1.8-1.8 1.2-2.1s1-.4 1.7-.4c.2 0 .6 0 1.1.1v1.9c-.8 0-1.2.1-1.5.2-.2.1-.4.6-.7 1.3-.3 1-.8 1.6-1.4 1.8.9.3 1.7 1 2.3 2.4 0 .1.1.1.1.2l1.6 3h-3.1l-1.4-3.1c-.3-.6-.5-1-.8-1.2-.2-.2-.5-.3-1-.3v4.6h-2.9V21zM95.6 24.2l-2.8.5c-.1-.6-.3-1-.6-1.3-.3-.3-.8-.4-1.3-.4-.7 0-1.3.2-1.7.7s-.6 1.3-.6 2.5c0 1.3.2 2.2.6 2.7.4.5 1 .8 1.7.8.5 0 1-.2 1.3-.5.3-.3.6-.8.7-1.6l2.8.5c-.3 1.3-.9 2.3-1.7 2.9-.8.7-1.9 1-3.3 1-1.6 0-2.9-.5-3.8-1.5-.9-1-1.4-2.4-1.4-4.2 0-1.8.5-3.2 1.4-4.2.9-1 2.2-1.5 3.8-1.5 1.3 0 2.4.3 3.2.9.8.7 1.3 1.6 1.7 2.7zM97.8 21h2.9v4.5h2.9c1.1 0 2 .1 2.6.2.6.2 1.1.5 1.5 1 .4.5.6 1.2.6 1.9 0 1-.4 1.8-1.1 2.4-.7.5-1.8.8-3.2.8h-6.1V21zm2.8 9h2.7c.7 0 1.2-.1 1.5-.3.3-.2.5-.6.5-1.1 0-.5-.2-.9-.6-1.1s-1.1-.3-2.2-.3h-1.9V30zm9.3-9h2.9v10.8h-2.9V21zM130.4 31.9h-8.2v2.9h-2.3v-5.2h1.2c.5-.5.9-1.4 1.2-2.6.3-1.2.5-3.1.6-5.9h8.8v8.5h1.2v5.2h-2.3v-2.9zm-1.7-2.4v-6.1h-3.5c-.1 3-.6 5-1.4 6.1h4.9zM135.5 21h9.6v10.8h-2.9v-8.5h-3.9v4.9c0 1.2-.1 2.1-.4 2.6-.3.5-.6.8-.9 1s-.9.2-1.7.2c-.5 0-1.1-.1-1.8-.2v-2.1h1.2c.4 0 .6-.1.7-.4.1-.3.1-1 .1-2.1V21zM157.3 21v10.8h-2.8v-4.5h-.3c-.6 0-1.1.1-1.4.2s-.6.5-1 1l-.2.2-1.9 3h-3.3l2.1-3.1c.6-.9 1.1-1.4 1.6-1.6-.8 0-1.5-.4-2-.9-.5-.6-.8-1.3-.8-2.1 0-.7.2-1.3.5-1.8s.8-.8 1.3-1c.5-.2 1.4-.3 2.4-.3h5.8zm-2.9 1.9h-2.1c-.8 0-1.3.1-1.6.3-.3.2-.5.6-.5 1.1 0 .5.2.9.5 1.1.3.2.9.3 1.7.3h1.9v-2.8zM165.9 21h7.3v2.3h-4.5v8.5h-2.9V21zM175 21h9.6v10.8h-2.9v-8.5h-3.9v4.9c0 1.2-.1 2.1-.4 2.6-.3.5-.6.8-.9 1s-.9.2-1.7.2c-.5 0-1.1-.1-1.8-.2v-2.1h1.2c.4 0 .6-.1.7-.4.1-.3.1-1 .1-2.1V21zM189.6 24.3l-2.6-.5c.3-1 .8-1.8 1.5-2.3.7-.5 1.8-.8 3.2-.8 1.3 0 2.2.2 2.9.5.6.3 1.1.7 1.3 1.2.3.5.4 1.3.4 2.6v3.3c0 1 0 1.7.1 2.1.1.5.3.9.5 1.5h-2.8c-.1-.2-.2-.5-.3-.8 0-.2-.1-.3-.1-.3-.5.5-1 .8-1.6 1.1-.6.2-1.2.4-1.8.4-1.1 0-2-.3-2.6-.9-.6-.6-1-1.4-1-2.3 0-.6.1-1.2.4-1.6.3-.5.7-.8 1.2-1.1.5-.3 1.3-.5 2.3-.7 1.3-.3 2.3-.5 2.8-.7v-.3c0-.6-.1-.9-.4-1.2s-.8-.4-1.5-.4c-.5 0-.9.1-1.2.3-.3.1-.5.4-.7.9zm3.9 2.4c-.4.1-.9.3-1.7.4-.8.2-1.3.3-1.6.5-.4.3-.6.6-.6 1s.1.7.4 1c.3.3.7.4 1.1.4.5 0 1-.2 1.5-.5.3-.3.6-.6.7-.9.1-.2.1-.7.1-1.4v-.5zM202.3 27.4v-1.9c.5 0 .9 0 1.1-.1s.4-.2.6-.5c.2-.2.3-.5.3-.9 0-.3-.1-.7-.4-.9-.2-.3-.6-.4-1.1-.4-.4 0-.7.1-1 .2-.3.2-.6.6-.8 1.2l-2.4-.5c.2-1 .8-1.7 1.6-2.1.8-.5 1.7-.7 2.7-.7 1.3 0 2.3.3 3 .9.7.6 1.1 1.4 1.1 2.3 0 .6-.2 1-.5 1.4-.3.4-.8.7-1.5 1 .8.2 1.4.5 1.8 1s.6 1 .6 1.7c0 .8-.4 1.6-1.2 2.2-.8.6-1.9.9-3.4.9-2.6 0-4.2-1-4.7-3l2.6-.5c.4 1.1 1.1 1.6 2.1 1.6.5 0 1-.1 1.3-.4.3-.3.5-.6.5-1s-.2-.8-.5-1c-.3-.2-.8-.4-1.3-.4h-.5zM.2 38.6h8.6v10.9H7.3v-9.7H1.6v9.7H.2V38.6zM10.5 45.6c0-1.5.4-2.6 1.2-3.3.7-.6 1.5-.9 2.5-.9 1.1 0 2 .4 2.7 1.1.7.7 1 1.7 1 3 0 1-.2 1.8-.5 2.4-.3.6-.8 1-1.3 1.4-.6.3-1.2.5-1.9.5-1.1 0-2-.4-2.7-1.1-.7-.7-1-1.8-1-3.1zm1.4 0c0 1 .2 1.8.7 2.3.4.5 1 .8 1.7.8s1.2-.3 1.7-.8c.4-.5.7-1.3.7-2.3 0-1-.2-1.7-.7-2.2-.4-.5-1-.8-1.7-.8s-1.2.3-1.7.8c-.5.4-.7 1.2-.7 2.2zM19.5 41.6h2.1l2.1 6.3 2.3-6.3h1.9v7.9h-1.3v-6.4l-2.3 6.4H23l-2.2-6.7v6.7h-1.3v-7.9zM29.5 45.6c0-1.5.4-2.6 1.2-3.3.7-.6 1.5-.9 2.5-.9 1.1 0 2 .4 2.7 1.1.7.7 1 1.7 1 3 0 1-.2 1.8-.5 2.4-.3.6-.8 1-1.3 1.4-.6.3-1.2.5-1.9.5-1.1 0-2-.4-2.7-1.1-.7-.7-1-1.8-1-3.1zm1.4 0c0 1 .2 1.8.7 2.3.4.5 1 .8 1.7.8s1.2-.3 1.7-.8c.4-.5.7-1.3.7-2.3 0-1-.2-1.7-.7-2.2-.4-.5-1-.8-1.7-.8s-1.2.3-1.7.8c-.5.4-.7 1.2-.7 2.2zM38.5 41.6h1.3v6.8h3.1v-6.8h1.3v6.8h3.1v-6.8h1.3v6.8h.9v3.4h-1.1v-2.2h-9.9v-8zM51 41.6h1.3v3.1H54c1.1 0 2 .2 2.6.6.6.4.9 1 .9 1.8 0 .7-.2 1.2-.8 1.7-.5.5-1.3.7-2.4.7H51v-7.9zm1.4 6.9h1.4c.9 0 1.5-.1 1.8-.3.4-.2.5-.5.5-1 0-.3-.1-.6-.4-.9-.3-.3-.9-.4-1.8-.4h-1.6v2.6zM63.3 41.6h6.3v7.9h-1.3v-6.8h-3.6v6.8h-1.3v-7.9zM71.6 52.6v-11h1.2v1c.3-.4.6-.7 1-.9.4-.2.8-.3 1.3-.3.7 0 1.3.2 1.8.5s.9.8 1.2 1.5c.3.6.4 1.3.4 2.1s-.1 1.5-.4 2.2c-.3.6-.7 1.1-1.3 1.5-.6.3-1.1.5-1.8.5-.4 0-.8-.1-1.2-.3-.4-.2-.6-.4-.9-.7v3.9h-1.3zm1.2-7c0 1 .2 1.8.6 2.3.4.5.9.7 1.5.7s1.1-.3 1.5-.8c.4-.5.6-1.3.6-2.3 0-1-.2-1.8-.6-2.3-.4-.5-.9-.8-1.5-.8s-1.1.3-1.5.8c-.4.6-.6 1.4-.6 2.4zM80.1 41.6h1.3v6l3.7-6h1.4v7.9h-1.3v-6l-3.7 6h-1.4v-7.9zM92.8 41.6h6.3v7.9h-1.3v-6.8h-3.6v6.8h-1.3v-7.9zM100.6 45.6c0-1.5.4-2.6 1.2-3.3.7-.6 1.5-.9 2.5-.9 1.1 0 2 .4 2.7 1.1.7.7 1 1.7 1 3 0 1-.2 1.8-.5 2.4-.3.6-.8 1-1.3 1.4-.6.3-1.2.5-1.9.5-1.1 0-2-.4-2.7-1.1-.6-.7-1-1.8-1-3.1zm1.4 0c0 1 .2 1.8.7 2.3.4.5 1 .8 1.7.8s1.2-.3 1.7-.8c.4-.5.7-1.3.7-2.3 0-1-.2-1.7-.7-2.2-.4-.5-1-.8-1.7-.8s-1.2.3-1.7.8c-.5.4-.7 1.2-.7 2.2zM109.6 41.6h3.1c.8 0 1.3.1 1.7.2.4.1.7.4 1 .7.3.3.4.7.4 1.2 0 .4-.1.7-.2 1-.2.3-.4.5-.7.7.4.1.7.4.9.7.2.3.4.7.4 1.2 0 .8-.3 1.3-.8 1.7-.5.4-1.2.5-2.1.5h-3.6v-7.9zM111 45h1.4c.6 0 1 0 1.2-.1.2-.1.4-.2.6-.4.2-.2.3-.4.3-.7 0-.4-.1-.7-.4-.9-.3-.2-.8-.2-1.5-.2H111V45zm0 3.5h1.8c.8 0 1.3-.1 1.6-.3.3-.2.4-.5.4-.9 0-.3-.1-.5-.2-.7-.2-.2-.4-.4-.6-.4-.3-.1-.7-.1-1.3-.1H111v2.4zM117.8 41.6h1.3v3.1h1.7c1.1 0 2 .2 2.6.6.6.4.9 1 .9 1.8 0 .7-.3 1.2-.7 1.7-.5.5-1.3.7-2.4.7h-3.4v-7.9zm1.3 6.9h1.4c.9 0 1.5-.1 1.8-.3.4-.2.5-.5.5-1 0-.3-.1-.6-.4-.9-.3-.3-.9-.4-1.8-.4H119v2.6zm6.2-6.9h1.3v7.9h-1.3v-7.9zM128.8 41.6h1.3v6.8h3.1v-6.8h1.3v6.8h3.1v-6.8h1.3v7.9h-10.2v-7.9zM146.4 47l1.4.2c-.2.8-.6 1.4-1.2 1.9-.6.4-1.3.7-2.3.7-1.2 0-2.1-.4-2.8-1.1-.7-.7-1-1.7-1-3s.3-2.4 1-3.1c.7-.7 1.6-1.1 2.7-1.1s1.9.4 2.6 1.1c.7.7 1 1.7 1 3v.4h-5.9c0 .9.3 1.5.7 2 .4.5 1 .7 1.7.7.5 0 .9-.1 1.3-.4.3-.3.6-.7.8-1.3zm-4.4-2.2h4.4c-.1-.7-.2-1.2-.5-1.5-.4-.5-1-.8-1.7-.8-.6 0-1.1.2-1.6.6-.3.5-.6 1-.6 1.7zM149.5 41.6h1.3v3.3h3.7v-3.3h1.3v7.9h-1.3V46h-3.7v3.5h-1.3v-7.9zM157.9 41.6h1.3v3.3h3.7v-3.3h1.3v7.9H163V46h-3.7v3.5H158v-7.9zM165.9 45.6c0-1.5.4-2.6 1.2-3.3.7-.6 1.5-.9 2.5-.9 1.1 0 2 .4 2.7 1.1.7.7 1 1.7 1 3 0 1-.2 1.8-.5 2.4-.3.6-.8 1-1.3 1.4-.6.3-1.2.5-1.9.5-1.1 0-2-.4-2.7-1.1-.7-.7-1-1.8-1-3.1zm1.3 0c0 1 .2 1.8.7 2.3.4.5 1 .8 1.7.8s1.2-.3 1.7-.8c.4-.5.7-1.3.7-2.3 0-1-.2-1.7-.7-2.2-.4-.5-1-.8-1.7-.8s-1.2.3-1.7.8c-.4.4-.7 1.2-.7 2.2zM174.9 41.6h1.3v6l3.7-6h1.4v7.9H180v-6l-3.7 6h-1.4v-7.9zm4.6-3h.9c-.1.6-.3 1.1-.7 1.4-.4.3-.9.5-1.5.5s-1.1-.2-1.5-.5c-.4-.3-.6-.8-.7-1.4h.9c.1.3.2.6.4.8.2.2.5.3.8.3.4 0 .7-.1.9-.2.3-.3.5-.5.5-.9zM189.4 46v-1.1c.6 0 1 0 1.2-.1.2 0 .4-.2.6-.4.2-.2.3-.4.3-.7 0-.4-.1-.7-.4-.9-.2-.2-.6-.3-.9-.3-.8 0-1.3.4-1.6 1.3l-1.3-.2c.4-1.5 1.4-2.2 2.9-2.2.8 0 1.5.2 2 .7.5.5.7 1 .7 1.7 0 .6-.3 1.2-.9 1.5.4.2.7.5.9.8.2.3.3.7.3 1.2 0 .7-.3 1.3-.8 1.7-.5.4-1.2.7-2.2.7-1.8 0-2.9-.8-3.1-2.4l1.3-.3c.1.5.3.9.7 1.2.4.3.8.4 1.2.4.5 0 .8-.1 1.1-.4.3-.3.5-.6.5-1 0-.3-.1-.6-.3-.8-.2-.2-.4-.4-.6-.4-.2-.1-.6-.1-1.2-.1-.1.1-.2.1-.4.1zM194.7 52.6v-11h1.2v1c.3-.4.6-.7 1-.9.4-.2.8-.3 1.3-.3.7 0 1.3.2 1.8.5s.9.8 1.2 1.5c.3.6.4 1.3.4 2.1s-.1 1.5-.4 2.2c-.3.6-.7 1.1-1.3 1.5-.6.3-1.1.5-1.8.5-.4 0-.8-.1-1.2-.3-.4-.2-.6-.4-.9-.7v3.9h-1.3zm1.2-7c0 1 .2 1.8.6 2.3.4.5.9.7 1.5.7s1.1-.3 1.5-.8c.4-.5.6-1.3.6-2.3 0-1-.2-1.8-.6-2.3-.4-.5-.9-.8-1.5-.8s-1.1.3-1.5.8c-.4.6-.6 1.4-.6 2.4zM203.2 41.6h1.3v6l3.7-6h1.4v7.9h-1.3v-6l-3.7 6h-1.4v-7.9zM211 41.6h6.4v1.1h-2.6v6.8h-1.3v-6.8H211v-1.1zM224 47l1.4.2c-.2.8-.6 1.4-1.2 1.9-.6.4-1.3.7-2.3.7-1.2 0-2.1-.4-2.8-1.1-.7-.7-1-1.7-1-3s.3-2.4 1-3.1c.7-.7 1.6-1.1 2.7-1.1s1.9.4 2.6 1.1c.7.7 1 1.7 1 3v.4h-5.9c0 .9.3 1.5.7 2 .4.5 1 .7 1.7.7.5 0 .9-.1 1.3-.4.3-.3.6-.7.8-1.3zm-4.5-2.2h4.4c-.1-.7-.2-1.2-.5-1.5-.4-.5-1-.8-1.7-.8-.6 0-1.1.2-1.6.6-.3.5-.5 1-.6 1.7zM227.2 41.6h6.2v7.9h-1.3v-6.8h-3.6v3.9c0 .9 0 1.5-.1 1.8-.1.3-.2.5-.5.8-.3.2-.7.3-1.2.3-.3 0-.7 0-1.1-.1v-1.1h.6c.3 0 .5 0 .6-.1.1-.1.2-.1.2-.3 0-.1.1-.5.1-1.2v-5.1zM235.4 41.6h1.3v3.1h1.7c1.1 0 2 .2 2.6.6.6.4.9 1 .9 1.8 0 .7-.2 1.2-.8 1.7-.5.5-1.3.7-2.4.7h-3.4v-7.9zm1.4 6.9h1.4c.9 0 1.5-.1 1.8-.3.4-.2.5-.5.5-1 0-.3-.1-.6-.4-.9-.3-.3-.9-.4-1.8-.4h-1.6v2.6zM243.4 41.6h1.3v3.3h3.7v-3.3h1.3v7.9h-1.3V46h-3.7v3.5h-1.3v-7.9zM251.3 45.6c0-1.5.4-2.6 1.2-3.3.7-.6 1.5-.9 2.5-.9 1.1 0 2 .4 2.7 1.1.7.7 1 1.7 1 3 0 1-.2 1.8-.5 2.4-.3.6-.8 1-1.3 1.4-.6.3-1.2.5-1.9.5-1.1 0-2-.4-2.7-1.1-.6-.7-1-1.8-1-3.1zm1.4 0c0 1 .2 1.8.7 2.3.4.5 1 .8 1.7.8s1.2-.3 1.7-.8c.4-.5.7-1.3.7-2.3 0-1-.2-1.7-.7-2.2-.4-.5-1-.8-1.7-.8s-1.2.3-1.7.8c-.5.4-.7 1.2-.7 2.2zM260.3 41.6h1.3v6l3.7-6h1.4v7.9h-1.3v-6l-3.7 6h-1.4v-7.9zm4.7-3h.9c-.1.6-.3 1.1-.7 1.4-.4.3-.9.5-1.5.5s-1.1-.2-1.5-.5c-.4-.3-.6-.8-.7-1.4h.9c.1.3.2.6.4.8.2.2.5.3.8.3.4 0 .7-.1.9-.2.3-.3.4-.5.5-.9zM0 54.5h1.3v3.3H5v-3.3h1.3v7.9H5.1v-3.5H1.3v3.5H0v-7.9zM13.6 61.5c-.5.4-1 .7-1.4.9-.5.2-1 .3-1.5.3-.9 0-1.5-.2-2-.6-.5-.5-.7-1.1-.7-1.8 0-.4.1-.7.3-1.1.2-.3.4-.6.7-.8.3-.2.6-.3 1-.4.3-.1.7-.1 1.2-.2 1.1-.1 1.9-.3 2.4-.5v-.4c0-.5-.1-.9-.4-1.2-.3-.3-.9-.5-1.5-.5s-1.1.1-1.4.3c-.4.5-.6.9-.8 1.5l-1.3-.2c.1-.6.3-1 .6-1.4.3-.3.7-.6 1.2-.8.5-.2 1.1-.3 1.8-.3s1.2.1 1.6.2c.4.2.7.4.9.6.2.2.3.5.4.9 0 .2.1.6.1 1.2V59c0 1.2 0 2 .1 2.4.1.3.2.6.3 1h-1.4c-.1-.2-.2-.6-.2-.9zm-.1-3c-.5.2-1.2.4-2.2.5-.6.1-.9.2-1.2.3-.2.1-.4.2-.5.4-.1.2-.2.4-.2.6 0 .4.1.7.4.9.3.2.7.4 1.2.4s1-.1 1.4-.3c.4-.2.7-.5.9-.9.1-.3.2-.8.2-1.3v-.6zM16.9 54.5h4.6v1.1h-3.2v6.8H17v-7.9zM22.5 65.5v-11h1.2v1c.3-.4.6-.7 1-.9.4-.2.8-.3 1.3-.3.7 0 1.3.2 1.8.5s.9.8 1.2 1.5c.3.6.4 1.3.4 2.1s-.1 1.5-.4 2.2c-.3.6-.7 1.1-1.3 1.5-.6.3-1.1.5-1.8.5-.4 0-.8-.1-1.2-.3-.4-.2-.6-.4-.9-.7v3.9h-1.3zm1.2-7c0 1 .2 1.8.6 2.3.4.5.9.7 1.5.7s1.1-.3 1.5-.8c.4-.5.6-1.3.6-2.3 0-1-.2-1.8-.6-2.3-.4-.5-.9-.8-1.5-.8s-1.1.3-1.5.8c-.4.6-.6 1.4-.6 2.4zM30.8 65.5l-.1-1.3c.3.1.5.1.8.1.3 0 .5 0 .7-.1.2-.1.3-.2.4-.4.1-.1.2-.5.4-1 0-.1.1-.2.1-.3l-3-7.9h1.4l1.6 4.6.6 1.8c.2-.6.3-1.2.6-1.8l1.7-4.6h1.3l-3 8.1c-.3.9-.6 1.5-.8 1.8-.2.4-.5.8-.8 1-.3.2-.7.3-1.1.3-.2-.1-.5-.2-.8-.3zM40.2 58.9v-1.1c.6 0 1 0 1.2-.1.2 0 .4-.2.6-.4.2-.2.3-.4.3-.7 0-.4-.1-.7-.4-.9-.2-.2-.6-.3-.9-.3-.8 0-1.3.4-1.6 1.3l-1.3-.2c.4-1.5 1.4-2.2 2.9-2.2.8 0 1.5.2 2 .7.5.5.7 1 .7 1.7 0 .6-.3 1.2-.9 1.5.4.2.7.5.9.8.2.3.3.7.3 1.2 0 .7-.3 1.3-.8 1.7-.5.4-1.2.7-2.2.7-1.8 0-2.9-.8-3.1-2.4l1.3-.3c.1.5.3.9.7 1.2.4.3.8.4 1.2.4.5 0 .8-.1 1.1-.4.3-.3.5-.6.5-1 0-.3-.1-.6-.3-.8-.2-.2-.4-.4-.6-.4-.2-.1-.6-.1-1.2-.1-.1 0-.2 0-.4.1zM45.5 54.5h1.3v3.4c.4 0 .7-.1.9-.2.2-.2.4-.6.8-1.4l.6-1.2c.2-.2.4-.3.6-.4.2-.1.6-.1 1-.1h.3v1.1h-.4c-.4 0-.6.1-.7.2-.1.1-.3.4-.5 1-.2.5-.4.9-.6 1.1-.2.2-.4.4-.8.5.6.2 1.1.7 1.7 1.6l1.5 2.5h-1.5L48.4 60c-.3-.5-.5-.8-.8-1-.2-.2-.5-.2-.8-.2v3.7h-1.3v-8zM57.8 59.9l1.4.2c-.2.8-.6 1.4-1.2 1.9-.6.4-1.3.7-2.3.7-1.2 0-2.1-.4-2.8-1.1-.7-.7-1-1.7-1-3s.3-2.4 1-3.1c.7-.7 1.6-1.1 2.7-1.1s1.9.4 2.6 1.1c.7.7 1 1.7 1 3v.4h-5.9c0 .9.3 1.5.7 2 .4.5 1 .7 1.7.7.5 0 .9-.1 1.3-.4.3-.3.6-.7.8-1.3zm-4.4-2.2h4.4c-.1-.7-.2-1.2-.5-1.5-.4-.5-1-.8-1.7-.8-.6 0-1.1.2-1.6.6-.4.5-.6 1-.6 1.7zM65.1 54.5h1.3v6l3.7-6h1.4v7.9h-1.3v-6l-3.7 6h-1.4v-7.9zM77.9 54.5H81c.8 0 1.3.1 1.7.2.4.1.7.4 1 .7.3.3.4.7.4 1.2 0 .4-.1.7-.2 1-.2.3-.4.5-.7.7.4.1.7.4.9.7.2.3.4.7.4 1.2 0 .8-.3 1.3-.8 1.7-.5.4-1.2.5-2.1.5H78v-7.9zm1.3 3.3h1.4c.6 0 1 0 1.2-.1.2-.1.4-.2.6-.4.2-.2.3-.4.3-.7 0-.4-.1-.7-.4-.9-.3-.2-.8-.2-1.5-.2h-1.5v2.3zm0 3.5H81c.8 0 1.3-.1 1.6-.3.3-.2.4-.5.4-.9 0-.3-.1-.5-.2-.7-.2-.2-.4-.4-.6-.4H79.3v2.3zM85.3 58.5c0-1.5.4-2.6 1.2-3.3.7-.6 1.5-.9 2.5-.9 1.1 0 2 .4 2.7 1.1.7.7 1 1.7 1 3 0 1-.2 1.8-.5 2.4-.3.6-.8 1-1.3 1.4-.6.3-1.2.5-1.9.5-1.1 0-2-.4-2.7-1.1-.6-.8-1-1.8-1-3.1zm1.4 0c0 1 .2 1.8.7 2.3.4.5 1 .8 1.7.8s1.2-.3 1.7-.8c.4-.5.7-1.3.7-2.3 0-1-.2-1.7-.7-2.2-.4-.5-1-.8-1.7-.8s-1.2.3-1.7.8c-.5.4-.7 1.2-.7 2.2zM95.9 58.9v-1.1c.6 0 1 0 1.2-.1.2 0 .4-.2.6-.4.2-.2.3-.4.3-.7 0-.4-.1-.7-.4-.9-.2-.2-.6-.3-.9-.3-.8 0-1.3.4-1.6 1.3l-1.3-.2c.4-1.5 1.4-2.2 2.9-2.2.8 0 1.5.2 2 .7.5.5.7 1 .7 1.7 0 .6-.3 1.2-.9 1.5.4.2.7.5.9.8.2.3.3.7.3 1.2 0 .7-.3 1.3-.8 1.7-.5.4-1.2.7-2.2.7-1.8 0-2.9-.8-3.1-2.4l1.3-.3c.1.5.3.9.7 1.2.4.3.8.4 1.2.4.5 0 .8-.1 1.1-.4.3-.3.5-.6.5-1 0-.3-.1-.6-.3-.8-.2-.2-.4-.4-.6-.4-.2-.1-.6-.1-1.2-.1-.1 0-.2 0-.4.1zM101.2 65.5v-11h1.2v1c.3-.4.6-.7 1-.9.4-.2.8-.3 1.3-.3.7 0 1.3.2 1.8.5s.9.8 1.2 1.5c.3.6.4 1.3.4 2.1s-.1 1.5-.4 2.2c-.3.6-.7 1.1-1.3 1.5-.6.3-1.1.5-1.8.5-.4 0-.8-.1-1.2-.3-.4-.2-.6-.4-.9-.7v3.9h-1.3zm1.2-7c0 1 .2 1.8.6 2.3.4.5.9.7 1.5.7s1.1-.3 1.5-.8c.4-.5.6-1.3.6-2.3 0-1-.2-1.8-.6-2.3-.4-.5-.9-.8-1.5-.8s-1.1.3-1.5.8c-.4.6-.6 1.4-.6 2.4zM114.8 61.5c-.5.4-1 .7-1.4.9-.5.2-1 .3-1.5.3-.9 0-1.5-.2-2-.6-.5-.4-.7-1-.7-1.6 0-.4.1-.7.3-1.1.2-.3.4-.6.7-.8.3-.2.6-.3 1-.4.3-.1.7-.1 1.2-.2 1.1-.1 1.9-.3 2.4-.5v-.4c0-.5-.1-.9-.4-1.2-.3-.3-.9-.5-1.5-.5s-1.1.1-1.4.3c-.3.2-.5.6-.7 1.2l-1.3-.2c.1-.6.3-1 .6-1.4.3-.3.7-.6 1.2-.8.5-.2 1.1-.3 1.8-.3s1.2.1 1.6.2c.4.2.7.4.9.6.2.2.3.5.4.9 0 .2.1.6.1 1.2v1.8c0 1.2 0 2 .1 2.4.1.3.2.6.3 1h-1.4c-.1-.1-.2-.5-.3-.8zm-.1-3c-.5.2-1.2.4-2.2.5-.6.1-.9.2-1.2.3-.2.1-.4.2-.5.4-.1.2-.2.4-.2.6 0 .4.1.7.4.9.3.2.7.4 1.2.4s1-.1 1.4-.3c.4-.2.7-.5.9-.9.1-.3.2-.8.2-1.3v-.6zM123.3 59.5l1.3.2c-.1.9-.5 1.6-1.1 2.1-.6.5-1.3.8-2.2.8-1.1 0-2-.4-2.6-1.1-.7-.7-1-1.7-1-3 0-.9.1-1.6.4-2.2.3-.6.7-1.1 1.3-1.4.6-.3 1.2-.5 1.9-.5.9 0 1.6.2 2.1.7.5.4.9 1.1 1.1 1.9l-1.3.2c-.1-.5-.3-.9-.7-1.2-.3-.3-.7-.4-1.1-.4-.7 0-1.2.2-1.6.7-.4.5-.6 1.3-.6 2.3 0 1.1.2 1.8.6 2.3.4.5.9.7 1.6.7.5 0 1-.2 1.3-.5.3-.4.5-.9.6-1.6zM125.1 54.5h6.4v1.1H129v6.8h-1.3v-6.8h-2.6v-1.1zM132.8 54.5h1.3v3.3h3.7v-3.3h1.3v7.9h-1.3v-3.5h-3.7v3.5h-1.3v-7.9zM141.3 54.5h1.3v3.1h1.7c1.1 0 2 .2 2.6.6.6.4.9 1 .9 1.8 0 .7-.3 1.2-.7 1.7-.5.5-1.3.7-2.4.7h-3.4v-7.9zm1.3 6.8h1.4c.9 0 1.5-.1 1.8-.3.4-.2.5-.5.5-1 0-.3-.1-.6-.4-.9-.3-.3-.9-.4-1.8-.4h-1.6v2.6zm6.2-6.8h1.3v7.9h-1.3v-7.9zM151.3 62.4l2.9-4.1-2.7-3.8h1.7l1.2 1.9c.2.4.4.6.6.9l.6-.9 1.3-1.9h1.6l-2.7 3.7 2.9 4.2h-1.6l-1.6-2.5-.4-.7-2.1 3.1h-1.7zM164.1 54.5h1.3v6l3.7-6h1.4v7.9h-1.3v-6l-3.7 6h-1.4v-7.9zM174.4 58.9v-1.1c.6 0 1 0 1.2-.1.2 0 .4-.2.6-.4.2-.2.3-.4.3-.7 0-.4-.1-.7-.4-.9-.2-.2-.6-.3-.9-.3-.8 0-1.3.4-1.6 1.3l-1.3-.2c.4-1.5 1.4-2.2 2.9-2.2.8 0 1.5.2 2 .7.5.5.7 1 .7 1.7 0 .6-.3 1.2-.9 1.5.4.2.7.5.9.8.2.3.3.7.3 1.2 0 .7-.3 1.3-.8 1.7-.5.4-1.2.7-2.2.7-1.8 0-2.9-.8-3.1-2.4l1.3-.3c.1.5.3.9.7 1.2.4.3.8.4 1.2.4.5 0 .8-.1 1.1-.4.3-.3.5-.6.5-1 0-.3-.1-.6-.3-.8-.2-.2-.4-.4-.6-.4-.2-.1-.6-.1-1.2-.1-.1 0-.2 0-.4.1zM179.7 54.5h2.1l2.1 6.3 2.3-6.3h1.9v7.9h-1.3V56l-2.3 6.4h-1.2l-2.2-6.7v6.7h-1.3v-7.9zM195.6 59.9l1.4.2c-.2.8-.6 1.4-1.2 1.9-.6.4-1.3.7-2.3.7-1.2 0-2.1-.4-2.8-1.1-.7-.7-1-1.7-1-3s.3-2.4 1-3.1c.7-.7 1.6-1.1 2.7-1.1s1.9.4 2.6 1.1c.7.7 1 1.7 1 3v.4h-5.9c0 .9.3 1.5.7 2 .4.5 1 .7 1.7.7.5 0 .9-.1 1.3-.4.3-.3.6-.7.8-1.3zm-4.4-2.2h4.4c-.1-.7-.2-1.2-.5-1.5-.4-.5-1-.8-1.7-.8-.6 0-1.1.2-1.6.6-.3.5-.6 1-.6 1.7zM198.7 54.5h1.3v3.3h3.7v-3.3h1.3v7.9h-1.3v-3.5H200v3.5h-1.3v-7.9zM212.6 59.9l1.4.2c-.2.8-.6 1.4-1.2 1.9-.6.4-1.3.7-2.3.7-1.2 0-2.1-.4-2.8-1.1-.7-.7-1-1.7-1-3s.3-2.4 1-3.1c.7-.7 1.6-1.1 2.7-1.1s1.9.4 2.6 1.1c.7.7 1 1.7 1 3v.4h-5.9c0 .9.3 1.5.7 2 .4.5 1 .7 1.7.7.5 0 .9-.1 1.3-.4.3-.3.5-.7.8-1.3zm-4.5-2.2h4.4c-.1-.7-.2-1.2-.5-1.5-.4-.5-1-.8-1.7-.8-.6 0-1.1.2-1.6.6-.3.5-.5 1-.6 1.7zM215.6 54.5h1.3v3.3h3.7v-3.3h1.3v7.9h-1.3v-3.5H217v3.5h-1.3v-7.9zM224.1 54.5h1.3v6l3.7-6h1.4v7.9h-1.3v-6l-3.7 6h-1.4v-7.9zM238.8 54.5v7.9h-1.3v-3.1h-.8c-.5 0-.8.1-1.1.2-.2.1-.6.5-1 1.2l-1.2 1.7h-1.7l1.4-2.1c.4-.7.9-1 1.3-1.1-.8-.1-1.3-.4-1.7-.8-.4-.4-.6-1-.6-1.5 0-.7.2-1.2.7-1.7.5-.4 1.2-.6 2.1-.6h3.9zm-1.3 1.1h-1.9c-.8 0-1.3.1-1.5.4-.2.2-.3.5-.3.9 0 .5.2.8.5 1 .3.2.9.3 1.8.3h1.5v-2.6zM240 62.4l2.9-4.1-2.7-3.8h1.7l1.2 1.9c.2.4.4.6.6.9l.6-.9 1.3-1.9h1.6l-2.7 3.7 2.9 4.2h-1.6l-1.6-2.5-.4-.7-2.1 3.1H240zM254.5 58.9v-1.1c.6 0 1 0 1.2-.1.2 0 .4-.2.6-.4.2-.2.3-.4.3-.7 0-.4-.1-.7-.4-.9-.2-.2-.6-.3-.9-.3-.8 0-1.3.4-1.6 1.3l-1.3-.2c.4-1.5 1.4-2.2 2.9-2.2.8 0 1.5.2 2 .7.5.5.7 1 .7 1.7 0 .6-.3 1.2-.9 1.5.4.2.7.5.9.8.2.3.3.7.3 1.2 0 .7-.3 1.3-.8 1.7-.5.4-1.2.7-2.2.7-1.8 0-2.9-.8-3.1-2.4l1.3-.3c.1.5.3.9.7 1.2.4.3.8.4 1.2.4.5 0 .8-.1 1.1-.4.3-.3.5-.6.5-1 0-.3-.1-.6-.3-.8-.2-.2-.4-.4-.6-.4-.2-.1-.6-.1-1.2-.1-.1 0-.2 0-.4.1zM259.8 65.5v-11h1.2v1c.3-.4.6-.7 1-.9.4-.2.8-.3 1.3-.3.7 0 1.3.2 1.8.5s.9.8 1.2 1.5c.3.6.4 1.3.4 2.1s-.1 1.5-.4 2.2c-.3.6-.7 1.1-1.3 1.5-.6.3-1.1.5-1.8.5-.4 0-.8-.1-1.2-.3-.4-.2-.6-.4-.9-.7v3.9h-1.3zm1.2-7c0 1 .2 1.8.6 2.3.4.5.9.7 1.5.7s1.1-.3 1.5-.8c.4-.5.6-1.3.6-2.3 0-1-.2-1.8-.6-2.3-.4-.5-.9-.8-1.5-.8s-1.1.3-1.5.8c-.4.6-.6 1.4-.6 2.4zM273.7 59.9l1.4.2c-.2.8-.6 1.4-1.2 1.9-.6.4-1.3.7-2.3.7-1.2 0-2.1-.4-2.8-1.1-.7-.7-1-1.7-1-3s.3-2.4 1-3.1c.7-.7 1.6-1.1 2.7-1.1s1.9.4 2.6 1.1c.7.7 1 1.7 1 3v.4h-5.9c0 .9.3 1.5.7 2 .4.5 1 .7 1.7.7.5 0 .9-.1 1.3-.4.3-.3.6-.7.8-1.3zm-4.4-2.2h4.4c-.1-.7-.2-1.2-.5-1.5-.4-.5-1-.8-1.7-.8-.6 0-1.1.2-1.6.6-.3.5-.6 1-.6 1.7zM276.8 54.5h1.3v3.3h3.7v-3.3h1.3v7.9h-1.3v-3.5h-3.7v3.5h-1.3v-7.9zM285.2 54.5h1.3v6l3.7-6h1.4v7.9h-1.3v-6l-3.7 6h-1.4v-7.9zM300 54.5v7.9h-1.3v-3.1h-.8c-.5 0-.8.1-1.1.2-.2.1-.6.5-1 1.2l-1.2 1.7H293l1.4-2.1c.4-.7.9-1 1.3-1.1-.8-.1-1.3-.4-1.7-.8-.4-.4-.6-1-.6-1.5 0-.7.2-1.2.7-1.7.5-.4 1.2-.6 2.1-.6h3.8zm-1.3 1.1h-1.9c-.8 0-1.3.1-1.5.4-.2.2-.3.5-.3.9 0 .5.2.8.5 1 .3.2.9.3 1.8.3h1.5v-2.6z"/></svg>