<?xml version="1.0" encoding="utf-8"?>
<!-- Generator: Adobe Illustrator 25.2.3, SVG Export Plug-In . SVG Version: 6.00 Build 0)  -->
<svg version="1.1" id="Layer_1" xmlns="http://www.w3.org/2000/svg" xmlns:xlink="http://www.w3.org/1999/xlink" x="0px" y="0px"
	 viewBox="0 0 282 38.4" style="enable-background:new 0 0 282 38.4;" xml:space="preserve">
<style type="text/css">
	.st0{fill:#147BB8;}
</style>
<g>
	<path class="st0" d="M0.5,0h1.2v4.3L4.3,0h1.3v6.4H4.4V2.3L1.8,6.5H0.5V0z"/>
	<path class="st0" d="M6.6,1.8h1.5l1.2,3.3l1.2-3.3H12v4.7H11V3.4L9.8,6.5H8.8L7.7,3.4v3.1H6.6V1.8z"/>
	<path class="st0" d="M12.9,1.8H17v4.7h-1.2V2.8h-1.7v3.7h-1.2V1.8z"/>
	<path class="st0" d="M17.8,4.1c0-0.4,0.1-0.8,0.3-1.2S18.6,2.2,19,2c0.4-0.2,0.8-0.3,1.2-0.3c0.7,0,1.3,0.2,1.7,0.7
		c0.5,0.5,0.7,1,0.7,1.7c0,0.7-0.2,1.3-0.7,1.8c-0.5,0.5-1,0.7-1.7,0.7c-0.4,0-0.8-0.1-1.2-0.3s-0.7-0.5-0.9-0.9
		C17.9,5.1,17.8,4.6,17.8,4.1z M19.1,4.2c0,0.5,0.1,0.8,0.3,1.1s0.5,0.4,0.8,0.4s0.6-0.1,0.8-0.4s0.3-0.6,0.3-1.1
		c0-0.5-0.1-0.8-0.3-1.1s-0.5-0.4-0.8-0.4s-0.6,0.1-0.8,0.4S19.1,3.7,19.1,4.2z"/>
	<path class="st0" d="M23.2,1.8h1.2v0.7c0.1-0.2,0.4-0.4,0.6-0.6s0.5-0.2,0.8-0.2c0.5,0,1,0.2,1.4,0.6s0.6,1,0.6,1.8
		c0,0.8-0.2,1.4-0.6,1.8c-0.4,0.4-0.8,0.6-1.4,0.6c-0.3,0-0.5-0.1-0.7-0.2c-0.2-0.1-0.4-0.3-0.7-0.5v2.4h-1.2V1.8z M24.4,4.1
		c0,0.5,0.1,0.9,0.3,1.2c0.2,0.2,0.5,0.4,0.8,0.4c0.3,0,0.5-0.1,0.7-0.3c0.2-0.2,0.3-0.6,0.3-1.1c0-0.5-0.1-0.9-0.3-1.1
		c-0.2-0.2-0.4-0.4-0.7-0.4c-0.3,0-0.6,0.1-0.8,0.3C24.5,3.3,24.4,3.6,24.4,4.1z"/>
	<path class="st0" d="M27.8,1.8H32v1h-1.5v3.7h-1.2V2.8h-1.5V1.8z"/>
	<path class="st0" d="M31.9,1.8h4.2v1h-1.5v3.7h-1.2V2.8h-1.5V1.8z"/>
	<path class="st0" d="M37.4,3.2L36.3,3c0.1-0.5,0.3-0.8,0.7-1s0.8-0.3,1.4-0.3c0.6,0,1,0.1,1.2,0.2C39.8,2,40,2.2,40.1,2.4
		c0.1,0.2,0.2,0.6,0.2,1.1l0,1.4c0,0.4,0,0.7,0.1,0.9c0,0.2,0.1,0.4,0.2,0.6h-1.2c0-0.1-0.1-0.2-0.1-0.4c0-0.1,0-0.1,0-0.1
		c-0.2,0.2-0.4,0.4-0.7,0.5c-0.2,0.1-0.5,0.2-0.8,0.2c-0.5,0-0.9-0.1-1.1-0.4c-0.3-0.3-0.4-0.6-0.4-1c0-0.3,0.1-0.5,0.2-0.7
		c0.1-0.2,0.3-0.4,0.5-0.5c0.2-0.1,0.6-0.2,1-0.3c0.6-0.1,1-0.2,1.2-0.3V3.3c0-0.2-0.1-0.4-0.2-0.5c-0.1-0.1-0.3-0.2-0.7-0.2
		c-0.2,0-0.4,0-0.5,0.1C37.6,2.9,37.5,3,37.4,3.2z M39.1,4.2c-0.2,0.1-0.4,0.1-0.8,0.2c-0.3,0.1-0.6,0.1-0.7,0.2
		c-0.2,0.1-0.2,0.3-0.2,0.4c0,0.2,0.1,0.3,0.2,0.4s0.3,0.2,0.5,0.2c0.2,0,0.4-0.1,0.6-0.2C38.9,5.4,39,5.3,39,5.1c0-0.1,0-0.3,0-0.6
		V4.2z"/>
	<path class="st0" d="M40.6,1.8h1.3L43,5.1l1.1-3.3h1.3l-1.6,4.5l-0.3,0.8c-0.1,0.3-0.2,0.5-0.3,0.6c-0.1,0.1-0.2,0.3-0.3,0.3
		c-0.1,0.1-0.3,0.2-0.5,0.2c-0.2,0-0.4,0.1-0.6,0.1c-0.2,0-0.5,0-0.7-0.1l-0.1-1c0.2,0,0.4,0.1,0.5,0.1c0.3,0,0.5-0.1,0.6-0.3
		c0.1-0.2,0.2-0.4,0.3-0.6L40.6,1.8z"/>
	<path class="st0" d="M45.9,1.8H47v3.7h1.4V1.8h1.1v3.7H51V1.8h1.1v4.7h-6.3V1.8z"/>
	<path class="st0" d="M53.1,1.8h1.2v1.9h1.2c0.5,0,0.9,0,1.1,0.1c0.3,0.1,0.5,0.2,0.7,0.5c0.2,0.2,0.3,0.5,0.3,0.8
		c0,0.5-0.2,0.8-0.5,1c-0.3,0.2-0.8,0.3-1.4,0.3h-2.6V1.8z M54.3,5.7h1.1c0.3,0,0.5,0,0.7-0.1s0.2-0.2,0.2-0.5
		c0-0.2-0.1-0.4-0.3-0.5c-0.2-0.1-0.5-0.1-0.9-0.1h-0.8V5.7z M58.3,1.8h1.2v4.7h-1.2V1.8z"/>
	<path class="st0" d="M64.6,6.5v-2c-0.2,0-0.3,0-0.3,0.1c-0.1,0.1-0.2,0.2-0.3,0.5l-0.6,1.3H62l0.7-1.3c0.3-0.6,0.7-1,1-1.1
		c-0.3-0.1-0.5-0.4-0.6-0.8C63,3,62.9,2.8,62.8,2.7c-0.1-0.1-0.3-0.1-0.6-0.1V1.8c0.2,0,0.4,0,0.5,0c0.3,0,0.5,0.1,0.7,0.2
		s0.4,0.4,0.5,0.9c0.1,0.4,0.2,0.6,0.3,0.7c0.1,0.1,0.2,0.2,0.4,0.2V1.8h1.2v1.9c0.2,0,0.3-0.1,0.4-0.2c0.1-0.1,0.2-0.3,0.3-0.7
		C66.6,2.4,66.8,2.1,67,2c0.2-0.1,0.4-0.2,0.7-0.2c0.1,0,0.2,0,0.5,0v0.8c-0.3,0-0.5,0-0.6,0.1c-0.1,0.1-0.2,0.3-0.3,0.6
		c-0.1,0.4-0.4,0.7-0.6,0.8c0.4,0.1,0.7,0.5,1,1.1l0.7,1.3H67l-0.6-1.3c-0.1-0.2-0.2-0.4-0.3-0.5S66,4.5,65.8,4.5v2H64.6z"/>
	<path class="st0" d="M72.8,4.1c0,0.7-0.2,1.3-0.5,1.7c-0.4,0.5-0.9,0.7-1.6,0.7c-0.8,0-1.4-0.3-1.8-0.8c-0.3-0.5-0.5-1.1-0.5-2h3.1
		c0-0.3-0.1-0.6-0.3-0.8c-0.2-0.2-0.4-0.3-0.8-0.3c-0.4,0-0.7,0.2-0.8,0.7l-1.2-0.2c0.3-0.9,1-1.4,2-1.4c0.8,0,1.4,0.3,1.8,0.8
		C72.6,2.9,72.8,3.5,72.8,4.1z M71.5,4.6h-1.8c0,0.3,0.1,0.6,0.2,0.8c0.2,0.2,0.4,0.3,0.7,0.3c0.3,0,0.5-0.1,0.7-0.3
		C71.4,5.1,71.5,4.9,71.5,4.6z"/>
	<path class="st0" d="M73.3,1.8h1.2v1.7h1.8V1.8h1.2v4.7h-1.2v-2h-1.8v2h-1.2V1.8z"/>
	<path class="st0" d="M81.2,5l1.2,0.2c-0.2,0.5-0.4,0.8-0.7,1c-0.3,0.2-0.8,0.4-1.3,0.4c-0.8,0-1.4-0.3-1.8-0.8
		c-0.3-0.4-0.5-1-0.5-1.6c0-0.8,0.2-1.4,0.6-1.8c0.4-0.4,0.9-0.7,1.5-0.7c0.7,0,1.2,0.2,1.6,0.7c0.4,0.5,0.6,1.2,0.6,2.1h-3.1
		c0,0.4,0.1,0.7,0.3,0.9c0.2,0.2,0.4,0.3,0.7,0.3c0.2,0,0.4-0.1,0.5-0.2S81.1,5.2,81.2,5z M81.3,3.8c0-0.4-0.1-0.6-0.3-0.8
		c-0.2-0.2-0.4-0.3-0.6-0.3c-0.3,0-0.5,0.1-0.7,0.3s-0.3,0.5-0.3,0.8H81.3z"/>
	<path class="st0" d="M90.1,7.9h-1.1V6.5h-0.4l-0.8-1.7c0,0,0-0.1-0.1-0.1c0,0-0.1-0.1-0.2-0.3c-0.1-0.3-0.3-0.5-0.3-0.5
		c-0.1-0.1-0.3-0.2-0.6-0.2v2.8h-1.3V0h1.3v2.7c0.3,0,0.6-0.2,0.7-0.4c0-0.1,0.2-0.3,0.3-0.8c0.2-0.6,0.5-1,0.7-1.2
		C88.8,0.1,89.2,0,89.9,0c0,0,0.1,0,0.2,0v1l-0.2,0c-0.4,0-0.7,0.1-0.9,0.4c-0.1,0.1-0.2,0.4-0.3,0.8c-0.1,0.3-0.2,0.5-0.3,0.6
		c-0.1,0.2-0.3,0.3-0.5,0.4c0.3,0.1,0.5,0.2,0.7,0.5c0.2,0.3,0.4,0.6,0.6,1.1l0.3,0.7h0.5V7.9z"/>
	<path class="st0" d="M90.6,6.5V0h2.1c0.8,0,1.3,0,1.5,0.1c0.4,0.1,0.7,0.3,0.9,0.6c0.2,0.3,0.4,0.7,0.4,1.3c0,0.4-0.1,0.7-0.2,1
		S95,3.5,94.7,3.7c-0.2,0.2-0.4,0.3-0.7,0.3c-0.3,0.1-0.8,0.1-1.3,0.1h-0.8v2.4H90.6z M91.9,1.1V3h0.7c0.5,0,0.9,0,1-0.1
		s0.3-0.2,0.4-0.3c0.1-0.1,0.1-0.3,0.1-0.5c0-0.2-0.1-0.4-0.2-0.6c-0.1-0.2-0.3-0.2-0.5-0.3c-0.2,0-0.5,0-0.9,0H91.9z"/>
	<path class="st0" d="M96.1,4.8V3.5h2.4v1.2H96.1z"/>
	<path class="st0" d="M102.8,6.5h-3.5v1.2h-1V5.5h0.5c0.2-0.2,0.4-0.6,0.5-1.1s0.2-1.4,0.2-2.6h3.8v3.7h0.5v2.2h-1V6.5z M102.1,5.5
		l0-2.6h-1.5c0,1.3-0.3,2.2-0.6,2.6H102.1z"/>
	<path class="st0" d="M105.3,3.2L104.1,3c0.1-0.5,0.3-0.8,0.7-1s0.8-0.3,1.4-0.3c0.6,0,1,0.1,1.2,0.2c0.3,0.1,0.5,0.3,0.6,0.5
		c0.1,0.2,0.2,0.6,0.2,1.1l0,1.4c0,0.4,0,0.7,0.1,0.9c0,0.2,0.1,0.4,0.2,0.6h-1.2c0-0.1-0.1-0.2-0.1-0.4c0-0.1,0-0.1,0-0.1
		c-0.2,0.2-0.4,0.4-0.7,0.5c-0.2,0.1-0.5,0.2-0.8,0.2c-0.5,0-0.9-0.1-1.1-0.4c-0.3-0.3-0.4-0.6-0.4-1c0-0.3,0.1-0.5,0.2-0.7
		c0.1-0.2,0.3-0.4,0.5-0.5c0.2-0.1,0.6-0.2,1-0.3c0.6-0.1,1-0.2,1.2-0.3V3.3c0-0.2-0.1-0.4-0.2-0.5c-0.1-0.1-0.3-0.2-0.7-0.2
		c-0.2,0-0.4,0-0.5,0.1C105.4,2.9,105.3,3,105.3,3.2z M106.9,4.2c-0.2,0.1-0.4,0.1-0.8,0.2c-0.3,0.1-0.6,0.1-0.7,0.2
		c-0.2,0.1-0.2,0.3-0.2,0.4c0,0.2,0.1,0.3,0.2,0.4s0.3,0.2,0.5,0.2c0.2,0,0.4-0.1,0.6-0.2c0.1-0.1,0.2-0.2,0.3-0.4
		c0-0.1,0-0.3,0-0.6V4.2z"/>
	<path class="st0" d="M110.7,1.8h4.2v1h-1.5v3.7h-1.2V2.8h-1.5V1.8z"/>
	<path class="st0" d="M119.6,1.8l-1.8,4.7h1.4v0.8h-1.4v1h-1.2v-1h-1.4V6.5h1.4l-1.8-4.7h1.3l1.1,3.3l1.1-3.3H119.6z"/>
	<path class="st0" d="M119.4,1.8h4.2v1h-1.5v3.7h-1.2V2.8h-1.5V1.8z"/>
	<path class="st0" d="M124.1,1.8h1.2v1.9h1.2c0.5,0,0.9,0,1.1,0.1c0.3,0.1,0.5,0.2,0.7,0.5c0.2,0.2,0.3,0.5,0.3,0.8
		c0,0.5-0.2,0.8-0.5,1c-0.3,0.2-0.8,0.3-1.4,0.3h-2.6V1.8z M125.3,5.7h1.1c0.3,0,0.5,0,0.6-0.1s0.2-0.2,0.2-0.5
		c0-0.2-0.1-0.4-0.3-0.5c-0.2-0.1-0.5-0.1-0.9-0.1h-0.8V5.7z M129.3,1.8h1.2v4.7h-1.2V1.8z"/>
	<path class="st0" d="M131.4,1.8h1.2v1.7h1.8V1.8h1.2v4.7h-1.2v-2h-1.8v2h-1.2V1.8z"/>
	<path class="st0" d="M136,1.8h1.3l1.1,3.3l1.1-3.3h1.3l-1.6,4.5l-0.3,0.8c-0.1,0.3-0.2,0.5-0.3,0.6c-0.1,0.1-0.2,0.3-0.3,0.3
		c-0.1,0.1-0.3,0.2-0.5,0.2c-0.2,0-0.4,0.1-0.6,0.1c-0.2,0-0.5,0-0.7-0.1l-0.1-1c0.2,0,0.4,0.1,0.5,0.1c0.3,0,0.5-0.1,0.6-0.3
		c0.1-0.2,0.2-0.4,0.3-0.6L136,1.8z"/>
	<path class="st0" d="M141.2,1.8h1.1v3.7h1.4V1.8h1.1v3.7h1.4V1.8h1.1v4.7h-6.3V1.8z"/>
	<path class="st0" d="M148.5,1.8h1.2v1.9h1.2c0.5,0,0.9,0,1.1,0.1c0.3,0.1,0.5,0.2,0.7,0.5c0.2,0.2,0.3,0.5,0.3,0.8
		c0,0.5-0.2,0.8-0.5,1c-0.3,0.2-0.8,0.3-1.4,0.3h-2.6V1.8z M149.7,5.7h1.1c0.3,0,0.5,0,0.7-0.1c0.1-0.1,0.2-0.2,0.2-0.5
		c0-0.2-0.1-0.4-0.3-0.5c-0.2-0.1-0.5-0.1-0.9-0.1h-0.8V5.7z M153.7,1.8h1.2v4.7h-1.2V1.8z"/>
	<path class="st0" d="M156.2,1.8h4.1v4.7h-1.2V2.8h-1.7v2.1c0,0.5-0.1,0.9-0.2,1.1c-0.1,0.2-0.3,0.4-0.4,0.4
		c-0.1,0.1-0.4,0.1-0.7,0.1c-0.2,0-0.5,0-0.8-0.1V5.6c0,0,0.1,0,0.2,0c0.1,0,0.2,0,0.3,0c0.2,0,0.3-0.1,0.3-0.2
		c0-0.1,0.1-0.4,0.1-0.9V1.8z"/>
	<path class="st0" d="M162.1,3.2L161,3c0.1-0.5,0.3-0.8,0.7-1s0.8-0.3,1.4-0.3c0.6,0,1,0.1,1.2,0.2c0.3,0.1,0.5,0.3,0.6,0.5
		C165,2.6,165,3,165,3.5l0,1.4c0,0.4,0,0.7,0.1,0.9c0,0.2,0.1,0.4,0.2,0.6h-1.2c0-0.1-0.1-0.2-0.1-0.4c0-0.1,0-0.1,0-0.1
		c-0.2,0.2-0.4,0.4-0.7,0.5c-0.2,0.1-0.5,0.2-0.8,0.2c-0.5,0-0.9-0.1-1.1-0.4c-0.3-0.3-0.4-0.6-0.4-1c0-0.3,0.1-0.5,0.2-0.7
		c0.1-0.2,0.3-0.4,0.5-0.5c0.2-0.1,0.6-0.2,1-0.3c0.6-0.1,1-0.2,1.2-0.3V3.3c0-0.2-0.1-0.4-0.2-0.5c-0.1-0.1-0.3-0.2-0.7-0.2
		c-0.2,0-0.4,0-0.5,0.1C162.3,2.9,162.2,3,162.1,3.2z M163.8,4.2c-0.2,0.1-0.4,0.1-0.8,0.2c-0.3,0.1-0.6,0.1-0.7,0.2
		c-0.2,0.1-0.2,0.3-0.2,0.4c0,0.2,0.1,0.3,0.2,0.4s0.3,0.2,0.5,0.2c0.2,0,0.4-0.1,0.6-0.2c0.1-0.1,0.2-0.2,0.3-0.4
		c0-0.1,0-0.3,0-0.6V4.2z"/>
	<path class="st0" d="M165.9,1.8h1.2v0.7c0.2-0.2,0.4-0.4,0.6-0.6c0.3-0.1,0.5-0.2,0.8-0.2c0.5,0,1,0.2,1.4,0.6s0.6,1,0.6,1.8
		c0,0.8-0.2,1.4-0.6,1.8c-0.4,0.4-0.8,0.6-1.4,0.6c-0.3,0-0.5-0.1-0.7-0.2c-0.2-0.1-0.4-0.3-0.7-0.5v2.4h-1.2V1.8z M167.1,4.1
		c0,0.5,0.1,0.9,0.3,1.2c0.2,0.2,0.5,0.4,0.8,0.4c0.3,0,0.5-0.1,0.7-0.3c0.2-0.2,0.3-0.6,0.3-1.1c0-0.5-0.1-0.9-0.3-1.1
		c-0.2-0.2-0.4-0.4-0.7-0.4c-0.3,0-0.6,0.1-0.8,0.3C167.2,3.3,167.1,3.6,167.1,4.1z"/>
	<path class="st0" d="M174.7,6.5h-3.5v1.2h-1V5.5h0.5c0.2-0.2,0.4-0.6,0.5-1.1c0.1-0.5,0.2-1.4,0.2-2.6h3.8v3.7h0.5v2.2h-1V6.5z
		 M174,5.5l0-2.6h-1.5c-0.1,1.3-0.3,2.2-0.6,2.6H174z"/>
	<path class="st0" d="M177.2,3.2L176.1,3c0.1-0.5,0.3-0.8,0.7-1s0.8-0.3,1.4-0.3c0.6,0,1,0.1,1.2,0.2c0.3,0.1,0.5,0.3,0.6,0.5
		c0.1,0.2,0.2,0.6,0.2,1.1l0,1.4c0,0.4,0,0.7,0.1,0.9c0,0.2,0.1,0.4,0.2,0.6h-1.2c0-0.1-0.1-0.2-0.1-0.4c0-0.1,0-0.1,0-0.1
		c-0.2,0.2-0.4,0.4-0.7,0.5c-0.2,0.1-0.5,0.2-0.8,0.2c-0.5,0-0.9-0.1-1.1-0.4c-0.3-0.3-0.4-0.6-0.4-1c0-0.3,0.1-0.5,0.2-0.7
		c0.1-0.2,0.3-0.4,0.5-0.5c0.2-0.1,0.6-0.2,1-0.3c0.6-0.1,1-0.2,1.2-0.3V3.3c0-0.2-0.1-0.4-0.2-0.5c-0.1-0.1-0.3-0.2-0.7-0.2
		c-0.2,0-0.4,0-0.5,0.1C177.4,2.9,177.3,3,177.2,3.2z M178.8,4.2c-0.2,0.1-0.4,0.1-0.8,0.2c-0.3,0.1-0.6,0.1-0.7,0.2
		c-0.2,0.1-0.2,0.3-0.2,0.4c0,0.2,0.1,0.3,0.2,0.4s0.3,0.2,0.5,0.2c0.2,0,0.4-0.1,0.6-0.2c0.1-0.1,0.2-0.2,0.3-0.4
		c0-0.1,0-0.3,0-0.6V4.2z"/>
	<path class="st0" d="M180.9,1.8h1.2v1.7h1.8V1.8h1.2v4.7h-1.2v-2h-1.8v2h-1.2V1.8z"/>
	<path class="st0" d="M188.2,1.8h1.1v3.7h1.4V1.8h1.1v3.7h1.4V1.8h1.1v4.7h-6.3V1.8z"/>
	<path class="st0" d="M196.4,3.2L195.3,3c0.1-0.5,0.3-0.8,0.7-1s0.8-0.3,1.4-0.3c0.6,0,1,0.1,1.2,0.2c0.3,0.1,0.5,0.3,0.6,0.5
		c0.1,0.2,0.2,0.6,0.2,1.1l0,1.4c0,0.4,0,0.7,0.1,0.9c0,0.2,0.1,0.4,0.2,0.6h-1.2c0-0.1-0.1-0.2-0.1-0.4c0-0.1,0-0.1,0-0.1
		c-0.2,0.2-0.4,0.4-0.7,0.5c-0.2,0.1-0.5,0.2-0.8,0.2c-0.5,0-0.9-0.1-1.1-0.4c-0.3-0.3-0.4-0.6-0.4-1c0-0.3,0.1-0.5,0.2-0.7
		c0.1-0.2,0.3-0.4,0.5-0.5c0.2-0.1,0.6-0.2,1-0.3c0.6-0.1,1-0.2,1.2-0.3V3.3c0-0.2-0.1-0.4-0.2-0.5c-0.1-0.1-0.3-0.2-0.7-0.2
		c-0.2,0-0.4,0-0.5,0.1C196.6,2.9,196.5,3,196.4,3.2z M198,4.2c-0.2,0.1-0.4,0.1-0.8,0.2c-0.3,0.1-0.6,0.1-0.7,0.2
		c-0.2,0.1-0.2,0.3-0.2,0.4c0,0.2,0.1,0.3,0.2,0.4s0.3,0.2,0.5,0.2c0.2,0,0.4-0.1,0.6-0.2c0.1-0.1,0.2-0.2,0.3-0.4
		c0-0.1,0-0.3,0-0.6V4.2z"/>
	<path class="st0" d="M203.2,2.8h-1.9v1h0.8v0.8h-0.8v1.9h-1.2V4.6h-0.6V3.8h0.6v-2h3.2V2.8z"/>
	<path class="st0" d="M203.6,1.8h1.2v1.9h1.2c0.5,0,0.9,0,1.1,0.1c0.3,0.1,0.5,0.2,0.7,0.5c0.2,0.2,0.3,0.5,0.3,0.8
		c0,0.5-0.2,0.8-0.5,1c-0.3,0.2-0.8,0.3-1.4,0.3h-2.6V1.8z M204.8,5.7h1.1c0.3,0,0.5,0,0.7-0.1c0.1-0.1,0.2-0.2,0.2-0.5
		c0-0.2-0.1-0.4-0.3-0.5c-0.2-0.1-0.5-0.1-0.9-0.1h-0.8V5.7z M208.8,1.8h1.2v4.7h-1.2V1.8z"/>
	<path class="st0" d="M211,1.8h1.5l1.2,3.3l1.2-3.3h1.5v4.7h-1.1V3.4l-1.1,3.1h-1.1L212,3.4v3.1H211V1.8z"/>
	<path class="st0" d="M221.1,6.5h-3.5v1.2h-1V5.5h0.5c0.2-0.2,0.4-0.6,0.5-1.1c0.1-0.5,0.2-1.4,0.2-2.6h3.8v3.7h0.5v2.2h-1V6.5z
		 M220.4,5.5l0-2.6h-1.5c-0.1,1.3-0.3,2.2-0.6,2.6H220.4z"/>
	<path class="st0" d="M223.6,3.2L222.5,3c0.1-0.5,0.3-0.8,0.7-1s0.8-0.3,1.4-0.3c0.6,0,1,0.1,1.2,0.2c0.3,0.1,0.5,0.3,0.6,0.5
		c0.1,0.2,0.2,0.6,0.2,1.1l0,1.4c0,0.4,0,0.7,0.1,0.9c0,0.2,0.1,0.4,0.2,0.6h-1.2c0-0.1-0.1-0.2-0.1-0.4c0-0.1,0-0.1,0-0.1
		c-0.2,0.2-0.4,0.4-0.7,0.5c-0.2,0.1-0.5,0.2-0.8,0.2c-0.5,0-0.9-0.1-1.1-0.4c-0.3-0.3-0.4-0.6-0.4-1c0-0.3,0.1-0.5,0.2-0.7
		c0.1-0.2,0.3-0.4,0.5-0.5c0.2-0.1,0.6-0.2,1-0.3c0.6-0.1,1-0.2,1.2-0.3V3.3c0-0.2-0.1-0.4-0.2-0.5c-0.1-0.1-0.3-0.2-0.7-0.2
		c-0.2,0-0.4,0-0.5,0.1C223.8,2.9,223.7,3,223.6,3.2z M225.3,4.2c-0.2,0.1-0.4,0.1-0.8,0.2c-0.3,0.1-0.6,0.1-0.7,0.2
		c-0.2,0.1-0.2,0.3-0.2,0.4c0,0.2,0.1,0.3,0.2,0.4s0.3,0.2,0.5,0.2c0.2,0,0.4-0.1,0.6-0.2c0.1-0.1,0.2-0.2,0.3-0.4
		c0-0.1,0-0.3,0-0.6V4.2z"/>
	<path class="st0" d="M227.3,1.8h1.2v0.7c0.2-0.2,0.4-0.4,0.6-0.6c0.3-0.1,0.5-0.2,0.8-0.2c0.5,0,1,0.2,1.4,0.6s0.6,1,0.6,1.8
		c0,0.8-0.2,1.4-0.6,1.8c-0.4,0.4-0.8,0.6-1.4,0.6c-0.3,0-0.5-0.1-0.7-0.2c-0.2-0.1-0.4-0.3-0.7-0.5v2.4h-1.2V1.8z M228.6,4.1
		c0,0.5,0.1,0.9,0.3,1.2c0.2,0.2,0.5,0.4,0.8,0.4c0.3,0,0.5-0.1,0.7-0.3c0.2-0.2,0.3-0.6,0.3-1.1c0-0.5-0.1-0.9-0.3-1.1
		c-0.2-0.2-0.4-0.4-0.7-0.4c-0.3,0-0.6,0.1-0.8,0.3C228.7,3.3,228.6,3.6,228.6,4.1z"/>
	<path class="st0" d="M236.2,6.5h-3.5v1.2h-1V5.5h0.5c0.2-0.2,0.4-0.6,0.5-1.1c0.1-0.5,0.2-1.4,0.2-2.6h3.8v3.7h0.5v2.2h-1V6.5z
		 M235.5,5.5l0-2.6H234c-0.1,1.3-0.3,2.2-0.6,2.6H235.5z"/>
	<path class="st0" d="M237.7,1.8h1.2v1.9h1.2c0.5,0,0.9,0,1.1,0.1c0.3,0.1,0.5,0.2,0.7,0.5c0.2,0.2,0.3,0.5,0.3,0.8
		c0,0.5-0.2,0.8-0.5,1c-0.3,0.2-0.8,0.3-1.4,0.3h-2.6V1.8z M239,5.7h1.1c0.3,0,0.5,0,0.7-0.1c0.1-0.1,0.2-0.2,0.2-0.5
		c0-0.2-0.1-0.4-0.3-0.5c-0.2-0.1-0.5-0.1-0.9-0.1H239V5.7z M243,1.8h1.2v4.7H243V1.8z"/>
	<path class="st0" d="M4.3,17.7h-1v-1.2H3l-0.6-1.3c-0.1-0.2-0.2-0.4-0.3-0.5c-0.1-0.1-0.3-0.2-0.5-0.2v2H0.4v-4.7h1.2v1.9
		c0.2,0,0.4-0.1,0.5-0.3c0.1-0.1,0.1-0.3,0.2-0.6c0.1-0.4,0.3-0.7,0.4-0.8c0.2-0.2,0.5-0.3,0.8-0.3c0.1,0,0.3,0,0.5,0v0.8
		c-0.3,0-0.5,0-0.6,0.1c-0.1,0.1-0.2,0.3-0.3,0.6c-0.1,0.4-0.4,0.7-0.6,0.8c0.4,0.1,0.7,0.4,1,1c0,0,0,0.1,0,0.1l0.2,0.3h0.5V17.7z"
		/>
	<path class="st0" d="M5.6,13.2L4.4,13c0.1-0.5,0.3-0.8,0.7-1s0.8-0.3,1.4-0.3c0.6,0,1,0.1,1.2,0.2C8,12,8.2,12.2,8.3,12.4
		c0.1,0.2,0.2,0.6,0.2,1.1l0,1.4c0,0.4,0,0.7,0.1,0.9c0,0.2,0.1,0.4,0.2,0.6H7.5c0-0.1-0.1-0.2-0.1-0.4c0-0.1,0-0.1,0-0.1
		c-0.2,0.2-0.4,0.4-0.7,0.5c-0.2,0.1-0.5,0.2-0.8,0.2c-0.5,0-0.9-0.1-1.1-0.4c-0.3-0.3-0.4-0.6-0.4-1c0-0.3,0.1-0.5,0.2-0.7
		C4.6,14.3,4.8,14.1,5,14c0.2-0.1,0.6-0.2,1-0.3c0.6-0.1,1-0.2,1.2-0.3v-0.1c0-0.2-0.1-0.4-0.2-0.5c-0.1-0.1-0.3-0.2-0.7-0.2
		c-0.2,0-0.4,0-0.5,0.1C5.7,12.9,5.6,13,5.6,13.2z M7.2,14.2c-0.2,0.1-0.4,0.1-0.8,0.2c-0.3,0.1-0.6,0.1-0.7,0.2
		c-0.2,0.1-0.2,0.3-0.2,0.4c0,0.2,0.1,0.3,0.2,0.4s0.3,0.2,0.5,0.2c0.2,0,0.4-0.1,0.6-0.2c0.1-0.1,0.2-0.2,0.3-0.4
		c0-0.1,0-0.3,0-0.6V14.2z"/>
	<path class="st0" d="M12.8,9.9h0.8c0,0.4-0.1,0.7-0.3,0.8c-0.2,0.2-0.6,0.3-1.2,0.3c-0.1,0-0.2,0-0.2,0h-0.2c-0.4,0-0.7,0-1,0.1
		c-0.2,0.1-0.4,0.3-0.6,0.5c-0.2,0.2-0.2,0.7-0.2,1.2c0.2-0.3,0.4-0.6,0.7-0.8s0.6-0.3,1-0.3c0.6,0,1.1,0.2,1.6,0.7
		c0.4,0.5,0.6,1,0.6,1.7c0,0.7-0.2,1.2-0.7,1.7c-0.4,0.5-1,0.7-1.8,0.7c-0.5,0-0.9-0.1-1.3-0.4c-0.4-0.2-0.6-0.6-0.8-1
		c-0.2-0.4-0.2-1.1-0.2-2c0-1.1,0.2-1.9,0.6-2.4s1.1-0.7,2.2-0.7h0.6C12.7,10.1,12.8,10,12.8,9.9z M10.4,14.2c0,0.4,0.1,0.8,0.3,1
		c0.2,0.2,0.5,0.4,0.8,0.4c0.3,0,0.6-0.1,0.8-0.4c0.2-0.3,0.3-0.6,0.3-1c0-0.4-0.1-0.7-0.3-1c-0.2-0.3-0.5-0.4-0.8-0.4
		c-0.3,0-0.6,0.1-0.8,0.4C10.5,13.4,10.4,13.8,10.4,14.2z"/>
	<path class="st0" d="M14.6,11.8h1.2v1.9h1.2c0.5,0,0.9,0,1.1,0.1c0.3,0.1,0.5,0.2,0.7,0.5c0.2,0.2,0.3,0.5,0.3,0.8
		c0,0.5-0.2,0.8-0.5,1c-0.3,0.2-0.8,0.3-1.4,0.3h-2.6V11.8z M15.8,15.7H17c0.3,0,0.5,0,0.7-0.1s0.2-0.2,0.2-0.5
		c0-0.2-0.1-0.4-0.3-0.5c-0.2-0.1-0.5-0.1-0.9-0.1h-0.8V15.7z M19.8,11.8H21v4.7h-1.2V11.8z"/>
	<path class="st0" d="M22.3,11.8h4.1v4.7h-1.2v-3.7h-1.7v2.1c0,0.5-0.1,0.9-0.2,1.1c-0.1,0.2-0.3,0.4-0.4,0.4
		c-0.1,0.1-0.4,0.1-0.7,0.1c-0.2,0-0.5,0-0.8-0.1v-0.9c0,0,0.1,0,0.2,0c0.1,0,0.2,0,0.3,0c0.2,0,0.3-0.1,0.3-0.2
		c0-0.1,0.1-0.4,0.1-0.9V11.8z"/>
	<path class="st0" d="M31.2,16.5h-3.5v1.2h-1v-2.2h0.5c0.2-0.2,0.4-0.6,0.5-1.1s0.2-1.4,0.2-2.6h3.8v3.7h0.5v2.2h-1V16.5z
		 M30.5,15.5l0-2.6H29c0,1.3-0.3,2.2-0.6,2.6H30.5z"/>
	<path class="st0" d="M33.7,13.2L32.6,13c0.1-0.5,0.3-0.8,0.7-1s0.8-0.3,1.4-0.3c0.6,0,1,0.1,1.2,0.2c0.3,0.1,0.5,0.3,0.6,0.5
		c0.1,0.2,0.2,0.6,0.2,1.1l0,1.4c0,0.4,0,0.7,0.1,0.9c0,0.2,0.1,0.4,0.2,0.6h-1.2c0-0.1-0.1-0.2-0.1-0.4c0-0.1,0-0.1,0-0.1
		c-0.2,0.2-0.4,0.4-0.7,0.5c-0.2,0.1-0.5,0.2-0.8,0.2c-0.5,0-0.9-0.1-1.1-0.4c-0.3-0.3-0.4-0.6-0.4-1c0-0.3,0.1-0.5,0.2-0.7
		c0.1-0.2,0.3-0.4,0.5-0.5c0.2-0.1,0.6-0.2,1-0.3c0.6-0.1,1-0.2,1.2-0.3v-0.1c0-0.2-0.1-0.4-0.2-0.5c-0.1-0.1-0.3-0.2-0.7-0.2
		c-0.2,0-0.4,0-0.5,0.1C33.9,12.9,33.8,13,33.7,13.2z M35.3,14.2c-0.2,0.1-0.4,0.1-0.8,0.2c-0.3,0.1-0.6,0.1-0.7,0.2
		c-0.2,0.1-0.2,0.3-0.2,0.4c0,0.2,0.1,0.3,0.2,0.4s0.3,0.2,0.5,0.2c0.2,0,0.4-0.1,0.6-0.2c0.1-0.1,0.2-0.2,0.3-0.4
		c0-0.1,0-0.3,0-0.6V14.2z"/>
	<path class="st0" d="M36.9,11.8h1.3l1.1,3.3l1.1-3.3h1.3L40,16.3l-0.3,0.8c-0.1,0.3-0.2,0.5-0.3,0.6c-0.1,0.1-0.2,0.3-0.3,0.3
		c-0.1,0.1-0.3,0.2-0.5,0.2c-0.2,0-0.4,0.1-0.6,0.1c-0.2,0-0.5,0-0.7-0.1l-0.1-1c0.2,0,0.4,0.1,0.5,0.1c0.3,0,0.5-0.1,0.6-0.3
		c0.1-0.2,0.2-0.4,0.3-0.6L36.9,11.8z"/>
	<path class="st0" d="M45.2,12.8h-1.9v1h0.8v0.8h-0.8v1.9h-1.2v-1.9h-0.6v-0.8h0.6v-2h3.2V12.8z"/>
	<path class="st0" d="M46.5,13.2L45.4,13c0.1-0.5,0.3-0.8,0.7-1s0.8-0.3,1.4-0.3c0.6,0,1,0.1,1.2,0.2c0.3,0.1,0.5,0.3,0.6,0.5
		c0.1,0.2,0.2,0.6,0.2,1.1l0,1.4c0,0.4,0,0.7,0.1,0.9c0,0.2,0.1,0.4,0.2,0.6h-1.2c0-0.1-0.1-0.2-0.1-0.4c0-0.1,0-0.1,0-0.1
		c-0.2,0.2-0.4,0.4-0.7,0.5c-0.2,0.1-0.5,0.2-0.8,0.2c-0.5,0-0.9-0.1-1.1-0.4c-0.3-0.3-0.4-0.6-0.4-1c0-0.3,0.1-0.5,0.2-0.7
		c0.1-0.2,0.3-0.4,0.5-0.5c0.2-0.1,0.6-0.2,1-0.3c0.6-0.1,1-0.2,1.2-0.3v-0.1c0-0.2-0.1-0.4-0.2-0.5c-0.1-0.1-0.3-0.2-0.7-0.2
		c-0.2,0-0.4,0-0.5,0.1C46.7,12.9,46.6,13,46.5,13.2z M48.1,14.2c-0.2,0.1-0.4,0.1-0.8,0.2c-0.3,0.1-0.6,0.1-0.7,0.2
		c-0.2,0.1-0.2,0.3-0.2,0.4c0,0.2,0.1,0.3,0.2,0.4s0.3,0.2,0.5,0.2c0.2,0,0.4-0.1,0.6-0.2c0.1-0.1,0.2-0.2,0.3-0.4
		c0-0.1,0-0.3,0-0.6V14.2z"/>
	<path class="st0" d="M51.9,11.8h1.3l1.1,3.3l1.1-3.3h1.3L55,16.3l-0.3,0.8c-0.1,0.3-0.2,0.5-0.3,0.6c-0.1,0.1-0.2,0.3-0.3,0.3
		c-0.1,0.1-0.3,0.2-0.5,0.2c-0.2,0-0.4,0.1-0.6,0.1c-0.2,0-0.5,0-0.7-0.1l-0.1-1c0.2,0,0.4,0.1,0.5,0.1c0.3,0,0.5-0.1,0.6-0.3
		c0.1-0.2,0.2-0.4,0.3-0.6L51.9,11.8z"/>
	<path class="st0" d="M61.2,14.1c0,0.7-0.2,1.3-0.5,1.7c-0.4,0.5-0.9,0.7-1.6,0.7c-0.8,0-1.4-0.3-1.8-0.8c-0.3-0.5-0.5-1.1-0.5-2
		h3.1c0-0.3-0.1-0.6-0.3-0.8c-0.2-0.2-0.4-0.3-0.8-0.3c-0.4,0-0.7,0.2-0.8,0.7l-1.2-0.2c0.3-0.9,1-1.4,2-1.4c0.8,0,1.4,0.3,1.8,0.8
		C61,12.9,61.2,13.5,61.2,14.1z M59.9,14.6h-1.8c0,0.3,0.1,0.6,0.2,0.8c0.2,0.2,0.4,0.3,0.7,0.3c0.3,0,0.5-0.1,0.7-0.3
		C59.8,15.1,59.9,14.9,59.9,14.6z"/>
	<path class="st0" d="M61.8,11.8H63v1.9c0.2,0,0.4-0.1,0.4-0.2c0.1-0.1,0.2-0.3,0.3-0.7c0.2-0.5,0.3-0.8,0.5-0.9s0.4-0.2,0.7-0.2
		c0.1,0,0.3,0,0.5,0l0,0.8c-0.3,0-0.5,0-0.6,0.1c-0.1,0.1-0.2,0.3-0.3,0.6c-0.1,0.4-0.4,0.7-0.6,0.8c0.4,0.1,0.7,0.4,1,1
		c0,0,0,0.1,0,0.1l0.7,1.3h-1.3l-0.6-1.3c-0.1-0.3-0.2-0.4-0.3-0.5c-0.1-0.1-0.2-0.1-0.4-0.1v2h-1.2V11.8z"/>
	<path class="st0" d="M66,11.2V10h1.2v1.1H66z M66,16.5v-4.7h1.2v4.7H66z"/>
	<path class="st0" d="M68.5,11.8h4.1v4.7h-1.2v-3.7h-1.7v2.1c0,0.5-0.1,0.9-0.2,1.1c-0.1,0.2-0.3,0.4-0.4,0.4
		c-0.1,0.1-0.4,0.1-0.7,0.1c-0.2,0-0.5,0-0.8-0.1v-0.9c0,0,0.1,0,0.2,0c0.1,0,0.2,0,0.3,0c0.2,0,0.3-0.1,0.3-0.2
		c0-0.1,0.1-0.4,0.1-0.9V11.8z"/>
	<path class="st0" d="M76.2,15l1.2,0.2c-0.2,0.5-0.4,0.8-0.7,1c-0.3,0.2-0.8,0.4-1.3,0.4c-0.8,0-1.4-0.3-1.8-0.8
		c-0.3-0.4-0.5-1-0.5-1.6c0-0.8,0.2-1.4,0.6-1.8c0.4-0.4,0.9-0.7,1.5-0.7c0.7,0,1.2,0.2,1.6,0.7c0.4,0.5,0.6,1.2,0.6,2.1h-3.1
		c0,0.4,0.1,0.7,0.3,0.9c0.2,0.2,0.4,0.3,0.7,0.3c0.2,0,0.4-0.1,0.5-0.2S76.1,15.2,76.2,15z M76.3,13.8c0-0.4-0.1-0.6-0.3-0.8
		c-0.2-0.2-0.4-0.3-0.6-0.3c-0.3,0-0.5,0.1-0.7,0.3s-0.3,0.5-0.3,0.8H76.3z"/>
	<path class="st0" d="M77.5,11.8h4.2v1h-1.5v3.7H79v-3.7h-1.5V11.8z"/>
	<path class="st0" d="M81.6,11.8h4.2v1h-1.5v3.7h-1.2v-3.7h-1.5V11.8z"/>
	<path class="st0" d="M86.2,11.2V10h1.2v1.1H86.2z M86.2,16.5v-4.7h1.2v4.7H86.2z"/>
	<path class="st0" d="M94.9,11.8l-1.8,4.7h1.4v0.8h-1.4v1h-1.2v-1h-1.4v-0.8h1.4L90,11.8h1.3l1.1,3.3l1.1-3.3H94.9z"/>
	<path class="st0" d="M95.3,11.8h1.2v2.9l1.9-2.9h1.2v4.7h-1.2v-3l-1.9,3h-1.2V11.8z M98.2,9.9h0.6c0,0.4-0.2,0.7-0.4,0.9
		c-0.2,0.2-0.6,0.3-1,0.3s-0.7-0.1-1-0.3c-0.2-0.2-0.4-0.5-0.4-0.9h0.6c0,0.2,0.1,0.4,0.2,0.5c0.1,0.1,0.3,0.2,0.5,0.2
		s0.4-0.1,0.5-0.2C98.1,10.3,98.2,10.1,98.2,9.9z"/>
	<path class="st0" d="M100.5,11.8h1.2v1.9h1.2c0.5,0,0.9,0,1.1,0.1c0.3,0.1,0.5,0.2,0.7,0.5c0.2,0.2,0.3,0.5,0.3,0.8
		c0,0.5-0.2,0.8-0.5,1c-0.3,0.2-0.8,0.3-1.4,0.3h-2.6V11.8z M101.8,15.7h1.1c0.3,0,0.5,0,0.7-0.1s0.2-0.2,0.2-0.5
		c0-0.2-0.1-0.4-0.3-0.5c-0.2-0.1-0.5-0.1-0.9-0.1h-0.8V15.7z M105.7,11.8h1.2v4.7h-1.2V11.8z"/>
	<path class="st0" d="M107.9,11.8h1.5l1.2,3.3l1.2-3.3h1.5v4.7h-1.1v-3.1l-1.1,3.1h-1.1l-1.1-3.1v3.1h-1.1V11.8z"/>
	<path class="st0" d="M114.5,13.1v-1.2h1.2v1.2H114.5z M114.5,16.5v-1.2h1.2v1.2H114.5z"/>
	<path class="st0" d="M119.9,14.2l1.1,2h-0.6l-1.4-2l1.4-2h0.7L119.9,14.2z M121.6,14.2l1.2,2h-0.7l-1.4-2l1.4-2h0.7L121.6,14.2z"/>
	<path class="st0" d="M123.9,10h4.2v0.8h-3.3v2h1.5c0.6,0,1,0.1,1.4,0.2s0.6,0.3,0.8,0.6c0.2,0.3,0.3,0.6,0.3,1
		c0,0.3-0.1,0.6-0.2,0.9c-0.1,0.3-0.4,0.5-0.6,0.7s-0.8,0.3-1.5,0.3h-2.5V10z M124.7,15.8h1.7c0.5,0,0.8-0.1,1-0.3
		c0.2-0.2,0.3-0.5,0.3-0.8c0-0.3-0.1-0.5-0.2-0.7c-0.1-0.2-0.3-0.3-0.5-0.4c-0.2-0.1-0.6-0.1-1.2-0.1h-1.1V15.8z"/>
	<path class="st0" d="M132.4,15.9c-0.3,0.2-0.6,0.4-0.8,0.5c-0.3,0.1-0.6,0.2-0.9,0.2c-0.5,0-0.9-0.1-1.2-0.4
		c-0.3-0.2-0.4-0.6-0.4-1c0-0.2,0.1-0.4,0.2-0.6c0.1-0.2,0.2-0.3,0.4-0.5c0.2-0.1,0.4-0.2,0.6-0.3c0.2,0,0.4-0.1,0.7-0.1
		c0.6-0.1,1.1-0.2,1.4-0.3c0-0.1,0-0.2,0-0.2c0-0.3-0.1-0.5-0.2-0.7c-0.2-0.2-0.5-0.3-0.9-0.3c-0.4,0-0.6,0.1-0.8,0.2
		c-0.2,0.1-0.3,0.4-0.4,0.7l-0.8-0.1c0.1-0.3,0.2-0.6,0.3-0.8c0.2-0.2,0.4-0.4,0.7-0.5c0.3-0.1,0.7-0.2,1.1-0.2c0.4,0,0.7,0,1,0.1
		s0.4,0.2,0.5,0.4c0.1,0.1,0.2,0.3,0.2,0.5c0,0.1,0,0.4,0,0.7v1.1c0,0.7,0,1.2,0,1.4c0,0.2,0.1,0.4,0.2,0.6h-0.8
		C132.4,16.3,132.4,16.1,132.4,15.9z M132.3,14.1c-0.3,0.1-0.7,0.2-1.3,0.3c-0.3,0-0.6,0.1-0.7,0.2s-0.2,0.1-0.3,0.3
		c-0.1,0.1-0.1,0.2-0.1,0.4c0,0.2,0.1,0.4,0.2,0.5c0.2,0.1,0.4,0.2,0.7,0.2c0.3,0,0.6-0.1,0.8-0.2c0.2-0.1,0.4-0.3,0.5-0.5
		c0.1-0.2,0.1-0.4,0.1-0.8V14.1z"/>
	<path class="st0" d="M133.9,18.3l-0.1-0.7c0.2,0,0.3,0.1,0.5,0.1c0.2,0,0.3,0,0.4-0.1s0.2-0.1,0.3-0.2c0-0.1,0.1-0.3,0.2-0.6
		c0,0,0-0.1,0.1-0.2l-1.8-4.7h0.9l1,2.7c0.1,0.3,0.2,0.7,0.3,1.1c0.1-0.4,0.2-0.7,0.3-1.1l1-2.7h0.8l-1.8,4.7
		c-0.2,0.5-0.3,0.9-0.4,1.1c-0.1,0.3-0.3,0.5-0.5,0.6c-0.2,0.1-0.4,0.2-0.7,0.2C134.2,18.4,134.1,18.3,133.9,18.3z"/>
	<path class="st0" d="M138.1,11.8h0.8v4h1.8v-4h0.8v4h1.8v-4h0.8v4.7h-6V11.8z"/>
	<path class="st0" d="M146.6,16.5l2.5-3.4l-2.2-3.1h1l1.2,1.7c0.2,0.3,0.4,0.6,0.5,0.8c0.1-0.2,0.3-0.5,0.5-0.7l1.3-1.7h0.9l-2.3,3
		l2.4,3.4h-1.1l-1.6-2.3c-0.1-0.1-0.2-0.3-0.3-0.4c-0.1,0.2-0.2,0.4-0.3,0.5l-1.6,2.2H146.6z"/>
	<path class="st0" d="M156.1,15l0.8,0.1c-0.1,0.5-0.4,0.8-0.7,1.1s-0.8,0.4-1.3,0.4c-0.7,0-1.2-0.2-1.6-0.6c-0.4-0.4-0.6-1-0.6-1.8
		c0-0.8,0.2-1.4,0.6-1.8s0.9-0.7,1.6-0.7c0.6,0,1.1,0.2,1.5,0.6c0.4,0.4,0.6,1,0.6,1.8c0,0,0,0.1,0,0.2h-3.5c0,0.5,0.2,0.9,0.4,1.2
		c0.3,0.3,0.6,0.4,1,0.4c0.3,0,0.5-0.1,0.7-0.2C155.8,15.6,156,15.3,156.1,15z M153.5,13.7h2.6c0-0.4-0.1-0.7-0.3-0.9
		c-0.3-0.3-0.6-0.5-1-0.5c-0.4,0-0.7,0.1-0.9,0.4C153.6,13,153.5,13.3,153.5,13.7z"/>
	<path class="st0" d="M157.7,11.8h3.7v4.7h-0.8v-4h-2.1v2.3c0,0.5,0,0.9-0.1,1.1s-0.1,0.3-0.3,0.5s-0.4,0.2-0.7,0.2
		c-0.2,0-0.4,0-0.6,0v-0.7h0.3c0.2,0,0.3,0,0.4,0c0.1,0,0.1-0.1,0.1-0.2c0-0.1,0-0.3,0-0.7V11.8z"/>
	<path class="st0" d="M165.3,14.8l0.8,0.1c-0.1,0.5-0.3,1-0.7,1.3c-0.3,0.3-0.8,0.5-1.3,0.5c-0.6,0-1.2-0.2-1.5-0.6
		c-0.4-0.4-0.6-1-0.6-1.8c0-0.5,0.1-0.9,0.2-1.3c0.2-0.4,0.4-0.7,0.8-0.9c0.3-0.2,0.7-0.3,1.1-0.3c0.5,0,0.9,0.1,1.2,0.4
		c0.3,0.3,0.5,0.6,0.6,1.1l-0.8,0.1c-0.1-0.3-0.2-0.5-0.4-0.7c-0.2-0.2-0.4-0.2-0.7-0.2c-0.4,0-0.7,0.1-1,0.4
		c-0.2,0.3-0.4,0.7-0.4,1.4c0,0.6,0.1,1.1,0.4,1.4c0.2,0.3,0.6,0.4,0.9,0.4c0.3,0,0.6-0.1,0.8-0.3S165.2,15.2,165.3,14.8z"/>
	<path class="st0" d="M167.6,14.2l-1.2-2h0.7l1.4,2l-1.4,2h-0.7L167.6,14.2z M169.3,14.2l-1.1-2h0.7l1.4,2l-1.4,2h-0.6L169.3,14.2z"
		/>
	<path class="st0" d="M177.3,10v2.8c0.4,0,0.7-0.1,0.9-0.2c0.2-0.2,0.4-0.5,0.6-1.1c0.2-0.4,0.3-0.7,0.4-0.9
		c0.1-0.2,0.3-0.3,0.5-0.4c0.2-0.1,0.4-0.2,0.7-0.2c0.3,0,0.5,0,0.5,0v0.7c0,0-0.1,0-0.2,0c-0.1,0-0.2,0-0.2,0
		c-0.3,0-0.5,0.1-0.6,0.2c-0.1,0.1-0.3,0.4-0.5,0.8c-0.2,0.5-0.3,0.8-0.5,1c-0.1,0.2-0.3,0.3-0.6,0.4c0.4,0.1,0.8,0.5,1.2,1.2
		l1.3,2.1h-1.1l-1.1-1.7c-0.3-0.5-0.5-0.8-0.7-1s-0.5-0.3-0.8-0.3v3h-0.9v-3c-0.3,0-0.5,0.1-0.7,0.2c-0.2,0.1-0.5,0.5-0.8,1
		l-0.1,0.1l-1.1,1.7h-1.1l1.3-2.1c0.4-0.7,0.8-1,1.2-1.2c-0.2-0.1-0.4-0.2-0.6-0.4c-0.1-0.2-0.3-0.5-0.5-1c-0.2-0.5-0.3-0.7-0.5-0.9
		c-0.1-0.1-0.3-0.2-0.6-0.2l-0.3,0v-0.7c0,0,0.2,0,0.5,0c0.3,0,0.5,0.1,0.7,0.2c0.2,0.1,0.4,0.3,0.5,0.4c0.1,0.2,0.3,0.5,0.5,0.9
		c0.2,0.6,0.4,0.9,0.6,1.1c0.2,0.1,0.4,0.2,0.9,0.2V10H177.3z"/>
	<path class="st0" d="M181.4,10h0.9v5.7h2.1V10h0.9v5.7h2.1V10h0.9v6.4h-6.8V10z"/>
	<path class="st0" d="M193.9,14.2l0.9,0.2c-0.2,0.7-0.5,1.2-1,1.6c-0.5,0.4-1,0.6-1.7,0.6c-0.7,0-1.3-0.1-1.7-0.4
		c-0.4-0.3-0.8-0.7-1-1.2c-0.2-0.5-0.3-1.1-0.3-1.7c0-0.7,0.1-1.3,0.4-1.8c0.3-0.5,0.6-0.9,1.1-1.1c0.5-0.3,1-0.4,1.6-0.4
		c0.6,0,1.2,0.2,1.6,0.5c0.4,0.3,0.7,0.8,0.9,1.4l-0.8,0.2c-0.1-0.5-0.4-0.8-0.7-1s-0.6-0.3-1.1-0.3c-0.5,0-0.9,0.1-1.2,0.4
		c-0.3,0.2-0.6,0.6-0.7,1c-0.1,0.4-0.2,0.8-0.2,1.2c0,0.5,0.1,1,0.2,1.4c0.2,0.4,0.4,0.7,0.7,0.9s0.7,0.3,1.1,0.3
		c0.5,0,0.9-0.1,1.2-0.4C193.6,15.2,193.8,14.8,193.9,14.2z"/>
	<path class="st0" d="M195.6,16.5v-0.9h0.9v0.9c0,0.3-0.1,0.6-0.2,0.8c-0.1,0.2-0.3,0.4-0.6,0.5l-0.2-0.3c0.2-0.1,0.3-0.2,0.4-0.3
		c0.1-0.1,0.1-0.3,0.1-0.6H195.6z"/>
	<path class="st0" d="M199.1,16.5l2.5-6.4h0.9l2.6,6.4h-1l-0.8-2h-2.7l-0.7,2H199.1z M201,13.8h2.2l-0.7-1.8c-0.2-0.5-0.4-1-0.5-1.3
		c-0.1,0.4-0.2,0.8-0.3,1.2L201,13.8z"/>
	<path class="st0" d="M205.8,11.8h3.7v4.7h-0.8v-4h-2.1v2.3c0,0.5,0,0.9-0.1,1.1s-0.1,0.3-0.3,0.5s-0.4,0.2-0.7,0.2
		c-0.2,0-0.4,0-0.6,0v-0.7h0.3c0.2,0,0.3,0,0.4,0c0.1,0,0.1-0.1,0.1-0.2c0-0.1,0-0.3,0-0.7V11.8z"/>
	<path class="st0" d="M210.4,11.8h1.2l1.2,3.7l1.4-3.7h1.1v4.7h-0.8v-3.8l-1.4,3.8h-0.7l-1.3-3.9v3.9h-0.8V11.8z"/>
	<path class="st0" d="M219.3,15.9c-0.3,0.2-0.6,0.4-0.8,0.5c-0.3,0.1-0.6,0.2-0.9,0.2c-0.5,0-0.9-0.1-1.2-0.4
		c-0.3-0.2-0.4-0.6-0.4-1c0-0.2,0.1-0.4,0.2-0.6c0.1-0.2,0.2-0.3,0.4-0.5c0.2-0.1,0.4-0.2,0.6-0.3c0.2,0,0.4-0.1,0.7-0.1
		c0.6-0.1,1.1-0.2,1.4-0.3c0-0.1,0-0.2,0-0.2c0-0.3-0.1-0.5-0.2-0.7c-0.2-0.2-0.5-0.3-0.9-0.3c-0.4,0-0.6,0.1-0.8,0.2
		c-0.2,0.1-0.3,0.4-0.4,0.7l-0.8-0.1c0.1-0.3,0.2-0.6,0.3-0.8c0.2-0.2,0.4-0.4,0.7-0.5c0.3-0.1,0.7-0.2,1.1-0.2c0.4,0,0.7,0,1,0.1
		s0.4,0.2,0.5,0.4c0.1,0.1,0.2,0.3,0.2,0.5c0,0.1,0,0.4,0,0.7v1.1c0,0.7,0,1.2,0,1.4c0,0.2,0.1,0.4,0.2,0.6h-0.8
		C219.4,16.3,219.3,16.1,219.3,15.9z M219.2,14.1c-0.3,0.1-0.7,0.2-1.3,0.3c-0.3,0-0.6,0.1-0.7,0.2s-0.2,0.1-0.3,0.3
		c-0.1,0.1-0.1,0.2-0.1,0.4c0,0.2,0.1,0.4,0.2,0.5c0.2,0.1,0.4,0.2,0.7,0.2c0.3,0,0.6-0.1,0.8-0.2c0.2-0.1,0.4-0.3,0.5-0.5
		c0.1-0.2,0.1-0.4,0.1-0.8V14.1z"/>
	<path class="st0" d="M220.3,11.8h3.8v0.7h-1.5v4h-0.8v-4h-1.5V11.8z"/>
	<path class="st0" d="M224.6,11.8h0.8v1.8h1c0.7,0,1.2,0.1,1.5,0.4c0.4,0.3,0.5,0.6,0.5,1c0,0.4-0.1,0.7-0.4,1
		c-0.3,0.3-0.8,0.4-1.4,0.4h-2V11.8z M225.4,15.8h0.8c0.5,0,0.9-0.1,1.1-0.2s0.3-0.3,0.3-0.6c0-0.2-0.1-0.4-0.2-0.5
		s-0.5-0.2-1.1-0.2h-0.9V15.8z M229,11.8h0.8v4.7H229V11.8z"/>
	<path class="st0" d="M236.2,17.8h-0.7v-1.3h-0.1l-0.8-1.4c-0.1-0.2-0.3-0.4-0.4-0.5c-0.2-0.1-0.3-0.2-0.6-0.2v2.2h-0.8v-4.7h0.8v2
		c0.3,0,0.5-0.1,0.7-0.3c0-0.1,0.2-0.3,0.3-0.7c0.1-0.3,0.2-0.5,0.3-0.6c0.1-0.2,0.3-0.3,0.4-0.4c0.1,0,0.3-0.1,0.6-0.1h0.2v0.7
		l-0.2,0c-0.2,0-0.4,0.1-0.5,0.2c0,0-0.1,0.2-0.2,0.5c-0.1,0.3-0.2,0.5-0.3,0.6c-0.1,0.1-0.3,0.3-0.5,0.4c0.3,0.1,0.7,0.4,1,0.9
		l0.5,0.8h0.3V17.8z"/>
	<path class="st0" d="M236.7,16.5v-0.9h0.9v0.9H236.7z"/>
	<path class="st0" d="M238.9,16.5v-0.9h0.9v0.9c0,0.3-0.1,0.6-0.2,0.8c-0.1,0.2-0.3,0.4-0.6,0.5l-0.2-0.3c0.2-0.1,0.3-0.2,0.4-0.3
		c0.1-0.1,0.1-0.3,0.1-0.6H238.9z"/>
	<path class="st0" d="M242,16.5l2.5-6.4h0.9l2.6,6.4h-1l-0.8-2h-2.7l-0.7,2H242z M243.8,13.8h2.2l-0.7-1.8c-0.2-0.5-0.4-1-0.5-1.3
		c-0.1,0.4-0.2,0.8-0.3,1.2L243.8,13.8z"/>
	<path class="st0" d="M252.2,15.7v0.8h-4.3c0-0.2,0-0.4,0.1-0.5c0.1-0.3,0.3-0.6,0.5-0.9c0.2-0.3,0.6-0.6,1-1c0.7-0.6,1.2-1,1.4-1.4
		c0.2-0.3,0.4-0.7,0.4-1c0-0.3-0.1-0.6-0.3-0.8c-0.2-0.2-0.5-0.3-0.9-0.3c-0.4,0-0.7,0.1-0.9,0.3s-0.3,0.5-0.3,0.9l-0.8-0.1
		c0.1-0.6,0.3-1.1,0.6-1.4c0.4-0.3,0.9-0.5,1.5-0.5c0.6,0,1.1,0.2,1.5,0.5c0.4,0.3,0.5,0.8,0.5,1.3c0,0.3-0.1,0.5-0.2,0.8
		s-0.3,0.5-0.5,0.8c-0.2,0.3-0.7,0.7-1.2,1.1c-0.5,0.4-0.8,0.7-0.9,0.8c-0.1,0.1-0.2,0.3-0.3,0.4H252.2z"/>
	<path class="st0" d="M256.8,11.6l-0.8,0.1c-0.1-0.3-0.2-0.5-0.3-0.7c-0.2-0.2-0.5-0.3-0.8-0.3c-0.3,0-0.5,0.1-0.7,0.2
		c-0.2,0.2-0.4,0.4-0.6,0.8c-0.1,0.3-0.2,0.8-0.2,1.5c0.2-0.3,0.4-0.5,0.7-0.6c0.3-0.1,0.6-0.2,0.9-0.2c0.5,0,1,0.2,1.3,0.6
		c0.4,0.4,0.6,0.9,0.6,1.5c0,0.4-0.1,0.8-0.3,1.1c-0.2,0.3-0.4,0.6-0.7,0.8s-0.7,0.3-1,0.3c-0.7,0-1.2-0.2-1.6-0.7
		c-0.4-0.5-0.6-1.3-0.6-2.4c0-1.2,0.2-2.2,0.7-2.7c0.4-0.5,0.9-0.7,1.6-0.7c0.5,0,0.9,0.1,1.2,0.4C256.6,10.7,256.8,11.1,256.8,11.6
		z M253.6,14.4c0,0.3,0.1,0.5,0.2,0.8c0.1,0.2,0.3,0.4,0.5,0.6c0.2,0.1,0.4,0.2,0.7,0.2c0.3,0,0.6-0.1,0.9-0.4
		c0.2-0.3,0.4-0.6,0.4-1.1c0-0.4-0.1-0.8-0.4-1.1c-0.2-0.3-0.5-0.4-0.9-0.4c-0.4,0-0.7,0.1-0.9,0.4C253.7,13.6,253.6,14,253.6,14.4z
		"/>
	<path class="st0" d="M259.4,16.5v-5.7h-2.1V10h5.1v0.8h-2.1v5.7H259.4z"/>
	<path class="st0" d="M262.7,15l0.8-0.1c0.1,0.4,0.2,0.6,0.4,0.8s0.4,0.2,0.7,0.2c0.2,0,0.5-0.1,0.6-0.2c0.2-0.1,0.3-0.3,0.5-0.4
		c0.1-0.2,0.2-0.4,0.3-0.8c0.1-0.3,0.1-0.6,0.1-1c0,0,0-0.1,0-0.2c-0.2,0.3-0.4,0.5-0.6,0.6c-0.3,0.2-0.6,0.2-0.9,0.2
		c-0.5,0-1-0.2-1.4-0.6s-0.6-0.9-0.6-1.5c0-0.7,0.2-1.2,0.6-1.6c0.4-0.4,0.9-0.6,1.4-0.6c0.4,0,0.8,0.1,1.1,0.3
		c0.3,0.2,0.6,0.5,0.8,1c0.2,0.4,0.3,1,0.3,1.8c0,0.8-0.1,1.5-0.3,2c-0.2,0.5-0.4,0.9-0.8,1.1c-0.4,0.3-0.8,0.4-1.2,0.4
		c-0.5,0-0.9-0.1-1.2-0.4C263,15.9,262.8,15.5,262.7,15z M266,12.2c0-0.5-0.1-0.8-0.4-1.1c-0.2-0.3-0.5-0.4-0.9-0.4
		c-0.4,0-0.7,0.1-0.9,0.4c-0.3,0.3-0.4,0.7-0.4,1.1c0,0.4,0.1,0.7,0.4,1c0.2,0.3,0.6,0.4,0.9,0.4c0.4,0,0.7-0.1,0.9-0.4
		C265.8,13,266,12.6,266,12.2z"/>
	<path class="st0" d="M270.6,14v-0.8l2.7,0v2.4c-0.4,0.3-0.9,0.6-1.3,0.8c-0.4,0.2-0.9,0.3-1.4,0.3c-0.6,0-1.2-0.1-1.7-0.4
		c-0.5-0.3-0.9-0.7-1.2-1.2c-0.3-0.5-0.4-1.1-0.4-1.7c0-0.6,0.1-1.2,0.4-1.8c0.3-0.5,0.6-0.9,1.1-1.2s1.1-0.4,1.7-0.4
		c0.5,0,0.9,0.1,1.3,0.2c0.4,0.2,0.7,0.4,0.9,0.6s0.4,0.6,0.5,1.1l-0.8,0.2c-0.1-0.3-0.2-0.6-0.4-0.8s-0.3-0.3-0.6-0.5
		c-0.3-0.1-0.6-0.2-0.9-0.2c-0.4,0-0.7,0.1-1,0.2c-0.3,0.1-0.5,0.3-0.7,0.5c-0.2,0.2-0.3,0.4-0.4,0.6c-0.2,0.4-0.2,0.8-0.2,1.3
		c0,0.6,0.1,1.1,0.3,1.4c0.2,0.4,0.5,0.7,0.9,0.9c0.4,0.2,0.8,0.3,1.2,0.3c0.4,0,0.7-0.1,1.1-0.2c0.4-0.1,0.6-0.3,0.8-0.5V14H270.6z
		"/>
	<path class="st0" d="M274,13.4c0-1.1,0.3-1.9,0.9-2.5c0.6-0.6,1.3-0.9,2.2-0.9c0.6,0,1.1,0.1,1.6,0.4c0.5,0.3,0.8,0.7,1.1,1.2
		c0.2,0.5,0.4,1.1,0.4,1.7c0,0.7-0.1,1.2-0.4,1.8s-0.6,0.9-1.1,1.2c-0.5,0.3-1,0.4-1.6,0.4c-0.6,0-1.1-0.1-1.6-0.4
		c-0.5-0.3-0.8-0.7-1.1-1.2S274,13.9,274,13.4z M274.9,13.4c0,0.8,0.2,1.4,0.6,1.8c0.4,0.4,0.9,0.7,1.6,0.7c0.6,0,1.2-0.2,1.6-0.7
		c0.4-0.5,0.6-1.1,0.6-1.9c0-0.5-0.1-1-0.3-1.4c-0.2-0.4-0.4-0.7-0.8-0.9c-0.3-0.2-0.7-0.3-1.1-0.3c-0.6,0-1.1,0.2-1.6,0.6
		C275.1,11.7,274.9,12.4,274.9,13.4z"/>
	<path class="st0" d="M281.1,16.5v-0.9h0.9v0.9c0,0.3-0.1,0.6-0.2,0.8c-0.1,0.2-0.3,0.4-0.6,0.5l-0.2-0.3c0.2-0.1,0.3-0.2,0.4-0.3
		c0.1-0.1,0.1-0.3,0.1-0.6H281.1z"/>
	<path class="st0" d="M5,28.3H4.3v-1.8H4l-1.1-1.7c-0.3-0.4-0.5-0.7-0.6-0.9c-0.3-0.3-0.6-0.4-0.9-0.4v3H0.5V20h0.9v2.8
		c0.4,0,0.7-0.1,0.9-0.4c0.1-0.1,0.3-0.4,0.5-1c0.2-0.4,0.3-0.7,0.4-0.9C3.5,20.2,3.9,20,4.4,20c0.3,0,0.5,0,0.5,0v0.7
		c0,0-0.1,0-0.2,0s-0.1,0-0.2,0c-0.3,0-0.5,0.1-0.7,0.3c-0.1,0.1-0.2,0.4-0.4,0.7c-0.2,0.4-0.3,0.7-0.4,0.8
		c-0.2,0.2-0.4,0.4-0.7,0.5c0.4,0.1,0.8,0.5,1.2,1.2l0.9,1.4H5V28.3z"/>
	<path class="st0" d="M8.4,25.9c-0.3,0.2-0.6,0.4-0.8,0.5c-0.3,0.1-0.6,0.2-0.9,0.2c-0.5,0-0.9-0.1-1.2-0.4c-0.3-0.2-0.4-0.6-0.4-1
		c0-0.2,0.1-0.4,0.2-0.6c0.1-0.2,0.2-0.3,0.4-0.5S6,24,6.2,23.9c0.2,0,0.4-0.1,0.7-0.1c0.6-0.1,1.1-0.2,1.4-0.3c0-0.1,0-0.2,0-0.2
		c0-0.3-0.1-0.5-0.2-0.7c-0.2-0.2-0.5-0.3-0.9-0.3c-0.4,0-0.6,0.1-0.8,0.2c-0.2,0.1-0.3,0.4-0.4,0.7l-0.8-0.1
		c0.1-0.3,0.2-0.6,0.3-0.8c0.2-0.2,0.4-0.4,0.7-0.5c0.3-0.1,0.7-0.2,1.1-0.2c0.4,0,0.7,0,1,0.1s0.4,0.2,0.5,0.4
		c0.1,0.1,0.2,0.3,0.2,0.5c0,0.1,0,0.4,0,0.7v1.1c0,0.7,0,1.2,0.1,1.4c0,0.2,0.1,0.4,0.2,0.6H8.5C8.5,26.3,8.4,26.1,8.4,25.9z
		 M8.3,24.1C8,24.3,7.6,24.4,7,24.4c-0.3,0-0.6,0.1-0.7,0.2S6.1,24.7,6,24.9c-0.1,0.1-0.1,0.2-0.1,0.4c0,0.2,0.1,0.4,0.2,0.5
		S6.5,26,6.8,26c0.3,0,0.6-0.1,0.8-0.2c0.2-0.1,0.4-0.3,0.5-0.5c0.1-0.2,0.1-0.4,0.1-0.8V24.1z"/>
	<path class="st0" d="M12.8,21.8v2c0.3,0,0.4,0,0.5-0.1s0.3-0.4,0.4-0.8c0.2-0.4,0.4-0.7,0.5-0.8c0.1-0.1,0.4-0.2,0.7-0.2h0.3v0.7
		l-0.2,0c-0.2,0-0.3,0-0.4,0.1c-0.1,0.1-0.2,0.3-0.3,0.6c-0.1,0.3-0.2,0.5-0.3,0.6s-0.3,0.2-0.5,0.3c0.3,0.1,0.7,0.4,1,0.9l0.9,1.4
		h-0.9L13.8,25c-0.2-0.3-0.3-0.5-0.5-0.6s-0.3-0.1-0.5-0.1v2.2H12v-2.2c-0.2,0-0.3,0-0.5,0.1c-0.1,0.1-0.3,0.3-0.5,0.6l-0.8,1.4H9.4
		l0.9-1.4c0.3-0.5,0.7-0.9,1-0.9c-0.2-0.1-0.4-0.2-0.5-0.4c-0.1-0.1-0.2-0.4-0.4-0.9c-0.1-0.2-0.1-0.3-0.2-0.3
		c-0.1,0-0.2-0.1-0.3-0.1c0,0-0.1,0-0.2,0v-0.7h0.1c0.3,0,0.5,0,0.6,0.1c0.1,0,0.2,0.1,0.3,0.2c0.1,0.1,0.2,0.4,0.4,0.7
		c0.2,0.5,0.3,0.7,0.4,0.8c0.1,0.1,0.3,0.1,0.5,0.1v-2H12.8z"/>
	<path class="st0" d="M15.7,21.8h0.8v1.8h1c0.7,0,1.2,0.1,1.5,0.4c0.4,0.3,0.5,0.6,0.5,1c0,0.4-0.1,0.7-0.4,1
		c-0.3,0.3-0.8,0.4-1.4,0.4h-2V21.8z M16.5,25.8h0.8c0.5,0,0.9-0.1,1.1-0.2s0.3-0.3,0.3-0.6c0-0.2-0.1-0.4-0.2-0.5s-0.5-0.2-1.1-0.2
		h-0.9V25.8z M20.2,21.8H21v4.7h-0.8V21.8z"/>
	<path class="st0" d="M21.9,21.8h1.2l1.2,3.7l1.4-3.7h1.1v4.7h-0.8v-3.8l-1.4,3.8H24l-1.3-3.9v3.9h-0.8V21.8z"/>
	<path class="st0" d="M31.6,21.8l-1.8,4.7h1.4v0.6h-1.4v1.2H29v-1.2h-1.4v-0.6H29l-1.8-4.7h0.9l1,2.7c0.1,0.4,0.2,0.7,0.3,1.1
		c0.1-0.3,0.2-0.7,0.3-1.1l1-2.7H31.6z"/>
	<path class="st0" d="M35.2,27.8h-0.7v-1.3h-0.1L33.6,25c-0.1-0.2-0.3-0.4-0.4-0.5c-0.2-0.1-0.3-0.2-0.6-0.2v2.2h-0.8v-4.7h0.8v2
		c0.3,0,0.5-0.1,0.7-0.3c0-0.1,0.2-0.3,0.3-0.7c0.1-0.3,0.2-0.5,0.3-0.6c0.1-0.2,0.3-0.3,0.4-0.4c0.1,0,0.3-0.1,0.6-0.1h0.2v0.7
		l-0.2,0c-0.2,0-0.4,0.1-0.5,0.2c0,0-0.1,0.2-0.2,0.5c-0.1,0.3-0.2,0.5-0.3,0.6c-0.1,0.1-0.3,0.3-0.5,0.4c0.3,0.1,0.7,0.4,1,0.9
		l0.5,0.8h0.3V27.8z"/>
	<path class="st0" d="M38.6,25.9c-0.3,0.2-0.6,0.4-0.8,0.5c-0.3,0.1-0.6,0.2-0.9,0.2c-0.5,0-0.9-0.1-1.2-0.4c-0.3-0.2-0.4-0.6-0.4-1
		c0-0.2,0.1-0.4,0.2-0.6c0.1-0.2,0.2-0.3,0.4-0.5s0.4-0.2,0.6-0.3c0.2,0,0.4-0.1,0.7-0.1c0.6-0.1,1.1-0.2,1.4-0.3c0-0.1,0-0.2,0-0.2
		c0-0.3-0.1-0.5-0.2-0.7c-0.2-0.2-0.5-0.3-0.9-0.3c-0.4,0-0.6,0.1-0.8,0.2c-0.2,0.1-0.3,0.4-0.4,0.7l-0.8-0.1
		c0.1-0.3,0.2-0.6,0.3-0.8c0.2-0.2,0.4-0.4,0.7-0.5c0.3-0.1,0.7-0.2,1.1-0.2c0.4,0,0.7,0,1,0.1s0.4,0.2,0.5,0.4
		c0.1,0.1,0.2,0.3,0.2,0.5c0,0.1,0,0.4,0,0.7v1.1c0,0.7,0,1.2,0.1,1.4c0,0.2,0.1,0.4,0.2,0.6h-0.8C38.7,26.3,38.6,26.1,38.6,25.9z
		 M38.5,24.1c-0.3,0.1-0.7,0.2-1.3,0.3c-0.3,0-0.6,0.1-0.7,0.2s-0.2,0.1-0.3,0.3c-0.1,0.1-0.1,0.2-0.1,0.4c0,0.2,0.1,0.4,0.2,0.5
		s0.4,0.2,0.7,0.2c0.3,0,0.6-0.1,0.8-0.2c0.2-0.1,0.4-0.3,0.5-0.5c0.1-0.2,0.1-0.4,0.1-0.8V24.1z"/>
	<path class="st0" d="M40.3,21.8H41v1.9h2.2v-1.9H44v4.7h-0.8v-2.1H41v2.1h-0.8V21.8z"/>
	<path class="st0" d="M47.1,21.8h0.8v2c0.3,0,0.4,0,0.5-0.1c0.1-0.1,0.2-0.4,0.4-0.8c0.2-0.4,0.3-0.6,0.4-0.7s0.2-0.2,0.3-0.2
		s0.3-0.1,0.6-0.1h0.2v0.7l-0.2,0c-0.2,0-0.3,0-0.4,0.1c-0.1,0.1-0.2,0.3-0.3,0.6c-0.1,0.3-0.2,0.5-0.3,0.6s-0.3,0.2-0.5,0.3
		c0.3,0.1,0.7,0.4,1,0.9l0.9,1.4h-0.9L48.8,25c-0.2-0.3-0.3-0.5-0.5-0.6c-0.1-0.1-0.3-0.1-0.5-0.1v2.2h-0.8V21.8z"/>
	<path class="st0" d="M54.8,24.1c0,1.1-0.4,1.8-1.1,2.2c-0.3,0.2-0.7,0.3-1.1,0.3c-0.7,0-1.3-0.2-1.6-0.7c-0.4-0.4-0.5-1-0.5-1.7
		c0-0.9,0.2-1.5,0.7-1.9c0.4-0.3,0.9-0.5,1.5-0.5c0.7,0,1.2,0.2,1.6,0.7C54.6,22.8,54.8,23.4,54.8,24.1z M54,24.4h-2.7
		c0,0.5,0.1,0.8,0.4,1.1c0.2,0.3,0.6,0.5,1,0.5s0.8-0.2,1-0.5C53.8,25.2,53.9,24.8,54,24.4z M54,23.7c0-0.4-0.2-0.7-0.4-0.9
		c-0.3-0.3-0.6-0.4-1-0.4c-0.4,0-0.7,0.1-1,0.4c-0.2,0.2-0.3,0.5-0.4,0.9H54z"/>
	<path class="st0" d="M55.4,21.8h0.8v4H58v-4h0.8v4h1.8v-4h0.8v4.7h-6V21.8z"/>
	<path class="st0" d="M62.5,26.5v-0.9h0.9v0.9H62.5z"/>
	<path class="st0" d="M64.7,26.5v-0.9h0.9v0.9c0,0.3-0.1,0.6-0.2,0.8c-0.1,0.2-0.3,0.4-0.6,0.5l-0.2-0.3c0.2-0.1,0.3-0.2,0.4-0.3
		c0.1-0.1,0.1-0.3,0.1-0.6H64.7z"/>
	<path class="st0" d="M72.8,25.7v0.8h-4.3c0-0.2,0-0.4,0.1-0.5c0.1-0.3,0.3-0.6,0.5-0.9c0.2-0.3,0.6-0.6,1-1c0.7-0.6,1.2-1,1.4-1.4
		c0.2-0.3,0.4-0.7,0.4-1c0-0.3-0.1-0.6-0.3-0.8c-0.2-0.2-0.5-0.3-0.9-0.3c-0.4,0-0.7,0.1-0.9,0.3s-0.3,0.5-0.3,0.9l-0.8-0.1
		c0.1-0.6,0.3-1.1,0.6-1.4c0.4-0.3,0.9-0.5,1.5-0.5c0.6,0,1.1,0.2,1.5,0.5c0.4,0.3,0.5,0.8,0.5,1.3c0,0.3-0.1,0.5-0.2,0.8
		s-0.3,0.5-0.5,0.8c-0.2,0.3-0.7,0.7-1.2,1.1c-0.5,0.4-0.8,0.7-0.9,0.8c-0.1,0.1-0.2,0.3-0.3,0.4H72.8z"/>
	<path class="st0" d="M77.5,25.7v0.8h-4.3c0-0.2,0-0.4,0.1-0.5c0.1-0.3,0.3-0.6,0.5-0.9c0.2-0.3,0.6-0.6,1-1c0.7-0.6,1.2-1,1.4-1.4
		c0.2-0.3,0.4-0.7,0.4-1c0-0.3-0.1-0.6-0.3-0.8c-0.2-0.2-0.5-0.3-0.9-0.3c-0.4,0-0.7,0.1-0.9,0.3s-0.3,0.5-0.3,0.9l-0.8-0.1
		c0.1-0.6,0.3-1.1,0.6-1.4c0.4-0.3,0.9-0.5,1.5-0.5c0.6,0,1.1,0.2,1.5,0.5c0.4,0.3,0.5,0.8,0.5,1.3c0,0.3-0.1,0.5-0.2,0.8
		s-0.3,0.5-0.5,0.8c-0.2,0.3-0.7,0.7-1.2,1.1c-0.5,0.4-0.8,0.7-0.9,0.8c-0.1,0.1-0.2,0.3-0.3,0.4H77.5z"/>
	<path class="st0" d="M77.7,26.6l1.9-6.7h0.6l-1.9,6.7H77.7z"/>
	<path class="st0" d="M80.2,24.8l0.8-0.1c0.1,0.4,0.2,0.7,0.4,0.9c0.2,0.2,0.5,0.3,0.8,0.3c0.4,0,0.7-0.1,1-0.4s0.4-0.7,0.4-1.1
		c0-0.5-0.1-0.8-0.4-1.1c-0.3-0.3-0.6-0.4-1-0.4c-0.3,0-0.5,0.1-0.7,0.2c-0.2,0.1-0.4,0.3-0.5,0.5l-0.7-0.1l0.6-3.3h3.2v0.8h-2.6
		l-0.3,1.7c0.4-0.3,0.8-0.4,1.2-0.4c0.6,0,1,0.2,1.4,0.6c0.4,0.4,0.6,0.9,0.6,1.5c0,0.6-0.2,1.1-0.5,1.5c-0.4,0.5-1,0.8-1.7,0.8
		c-0.6,0-1.1-0.2-1.4-0.5C80.5,25.8,80.3,25.3,80.2,24.8z"/>
	<path class="st0" d="M84.8,24.6v-0.8h2.4v0.8H84.8z"/>
	<path class="st0" d="M91.6,21.8l-1.8,4.7v1.8h-0.8v-1.8l-1.8-4.7h0.9l1,2.7c0.1,0.4,0.2,0.7,0.3,1.1c0.1-0.3,0.2-0.7,0.3-1.1l1-2.7
		H91.6z"/>
	<path class="st0" d="M92,21.8h0.8v3.6l2.2-3.6h0.9v4.7H95V23l-2.2,3.5H92V21.8z M94.7,20.1h0.5c0,0.4-0.2,0.6-0.4,0.8
		c-0.2,0.2-0.5,0.3-0.9,0.3c-0.4,0-0.7-0.1-0.9-0.3c-0.2-0.2-0.4-0.5-0.4-0.8h0.5c0,0.2,0.1,0.3,0.2,0.4c0.1,0.1,0.3,0.1,0.5,0.1
		c0.2,0,0.4,0,0.5-0.1C94.6,20.4,94.7,20.3,94.7,20.1z"/>
	<path class="st0" d="M96.9,26.5v-0.9h0.9v0.9c0,0.3-0.1,0.6-0.2,0.8c-0.1,0.2-0.3,0.4-0.6,0.5l-0.2-0.3c0.2-0.1,0.3-0.2,0.4-0.3
		c0.1-0.1,0.1-0.3,0.1-0.6H96.9z"/>
	<path class="st0" d="M100.6,21.8h3.8v0.7h-1.5v4h-0.8v-4h-1.5V21.8z"/>
	<path class="st0" d="M108,25l0.8,0.1c-0.1,0.5-0.4,0.8-0.7,1.1s-0.8,0.4-1.3,0.4c-0.7,0-1.2-0.2-1.6-0.6c-0.4-0.4-0.6-1-0.6-1.8
		c0-0.8,0.2-1.4,0.6-1.8s0.9-0.7,1.6-0.7c0.6,0,1.1,0.2,1.5,0.6s0.6,1,0.6,1.8c0,0,0,0.1,0,0.2h-3.5c0,0.5,0.2,0.9,0.4,1.2
		c0.3,0.3,0.6,0.4,1,0.4c0.3,0,0.5-0.1,0.7-0.2S107.9,25.3,108,25z M105.4,23.7h2.6c0-0.4-0.1-0.7-0.3-0.9c-0.3-0.3-0.6-0.5-1-0.5
		c-0.4,0-0.7,0.1-0.9,0.4C105.5,23,105.4,23.3,105.4,23.7z"/>
	<path class="st0" d="M109.6,21.8h3.7v4.7h-0.8v-4h-2.1v2.3c0,0.5,0,0.9-0.1,1.1s-0.1,0.3-0.3,0.5s-0.4,0.2-0.7,0.2
		c-0.2,0-0.4,0-0.6,0v-0.7h0.3c0.2,0,0.3,0,0.4,0c0.1,0,0.1-0.1,0.1-0.2c0-0.1,0-0.3,0-0.7V21.8z"/>
	<path class="st0" d="M114.3,26.5v-0.9h0.9v0.9H114.3z"/>
	<path class="st0" d="M116.5,22.7v-0.9h0.9v0.9H116.5z M116.5,26.5v-0.9h0.9v0.9H116.5z"/>
	<path class="st0" d="M122.3,25.4v-1.8h-1.8v-0.7h1.8v-1.8h0.7v1.8h1.8v0.7h-1.8v1.8H122.3z"/>
	<path class="st0" d="M127.6,20.9v-0.8h4.2v0.6c-0.4,0.4-0.8,1-1.2,1.7c-0.4,0.7-0.7,1.5-0.9,2.2c-0.2,0.5-0.3,1.1-0.3,1.8h-0.8
		c0-0.5,0.1-1.1,0.3-1.8s0.5-1.4,0.8-2.1c0.4-0.7,0.7-1.2,1.1-1.7H127.6z"/>
	<path class="st0" d="M134.5,20.9v-0.8h4.2v0.6c-0.4,0.4-0.8,1-1.2,1.7c-0.4,0.7-0.7,1.5-0.9,2.2c-0.2,0.5-0.3,1.1-0.3,1.8h-0.8
		c0-0.5,0.1-1.1,0.3-1.8s0.5-1.4,0.8-2.1c0.4-0.7,0.7-1.2,1.1-1.7H134.5z"/>
	<path class="st0" d="M143.3,25.7v0.8H139c0-0.2,0-0.4,0.1-0.5c0.1-0.3,0.3-0.6,0.5-0.9c0.2-0.3,0.6-0.6,1-1c0.7-0.6,1.2-1,1.4-1.4
		c0.2-0.3,0.4-0.7,0.4-1c0-0.3-0.1-0.6-0.3-0.8c-0.2-0.2-0.5-0.3-0.9-0.3c-0.4,0-0.7,0.1-0.9,0.3S140,21.6,140,22l-0.8-0.1
		c0.1-0.6,0.3-1.1,0.6-1.4c0.4-0.3,0.9-0.5,1.5-0.5c0.6,0,1.1,0.2,1.5,0.5c0.4,0.3,0.5,0.8,0.5,1.3c0,0.3-0.1,0.5-0.2,0.8
		s-0.3,0.5-0.5,0.8c-0.2,0.3-0.7,0.7-1.2,1.1c-0.5,0.4-0.8,0.7-0.9,0.8c-0.1,0.1-0.2,0.3-0.3,0.4H143.3z"/>
	<path class="st0" d="M143.9,20.9v-0.8h4.2v0.6c-0.4,0.4-0.8,1-1.2,1.7c-0.4,0.7-0.7,1.5-0.9,2.2c-0.2,0.5-0.3,1.1-0.3,1.8h-0.8
		c0-0.5,0.1-1.1,0.3-1.8s0.5-1.4,0.8-2.1c0.4-0.7,0.7-1.2,1.1-1.7H143.9z"/>
	<path class="st0" d="M150.7,24.8l0.8-0.1c0.1,0.4,0.2,0.8,0.5,1c0.2,0.2,0.5,0.3,0.8,0.3c0.4,0,0.7-0.1,0.9-0.4
		c0.3-0.3,0.4-0.6,0.4-1c0-0.4-0.1-0.7-0.4-0.9c-0.2-0.2-0.5-0.4-0.9-0.4c-0.1,0-0.3,0-0.6,0.1l0.1-0.7c0.1,0,0.1,0,0.1,0
		c0.3,0,0.6-0.1,0.9-0.3s0.4-0.4,0.4-0.8c0-0.3-0.1-0.5-0.3-0.7c-0.2-0.2-0.5-0.3-0.8-0.3c-0.3,0-0.6,0.1-0.8,0.3s-0.3,0.5-0.4,0.9
		l-0.8-0.1c0.1-0.5,0.3-0.9,0.7-1.2c0.3-0.3,0.8-0.4,1.3-0.4c0.4,0,0.7,0.1,1,0.2c0.3,0.2,0.5,0.4,0.7,0.6c0.2,0.3,0.2,0.5,0.2,0.8
		c0,0.3-0.1,0.5-0.2,0.8c-0.2,0.2-0.4,0.4-0.7,0.5c0.4,0.1,0.7,0.3,0.9,0.5c0.2,0.3,0.3,0.6,0.3,1c0,0.6-0.2,1-0.6,1.4
		c-0.4,0.4-0.9,0.6-1.6,0.6c-0.6,0-1-0.2-1.4-0.5C151,25.8,150.8,25.3,150.7,24.8z"/>
	<path class="st0" d="M155.3,24.6v-0.8h2.4v0.8H155.3z"/>
	<path class="st0" d="M161.1,26.5h-0.8v-5c-0.2,0.2-0.4,0.4-0.8,0.5c-0.3,0.2-0.6,0.3-0.8,0.4v-0.8c0.4-0.2,0.8-0.5,1.2-0.8
		c0.3-0.3,0.6-0.6,0.7-0.9h0.5V26.5z"/>
	<path class="st0" d="M165.1,26.5h-0.8v-5c-0.2,0.2-0.4,0.4-0.8,0.5c-0.3,0.2-0.6,0.3-0.8,0.4v-0.8c0.4-0.2,0.8-0.5,1.2-0.8
		c0.3-0.3,0.6-0.6,0.7-0.9h0.5V26.5z"/>
	<path class="st0" d="M169.1,26.5h-0.8v-5c-0.2,0.2-0.4,0.4-0.8,0.5c-0.3,0.2-0.6,0.3-0.8,0.4v-0.8c0.4-0.2,0.8-0.5,1.2-0.8
		c0.3-0.3,0.6-0.6,0.7-0.9h0.5V26.5z"/>
	<path class="st0" d="M170.7,24.6v-0.8h2.4v0.8H170.7z"/>
	<path class="st0" d="M173.5,24.8l0.8-0.1c0.1,0.4,0.2,0.7,0.4,0.9c0.2,0.2,0.5,0.3,0.8,0.3c0.4,0,0.7-0.1,1-0.4s0.4-0.7,0.4-1.1
		c0-0.5-0.1-0.8-0.4-1.1c-0.3-0.3-0.6-0.4-1-0.4c-0.3,0-0.5,0.1-0.7,0.2c-0.2,0.1-0.4,0.3-0.5,0.5l-0.7-0.1l0.6-3.3h3.2v0.8h-2.6
		l-0.3,1.7c0.4-0.3,0.8-0.4,1.2-0.4c0.6,0,1,0.2,1.4,0.6c0.4,0.4,0.6,0.9,0.6,1.5c0,0.6-0.2,1.1-0.5,1.5c-0.4,0.5-1,0.8-1.7,0.8
		c-0.6,0-1.1-0.2-1.4-0.5C173.8,25.8,173.5,25.3,173.5,24.8z"/>
	<path class="st0" d="M181.2,26.5h-0.8v-5c-0.2,0.2-0.4,0.4-0.8,0.5c-0.3,0.2-0.6,0.3-0.8,0.4v-0.8c0.4-0.2,0.8-0.5,1.2-0.8
		c0.3-0.3,0.6-0.6,0.7-0.9h0.5V26.5z"/>
	<path class="st0" d="M187,21.6l-0.8,0.1c-0.1-0.3-0.2-0.5-0.3-0.7c-0.2-0.2-0.5-0.3-0.8-0.3c-0.3,0-0.5,0.1-0.7,0.2
		c-0.2,0.2-0.4,0.4-0.6,0.8c-0.1,0.3-0.2,0.8-0.2,1.5c0.2-0.3,0.4-0.5,0.7-0.6c0.3-0.1,0.6-0.2,0.9-0.2c0.5,0,1,0.2,1.3,0.6
		c0.4,0.4,0.6,0.9,0.6,1.5c0,0.4-0.1,0.8-0.3,1.1c-0.2,0.3-0.4,0.6-0.7,0.8s-0.7,0.3-1,0.3c-0.7,0-1.2-0.2-1.6-0.7
		c-0.4-0.5-0.6-1.3-0.6-2.4c0-1.2,0.2-2.2,0.7-2.7c0.4-0.5,0.9-0.7,1.6-0.7c0.5,0,0.9,0.1,1.2,0.4C186.7,20.7,186.9,21.1,187,21.6z
		 M183.7,24.4c0,0.3,0.1,0.5,0.2,0.8c0.1,0.2,0.3,0.4,0.5,0.6c0.2,0.1,0.4,0.2,0.7,0.2c0.3,0,0.6-0.1,0.9-0.4
		c0.2-0.3,0.4-0.6,0.4-1.1c0-0.4-0.1-0.8-0.4-1.1c-0.2-0.3-0.5-0.4-0.9-0.4c-0.4,0-0.7,0.1-0.9,0.4C183.9,23.6,183.7,24,183.7,24.4z
		"/>
	<path class="st0" d="M188,26.5v-0.9h0.9v0.9c0,0.3-0.1,0.6-0.2,0.8c-0.1,0.2-0.3,0.4-0.6,0.5l-0.2-0.3c0.2-0.1,0.3-0.2,0.4-0.3
		c0.1-0.1,0.1-0.3,0.1-0.6H188z"/>
	<path class="st0" d="M194.9,20h0.8v2.2c0.2-0.2,0.3-0.3,0.5-0.4c0.2-0.1,0.4-0.1,0.6-0.1c0.6,0,1,0.2,1.3,0.7
		c0.3,0.5,0.5,1,0.5,1.7c0,0.7-0.2,1.3-0.5,1.8c-0.3,0.5-0.8,0.7-1.3,0.7c-0.2,0-0.3,0-0.5-0.1s-0.4-0.2-0.6-0.4v2.2h-0.8v-2.2
		c-0.2,0.2-0.3,0.3-0.5,0.4c-0.2,0.1-0.4,0.1-0.6,0.1c-0.5,0-0.9-0.2-1.3-0.6c-0.4-0.4-0.5-1-0.5-1.8c0-0.7,0.2-1.2,0.5-1.7
		c0.3-0.5,0.8-0.7,1.3-0.7c0.2,0,0.4,0,0.6,0.1c0.2,0.1,0.4,0.2,0.5,0.4V20z M192.7,24.1c0,0.7,0.1,1.1,0.3,1.4
		c0.2,0.3,0.5,0.4,0.8,0.4c0.3,0,0.6-0.1,0.8-0.4c0.2-0.3,0.3-0.7,0.3-1.3c0-0.6-0.1-1.1-0.3-1.4c-0.2-0.3-0.4-0.5-0.8-0.5
		c-0.3,0-0.6,0.2-0.8,0.5C192.8,23.1,192.7,23.5,192.7,24.1z M195.7,24.2c0,0.7,0.1,1.2,0.3,1.4c0.2,0.2,0.4,0.4,0.7,0.4
		c0.3,0,0.6-0.1,0.8-0.4c0.2-0.3,0.3-0.8,0.3-1.4c0-0.6-0.1-1-0.3-1.3c-0.2-0.3-0.5-0.4-0.8-0.4c-0.4,0-0.6,0.2-0.8,0.5
		C195.7,23.1,195.7,23.6,195.7,24.2z"/>
	<path class="st0" d="M202.3,25.9c-0.3,0.2-0.6,0.4-0.8,0.5c-0.3,0.1-0.6,0.2-0.9,0.2c-0.5,0-0.9-0.1-1.2-0.4
		c-0.3-0.2-0.4-0.6-0.4-1c0-0.2,0.1-0.4,0.2-0.6c0.1-0.2,0.2-0.3,0.4-0.5c0.2-0.1,0.4-0.2,0.6-0.3c0.2,0,0.4-0.1,0.7-0.1
		c0.6-0.1,1.1-0.2,1.4-0.3c0-0.1,0-0.2,0-0.2c0-0.3-0.1-0.5-0.2-0.7c-0.2-0.2-0.5-0.3-0.9-0.3c-0.4,0-0.6,0.1-0.8,0.2
		c-0.2,0.1-0.3,0.4-0.4,0.7l-0.8-0.1c0.1-0.3,0.2-0.6,0.3-0.8c0.2-0.2,0.4-0.4,0.7-0.5c0.3-0.1,0.7-0.2,1.1-0.2c0.4,0,0.7,0,1,0.1
		s0.4,0.2,0.5,0.4c0.1,0.1,0.2,0.3,0.2,0.5c0,0.1,0,0.4,0,0.7v1.1c0,0.7,0,1.2,0,1.4c0,0.2,0.1,0.4,0.2,0.6h-0.8
		C202.4,26.3,202.3,26.1,202.3,25.9z M202.2,24.1c-0.3,0.1-0.7,0.2-1.3,0.3c-0.3,0-0.6,0.1-0.7,0.2s-0.2,0.1-0.3,0.3
		c-0.1,0.1-0.1,0.2-0.1,0.4c0,0.2,0.1,0.4,0.2,0.5c0.2,0.1,0.4,0.2,0.7,0.2c0.3,0,0.6-0.1,0.8-0.2c0.2-0.1,0.4-0.3,0.5-0.5
		c0.1-0.2,0.1-0.4,0.1-0.8V24.1z"/>
	<path class="st0" d="M203.9,21.8h0.8v2c0.3,0,0.4,0,0.5-0.1c0.1-0.1,0.2-0.4,0.4-0.8c0.2-0.4,0.3-0.6,0.4-0.7s0.2-0.2,0.3-0.2
		s0.3-0.1,0.6-0.1h0.2v0.7l-0.2,0c-0.2,0-0.3,0-0.4,0.1c-0.1,0.1-0.2,0.3-0.3,0.6c-0.1,0.3-0.2,0.5-0.3,0.6s-0.3,0.2-0.5,0.3
		c0.3,0.1,0.7,0.4,1,0.9l0.9,1.4h-0.9l-0.8-1.4c-0.2-0.3-0.3-0.5-0.5-0.6c-0.1-0.1-0.3-0.1-0.5-0.1v2.2h-0.8V21.8z"/>
	<path class="st0" d="M210.7,24.8l0.8,0.1c-0.1,0.5-0.3,1-0.7,1.3c-0.3,0.3-0.8,0.5-1.3,0.5c-0.6,0-1.2-0.2-1.5-0.6
		c-0.4-0.4-0.6-1-0.6-1.8c0-0.5,0.1-0.9,0.2-1.3c0.2-0.4,0.4-0.7,0.8-0.9c0.3-0.2,0.7-0.3,1.1-0.3c0.5,0,0.9,0.1,1.2,0.4
		c0.3,0.3,0.5,0.6,0.6,1.1l-0.8,0.1c-0.1-0.3-0.2-0.5-0.4-0.7c-0.2-0.2-0.4-0.2-0.7-0.2c-0.4,0-0.7,0.1-1,0.4
		c-0.2,0.3-0.4,0.7-0.4,1.4c0,0.6,0.1,1.1,0.4,1.4c0.2,0.3,0.6,0.4,0.9,0.4c0.3,0,0.6-0.1,0.8-0.3S210.6,25.2,210.7,24.8z"/>
	<path class="st0" d="M215.7,25.4v-1.8h-1.8v-0.7h1.8v-1.8h0.7v1.8h1.8v0.7h-1.8v1.8H215.7z"/>
	<path class="st0" d="M218.8,20.9v-0.8h4.2v0.6c-0.4,0.4-0.8,1-1.2,1.7c-0.4,0.7-0.7,1.5-0.9,2.2c-0.2,0.5-0.3,1.1-0.3,1.8h-0.8
		c0-0.5,0.1-1.1,0.3-1.8s0.5-1.4,0.8-2.1c0.4-0.7,0.7-1.2,1.1-1.7H218.8z"/>
	<path class="st0" d="M225.7,20.9v-0.8h4.2v0.6c-0.4,0.4-0.8,1-1.2,1.7c-0.4,0.7-0.7,1.5-0.9,2.2c-0.2,0.5-0.3,1.1-0.3,1.8h-0.8
		c0-0.5,0.1-1.1,0.3-1.8s0.5-1.4,0.8-2.1c0.4-0.7,0.7-1.2,1.1-1.7H225.7z"/>
	<path class="st0" d="M234.5,25.7v0.8h-4.3c0-0.2,0-0.4,0.1-0.5c0.1-0.3,0.3-0.6,0.5-0.9c0.2-0.3,0.6-0.6,1-1c0.7-0.6,1.2-1,1.4-1.4
		c0.2-0.3,0.4-0.7,0.4-1c0-0.3-0.1-0.6-0.3-0.8c-0.2-0.2-0.5-0.3-0.9-0.3c-0.4,0-0.7,0.1-0.9,0.3s-0.3,0.5-0.3,0.9l-0.8-0.1
		c0.1-0.6,0.3-1.1,0.6-1.4c0.4-0.3,0.9-0.5,1.5-0.5c0.6,0,1.1,0.2,1.5,0.5c0.4,0.3,0.5,0.8,0.5,1.3c0,0.3-0.1,0.5-0.2,0.8
		s-0.3,0.5-0.5,0.8c-0.2,0.3-0.7,0.7-1.2,1.1c-0.5,0.4-0.8,0.7-0.9,0.8c-0.1,0.1-0.2,0.3-0.3,0.4H234.5z"/>
	<path class="st0" d="M235.1,20.9v-0.8h4.2v0.6c-0.4,0.4-0.8,1-1.2,1.7c-0.4,0.7-0.7,1.5-0.9,2.2c-0.2,0.5-0.3,1.1-0.3,1.8H236
		c0-0.5,0.1-1.1,0.3-1.8s0.5-1.4,0.8-2.1c0.4-0.7,0.7-1.2,1.1-1.7H235.1z"/>
	<path class="st0" d="M241.9,24.8l0.8-0.1c0.1,0.4,0.2,0.8,0.5,1c0.2,0.2,0.5,0.3,0.8,0.3c0.4,0,0.7-0.1,0.9-0.4
		c0.3-0.3,0.4-0.6,0.4-1c0-0.4-0.1-0.7-0.4-0.9c-0.2-0.2-0.5-0.4-0.9-0.4c-0.1,0-0.3,0-0.6,0.1l0.1-0.7c0.1,0,0.1,0,0.1,0
		c0.3,0,0.6-0.1,0.9-0.3s0.4-0.4,0.4-0.8c0-0.3-0.1-0.5-0.3-0.7c-0.2-0.2-0.5-0.3-0.8-0.3c-0.3,0-0.6,0.1-0.8,0.3s-0.3,0.5-0.4,0.9
		l-0.8-0.1c0.1-0.5,0.3-0.9,0.7-1.2c0.3-0.3,0.8-0.4,1.3-0.4c0.4,0,0.7,0.1,1,0.2c0.3,0.2,0.5,0.4,0.7,0.6c0.2,0.3,0.2,0.5,0.2,0.8
		c0,0.3-0.1,0.5-0.2,0.8c-0.2,0.2-0.4,0.4-0.7,0.5c0.4,0.1,0.7,0.3,0.9,0.5c0.2,0.3,0.3,0.6,0.3,1c0,0.6-0.2,1-0.6,1.4
		c-0.4,0.4-0.9,0.6-1.6,0.6c-0.6,0-1-0.2-1.4-0.5C242.2,25.8,241.9,25.3,241.9,24.8z"/>
	<path class="st0" d="M246.5,24.6v-0.8h2.4v0.8H246.5z"/>
	<path class="st0" d="M252.2,26.5h-0.8v-5c-0.2,0.2-0.4,0.4-0.8,0.5c-0.3,0.2-0.6,0.3-0.8,0.4v-0.8c0.4-0.2,0.8-0.5,1.2-0.8
		c0.3-0.3,0.6-0.6,0.7-0.9h0.5V26.5z"/>
	<path class="st0" d="M256.3,26.5h-0.8v-5c-0.2,0.2-0.4,0.4-0.8,0.5c-0.3,0.2-0.6,0.3-0.8,0.4v-0.8c0.4-0.2,0.8-0.5,1.2-0.8
		c0.3-0.3,0.6-0.6,0.7-0.9h0.5V26.5z"/>
	<path class="st0" d="M260.3,26.5h-0.8v-5c-0.2,0.2-0.4,0.4-0.8,0.5c-0.3,0.2-0.6,0.3-0.8,0.4v-0.8c0.4-0.2,0.8-0.5,1.2-0.8
		c0.3-0.3,0.6-0.6,0.7-0.9h0.5V26.5z"/>
	<path class="st0" d="M261.9,24.6v-0.8h2.4v0.8H261.9z"/>
	<path class="st0" d="M264.7,24.8l0.8-0.1c0.1,0.4,0.2,0.7,0.4,0.9c0.2,0.2,0.5,0.3,0.8,0.3c0.4,0,0.7-0.1,1-0.4s0.4-0.7,0.4-1.1
		c0-0.5-0.1-0.8-0.4-1.1c-0.3-0.3-0.6-0.4-1-0.4c-0.3,0-0.5,0.1-0.7,0.2c-0.2,0.1-0.4,0.3-0.5,0.5l-0.7-0.1l0.6-3.3h3.2v0.8h-2.6
		l-0.3,1.7c0.4-0.3,0.8-0.4,1.2-0.4c0.6,0,1,0.2,1.4,0.6c0.4,0.4,0.6,0.9,0.6,1.5c0,0.6-0.2,1.1-0.5,1.5c-0.4,0.5-1,0.8-1.7,0.8
		c-0.6,0-1.1-0.2-1.4-0.5C264.9,25.8,264.7,25.3,264.7,24.8z"/>
	<path class="st0" d="M272.3,26.5h-0.8v-5c-0.2,0.2-0.4,0.4-0.8,0.5c-0.3,0.2-0.6,0.3-0.8,0.4v-0.8c0.4-0.2,0.8-0.5,1.2-0.8
		c0.3-0.3,0.6-0.6,0.7-0.9h0.5V26.5z"/>
	<path class="st0" d="M274.1,20.9v-0.8h4.2v0.6c-0.4,0.4-0.8,1-1.2,1.7c-0.4,0.7-0.7,1.5-0.9,2.2c-0.2,0.5-0.3,1.1-0.3,1.8H275
		c0-0.5,0.1-1.1,0.3-1.8s0.5-1.4,0.8-2.1c0.4-0.7,0.7-1.2,1.1-1.7H274.1z"/>
	<path class="st0" d="M279.2,26.5v-0.9h0.9v0.9c0,0.3-0.1,0.6-0.2,0.8c-0.1,0.2-0.3,0.4-0.6,0.5l-0.2-0.3c0.2-0.1,0.3-0.2,0.4-0.3
		c0.1-0.1,0.1-0.3,0.1-0.6H279.2z"/>
	<path class="st0" d="M3.2,33.8c0-0.4-0.2-0.8-0.4-1c-0.2-0.3-0.5-0.4-0.9-0.4c-0.6,0-1,0.3-1.1,1l-0.8-0.1c0.1-0.4,0.3-0.8,0.6-1.1
		c0.3-0.3,0.7-0.4,1.3-0.4c0.7,0,1.2,0.2,1.5,0.7s0.6,1,0.6,1.8c0,0.7-0.2,1.4-0.5,1.8c-0.4,0.5-0.9,0.7-1.5,0.6
		c-0.6,0-1-0.2-1.4-0.5c-0.3-0.3-0.6-0.7-0.6-1.2l0.8-0.1c0.1,0.8,0.5,1.2,1.2,1.2c0.4,0,0.7-0.1,0.9-0.4c0.2-0.3,0.3-0.6,0.4-1.1
		H1.6v-0.7H3.2z"/>
	<path class="st0" d="M4.9,31.8h3.7v4.7H7.8v-4H5.7v2.3c0,0.5,0,0.9-0.1,1.1s-0.1,0.3-0.3,0.5s-0.4,0.2-0.7,0.2c-0.2,0-0.4,0-0.6,0
		v-0.7h0.3c0.2,0,0.3,0,0.4,0c0.1,0,0.1-0.1,0.1-0.2c0-0.1,0-0.3,0-0.7V31.8z"/>
	<path class="st0" d="M9.6,36.5v-0.9h0.9v0.9H9.6z"/>
	<path class="st0" d="M13.8,31.8h3.7v4.7h-0.8v-4h-2.1v4h-0.8V31.8z"/>
	<path class="st0" d="M18.1,34.2c0-0.9,0.2-1.5,0.7-1.9c0.4-0.3,0.9-0.5,1.5-0.5c0.6,0,1.2,0.2,1.6,0.6c0.4,0.4,0.6,1,0.6,1.7
		c0,0.6-0.1,1.1-0.3,1.4c-0.2,0.3-0.4,0.6-0.8,0.8c-0.3,0.2-0.7,0.3-1.1,0.3c-0.7,0-1.2-0.2-1.6-0.6C18.3,35.5,18.1,34.9,18.1,34.2z
		 M18.9,34.2c0,0.6,0.1,1,0.4,1.3c0.3,0.3,0.6,0.4,1,0.4c0.4,0,0.7-0.1,1-0.4s0.4-0.8,0.4-1.4c0-0.6-0.1-1-0.4-1.3
		c-0.3-0.3-0.6-0.4-1-0.4c-0.4,0-0.7,0.1-1,0.4S18.9,33.6,18.9,34.2z"/>
	<path class="st0" d="M23.1,31.8h0.8v4h1.8v-4h0.8v4h1.8v-4H29v4.7h-6V31.8z"/>
	<path class="st0" d="M29.5,31.8h3.8v0.7h-1.5v4H31v-4h-1.5V31.8z"/>
	<path class="st0" d="M36.7,35.9c-0.3,0.2-0.6,0.4-0.8,0.5c-0.3,0.1-0.6,0.2-0.9,0.2c-0.5,0-0.9-0.1-1.2-0.4c-0.3-0.2-0.4-0.6-0.4-1
		c0-0.2,0.1-0.4,0.2-0.6c0.1-0.2,0.2-0.3,0.4-0.5s0.4-0.2,0.6-0.3c0.2,0,0.4-0.1,0.7-0.1c0.6-0.1,1.1-0.2,1.4-0.3c0-0.1,0-0.2,0-0.2
		c0-0.3-0.1-0.5-0.2-0.7c-0.2-0.2-0.5-0.3-0.9-0.3c-0.4,0-0.6,0.1-0.8,0.2c-0.2,0.1-0.3,0.4-0.4,0.7l-0.8-0.1
		c0.1-0.3,0.2-0.6,0.3-0.8c0.2-0.2,0.4-0.4,0.7-0.5c0.3-0.1,0.7-0.2,1.1-0.2c0.4,0,0.7,0,1,0.1s0.4,0.2,0.5,0.4
		c0.1,0.1,0.2,0.3,0.2,0.5c0,0.1,0,0.4,0,0.7v1.1c0,0.7,0,1.2,0.1,1.4c0,0.2,0.1,0.4,0.2,0.6h-0.8C36.8,36.3,36.7,36.1,36.7,35.9z
		 M36.6,34.1c-0.3,0.1-0.7,0.2-1.3,0.3c-0.3,0-0.6,0.1-0.7,0.2s-0.2,0.1-0.3,0.3c-0.1,0.1-0.1,0.2-0.1,0.4c0,0.2,0.1,0.4,0.2,0.5
		s0.4,0.2,0.7,0.2c0.3,0,0.6-0.1,0.8-0.2c0.2-0.1,0.4-0.3,0.5-0.5c0.1-0.2,0.1-0.4,0.1-0.8V34.1z"/>
	<path class="st0" d="M38.6,32.7v-0.9h0.9v0.9H38.6z M38.6,36.5v-0.9h0.9v0.9H38.6z"/>
	<path class="st0" d="M42.4,34.2c0-0.9,0.2-1.5,0.7-1.9c0.4-0.3,0.9-0.5,1.5-0.5c0.6,0,1.2,0.2,1.6,0.6c0.4,0.4,0.6,1,0.6,1.7
		c0,0.6-0.1,1.1-0.3,1.4c-0.2,0.3-0.4,0.6-0.8,0.8c-0.3,0.2-0.7,0.3-1.1,0.3c-0.7,0-1.2-0.2-1.6-0.6C42.6,35.5,42.4,34.9,42.4,34.2z
		 M43.2,34.2c0,0.6,0.1,1,0.4,1.3c0.3,0.3,0.6,0.4,1,0.4c0.4,0,0.7-0.1,1-0.4s0.4-0.8,0.4-1.4c0-0.6-0.1-1-0.4-1.3
		c-0.3-0.3-0.6-0.4-1-0.4c-0.4,0-0.7,0.1-1,0.4S43.2,33.6,43.2,34.2z"/>
	<path class="st0" d="M47.6,36.5v-4.1h-0.7v-0.6h0.7v-0.5c0-0.3,0-0.5,0.1-0.7c0.1-0.2,0.2-0.4,0.4-0.5c0.2-0.1,0.5-0.2,0.8-0.2
		c0.2,0,0.5,0,0.7,0.1l-0.1,0.7c-0.2,0-0.3,0-0.5,0c-0.2,0-0.4,0.1-0.5,0.2c-0.1,0.1-0.1,0.3-0.1,0.6v0.4h0.9v0.6h-0.9v4.1H47.6z"/>
	<path class="st0" d="M49.6,36.5v-4.1h-0.7v-0.6h0.7v-0.5c0-0.3,0-0.5,0.1-0.7c0.1-0.2,0.2-0.4,0.4-0.5c0.2-0.1,0.5-0.2,0.8-0.2
		c0.2,0,0.5,0,0.7,0.1l-0.1,0.7c-0.2,0-0.3,0-0.5,0c-0.2,0-0.4,0.1-0.5,0.2c-0.1,0.1-0.1,0.3-0.1,0.6v0.4h0.9v0.6h-0.9v4.1H49.6z"/>
	<path class="st0" d="M51.6,31V30h0.8V31H51.6z M51.6,36.5v-4.7h0.8v4.7H51.6z"/>
	<path class="st0" d="M56.3,34.8l0.8,0.1c-0.1,0.5-0.3,1-0.7,1.3c-0.4,0.3-0.8,0.5-1.3,0.5c-0.6,0-1.2-0.2-1.5-0.6
		c-0.4-0.4-0.6-1-0.6-1.8c0-0.5,0.1-0.9,0.3-1.3s0.4-0.7,0.8-0.9c0.3-0.2,0.7-0.3,1.1-0.3c0.5,0,0.9,0.1,1.2,0.4
		c0.3,0.3,0.5,0.6,0.6,1.1l-0.8,0.1c-0.1-0.3-0.2-0.5-0.4-0.7s-0.4-0.2-0.7-0.2c-0.4,0-0.7,0.1-1,0.4c-0.2,0.3-0.4,0.7-0.4,1.4
		c0,0.6,0.1,1.1,0.4,1.4s0.6,0.4,0.9,0.4c0.3,0,0.6-0.1,0.8-0.3S56.3,35.2,56.3,34.8z"/>
	<path class="st0" d="M60.7,35l0.8,0.1c-0.1,0.5-0.4,0.8-0.7,1.1s-0.8,0.4-1.3,0.4c-0.7,0-1.2-0.2-1.6-0.6c-0.4-0.4-0.6-1-0.6-1.8
		c0-0.8,0.2-1.4,0.6-1.8s0.9-0.7,1.6-0.7c0.6,0,1.1,0.2,1.5,0.6s0.6,1,0.6,1.8c0,0,0,0.1,0,0.2H58c0,0.5,0.2,0.9,0.4,1.2
		c0.3,0.3,0.6,0.4,1,0.4c0.3,0,0.5-0.1,0.7-0.2S60.6,35.3,60.7,35z M58.1,33.7h2.6c0-0.4-0.1-0.7-0.3-0.9c-0.3-0.3-0.6-0.5-1-0.5
		c-0.4,0-0.7,0.1-0.9,0.4C58.2,33,58.1,33.3,58.1,33.7z"/>
	<path class="st0" d="M62.4,36.5v-0.9h0.9v0.9H62.4z"/>
	<path class="st0" d="M64.4,36.5V30h0.9v3.2l3.2-3.2h1.2l-2.7,2.6l2.8,3.8h-1.1l-2.3-3.3l-1.1,1v2.2H64.4z"/>
	<path class="st0" d="M69.6,36.5v-0.8l3.3-4.1c0.2-0.3,0.5-0.5,0.7-0.8H70V30h4.6v0.8L71,35.3l-0.4,0.5h4.1v0.8H69.6z"/>
	<path class="st0" d="M79.7,35.8c-0.2,0.2-0.4,0.4-0.6,0.5c-0.2,0.1-0.5,0.2-0.7,0.2c-0.3,0-0.5-0.1-0.8-0.2s-0.4-0.4-0.6-0.7
		c-0.2-0.3-0.2-0.7-0.2-1c0-0.5,0.1-0.9,0.4-1.4c0.2-0.5,0.5-0.8,0.9-1.1s0.7-0.4,1-0.4c0.3,0,0.5,0.1,0.7,0.2
		c0.2,0.1,0.4,0.3,0.6,0.6l0.1-0.7h0.8l-0.6,2.9c-0.1,0.4-0.1,0.6-0.1,0.7c0,0.1,0,0.1,0.1,0.2c0.1,0.1,0.1,0.1,0.2,0.1
		c0.2,0,0.4-0.1,0.6-0.3c0.3-0.2,0.6-0.5,0.8-0.9c0.2-0.4,0.3-0.8,0.3-1.2c0-0.5-0.1-0.9-0.4-1.4c-0.2-0.4-0.6-0.8-1.1-1
		c-0.5-0.3-1-0.4-1.6-0.4c-0.7,0-1.3,0.2-1.9,0.5c-0.6,0.3-1,0.8-1.3,1.4c-0.3,0.6-0.5,1.2-0.5,1.9c0,0.7,0.2,1.3,0.5,1.9
		c0.3,0.5,0.8,0.9,1.4,1.1c0.6,0.2,1.2,0.4,2,0.4c0.8,0,1.4-0.1,1.9-0.4c0.5-0.3,0.9-0.6,1.2-0.9h0.8c-0.1,0.3-0.4,0.6-0.8,0.9
		c-0.4,0.3-0.8,0.6-1.3,0.8c-0.5,0.2-1.1,0.3-1.8,0.3c-0.7,0-1.3-0.1-1.8-0.3c-0.5-0.2-1-0.4-1.4-0.8c-0.4-0.3-0.7-0.7-0.9-1.2
		c-0.2-0.6-0.4-1.2-0.4-1.8c0-0.7,0.1-1.4,0.4-2c0.4-0.8,0.9-1.4,1.5-1.8c0.7-0.4,1.5-0.6,2.4-0.6c0.7,0,1.4,0.1,2,0.4
		c0.6,0.3,1,0.7,1.4,1.3c0.3,0.5,0.4,1.1,0.4,1.7c0,0.8-0.3,1.6-0.9,2.3c-0.5,0.6-1.1,0.9-1.7,0.9c-0.2,0-0.4,0-0.5-0.1
		c-0.1-0.1-0.2-0.2-0.3-0.3C79.8,36.1,79.8,36,79.7,35.8z M77.6,34.6c0,0.4,0.1,0.7,0.3,0.9s0.4,0.3,0.7,0.3c0.2,0,0.3,0,0.5-0.1
		c0.2-0.1,0.4-0.2,0.5-0.4c0.2-0.2,0.3-0.4,0.4-0.7c0.1-0.3,0.2-0.6,0.2-0.9c0-0.4-0.1-0.7-0.3-0.9c-0.2-0.2-0.4-0.3-0.7-0.3
		c-0.2,0-0.4,0-0.5,0.1c-0.2,0.1-0.3,0.2-0.5,0.5s-0.3,0.5-0.4,0.8C77.7,34.1,77.6,34.3,77.6,34.6z"/>
	<path class="st0" d="M84.8,36.5H84V30h0.8v2.3c0.3-0.4,0.8-0.6,1.3-0.6c0.3,0,0.6,0.1,0.8,0.2c0.3,0.1,0.5,0.3,0.6,0.5
		c0.2,0.2,0.3,0.5,0.4,0.8c0.1,0.3,0.1,0.6,0.1,0.9c0,0.8-0.2,1.4-0.6,1.9s-0.9,0.7-1.4,0.7c-0.6,0-1-0.2-1.3-0.7V36.5z M84.8,34.1
		c0,0.6,0.1,1,0.2,1.2c0.2,0.4,0.6,0.6,1,0.6c0.3,0,0.6-0.2,0.9-0.5c0.3-0.3,0.4-0.7,0.4-1.3c0-0.6-0.1-1.1-0.4-1.3
		c-0.2-0.3-0.5-0.4-0.9-0.4c-0.3,0-0.6,0.2-0.9,0.5C84.9,33.1,84.8,33.6,84.8,34.1z"/>
	<path class="st0" d="M91.8,35.9c-0.3,0.2-0.6,0.4-0.8,0.5c-0.3,0.1-0.6,0.2-0.9,0.2c-0.5,0-0.9-0.1-1.2-0.4c-0.3-0.2-0.4-0.6-0.4-1
		c0-0.2,0.1-0.4,0.2-0.6c0.1-0.2,0.2-0.3,0.4-0.5s0.4-0.2,0.6-0.3c0.2,0,0.4-0.1,0.7-0.1c0.6-0.1,1.1-0.2,1.4-0.3c0-0.1,0-0.2,0-0.2
		c0-0.3-0.1-0.5-0.2-0.7c-0.2-0.2-0.5-0.3-0.9-0.3c-0.4,0-0.6,0.1-0.8,0.2c-0.2,0.1-0.3,0.4-0.4,0.7l-0.8-0.1
		c0.1-0.3,0.2-0.6,0.3-0.8c0.2-0.2,0.4-0.4,0.7-0.5c0.3-0.1,0.7-0.2,1.1-0.2c0.4,0,0.7,0,1,0.1s0.4,0.2,0.5,0.4
		c0.1,0.1,0.2,0.3,0.2,0.5c0,0.1,0,0.4,0,0.7v1.1c0,0.7,0,1.2,0.1,1.4c0,0.2,0.1,0.4,0.2,0.6h-0.8C91.9,36.3,91.8,36.1,91.8,35.9z
		 M91.7,34.1c-0.3,0.1-0.7,0.2-1.3,0.3c-0.3,0-0.6,0.1-0.7,0.2s-0.2,0.1-0.3,0.3c-0.1,0.1-0.1,0.2-0.1,0.4c0,0.2,0.1,0.4,0.2,0.5
		s0.4,0.2,0.7,0.2c0.3,0,0.6-0.1,0.8-0.2c0.2-0.1,0.4-0.3,0.5-0.5c0.1-0.2,0.1-0.4,0.1-0.8V34.1z"/>
	<path class="st0" d="M96.5,36.5v-0.7c-0.4,0.5-0.9,0.8-1.5,0.8c-0.3,0-0.5-0.1-0.8-0.2s-0.4-0.2-0.5-0.4c-0.1-0.2-0.2-0.4-0.2-0.6
		c0-0.2,0-0.4,0-0.7v-2.9h0.8v2.6c0,0.4,0,0.7,0,0.8c0,0.2,0.2,0.4,0.3,0.5c0.2,0.1,0.4,0.2,0.6,0.2s0.5-0.1,0.7-0.2
		c0.2-0.1,0.4-0.3,0.4-0.5c0.1-0.2,0.1-0.5,0.1-0.9v-2.5h0.8v4.7H96.5z"/>
	<path class="st0" d="M97.8,35.1l0.8-0.1c0,0.3,0.2,0.6,0.4,0.7c0.2,0.2,0.5,0.2,0.8,0.2c0.4,0,0.6-0.1,0.8-0.2
		c0.2-0.1,0.3-0.3,0.3-0.5c0-0.2-0.1-0.3-0.2-0.4c-0.1-0.1-0.4-0.2-0.8-0.3c-0.6-0.1-1-0.3-1.2-0.4c-0.2-0.1-0.4-0.3-0.5-0.4
		c-0.1-0.2-0.2-0.4-0.2-0.6c0-0.2,0-0.4,0.1-0.6c0.1-0.2,0.2-0.3,0.4-0.4c0.1-0.1,0.3-0.2,0.5-0.2c0.2-0.1,0.4-0.1,0.7-0.1
		c0.4,0,0.7,0.1,1,0.2c0.3,0.1,0.5,0.2,0.6,0.4c0.1,0.2,0.2,0.4,0.3,0.7l-0.8,0.1c0-0.2-0.1-0.4-0.3-0.6c-0.2-0.1-0.4-0.2-0.7-0.2
		c-0.4,0-0.6,0.1-0.8,0.2s-0.2,0.3-0.2,0.4c0,0.1,0,0.2,0.1,0.3c0.1,0.1,0.2,0.2,0.3,0.2c0.1,0,0.3,0.1,0.7,0.2
		c0.6,0.1,0.9,0.3,1.2,0.4c0.2,0.1,0.4,0.2,0.5,0.4s0.2,0.4,0.2,0.7c0,0.3-0.1,0.5-0.2,0.7c-0.2,0.2-0.4,0.4-0.7,0.5
		c-0.3,0.1-0.6,0.2-1,0.2c-0.6,0-1.1-0.1-1.4-0.4C98.1,36,97.9,35.6,97.8,35.1z"/>
	<path class="st0" d="M105.4,34.8l0.8,0.1c-0.1,0.5-0.3,1-0.7,1.3c-0.4,0.3-0.8,0.5-1.3,0.5c-0.6,0-1.2-0.2-1.5-0.6
		c-0.4-0.4-0.6-1-0.6-1.8c0-0.5,0.1-0.9,0.3-1.3s0.4-0.7,0.8-0.9c0.3-0.2,0.7-0.3,1.1-0.3c0.5,0,0.9,0.1,1.2,0.4
		c0.3,0.3,0.5,0.6,0.6,1.1l-0.8,0.1c-0.1-0.3-0.2-0.5-0.4-0.7s-0.4-0.2-0.7-0.2c-0.4,0-0.7,0.1-1,0.4c-0.2,0.3-0.4,0.7-0.4,1.4
		c0,0.6,0.1,1.1,0.4,1.4s0.6,0.4,0.9,0.4c0.3,0,0.6-0.1,0.8-0.3S105.3,35.2,105.4,34.8z"/>
	<path class="st0" d="M106.5,36.5V30h0.8v2.3c0.4-0.4,0.8-0.6,1.4-0.6c0.3,0,0.6,0.1,0.9,0.2c0.3,0.1,0.4,0.3,0.5,0.6
		c0.1,0.2,0.2,0.6,0.2,1v3h-0.8v-3c0-0.4-0.1-0.7-0.3-0.9c-0.2-0.2-0.4-0.3-0.7-0.3c-0.2,0-0.5,0.1-0.7,0.2
		c-0.2,0.1-0.4,0.3-0.4,0.5s-0.1,0.5-0.1,0.9v2.6H106.5z"/>
	<path class="st0" d="M111.4,36.5v-0.9h0.9v0.9H111.4z"/>
	<path class="st0" d="M116.4,34.8l0.8,0.1c-0.1,0.5-0.3,1-0.7,1.3c-0.4,0.3-0.8,0.5-1.3,0.5c-0.6,0-1.2-0.2-1.5-0.6
		c-0.4-0.4-0.6-1-0.6-1.8c0-0.5,0.1-0.9,0.3-1.3s0.4-0.7,0.8-0.9c0.3-0.2,0.7-0.3,1.1-0.3c0.5,0,0.9,0.1,1.2,0.4
		c0.3,0.3,0.5,0.6,0.6,1.1l-0.8,0.1c-0.1-0.3-0.2-0.5-0.4-0.7s-0.4-0.2-0.7-0.2c-0.4,0-0.7,0.1-1,0.4c-0.2,0.3-0.4,0.7-0.4,1.4
		c0,0.6,0.1,1.1,0.4,1.4s0.6,0.4,0.9,0.4c0.3,0,0.6-0.1,0.8-0.3S116.4,35.2,116.4,34.8z"/>
	<path class="st0" d="M117.3,34.2c0-0.9,0.2-1.5,0.7-1.9c0.4-0.3,0.9-0.5,1.5-0.5c0.6,0,1.2,0.2,1.6,0.6c0.4,0.4,0.6,1,0.6,1.7
		c0,0.6-0.1,1.1-0.3,1.4c-0.2,0.3-0.4,0.6-0.8,0.8c-0.3,0.2-0.7,0.3-1.1,0.3c-0.7,0-1.2-0.2-1.6-0.6
		C117.5,35.5,117.3,34.9,117.3,34.2z M118.1,34.2c0,0.6,0.1,1,0.4,1.3c0.3,0.3,0.6,0.4,1,0.4c0.4,0,0.7-0.1,1-0.4s0.4-0.8,0.4-1.4
		c0-0.6-0.1-1-0.4-1.3c-0.3-0.3-0.6-0.4-1-0.4c-0.4,0-0.7,0.1-1,0.4S118.1,33.6,118.1,34.2z"/>
	<path class="st0" d="M122.2,36.5v-4.7h0.7v0.7c0.1-0.2,0.3-0.4,0.6-0.6c0.2-0.1,0.5-0.2,0.8-0.2c0.3,0,0.6,0.1,0.9,0.2
		c0.2,0.1,0.4,0.3,0.5,0.6c0.4-0.5,0.8-0.8,1.4-0.8c0.5,0,0.8,0.1,1.1,0.4c0.2,0.3,0.4,0.7,0.4,1.2v3.2h-0.8v-2.9
		c0-0.3,0-0.5-0.1-0.7c-0.1-0.1-0.1-0.3-0.3-0.3s-0.3-0.1-0.5-0.1c-0.3,0-0.6,0.1-0.8,0.3c-0.2,0.2-0.3,0.6-0.3,1v2.7H125v-3
		c0-0.4-0.1-0.6-0.2-0.8s-0.3-0.3-0.6-0.3c-0.2,0-0.4,0.1-0.6,0.2c-0.2,0.1-0.3,0.3-0.4,0.5s-0.1,0.6-0.1,1v2.4H122.2z"/>
</g>
</svg>
