<?xml version="1.0" encoding="utf-8"?>
<!-- Generator: Adobe Illustrator 25.2.3, SVG Export Plug-In . SVG Version: 6.00 Build 0)  -->
<svg version="1.1" id="Layer_1" xmlns="http://www.w3.org/2000/svg" xmlns:xlink="http://www.w3.org/1999/xlink" x="0px" y="0px"
	 viewBox="0 0 300.1 47" style="enable-background:new 0 0 300.1 47;" xml:space="preserve">
<style type="text/css">
	.st0{opacity:0.5;}
	.st1{fill:#147BB8;}
</style>
<g class="st0">
	<path class="st1" d="M0.3,23.5h7.1v2.2H1.8v5.7h2.6c1,0,1.7,0.2,2.3,0.5s1,0.9,1.4,1.8s0.5,1.9,0.5,3c0,0.9-0.1,1.8-0.4,2.6
		c-0.2,0.8-0.6,1.5-1.1,2c-0.5,0.5-1.3,0.8-2.5,0.8H0.3V23.5z M1.8,39.8h2.9c0.8,0,1.4-0.3,1.7-0.8C6.8,38.5,7,37.7,7,36.6
		c0-0.8-0.1-1.4-0.3-1.9c-0.2-0.5-0.5-0.8-0.9-1c-0.4-0.2-1.1-0.3-2-0.3H1.8V39.8z"/>
	<path class="st1" d="M10.3,23.5h7.1v2.2h-5.6v5.7h2.6c1,0,1.7,0.2,2.3,0.5s1,0.9,1.4,1.8s0.5,1.9,0.5,3c0,0.9-0.1,1.8-0.4,2.6
		c-0.2,0.8-0.6,1.5-1.1,2c-0.5,0.5-1.3,0.8-2.5,0.8h-4.3V23.5z M11.7,39.8h2.9c0.8,0,1.4-0.3,1.7-0.8c0.4-0.5,0.6-1.3,0.6-2.4
		c0-0.8-0.1-1.4-0.3-1.9c-0.2-0.5-0.5-0.8-0.9-1c-0.4-0.2-1.1-0.3-2-0.3h-1.9V39.8z"/>
	<path class="st1" d="M27.8,47h-1.3v-5.1H26l-1.8-5c-0.5-1.3-0.8-2.1-1-2.5c-0.4-0.8-1-1.2-1.6-1.2v8.6h-1.4V23.5h1.4v8.1
		c0.7,0,1.2-0.3,1.6-1c0.2-0.4,0.5-1.3,0.8-2.7c0.3-1.2,0.6-2.1,0.7-2.6c0.5-1.2,1.1-1.8,2-1.8c0.6,0,0.8,0,0.9,0v2.1
		c-0.1,0-0.2,0-0.3,0c-0.1,0-0.2,0-0.3,0c-0.5,0-0.9,0.3-1.2,0.9c-0.2,0.3-0.4,1-0.6,2.1c-0.3,1.2-0.5,1.9-0.7,2.4
		c-0.3,0.7-0.7,1.2-1.2,1.6c0.7,0.3,1.4,1.4,2.1,3.3l1.4,4h0.8V47z"/>
	<path class="st1" d="M29.3,41.9v-2.6h1.5v2.6H29.3z"/>
	<path class="st1" d="M38.5,23.5h6.6v16.2h1v6.5h-1.3v-4.3h-7.2v4.3h-1.3v-6.5h0.8c0.9-2.2,1.3-6.7,1.3-13.5V23.5z M43.7,25.7h-3.8
		v0.9c0,1.6-0.1,3.7-0.2,6.4c-0.2,2.7-0.5,4.9-1,6.7h5V25.7z"/>
	<path class="st1" d="M57.4,32.5c0,2.8-0.4,5.1-1.2,6.9c-0.8,1.9-2.1,2.8-3.8,2.8c-1.7,0-3-0.9-3.8-2.8c-0.8-1.8-1.2-4.1-1.2-6.9
		v-1.2h8.5c-0.1-1.8-0.4-3.3-1-4.3c-0.6-1.1-1.5-1.7-2.5-1.7c-1.6,0-2.6,1.3-3,3.9L48,28.5c0.3-1.7,0.8-3.1,1.6-4
		c0.8-0.9,1.7-1.3,2.8-1.3c1,0,1.9,0.4,2.7,1.2c0.8,0.8,1.4,2,1.8,3.5C57.2,29.2,57.3,30.7,57.4,32.5z M55.9,33.5h-7
		c0.1,2.1,0.4,3.7,1,4.9s1.5,1.8,2.5,1.8c1,0,1.9-0.6,2.5-1.8S55.8,35.5,55.9,33.5z"/>
	<path class="st1" d="M59.2,41.9V23.5h4.1c0.7,0,1.3,0.1,1.7,0.2c0.5,0.2,1,0.4,1.3,0.9c0.4,0.4,0.7,1,0.9,1.8
		c0.2,0.8,0.3,1.6,0.3,2.5c0,1.6-0.3,2.9-0.9,4c-0.6,1.1-1.7,1.6-3.2,1.6h-2.8v7.5H59.2z M60.7,32.2h2.8c0.9,0,1.6-0.3,2-0.9
		c0.4-0.6,0.6-1.4,0.6-2.5c0-0.8-0.1-1.4-0.3-2s-0.5-0.9-0.9-1.1c-0.2-0.1-0.7-0.2-1.3-0.2h-2.8V32.2z"/>
	<path class="st1" d="M69.6,41.9V23.5H71v18.4H69.6z"/>
	<path class="st1" d="M74.4,23.5h6.8v18.4h-1.4V25.7h-3.9v9.5c0,1.9-0.1,3.3-0.2,4.2c-0.1,0.9-0.3,1.6-0.7,2.1
		c-0.3,0.5-0.8,0.7-1.3,0.7c-0.3,0-0.7-0.1-1.1-0.3l0.2-2.2c0.2,0.2,0.4,0.3,0.6,0.3c0.3,0,0.6-0.2,0.7-0.6c0.2-0.4,0.2-1.4,0.2-2.9
		V23.5z"/>
	<path class="st1" d="M83.8,41.9V23.5h1.4v18.4H83.8z"/>
	<path class="st1" d="M87.8,23.5h1.4v8.1c0.7,0,1.1-0.2,1.4-0.6s0.6-1.5,1-3.1c0.3-1.2,0.5-2.1,0.7-2.6c0.2-0.5,0.5-0.9,0.8-1.3
		c0.4-0.3,0.8-0.5,1.2-0.5c0.6,0,0.8,0,0.9,0v2.1c0,0-0.1,0-0.3,0c-0.2,0-0.3,0-0.3,0c-0.5,0-0.8,0.2-1,0.6
		c-0.2,0.4-0.5,1.2-0.8,2.4c-0.4,1.6-0.7,2.5-0.9,2.9c-0.3,0.4-0.6,0.7-0.9,1c0.7,0.3,1.4,1.4,2.1,3.3l2.2,6.1h-1.8l-1.8-5
		c-0.5-1.4-0.9-2.3-1.3-2.8s-0.8-0.8-1.3-0.8v8.6h-1.4V23.5z"/>
	<path class="st1" d="M100.2,36.7l1.4-0.6c0.1,0.9,0.4,1.8,0.8,2.7c0.5,0.9,1.1,1.3,1.8,1.3c0.8,0,1.4-0.3,1.8-1
		c0.4-0.7,0.7-1.5,0.7-2.4c0-1-0.2-1.8-0.7-2.4c-0.5-0.6-1.1-0.9-1.9-0.9h-0.7v-2.1c0.7,0,1.2-0.1,1.5-0.2c0.4-0.1,0.7-0.5,0.9-1
		s0.4-1.1,0.4-1.8c0-0.8-0.2-1.5-0.6-2.1c-0.4-0.6-0.9-0.9-1.5-0.9c-0.5,0-1,0.2-1.4,0.7c-0.4,0.5-0.7,1.1-0.8,1.8s-0.2,1.3-0.2,1.7
		l-1.4-0.5c0.3-3.9,1.6-5.9,3.8-5.9c1.1,0,1.9,0.5,2.5,1.5s0.9,2.2,0.9,3.5c0,1.7-0.5,3-1.4,4c0.6,0.3,1,0.8,1.4,1.6
		c0.4,0.8,0.6,1.8,0.6,2.9c0,1.6-0.4,2.9-1.1,4s-1.7,1.6-2.9,1.6C102.2,42.2,100.9,40.4,100.2,36.7z"/>
	<path class="st1" d="M108.8,41.9l4.2-18.4h1.6l4.5,18.4h-1.6l-1.3-5.6h-4.5l-1.2,5.6H108.8z M112,34.3h3.7l-1.1-5.1
		c-0.3-1.5-0.6-2.8-0.8-3.8c-0.1,1.2-0.3,2.4-0.6,3.5L112,34.3z"/>
	<path class="st1" d="M121.7,41.9V25.7h-3.6v-2.2h8.6v2.2h-3.6v16.2H121.7z"/>
	<path class="st1" d="M132.5,23.5h7.1v2.2H134v5.7h2.6c1,0,1.7,0.2,2.3,0.5s1,0.9,1.4,1.8s0.5,1.9,0.5,3c0,0.9-0.1,1.8-0.4,2.6
		c-0.2,0.8-0.6,1.5-1.1,2c-0.5,0.5-1.3,0.8-2.5,0.8h-4.3V23.5z M134,39.8h2.9c0.8,0,1.4-0.3,1.7-0.8c0.4-0.5,0.6-1.3,0.6-2.4
		c0-0.8-0.1-1.4-0.3-1.9c-0.2-0.5-0.5-0.8-0.9-1c-0.4-0.2-1.1-0.3-2-0.3H134V39.8z"/>
	<path class="st1" d="M141.8,32.9c0-3.1,0.5-5.4,1.5-7.2c1-1.7,2.2-2.6,3.8-2.6c1,0,1.9,0.4,2.7,1.2c0.8,0.8,1.4,1.9,1.8,3.4
		c0.4,1.5,0.6,3.1,0.6,4.9c0,1.9-0.2,3.5-0.7,5s-1.1,2.6-1.9,3.3c-0.8,0.8-1.7,1.1-2.6,1.1c-1,0-1.9-0.4-2.7-1.3
		c-0.8-0.8-1.4-2-1.8-3.4S141.8,34.5,141.8,32.9z M143.3,33c0,2.2,0.4,4,1.1,5.2c0.7,1.3,1.6,1.9,2.7,1.9c1.1,0,2-0.6,2.7-1.9
		c0.7-1.3,1-3.1,1-5.5c0-1.5-0.1-2.8-0.4-3.9c-0.3-1.1-0.7-2-1.3-2.6c-0.6-0.6-1.2-0.9-1.9-0.9c-1,0-1.9,0.6-2.6,1.8
		S143.3,30.2,143.3,33z"/>
	<path class="st1" d="M154.7,23.5h6.8v18.4h-1.4V25.7h-3.9v9.5c0,1.9-0.1,3.3-0.2,4.2c-0.1,0.9-0.3,1.6-0.7,2.1
		c-0.3,0.5-0.8,0.7-1.3,0.7c-0.3,0-0.7-0.1-1.1-0.3l0.2-2.2c0.2,0.2,0.4,0.3,0.6,0.3c0.3,0,0.6-0.2,0.7-0.6s0.2-1.4,0.2-2.9V23.5z"
		/>
	<path class="st1" d="M163.9,23.5h1.4v7.9h2.6c1.7,0,2.8,0.5,3.4,1.6c0.5,1.1,0.8,2.3,0.8,3.6c0,1.4-0.3,2.7-0.9,3.7
		c-0.6,1.1-1.6,1.6-3.2,1.6h-4.1V23.5z M165.4,39.8h2.6c0.9,0,1.6-0.3,2-0.8c0.4-0.5,0.6-1.3,0.6-2.5c0-0.8-0.1-1.4-0.4-1.9
		c-0.2-0.5-0.6-0.8-1-1c-0.4-0.1-1-0.2-2-0.2h-1.9V39.8z M173.4,23.5h1.4v18.4h-1.4V23.5z"/>
	<path class="st1" d="M177.3,23.5h8.6v18.4h-1.4V25.7h-5.7v16.2h-1.4V23.5z"/>
	<path class="st1" d="M195.2,41.9V25.7h-3.6v-2.2h8.6v2.2h-3.6v16.2H195.2z"/>
	<path class="st1" d="M200,41.9l4.2-18.4h1.5l4.5,18.4h-1.6l-1.3-5.6h-4.5l-1.2,5.6H200z M203.2,34.3h3.7l-1.1-5.1
		c-0.3-1.5-0.6-2.8-0.8-3.8c-0.1,1.2-0.3,2.4-0.6,3.5L203.2,34.3z"/>
	<path class="st1" d="M211.4,23.5h7.1v2.2h-5.6v5.7h2.6c1,0,1.7,0.2,2.3,0.5s1,0.9,1.4,1.8s0.5,1.9,0.5,3c0,0.9-0.1,1.8-0.4,2.6
		c-0.2,0.8-0.6,1.5-1.1,2c-0.5,0.5-1.3,0.8-2.5,0.8h-4.3V23.5z M212.9,39.8h2.9c0.8,0,1.4-0.3,1.7-0.8c0.4-0.5,0.6-1.3,0.6-2.4
		c0-0.8-0.1-1.4-0.3-1.9c-0.2-0.5-0.5-0.8-0.9-1c-0.4-0.2-1.1-0.3-2-0.3h-1.9V39.8z"/>
	<path class="st1" d="M221.4,23.5h1.4v7.9h2.6c1.7,0,2.8,0.5,3.4,1.6c0.5,1.1,0.8,2.3,0.8,3.6c0,1.4-0.3,2.7-0.9,3.7
		c-0.6,1.1-1.6,1.6-3.2,1.6h-4.1V23.5z M222.9,39.8h2.6c0.9,0,1.6-0.3,2-0.8c0.4-0.5,0.6-1.3,0.6-2.5c0-0.8-0.1-1.4-0.4-1.9
		c-0.2-0.5-0.6-0.8-1-1c-0.4-0.1-1-0.2-2-0.2h-1.9V39.8z M230.9,23.5h1.4v18.4h-1.4V23.5z"/>
	<path class="st1" d="M235.6,23.5h6.8v18.4h-1.4V25.7H237v9.5c0,1.9-0.1,3.3-0.2,4.2c-0.1,0.9-0.3,1.6-0.7,2.1
		c-0.3,0.5-0.8,0.7-1.3,0.7c-0.3,0-0.7-0.1-1.1-0.3l0.2-2.2c0.2,0.2,0.4,0.3,0.6,0.3c0.3,0,0.6-0.2,0.7-0.6s0.2-1.4,0.2-2.9V23.5z"
		/>
	<path class="st1" d="M244.7,41.9V23.5h2.2l2.6,13c0.2,1.2,0.4,2.1,0.5,2.7c0.1-0.7,0.3-1.7,0.6-2.9l2.6-12.8h1.9v18.4h-1.4V26.5
		l-3.2,15.4h-1.3l-3.1-15.7v15.7H244.7z"/>
	<path class="st1" d="M256.2,41.9l4.2-18.4h1.5l4.5,18.4h-1.6l-1.3-5.6h-4.5l-1.2,5.6H256.2z M259.4,34.3h3.7l-1.1-5.1
		c-0.3-1.5-0.6-2.8-0.8-3.8c-0.1,1.2-0.3,2.4-0.6,3.5L259.4,34.3z"/>
	<path class="st1" d="M267.6,23.5h1.3v14.6l5.8-14.6h1.4v18.4h-1.3V27.4L269,41.9h-1.4V23.5z M273,19.1h0.9c-0.1,1-0.3,1.8-0.7,2.4
		c-0.4,0.6-0.9,0.8-1.5,0.8c-0.6,0-1.1-0.3-1.5-0.8c-0.4-0.6-0.6-1.4-0.7-2.4h0.9c0.1,0.6,0.2,1,0.4,1.3s0.5,0.4,0.8,0.4
		c0.4,0,0.7-0.1,0.9-0.4C272.8,20.1,272.9,19.7,273,19.1z"/>
	<path class="st1" d="M279.4,23.5h6.6v16.2h1v6.5h-1.3v-4.3h-7.2v4.3h-1.3v-6.5h0.8c0.9-2.2,1.3-6.7,1.3-13.5V23.5z M284.6,25.7
		h-3.8v0.9c0,1.6-0.1,3.7-0.2,6.4c-0.2,2.7-0.5,4.9-1,6.7h5V25.7z"/>
	<path class="st1" d="M288.8,23.5h1.4v7.9h2.6c1.7,0,2.8,0.5,3.4,1.6c0.5,1.1,0.8,2.3,0.8,3.6c0,1.4-0.3,2.7-0.9,3.7
		c-0.6,1.1-1.6,1.6-3.2,1.6h-4.1V23.5z M290.3,39.8h2.6c0.9,0,1.6-0.3,2-0.8c0.4-0.5,0.6-1.3,0.6-2.5c0-0.8-0.1-1.4-0.4-1.9
		c-0.2-0.5-0.6-0.8-1-1c-0.4-0.1-1-0.2-2-0.2h-1.9V39.8z M298.3,23.5h1.4v18.4h-1.4V23.5z"/>
</g>
<g>
	<path class="st1" d="M6,8.9H4.8V7.3H4.3L3.5,5.4c0,0,0-0.1-0.1-0.2c0,0-0.1-0.2-0.2-0.3C3,4.6,2.9,4.5,2.8,4.4
		C2.7,4.2,2.5,4.2,2.2,4.2v3.1H0.8V0.1h1.4v3C2.6,3.1,2.8,3,3,2.7c0-0.1,0.2-0.4,0.4-0.9c0.3-0.7,0.5-1.2,0.8-1.4
		C4.5,0.2,5,0.1,5.7,0.1c0,0,0.1,0,0.2,0v1.1l-0.2,0c-0.5,0-0.8,0.1-1,0.4C4.7,1.7,4.6,2,4.4,2.5C4.3,2.8,4.2,3,4.1,3.1
		C4,3.3,3.8,3.5,3.6,3.6c0.3,0.1,0.6,0.3,0.8,0.6C4.6,4.5,4.8,4.9,5,5.3l0.4,0.8H6V8.9z"/>
	<path class="st1" d="M6.5,4.6c0-0.5,0.1-0.9,0.3-1.3s0.5-0.8,1-1S8.7,2,9.2,2c0.8,0,1.4,0.3,1.9,0.8c0.5,0.5,0.8,1.2,0.8,1.9
		c0,0.8-0.3,1.4-0.8,2C10.6,7.1,10,7.4,9.2,7.4c-0.5,0-0.9-0.1-1.4-0.3s-0.8-0.5-1-0.9C6.6,5.7,6.5,5.2,6.5,4.6z M7.9,4.7
		c0,0.5,0.1,0.9,0.4,1.2s0.5,0.4,0.9,0.4s0.7-0.1,0.9-0.4s0.4-0.7,0.4-1.2c0-0.5-0.1-0.9-0.4-1.2S9.5,3.1,9.2,3.1S8.5,3.2,8.3,3.5
		S7.9,4.2,7.9,4.7z"/>
	<path class="st1" d="M13.1,2.1h4.6v5.2h-1.4V3.2h-1.9v2.3c0,0.6-0.1,1-0.2,1.2c-0.1,0.2-0.3,0.4-0.5,0.5S13.3,7.4,13,7.4
		c-0.2,0-0.5,0-0.9-0.1v-1c0,0,0.1,0,0.2,0c0.1,0,0.3,0,0.3,0c0.2,0,0.3-0.1,0.3-0.2c0-0.1,0.1-0.5,0.1-1V2.1z"/>
	<path class="st1" d="M23.3,7.3h-3.9v1.4h-1.1V6.2h0.6c0.2-0.3,0.4-0.7,0.6-1.2s0.2-1.5,0.3-2.8h4.2v4.1h0.6v2.5h-1.1V7.3z
		 M22.5,6.2l0-2.9h-1.7c-0.1,1.4-0.3,2.4-0.7,2.9H22.5z"/>
	<path class="st1" d="M26.4,3.7l-1.2-0.2c0.1-0.5,0.4-0.9,0.7-1.1S26.7,2,27.4,2c0.6,0,1.1,0.1,1.4,0.2c0.3,0.1,0.5,0.3,0.6,0.6
		C29.5,3,29.6,3.4,29.6,4l0,1.6c0,0.5,0,0.8,0.1,1c0,0.2,0.1,0.4,0.2,0.7h-1.4c0-0.1-0.1-0.2-0.1-0.4c0-0.1,0-0.1,0-0.2
		c-0.2,0.2-0.5,0.4-0.8,0.5s-0.6,0.2-0.9,0.2c-0.5,0-1-0.1-1.3-0.4C25.2,6.7,25,6.3,25,5.9c0-0.3,0.1-0.6,0.2-0.8
		c0.1-0.2,0.3-0.4,0.6-0.5c0.3-0.1,0.6-0.2,1.1-0.3C27.6,4.1,28,4,28.2,3.9V3.8c0-0.3-0.1-0.5-0.2-0.6C27.9,3.1,27.7,3,27.3,3
		c-0.2,0-0.4,0-0.6,0.1C26.6,3.3,26.5,3.4,26.4,3.7z M28.2,4.8c-0.2,0.1-0.5,0.1-0.8,0.2s-0.6,0.2-0.7,0.2c-0.2,0.1-0.3,0.3-0.3,0.5
		c0,0.2,0.1,0.4,0.2,0.5s0.3,0.2,0.5,0.2c0.2,0,0.5-0.1,0.7-0.2c0.2-0.1,0.3-0.3,0.3-0.5c0-0.1,0.1-0.3,0.1-0.7V4.8z"/>
	<path class="st1" d="M30.9,2.1h1.4V4h2V2.1h1.4v5.2h-1.4V5.1h-2v2.2h-1.4V2.1z"/>
	<path class="st1" d="M38,3.7l-1.2-0.2c0.1-0.5,0.4-0.9,0.7-1.1S38.3,2,39,2c0.6,0,1.1,0.1,1.4,0.2c0.3,0.1,0.5,0.3,0.6,0.6
		C41.1,3,41.2,3.4,41.2,4l0,1.6c0,0.5,0,0.8,0.1,1c0,0.2,0.1,0.4,0.2,0.7h-1.4c0-0.1-0.1-0.2-0.1-0.4c0-0.1,0-0.1,0-0.2
		c-0.2,0.2-0.5,0.4-0.8,0.5s-0.6,0.2-0.9,0.2c-0.5,0-1-0.1-1.3-0.4c-0.3-0.3-0.5-0.7-0.5-1.1c0-0.3,0.1-0.6,0.2-0.8
		c0.1-0.2,0.3-0.4,0.6-0.5c0.3-0.1,0.6-0.2,1.1-0.3c0.6-0.1,1.1-0.2,1.3-0.3V3.8c0-0.3-0.1-0.5-0.2-0.6C39.5,3.1,39.3,3,38.9,3
		c-0.2,0-0.4,0-0.6,0.1C38.2,3.3,38.1,3.4,38,3.7z M39.8,4.8C39.7,4.9,39.4,4.9,39,5s-0.6,0.2-0.7,0.2C38.1,5.4,38,5.5,38,5.7
		c0,0.2,0.1,0.4,0.2,0.5s0.3,0.2,0.5,0.2c0.2,0,0.5-0.1,0.7-0.2c0.2-0.1,0.3-0.3,0.3-0.5c0-0.1,0.1-0.3,0.1-0.7V4.8z"/>
	<path class="st1" d="M42.5,2.1h1.3v0.8c0.2-0.3,0.4-0.5,0.7-0.6S45.1,2,45.4,2c0.6,0,1.1,0.2,1.5,0.7s0.6,1.1,0.6,2
		c0,0.9-0.2,1.5-0.6,2c-0.4,0.5-0.9,0.7-1.5,0.7c-0.3,0-0.5-0.1-0.8-0.2c-0.2-0.1-0.5-0.3-0.7-0.6v2.6h-1.4V2.1z M43.9,4.6
		c0,0.6,0.1,1,0.3,1.3c0.2,0.3,0.5,0.4,0.8,0.4c0.3,0,0.6-0.1,0.8-0.4c0.2-0.3,0.3-0.7,0.3-1.3c0-0.5-0.1-0.9-0.3-1.2
		S45.4,3.1,45,3.1c-0.3,0-0.6,0.1-0.8,0.4C44,3.7,43.9,4.1,43.9,4.6z"/>
	<path class="st1" d="M52.5,3.7l-1.2-0.2c0.1-0.5,0.4-0.9,0.7-1.1S52.8,2,53.5,2c0.6,0,1.1,0.1,1.4,0.2c0.3,0.1,0.5,0.3,0.6,0.6
		C55.6,3,55.6,3.4,55.6,4l0,1.6c0,0.5,0,0.8,0.1,1c0,0.2,0.1,0.4,0.2,0.7h-1.4c0-0.1-0.1-0.2-0.1-0.4c0-0.1,0-0.1,0-0.2
		c-0.2,0.2-0.5,0.4-0.8,0.5s-0.6,0.2-0.9,0.2c-0.5,0-1-0.1-1.3-0.4c-0.3-0.3-0.5-0.7-0.5-1.1c0-0.3,0.1-0.6,0.2-0.8
		c0.1-0.2,0.3-0.4,0.6-0.5c0.3-0.1,0.6-0.2,1.1-0.3C53.6,4.1,54,4,54.3,3.9V3.8c0-0.3-0.1-0.5-0.2-0.6C54,3.1,53.7,3,53.4,3
		c-0.2,0-0.4,0-0.6,0.1C52.7,3.3,52.5,3.4,52.5,3.7z M54.3,4.8c-0.2,0.1-0.5,0.1-0.8,0.2s-0.6,0.2-0.7,0.2c-0.2,0.1-0.3,0.3-0.3,0.5
		c0,0.2,0.1,0.4,0.2,0.5s0.3,0.2,0.5,0.2c0.2,0,0.5-0.1,0.7-0.2c0.2-0.1,0.3-0.3,0.3-0.5c0-0.1,0.1-0.3,0.1-0.7V4.8z"/>
	<path class="st1" d="M57.4,2.1H62v5.2h-1.4V3.2h-1.9v2.3c0,0.6-0.1,1-0.2,1.2c-0.1,0.2-0.3,0.4-0.5,0.5s-0.4,0.1-0.8,0.1
		c-0.2,0-0.5,0-0.9-0.1v-1c0,0,0.1,0,0.2,0c0.1,0,0.3,0,0.3,0c0.2,0,0.3-0.1,0.3-0.2c0-0.1,0.1-0.5,0.1-1V2.1z"/>
	<path class="st1" d="M67.6,7.3h-3.9v1.4h-1.1V6.2h0.6c0.2-0.3,0.4-0.7,0.6-1.2S64,3.4,64,2.1h4.2v4.1h0.6v2.5h-1.1V7.3z M66.8,6.2
		l0-2.9h-1.7c-0.1,1.4-0.3,2.4-0.7,2.9H66.8z"/>
	<path class="st1" d="M69.7,2.1h1.4v2.2h1.4c0.5,0,1,0,1.2,0.1c0.3,0.1,0.5,0.2,0.7,0.5c0.2,0.3,0.3,0.6,0.3,0.9
		c0,0.5-0.2,0.9-0.5,1.1c-0.3,0.3-0.9,0.4-1.6,0.4h-2.9V2.1z M71.1,6.4h1.3c0.3,0,0.6-0.1,0.7-0.2s0.2-0.3,0.2-0.5
		c0-0.3-0.1-0.4-0.3-0.5c-0.2-0.1-0.5-0.1-1-0.1h-0.9V6.4z M75.5,2.1h1.4v5.2h-1.4V2.1z"/>
	<path class="st1" d="M78.2,2.1h1.4V4h2V2.1h1.4v5.2h-1.4V5.1h-2v2.2h-1.4V2.1z"/>
	<path class="st1" d="M88.6,7.3h-3.9v1.4h-1.1V6.2h0.6c0.2-0.3,0.4-0.7,0.6-1.2s0.2-1.5,0.3-2.8h4.2v4.1h0.6v2.5h-1.1V7.3z
		 M87.8,6.2l0-2.9h-1.7c-0.1,1.4-0.3,2.4-0.7,2.9H87.8z"/>
	<path class="st1" d="M91.7,3.7l-1.2-0.2c0.1-0.5,0.4-0.9,0.7-1.1S92,2,92.7,2c0.6,0,1.1,0.1,1.4,0.2c0.3,0.1,0.5,0.3,0.6,0.6
		C94.8,3,94.8,3.4,94.8,4l0,1.6c0,0.5,0,0.8,0.1,1c0,0.2,0.1,0.4,0.2,0.7h-1.4c0-0.1-0.1-0.2-0.1-0.4c0-0.1,0-0.1,0-0.2
		c-0.2,0.2-0.5,0.4-0.8,0.5S92.3,7.4,92,7.4c-0.5,0-1-0.1-1.3-0.4c-0.3-0.3-0.5-0.7-0.5-1.1c0-0.3,0.1-0.6,0.2-0.8
		c0.1-0.2,0.3-0.4,0.6-0.5c0.3-0.1,0.6-0.2,1.1-0.3c0.6-0.1,1.1-0.2,1.3-0.3V3.8c0-0.3-0.1-0.5-0.2-0.6C93.2,3.1,92.9,3,92.6,3
		c-0.2,0-0.4,0-0.6,0.1C91.8,3.3,91.7,3.4,91.7,3.7z M93.5,4.8C93.3,4.9,93,4.9,92.7,5S92,5.2,91.9,5.2c-0.2,0.1-0.3,0.3-0.3,0.5
		c0,0.2,0.1,0.4,0.2,0.5s0.3,0.2,0.5,0.2c0.2,0,0.5-0.1,0.7-0.2c0.2-0.1,0.3-0.3,0.3-0.5c0-0.1,0.1-0.3,0.1-0.7V4.8z"/>
	<path class="st1" d="M98.9,2.1h1.4V4h2V2.1h1.4v5.2h-1.4V5.1h-2v2.2h-1.4V2.1z"/>
	<path class="st1" d="M108,5.6l1.4,0.2c-0.2,0.5-0.5,0.9-0.8,1.1c-0.4,0.3-0.9,0.4-1.4,0.4c-0.9,0-1.6-0.3-2-0.9
		c-0.3-0.5-0.5-1.1-0.5-1.8c0-0.9,0.2-1.5,0.7-2c0.4-0.5,1-0.7,1.7-0.7c0.8,0,1.4,0.3,1.8,0.8c0.4,0.5,0.7,1.3,0.6,2.3H106
		c0,0.4,0.1,0.7,0.3,0.9c0.2,0.2,0.5,0.3,0.8,0.3c0.2,0,0.4-0.1,0.5-0.2S107.9,5.9,108,5.6z M108.1,4.3c0-0.4-0.1-0.7-0.3-0.9
		c-0.2-0.2-0.4-0.3-0.7-0.3c-0.3,0-0.5,0.1-0.7,0.3S106,3.9,106,4.3H108.1z"/>
	<path class="st1" d="M110.5,2.1h3.5v1.1h-2.1v4.1h-1.4V2.1z"/>
	<path class="st1" d="M114.7,1.4V0.1h1.4v1.3H114.7z M114.7,7.3V2.1h1.4v5.2H114.7z"/>
	<path class="st1" d="M118.9,5.2V4.3c0.2,0,0.4,0,0.5,0c0.1,0,0.2-0.1,0.3-0.2c0.1-0.1,0.1-0.3,0.1-0.4c0-0.2-0.1-0.3-0.2-0.5
		c-0.1-0.1-0.3-0.2-0.5-0.2c-0.2,0-0.3,0-0.5,0.1s-0.3,0.3-0.4,0.6l-1.2-0.2c0.1-0.5,0.4-0.8,0.8-1s0.8-0.3,1.3-0.3
		c0.6,0,1.1,0.1,1.5,0.4c0.3,0.3,0.5,0.6,0.5,1.1c0,0.3-0.1,0.5-0.2,0.7c-0.1,0.2-0.4,0.3-0.7,0.5c0.4,0.1,0.7,0.3,0.9,0.5
		c0.2,0.2,0.3,0.5,0.3,0.8c0,0.4-0.2,0.8-0.6,1c-0.4,0.3-0.9,0.4-1.6,0.4c-1.2,0-2-0.5-2.3-1.5l1.3-0.2c0.2,0.5,0.5,0.8,1,0.8
		c0.3,0,0.5-0.1,0.6-0.2c0.2-0.1,0.2-0.3,0.2-0.5c0-0.2-0.1-0.4-0.2-0.5c-0.2-0.1-0.4-0.2-0.6-0.2H118.9z"/>
	<path class="st1" d="M122.4,2.1h3.5v1.1h-2.1v4.1h-1.4V2.1z"/>
	<path class="st1" d="M126.6,1.4V0.1h1.4v1.3H126.6z M126.6,7.3V2.1h1.4v5.2H126.6z"/>
	<path class="st1" d="M136.5,8.7h-1.1V7.3H135l-0.7-1.5c-0.1-0.3-0.2-0.4-0.3-0.5c-0.1-0.1-0.3-0.2-0.5-0.2v2.2h-1.4V2.1h1.4v2.1
		c0.3,0,0.4-0.1,0.6-0.3c0.1-0.1,0.1-0.3,0.3-0.6c0.1-0.4,0.3-0.7,0.5-0.9c0.2-0.2,0.5-0.3,0.9-0.3c0.1,0,0.3,0,0.5,0V3
		c-0.4,0-0.6,0-0.7,0.1c-0.1,0.1-0.2,0.3-0.3,0.6c-0.2,0.5-0.4,0.8-0.7,0.9c0.4,0.1,0.8,0.5,1.1,1.1c0,0,0,0.1,0.1,0.1l0.2,0.3h0.6
		V8.7z"/>
	<path class="st1" d="M136.9,4.6c0-0.5,0.1-0.9,0.3-1.3s0.5-0.8,1-1c0.4-0.2,0.9-0.3,1.4-0.3c0.8,0,1.4,0.3,1.9,0.8
		c0.5,0.5,0.8,1.2,0.8,1.9c0,0.8-0.3,1.4-0.8,2c-0.5,0.5-1.1,0.8-1.9,0.8c-0.5,0-0.9-0.1-1.4-0.3c-0.4-0.2-0.8-0.5-1-0.9
		C137,5.7,136.9,5.2,136.9,4.6z M138.3,4.7c0,0.5,0.1,0.9,0.4,1.2s0.5,0.4,0.9,0.4s0.7-0.1,0.9-0.4c0.2-0.3,0.4-0.7,0.4-1.2
		c0-0.5-0.1-0.9-0.4-1.2c-0.2-0.3-0.5-0.4-0.9-0.4s-0.7,0.1-0.9,0.4S138.3,4.2,138.3,4.7z"/>
	<path class="st1" d="M143.4,2.1h4.6v5.2h-1.4V3.2h-1.9v2.3c0,0.6-0.1,1-0.2,1.2c-0.1,0.2-0.3,0.4-0.5,0.5s-0.4,0.1-0.8,0.1
		c-0.2,0-0.5,0-0.9-0.1v-1c0,0,0.1,0,0.2,0c0.1,0,0.3,0,0.3,0c0.2,0,0.3-0.1,0.3-0.2c0-0.1,0.1-0.5,0.1-1V2.1z"/>
	<path class="st1" d="M153.7,7.3h-3.9v1.4h-1.1V6.2h0.6c0.2-0.3,0.4-0.7,0.6-1.2c0.2-0.6,0.2-1.5,0.3-2.8h4.2v4.1h0.6v2.5h-1.1V7.3z
		 M152.9,6.2l0-2.9h-1.7c-0.1,1.4-0.3,2.4-0.7,2.9H152.9z"/>
	<path class="st1" d="M156.8,3.7l-1.2-0.2c0.1-0.5,0.4-0.9,0.7-1.1s0.8-0.4,1.5-0.4c0.6,0,1.1,0.1,1.4,0.2c0.3,0.1,0.5,0.3,0.6,0.6
		C159.9,3,160,3.4,160,4l0,1.6c0,0.5,0,0.8,0.1,1c0,0.2,0.1,0.4,0.2,0.7h-1.4c0-0.1-0.1-0.2-0.1-0.4c0-0.1,0-0.1,0-0.2
		c-0.2,0.2-0.5,0.4-0.8,0.5s-0.6,0.2-0.9,0.2c-0.5,0-1-0.1-1.3-0.4c-0.3-0.3-0.5-0.7-0.5-1.1c0-0.3,0.1-0.6,0.2-0.8
		c0.1-0.2,0.3-0.4,0.6-0.5c0.3-0.1,0.6-0.2,1.1-0.3c0.6-0.1,1.1-0.2,1.3-0.3V3.8c0-0.3-0.1-0.5-0.2-0.6c-0.1-0.1-0.4-0.2-0.7-0.2
		c-0.2,0-0.4,0-0.6,0.1C157,3.3,156.9,3.4,156.8,3.7z M158.6,4.8c-0.2,0.1-0.5,0.1-0.8,0.2s-0.6,0.2-0.7,0.2
		c-0.2,0.1-0.3,0.3-0.3,0.5c0,0.2,0.1,0.4,0.2,0.5s0.3,0.2,0.5,0.2c0.2,0,0.5-0.1,0.7-0.2c0.2-0.1,0.3-0.3,0.3-0.5
		c0-0.1,0.1-0.3,0.1-0.7V4.8z"/>
	<path class="st1" d="M161.3,2.1h1.4V4h2V2.1h1.4v5.2h-1.4V5.1h-2v2.2h-1.4V2.1z"/>
	<path class="st1" d="M166.7,2.1h1.5l1.2,3.7l1.2-3.7h1.4l-1.8,5L169.9,8c-0.1,0.3-0.2,0.5-0.3,0.7c-0.1,0.2-0.2,0.3-0.4,0.4
		c-0.1,0.1-0.3,0.2-0.5,0.2c-0.2,0.1-0.4,0.1-0.7,0.1c-0.3,0-0.5,0-0.8-0.1l-0.1-1.1c0.2,0,0.4,0.1,0.6,0.1c0.3,0,0.6-0.1,0.7-0.3
		c0.2-0.2,0.3-0.4,0.4-0.7L166.7,2.1z"/>
	<path class="st1" d="M177.9,7.3V5.1c-0.2,0-0.3,0.1-0.4,0.1c-0.1,0.1-0.2,0.3-0.4,0.6l-0.7,1.5H175l0.7-1.4
		c0.4-0.7,0.8-1.1,1.2-1.2c-0.3-0.1-0.5-0.4-0.7-0.9c-0.1-0.4-0.2-0.6-0.3-0.6C175.8,3,175.5,3,175.2,3V2.1c0.3,0,0.5,0,0.6,0
		c0.3,0,0.6,0.1,0.8,0.2s0.4,0.5,0.6,1c0.1,0.4,0.3,0.7,0.4,0.8c0.1,0.1,0.2,0.2,0.4,0.2V2.1h1.4v2.1c0.2,0,0.3-0.1,0.4-0.2
		c0.1-0.1,0.2-0.4,0.3-0.8c0.2-0.5,0.4-0.9,0.6-1c0.2-0.1,0.5-0.2,0.8-0.2c0.1,0,0.3,0,0.5,0V3c-0.4,0-0.6,0-0.7,0.1
		c-0.1,0.1-0.2,0.3-0.3,0.6c-0.2,0.5-0.4,0.8-0.7,0.9c0.4,0.1,0.8,0.5,1.2,1.2l0.7,1.4h-1.5L180,5.8c-0.1-0.3-0.2-0.4-0.3-0.5
		c-0.1-0.1-0.2-0.2-0.4-0.2v2.2H177.9z"/>
	<path class="st1" d="M183.9,3.7l-1.2-0.2c0.1-0.5,0.4-0.9,0.7-1.1s0.8-0.4,1.5-0.4c0.6,0,1.1,0.1,1.4,0.2c0.3,0.1,0.5,0.3,0.6,0.6
		c0.1,0.2,0.2,0.6,0.2,1.2l0,1.6c0,0.5,0,0.8,0.1,1c0,0.2,0.1,0.4,0.2,0.7h-1.4c0-0.1-0.1-0.2-0.1-0.4c0-0.1,0-0.1,0-0.2
		c-0.2,0.2-0.5,0.4-0.8,0.5s-0.6,0.2-0.9,0.2c-0.5,0-1-0.1-1.3-0.4c-0.3-0.3-0.5-0.7-0.5-1.1c0-0.3,0.1-0.6,0.2-0.8
		c0.1-0.2,0.3-0.4,0.6-0.5c0.3-0.1,0.6-0.2,1.1-0.3c0.6-0.1,1.1-0.2,1.3-0.3V3.8c0-0.3-0.1-0.5-0.2-0.6c-0.1-0.1-0.4-0.2-0.7-0.2
		c-0.2,0-0.4,0-0.6,0.1C184.1,3.3,184,3.4,183.9,3.7z M185.8,4.8c-0.2,0.1-0.5,0.1-0.8,0.2s-0.6,0.2-0.7,0.2
		c-0.2,0.1-0.3,0.3-0.3,0.5c0,0.2,0.1,0.4,0.2,0.5s0.3,0.2,0.5,0.2c0.2,0,0.5-0.1,0.7-0.2c0.2-0.1,0.3-0.3,0.3-0.5
		c0-0.1,0.1-0.3,0.1-0.7V4.8z"/>
	<path class="st1" d="M191.9,3.2h-2.1v1.1h0.9v0.8h-0.9v2.1h-1.4V5.2h-0.6V4.3h0.6V2.1h3.5V3.2z"/>
	<path class="st1" d="M196.9,7.3H193v1.4h-1.1V6.2h0.6c0.2-0.3,0.4-0.7,0.6-1.2s0.2-1.5,0.3-2.8h4.2v4.1h0.6v2.5h-1.1V7.3z
		 M196.1,6.2l0-2.9h-1.7c-0.1,1.4-0.3,2.4-0.7,2.9H196.1z"/>
	<path class="st1" d="M200,3.7l-1.2-0.2c0.1-0.5,0.4-0.9,0.7-1.1S200.3,2,201,2c0.6,0,1.1,0.1,1.4,0.2c0.3,0.1,0.5,0.3,0.6,0.6
		c0.1,0.2,0.2,0.6,0.2,1.2l0,1.6c0,0.5,0,0.8,0.1,1c0,0.2,0.1,0.4,0.2,0.7h-1.4c0-0.1-0.1-0.2-0.1-0.4c0-0.1,0-0.1,0-0.2
		c-0.2,0.2-0.5,0.4-0.8,0.5s-0.6,0.2-0.9,0.2c-0.5,0-1-0.1-1.3-0.4c-0.3-0.3-0.5-0.7-0.5-1.1c0-0.3,0.1-0.6,0.2-0.8
		c0.1-0.2,0.3-0.4,0.6-0.5c0.3-0.1,0.6-0.2,1.1-0.3c0.6-0.1,1.1-0.2,1.3-0.3V3.8c0-0.3-0.1-0.5-0.2-0.6c-0.1-0.1-0.4-0.2-0.7-0.2
		c-0.2,0-0.4,0-0.6,0.1C200.2,3.3,200.1,3.4,200,3.7z M201.9,4.8c-0.2,0.1-0.5,0.1-0.8,0.2s-0.6,0.2-0.7,0.2
		c-0.2,0.1-0.3,0.3-0.3,0.5c0,0.2,0.1,0.4,0.2,0.5s0.3,0.2,0.5,0.2c0.2,0,0.5-0.1,0.7-0.2c0.2-0.1,0.3-0.3,0.3-0.5
		c0-0.1,0.1-0.3,0.1-0.7V4.8z"/>
	<path class="st1" d="M204.5,2.1h1.3v3.3l2.1-3.3h1.3v5.2H208V4l-2.1,3.3h-1.3V2.1z M207.8,0h0.7c0,0.4-0.2,0.8-0.5,1
		c-0.3,0.3-0.6,0.4-1.1,0.4s-0.8-0.1-1.1-0.4c-0.3-0.3-0.4-0.6-0.5-1h0.7c0,0.2,0.1,0.4,0.2,0.5c0.1,0.1,0.3,0.2,0.6,0.2
		s0.5-0.1,0.6-0.2C207.7,0.4,207.8,0.2,207.8,0z"/>
	<path class="st1" d="M211.1,2.1h4.6v5.2h-1.4V3.2h-1.9v2.3c0,0.6-0.1,1-0.2,1.2c-0.1,0.2-0.3,0.4-0.5,0.5s-0.4,0.1-0.8,0.1
		c-0.2,0-0.5,0-0.9-0.1v-1c0,0,0.1,0,0.2,0c0.1,0,0.3,0,0.3,0c0.2,0,0.3-0.1,0.3-0.2c0-0.1,0.1-0.5,0.1-1V2.1z"/>
	<path class="st1" d="M218.1,3.7l-1.2-0.2c0.1-0.5,0.4-0.9,0.7-1.1s0.8-0.4,1.5-0.4c0.6,0,1.1,0.1,1.4,0.2c0.3,0.1,0.5,0.3,0.6,0.6
		c0.1,0.2,0.2,0.6,0.2,1.2l0,1.6c0,0.5,0,0.8,0.1,1c0,0.2,0.1,0.4,0.2,0.7h-1.4c0-0.1-0.1-0.2-0.1-0.4c0-0.1,0-0.1,0-0.2
		c-0.2,0.2-0.5,0.4-0.8,0.5s-0.6,0.2-0.9,0.2c-0.5,0-1-0.1-1.3-0.4c-0.3-0.3-0.5-0.7-0.5-1.1c0-0.3,0.1-0.6,0.2-0.8
		c0.1-0.2,0.3-0.4,0.6-0.5c0.3-0.1,0.6-0.2,1.1-0.3c0.6-0.1,1.1-0.2,1.3-0.3V3.8c0-0.3-0.1-0.5-0.2-0.6C219.6,3.1,219.3,3,219,3
		c-0.2,0-0.4,0-0.6,0.1C218.3,3.3,218.2,3.4,218.1,3.7z M219.9,4.8c-0.2,0.1-0.5,0.1-0.8,0.2s-0.6,0.2-0.7,0.2
		c-0.2,0.1-0.3,0.3-0.3,0.5c0,0.2,0.1,0.4,0.2,0.5s0.3,0.2,0.5,0.2c0.2,0,0.5-0.1,0.7-0.2c0.2-0.1,0.3-0.3,0.3-0.5
		c0-0.1,0.1-0.3,0.1-0.7V4.8z"/>
	<path class="st1" d="M222.6,2.1h1.3v0.8c0.2-0.3,0.4-0.5,0.7-0.6s0.6-0.2,0.9-0.2c0.6,0,1.1,0.2,1.5,0.7s0.6,1.1,0.6,2
		c0,0.9-0.2,1.5-0.6,2c-0.4,0.5-0.9,0.7-1.5,0.7c-0.3,0-0.5-0.1-0.8-0.2c-0.2-0.1-0.5-0.3-0.7-0.6v2.6h-1.4V2.1z M223.9,4.6
		c0,0.6,0.1,1,0.3,1.3c0.2,0.3,0.5,0.4,0.8,0.4c0.3,0,0.6-0.1,0.8-0.4c0.2-0.3,0.3-0.7,0.3-1.3c0-0.5-0.1-0.9-0.3-1.2
		s-0.5-0.4-0.8-0.4c-0.3,0-0.6,0.1-0.8,0.4C224,3.7,223.9,4.1,223.9,4.6z"/>
	<path class="st1" d="M228.7,2.1h1.4v2.2h1.4c0.5,0,1,0,1.2,0.1c0.3,0.1,0.5,0.2,0.7,0.5c0.2,0.3,0.3,0.6,0.3,0.9
		c0,0.5-0.2,0.9-0.5,1.1c-0.3,0.3-0.9,0.4-1.6,0.4h-2.9V2.1z M230.1,6.4h1.3c0.3,0,0.6-0.1,0.7-0.2s0.2-0.3,0.2-0.5
		c0-0.3-0.1-0.4-0.3-0.5c-0.2-0.1-0.5-0.1-1-0.1h-0.9V6.4z M234.5,2.1h1.4v5.2h-1.4V2.1z"/>
	<path class="st1" d="M237.3,2.1h1.7l1.3,3.6l1.3-3.6h1.7v5.2h-1.2V3.9l-1.3,3.4h-1.2l-1.2-3.4v3.4h-1.2V2.1z"/>
	<path class="st1" d="M247.7,5.6l1.4,0.2c-0.2,0.5-0.5,0.9-0.8,1.1c-0.4,0.3-0.9,0.4-1.4,0.4c-0.9,0-1.6-0.3-2-0.9
		c-0.3-0.5-0.5-1.1-0.5-1.8c0-0.9,0.2-1.5,0.7-2c0.4-0.5,1-0.7,1.7-0.7c0.8,0,1.4,0.3,1.8,0.8c0.4,0.5,0.7,1.3,0.6,2.3h-3.4
		c0,0.4,0.1,0.7,0.3,0.9c0.2,0.2,0.5,0.3,0.8,0.3c0.2,0,0.4-0.1,0.5-0.2S247.6,5.9,247.7,5.6z M247.7,4.3c0-0.4-0.1-0.7-0.3-0.9
		C247.2,3.1,247,3,246.7,3c-0.3,0-0.5,0.1-0.7,0.3s-0.3,0.5-0.3,0.9H247.7z"/>
	<path class="st1" d="M250.2,2.1h1.4V4h2V2.1h1.4v5.2h-1.4V5.1h-2v2.2h-1.4V2.1z"/>
	<path class="st1" d="M2.9,17.3v-2.2c-0.2,0-0.3,0.1-0.4,0.1c-0.1,0.1-0.2,0.3-0.4,0.6l-0.7,1.5H0l0.7-1.4c0.4-0.7,0.8-1.1,1.2-1.2
		c-0.3-0.1-0.5-0.4-0.7-0.9c-0.1-0.4-0.2-0.6-0.3-0.6C0.8,13,0.5,13,0.2,13v-0.9c0.3,0,0.5,0,0.6,0c0.3,0,0.6,0.1,0.8,0.2
		s0.4,0.5,0.6,1c0.1,0.4,0.3,0.7,0.4,0.8c0.1,0.1,0.2,0.2,0.4,0.2v-2.1h1.4v2.1c0.2,0,0.3-0.1,0.4-0.2s0.2-0.4,0.3-0.8
		c0.2-0.5,0.4-0.9,0.6-1s0.5-0.2,0.8-0.2c0.1,0,0.3,0,0.5,0V13c-0.4,0-0.6,0-0.7,0.1c-0.1,0.1-0.2,0.3-0.3,0.6
		c-0.2,0.5-0.4,0.8-0.7,0.9c0.4,0.1,0.8,0.5,1.2,1.2l0.7,1.4H5.6L5,15.8c-0.1-0.3-0.2-0.4-0.3-0.5s-0.2-0.2-0.4-0.2v2.2H2.9z"/>
	<path class="st1" d="M12.3,14.7c0,0.8-0.2,1.4-0.6,1.9c-0.4,0.5-1,0.8-1.8,0.8c-0.9,0-1.5-0.3-1.9-0.9c-0.4-0.5-0.5-1.3-0.5-2.2
		h3.4c0-0.4-0.1-0.7-0.3-0.9c-0.2-0.3-0.5-0.4-0.8-0.4c-0.4,0-0.7,0.2-0.9,0.7l-1.4-0.2c0.4-1,1.1-1.5,2.3-1.5c0.9,0,1.6,0.3,2,0.9
		C12.2,13.3,12.3,13.9,12.3,14.7z M10.9,15.1H8.9c0,0.3,0.1,0.6,0.3,0.8c0.2,0.3,0.4,0.4,0.8,0.4c0.3,0,0.6-0.1,0.8-0.4
		C10.8,15.8,10.9,15.5,10.9,15.1z"/>
	<path class="st1" d="M13.3,12.1h1.4V14h2v-1.9H18v5.2h-1.4v-2.2h-2v2.2h-1.4V12.1z"/>
	<path class="st1" d="M22.4,15.6l1.4,0.2c-0.2,0.5-0.5,0.9-0.8,1.1c-0.4,0.3-0.9,0.4-1.4,0.4c-0.9,0-1.6-0.3-2-0.9
		c-0.3-0.5-0.5-1.1-0.5-1.8c0-0.9,0.2-1.5,0.7-2c0.4-0.5,1-0.7,1.7-0.7c0.8,0,1.4,0.3,1.8,0.8c0.4,0.5,0.7,1.3,0.6,2.3h-3.4
		c0,0.4,0.1,0.7,0.3,0.9c0.2,0.2,0.5,0.3,0.8,0.3c0.2,0,0.4-0.1,0.5-0.2S22.3,15.9,22.4,15.6z M22.5,14.3c0-0.4-0.1-0.7-0.3-0.9
		C22,13.1,21.8,13,21.5,13c-0.3,0-0.5,0.1-0.7,0.3s-0.3,0.5-0.3,0.9H22.5z"/>
	<path class="st1" d="M32,18.7h-1.1v-1.4h-0.4l-0.7-1.5c-0.1-0.3-0.2-0.4-0.3-0.5c-0.1-0.1-0.3-0.2-0.5-0.2v2.2h-1.4v-5.2h1.4v2.1
		c0.3,0,0.4-0.1,0.6-0.3c0.1-0.1,0.1-0.3,0.3-0.6c0.1-0.4,0.3-0.7,0.5-0.9c0.2-0.2,0.5-0.3,0.9-0.3c0.1,0,0.3,0,0.5,0V13
		c-0.4,0-0.6,0-0.7,0.1c-0.1,0.1-0.2,0.3-0.3,0.6c-0.2,0.5-0.4,0.8-0.7,0.9c0.4,0.1,0.8,0.5,1.1,1.1c0,0,0,0.1,0.1,0.1l0.2,0.3H32
		V18.7z"/>
	<path class="st1" d="M33.8,13.7l-1.2-0.2c0.1-0.5,0.4-0.9,0.7-1.1s0.8-0.4,1.5-0.4c0.6,0,1.1,0.1,1.4,0.2c0.3,0.1,0.5,0.3,0.6,0.6
		C36.9,13,37,13.4,37,14l0,1.6c0,0.5,0,0.8,0.1,1c0,0.2,0.1,0.4,0.2,0.7h-1.4c0-0.1-0.1-0.2-0.1-0.4c0-0.1,0-0.1,0-0.2
		c-0.2,0.2-0.5,0.4-0.8,0.5s-0.6,0.2-0.9,0.2c-0.5,0-1-0.1-1.3-0.4c-0.3-0.3-0.5-0.7-0.5-1.1c0-0.3,0.1-0.6,0.2-0.8
		c0.1-0.2,0.3-0.4,0.6-0.5c0.3-0.1,0.6-0.2,1.1-0.3c0.6-0.1,1.1-0.2,1.3-0.3v-0.1c0-0.3-0.1-0.5-0.2-0.6C35.3,13.1,35,13,34.7,13
		c-0.2,0-0.4,0-0.6,0.1C34,13.3,33.9,13.4,33.8,13.7z M35.6,14.8c-0.2,0.1-0.5,0.1-0.8,0.2s-0.6,0.2-0.7,0.2
		c-0.2,0.1-0.3,0.3-0.3,0.5c0,0.2,0.1,0.4,0.2,0.5s0.3,0.2,0.5,0.2c0.2,0,0.5-0.1,0.7-0.2c0.2-0.1,0.3-0.3,0.3-0.5
		c0-0.1,0.1-0.3,0.1-0.7V14.8z"/>
	<path class="st1" d="M38.3,12.1h1.3v0.8c0.2-0.3,0.4-0.5,0.7-0.6s0.6-0.2,0.9-0.2c0.6,0,1.1,0.2,1.5,0.7s0.6,1.1,0.6,2
		c0,0.9-0.2,1.5-0.6,2c-0.4,0.5-0.9,0.7-1.5,0.7c-0.3,0-0.5-0.1-0.8-0.2c-0.2-0.1-0.5-0.3-0.7-0.6v2.6h-1.4V12.1z M39.6,14.6
		c0,0.6,0.1,1,0.3,1.3c0.2,0.3,0.5,0.4,0.8,0.4c0.3,0,0.6-0.1,0.8-0.4c0.2-0.3,0.3-0.7,0.3-1.3c0-0.5-0.1-0.9-0.3-1.2
		s-0.5-0.4-0.8-0.4c-0.3,0-0.6,0.1-0.8,0.4C39.7,13.7,39.6,14.1,39.6,14.6z"/>
	<path class="st1" d="M49,13.6l-1.4,0.2c0-0.3-0.1-0.5-0.3-0.6c-0.2-0.1-0.4-0.2-0.6-0.2c-0.3,0-0.6,0.1-0.8,0.4
		c-0.2,0.2-0.3,0.6-0.3,1.2c0,0.6,0.1,1,0.3,1.3c0.2,0.3,0.5,0.4,0.8,0.4c0.3,0,0.5-0.1,0.6-0.2c0.2-0.1,0.3-0.4,0.4-0.8l1.3,0.2
		c-0.1,0.6-0.4,1.1-0.8,1.4s-0.9,0.5-1.6,0.5c-0.8,0-1.4-0.2-1.8-0.7c-0.5-0.5-0.7-1.1-0.7-2c0-0.9,0.2-1.5,0.7-2
		c0.5-0.5,1.1-0.7,1.8-0.7c0.6,0,1.1,0.1,1.5,0.4C48.5,12.7,48.8,13.1,49,13.6z"/>
	<path class="st1" d="M50,12.1h1.4v2.2h1.4c0.5,0,1,0,1.2,0.1c0.3,0.1,0.5,0.2,0.7,0.5c0.2,0.3,0.3,0.6,0.3,0.9
		c0,0.5-0.2,0.9-0.5,1.1c-0.3,0.3-0.9,0.4-1.6,0.4H50V12.1z M51.4,16.4h1.3c0.3,0,0.6-0.1,0.7-0.2s0.2-0.3,0.2-0.5
		c0-0.3-0.1-0.4-0.3-0.5c-0.2-0.1-0.5-0.1-1-0.1h-0.9V16.4z M55.8,12.1h1.4v5.2h-1.4V12.1z"/>
	<path class="st1" d="M61.3,12.1h1.4v2.1c0.2,0,0.4-0.1,0.5-0.2s0.2-0.4,0.3-0.7c0.2-0.5,0.4-0.8,0.6-1s0.5-0.2,0.8-0.2
		c0.1,0,0.3,0,0.5,0l0,0.9c-0.4,0-0.6,0-0.7,0.1c-0.1,0.1-0.2,0.3-0.3,0.6c-0.2,0.5-0.4,0.8-0.7,0.9c0.4,0.1,0.8,0.5,1.1,1.1
		c0,0,0,0.1,0.1,0.1l0.8,1.4h-1.5l-0.7-1.5c-0.1-0.3-0.3-0.5-0.4-0.6c-0.1-0.1-0.3-0.1-0.5-0.1v2.2h-1.4V12.1z"/>
	<path class="st1" d="M71.3,14.7c0,0.8-0.3,1.4-0.8,1.9s-1.1,0.8-1.9,0.8c-0.5,0-0.9-0.1-1.4-0.3c-0.4-0.2-0.8-0.5-1-1
		c-0.2-0.4-0.3-0.9-0.3-1.5c0-0.5,0.1-0.9,0.3-1.3c0.2-0.4,0.6-0.8,1-1c0.4-0.2,0.9-0.3,1.4-0.3c0.8,0,1.4,0.3,1.9,0.8
		C71.1,13.2,71.3,13.9,71.3,14.7z M69.9,15.1h-2.5c0.1,0.3,0.2,0.6,0.4,0.8c0.2,0.2,0.5,0.4,0.8,0.4s0.6-0.1,0.8-0.4
		C69.7,15.7,69.9,15.4,69.9,15.1z M69.9,14.3c-0.1-0.3-0.2-0.6-0.4-0.8c-0.2-0.2-0.5-0.3-0.8-0.3c-0.4,0-0.7,0.1-0.9,0.4
		c-0.2,0.2-0.3,0.4-0.3,0.7H69.9z"/>
	<path class="st1" d="M72.4,12.1h1.3v0.8c0.2-0.3,0.4-0.5,0.7-0.6s0.6-0.2,0.9-0.2c0.6,0,1.1,0.2,1.5,0.7s0.6,1.1,0.6,2
		c0,0.9-0.2,1.5-0.6,2c-0.4,0.5-0.9,0.7-1.5,0.7c-0.3,0-0.5-0.1-0.8-0.2c-0.2-0.1-0.5-0.3-0.7-0.6v2.6h-1.4V12.1z M73.7,14.6
		c0,0.6,0.1,1,0.3,1.3c0.2,0.3,0.5,0.4,0.8,0.4c0.3,0,0.6-0.1,0.8-0.4c0.2-0.3,0.3-0.7,0.3-1.3c0-0.5-0.1-0.9-0.3-1.2
		s-0.5-0.4-0.8-0.4c-0.3,0-0.6,0.1-0.8,0.4C73.9,13.7,73.7,14.1,73.7,14.6z"/>
	<path class="st1" d="M83.1,13.6l-1.4,0.2c0-0.3-0.1-0.5-0.3-0.6c-0.2-0.1-0.4-0.2-0.6-0.2c-0.3,0-0.6,0.1-0.8,0.4
		c-0.2,0.2-0.3,0.6-0.3,1.2c0,0.6,0.1,1,0.3,1.3c0.2,0.3,0.5,0.4,0.8,0.4c0.3,0,0.5-0.1,0.6-0.2c0.2-0.1,0.3-0.4,0.4-0.8l1.3,0.2
		c-0.1,0.6-0.4,1.1-0.8,1.4s-0.9,0.5-1.6,0.5c-0.8,0-1.4-0.2-1.8-0.7c-0.5-0.5-0.7-1.1-0.7-2c0-0.9,0.2-1.5,0.7-2
		c0.5-0.5,1.1-0.7,1.8-0.7c0.6,0,1.1,0.1,1.5,0.4C82.6,12.7,82.9,13.1,83.1,13.6z"/>
	<path class="st1" d="M87.1,15.6l1.4,0.2c-0.2,0.5-0.5,0.9-0.8,1.1c-0.4,0.3-0.9,0.4-1.4,0.4c-0.9,0-1.6-0.3-2-0.9
		c-0.3-0.5-0.5-1.1-0.5-1.8c0-0.9,0.2-1.5,0.7-2c0.4-0.5,1-0.7,1.7-0.7c0.8,0,1.4,0.3,1.8,0.8c0.4,0.5,0.7,1.3,0.6,2.3h-3.4
		c0,0.4,0.1,0.7,0.3,0.9c0.2,0.2,0.5,0.3,0.8,0.3c0.2,0,0.4-0.1,0.5-0.2S87,15.9,87.1,15.6z M87.2,14.3c0-0.4-0.1-0.7-0.3-0.9
		c-0.2-0.2-0.4-0.3-0.7-0.3c-0.3,0-0.5,0.1-0.7,0.3s-0.3,0.5-0.3,0.9H87.2z"/>
	<path class="st1" d="M88.9,12.1h4.7v1.1h-1.7v4.1h-1.4v-4.1h-1.7V12.1z"/>
	<path class="st1" d="M94.4,11.4v-1.3h1.4v1.3H94.4z M94.4,17.3v-5.2h1.4v5.2H94.4z"/>
	<path class="st1" d="M97.6,12.1h4.6v5.2h-1.4v-4.1h-1.9v2.3c0,0.6-0.1,1-0.2,1.2c-0.1,0.2-0.3,0.4-0.5,0.5s-0.4,0.1-0.8,0.1
		c-0.2,0-0.5,0-0.9-0.1v-1c0,0,0.1,0,0.2,0c0.1,0,0.3,0,0.3,0c0.2,0,0.3-0.1,0.3-0.2c0-0.1,0.1-0.5,0.1-1V12.1z"/>
	<path class="st1" d="M103.5,11.4v-1.3h1.4v1.3H103.5z M103.5,17.3v-5.2h1.4v5.2H103.5z"/>
	<path class="st1" d="M106.4,12.1h1.7l1.3,3.6l1.3-3.6h1.7v5.2h-1.2v-3.4l-1.3,3.4h-1.2l-1.2-3.4v3.4h-1.2V12.1z"/>
	<path class="st1" d="M118,17.3h-3.9v1.4H113v-2.5h0.6c0.2-0.3,0.4-0.7,0.6-1.2s0.2-1.5,0.3-2.8h4.2v4.1h0.6v2.5H118V17.3z
		 M117.2,16.2l0-2.9h-1.7c-0.1,1.4-0.3,2.4-0.7,2.9H117.2z"/>
	<path class="st1" d="M123.1,15.6l1.4,0.2c-0.2,0.5-0.5,0.9-0.8,1.1c-0.4,0.3-0.9,0.4-1.4,0.4c-0.9,0-1.6-0.3-2-0.9
		c-0.3-0.5-0.5-1.1-0.5-1.8c0-0.9,0.2-1.5,0.7-2c0.4-0.5,1-0.7,1.7-0.7c0.8,0,1.4,0.3,1.8,0.8c0.4,0.5,0.7,1.3,0.6,2.3h-3.4
		c0,0.4,0.1,0.7,0.3,0.9c0.2,0.2,0.5,0.3,0.8,0.3c0.2,0,0.4-0.1,0.5-0.2S123,15.9,123.1,15.6z M123.2,14.3c0-0.4-0.1-0.7-0.3-0.9
		c-0.2-0.2-0.4-0.3-0.7-0.3c-0.3,0-0.5,0.1-0.7,0.3s-0.3,0.5-0.3,0.9H123.2z"/>
	<path class="st1" d="M125.6,12.1h1.3v0.8c0.2-0.3,0.4-0.5,0.7-0.6s0.6-0.2,0.9-0.2c0.6,0,1.1,0.2,1.5,0.7s0.6,1.1,0.6,2
		c0,0.9-0.2,1.5-0.6,2c-0.4,0.5-0.9,0.7-1.5,0.7c-0.3,0-0.5-0.1-0.8-0.2c-0.2-0.1-0.5-0.3-0.7-0.6v2.6h-1.4V12.1z M127,14.6
		c0,0.6,0.1,1,0.3,1.3c0.2,0.3,0.5,0.4,0.8,0.4c0.3,0,0.6-0.1,0.8-0.4c0.2-0.3,0.3-0.7,0.3-1.3c0-0.5-0.1-0.9-0.3-1.2
		s-0.5-0.4-0.8-0.4c-0.3,0-0.6,0.1-0.8,0.4C127.1,13.7,127,14.1,127,14.6z"/>
	<path class="st1" d="M131.7,12.1h1.7l1.3,3.6l1.3-3.6h1.7v5.2h-1.2v-3.4l-1.3,3.4H134l-1.2-3.4v3.4h-1.2V12.1z"/>
	<path class="st1" d="M142,15.6l1.4,0.2c-0.2,0.5-0.5,0.9-0.8,1.1c-0.4,0.3-0.9,0.4-1.4,0.4c-0.9,0-1.6-0.3-2-0.9
		c-0.3-0.5-0.5-1.1-0.5-1.8c0-0.9,0.2-1.5,0.7-2c0.4-0.5,1-0.7,1.7-0.7c0.8,0,1.4,0.3,1.8,0.8c0.4,0.5,0.7,1.3,0.6,2.3H140
		c0,0.4,0.1,0.7,0.3,0.9c0.2,0.2,0.5,0.3,0.8,0.3c0.2,0,0.4-0.1,0.5-0.2S141.9,15.9,142,15.6z M142.1,14.3c0-0.4-0.1-0.7-0.3-0.9
		c-0.2-0.2-0.4-0.3-0.7-0.3c-0.3,0-0.5,0.1-0.7,0.3s-0.3,0.5-0.3,0.9H142.1z"/>
	<path class="st1" d="M144.5,12.1h1.4V14h2v-1.9h1.4v5.2h-1.4v-2.2h-2v2.2h-1.4V12.1z"/>
	<path class="st1" d="M152.8,12.1h4.7v1.1h-1.7v4.1h-1.4v-4.1h-1.7V12.1z"/>
	<path class="st1" d="M159.3,13.7l-1.2-0.2c0.1-0.5,0.4-0.9,0.7-1.1s0.8-0.4,1.5-0.4c0.6,0,1.1,0.1,1.4,0.2c0.3,0.1,0.5,0.3,0.6,0.6
		c0.1,0.2,0.2,0.6,0.2,1.2l0,1.6c0,0.5,0,0.8,0.1,1c0,0.2,0.1,0.4,0.2,0.7h-1.4c0-0.1-0.1-0.2-0.1-0.4c0-0.1,0-0.1,0-0.2
		c-0.2,0.2-0.5,0.4-0.8,0.5s-0.6,0.2-0.9,0.2c-0.5,0-1-0.1-1.3-0.4c-0.3-0.3-0.5-0.7-0.5-1.1c0-0.3,0.1-0.6,0.2-0.8
		c0.1-0.2,0.3-0.4,0.6-0.5c0.3-0.1,0.6-0.2,1.1-0.3c0.6-0.1,1.1-0.2,1.3-0.3v-0.1c0-0.3-0.1-0.5-0.2-0.6c-0.1-0.1-0.4-0.2-0.7-0.2
		c-0.2,0-0.4,0-0.6,0.1C159.5,13.3,159.4,13.4,159.3,13.7z M161.1,14.8c-0.2,0.1-0.5,0.1-0.8,0.2s-0.6,0.2-0.7,0.2
		c-0.2,0.1-0.3,0.3-0.3,0.5c0,0.2,0.1,0.4,0.2,0.5s0.3,0.2,0.5,0.2c0.2,0,0.5-0.1,0.7-0.2c0.2-0.1,0.3-0.3,0.3-0.5
		c0-0.1,0.1-0.3,0.1-0.7V14.8z"/>
	<path class="st1" d="M163.8,12.1h1.4V14h2v-1.9h1.4v5.2h-1.4v-2.2h-2v2.2h-1.4V12.1z"/>
	<path class="st1" d="M169.9,12.1h1.4v2.2h1.4c0.5,0,1,0,1.2,0.1c0.3,0.1,0.5,0.2,0.7,0.5c0.2,0.3,0.3,0.6,0.3,0.9
		c0,0.5-0.2,0.9-0.5,1.1c-0.3,0.3-0.9,0.4-1.6,0.4h-2.9V12.1z M171.3,16.4h1.3c0.3,0,0.6-0.1,0.7-0.2s0.2-0.3,0.2-0.5
		c0-0.3-0.1-0.4-0.3-0.5c-0.2-0.1-0.5-0.1-1-0.1h-0.9V16.4z M175.7,12.1h1.4v5.2h-1.4V12.1z"/>
	<path class="st1" d="M182.9,13.6l-1.4,0.2c0-0.3-0.1-0.5-0.3-0.6c-0.2-0.1-0.4-0.2-0.6-0.2c-0.3,0-0.6,0.1-0.8,0.4
		c-0.2,0.2-0.3,0.6-0.3,1.2c0,0.6,0.1,1,0.3,1.3c0.2,0.3,0.5,0.4,0.8,0.4c0.3,0,0.5-0.1,0.6-0.2c0.2-0.1,0.3-0.4,0.4-0.8l1.3,0.2
		c-0.1,0.6-0.4,1.1-0.8,1.4s-0.9,0.5-1.6,0.5c-0.8,0-1.4-0.2-1.8-0.7c-0.5-0.5-0.7-1.1-0.7-2c0-0.9,0.2-1.5,0.7-2
		c0.5-0.5,1.1-0.7,1.8-0.7c0.6,0,1.1,0.1,1.5,0.4C182.5,12.7,182.8,13.1,182.9,13.6z"/>
	<path class="st1" d="M184,12.1h1.4v2.2h1.4c0.5,0,1,0,1.2,0.1c0.3,0.1,0.5,0.2,0.7,0.5c0.2,0.3,0.3,0.6,0.3,0.9
		c0,0.5-0.2,0.9-0.5,1.1c-0.3,0.3-0.9,0.4-1.6,0.4H184V12.1z M185.4,16.4h1.3c0.3,0,0.6-0.1,0.7-0.2s0.2-0.3,0.2-0.5
		c0-0.3-0.1-0.4-0.3-0.5c-0.2-0.1-0.5-0.1-1-0.1h-0.9V16.4z M189.8,12.1h1.4v5.2h-1.4V12.1z"/>
	<path class="st1" d="M192.5,12.1h4.6v5.2h-1.4v-4.1h-1.9v4.1h-1.4V12.1z"/>
	<path class="st1" d="M201.3,12.1h1.3v4.1h1.6v-4.1h1.3v4.1h1.6v-4.1h1.3v5.2h-7V12.1z"/>
	<path class="st1" d="M209.7,12.1h1.4v2.2h1.4c0.5,0,1,0,1.2,0.1c0.3,0.1,0.5,0.2,0.7,0.5c0.2,0.3,0.3,0.6,0.3,0.9
		c0,0.5-0.2,0.9-0.5,1.1c-0.3,0.3-0.9,0.4-1.6,0.4h-2.9V12.1z M211.1,16.4h1.3c0.3,0,0.6-0.1,0.7-0.2s0.2-0.3,0.2-0.5
		c0-0.3-0.1-0.4-0.3-0.5c-0.2-0.1-0.5-0.1-1-0.1h-0.9V16.4z M215.5,12.1h1.4v5.2h-1.4V12.1z"/>
	<path class="st1" d="M221.7,13.2h-2.1v1.1h0.9v0.8h-0.9v2.1h-1.4v-2.1h-0.6v-0.8h0.6v-2.2h3.5V13.2z"/>
	<path class="st1" d="M221.7,12.1h1.5l1.2,3.7l1.2-3.7h1.4l-1.8,5l-0.3,0.9c-0.1,0.3-0.2,0.5-0.3,0.7c-0.1,0.2-0.2,0.3-0.4,0.4
		c-0.1,0.1-0.3,0.2-0.5,0.2c-0.2,0.1-0.4,0.1-0.7,0.1c-0.3,0-0.5,0-0.8-0.1l-0.1-1.1c0.2,0,0.4,0.1,0.6,0.1c0.3,0,0.6-0.1,0.7-0.3
		c0.2-0.2,0.3-0.4,0.4-0.7L221.7,12.1z"/>
	<path class="st1" d="M230.7,12.1h1.4v2.1c0.2,0,0.4-0.1,0.5-0.2s0.2-0.4,0.3-0.7c0.2-0.5,0.4-0.8,0.6-1s0.5-0.2,0.8-0.2
		c0.1,0,0.3,0,0.5,0l0,0.9c-0.4,0-0.6,0-0.7,0.1c-0.1,0.1-0.2,0.3-0.3,0.6c-0.2,0.5-0.4,0.8-0.7,0.9c0.4,0.1,0.8,0.5,1.1,1.1
		c0,0,0,0.1,0.1,0.1l0.8,1.4h-1.5l-0.7-1.5c-0.1-0.3-0.3-0.5-0.4-0.6c-0.1-0.1-0.3-0.1-0.5-0.1v2.2h-1.4V12.1z"/>
	<path class="st1" d="M238.7,15.6l1.4,0.2c-0.2,0.5-0.5,0.9-0.8,1.1c-0.4,0.3-0.9,0.4-1.4,0.4c-0.9,0-1.6-0.3-2-0.9
		c-0.3-0.5-0.5-1.1-0.5-1.8c0-0.9,0.2-1.5,0.7-2c0.4-0.5,1-0.7,1.7-0.7c0.8,0,1.4,0.3,1.8,0.8c0.4,0.5,0.7,1.3,0.6,2.3h-3.4
		c0,0.4,0.1,0.7,0.3,0.9c0.2,0.2,0.5,0.3,0.8,0.3c0.2,0,0.4-0.1,0.5-0.2S238.7,15.9,238.7,15.6z M238.8,14.3c0-0.4-0.1-0.7-0.3-0.9
		c-0.2-0.2-0.4-0.3-0.7-0.3c-0.3,0-0.5,0.1-0.7,0.3s-0.3,0.5-0.3,0.9H238.8z"/>
	<path class="st1" d="M241.3,12.1h1.3v0.8c0.2-0.3,0.4-0.5,0.7-0.6s0.6-0.2,0.9-0.2c0.6,0,1.1,0.2,1.5,0.7s0.6,1.1,0.6,2
		c0,0.9-0.2,1.5-0.6,2c-0.4,0.5-0.9,0.7-1.5,0.7c-0.3,0-0.5-0.1-0.8-0.2c-0.2-0.1-0.5-0.3-0.7-0.6v2.6h-1.4V12.1z M242.6,14.6
		c0,0.6,0.1,1,0.3,1.3c0.2,0.3,0.5,0.4,0.8,0.4c0.3,0,0.6-0.1,0.8-0.4c0.2-0.3,0.3-0.7,0.3-1.3c0-0.5-0.1-0.9-0.3-1.2
		s-0.5-0.4-0.8-0.4c-0.3,0-0.6,0.1-0.8,0.4C242.7,13.7,242.6,14.1,242.6,14.6z"/>
	<path class="st1" d="M250.4,15.6l1.4,0.2c-0.2,0.5-0.5,0.9-0.8,1.1c-0.4,0.3-0.9,0.4-1.4,0.4c-0.9,0-1.6-0.3-2-0.9
		c-0.3-0.5-0.5-1.1-0.5-1.8c0-0.9,0.2-1.5,0.7-2c0.4-0.5,1-0.7,1.7-0.7c0.8,0,1.4,0.3,1.8,0.8c0.4,0.5,0.7,1.3,0.6,2.3h-3.4
		c0,0.4,0.1,0.7,0.3,0.9c0.2,0.2,0.5,0.3,0.8,0.3c0.2,0,0.4-0.1,0.5-0.2S250.3,15.9,250.4,15.6z M250.5,14.3c0-0.4-0.1-0.7-0.3-0.9
		c-0.2-0.2-0.4-0.3-0.7-0.3c-0.3,0-0.5,0.1-0.7,0.3s-0.3,0.5-0.3,0.9H250.5z"/>
	<path class="st1" d="M252.9,12.1h1.4v2.1c0.2,0,0.4-0.1,0.5-0.2s0.2-0.4,0.3-0.7c0.2-0.5,0.4-0.8,0.6-1s0.5-0.2,0.8-0.2
		c0.1,0,0.3,0,0.5,0l0,0.9c-0.4,0-0.6,0-0.7,0.1c-0.1,0.1-0.2,0.3-0.3,0.6c-0.2,0.5-0.4,0.8-0.7,0.9c0.4,0.1,0.8,0.5,1.1,1.1
		c0,0,0,0.1,0.1,0.1l0.8,1.4h-1.5l-0.7-1.5c-0.1-0.3-0.3-0.5-0.4-0.6c-0.1-0.1-0.3-0.1-0.5-0.1v2.2h-1.4V12.1z"/>
</g>
</svg>
