<svg version="1.1" id="Layer_1" xmlns="http://www.w3.org/2000/svg" x="0" y="0" viewBox="0 0 138.3 11" style="enable-background:new 0 0 138.3 11" xml:space="preserve"><style>.st0{fill:#009ea8}</style><path class="st0" d="M129.4.2c1.9 0 3.7-.1 5.6.1 1.4.1 2.7 1.2 2.7 2.6.1 1-.6 1.9-1.4 2.4.5.2 1.1.5 1.4.9.9 1.1.7 2.8-.4 3.7-.8.7-2 .9-3 .9h-4.9V.2zm3.3 2.4v2c.5 0 1 0 1.5-.2.6-.3.7-1.3.1-1.6-.5-.3-1.1-.2-1.6-.2m0 3.8v2c.6 0 1.3.1 1.9-.1.7-.2.7-1.4 0-1.7-.6-.2-1.3-.1-1.9-.2zm-28-6.2c1.9-.4 4 0 5.5 1.4 1.9 1.8 2.1 5.1.5 7.2-2.1 2.8-6.7 2.9-9 .3-1.5-1.8-1.7-4.5-.5-6.5.7-1.3 2-2.1 3.5-2.4m.4 2.9c-1.9 1-1.7 4.5.6 5 1.7.4 2.9-1.5 2.6-3-.1-1.5-1.7-2.9-3.2-2M91.6.2H95v7.9h3.4v2.7h-6.9L91.6.2zm22.7 0h3.4l2.4 4.2c.7-1.4 1.5-2.8 2.2-4.2h3.7v10.6h-3.5V5.7c-.5 1-1.1 2-1.6 3h-1.7c-.5-1-1.1-2-1.6-3v5.2h-3.3V.2zM39.9.7c1.9-1.1 4.4-.8 6.2.4-.5.8-.9 1.6-1.4 2.3-.8-.5-1.8-1-2.8-.7-.4.1-.5.7-.1.9 1.2.7 2.8.7 3.7 1.8 1.2 1.6.5 4.3-1.4 5.1-2.1.8-4.6.4-6.4-1 .5-.8.9-1.5 1.4-2.3.9.7 2.1 1.4 3.3 1 .5-.2.4-.9-.1-1.1-.9-.5-2.3-.6-3.3-1.5-1.3-1.4-.8-4 .9-4.9zm10.3 1.5c1.5-2 4.4-2.8 6.7-1.8.6.3 1.1.7 1.6 1.1-.6.8-1.2 1.6-1.7 2.3-.7-.7-1.8-1.2-2.8-.8-1.9 1-1.9 4.1 0 4.9 1 .4 2.1-.1 2.9-.8.6.8 1.1 1.5 1.7 2.3-1.1.9-2.4 1.5-3.8 1.5-1.9.1-3.9-.8-4.9-2.5-1.1-1.8-1-4.4.3-6.2M0 .2C1.9.3 3.7.1 5.6.3 7 .4 8.3 1.5 8.3 2.9c.1 1-.6 1.9-1.4 2.4.5.2 1.1.5 1.4.9.9 1.1.7 2.8-.4 3.7-.8.7-2 .9-3 .9H0V.2zm3.3 2.3v2c.5 0 1 0 1.5-.2.6-.3.7-1.3 0-1.6-.4-.2-1-.1-1.5-.2m0 3.9v2c.6 0 1.3.1 1.9-.1.7-.3.7-1.4 0-1.7-.6-.2-1.2-.1-1.9-.2zm7.7 4.4c1.2-3.5 2.4-7.1 3.7-10.6h3.8c1.2 3.5 2.4 7.1 3.7 10.6h-3.6c-.2-.7-.4-1.3-.6-1.9h-3.1c-.2.7-.4 1.3-.5 1.9H11zm4.7-4.5h1.6c-.3-.9-.5-1.8-.8-2.7-.2.9-.5 1.8-.8 2.7zM24.6.2h3.5v6.3c0 .8.6 1.7 1.5 1.7.9.1 1.7-.8 1.6-1.7.1-2.1 0-4.2 0-6.3h3.5V6c0 1.4-.4 2.9-1.6 3.8-1.4 1.2-3.4 1.2-5.1.9-1.9-.3-3.3-2-3.5-3.9 0-2.1.1-4.4.1-6.6zM62 .2h3.5v3.9h2.7V.2h3.5v10.6h-3.5V7.1h-2.7v3.7H62V.2zM80 3.8h3.4v3.4H80V3.8z"/><path d="M80 7.2h3.4v3.6H80V7.2zm0-7h3.4v3.6H80c-.1-1.2 0-2.4 0-3.6" style="fill:#6dc49e"/><path d="M83.4 3.8H87v3.4h-3.6V3.8zm-7 0H80v3.4h-3.6V3.8z" style="fill:#4bc5e4"/><path d="M120.3 3.3c0-.1 0 0 0 0" style="fill:#4ac5e5"/></svg>