<?xml version="1.0" encoding="utf-8"?>
<!-- Generator: Adobe Illustrator 25.2.3, SVG Export Plug-In . SVG Version: 6.00 Build 0)  -->
<svg version="1.1" id="Layer_1" xmlns="http://www.w3.org/2000/svg" xmlns:xlink="http://www.w3.org/1999/xlink" x="0px" y="0px"
	 viewBox="0 0 343 66.1" style="enable-background:new 0 0 343 66.1;" xml:space="preserve">
<style type="text/css">
	.st0{fill:#147BB8;}
</style>
<g>
	<path class="st0" d="M0.7,0.1h3v6.4C4.4,6.4,4.8,6.3,5.1,6c0.2-0.3,0.6-1.1,1.1-2.3C6.8,2,7.4,1,8.1,0.6C8.7,0.2,9.7,0,11.1,0
		c0.1,0,0.2,0,0.4,0v2.2l-0.4,0c-0.6,0-1.1,0.1-1.4,0.2C9.5,2.6,9.2,2.9,9.1,3.2s-0.4,1-0.8,1.9c-0.2,0.5-0.4,1-0.6,1.3
		c-0.2,0.3-0.6,0.7-1.1,1C7.2,7.6,7.8,8,8.2,8.6C8.6,9.1,9.1,10,9.7,11l2.1,4.1H8.1l-1.8-3.9c0-0.1-0.1-0.2-0.2-0.3
		c0-0.1-0.2-0.3-0.4-0.7C5.4,9.5,5.1,9,4.8,8.8C4.6,8.7,4.2,8.6,3.7,8.6v6.6h-3V0.1z"/>
	<path class="st0" d="M24,9.7c0,1.6-0.5,3-1.6,4.1c-1.1,1.1-2.4,1.6-4,1.6c-1,0-2-0.2-2.8-0.7c-0.9-0.5-1.6-1.2-2.1-2
		c-0.5-0.9-0.7-1.9-0.7-3.2c0-1,0.2-1.9,0.7-2.8c0.5-0.9,1.2-1.6,2-2C16.3,4.2,17.3,4,18.3,4c1.7,0,3,0.5,4.1,1.6
		C23.4,6.6,24,8,24,9.7z M20.9,10.5h-5.2c0.1,0.7,0.4,1.3,0.8,1.8c0.5,0.5,1.1,0.7,1.8,0.7s1.3-0.2,1.8-0.7
		C20.6,11.8,20.8,11.3,20.9,10.5z M20.9,8.8c-0.1-0.7-0.4-1.3-0.8-1.7c-0.5-0.5-1.1-0.7-1.8-0.7c-0.8,0-1.4,0.3-1.9,0.9
		c-0.4,0.4-0.6,0.9-0.7,1.5H20.9z"/>
	<path class="st0" d="M29.2,10.7V8.8c0.5,0,0.9,0,1.1-0.1s0.4-0.2,0.6-0.5c0.2-0.2,0.3-0.5,0.3-0.9c0-0.3-0.1-0.7-0.4-0.9
		S30.2,6,29.7,6c-0.4,0-0.7,0.1-1,0.2s-0.6,0.6-0.8,1.2l-2.4-0.5c0.2-1,0.8-1.7,1.6-2.2S28.7,4,29.7,4c1.3,0,2.3,0.3,3.1,0.9
		c0.7,0.6,1.1,1.4,1.1,2.3c0,0.6-0.2,1-0.5,1.4c-0.3,0.4-0.8,0.7-1.5,1c0.8,0.2,1.4,0.5,1.8,1c0.4,0.4,0.6,1,0.6,1.7
		c0,0.8-0.4,1.6-1.2,2.2c-0.8,0.6-1.9,0.9-3.4,0.9c-2.6,0-4.2-1-4.8-3l2.6-0.5c0.4,1.1,1.1,1.6,2.1,1.6c0.5,0,1-0.1,1.3-0.4
		c0.3-0.3,0.5-0.6,0.5-1c0-0.4-0.2-0.8-0.5-1c-0.3-0.2-0.8-0.4-1.3-0.4H29.2z"/>
	<path class="st0" d="M36.6,4.2h7.4v2.3h-4.5v8.6h-2.9V4.2z"/>
	<path class="st0" d="M51.7,11.7l2.9,0.5c-0.4,1.1-1,1.9-1.7,2.4c-0.8,0.5-1.8,0.8-3,0.8c-1.9,0-3.3-0.6-4.2-1.9
		c-0.7-1-1.1-2.2-1.1-3.8C44.6,8,45,6.6,46,5.5S48.1,4,49.6,4c1.6,0,2.9,0.5,3.8,1.6c0.9,1.1,1.4,2.7,1.3,4.9h-7.2
		c0,0.9,0.3,1.5,0.7,2c0.4,0.5,1,0.7,1.7,0.7c0.5,0,0.8-0.1,1.1-0.4S51.6,12.2,51.7,11.7z M51.9,8.8c0-0.8-0.2-1.5-0.6-1.9
		c-0.4-0.4-0.9-0.7-1.5-0.7c-0.6,0-1.1,0.2-1.6,0.7S47.6,8,47.6,8.8H51.9z"/>
	<path class="st0" d="M65.1,7.6l-2.6-0.5C62.8,6,63.3,5.3,64,4.8S65.8,4,67.2,4c1.3,0,2.2,0.2,2.9,0.5c0.6,0.3,1.1,0.7,1.3,1.2
		c0.3,0.5,0.4,1.3,0.4,2.6l0,3.4c0,1,0,1.7,0.1,2.1c0.1,0.5,0.3,0.9,0.5,1.5h-2.9c-0.1-0.2-0.2-0.5-0.3-0.9c0-0.2-0.1-0.3-0.1-0.3
		c-0.5,0.5-1,0.8-1.6,1.1c-0.6,0.2-1.2,0.4-1.8,0.4c-1.1,0-2-0.3-2.7-0.9c-0.6-0.6-1-1.4-1-2.3c0-0.6,0.1-1.2,0.4-1.6
		c0.3-0.5,0.7-0.9,1.2-1.1c0.5-0.3,1.3-0.5,2.3-0.7c1.3-0.3,2.3-0.5,2.8-0.7V7.7c0-0.6-0.1-0.9-0.4-1.2c-0.3-0.2-0.8-0.4-1.5-0.4
		c-0.5,0-0.9,0.1-1.2,0.3C65.5,6.7,65.3,7.1,65.1,7.6z M68.9,9.9c-0.4,0.1-1,0.3-1.8,0.4c-0.8,0.2-1.3,0.3-1.6,0.5
		c-0.4,0.3-0.6,0.6-0.6,1c0,0.4,0.2,0.8,0.5,1c0.3,0.3,0.7,0.4,1.1,0.4c0.5,0,1-0.2,1.5-0.5c0.3-0.3,0.6-0.6,0.7-1
		c0.1-0.2,0.1-0.7,0.1-1.4V9.9z"/>
	<path class="st0" d="M74.5,4.2h2.7v1.6c0.3-0.5,0.8-1,1.4-1.3s1.3-0.5,2-0.5c1.3,0,2.3,0.5,3.2,1.5c0.9,1,1.3,2.4,1.3,4.1
		c0,1.8-0.4,3.2-1.3,4.2c-0.9,1-2,1.5-3.2,1.5c-0.6,0-1.1-0.1-1.6-0.4c-0.5-0.2-1-0.6-1.5-1.2v5.5h-2.9V4.2z M77.4,9.5
		c0,1.2,0.2,2.1,0.7,2.7c0.5,0.6,1.1,0.9,1.8,0.9c0.7,0,1.2-0.3,1.7-0.8c0.4-0.5,0.7-1.4,0.7-2.6c0-1.1-0.2-2-0.7-2.5
		c-0.5-0.6-1-0.8-1.7-0.8c-0.7,0-1.3,0.3-1.8,0.8C77.6,7.6,77.4,8.4,77.4,9.5z"/>
	<path class="st0" d="M87.3,4.2h2.9v4h4.1v-4h2.9v10.9h-2.9v-4.6h-4.1v4.6h-2.9V4.2z"/>
	<path class="st0" d="M102.3,7.6l-2.6-0.5c0.3-1.1,0.8-1.8,1.5-2.3S103,4,104.4,4c1.3,0,2.2,0.2,2.9,0.5c0.6,0.3,1.1,0.7,1.3,1.2
		c0.3,0.5,0.4,1.3,0.4,2.6l0,3.4c0,1,0,1.7,0.1,2.1c0.1,0.5,0.3,0.9,0.5,1.5h-2.9c-0.1-0.2-0.2-0.5-0.3-0.9c0-0.2-0.1-0.3-0.1-0.3
		c-0.5,0.5-1,0.8-1.6,1.1c-0.6,0.2-1.2,0.4-1.8,0.4c-1.1,0-2-0.3-2.7-0.9c-0.6-0.6-1-1.4-1-2.3c0-0.6,0.1-1.2,0.4-1.6
		c0.3-0.5,0.7-0.9,1.2-1.1c0.5-0.3,1.3-0.5,2.3-0.7c1.3-0.3,2.3-0.5,2.8-0.7V7.7c0-0.6-0.1-0.9-0.4-1.2c-0.3-0.2-0.8-0.4-1.5-0.4
		c-0.5,0-0.9,0.1-1.2,0.3C102.7,6.7,102.4,7.1,102.3,7.6z M106.1,9.9c-0.4,0.1-1,0.3-1.8,0.4c-0.8,0.2-1.3,0.3-1.6,0.5
		c-0.4,0.3-0.6,0.6-0.6,1c0,0.4,0.2,0.8,0.5,1c0.3,0.3,0.7,0.4,1.1,0.4c0.5,0,1-0.2,1.5-0.5c0.3-0.3,0.6-0.6,0.7-1
		c0.1-0.2,0.1-0.7,0.1-1.4V9.9z"/>
	<path class="st0" d="M112.6,4.2h9.6v10.9h-2.9V6.6h-3.9v4.9c0,1.2-0.1,2.1-0.4,2.6c-0.3,0.5-0.6,0.8-1,1c-0.3,0.2-0.9,0.2-1.7,0.2
		c-0.5,0-1.1-0.1-1.8-0.2V13c0.1,0,0.2,0,0.5,0c0.3,0,0.5,0,0.7,0c0.4,0,0.6-0.1,0.7-0.4c0.1-0.3,0.1-1,0.1-2.1V4.2z"/>
	<path class="st0" d="M132.4,6.6h-4.5v2.3h1.9v1.8h-1.9v4.4H125v-4.4h-1.3V8.9h1.3V4.2h7.4V6.6z"/>
	<path class="st0" d="M136,7.6l-2.6-0.5c0.3-1.1,0.8-1.8,1.5-2.3s1.8-0.8,3.2-0.8c1.3,0,2.2,0.2,2.9,0.5c0.6,0.3,1.1,0.7,1.3,1.2
		c0.3,0.5,0.4,1.3,0.4,2.6l0,3.4c0,1,0,1.7,0.1,2.1c0.1,0.5,0.3,0.9,0.5,1.5h-2.9c-0.1-0.2-0.2-0.5-0.3-0.9c0-0.2-0.1-0.3-0.1-0.3
		c-0.5,0.5-1,0.8-1.6,1.1c-0.6,0.2-1.2,0.4-1.8,0.4c-1.1,0-2-0.3-2.7-0.9c-0.6-0.6-1-1.4-1-2.3c0-0.6,0.1-1.2,0.4-1.6
		c0.3-0.5,0.7-0.9,1.2-1.1c0.5-0.3,1.3-0.5,2.3-0.7c1.3-0.3,2.3-0.5,2.8-0.7V7.7c0-0.6-0.1-0.9-0.4-1.2c-0.3-0.2-0.8-0.4-1.5-0.4
		c-0.5,0-0.9,0.1-1.2,0.3C136.4,6.7,136.2,7.1,136,7.6z M139.9,9.9c-0.4,0.1-1,0.3-1.8,0.4c-0.8,0.2-1.3,0.3-1.6,0.5
		c-0.4,0.3-0.6,0.6-0.6,1c0,0.4,0.2,0.8,0.5,1c0.3,0.3,0.7,0.4,1.1,0.4c0.5,0,1-0.2,1.5-0.5c0.3-0.3,0.6-0.6,0.7-1
		c0.1-0.2,0.1-0.7,0.1-1.4V9.9z"/>
	<path class="st0" d="M145.4,4.2h2.9v4h4.1v-4h2.9v10.9h-2.9v-4.6h-4.1v4.6h-2.9V4.2z"/>
	<path class="st0" d="M0.6,21.2h6.3c1.3,0,2.3,0.2,2.9,0.7c0.6,0.5,1,1.2,1,2.1c0,0.6-0.2,1.1-0.5,1.6s-0.8,0.8-1.3,0.9
		c0.8,0.2,1.3,0.5,1.7,1s0.6,1.1,0.6,1.7c0,0.8-0.3,1.5-0.9,2.1c-0.6,0.5-1.5,0.8-2.8,0.8H0.6V21.2z M3.5,25.8h1.9
		c0.9,0,1.5-0.1,1.9-0.3c0.4-0.2,0.6-0.6,0.6-1.1c0-0.5-0.2-0.8-0.6-1c-0.4-0.2-1-0.3-2-0.3H3.5V25.8z M3.5,30.3h2.3
		c0.8,0,1.4-0.1,1.8-0.3c0.4-0.2,0.6-0.6,0.6-1.1c0-0.5-0.2-0.9-0.6-1.1S6.2,27.5,5,27.5H3.5V30.3z"/>
	<path class="st0" d="M13.4,21.2h2.8v6.8l4.4-6.8h2.8v10.9h-2.8v-7l-4.5,7h-2.8V21.2z"/>
	<path class="st0" d="M25.1,21.2H35v2.3h-3.5v8.6h-2.9v-8.6h-3.5V21.2z"/>
	<path class="st0" d="M38.8,24.6l-2.6-0.5c0.3-1.1,0.8-1.8,1.5-2.3s1.8-0.8,3.2-0.8c1.3,0,2.2,0.2,2.9,0.5c0.6,0.3,1.1,0.7,1.3,1.2
		c0.3,0.5,0.4,1.3,0.4,2.6l0,3.4c0,1,0,1.7,0.1,2.1c0.1,0.5,0.3,0.9,0.5,1.5h-2.9c-0.1-0.2-0.2-0.5-0.3-0.9c0-0.2-0.1-0.3-0.1-0.3
		c-0.5,0.5-1,0.8-1.6,1.1c-0.6,0.2-1.2,0.4-1.8,0.4c-1.1,0-2-0.3-2.7-0.9c-0.6-0.6-1-1.4-1-2.3c0-0.6,0.1-1.2,0.4-1.6
		c0.3-0.5,0.7-0.9,1.2-1.1c0.5-0.3,1.3-0.5,2.3-0.7c1.3-0.3,2.3-0.5,2.8-0.7v-0.3c0-0.6-0.1-0.9-0.4-1.2c-0.3-0.2-0.8-0.4-1.5-0.4
		c-0.5,0-0.9,0.1-1.2,0.3C39.2,23.7,39,24.1,38.8,24.6z M42.7,26.9c-0.4,0.1-1,0.3-1.8,0.4c-0.8,0.2-1.3,0.3-1.6,0.5
		c-0.4,0.3-0.6,0.6-0.6,1c0,0.4,0.2,0.8,0.5,1c0.3,0.3,0.7,0.4,1.1,0.4c0.5,0,1-0.2,1.5-0.5c0.3-0.3,0.6-0.6,0.7-1
		c0.1-0.2,0.1-0.7,0.1-1.4V26.9z"/>
	<path class="st0" d="M48.4,21.2H52l2.7,7.6l2.7-7.6H61v10.9h-2.5V25l-2.7,7.2h-2.5L50.9,25v7.2h-2.5V21.2z"/>
	<path class="st0" d="M63.8,21.2h2.8v6.8l4.4-6.8h2.8v10.9h-2.8v-7l-4.5,7h-2.8V21.2z"/>
	<path class="st0" d="M76.7,21.2h2.9v4h4.1v-4h2.9v10.9h-2.9v-4.6h-4.1v4.6h-2.9V21.2z"/>
	<path class="st0" d="M98.5,32.1h-8.2V35h-2.3v-5.2h1.2c0.5-0.5,0.9-1.4,1.2-2.6s0.5-3.2,0.6-6h8.8v8.5h1.2V35h-2.3V32.1z
		 M96.8,29.8l0-6.2h-3.5c-0.1,3-0.6,5.1-1.4,6.2H96.8z"/>
	<path class="st0" d="M102.8,19.8v-2.7h2.9v2.7H102.8z M102.8,32.1V21.2h2.9v10.9H102.8z"/>
	<path class="st0" d="M108.3,28.1v-2.9h5.7v2.9H108.3z"/>
	<path class="st0" d="M115.7,21.2h3.6l2.7,7.6l2.7-7.6h3.6v10.9h-2.5V25l-2.7,7.2h-2.5l-2.5-7.2v7.2h-2.5V21.2z"/>
	<path class="st0" d="M131.1,21.2h2.8v6.8l4.4-6.8h2.8v10.9h-2.8v-7l-4.5,7h-2.8V21.2z"/>
	<path class="st0" d="M144,21.2h2.9v4h4.1v-4h2.9v10.9H151v-4.6h-4.1v4.6H144V21.2z"/>
	<path class="st0" d="M163.1,28.7l2.9,0.5c-0.4,1.1-1,1.9-1.7,2.4c-0.8,0.5-1.8,0.8-3,0.8c-1.9,0-3.3-0.6-4.2-1.9
		c-0.7-1-1.1-2.2-1.1-3.8c0-1.8,0.5-3.2,1.4-4.2s2.1-1.5,3.6-1.5c1.6,0,2.9,0.5,3.8,1.6c0.9,1.1,1.4,2.7,1.3,4.9h-7.2
		c0,0.9,0.3,1.5,0.7,2c0.4,0.5,1,0.7,1.7,0.7c0.5,0,0.8-0.1,1.1-0.4S162.9,29.2,163.1,28.7z M163.2,25.8c0-0.8-0.2-1.5-0.6-1.9
		c-0.4-0.4-0.9-0.7-1.5-0.7c-0.6,0-1.1,0.2-1.6,0.7s-0.6,1.1-0.6,1.9H163.2z"/>
	<path class="st0" d="M168.4,21.2h2.7v1.6c0.3-0.5,0.8-1,1.4-1.3c0.6-0.3,1.3-0.5,2-0.5c1.3,0,2.3,0.5,3.2,1.5
		c0.9,1,1.3,2.4,1.3,4.1c0,1.8-0.4,3.2-1.3,4.2c-0.9,1-2,1.5-3.2,1.5c-0.6,0-1.1-0.1-1.6-0.4c-0.5-0.2-1-0.6-1.5-1.2v5.5h-2.9V21.2z
		 M171.2,26.5c0,1.2,0.2,2.1,0.7,2.7c0.5,0.6,1.1,0.9,1.8,0.9c0.7,0,1.2-0.3,1.7-0.8c0.4-0.5,0.7-1.4,0.7-2.6c0-1.1-0.2-2-0.7-2.5
		c-0.5-0.6-1-0.8-1.7-0.8c-0.7,0-1.3,0.3-1.8,0.8C171.5,24.6,171.2,25.4,171.2,26.5z"/>
	<path class="st0" d="M183.4,24.6l-2.6-0.5c0.3-1.1,0.8-1.8,1.5-2.3s1.8-0.8,3.2-0.8c1.3,0,2.2,0.2,2.9,0.5c0.6,0.3,1.1,0.7,1.3,1.2
		c0.3,0.5,0.4,1.3,0.4,2.6l0,3.4c0,1,0,1.7,0.1,2.1c0.1,0.5,0.3,0.9,0.5,1.5h-2.9c-0.1-0.2-0.2-0.5-0.3-0.9c0-0.2-0.1-0.3-0.1-0.3
		c-0.5,0.5-1,0.8-1.6,1.1c-0.6,0.2-1.2,0.4-1.8,0.4c-1.1,0-2-0.3-2.7-0.9c-0.6-0.6-1-1.4-1-2.3c0-0.6,0.1-1.2,0.4-1.6
		c0.3-0.5,0.7-0.9,1.2-1.1c0.5-0.3,1.3-0.5,2.3-0.7c1.3-0.3,2.3-0.5,2.8-0.7v-0.3c0-0.6-0.1-0.9-0.4-1.2c-0.3-0.2-0.8-0.4-1.5-0.4
		c-0.5,0-0.9,0.1-1.2,0.3C183.9,23.7,183.6,24.1,183.4,24.6z M187.3,26.9c-0.4,0.1-1,0.3-1.8,0.4c-0.8,0.2-1.3,0.3-1.6,0.5
		c-0.4,0.3-0.6,0.6-0.6,1c0,0.4,0.2,0.8,0.5,1c0.3,0.3,0.7,0.4,1.1,0.4c0.5,0,1-0.2,1.5-0.5c0.3-0.3,0.6-0.6,0.7-1
		c0.1-0.2,0.1-0.7,0.1-1.4V26.9z"/>
	<path class="st0" d="M193.7,21.2h9.6v10.9h-2.9v-8.6h-3.9v4.9c0,1.2-0.1,2.1-0.4,2.6c-0.3,0.5-0.6,0.8-1,1
		c-0.3,0.2-0.9,0.2-1.7,0.2c-0.5,0-1.1-0.1-1.8-0.2V30c0.1,0,0.2,0,0.5,0c0.3,0,0.5,0,0.7,0c0.4,0,0.6-0.1,0.7-0.4
		c0.1-0.3,0.1-1,0.1-2.1V21.2z"/>
	<path class="st0" d="M215.3,32.1h-8.2V35h-2.3v-5.2h1.2c0.5-0.5,0.9-1.4,1.2-2.6c0.3-1.2,0.5-3.2,0.6-6h8.8v8.5h1.2V35h-2.3V32.1z
		 M213.6,29.8l0-6.2h-3.5c-0.1,3-0.6,5.1-1.4,6.2H213.6z"/>
	<path class="st0" d="M219.7,21.2h2.9v4.5h2.9c1.1,0,2,0.1,2.6,0.2c0.6,0.2,1.1,0.5,1.5,1.1c0.4,0.5,0.6,1.2,0.6,1.9
		c0,1.1-0.4,1.8-1.1,2.4c-0.7,0.5-1.8,0.8-3.3,0.8h-6.2V21.2z M222.5,30.3h2.7c0.7,0,1.2-0.1,1.5-0.3c0.3-0.2,0.5-0.6,0.5-1.1
		c0-0.5-0.2-0.9-0.6-1.1c-0.4-0.2-1.1-0.3-2.2-0.3h-1.9V30.3z M231.8,21.2h2.9v10.9h-2.9V21.2z"/>
	<path class="st0" d="M243.3,21.2h2.9v4.5c0.5-0.1,0.8-0.2,1-0.4c0.2-0.2,0.4-0.8,0.7-1.6c0.4-1.1,0.8-1.8,1.2-2.1
		c0.4-0.3,1-0.5,1.7-0.5c0.2,0,0.6,0,1.1,0.1l0,1.9c-0.8,0-1.2,0.1-1.5,0.2c-0.2,0.2-0.4,0.6-0.7,1.3c-0.3,1-0.8,1.6-1.4,1.9
		c0.9,0.3,1.7,1,2.3,2.4c0,0.1,0.1,0.1,0.1,0.2l1.6,3h-3.1l-1.4-3.1c-0.3-0.6-0.5-1-0.8-1.2c-0.2-0.2-0.5-0.3-1-0.3v4.6h-2.9V21.2z"
		/>
	<path class="st0" d="M260.2,28.7l2.9,0.5c-0.4,1.1-1,1.9-1.7,2.4c-0.8,0.5-1.8,0.8-3,0.8c-1.9,0-3.3-0.6-4.2-1.9
		c-0.7-1-1.1-2.2-1.1-3.8c0-1.8,0.5-3.2,1.4-4.2s2.1-1.5,3.6-1.5c1.6,0,2.9,0.5,3.8,1.6c0.9,1.1,1.4,2.7,1.3,4.9H256
		c0,0.9,0.3,1.5,0.7,2c0.4,0.5,1,0.7,1.7,0.7c0.5,0,0.8-0.1,1.1-0.4S260.1,29.2,260.2,28.7z M260.4,25.8c0-0.8-0.2-1.5-0.6-1.9
		c-0.4-0.4-0.9-0.7-1.5-0.7c-0.6,0-1.1,0.2-1.6,0.7s-0.6,1.1-0.6,1.9H260.4z"/>
	<path class="st0" d="M265.5,21.2h2.6v8.6h3.3v-8.6h2.7v8.6h3.3v-8.6h2.7v10.9h-14.6V21.2z"/>
	<path class="st0" d="M289.4,28.7l2.9,0.5c-0.4,1.1-1,1.9-1.7,2.4c-0.8,0.5-1.8,0.8-3,0.8c-1.9,0-3.3-0.6-4.2-1.9
		c-0.7-1-1.1-2.2-1.1-3.8c0-1.8,0.5-3.2,1.4-4.2s2.1-1.5,3.6-1.5c1.6,0,2.9,0.5,3.8,1.6c0.9,1.1,1.4,2.7,1.3,4.9h-7.2
		c0,0.9,0.3,1.5,0.7,2c0.4,0.5,1,0.7,1.7,0.7c0.5,0,0.8-0.1,1.1-0.4S289.2,29.2,289.4,28.7z M289.6,25.8c0-0.8-0.2-1.5-0.6-1.9
		c-0.4-0.4-0.9-0.7-1.5-0.7c-0.6,0-1.1,0.2-1.6,0.7s-0.6,1.1-0.6,1.9H289.6z"/>
	<path class="st0" d="M294.7,21.2h2.9v4h4.1v-4h2.9v10.9h-2.9v-4.6h-4.1v4.6h-2.9V21.2z"/>
	<path class="st0" d="M316.5,32.1h-8.2V35h-2.3v-5.2h1.2c0.5-0.5,0.9-1.4,1.2-2.6c0.3-1.2,0.5-3.2,0.6-6h8.8v8.5h1.2V35h-2.3V32.1z
		 M314.8,29.8l0-6.2h-3.5c-0.1,3-0.6,5.1-1.4,6.2H314.8z"/>
	<path class="st0" d="M327.1,28.7l2.9,0.5c-0.4,1.1-1,1.9-1.7,2.4c-0.8,0.5-1.8,0.8-3,0.8c-1.9,0-3.3-0.6-4.2-1.9
		c-0.7-1-1.1-2.2-1.1-3.8c0-1.8,0.5-3.2,1.4-4.2s2.1-1.5,3.6-1.5c1.6,0,2.9,0.5,3.8,1.6c0.9,1.1,1.4,2.7,1.3,4.9h-7.2
		c0,0.9,0.3,1.5,0.7,2c0.4,0.5,1,0.7,1.7,0.7c0.5,0,0.8-0.1,1.1-0.4S326.9,29.2,327.1,28.7z M327.3,25.8c0-0.8-0.2-1.5-0.6-1.9
		c-0.4-0.4-0.9-0.7-1.5-0.7c-0.6,0-1.1,0.2-1.6,0.7s-0.6,1.1-0.6,1.9H327.3z"/>
	<path class="st0" d="M332.4,21.2h2.7v1.6c0.3-0.5,0.8-1,1.4-1.3c0.6-0.3,1.3-0.5,2-0.5c1.3,0,2.3,0.5,3.2,1.5
		c0.9,1,1.3,2.4,1.3,4.1c0,1.8-0.4,3.2-1.3,4.2c-0.9,1-2,1.5-3.2,1.5c-0.6,0-1.1-0.1-1.6-0.4c-0.5-0.2-1-0.6-1.5-1.2v5.5h-2.9V21.2z
		 M335.2,26.5c0,1.2,0.2,2.1,0.7,2.7c0.5,0.6,1.1,0.9,1.8,0.9c0.7,0,1.2-0.3,1.7-0.8c0.4-0.5,0.7-1.4,0.7-2.6c0-1.1-0.2-2-0.7-2.5
		c-0.5-0.6-1-0.8-1.7-0.8c-0.7,0-1.3,0.3-1.8,0.8C335.5,24.6,335.2,25.4,335.2,26.5z"/>
	<path class="st0" d="M0.2,38h1.3v4.4c0.6,0,1-0.1,1.3-0.4c0.2-0.2,0.6-0.8,1-1.7C4,39.7,4.3,39.3,4.5,39c0.2-0.3,0.4-0.5,0.8-0.7
		S5.9,38,6.4,38c0.5,0,0.8,0,0.8,0v1.2c0,0-0.1,0-0.3,0c-0.1,0-0.2,0-0.3,0c-0.4,0-0.7,0.1-1,0.3c-0.2,0.2-0.5,0.6-0.7,1.3
		c-0.3,0.9-0.6,1.4-0.9,1.6c-0.2,0.2-0.5,0.4-0.8,0.5c0.7,0.2,1.3,0.8,1.9,1.8l2.1,3.4H5.6l-1.7-2.7c-0.5-0.8-0.9-1.3-1.2-1.6
		c-0.3-0.3-0.7-0.4-1.2-0.4v4.7H0.2V38z"/>
	<path class="st0" d="M14.6,44.4c0,1.7-0.6,2.9-1.7,3.5c-0.5,0.3-1.1,0.4-1.8,0.4c-1.1,0-2-0.4-2.6-1.1c-0.6-0.7-0.8-1.6-0.8-2.7
		c0-1.4,0.4-2.4,1.1-3c0.6-0.5,1.4-0.8,2.3-0.8c1.1,0,1.9,0.4,2.5,1.1C14.4,42.4,14.6,43.3,14.6,44.4z M13.4,44.8H9.1
		c0,0.7,0.2,1.3,0.6,1.7c0.4,0.5,0.9,0.8,1.6,0.8c0.7,0,1.2-0.3,1.6-0.8C13.1,46.1,13.3,45.5,13.4,44.8z M13.3,43.8
		c-0.1-0.6-0.3-1.1-0.6-1.4c-0.4-0.5-0.9-0.7-1.5-0.7c-0.6,0-1.1,0.2-1.5,0.7c-0.3,0.3-0.5,0.8-0.6,1.4H13.3z"/>
	<path class="st0" d="M16.1,50.9V40.8h1.1v1c0.3-0.4,0.6-0.7,0.9-0.8s0.7-0.3,1.2-0.3c0.6,0,1.2,0.2,1.7,0.5
		c0.5,0.3,0.8,0.8,1.1,1.4c0.2,0.6,0.4,1.2,0.4,1.9c0,0.8-0.1,1.4-0.4,2c-0.3,0.6-0.7,1.1-1.2,1.4c-0.5,0.3-1.1,0.5-1.6,0.5
		c-0.4,0-0.8-0.1-1.1-0.3s-0.6-0.4-0.8-0.7v3.6H16.1z M17.2,44.5c0,0.9,0.2,1.6,0.6,2.1s0.8,0.7,1.4,0.7c0.6,0,1-0.2,1.4-0.7
		c0.4-0.5,0.6-1.2,0.6-2.2c0-0.9-0.2-1.6-0.6-2.1s-0.8-0.7-1.4-0.7c-0.5,0-1,0.2-1.4,0.7C17.4,42.8,17.2,43.6,17.2,44.5z"/>
	<path class="st0" d="M23.8,51l-0.1-1.2c0.3,0.1,0.5,0.1,0.7,0.1c0.3,0,0.5,0,0.7-0.1s0.3-0.2,0.4-0.4c0.1-0.1,0.2-0.4,0.4-0.9
		c0-0.1,0.1-0.2,0.1-0.3l-2.8-7.3h1.3L26,45c0.2,0.5,0.4,1.1,0.5,1.7c0.1-0.6,0.3-1.1,0.5-1.7l1.6-4.3h1.2L27,48.3
		c-0.3,0.8-0.5,1.4-0.7,1.7c-0.2,0.4-0.5,0.7-0.8,0.9c-0.3,0.2-0.6,0.3-1,0.3C24.3,51.1,24,51.1,23.8,51z"/>
	<path class="st0" d="M39.2,40.8V44c0.4,0,0.7-0.1,0.8-0.2c0.2-0.2,0.4-0.6,0.7-1.3c0.3-0.7,0.5-1.1,0.8-1.3
		c0.2-0.2,0.6-0.3,1.1-0.3h0.5v1l-0.3,0c-0.3,0-0.5,0-0.6,0.1c-0.1,0.1-0.2,0.4-0.4,0.9c-0.2,0.5-0.4,0.8-0.5,1
		c-0.2,0.2-0.4,0.4-0.7,0.5c0.5,0.1,1.1,0.6,1.6,1.5l1.4,2.3H42l-1.3-2.3c-0.3-0.5-0.5-0.8-0.7-0.9c-0.2-0.1-0.4-0.2-0.7-0.2v3.4H38
		v-3.4c-0.3,0-0.5,0.1-0.7,0.2c-0.2,0.1-0.4,0.4-0.7,0.9l-1.3,2.3h-1.4l1.4-2.3c0.5-0.9,1-1.3,1.6-1.5c-0.4-0.2-0.6-0.4-0.8-0.6
		s-0.4-0.7-0.7-1.4c-0.1-0.3-0.2-0.4-0.3-0.5c-0.1-0.1-0.3-0.1-0.5-0.1c-0.1,0-0.2,0-0.4,0v-1h0.2c0.5,0,0.8,0,1,0.1
		c0.2,0.1,0.4,0.2,0.5,0.4c0.2,0.2,0.4,0.6,0.6,1.2c0.3,0.7,0.5,1.2,0.7,1.3c0.2,0.2,0.4,0.2,0.8,0.2v-3.2H39.2z"/>
	<path class="st0" d="M50.3,40.8l-2.8,7.3v2.8h-1.2v-2.8l-2.8-7.3h1.3l1.5,4.2c0.2,0.6,0.4,1.2,0.5,1.7c0.1-0.5,0.3-1.1,0.5-1.7
		l1.5-4.2H50.3z"/>
	<path class="st0" d="M51.3,40.8h1.2V44c0.4,0,0.7-0.1,0.8-0.2c0.2-0.2,0.4-0.6,0.7-1.3c0.2-0.6,0.4-1,0.6-1.1
		c0.2-0.2,0.3-0.3,0.5-0.4s0.5-0.1,1-0.1h0.2v1l-0.3,0c-0.3,0-0.5,0-0.6,0.1c-0.1,0.1-0.2,0.4-0.4,0.9c-0.2,0.5-0.4,0.8-0.5,1
		c-0.2,0.2-0.4,0.4-0.7,0.5c0.5,0.1,1.1,0.6,1.6,1.5l1.4,2.3h-1.4L54,45.9c-0.3-0.5-0.5-0.8-0.7-0.9c-0.2-0.1-0.4-0.2-0.7-0.2v3.4
		h-1.2V40.8z"/>
	<path class="st0" d="M57,40.8h6v1h-2.4v6.3h-1.2v-6.3H57V40.8z"/>
	<path class="st0" d="M69,45.8l1.3,0.2c-0.2,0.8-0.6,1.3-1.1,1.7c-0.5,0.4-1.2,0.6-2.1,0.6c-1.1,0-1.9-0.3-2.6-1
		c-0.6-0.7-0.9-1.6-0.9-2.8c0-1.2,0.3-2.2,1-2.9c0.6-0.7,1.5-1,2.5-1c1,0,1.8,0.3,2.4,1c0.6,0.7,0.9,1.6,0.9,2.8c0,0.1,0,0.2,0,0.3
		h-5.5c0,0.8,0.3,1.4,0.7,1.8s0.9,0.6,1.5,0.6c0.5,0,0.8-0.1,1.2-0.4C68.6,46.7,68.8,46.3,69,45.8z M64.9,43.8H69
		c-0.1-0.6-0.2-1.1-0.5-1.4c-0.4-0.5-0.9-0.7-1.5-0.7c-0.6,0-1.1,0.2-1.4,0.6C65.2,42.6,65,43.1,64.9,43.8z"/>
	<path class="st0" d="M71.9,40.8h1.9l1.9,5.9l2.1-5.9h1.8v7.3h-1.2v-5.9l-2.2,5.9h-1.1L73.1,42v6.2h-1.2V40.8z"/>
	<path class="st0" d="M86.6,45.8l1.3,0.2c-0.2,0.8-0.6,1.3-1.1,1.7c-0.5,0.4-1.2,0.6-2.1,0.6c-1.1,0-1.9-0.3-2.6-1
		c-0.6-0.7-0.9-1.6-0.9-2.8c0-1.2,0.3-2.2,1-2.9c0.6-0.7,1.5-1,2.5-1c1,0,1.8,0.3,2.4,1c0.6,0.7,0.9,1.6,0.9,2.8c0,0.1,0,0.2,0,0.3
		h-5.5c0,0.8,0.3,1.4,0.7,1.8s0.9,0.6,1.5,0.6c0.5,0,0.8-0.1,1.2-0.4C86.1,46.7,86.4,46.3,86.6,45.8z M82.5,43.8h4.1
		c-0.1-0.6-0.2-1.1-0.5-1.4c-0.4-0.5-0.9-0.7-1.5-0.7c-0.6,0-1.1,0.2-1.4,0.6C82.8,42.6,82.5,43.1,82.5,43.8z"/>
	<path class="st0" d="M94.2,45.4l1.2,0.2c-0.1,0.8-0.5,1.5-1,2s-1.2,0.7-2,0.7c-1,0-1.8-0.3-2.4-1c-0.6-0.7-0.9-1.6-0.9-2.8
		c0-0.8,0.1-1.5,0.4-2.1c0.3-0.6,0.7-1,1.2-1.3s1.1-0.4,1.8-0.4c0.8,0,1.4,0.2,2,0.6c0.5,0.4,0.8,1,1,1.7l-1.2,0.2
		c-0.1-0.5-0.3-0.9-0.6-1.1c-0.3-0.2-0.6-0.4-1.1-0.4c-0.6,0-1.1,0.2-1.5,0.7c-0.4,0.4-0.6,1.2-0.6,2.1c0,1,0.2,1.7,0.6,2.1
		c0.4,0.4,0.9,0.7,1.5,0.7c0.5,0,0.9-0.2,1.2-0.4S94.1,46.1,94.2,45.4z"/>
	<path class="st0" d="M96.5,39.4V38h1.2v1.4H96.5z M96.5,48.1v-7.3h1.2v7.3H96.5z"/>
	<path class="st0" d="M99.6,40.8h1.2v3.1h3.4v-3.1h1.2v7.3h-1.2v-3.3h-3.4v3.3h-1.2V40.8z"/>
	<path class="st0" d="M107.5,39.4V38h1.2v1.4H107.5z M107.5,48.1v-7.3h1.2v7.3H107.5z"/>
	<path class="st0" d="M117.3,50.2h-1v-2.1h-1v-3.3h-3.4v3.3h-1.2v-7.3h1.2v3.1h3.4v-3.1h1.2v6.3h0.8V50.2z"/>
	<path class="st0" d="M126.8,40.8V44c0.4,0,0.7-0.1,0.8-0.2c0.2-0.2,0.4-0.6,0.7-1.3c0.3-0.7,0.5-1.1,0.8-1.3
		c0.2-0.2,0.6-0.3,1.1-0.3h0.5v1l-0.3,0c-0.3,0-0.5,0-0.6,0.1c-0.1,0.1-0.2,0.4-0.4,0.9c-0.2,0.5-0.4,0.8-0.5,1
		c-0.2,0.2-0.4,0.4-0.7,0.5c0.5,0.1,1.1,0.6,1.6,1.5l1.4,2.3h-1.4l-1.3-2.3c-0.3-0.5-0.5-0.8-0.7-0.9c-0.2-0.1-0.4-0.2-0.7-0.2v3.4
		h-1.3v-3.4c-0.3,0-0.5,0.1-0.7,0.2c-0.2,0.1-0.4,0.4-0.7,0.9l-1.3,2.3h-1.4l1.4-2.3c0.5-0.9,1-1.3,1.6-1.5
		c-0.4-0.2-0.6-0.4-0.8-0.6s-0.4-0.7-0.7-1.4c-0.1-0.3-0.2-0.4-0.3-0.5c-0.1-0.1-0.3-0.1-0.5-0.1c-0.1,0-0.2,0-0.4,0v-1h0.2
		c0.5,0,0.8,0,1,0.1c0.2,0.1,0.4,0.2,0.5,0.4c0.2,0.2,0.4,0.6,0.6,1.2c0.3,0.7,0.5,1.2,0.7,1.3c0.2,0.2,0.4,0.2,0.8,0.2v-3.2H126.8z
		"/>
	<path class="st0" d="M131.3,44.5c0-1.4,0.4-2.4,1.1-3c0.6-0.5,1.4-0.8,2.3-0.8c1,0,1.8,0.3,2.5,1s1,1.6,1,2.7
		c0,0.9-0.1,1.7-0.4,2.2c-0.3,0.5-0.7,1-1.2,1.3c-0.5,0.3-1.1,0.4-1.8,0.4c-1,0-1.9-0.3-2.5-1S131.3,45.7,131.3,44.5z M132.6,44.5
		c0,0.9,0.2,1.6,0.6,2.1c0.4,0.5,0.9,0.7,1.5,0.7c0.6,0,1.1-0.2,1.5-0.7c0.4-0.5,0.6-1.2,0.6-2.1c0-0.9-0.2-1.6-0.6-2.1
		c-0.4-0.5-0.9-0.7-1.5-0.7c-0.6,0-1.1,0.2-1.5,0.7C132.8,42.8,132.6,43.5,132.6,44.5z"/>
	<path class="st0" d="M143.9,41.8h-3v1.8h1.6v0.9h-1.6v3.5h-1.2v-3.5h-0.9v-0.9h0.9v-2.9h4.2V41.8z"/>
	<path class="st0" d="M149.6,47.2c-0.5,0.4-0.9,0.7-1.3,0.8c-0.4,0.2-0.9,0.2-1.4,0.2c-0.8,0-1.4-0.2-1.9-0.6s-0.6-0.9-0.6-1.5
		c0-0.4,0.1-0.7,0.2-1c0.2-0.3,0.4-0.5,0.6-0.7c0.3-0.2,0.6-0.3,0.9-0.4c0.2-0.1,0.6-0.1,1.1-0.2c1-0.1,1.7-0.3,2.2-0.4
		c0-0.2,0-0.3,0-0.3c0-0.5-0.1-0.9-0.4-1.1c-0.3-0.3-0.8-0.4-1.4-0.4c-0.6,0-1,0.1-1.3,0.3c-0.3,0.2-0.5,0.6-0.6,1.1l-1.2-0.2
		c0.1-0.5,0.3-0.9,0.5-1.3c0.3-0.3,0.6-0.6,1.1-0.7s1-0.3,1.7-0.3c0.6,0,1.1,0.1,1.5,0.2s0.7,0.3,0.9,0.6c0.2,0.2,0.3,0.5,0.4,0.8
		c0,0.2,0.1,0.6,0.1,1.1v1.7c0,1.2,0,1.9,0.1,2.2c0.1,0.3,0.2,0.6,0.3,0.9h-1.3C149.7,47.9,149.6,47.6,149.6,47.2z M149.5,44.5
		c-0.5,0.2-1.1,0.3-2,0.5c-0.5,0.1-0.9,0.2-1.1,0.2c-0.2,0.1-0.4,0.2-0.5,0.4c-0.1,0.2-0.2,0.4-0.2,0.6c0,0.3,0.1,0.6,0.4,0.8
		c0.3,0.2,0.6,0.3,1.1,0.3c0.5,0,0.9-0.1,1.3-0.3c0.4-0.2,0.6-0.5,0.8-0.9c0.1-0.3,0.2-0.7,0.2-1.2V44.5z"/>
	<path class="st0" d="M152.7,50.9V40.8h1.1v1c0.3-0.4,0.6-0.7,0.9-0.8s0.7-0.3,1.2-0.3c0.6,0,1.2,0.2,1.7,0.5
		c0.5,0.3,0.8,0.8,1.1,1.4c0.2,0.6,0.4,1.2,0.4,1.9c0,0.8-0.1,1.4-0.4,2c-0.3,0.6-0.7,1.1-1.2,1.4c-0.5,0.3-1.1,0.5-1.6,0.5
		c-0.4,0-0.8-0.1-1.1-0.3s-0.6-0.4-0.8-0.7v3.6H152.7z M153.8,44.5c0,0.9,0.2,1.6,0.6,2.1s0.8,0.7,1.4,0.7c0.6,0,1-0.2,1.4-0.7
		s0.6-1.2,0.6-2.2c0-0.9-0.2-1.6-0.6-2.1c-0.4-0.5-0.8-0.7-1.4-0.7c-0.5,0-1,0.2-1.4,0.7C154,42.8,153.8,43.6,153.8,44.5z"/>
	<path class="st0" d="M160.5,40.8h1.2v2.9h1.6c1,0,1.8,0.2,2.4,0.6c0.6,0.4,0.8,0.9,0.8,1.6c0,0.6-0.2,1.1-0.7,1.6
		c-0.5,0.4-1.2,0.7-2.2,0.7h-3.1V40.8z M161.8,47.1h1.3c0.8,0,1.3-0.1,1.7-0.3s0.5-0.5,0.5-0.9c0-0.3-0.1-0.6-0.4-0.8
		c-0.2-0.2-0.8-0.4-1.7-0.4h-1.5V47.1z M167.5,40.8h1.2v7.3h-1.2V40.8z"/>
	<path class="st0" d="M171.3,40.8h5.8v7.3h-1.2v-6.3h-3.3v3.7c0,0.9,0,1.4-0.1,1.7c-0.1,0.3-0.2,0.5-0.5,0.7
		c-0.2,0.2-0.6,0.3-1.1,0.3c-0.3,0-0.6,0-1-0.1v-1h0.5c0.3,0,0.4,0,0.6-0.1c0.1-0.1,0.2-0.1,0.2-0.3c0-0.1,0.1-0.5,0.1-1.1V40.8z"/>
	<path class="st0" d="M183.7,47.2c-0.5,0.4-0.9,0.7-1.3,0.8s-0.9,0.2-1.4,0.2c-0.8,0-1.4-0.2-1.9-0.6s-0.6-0.9-0.6-1.5
		c0-0.4,0.1-0.7,0.2-1s0.4-0.5,0.6-0.7s0.6-0.3,0.9-0.4c0.2-0.1,0.6-0.1,1.1-0.2c1-0.1,1.7-0.3,2.2-0.4c0-0.2,0-0.3,0-0.3
		c0-0.5-0.1-0.9-0.4-1.1c-0.3-0.3-0.8-0.4-1.4-0.4c-0.6,0-1,0.1-1.3,0.3c-0.3,0.2-0.5,0.6-0.6,1.1l-1.2-0.2c0.1-0.5,0.3-0.9,0.5-1.3
		c0.3-0.3,0.6-0.6,1.1-0.7s1-0.3,1.7-0.3c0.6,0,1.1,0.1,1.5,0.2c0.4,0.1,0.7,0.3,0.9,0.6c0.2,0.2,0.3,0.5,0.4,0.8
		c0,0.2,0.1,0.6,0.1,1.1v1.7c0,1.2,0,1.9,0.1,2.2c0.1,0.3,0.2,0.6,0.3,0.9H184C183.8,47.9,183.8,47.6,183.7,47.2z M183.6,44.5
		c-0.5,0.2-1.1,0.3-2,0.5c-0.5,0.1-0.9,0.2-1.1,0.2c-0.2,0.1-0.4,0.2-0.5,0.4c-0.1,0.2-0.2,0.4-0.2,0.6c0,0.3,0.1,0.6,0.4,0.8
		c0.3,0.2,0.6,0.3,1.1,0.3c0.5,0,0.9-0.1,1.3-0.3c0.4-0.2,0.6-0.5,0.8-0.9c0.1-0.3,0.2-0.7,0.2-1.2V44.5z"/>
	<path class="st0" d="M186.6,51l-0.1-1.2c0.3,0.1,0.5,0.1,0.7,0.1c0.3,0,0.5,0,0.7-0.1s0.3-0.2,0.4-0.4c0.1-0.1,0.2-0.4,0.4-0.9
		c0-0.1,0.1-0.2,0.1-0.3l-2.8-7.3h1.3l1.5,4.2c0.2,0.5,0.4,1.1,0.5,1.7c0.1-0.6,0.3-1.1,0.5-1.7l1.6-4.3h1.2l-2.8,7.5
		c-0.3,0.8-0.5,1.4-0.7,1.7c-0.2,0.4-0.5,0.7-0.8,0.9c-0.3,0.2-0.6,0.3-1,0.3C187.1,51.1,186.9,51.1,186.6,51z"/>
	<path class="st0" d="M193.7,40.8h1.2v2.9h1.6c1,0,1.8,0.2,2.4,0.6c0.6,0.4,0.8,0.9,0.8,1.6c0,0.6-0.2,1.1-0.7,1.6
		c-0.5,0.4-1.2,0.7-2.2,0.7h-3.1V40.8z M195,47.1h1.3c0.8,0,1.3-0.1,1.7-0.3s0.5-0.5,0.5-0.9c0-0.3-0.1-0.6-0.4-0.8
		c-0.2-0.2-0.8-0.4-1.7-0.4H195V47.1z M200.7,40.8h1.2v7.3h-1.2V40.8z"/>
	<path class="st0" d="M203.9,40.8h1.2v3.1h3.4v-3.1h1.2v7.3h-1.2v-3.3h-3.4v3.3h-1.2V40.8z"/>
	<path class="st0" d="M216.5,47.2c-0.5,0.4-0.9,0.7-1.3,0.8s-0.9,0.2-1.4,0.2c-0.8,0-1.4-0.2-1.9-0.6s-0.6-0.9-0.6-1.5
		c0-0.4,0.1-0.7,0.2-1s0.4-0.5,0.6-0.7s0.6-0.3,0.9-0.4c0.2-0.1,0.6-0.1,1.1-0.2c1-0.1,1.7-0.3,2.2-0.4c0-0.2,0-0.3,0-0.3
		c0-0.5-0.1-0.9-0.4-1.1c-0.3-0.3-0.8-0.4-1.4-0.4c-0.6,0-1,0.1-1.3,0.3c-0.3,0.2-0.5,0.6-0.6,1.1l-1.2-0.2c0.1-0.5,0.3-0.9,0.5-1.3
		c0.3-0.3,0.6-0.6,1.1-0.7s1-0.3,1.7-0.3c0.6,0,1.1,0.1,1.5,0.2c0.4,0.1,0.7,0.3,0.9,0.6c0.2,0.2,0.3,0.5,0.4,0.8
		c0,0.2,0.1,0.6,0.1,1.1v1.7c0,1.2,0,1.9,0.1,2.2c0.1,0.3,0.2,0.6,0.3,0.9h-1.3C216.6,47.9,216.5,47.6,216.5,47.2z M216.4,44.5
		c-0.5,0.2-1.1,0.3-2,0.5c-0.5,0.1-0.9,0.2-1.1,0.2c-0.2,0.1-0.4,0.2-0.5,0.4c-0.1,0.2-0.2,0.4-0.2,0.6c0,0.3,0.1,0.6,0.4,0.8
		c0.3,0.2,0.6,0.3,1.1,0.3c0.5,0,0.9-0.1,1.3-0.3c0.4-0.2,0.6-0.5,0.8-0.9c0.1-0.3,0.2-0.7,0.2-1.2V44.5z"/>
	<path class="st0" d="M227.9,40.8V44c0.4,0,0.7-0.1,0.8-0.2c0.2-0.2,0.4-0.6,0.7-1.3c0.3-0.7,0.5-1.1,0.8-1.3
		c0.2-0.2,0.6-0.3,1.1-0.3h0.5v1l-0.3,0c-0.3,0-0.5,0-0.6,0.1c-0.1,0.1-0.2,0.4-0.4,0.9c-0.2,0.5-0.4,0.8-0.5,1
		c-0.2,0.2-0.4,0.4-0.7,0.5c0.5,0.1,1.1,0.6,1.6,1.5l1.4,2.3h-1.4l-1.3-2.3c-0.3-0.5-0.5-0.8-0.7-0.9c-0.2-0.1-0.4-0.2-0.7-0.2v3.4
		h-1.3v-3.4c-0.3,0-0.5,0.1-0.7,0.2c-0.2,0.1-0.4,0.4-0.7,0.9l-1.3,2.3h-1.4l1.4-2.3c0.5-0.9,1-1.3,1.6-1.5
		c-0.4-0.2-0.6-0.4-0.8-0.6s-0.4-0.7-0.7-1.4c-0.1-0.3-0.2-0.4-0.3-0.5c-0.1-0.1-0.3-0.1-0.5-0.1c-0.1,0-0.2,0-0.4,0v-1h0.2
		c0.5,0,0.8,0,1,0.1c0.2,0.1,0.4,0.2,0.5,0.4c0.2,0.2,0.4,0.6,0.6,1.2c0.3,0.7,0.5,1.2,0.7,1.3c0.2,0.2,0.4,0.2,0.8,0.2v-3.2H227.9z
		"/>
	<path class="st0" d="M239.3,44.4c0,1.1-0.3,2-0.8,2.8c-0.6,0.8-1.5,1.1-2.6,1.1c-1.1,0-1.9-0.4-2.5-1.1c-0.5-0.7-0.8-1.6-0.8-2.7
		c0-0.1,0-0.2,0-0.3h5.5c0-0.7-0.2-1.3-0.6-1.7c-0.4-0.5-0.9-0.8-1.6-0.8c-0.9,0-1.6,0.5-1.9,1.5l-1.3-0.2c0.4-1.6,1.5-2.4,3.2-2.4
		c1.1,0,2,0.3,2.6,1C239,42.4,239.3,43.3,239.3,44.4z M238,45.2h-4.1c0.1,0.6,0.2,1.1,0.5,1.4c0.4,0.5,0.9,0.7,1.5,0.7
		c0.6,0,1.1-0.2,1.5-0.6C237.7,46.3,237.9,45.8,238,45.2z"/>
	<path class="st0" d="M240.8,40.8h1.2v3.1h3.4v-3.1h1.2v7.3h-1.2v-3.3H242v3.3h-1.2V40.8z"/>
	<path class="st0" d="M253.6,45.8l1.3,0.2c-0.2,0.8-0.6,1.3-1.1,1.7c-0.5,0.4-1.2,0.6-2.1,0.6c-1.1,0-1.9-0.3-2.6-1
		c-0.6-0.7-0.9-1.6-0.9-2.8c0-1.2,0.3-2.2,1-2.9c0.6-0.7,1.5-1,2.5-1c1,0,1.8,0.3,2.4,1s0.9,1.6,0.9,2.8c0,0.1,0,0.2,0,0.3h-5.5
		c0,0.8,0.3,1.4,0.7,1.8c0.4,0.4,0.9,0.6,1.5,0.6c0.5,0,0.8-0.1,1.2-0.4S253.4,46.3,253.6,45.8z M249.5,43.8h4.1
		c-0.1-0.6-0.2-1.1-0.5-1.4c-0.4-0.5-0.9-0.7-1.5-0.7c-0.6,0-1,0.2-1.4,0.6C249.8,42.6,249.6,43.1,249.5,43.8z"/>
	<path class="st0" d="M260.4,40.8h1.2V44c0.4,0,0.7-0.1,0.8-0.2c0.2-0.2,0.4-0.6,0.7-1.3c0.2-0.6,0.4-1,0.6-1.1
		c0.2-0.2,0.3-0.3,0.5-0.4c0.2-0.1,0.5-0.1,1-0.1h0.2v1l-0.3,0c-0.3,0-0.5,0-0.6,0.1c-0.1,0.1-0.2,0.4-0.4,0.9
		c-0.2,0.5-0.4,0.8-0.5,1c-0.2,0.2-0.4,0.4-0.7,0.5c0.5,0.1,1.1,0.6,1.6,1.5l1.4,2.3h-1.4l-1.3-2.3c-0.3-0.5-0.5-0.8-0.7-0.9
		c-0.2-0.1-0.4-0.2-0.7-0.2v3.4h-1.2V40.8z"/>
	<path class="st0" d="M273,44.4c0,1.7-0.6,2.9-1.7,3.5c-0.5,0.3-1.1,0.4-1.8,0.4c-1.1,0-2-0.4-2.6-1.1c-0.6-0.7-0.8-1.6-0.8-2.7
		c0-1.4,0.4-2.4,1.1-3c0.6-0.5,1.4-0.8,2.3-0.8c1.1,0,1.9,0.4,2.5,1.1C272.7,42.4,273,43.3,273,44.4z M271.7,44.8h-4.3
		c0,0.7,0.2,1.3,0.6,1.7c0.4,0.5,0.9,0.8,1.6,0.8c0.7,0,1.2-0.3,1.6-0.8C271.5,46.1,271.6,45.5,271.7,44.8z M271.6,43.8
		c-0.1-0.6-0.3-1.1-0.6-1.4c-0.4-0.5-0.9-0.7-1.5-0.7c-0.6,0-1.1,0.2-1.5,0.7c-0.3,0.3-0.5,0.8-0.6,1.4H271.6z"/>
	<path class="st0" d="M274.4,50.9V40.8h1.1v1c0.3-0.4,0.6-0.7,0.9-0.8s0.7-0.3,1.2-0.3c0.6,0,1.2,0.2,1.7,0.5
		c0.5,0.3,0.8,0.8,1.1,1.4c0.2,0.6,0.4,1.2,0.4,1.9c0,0.8-0.1,1.4-0.4,2c-0.3,0.6-0.7,1.1-1.2,1.4c-0.5,0.3-1.1,0.5-1.6,0.5
		c-0.4,0-0.8-0.1-1.1-0.3s-0.6-0.4-0.8-0.7v3.6H274.4z M275.5,44.5c0,0.9,0.2,1.6,0.6,2.1s0.8,0.7,1.4,0.7c0.6,0,1-0.2,1.4-0.7
		s0.6-1.2,0.6-2.2c0-0.9-0.2-1.6-0.6-2.1c-0.4-0.5-0.8-0.7-1.4-0.7c-0.5,0-1,0.2-1.4,0.7C275.8,42.8,275.5,43.6,275.5,44.5z"/>
	<path class="st0" d="M282.1,51l-0.1-1.2c0.3,0.1,0.5,0.1,0.7,0.1c0.3,0,0.5,0,0.7-0.1s0.3-0.2,0.4-0.4c0.1-0.1,0.2-0.4,0.4-0.9
		c0-0.1,0.1-0.2,0.1-0.3l-2.8-7.3h1.3l1.5,4.2c0.2,0.5,0.4,1.1,0.5,1.7c0.1-0.6,0.3-1.1,0.5-1.7l1.6-4.3h1.2l-2.8,7.5
		c-0.3,0.8-0.5,1.4-0.7,1.7c-0.2,0.4-0.5,0.7-0.8,0.9c-0.3,0.2-0.6,0.3-1,0.3C282.6,51.1,282.4,51.1,282.1,51z"/>
	<g>
		<path class="st0" d="M5.2,65.2h-1v-2.1H4l-1.3-2.3c-0.2-0.4-0.4-0.6-0.6-0.8c-0.2-0.2-0.5-0.3-0.9-0.3v3.4H0v-7.3h1.2V59
			c0.5,0,0.8-0.1,1-0.4c0.1-0.1,0.2-0.5,0.5-1.1C3,57,3.1,56.7,3.2,56.5c0.2-0.3,0.4-0.5,0.7-0.6c0.2-0.1,0.5-0.1,1-0.1h0.2v1
			l-0.3,0c-0.3,0-0.6,0.1-0.7,0.3c0,0.1-0.2,0.3-0.3,0.8c-0.2,0.4-0.3,0.7-0.4,0.9c-0.2,0.2-0.4,0.4-0.8,0.6C3,59.5,3.5,60,4,60.9
			l0.8,1.2h0.4V65.2z"/>
		<path class="st0" d="M11,62.2c-0.5,0.4-0.9,0.7-1.3,0.8c-0.4,0.2-0.9,0.2-1.4,0.2c-0.8,0-1.4-0.2-1.9-0.6s-0.6-0.9-0.6-1.5
			c0-0.4,0.1-0.7,0.2-1c0.2-0.3,0.4-0.5,0.6-0.7c0.3-0.2,0.6-0.3,0.9-0.4C7.8,59,8.2,59,8.7,58.9c1-0.1,1.7-0.3,2.2-0.4
			c0-0.2,0-0.3,0-0.3c0-0.5-0.1-0.9-0.4-1.1c-0.3-0.3-0.8-0.4-1.4-0.4c-0.6,0-1,0.1-1.3,0.3c-0.3,0.2-0.5,0.6-0.6,1.1L6,57.9
			c0.1-0.5,0.3-0.9,0.5-1.3c0.3-0.3,0.6-0.6,1.1-0.7s1-0.3,1.7-0.3c0.6,0,1.1,0.1,1.5,0.2s0.7,0.3,0.9,0.6s0.3,0.5,0.4,0.8
			c0,0.2,0.1,0.6,0.1,1.1v1.7c0,1.2,0,1.9,0.1,2.2c0.1,0.3,0.2,0.6,0.3,0.9h-1.3C11.1,62.9,11,62.6,11,62.2z M10.9,59.5
			c-0.5,0.2-1.1,0.3-2,0.5C8.3,60,8,60.1,7.8,60.2c-0.2,0.1-0.4,0.2-0.5,0.4c-0.1,0.2-0.2,0.4-0.2,0.6c0,0.3,0.1,0.6,0.4,0.8
			c0.3,0.2,0.6,0.3,1.1,0.3c0.5,0,0.9-0.1,1.3-0.3c0.4-0.2,0.6-0.5,0.8-0.9c0.1-0.3,0.2-0.7,0.2-1.2V59.5z"/>
		<path class="st0" d="M19.4,52.8l1.1,0c-0.1,0.5-0.2,0.8-0.3,1s-0.4,0.3-0.6,0.4c-0.3,0.1-0.8,0.1-1.6,0.1c-1,0-1.7,0.1-2.1,0.3
			c-0.4,0.2-0.6,0.5-0.8,0.9c-0.2,0.4-0.3,1-0.3,1.7c0.3-0.5,0.7-0.8,1.1-1c0.4-0.2,0.9-0.3,1.4-0.3c1,0,1.8,0.3,2.4,1
			c0.6,0.7,0.9,1.6,0.9,2.7c0,0.9-0.2,1.6-0.5,2.1c-0.3,0.5-0.7,1-1.1,1.3c-0.4,0.3-1,0.4-1.8,0.4c-0.9,0-1.5-0.2-2-0.6
			c-0.5-0.4-0.9-0.9-1.1-1.5c-0.3-0.6-0.4-1.7-0.4-3.2c0-1.9,0.3-3.2,1-3.9s1.7-1,3-1c0.8,0,1.3,0,1.4,0
			C19.3,52.9,19.4,52.9,19.4,52.8z M19.4,59.4c0-0.8-0.2-1.4-0.5-1.9c-0.4-0.5-0.9-0.7-1.5-0.7c-0.7,0-1.2,0.3-1.6,0.8
			c-0.4,0.5-0.6,1.2-0.6,2.1c0,0.9,0.2,1.5,0.6,2c0.4,0.5,0.9,0.7,1.5,0.7c0.6,0,1.1-0.3,1.5-0.8C19.2,61,19.4,60.3,19.4,59.4z"/>
		<path class="st0" d="M22.2,54.4V53h1.2v1.4H22.2z M22.2,63.1v-7.3h1.2v7.3H22.2z"/>
		<path class="st0" d="M25.9,55.8h5.8v7.3h-1.2v-6.3h-3.3v3.7c0,0.9,0,1.4-0.1,1.7c-0.1,0.3-0.2,0.5-0.5,0.7
			c-0.2,0.2-0.6,0.3-1.1,0.3c-0.3,0-0.6,0-1-0.1v-1h0.5c0.3,0,0.4,0,0.6-0.1c0.1-0.1,0.2-0.1,0.2-0.3c0-0.1,0.1-0.5,0.1-1.1V55.8z"
			/>
		<path class="st0" d="M38.6,60.8l1.3,0.2c-0.2,0.8-0.6,1.3-1.1,1.7c-0.5,0.4-1.2,0.6-2.1,0.6c-1.1,0-1.9-0.3-2.6-1
			c-0.6-0.7-0.9-1.6-0.9-2.8c0-1.2,0.3-2.2,1-2.9c0.6-0.7,1.5-1,2.5-1c1,0,1.8,0.3,2.4,1c0.6,0.7,0.9,1.6,0.9,2.8c0,0.1,0,0.2,0,0.3
			h-5.5c0,0.8,0.3,1.4,0.7,1.8s0.9,0.6,1.5,0.6c0.5,0,0.8-0.1,1.2-0.4C38.1,61.7,38.4,61.3,38.6,60.8z M34.5,58.8h4.1
			c-0.1-0.6-0.2-1.1-0.5-1.4c-0.4-0.5-0.9-0.7-1.5-0.7c-0.6,0-1.1,0.2-1.4,0.6C34.7,57.6,34.5,58.1,34.5,58.8z"/>
		<path class="st0" d="M40.3,55.8h6v1h-2.4v6.3h-1.2v-6.3h-2.4V55.8z"/>
		<path class="st0" d="M47.4,54.4V53h1.2v1.4H47.4z M47.4,63.1v-7.3h1.2v7.3H47.4z"/>
		<path class="st0" d="M50.6,55.8h1.2v3.1h3.4v-3.1h1.2v7.3h-1.2v-3.3h-3.4v3.3h-1.2V55.8z"/>
		<path class="st0" d="M58.4,54.4V53h1.2v1.4H58.4z M58.4,63.1v-7.3h1.2v7.3H58.4z"/>
		<path class="st0" d="M68.2,65.2h-1v-2.1h-1v-3.3h-3.4v3.3h-1.2v-7.3h1.2v3.1h3.4v-3.1h1.2v6.3h0.8V65.2z"/>
		<path class="st0" d="M77.7,55.8V59c0.4,0,0.7-0.1,0.8-0.2c0.2-0.2,0.4-0.6,0.7-1.3c0.3-0.7,0.5-1.1,0.8-1.3
			c0.2-0.2,0.6-0.3,1.1-0.3h0.5v1l-0.3,0c-0.3,0-0.5,0-0.6,0.1c-0.1,0.1-0.2,0.4-0.4,0.9c-0.2,0.5-0.4,0.8-0.5,1
			c-0.2,0.2-0.4,0.4-0.7,0.5c0.5,0.1,1.1,0.6,1.6,1.5l1.4,2.3h-1.4l-1.3-2.3c-0.3-0.5-0.5-0.8-0.7-0.9c-0.2-0.1-0.4-0.2-0.7-0.2v3.4
			h-1.3v-3.4c-0.3,0-0.5,0.1-0.7,0.2c-0.2,0.1-0.4,0.4-0.7,0.9l-1.3,2.3h-1.4l1.4-2.3c0.5-0.9,1-1.3,1.6-1.5
			c-0.4-0.2-0.6-0.4-0.8-0.6s-0.4-0.7-0.7-1.4c-0.1-0.3-0.2-0.4-0.3-0.5c-0.1-0.1-0.3-0.1-0.5-0.1c-0.1,0-0.2,0-0.4,0v-1h0.2
			c0.5,0,0.8,0,1,0.1c0.2,0.1,0.4,0.2,0.5,0.4c0.2,0.2,0.4,0.6,0.6,1.2c0.3,0.7,0.5,1.2,0.7,1.3c0.2,0.2,0.4,0.2,0.8,0.2v-3.2H77.7z
			"/>
		<path class="st0" d="M87.5,62.2c-0.5,0.4-0.9,0.7-1.3,0.8c-0.4,0.2-0.9,0.2-1.4,0.2c-0.8,0-1.4-0.2-1.9-0.6s-0.6-0.9-0.6-1.5
			c0-0.4,0.1-0.7,0.2-1c0.2-0.3,0.4-0.5,0.6-0.7c0.3-0.2,0.6-0.3,0.9-0.4c0.2-0.1,0.6-0.1,1.1-0.2c1-0.1,1.7-0.3,2.2-0.4
			c0-0.2,0-0.3,0-0.3c0-0.5-0.1-0.9-0.4-1.1c-0.3-0.3-0.8-0.4-1.4-0.4c-0.6,0-1,0.1-1.3,0.3c-0.3,0.2-0.5,0.6-0.6,1.1l-1.2-0.2
			c0.1-0.5,0.3-0.9,0.5-1.3c0.3-0.3,0.6-0.6,1.1-0.7s1-0.3,1.7-0.3c0.6,0,1.1,0.1,1.5,0.2s0.7,0.3,0.9,0.6s0.3,0.5,0.4,0.8
			c0,0.2,0.1,0.6,0.1,1.1v1.7c0,1.2,0,1.9,0.1,2.2c0.1,0.3,0.2,0.6,0.3,0.9h-1.3C87.6,62.9,87.5,62.6,87.5,62.2z M87.4,59.5
			c-0.5,0.2-1.1,0.3-2,0.5c-0.5,0.1-0.9,0.2-1.1,0.2c-0.2,0.1-0.4,0.2-0.5,0.4c-0.1,0.2-0.2,0.4-0.2,0.6c0,0.3,0.1,0.6,0.4,0.8
			c0.3,0.2,0.6,0.3,1.1,0.3c0.5,0,0.9-0.1,1.3-0.3c0.4-0.2,0.6-0.5,0.8-0.9c0.1-0.3,0.2-0.7,0.2-1.2V59.5z"/>
		<path class="st0" d="M95.3,60.4l1.2,0.2c-0.1,0.8-0.5,1.5-1,2s-1.2,0.7-2,0.7c-1,0-1.8-0.3-2.4-1c-0.6-0.7-0.9-1.6-0.9-2.8
			c0-0.8,0.1-1.5,0.4-2.1c0.3-0.6,0.7-1,1.2-1.3s1.1-0.4,1.8-0.4c0.8,0,1.4,0.2,2,0.6c0.5,0.4,0.8,1,1,1.7l-1.2,0.2
			c-0.1-0.5-0.3-0.9-0.6-1.1c-0.3-0.2-0.6-0.4-1.1-0.4c-0.6,0-1.1,0.2-1.5,0.7c-0.4,0.4-0.6,1.2-0.6,2.1c0,1,0.2,1.7,0.6,2.1
			c0.4,0.4,0.9,0.7,1.5,0.7c0.5,0,0.9-0.2,1.2-0.4S95.2,61.1,95.3,60.4z"/>
		<path class="st0" d="M102.8,65.2h-1v-2.1h-0.2l-1.3-2.3c-0.2-0.4-0.4-0.6-0.6-0.8c-0.2-0.2-0.5-0.3-0.9-0.3v3.4h-1.2v-7.3h1.2V59
			c0.5,0,0.8-0.1,1-0.4c0.1-0.1,0.2-0.5,0.5-1.1c0.2-0.4,0.3-0.7,0.4-0.9c0.2-0.3,0.4-0.5,0.7-0.6c0.2-0.1,0.5-0.1,1-0.1h0.2v1
			l-0.3,0c-0.3,0-0.6,0.1-0.7,0.3c0,0.1-0.2,0.3-0.3,0.8c-0.2,0.4-0.3,0.7-0.4,0.9c-0.2,0.2-0.4,0.4-0.8,0.6
			c0.5,0.1,1.1,0.6,1.6,1.5l0.8,1.2h0.4V65.2z"/>
		<path class="st0" d="M108.6,62.2c-0.5,0.4-0.9,0.7-1.3,0.8c-0.4,0.2-0.9,0.2-1.4,0.2c-0.8,0-1.4-0.2-1.9-0.6s-0.6-0.9-0.6-1.5
			c0-0.4,0.1-0.7,0.2-1c0.2-0.3,0.4-0.5,0.6-0.7c0.3-0.2,0.6-0.3,0.9-0.4c0.2-0.1,0.6-0.1,1.1-0.2c1-0.1,1.7-0.3,2.2-0.4
			c0-0.2,0-0.3,0-0.3c0-0.5-0.1-0.9-0.4-1.1c-0.3-0.3-0.8-0.4-1.4-0.4c-0.6,0-1,0.1-1.3,0.3c-0.3,0.2-0.5,0.6-0.6,1.1l-1.2-0.2
			c0.1-0.5,0.3-0.9,0.5-1.3c0.3-0.3,0.6-0.6,1.1-0.7s1-0.3,1.7-0.3c0.6,0,1.1,0.1,1.5,0.2s0.7,0.3,0.9,0.6s0.3,0.5,0.4,0.8
			c0,0.2,0.1,0.6,0.1,1.1v1.7c0,1.2,0,1.9,0.1,2.2c0.1,0.3,0.2,0.6,0.3,0.9h-1.3C108.7,62.9,108.6,62.6,108.6,62.2z M108.5,59.5
			c-0.5,0.2-1.1,0.3-2,0.5c-0.5,0.1-0.9,0.2-1.1,0.2c-0.2,0.1-0.4,0.2-0.5,0.4c-0.1,0.2-0.2,0.4-0.2,0.6c0,0.3,0.1,0.6,0.4,0.8
			c0.3,0.2,0.6,0.3,1.1,0.3c0.5,0,0.9-0.1,1.3-0.3c0.4-0.2,0.6-0.5,0.8-0.9c0.1-0.3,0.2-0.7,0.2-1.2V59.5z"/>
		<path class="st0" d="M121,52.8l1.1,0c-0.1,0.5-0.2,0.8-0.3,1s-0.4,0.3-0.6,0.4c-0.3,0.1-0.8,0.1-1.6,0.1c-1,0-1.7,0.1-2.1,0.3
			c-0.4,0.2-0.6,0.5-0.8,0.9c-0.2,0.4-0.3,1-0.3,1.7c0.3-0.5,0.7-0.8,1.1-1c0.4-0.2,0.9-0.3,1.4-0.3c1,0,1.8,0.3,2.4,1
			c0.6,0.7,0.9,1.6,0.9,2.7c0,0.9-0.2,1.6-0.5,2.1c-0.3,0.5-0.7,1-1.1,1.3c-0.4,0.3-1,0.4-1.8,0.4c-0.9,0-1.5-0.2-2-0.6
			c-0.5-0.4-0.9-0.9-1.1-1.5c-0.3-0.6-0.4-1.7-0.4-3.2c0-1.9,0.3-3.2,1-3.9s1.7-1,3-1c0.8,0,1.3,0,1.4,0
			C120.9,52.9,120.9,52.9,121,52.8z M120.9,59.4c0-0.8-0.2-1.4-0.5-1.9c-0.4-0.5-0.9-0.7-1.5-0.7c-0.7,0-1.2,0.3-1.6,0.8
			c-0.4,0.5-0.6,1.2-0.6,2.1c0,0.9,0.2,1.5,0.6,2c0.4,0.5,0.9,0.7,1.5,0.7c0.6,0,1.1-0.3,1.5-0.8C120.7,61,120.9,60.3,120.9,59.4z"
			/>
		<path class="st0" d="M128.1,62.2c-0.5,0.4-0.9,0.7-1.3,0.8c-0.4,0.2-0.9,0.2-1.4,0.2c-0.8,0-1.4-0.2-1.9-0.6s-0.6-0.9-0.6-1.5
			c0-0.4,0.1-0.7,0.2-1c0.2-0.3,0.4-0.5,0.6-0.7c0.3-0.2,0.6-0.3,0.9-0.4c0.2-0.1,0.6-0.1,1.1-0.2c1-0.1,1.7-0.3,2.2-0.4
			c0-0.2,0-0.3,0-0.3c0-0.5-0.1-0.9-0.4-1.1c-0.3-0.3-0.8-0.4-1.4-0.4c-0.6,0-1,0.1-1.3,0.3c-0.3,0.2-0.5,0.6-0.6,1.1l-1.2-0.2
			c0.1-0.5,0.3-0.9,0.5-1.3c0.3-0.3,0.6-0.6,1.1-0.7s1-0.3,1.7-0.3c0.6,0,1.1,0.1,1.5,0.2s0.7,0.3,0.9,0.6s0.3,0.5,0.4,0.8
			c0,0.2,0.1,0.6,0.1,1.1v1.7c0,1.2,0,1.9,0.1,2.2c0.1,0.3,0.2,0.6,0.3,0.9h-1.3C128.3,62.9,128.2,62.6,128.1,62.2z M128,59.5
			c-0.5,0.2-1.1,0.3-2,0.5c-0.5,0.1-0.9,0.2-1.1,0.2c-0.2,0.1-0.4,0.2-0.5,0.4c-0.1,0.2-0.2,0.4-0.2,0.6c0,0.3,0.1,0.6,0.4,0.8
			c0.3,0.2,0.6,0.3,1.1,0.3c0.5,0,0.9-0.1,1.3-0.3c0.4-0.2,0.6-0.5,0.8-0.9c0.1-0.3,0.2-0.7,0.2-1.2V59.5z"/>
		<path class="st0" d="M131.2,55.8h1.2v5.6l3.4-5.6h1.3v7.3H136v-5.6l-3.4,5.6h-1.3V55.8z M135.5,53h0.8c-0.1,0.6-0.3,1-0.6,1.3
			s-0.8,0.5-1.4,0.5c-0.6,0-1.1-0.2-1.4-0.5c-0.4-0.3-0.6-0.7-0.6-1.3h0.8c0.1,0.3,0.2,0.5,0.4,0.7c0.2,0.2,0.4,0.2,0.8,0.2
			c0.4,0,0.7-0.1,0.8-0.2C135.3,53.6,135.5,53.4,135.5,53z"/>
		<path class="st0" d="M139.7,55.8h5.8v7.3h-1.2v-6.3H141v3.7c0,0.9,0,1.4-0.1,1.7c-0.1,0.3-0.2,0.5-0.5,0.7
			c-0.2,0.2-0.6,0.3-1.1,0.3c-0.3,0-0.6,0-1-0.1v-1h0.5c0.3,0,0.4,0,0.6-0.1c0.1-0.1,0.2-0.1,0.2-0.3c0-0.1,0.1-0.5,0.1-1.1V55.8z"
			/>
		<path class="st0" d="M152.2,62.2c-0.5,0.4-0.9,0.7-1.3,0.8s-0.9,0.2-1.4,0.2c-0.8,0-1.4-0.2-1.9-0.6s-0.6-0.9-0.6-1.5
			c0-0.4,0.1-0.7,0.2-1c0.2-0.3,0.4-0.5,0.6-0.7c0.3-0.2,0.6-0.3,0.9-0.4c0.2-0.1,0.6-0.1,1.1-0.2c1-0.1,1.7-0.3,2.2-0.4
			c0-0.2,0-0.3,0-0.3c0-0.5-0.1-0.9-0.4-1.1c-0.3-0.3-0.8-0.4-1.4-0.4c-0.6,0-1,0.1-1.3,0.3c-0.3,0.2-0.5,0.6-0.6,1.1l-1.2-0.2
			c0.1-0.5,0.3-0.9,0.5-1.3c0.3-0.3,0.6-0.6,1.1-0.7s1-0.3,1.7-0.3c0.6,0,1.1,0.1,1.5,0.2c0.4,0.1,0.7,0.3,0.9,0.6
			c0.2,0.2,0.3,0.5,0.4,0.8c0,0.2,0.1,0.6,0.1,1.1v1.7c0,1.2,0,1.9,0.1,2.2c0.1,0.3,0.2,0.6,0.3,0.9h-1.3
			C152.3,62.9,152.2,62.6,152.2,62.2z M152.1,59.5c-0.5,0.2-1.1,0.3-2,0.5c-0.5,0.1-0.9,0.2-1.1,0.2c-0.2,0.1-0.4,0.2-0.5,0.4
			c-0.1,0.2-0.2,0.4-0.2,0.6c0,0.3,0.1,0.6,0.4,0.8c0.3,0.2,0.6,0.3,1.1,0.3c0.5,0,0.9-0.1,1.3-0.3c0.4-0.2,0.6-0.5,0.8-0.9
			c0.1-0.3,0.2-0.7,0.2-1.2V59.5z"/>
		<path class="st0" d="M155.2,55.8h1.2v3.1h3.4v-3.1h1.2v7.3h-1.2v-3.3h-3.4v3.3h-1.2V55.8z"/>
		<path class="st0" d="M163.1,55.8h1.2v2.9h1.6c1,0,1.8,0.2,2.4,0.6c0.6,0.4,0.8,0.9,0.8,1.6c0,0.6-0.2,1.1-0.7,1.6
			c-0.5,0.4-1.2,0.7-2.2,0.7h-3.1V55.8z M164.3,62.1h1.3c0.8,0,1.3-0.1,1.7-0.3s0.5-0.5,0.5-0.9c0-0.3-0.1-0.6-0.4-0.8
			c-0.2-0.2-0.8-0.4-1.7-0.4h-1.5V62.1z M170,55.8h1.2v7.3H170V55.8z"/>
		<path class="st0" d="M178,60.4l1.2,0.2c-0.1,0.8-0.5,1.5-1,2s-1.2,0.7-2,0.7c-1,0-1.8-0.3-2.4-1c-0.6-0.7-0.9-1.6-0.9-2.8
			c0-0.8,0.1-1.5,0.4-2.1c0.3-0.6,0.7-1,1.2-1.3s1.1-0.4,1.8-0.4c0.8,0,1.4,0.2,2,0.6c0.5,0.4,0.8,1,1,1.7l-1.2,0.2
			c-0.1-0.5-0.3-0.9-0.6-1.1c-0.3-0.2-0.6-0.4-1.1-0.4c-0.6,0-1.1,0.2-1.5,0.7c-0.4,0.4-0.6,1.2-0.6,2.1c0,1,0.2,1.7,0.6,2.1
			c0.4,0.4,0.9,0.7,1.5,0.7c0.5,0,0.9-0.2,1.2-0.4C177.7,61.5,177.9,61.1,178,60.4z"/>
		<path class="st0" d="M179.6,55.8h6v1h-2.4v6.3H182v-6.3h-2.4V55.8z"/>
		<path class="st0" d="M186.8,55.8h1.2v2.9h1.6c1,0,1.8,0.2,2.4,0.6c0.6,0.4,0.8,0.9,0.8,1.6c0,0.6-0.2,1.1-0.7,1.6
			c-0.5,0.4-1.2,0.7-2.2,0.7h-3.1V55.8z M188,62.1h1.3c0.8,0,1.3-0.1,1.7-0.3s0.5-0.5,0.5-0.9c0-0.3-0.1-0.6-0.4-0.8
			c-0.2-0.2-0.8-0.4-1.7-0.4H188V62.1z M193.7,55.8h1.2v7.3h-1.2V55.8z"/>
		<path class="st0" d="M207.2,59.4c0,1.7-0.6,2.9-1.7,3.5c-0.5,0.3-1.1,0.4-1.8,0.4c-1.1,0-2-0.4-2.6-1.1c-0.6-0.7-0.8-1.6-0.8-2.7
			c0-1.4,0.4-2.4,1.1-3c0.6-0.5,1.4-0.8,2.3-0.8c1.1,0,1.9,0.4,2.5,1.1C206.9,57.4,207.2,58.3,207.2,59.4z M206,59.8h-4.3
			c0,0.7,0.2,1.3,0.6,1.7c0.4,0.5,0.9,0.8,1.6,0.8c0.7,0,1.2-0.3,1.6-0.8C205.7,61.1,205.9,60.5,206,59.8z M205.9,58.8
			c-0.1-0.6-0.3-1.1-0.6-1.4c-0.4-0.5-0.9-0.7-1.5-0.7c-0.6,0-1.1,0.2-1.5,0.7c-0.3,0.3-0.5,0.8-0.6,1.4H205.9z"/>
		<path class="st0" d="M210.3,59.8v-1c0.5,0,0.9,0,1.1-0.1c0.2,0,0.4-0.1,0.5-0.3c0.2-0.2,0.3-0.4,0.3-0.7c0-0.3-0.1-0.6-0.3-0.8
			c-0.2-0.2-0.5-0.3-0.9-0.3c-0.7,0-1.2,0.4-1.5,1.2l-1.2-0.2c0.4-1.4,1.3-2.1,2.7-2.1c0.8,0,1.4,0.2,1.8,0.6
			c0.4,0.4,0.7,0.9,0.7,1.5c0,0.6-0.3,1.1-0.9,1.4c0.4,0.2,0.6,0.5,0.8,0.8c0.2,0.3,0.3,0.7,0.3,1.1c0,0.7-0.2,1.2-0.7,1.6
			c-0.5,0.4-1.1,0.6-2,0.6c-1.7,0-2.6-0.7-2.9-2.2l1.2-0.2c0.1,0.5,0.3,0.8,0.6,1.1s0.7,0.4,1.1,0.4c0.4,0,0.8-0.1,1-0.4
			c0.3-0.2,0.4-0.5,0.4-0.9c0-0.3-0.1-0.5-0.3-0.7s-0.4-0.3-0.6-0.4c-0.2-0.1-0.6-0.1-1.1-0.1C210.6,59.8,210.5,59.8,210.3,59.8z"/>
		<path class="st0" d="M215.2,55.8h4.2v1h-3v6.3h-1.2V55.8z"/>
		<path class="st0" d="M225,60.8l1.3,0.2c-0.2,0.8-0.6,1.3-1.1,1.7c-0.5,0.4-1.2,0.6-2.1,0.6c-1.1,0-1.9-0.3-2.6-1
			c-0.6-0.7-0.9-1.6-0.9-2.8c0-1.2,0.3-2.2,1-2.9c0.6-0.7,1.5-1,2.5-1c1,0,1.8,0.3,2.4,1s0.9,1.6,0.9,2.8c0,0.1,0,0.2,0,0.3h-5.5
			c0,0.8,0.3,1.4,0.7,1.8c0.4,0.4,0.9,0.6,1.5,0.6c0.5,0,0.8-0.1,1.2-0.4S224.9,61.3,225,60.8z M221,58.8h4.1
			c-0.1-0.6-0.2-1.1-0.5-1.4c-0.4-0.5-0.9-0.7-1.5-0.7c-0.6,0-1,0.2-1.4,0.6C221.2,57.6,221,58.1,221,58.8z"/>
		<path class="st0" d="M227.9,65.9V55.8h1.1v1c0.3-0.4,0.6-0.7,0.9-0.8s0.7-0.3,1.2-0.3c0.6,0,1.2,0.2,1.7,0.5
			c0.5,0.3,0.8,0.8,1.1,1.4c0.2,0.6,0.4,1.2,0.4,1.9c0,0.8-0.1,1.4-0.4,2c-0.3,0.6-0.7,1.1-1.2,1.4c-0.5,0.3-1.1,0.5-1.6,0.5
			c-0.4,0-0.8-0.1-1.1-0.3s-0.6-0.4-0.8-0.7v3.6H227.9z M229,59.5c0,0.9,0.2,1.6,0.6,2.1s0.8,0.7,1.4,0.7c0.6,0,1-0.2,1.4-0.7
			s0.6-1.2,0.6-2.2c0-0.9-0.2-1.6-0.6-2.1c-0.4-0.5-0.8-0.7-1.4-0.7c-0.5,0-1,0.2-1.4,0.7C229.2,57.8,229,58.6,229,59.5z"/>
		<path class="st0" d="M235.5,66l-0.1-1.2c0.3,0.1,0.5,0.1,0.7,0.1c0.3,0,0.5,0,0.7-0.1s0.3-0.2,0.4-0.4c0.1-0.1,0.2-0.4,0.4-0.9
			c0-0.1,0.1-0.2,0.1-0.3l-2.8-7.3h1.3l1.5,4.2c0.2,0.5,0.4,1.1,0.5,1.7c0.1-0.6,0.3-1.1,0.5-1.7l1.6-4.3h1.2l-2.8,7.5
			c-0.3,0.8-0.5,1.4-0.7,1.7c-0.2,0.4-0.5,0.7-0.8,0.9c-0.3,0.2-0.6,0.3-1,0.3C236.1,66.1,235.8,66.1,235.5,66z"/>
		<path class="st0" d="M242.7,54.4V53h1.2v1.4H242.7z M242.7,63.1v-7.3h1.2v7.3H242.7z"/>
		<path class="st0" d="M245.8,55.8h1.2v3.1h3.4v-3.1h1.2v7.3h-1.2v-3.3H247v3.3h-1.2V55.8z"/>
		<path class="st0" d="M258.6,60.8l1.3,0.2c-0.2,0.8-0.6,1.3-1.1,1.7c-0.5,0.4-1.2,0.6-2.1,0.6c-1.1,0-1.9-0.3-2.6-1
			c-0.6-0.7-0.9-1.6-0.9-2.8c0-1.2,0.3-2.2,1-2.9c0.6-0.7,1.5-1,2.5-1c1,0,1.8,0.3,2.4,1s0.9,1.6,0.9,2.8c0,0.1,0,0.2,0,0.3h-5.5
			c0,0.8,0.3,1.4,0.7,1.8c0.4,0.4,0.9,0.6,1.5,0.6c0.5,0,0.8-0.1,1.2-0.4S258.4,61.3,258.6,60.8z M254.5,58.8h4.1
			c-0.1-0.6-0.2-1.1-0.5-1.4c-0.4-0.5-0.9-0.7-1.5-0.7c-0.6,0-1,0.2-1.4,0.6C254.8,57.6,254.6,58.1,254.5,58.8z"/>
		<path class="st0" d="M265.4,55.8h1.2V59c0.4,0,0.7-0.1,0.8-0.2c0.2-0.2,0.4-0.6,0.7-1.3c0.2-0.6,0.4-1,0.6-1.1
			c0.2-0.2,0.3-0.3,0.5-0.4c0.2-0.1,0.5-0.1,1-0.1h0.2v1l-0.3,0c-0.3,0-0.5,0-0.6,0.1c-0.1,0.1-0.2,0.4-0.4,0.9
			c-0.2,0.5-0.4,0.8-0.5,1c-0.2,0.2-0.4,0.4-0.7,0.5c0.5,0.1,1.1,0.6,1.6,1.5l1.4,2.3h-1.4l-1.3-2.3c-0.3-0.5-0.5-0.8-0.7-0.9
			c-0.2-0.1-0.4-0.2-0.7-0.2v3.4h-1.2V55.8z"/>
		<path class="st0" d="M278,59.4c0,1.7-0.6,2.9-1.7,3.5c-0.5,0.3-1.1,0.4-1.8,0.4c-1.1,0-2-0.4-2.6-1.1c-0.6-0.7-0.8-1.6-0.8-2.7
			c0-1.4,0.4-2.4,1.1-3c0.6-0.5,1.4-0.8,2.3-0.8c1.1,0,1.9,0.4,2.5,1.1C277.7,57.4,278,58.3,278,59.4z M276.7,59.8h-4.3
			c0,0.7,0.2,1.3,0.6,1.7c0.4,0.5,0.9,0.8,1.6,0.8c0.7,0,1.2-0.3,1.6-0.8C276.5,61.1,276.7,60.5,276.7,59.8z M276.7,58.8
			c-0.1-0.6-0.3-1.1-0.6-1.4c-0.4-0.5-0.9-0.7-1.5-0.7c-0.6,0-1.1,0.2-1.5,0.7c-0.3,0.3-0.5,0.8-0.6,1.4H276.7z"/>
		<path class="st0" d="M279.5,55.8h1.9l1.9,5.9l2.1-5.9h1.8v7.3H286v-5.9l-2.2,5.9h-1.1l-2-6.2v6.2h-1.2V55.8z"/>
		<path class="st0" d="M294.2,60.8l1.3,0.2c-0.2,0.8-0.6,1.3-1.1,1.7c-0.5,0.4-1.2,0.6-2.1,0.6c-1.1,0-1.9-0.3-2.6-1
			c-0.6-0.7-0.9-1.6-0.9-2.8c0-1.2,0.3-2.2,1-2.9c0.6-0.7,1.5-1,2.5-1c1,0,1.8,0.3,2.4,1s0.9,1.6,0.9,2.8c0,0.1,0,0.2,0,0.3H290
			c0,0.8,0.3,1.4,0.7,1.8c0.4,0.4,0.9,0.6,1.5,0.6c0.5,0,0.8-0.1,1.2-0.4S294,61.3,294.2,60.8z M290.1,58.8h4.1
			c-0.1-0.6-0.2-1.1-0.5-1.4c-0.4-0.5-0.9-0.7-1.5-0.7c-0.6,0-1,0.2-1.4,0.6C290.4,57.6,290.1,58.1,290.1,58.8z"/>
		<path class="st0" d="M297,55.8h1.2V59c0.4,0,0.7-0.1,0.8-0.2c0.2-0.2,0.4-0.6,0.7-1.3c0.2-0.6,0.4-1,0.6-1.1
			c0.2-0.2,0.3-0.3,0.5-0.4c0.2-0.1,0.5-0.1,1-0.1h0.2v1l-0.3,0c-0.3,0-0.5,0-0.6,0.1c-0.1,0.1-0.2,0.4-0.4,0.9
			c-0.2,0.5-0.4,0.8-0.5,1c-0.2,0.2-0.4,0.4-0.7,0.5c0.5,0.1,1.1,0.6,1.6,1.5l1.4,2.3H301l-1.3-2.3c-0.3-0.5-0.5-0.8-0.7-0.9
			c-0.2-0.1-0.4-0.2-0.7-0.2v3.4H297V55.8z"/>
	</g>
</g>
</svg>
