<?xml version="1.0" encoding="utf-8"?>
<!-- Generator: Adobe Illustrator 25.2.3, SVG Export Plug-In . SVG Version: 6.00 Build 0)  -->
<svg version="1.1" id="Layer_1" xmlns="http://www.w3.org/2000/svg" xmlns:xlink="http://www.w3.org/1999/xlink" x="0px" y="0px"
	 viewBox="0 0 300 600" style="enable-background:new 0 0 300 600;" xml:space="preserve">
<style type="text/css">
	.st0{fill:url(#SVGID_1_);}
	.st1{fill:#7F2629;}
</style>
<linearGradient id="SVGID_1_" gradientUnits="userSpaceOnUse" x1="150.4276" y1="64.7754" x2="150.4276" y2="-1.2246" gradientTransform="matrix(-1 0 0 -1 300.8276 598.9754)">
	<stop  offset="0" style="stop-color:#FFFFFF"/>
	<stop  offset="1" style="stop-color:#C6DFEE"/>
</linearGradient>
<rect x="0.4" y="534.2" class="st0" width="300" height="66"/>
<g>
	<g>
		<path class="st1" d="M13,570.8v-15c0-0.9,0.2-1.3,1-1.5c1.5-0.4,3.4-0.5,5.3-0.5c4.6,0,6.6,1.9,6.6,5.2c0,1.6-0.7,2.9-2.2,3.8
			c2.2,0.8,3,2.4,3,4.4c0,3.7-1.9,5.6-6.8,5.6c-2.2,0-4.3-0.1-5.8-0.5C13.2,572.1,13,571.7,13,570.8z M17.1,557.2v4.3h2.5
			c1.8,0,2.3-0.7,2.3-2.2c0-1.6-0.7-2.3-3-2.3C18.3,557,17.6,557,17.1,557.2z M22.5,567.1c0-1.6-0.7-2.5-2.3-2.5h-3.1v4.7
			c0.8,0.1,1.5,0.2,2.5,0.2C21.8,569.6,22.5,568.9,22.5,567.1z"/>
	</g>
	<g>
		<path class="st1" d="M33.8,572c-0.1,0.3-0.3,0.4-0.9,0.4h-3.6c-0.2,0-0.3-0.1-0.3-0.3v-13.2c0-0.2,0.1-0.3,0.3-0.3h2.9
			c0.2,0,0.3,0.1,0.3,0.3v9l4.4-8.9c0.1-0.3,0.3-0.4,0.9-0.4h3.6c0.2,0,0.3,0.1,0.3,0.3v13.2c0,0.2-0.1,0.3-0.3,0.3h-2.9
			c-0.2,0-0.3-0.1-0.3-0.3v-9L33.8,572z"/>
		<path class="st1" d="M45,566.5c-0.3,0-0.4-0.1-0.4-0.3v-1.8c0-0.2,0.1-0.3,0.4-0.3h2.5c1.9,0,3-0.4,3-1.6s-1-1.6-2.9-1.6
			c-1.1,0-2,0.1-3.1,0.2c-0.3,0-0.4-0.1-0.4-0.3v-1.4c0-0.2,0.1-0.3,0.3-0.3c1.2-0.3,2.6-0.4,4.1-0.4c3.4,0,5.6,1.5,5.6,3.9
			c0,1.1-0.5,2.2-1.9,3c1.5,0.8,2.1,1.9,2.1,3.2c0,2.5-2.3,4.2-6,4.2c-1.4,0-3-0.1-4.1-0.4c-0.2-0.1-0.3-0.2-0.3-0.3v-1.4
			c0-0.2,0.1-0.3,0.4-0.3c1.1,0.1,2,0.2,3.2,0.2c2,0,3.3-0.4,3.3-1.9c0-1.4-1.1-1.9-3-1.9H45V566.5z"/>
		<path class="st1" d="M54.7,570.5c0-0.2,0.1-0.3,0.3-0.3c0.5,0.1,1.2,0.1,1.8,0.1c1.2,0,1.5-0.5,1.5-1.4v-9.9
			c0-0.2,0.1-0.3,0.3-0.3h10.2c0.3,0,0.4,0.1,0.4,0.3v13.2c0,0.2-0.1,0.3-0.4,0.3h-2.7c-0.3,0-0.4-0.1-0.4-0.3V561h-3.8v6.8
			c0,2.5-0.1,4.8-4.1,4.8c-0.7,0-1.8-0.1-2.4-0.2c-0.3-0.1-0.7-0.2-0.7-0.5V570.5z"/>
		<path class="st1" d="M76.9,560.8c-1,0-1.2,0.3-1.2,1.1v2.2h5.7c0.2,0,0.4,0.1,0.4,0.3v1.8c0,0.2-0.1,0.3-0.4,0.3h-5.7v2.5
			c0,0.8,0.2,1.1,1.2,1.1h5.2c0.2,0,0.3,0.1,0.3,0.3v1.6c0,0.2-0.1,0.3-0.4,0.4c-1.8,0.1-3.7,0.2-6,0.2c-2.9,0-3.8-0.8-3.8-3v-8.4
			c0-2.2,1-3,3.8-3c2.3,0,4.1,0.1,5.8,0.2c0.3,0,0.4,0.1,0.4,0.4v1.4c0,0.2-0.1,0.3-0.3,0.3C81.9,560.8,76.9,560.8,76.9,560.8z"/>
		<path class="st1" d="M84.3,572.4c-0.2,0-0.3-0.1-0.2-0.3l3.1-5.2c-1.6-0.7-2.3-2-2.3-3.7v-0.5c0-2.7,1.5-4.3,5.7-4.3
			c1.6,0,3.4,0.1,4.7,0.4c0.7,0.1,0.9,0.4,0.9,1.1v12.2c0,0.2-0.1,0.3-0.4,0.3h-2.7c-0.3,0-0.4-0.1-0.4-0.3v-4.7
			c-0.7,0-1.4,0.1-2.1,0.1h-0.2l-2.5,4.5c-0.1,0.3-0.4,0.4-0.9,0.4C86.8,572.4,84.3,572.4,84.3,572.4z M92.5,565v-4.1
			c-0.5-0.1-1.2-0.2-1.8-0.2c-2,0-2.6,0.5-2.6,1.9v0.4c0,1.3,0.5,1.9,2.6,1.9C91.3,565.1,91.9,565.1,92.5,565z"/>
	</g>
</g>
</svg>
