<?xml version="1.0" encoding="utf-8"?>
<!-- Generator: Adobe Illustrator 25.2.3, SVG Export Plug-In . SVG Version: 6.00 Build 0)  -->
<svg version="1.1" id="Layer_1" xmlns="http://www.w3.org/2000/svg" xmlns:xlink="http://www.w3.org/1999/xlink" x="0px" y="0px"
	 viewBox="0 0 257.2 175" style="enable-background:new 0 0 257.2 175;" xml:space="preserve">
<style type="text/css">
	.st0{fill:#147BB8;}
</style>
<g>
	<path class="st0" d="M9.5,13.8H7.6v-2.5H6.8L5.5,8.4c0,0-0.1-0.1-0.1-0.2c0-0.1-0.1-0.2-0.3-0.5C4.8,7.2,4.6,6.9,4.5,6.7
		c-0.2-0.2-0.6-0.3-1-0.3v4.9H1.2V0.1h2.3v4.8c0.6-0.1,1-0.3,1.3-0.7C4.8,4.1,5,3.6,5.4,2.7c0.4-1.1,0.9-1.8,1.3-2.2
		C7.1,0.2,7.9,0,9.1,0c0.1,0,0.2,0,0.3,0v1.7l-0.3,0c-0.8,0-1.3,0.2-1.5,0.7C7.4,2.6,7.2,3.1,6.9,3.8c-0.2,0.5-0.3,0.8-0.5,1
		C6.3,5.1,6,5.3,5.6,5.5C6.1,5.7,6.6,6,6.9,6.4C7.2,6.9,7.6,7.5,8,8.2l0.6,1.2h0.9V13.8z"/>
	<path class="st0" d="M17.7,3.2l-3.1,8.2H17v1.4h-2.4v1.7h-2.2v-1.7H10v-1.4h2.4L9.2,3.2h2.3l2,5.8l2-5.8H17.7z"/>
	<path class="st0" d="M18.4,3.2h2v1.2c0.3-0.4,0.6-0.7,1.1-1C21.9,3.1,22.4,3,22.9,3c0.9,0,1.8,0.4,2.4,1.1c0.7,0.7,1,1.8,1,3.1
		c0,1.4-0.3,2.4-1,3.2c-0.7,0.8-1.5,1.1-2.4,1.1c-0.5,0-0.9-0.1-1.2-0.3c-0.4-0.2-0.8-0.5-1.2-0.9v4.1h-2.2V3.2z M20.5,7.1
		c0,0.9,0.2,1.6,0.5,2c0.4,0.4,0.8,0.7,1.3,0.7c0.5,0,0.9-0.2,1.3-0.6c0.3-0.4,0.5-1.1,0.5-2c0-0.9-0.2-1.5-0.5-1.9
		c-0.3-0.4-0.8-0.6-1.3-0.6c-0.5,0-1,0.2-1.3,0.6C20.7,5.7,20.5,6.3,20.5,7.1z"/>
	<path class="st0" d="M29.1,5.7l-2-0.4c0.2-0.8,0.6-1.4,1.1-1.8C28.8,3.2,29.6,3,30.7,3c1,0,1.7,0.1,2.2,0.3c0.5,0.2,0.8,0.5,1,0.9
		c0.2,0.4,0.3,1,0.3,1.9l0,2.5c0,0.7,0,1.2,0.1,1.6c0.1,0.3,0.2,0.7,0.4,1.1h-2.1c-0.1-0.1-0.1-0.4-0.2-0.6c0-0.1-0.1-0.2-0.1-0.3
		c-0.4,0.4-0.8,0.6-1.2,0.8c-0.4,0.2-0.9,0.3-1.3,0.3c-0.8,0-1.5-0.2-2-0.7c-0.5-0.5-0.7-1-0.7-1.7c0-0.5,0.1-0.9,0.3-1.2
		c0.2-0.4,0.5-0.6,0.9-0.8c0.4-0.2,1-0.4,1.7-0.5c1-0.2,1.7-0.4,2.1-0.5V5.8c0-0.4-0.1-0.7-0.3-0.9c-0.2-0.2-0.6-0.3-1.2-0.3
		c-0.4,0-0.7,0.1-0.9,0.2C29.4,5,29.2,5.3,29.1,5.7z M32,7.4c-0.3,0.1-0.7,0.2-1.3,0.3c-0.6,0.1-1,0.3-1.2,0.4
		c-0.3,0.2-0.4,0.5-0.4,0.8c0,0.3,0.1,0.6,0.3,0.8c0.2,0.2,0.5,0.3,0.9,0.3c0.4,0,0.8-0.1,1.1-0.4c0.3-0.2,0.4-0.4,0.5-0.7
		C31.9,8.7,32,8.4,32,7.8V7.4z"/>
	<path class="st0" d="M35.7,3.2h2.7l2,5.7l2-5.7h2.7v8.2h-1.8V6l-2,5.4h-1.8L37.6,6v5.4h-1.8V3.2z"/>
	<path class="st0" d="M46.8,3.2h2.2v3.4h2.2c0.8,0,1.5,0.1,1.9,0.2c0.4,0.1,0.8,0.4,1.1,0.8c0.3,0.4,0.5,0.9,0.5,1.4
		c0,0.8-0.3,1.4-0.8,1.8c-0.5,0.4-1.4,0.6-2.4,0.6h-4.6V3.2z M48.9,10h2c0.5,0,0.9-0.1,1.1-0.2c0.2-0.2,0.4-0.4,0.4-0.8
		c0-0.4-0.2-0.7-0.5-0.8c-0.3-0.1-0.9-0.2-1.6-0.2h-1.4V10z M55.9,3.2H58v8.2h-2.2V3.2z"/>
	<path class="st0" d="M60,5.3V3.2h2.2v2.2H60z M60,11.3V9.2h2.2v2.2H60z"/>
	<path class="st0" d="M68.7,3.2h6.4v8.2h-1.4v-7h-3.7v4.1c0,0.9,0,1.6-0.1,1.9c-0.1,0.3-0.2,0.6-0.5,0.8c-0.3,0.2-0.7,0.3-1.2,0.3
		c-0.3,0-0.7,0-1.1-0.1v-1.2h0.6c0.3,0,0.5,0,0.6-0.1c0.1-0.1,0.2-0.2,0.2-0.3c0-0.1,0.1-0.5,0.1-1.3V3.2z"/>
	<path class="st0" d="M76.7,3.2h1.4v3.4h1.7c0.1-1.2,0.5-2.1,1.1-2.7C81.4,3.3,82.2,3,83.2,3c0.8,0,1.5,0.2,2,0.5
		c0.5,0.3,0.9,0.8,1.2,1.4c0.3,0.6,0.5,1.4,0.5,2.4c0,1.4-0.3,2.5-1,3.2c-0.6,0.7-1.5,1.1-2.6,1.1c-1,0-1.8-0.3-2.4-1
		c-0.6-0.7-1-1.6-1-2.8h-1.7v3.6h-1.4V3.2z M83.3,4.2c-0.7,0-1.2,0.3-1.6,0.8c-0.4,0.5-0.6,1.2-0.6,2.2c0,1.1,0.2,1.9,0.6,2.5
		c0.4,0.5,0.9,0.8,1.5,0.8c0.6,0,1.1-0.2,1.5-0.7c0.4-0.5,0.6-1.3,0.6-2.3c0-1-0.2-1.8-0.5-2.4C84.5,4.4,84,4.2,83.3,4.2z"/>
	<path class="st0" d="M86.8,3.2h6.6v1.1h-2.6v7h-1.4v-7h-2.6V3.2z"/>
	<path class="st0" d="M99.6,8.7l1.4,0.2c-0.2,0.8-0.6,1.5-1.3,1.9c-0.6,0.5-1.4,0.7-2.3,0.7c-1.2,0-2.1-0.4-2.8-1.1
		c-0.7-0.7-1-1.8-1-3.1c0-1.4,0.4-2.4,1.1-3.2C95.4,3.4,96.3,3,97.4,3c1.1,0,2,0.4,2.7,1.1c0.7,0.7,1,1.8,1,3.1c0,0.1,0,0.2,0,0.4
		H95c0.1,0.9,0.3,1.6,0.8,2.1c0.5,0.5,1,0.7,1.7,0.7c0.5,0,0.9-0.1,1.3-0.4C99.1,9.7,99.4,9.3,99.6,8.7z M95.1,6.5h4.6
		c-0.1-0.7-0.2-1.2-0.5-1.5c-0.4-0.5-1-0.8-1.7-0.8c-0.6,0-1.2,0.2-1.6,0.6C95.4,5.2,95.1,5.8,95.1,6.5z"/>
	<path class="st0" d="M102.2,3.2h1.4v6.2l3.8-6.2h1.5v8.2h-1.4V5.2l-3.8,6.2h-1.5V3.2z"/>
	<path class="st0" d="M110.5,3.2h1.4v3.4h3.8V3.2h1.4v8.2h-1.4V7.7h-3.8v3.6h-1.4V3.2z"/>
	<path class="st0" d="M119,11.3V9.8h1.6v1.6c0,0.6-0.1,1-0.3,1.4c-0.2,0.4-0.5,0.6-1,0.8l-0.4-0.6c0.3-0.1,0.5-0.3,0.6-0.6
		c0.1-0.2,0.2-0.6,0.2-1.1H119z"/>
	<path class="st0" d="M128.1,7.6V6.6c0.6,0,1,0,1.2-0.1c0.2,0,0.4-0.2,0.6-0.4c0.2-0.2,0.3-0.5,0.3-0.8c0-0.4-0.1-0.7-0.4-0.9
		c-0.2-0.2-0.6-0.3-1-0.3c-0.8,0-1.3,0.5-1.6,1.4l-1.3-0.2c0.4-1.5,1.4-2.3,3-2.3c0.9,0,1.6,0.2,2,0.7c0.5,0.5,0.7,1,0.7,1.7
		c0,0.7-0.3,1.2-1,1.6c0.4,0.2,0.7,0.5,0.9,0.8c0.2,0.3,0.3,0.7,0.3,1.2c0,0.7-0.3,1.3-0.8,1.8c-0.5,0.5-1.3,0.7-2.2,0.7
		c-1.9,0-2.9-0.8-3.2-2.5l1.3-0.3c0.1,0.5,0.4,0.9,0.7,1.2c0.4,0.3,0.8,0.4,1.2,0.4s0.9-0.1,1.2-0.4c0.3-0.3,0.5-0.6,0.5-1
		c0-0.3-0.1-0.6-0.3-0.8c-0.2-0.2-0.4-0.4-0.6-0.4c-0.2-0.1-0.6-0.1-1.2-0.1C128.3,7.6,128.2,7.6,128.1,7.6z"/>
	<path class="st0" d="M138.3,8.7l1.4,0.2c-0.2,0.8-0.6,1.5-1.3,1.9s-1.4,0.7-2.3,0.7c-1.2,0-2.1-0.4-2.8-1.1c-0.7-0.7-1-1.8-1-3.1
		c0-1.4,0.4-2.4,1.1-3.2C134,3.4,135,3,136.1,3c1.1,0,2,0.4,2.7,1.1c0.7,0.7,1,1.8,1,3.1c0,0.1,0,0.2,0,0.4h-6.1
		c0.1,0.9,0.3,1.6,0.8,2.1c0.5,0.5,1,0.7,1.7,0.7c0.5,0,0.9-0.1,1.3-0.4C137.8,9.7,138.1,9.3,138.3,8.7z M133.8,6.5h4.6
		c-0.1-0.7-0.2-1.2-0.5-1.5c-0.4-0.5-1-0.8-1.7-0.8c-0.6,0-1.2,0.2-1.6,0.6C134.1,5.2,133.8,5.8,133.8,6.5z"/>
	<path class="st0" d="M146.3,10.3c-0.5,0.4-1,0.7-1.5,0.9c-0.5,0.2-1,0.3-1.5,0.3c-0.9,0-1.6-0.2-2.1-0.7c-0.5-0.4-0.7-1-0.7-1.7
		c0-0.4,0.1-0.8,0.3-1.1c0.2-0.3,0.4-0.6,0.7-0.8c0.3-0.2,0.6-0.4,1-0.5c0.3-0.1,0.7-0.1,1.2-0.2c1.1-0.1,1.9-0.3,2.5-0.5
		c0-0.2,0-0.3,0-0.4c0-0.6-0.1-1-0.4-1.2c-0.4-0.3-0.9-0.5-1.6-0.5c-0.6,0-1.1,0.1-1.4,0.3c-0.3,0.2-0.5,0.6-0.7,1.2l-1.4-0.2
		c0.1-0.6,0.3-1,0.6-1.4c0.3-0.4,0.7-0.6,1.2-0.8c0.5-0.2,1.1-0.3,1.9-0.3c0.7,0,1.3,0.1,1.7,0.2c0.4,0.2,0.8,0.4,1,0.6
		c0.2,0.2,0.3,0.6,0.4,0.9c0,0.2,0.1,0.7,0.1,1.3v1.8c0,1.3,0,2.1,0.1,2.4c0.1,0.3,0.2,0.7,0.3,1h-1.4
		C146.4,11,146.3,10.7,146.3,10.3z M146.1,7.2c-0.5,0.2-1.3,0.4-2.3,0.5c-0.6,0.1-1,0.2-1.2,0.3c-0.2,0.1-0.4,0.3-0.5,0.4
		c-0.1,0.2-0.2,0.4-0.2,0.7c0,0.4,0.1,0.7,0.4,0.9c0.3,0.2,0.7,0.4,1.2,0.4c0.5,0,1-0.1,1.4-0.3c0.4-0.2,0.7-0.6,0.9-1
		c0.1-0.3,0.2-0.8,0.2-1.4V7.2z"/>
	<path class="st0" d="M149.1,3.2h1.4v3.5c0.4,0,0.7-0.1,0.9-0.3c0.2-0.2,0.4-0.7,0.8-1.5c0.3-0.6,0.5-1.1,0.7-1.3
		c0.2-0.2,0.4-0.3,0.6-0.4c0.2-0.1,0.6-0.1,1.1-0.1h0.3v1.1l-0.4,0c-0.4,0-0.6,0.1-0.7,0.2c-0.1,0.1-0.3,0.4-0.5,1
		c-0.2,0.5-0.4,0.9-0.6,1.1c-0.2,0.2-0.4,0.4-0.8,0.6c0.6,0.2,1.2,0.7,1.8,1.7l1.5,2.5h-1.5l-1.5-2.5c-0.3-0.5-0.6-0.8-0.8-1
		c-0.2-0.2-0.5-0.2-0.8-0.2v3.8h-1.4V3.2z"/>
	<path class="st0" d="M161,8.3l1.4,0.2c-0.1,0.9-0.5,1.7-1.1,2.2c-0.6,0.5-1.4,0.8-2.3,0.8c-1.1,0-2-0.4-2.7-1.1
		c-0.7-0.7-1-1.8-1-3.1c0-0.9,0.1-1.7,0.4-2.3s0.7-1.2,1.3-1.5s1.2-0.5,1.9-0.5c0.9,0,1.6,0.2,2.2,0.7c0.6,0.4,0.9,1.1,1.1,1.9
		l-1.3,0.2c-0.1-0.5-0.4-1-0.7-1.2c-0.3-0.3-0.7-0.4-1.2-0.4c-0.7,0-1.3,0.2-1.7,0.7c-0.4,0.5-0.7,1.3-0.7,2.4
		c0,1.1,0.2,1.9,0.6,2.4c0.4,0.5,1,0.7,1.6,0.7c0.5,0,1-0.2,1.4-0.5C160.6,9.6,160.9,9,161,8.3z"/>
	<path class="st0" d="M168.3,10.3c-0.5,0.4-1,0.7-1.5,0.9c-0.5,0.2-1,0.3-1.5,0.3c-0.9,0-1.6-0.2-2.1-0.7c-0.5-0.4-0.7-1-0.7-1.7
		c0-0.4,0.1-0.8,0.3-1.1c0.2-0.3,0.4-0.6,0.7-0.8c0.3-0.2,0.6-0.4,1-0.5c0.3-0.1,0.7-0.1,1.2-0.2c1.1-0.1,1.9-0.3,2.5-0.5
		c0-0.2,0-0.3,0-0.4c0-0.6-0.1-1-0.4-1.2c-0.4-0.3-0.9-0.5-1.6-0.5c-0.6,0-1.1,0.1-1.4,0.3c-0.3,0.2-0.5,0.6-0.7,1.2l-1.4-0.2
		c0.1-0.6,0.3-1,0.6-1.4c0.3-0.4,0.7-0.6,1.2-0.8c0.5-0.2,1.1-0.3,1.9-0.3c0.7,0,1.3,0.1,1.7,0.2c0.4,0.2,0.8,0.4,1,0.6
		c0.2,0.2,0.3,0.6,0.4,0.9c0,0.2,0.1,0.7,0.1,1.3v1.8c0,1.3,0,2.1,0.1,2.4c0.1,0.3,0.2,0.7,0.3,1h-1.4
		C168.4,11,168.3,10.7,168.3,10.3z M168.2,7.2c-0.5,0.2-1.3,0.4-2.3,0.5c-0.6,0.1-1,0.2-1.2,0.3c-0.2,0.1-0.4,0.3-0.5,0.4
		C164,8.7,164,8.9,164,9.1c0,0.4,0.1,0.7,0.4,0.9c0.3,0.2,0.7,0.4,1.2,0.4c0.5,0,1-0.1,1.4-0.3c0.4-0.2,0.7-0.6,0.9-1
		c0.1-0.3,0.2-0.8,0.2-1.4V7.2z"/>
	<path class="st0" d="M171.2,3.2h1.4v3.4h3.8V3.2h1.4v8.2h-1.4V7.7h-3.8v3.6h-1.4V3.2z"/>
	<path class="st0" d="M178.5,3.2h6.6v1.1h-2.6v7h-1.4v-7h-2.6V3.2z"/>
	<path class="st0" d="M185.9,3.2h1.4v6.2l3.8-6.2h1.5v8.2h-1.4V5.2l-3.8,6.2h-1.5V3.2z"/>
	<path class="st0" d="M194.2,3.2h1.4v3.4h3.8V3.2h1.4v8.2h-1.4V7.7h-3.8v3.6h-1.4V3.2z"/>
	<path class="st0" d="M202.7,11.3V9.8h1.6v1.6c0,0.6-0.1,1-0.3,1.4c-0.2,0.4-0.5,0.6-1,0.8l-0.4-0.6c0.3-0.1,0.5-0.3,0.6-0.6
		c0.1-0.2,0.2-0.6,0.2-1.1H202.7z"/>
	<path class="st0" d="M0.3,20.9H7V22H4.3v7H3v-7H0.3V20.9z"/>
	<path class="st0" d="M7.7,32.2V20.9H9v1.1c0.3-0.4,0.6-0.7,1-0.9c0.4-0.2,0.8-0.3,1.4-0.3c0.7,0,1.3,0.2,1.8,0.5
		c0.5,0.4,0.9,0.9,1.2,1.5c0.3,0.7,0.4,1.4,0.4,2.1c0,0.8-0.1,1.6-0.4,2.3c-0.3,0.7-0.7,1.2-1.3,1.5c-0.6,0.4-1.2,0.5-1.8,0.5
		c-0.5,0-0.9-0.1-1.2-0.3c-0.4-0.2-0.7-0.4-0.9-0.7v4H7.7z M9,25c0,1,0.2,1.8,0.6,2.3c0.4,0.5,0.9,0.8,1.5,0.8
		c0.6,0,1.1-0.3,1.6-0.8c0.4-0.5,0.7-1.3,0.7-2.4c0-1-0.2-1.8-0.6-2.3c-0.4-0.5-0.9-0.8-1.5-0.8c-0.6,0-1.1,0.3-1.6,0.8
		C9.2,23.1,9,23.9,9,25z"/>
	<path class="st0" d="M15.4,25c0-1.5,0.4-2.6,1.3-3.4c0.7-0.6,1.6-0.9,2.6-0.9c1.1,0,2,0.4,2.7,1.1c0.7,0.7,1.1,1.8,1.1,3
		c0,1-0.2,1.9-0.5,2.5c-0.3,0.6-0.8,1.1-1.4,1.4c-0.6,0.3-1.3,0.5-2,0.5c-1.1,0-2.1-0.4-2.8-1.1C15.8,27.4,15.4,26.3,15.4,25z
		 M16.8,25c0,1,0.2,1.8,0.7,2.3c0.5,0.5,1,0.8,1.7,0.8c0.7,0,1.3-0.3,1.7-0.8c0.5-0.5,0.7-1.3,0.7-2.4c0-1-0.2-1.8-0.7-2.3
		c-0.5-0.5-1-0.8-1.7-0.8c-0.7,0-1.3,0.3-1.7,0.8C17.1,23.1,16.8,23.9,16.8,25z"/>
	<path class="st0" d="M24.1,20.9h1.4v3.5c0.4,0,0.7-0.1,0.9-0.3c0.2-0.2,0.4-0.7,0.8-1.5c0.3-0.6,0.5-1.1,0.7-1.3
		c0.2-0.2,0.4-0.3,0.6-0.4c0.2-0.1,0.6-0.1,1.1-0.1h0.3V22l-0.4,0c-0.4,0-0.6,0.1-0.7,0.2c-0.1,0.1-0.3,0.4-0.5,1
		c-0.2,0.5-0.4,0.9-0.6,1.1c-0.2,0.2-0.4,0.4-0.8,0.6c0.6,0.2,1.2,0.7,1.8,1.7l1.5,2.5h-1.5l-1.5-2.5c-0.3-0.5-0.6-0.8-0.8-1
		c-0.2-0.2-0.5-0.2-0.8-0.2V29h-1.4V20.9z"/>
	<path class="st0" d="M36,26l1.4,0.2c-0.1,0.9-0.5,1.7-1.1,2.2c-0.6,0.5-1.4,0.8-2.3,0.8c-1.1,0-2-0.4-2.7-1.1c-0.7-0.7-1-1.8-1-3.1
		c0-0.9,0.1-1.7,0.4-2.3c0.3-0.7,0.7-1.2,1.3-1.5c0.6-0.3,1.2-0.5,1.9-0.5c0.9,0,1.6,0.2,2.2,0.7c0.6,0.4,0.9,1.1,1.1,1.9l-1.3,0.2
		c-0.1-0.5-0.4-1-0.7-1.2c-0.3-0.3-0.7-0.4-1.2-0.4c-0.7,0-1.3,0.2-1.7,0.7c-0.4,0.5-0.7,1.3-0.7,2.4c0,1.1,0.2,1.9,0.6,2.4
		c0.4,0.5,1,0.7,1.6,0.7c0.5,0,1-0.2,1.4-0.5C35.6,27.2,35.9,26.7,36,26z"/>
	<path class="st0" d="M43.5,26.4l1.4,0.2c-0.2,0.8-0.6,1.5-1.3,1.9c-0.6,0.5-1.4,0.7-2.3,0.7c-1.2,0-2.1-0.4-2.8-1.1
		c-0.7-0.7-1-1.8-1-3.1c0-1.4,0.4-2.4,1.1-3.2c0.7-0.8,1.6-1.1,2.7-1.1c1.1,0,2,0.4,2.7,1.1c0.7,0.7,1,1.8,1,3.1c0,0.1,0,0.2,0,0.4
		h-6.1c0.1,0.9,0.3,1.6,0.8,2.1c0.5,0.5,1,0.7,1.7,0.7c0.5,0,0.9-0.1,1.3-0.4C43,27.4,43.3,27,43.5,26.4z M39,24.2h4.6
		c-0.1-0.7-0.2-1.2-0.5-1.5c-0.4-0.5-1-0.8-1.7-0.8c-0.6,0-1.2,0.2-1.6,0.6C39.3,22.9,39,23.5,39,24.2z"/>
	<path class="st0" d="M46.1,32.2V20.9h1.3v1.1c0.3-0.4,0.6-0.7,1-0.9c0.4-0.2,0.8-0.3,1.4-0.3c0.7,0,1.3,0.2,1.8,0.5
		c0.5,0.4,0.9,0.9,1.2,1.5c0.3,0.7,0.4,1.4,0.4,2.1c0,0.8-0.1,1.6-0.4,2.3s-0.7,1.2-1.3,1.5c-0.6,0.4-1.2,0.5-1.8,0.5
		c-0.5,0-0.9-0.1-1.2-0.3c-0.4-0.2-0.7-0.4-0.9-0.7v4H46.1z M47.4,25c0,1,0.2,1.8,0.6,2.3c0.4,0.5,0.9,0.8,1.5,0.8
		c0.6,0,1.1-0.3,1.6-0.8c0.4-0.5,0.7-1.3,0.7-2.4c0-1-0.2-1.8-0.6-2.3c-0.4-0.5-0.9-0.8-1.5-0.8c-0.6,0-1.1,0.3-1.6,0.8
		C47.6,23.1,47.4,23.9,47.4,25z"/>
	<path class="st0" d="M54.1,32.2l-0.2-1.3c0.3,0.1,0.6,0.1,0.8,0.1c0.3,0,0.6-0.1,0.7-0.2c0.2-0.1,0.3-0.2,0.5-0.4
		c0.1-0.1,0.2-0.5,0.4-1c0-0.1,0.1-0.2,0.1-0.3l-3.1-8.2h1.5l1.7,4.7c0.2,0.6,0.4,1.2,0.6,1.9c0.2-0.6,0.3-1.3,0.6-1.9l1.7-4.8h1.4
		l-3.1,8.3c-0.3,0.9-0.6,1.5-0.8,1.9c-0.2,0.5-0.5,0.8-0.8,1c-0.3,0.2-0.7,0.3-1.1,0.3C54.7,32.3,54.4,32.3,54.1,32.2z"/>
	<path class="st0" d="M60.7,20.9h6.6V22h-2.6v7h-1.4v-7h-2.6V20.9z"/>
	<path class="st0" d="M68.1,20.9h1.4v6.2l3.8-6.2h1.5V29h-1.4v-6.2L69.6,29h-1.5V20.9z"/>
	<path class="st0" d="M76.4,20.9h1.4v3.4h3.8v-3.4H83V29h-1.4v-3.6h-3.8V29h-1.4V20.9z"/>
	<path class="st0" d="M84.9,29v-1.6h1.6V29c0,0.6-0.1,1-0.3,1.4c-0.2,0.4-0.5,0.6-1,0.8l-0.4-0.6c0.3-0.1,0.5-0.3,0.6-0.6
		c0.1-0.2,0.2-0.6,0.2-1.1H84.9z"/>
	<path class="st0" d="M98.1,17.5l1.2,0c-0.1,0.5-0.2,0.9-0.4,1.1c-0.2,0.2-0.4,0.4-0.7,0.4c-0.3,0.1-0.9,0.1-1.7,0.1
		c-1.1,0-1.9,0.1-2.3,0.3c-0.4,0.2-0.7,0.6-0.9,1.1C93.1,21,93,21.7,93,22.4c0.3-0.5,0.8-0.9,1.2-1.2c0.5-0.3,1-0.4,1.6-0.4
		c1.1,0,2,0.4,2.7,1.1c0.7,0.7,1.1,1.7,1.1,3c0,1-0.2,1.7-0.5,2.3c-0.4,0.6-0.8,1.1-1.3,1.4c-0.5,0.3-1.1,0.5-2,0.5
		c-1,0-1.7-0.2-2.3-0.7c-0.5-0.4-0.9-1-1.2-1.7c-0.3-0.7-0.4-1.9-0.4-3.6c0-2.2,0.4-3.6,1.1-4.4c0.7-0.7,1.9-1.1,3.4-1.1
		c0.9,0,1.5,0,1.6,0C98,17.7,98.1,17.6,98.1,17.5z M98,24.9c0-0.8-0.2-1.5-0.6-2.1c-0.4-0.5-1-0.8-1.7-0.8c-0.8,0-1.4,0.3-1.8,0.9
		c-0.4,0.6-0.6,1.3-0.6,2.3c0,0.9,0.2,1.7,0.7,2.2c0.5,0.5,1,0.8,1.7,0.8c0.7,0,1.2-0.3,1.7-0.9C97.8,26.6,98,25.9,98,24.9z"/>
	<path class="st0" d="M105.6,28c-0.5,0.4-1,0.7-1.5,0.9c-0.5,0.2-1,0.3-1.5,0.3c-0.9,0-1.6-0.2-2.1-0.7c-0.5-0.4-0.7-1-0.7-1.7
		c0-0.4,0.1-0.8,0.3-1.1c0.2-0.3,0.4-0.6,0.7-0.8c0.3-0.2,0.6-0.4,1-0.5c0.3-0.1,0.7-0.1,1.2-0.2c1.1-0.1,1.9-0.3,2.5-0.5
		c0-0.2,0-0.3,0-0.4c0-0.6-0.1-1-0.4-1.2c-0.4-0.3-0.9-0.5-1.6-0.5c-0.7,0-1.1,0.1-1.4,0.3c-0.3,0.2-0.5,0.6-0.7,1.2l-1.4-0.2
		c0.1-0.6,0.3-1,0.6-1.4c0.3-0.4,0.7-0.6,1.2-0.8c0.5-0.2,1.1-0.3,1.9-0.3c0.7,0,1.3,0.1,1.7,0.2c0.4,0.2,0.8,0.4,1,0.6
		c0.2,0.2,0.3,0.6,0.4,0.9c0,0.2,0.1,0.7,0.1,1.3v1.8c0,1.3,0,2.1,0.1,2.4c0.1,0.3,0.2,0.7,0.3,1h-1.4
		C105.7,28.7,105.6,28.4,105.6,28z M105.4,24.9c-0.5,0.2-1.3,0.4-2.3,0.5c-0.6,0.1-1,0.2-1.2,0.3c-0.2,0.1-0.4,0.3-0.5,0.4
		c-0.1,0.2-0.2,0.4-0.2,0.7c0,0.4,0.1,0.7,0.4,0.9c0.3,0.2,0.7,0.4,1.2,0.4c0.5,0,1-0.1,1.4-0.3c0.4-0.2,0.7-0.6,0.9-1
		c0.1-0.3,0.2-0.8,0.2-1.4V24.9z"/>
	<path class="st0" d="M109.1,20.9h6.4V29h-1.4v-7h-3.7v4.1c0,0.9,0,1.6-0.1,1.9c-0.1,0.3-0.2,0.6-0.5,0.8c-0.3,0.2-0.7,0.3-1.2,0.3
		c-0.3,0-0.7,0-1.1-0.1v-1.2h0.6c0.3,0,0.5,0,0.6-0.1c0.1-0.1,0.2-0.2,0.2-0.3c0-0.1,0.1-0.5,0.1-1.3V20.9z"/>
	<path class="st0" d="M117.1,20.9h1.4v3.2h1.8c1.1,0,2,0.2,2.6,0.7c0.6,0.4,0.9,1.1,0.9,1.8c0,0.7-0.3,1.3-0.8,1.7
		c-0.5,0.5-1.3,0.7-2.5,0.7h-3.5V20.9z M118.5,27.9h1.5c0.9,0,1.5-0.1,1.9-0.3c0.4-0.2,0.6-0.6,0.6-1c0-0.4-0.1-0.7-0.4-0.9
		c-0.3-0.3-0.9-0.4-1.8-0.4h-1.6V27.9z M124.8,20.9h1.4V29h-1.4V20.9z"/>
	<path class="st0" d="M133.6,31.3h-1.1V29h-0.2l-1.5-2.5c-0.2-0.4-0.5-0.7-0.6-0.9c-0.3-0.3-0.6-0.4-1-0.4V29h-1.4v-8.2h1.4v3.5
		c0.5,0,0.9-0.2,1.1-0.5c0.1-0.1,0.3-0.5,0.6-1.2c0.2-0.5,0.4-0.8,0.5-1c0.2-0.4,0.5-0.6,0.8-0.7c0.2-0.1,0.6-0.1,1.1-0.1h0.3V22
		l-0.4,0c-0.4,0-0.7,0.1-0.8,0.3c-0.1,0.1-0.2,0.4-0.4,0.9c-0.2,0.5-0.4,0.8-0.5,1c-0.2,0.3-0.5,0.5-0.9,0.7
		c0.6,0.2,1.2,0.7,1.8,1.7l0.8,1.4h0.5V31.3z"/>
	<path class="st0" d="M138,20.9h2.2l2.1,6.5l2.4-6.5h2V29h-1.4v-6.6l-2.4,6.6h-1.2l-2.3-6.9V29H138V20.9z"/>
	<path class="st0" d="M153.5,28c-0.5,0.4-1,0.7-1.5,0.9c-0.5,0.2-1,0.3-1.5,0.3c-0.9,0-1.6-0.2-2.1-0.7c-0.5-0.4-0.7-1-0.7-1.7
		c0-0.4,0.1-0.8,0.3-1.1c0.2-0.3,0.4-0.6,0.7-0.8c0.3-0.2,0.6-0.4,1-0.5c0.3-0.1,0.7-0.1,1.2-0.2c1.1-0.1,1.9-0.3,2.5-0.5
		c0-0.2,0-0.3,0-0.4c0-0.6-0.1-1-0.4-1.2c-0.4-0.3-0.9-0.5-1.6-0.5c-0.6,0-1.1,0.1-1.4,0.3c-0.3,0.2-0.5,0.6-0.7,1.2l-1.4-0.2
		c0.1-0.6,0.3-1,0.6-1.4c0.3-0.4,0.7-0.6,1.2-0.8c0.5-0.2,1.1-0.3,1.9-0.3c0.7,0,1.3,0.1,1.7,0.2c0.4,0.2,0.8,0.4,1,0.6
		c0.2,0.2,0.3,0.6,0.4,0.9c0,0.2,0.1,0.7,0.1,1.3v1.8c0,1.3,0,2.1,0.1,2.4c0.1,0.3,0.2,0.7,0.3,1h-1.4
		C153.7,28.7,153.6,28.4,153.5,28z M153.4,24.9c-0.5,0.2-1.3,0.4-2.3,0.5c-0.6,0.1-1,0.2-1.2,0.3c-0.2,0.1-0.4,0.3-0.5,0.4
		c-0.1,0.2-0.2,0.4-0.2,0.7c0,0.4,0.1,0.7,0.4,0.9s0.7,0.4,1.2,0.4c0.5,0,1-0.1,1.4-0.3c0.4-0.2,0.7-0.6,0.9-1
		c0.1-0.3,0.2-0.8,0.2-1.4V24.9z"/>
	<path class="st0" d="M156.4,20.9h1.4v6.2l3.8-6.2h1.5V29h-1.4v-6.2l-3.8,6.2h-1.5V20.9z M161.2,17.8h0.9c-0.1,0.6-0.3,1.1-0.7,1.5
		c-0.4,0.3-0.9,0.5-1.6,0.5c-0.7,0-1.2-0.2-1.6-0.5c-0.4-0.3-0.6-0.8-0.7-1.5h0.9c0.1,0.3,0.2,0.6,0.4,0.8c0.2,0.2,0.5,0.3,0.9,0.3
		c0.4,0,0.7-0.1,0.9-0.2C161,18.4,161.1,18.1,161.2,17.8z"/>
	<path class="st0" d="M164.7,20.9h1.4v3.2h1.8c1.1,0,2,0.2,2.6,0.7c0.6,0.4,0.9,1.1,0.9,1.8c0,0.7-0.3,1.3-0.8,1.7
		c-0.5,0.5-1.3,0.7-2.5,0.7h-3.5V20.9z M166.1,27.9h1.5c0.9,0,1.5-0.1,1.9-0.3s0.6-0.6,0.6-1c0-0.4-0.1-0.7-0.4-0.9
		c-0.3-0.3-0.9-0.4-1.8-0.4h-1.6V27.9z M172.4,20.9h1.4V29h-1.4V20.9z"/>
	<path class="st0" d="M175.8,29v-1.6h1.6V29c0,0.6-0.1,1-0.3,1.4c-0.2,0.4-0.5,0.6-1,0.8l-0.4-0.6c0.3-0.1,0.5-0.3,0.6-0.6
		c0.1-0.2,0.2-0.6,0.2-1.1H175.8z"/>
	<path class="st0" d="M182.5,25c0-1.5,0.4-2.6,1.3-3.4c0.7-0.6,1.6-0.9,2.6-0.9c1.1,0,2,0.4,2.7,1.1c0.7,0.7,1.1,1.8,1.1,3
		c0,1-0.2,1.9-0.5,2.5c-0.3,0.6-0.8,1.1-1.4,1.4c-0.6,0.3-1.3,0.5-2,0.5c-1.1,0-2.1-0.4-2.8-1.1C182.9,27.4,182.5,26.3,182.5,25z
		 M184,25c0,1,0.2,1.8,0.7,2.3c0.5,0.5,1,0.8,1.7,0.8c0.7,0,1.3-0.3,1.7-0.8s0.7-1.3,0.7-2.4c0-1-0.2-1.8-0.7-2.3
		c-0.5-0.5-1-0.8-1.7-0.8c-0.7,0-1.3,0.3-1.7,0.8C184.2,23.1,184,23.9,184,25z"/>
	<path class="st0" d="M191.3,20.9h1.4v3.4h3.8v-3.4h1.4V29h-1.4v-3.6h-3.8V29h-1.4V20.9z"/>
	<path class="st0" d="M199.4,20.9h1.4v3.2h1.8c1.1,0,2,0.2,2.6,0.7c0.6,0.4,0.9,1.1,0.9,1.8c0,0.7-0.3,1.3-0.8,1.7
		c-0.5,0.5-1.3,0.7-2.5,0.7h-3.5V20.9z M200.8,27.9h1.5c0.9,0,1.5-0.1,1.9-0.3c0.4-0.2,0.6-0.6,0.6-1c0-0.4-0.1-0.7-0.4-0.9
		c-0.3-0.3-0.9-0.4-1.8-0.4h-1.6V27.9z M207.1,20.9h1.4V29h-1.4V20.9z"/>
	<path class="st0" d="M217.6,31.3h-1.1V29h-1.1v-3.6h-3.8V29h-1.4v-8.2h1.4v3.4h3.8v-3.4h1.4v7h0.9V31.3z"/>
	<path class="st0" d="M1.1,37.1v-1.6h1.4v1.6H1.1z M1.1,46.7v-8.2h1.4v8.2H1.1z"/>
	<path class="st0" d="M4.1,38.6h1.4v7h3.1v-7H10v7h3.2v-7h1.4v8.2H4.1V38.6z"/>
	<path class="st0" d="M16.1,37.1v-1.6h1.4v1.6H16.1z M16.1,46.7v-8.2h1.4v8.2H16.1z"/>
	<path class="st0" d="M19,38.6h1.4V42h3.8v-3.4h1.4v8.2h-1.4v-3.6h-3.8v3.6H19V38.6z"/>
	<path class="st0" d="M28.3,38.6h5.7v7h0.9V49h-1.1v-2.3h-6.4V49h-1.1v-3.4h0.7C27.8,44.3,28.3,41.9,28.3,38.6z M29.4,39.7
		c-0.1,2.6-0.5,4.6-1.2,5.9h4.4v-5.9H29.4z"/>
	<path class="st0" d="M41.4,44.1l1.4,0.2c-0.2,0.8-0.6,1.5-1.3,1.9c-0.6,0.5-1.4,0.7-2.3,0.7c-1.2,0-2.1-0.4-2.8-1.1
		c-0.7-0.7-1-1.8-1-3.1c0-1.4,0.4-2.4,1.1-3.2c0.7-0.8,1.6-1.1,2.7-1.1c1.1,0,2,0.4,2.7,1.1c0.7,0.7,1,1.8,1,3.1c0,0.1,0,0.2,0,0.4
		h-6.1c0.1,0.9,0.3,1.6,0.8,2.1c0.5,0.5,1,0.7,1.7,0.7c0.5,0,0.9-0.1,1.3-0.4C40.9,45.1,41.2,44.7,41.4,44.1z M36.8,41.9h4.6
		c-0.1-0.7-0.2-1.2-0.5-1.5c-0.4-0.5-1-0.8-1.7-0.8c-0.6,0-1.2,0.2-1.6,0.6C37.1,40.6,36.9,41.2,36.8,41.9z"/>
	<path class="st0" d="M48,35.5h8.9v11.3h-1.5v-9.9h-5.9v9.9H48V35.5z"/>
	<path class="st0" d="M66.6,49.8h-1.3v-3.1h-0.5l-1.9-3.1c-0.5-0.8-0.8-1.3-1-1.5c-0.5-0.5-1-0.7-1.6-0.7v5.3h-1.5V35.5h1.5v4.9
		c0.7,0,1.3-0.2,1.6-0.6c0.2-0.2,0.5-0.8,0.9-1.7c0.3-0.7,0.6-1.3,0.8-1.6c0.5-0.7,1.2-1.1,2.1-1.1c0.6,0,0.9,0,0.9,0v1.3
		c-0.1,0-0.2,0-0.3,0c-0.1,0-0.2,0-0.3,0c-0.5,0-0.9,0.2-1.2,0.5c-0.2,0.2-0.4,0.6-0.6,1.3c-0.3,0.7-0.5,1.2-0.7,1.4
		c-0.3,0.4-0.7,0.7-1.2,1c0.7,0.2,1.4,0.9,2.2,2l1.5,2.4h0.8V49.8z"/>
	<path class="st0" d="M67.4,35.5h8.9v11.3h-1.5v-9.9h-5.9v9.9h-1.5V35.5z"/>
	<path class="st0" d="M78.1,46.7V35.5h2.2l2.7,8c0.2,0.7,0.4,1.3,0.5,1.7c0.1-0.4,0.3-1,0.6-1.8l2.7-7.8h2v11.3h-1.4v-9.4l-3.3,9.4
		h-1.3l-3.3-9.6v9.6H78.1z"/>
	<path class="st0" d="M98.6,49.8h-1.3v-3.1h-0.5l-1.9-3.1c-0.5-0.8-0.8-1.3-1-1.5c-0.5-0.5-1-0.7-1.6-0.7v5.3h-1.5V35.5h1.5v4.9
		c0.7,0,1.3-0.2,1.6-0.6c0.2-0.2,0.5-0.8,0.9-1.7c0.3-0.7,0.6-1.3,0.8-1.6c0.5-0.7,1.2-1.1,2.1-1.1c0.6,0,0.9,0,0.9,0v1.3
		c-0.1,0-0.2,0-0.3,0c-0.1,0-0.2,0-0.3,0c-0.5,0-0.9,0.2-1.2,0.5c-0.2,0.2-0.4,0.6-0.6,1.3c-0.3,0.7-0.5,1.2-0.7,1.4
		c-0.3,0.4-0.7,0.7-1.2,1c0.7,0.2,1.4,0.9,2.2,2l1.5,2.4h0.8V49.8z"/>
	<path class="st0" d="M102.4,42.6c0-1.5,0.4-2.6,1.3-3.4c0.7-0.6,1.6-0.9,2.6-0.9c1.1,0,2,0.4,2.7,1.1c0.7,0.7,1.1,1.8,1.1,3
		c0,1-0.2,1.9-0.5,2.5c-0.3,0.6-0.8,1.1-1.4,1.4c-0.6,0.3-1.3,0.5-2,0.5c-1.1,0-2.1-0.4-2.8-1.1C102.7,45.1,102.4,44,102.4,42.6z
		 M103.8,42.6c0,1,0.2,1.8,0.7,2.3c0.5,0.5,1,0.8,1.7,0.8c0.7,0,1.3-0.3,1.7-0.8c0.5-0.5,0.7-1.3,0.7-2.4c0-1-0.2-1.8-0.7-2.3
		c-0.5-0.5-1-0.8-1.7-0.8c-0.7,0-1.3,0.3-1.7,0.8C104,40.8,103.8,41.6,103.8,42.6z"/>
	<path class="st0" d="M111.1,38.6h2.2l2.1,6.5l2.4-6.5h2v8.2h-1.4v-6.6l-2.4,6.6h-1.2l-2.3-6.9v6.9h-1.4V38.6z"/>
	<path class="st0" d="M127,44.1l1.4,0.2c-0.2,0.8-0.6,1.5-1.3,1.9c-0.6,0.5-1.4,0.7-2.3,0.7c-1.2,0-2.1-0.4-2.8-1.1
		c-0.7-0.7-1-1.8-1-3.1c0-1.4,0.4-2.4,1.1-3.2c0.7-0.8,1.6-1.1,2.7-1.1c1.1,0,2,0.4,2.7,1.1c0.7,0.7,1,1.8,1,3.1c0,0.1,0,0.2,0,0.4
		h-6.1c0.1,0.9,0.3,1.6,0.8,2.1c0.5,0.5,1,0.7,1.7,0.7c0.5,0,0.9-0.1,1.3-0.4C126.5,45.1,126.7,44.7,127,44.1z M122.4,41.9h4.6
		c-0.1-0.7-0.2-1.2-0.5-1.5c-0.4-0.5-1-0.8-1.7-0.8c-0.6,0-1.2,0.2-1.6,0.6C122.7,40.6,122.5,41.2,122.4,41.9z"/>
	<path class="st0" d="M129.6,38.6h4.7v1.1H131v7h-1.4V38.6z"/>
	<path class="st0" d="M139.7,45.7c-0.5,0.4-1,0.7-1.5,0.9c-0.5,0.2-1,0.3-1.5,0.3c-0.9,0-1.6-0.2-2.1-0.7s-0.7-1-0.7-1.7
		c0-0.4,0.1-0.8,0.3-1.1c0.2-0.3,0.4-0.6,0.7-0.8c0.3-0.2,0.6-0.4,1-0.5c0.3-0.1,0.7-0.1,1.2-0.2c1.1-0.1,1.9-0.3,2.5-0.5
		c0-0.2,0-0.3,0-0.4c0-0.6-0.1-1-0.4-1.2c-0.4-0.3-0.9-0.5-1.6-0.5c-0.6,0-1.1,0.1-1.4,0.3c-0.3,0.2-0.5,0.6-0.7,1.2l-1.4-0.2
		c0.1-0.6,0.3-1,0.6-1.4c0.3-0.4,0.7-0.6,1.2-0.8c0.5-0.2,1.1-0.3,1.9-0.3c0.7,0,1.3,0.1,1.7,0.2c0.4,0.2,0.8,0.4,1,0.6
		c0.2,0.2,0.3,0.6,0.4,0.9c0,0.2,0.1,0.7,0.1,1.3v1.8c0,1.3,0,2.1,0.1,2.4c0.1,0.3,0.2,0.7,0.3,1H140
		C139.9,46.4,139.8,46.1,139.7,45.7z M139.6,42.6c-0.5,0.2-1.3,0.4-2.3,0.5c-0.6,0.1-1,0.2-1.2,0.3c-0.2,0.1-0.4,0.3-0.5,0.4
		c-0.1,0.2-0.2,0.4-0.2,0.7c0,0.4,0.1,0.7,0.4,0.9c0.3,0.2,0.7,0.4,1.2,0.4c0.5,0,1-0.1,1.4-0.3c0.4-0.2,0.7-0.6,0.9-1
		c0.1-0.3,0.2-0.8,0.2-1.4V42.6z"/>
	<path class="st0" d="M142.1,43.3V42h4.2v1.4H142.1z"/>
	<path class="st0" d="M146.9,43.8l1.4-0.2c0.2,0.8,0.4,1.3,0.8,1.7c0.4,0.3,0.8,0.5,1.4,0.5c0.6,0,1.2-0.2,1.6-0.7
		c0.4-0.5,0.7-1,0.7-1.7c0-0.6-0.2-1.2-0.6-1.6c-0.4-0.4-0.9-0.6-1.6-0.6c-0.3,0-0.6,0.1-1,0.2l0.2-1.2c0.1,0,0.2,0,0.2,0
		c0.6,0,1.1-0.2,1.6-0.5c0.5-0.3,0.7-0.8,0.7-1.4c0-0.5-0.2-0.9-0.5-1.3c-0.3-0.3-0.8-0.5-1.3-0.5c-0.5,0-1,0.2-1.3,0.5
		s-0.6,0.8-0.7,1.5l-1.4-0.2c0.2-0.9,0.6-1.6,1.2-2.2c0.6-0.5,1.3-0.8,2.2-0.8c0.6,0,1.2,0.1,1.7,0.4c0.5,0.3,0.9,0.6,1.2,1.1
		c0.3,0.5,0.4,0.9,0.4,1.5c0,0.5-0.1,0.9-0.4,1.3c-0.3,0.4-0.6,0.7-1.2,1c0.7,0.2,1.2,0.5,1.6,1c0.4,0.5,0.6,1.1,0.6,1.8
		c0,1-0.4,1.8-1.1,2.5c-0.7,0.7-1.6,1-2.7,1c-1,0-1.8-0.3-2.5-0.9C147.4,45.5,147,44.7,146.9,43.8z"/>
	<path class="st0" d="M155.9,46.7v-1.6h1.6v1.6c0,0.6-0.1,1-0.3,1.4c-0.2,0.4-0.5,0.6-1,0.8l-0.4-0.6c0.3-0.1,0.5-0.3,0.6-0.6
		c0.1-0.2,0.2-0.6,0.2-1.1H155.9z"/>
	<path class="st0" d="M6,59.7c-0.1-0.7-0.3-1.3-0.7-1.8c-0.4-0.5-0.9-0.7-1.5-0.7c-1.1,0-1.7,0.6-1.9,1.7l-1.3-0.2
		c0.1-0.8,0.5-1.4,1-1.9c0.6-0.5,1.3-0.7,2.2-0.7c1.1,0,2,0.4,2.7,1.1c0.7,0.8,1,1.8,1,3.1c0,1.3-0.3,2.4-0.9,3.2
		c-0.6,0.8-1.5,1.2-2.7,1.1c-1,0-1.8-0.3-2.4-0.8c-0.6-0.5-1-1.3-1.1-2.2l1.4-0.2c0.2,1.4,0.9,2,2.1,2c0.7,0,1.2-0.2,1.5-0.7
		c0.4-0.4,0.6-1.1,0.7-2H3.1v-1.1H6z"/>
	<path class="st0" d="M8.6,56.3h1.4v6.2l3.8-6.2h1.5v8.2h-1.4v-6.2L10,64.4H8.6V56.3z M13.3,53.2h0.9c-0.1,0.6-0.3,1.1-0.7,1.5
		c-0.4,0.3-0.9,0.5-1.6,0.5c-0.7,0-1.2-0.2-1.6-0.5c-0.4-0.3-0.6-0.8-0.7-1.5h0.9c0.1,0.3,0.2,0.6,0.4,0.8c0.2,0.2,0.5,0.3,0.9,0.3
		c0.4,0,0.7-0.1,0.9-0.2C13.1,53.8,13.3,53.5,13.3,53.2z"/>
	<path class="st0" d="M16.8,56.3h1.4v3.5c0.4,0,0.7-0.1,0.9-0.3c0.2-0.2,0.4-0.7,0.8-1.5c0.3-0.6,0.5-1.1,0.7-1.3
		c0.2-0.2,0.4-0.3,0.6-0.4c0.2-0.1,0.6-0.1,1.1-0.1h0.3v1.1l-0.4,0c-0.4,0-0.6,0.1-0.7,0.2c-0.1,0.1-0.3,0.4-0.5,1
		c-0.2,0.5-0.4,0.9-0.6,1.1c-0.2,0.2-0.4,0.4-0.8,0.6c0.6,0.2,1.2,0.7,1.8,1.7l1.5,2.5h-1.5l-1.5-2.5c-0.3-0.5-0.6-0.8-0.8-1
		c-0.2-0.2-0.5-0.2-0.8-0.2v3.8h-1.4V56.3z"/>
	<path class="st0" d="M22.8,60.3c0-1.5,0.4-2.6,1.3-3.4c0.7-0.6,1.6-0.9,2.6-0.9c1.1,0,2,0.4,2.7,1.1c0.7,0.7,1.1,1.8,1.1,3
		c0,1-0.2,1.9-0.5,2.5c-0.3,0.6-0.8,1.1-1.4,1.4c-0.6,0.3-1.3,0.5-2,0.5c-1.1,0-2.1-0.4-2.8-1.1C23.1,62.8,22.8,61.7,22.8,60.3z
		 M24.2,60.3c0,1,0.2,1.8,0.7,2.3c0.5,0.5,1,0.8,1.7,0.8c0.7,0,1.3-0.3,1.7-0.8c0.5-0.5,0.7-1.3,0.7-2.4c0-1-0.2-1.8-0.7-2.3
		c-0.5-0.5-1-0.8-1.7-0.8c-0.7,0-1.3,0.3-1.7,0.8C24.4,58.5,24.2,59.3,24.2,60.3z"/>
	<path class="st0" d="M33.1,60.7v-1.1c0.6,0,1,0,1.2-0.1c0.2,0,0.4-0.2,0.6-0.4c0.2-0.2,0.3-0.5,0.3-0.8c0-0.4-0.1-0.7-0.4-0.9
		c-0.2-0.2-0.6-0.3-1-0.3c-0.8,0-1.3,0.5-1.6,1.4l-1.3-0.2c0.4-1.5,1.4-2.3,3-2.3c0.9,0,1.6,0.2,2,0.7c0.5,0.5,0.7,1,0.7,1.7
		c0,0.7-0.3,1.2-1,1.6c0.4,0.2,0.7,0.5,0.9,0.8c0.2,0.3,0.3,0.7,0.3,1.2c0,0.7-0.3,1.3-0.8,1.8c-0.5,0.5-1.3,0.7-2.2,0.7
		c-1.9,0-2.9-0.8-3.2-2.5l1.3-0.3c0.1,0.5,0.4,0.9,0.7,1.2c0.4,0.3,0.8,0.4,1.2,0.4c0.5,0,0.9-0.1,1.2-0.4c0.3-0.3,0.5-0.6,0.5-1
		c0-0.3-0.1-0.6-0.3-0.8c-0.2-0.2-0.4-0.4-0.6-0.4c-0.2-0.1-0.6-0.1-1.2-0.1C33.4,60.7,33.3,60.7,33.1,60.7z"/>
	<path class="st0" d="M43.3,63.4c-0.5,0.4-1,0.7-1.5,0.9c-0.5,0.2-1,0.3-1.5,0.3c-0.9,0-1.6-0.2-2.1-0.7c-0.5-0.4-0.7-1-0.7-1.7
		c0-0.4,0.1-0.8,0.3-1.1c0.2-0.3,0.4-0.6,0.7-0.8c0.3-0.2,0.6-0.4,1-0.5c0.3-0.1,0.7-0.1,1.2-0.2c1.1-0.1,1.9-0.3,2.5-0.5
		c0-0.2,0-0.3,0-0.4c0-0.6-0.1-1-0.4-1.2c-0.4-0.3-0.9-0.5-1.6-0.5c-0.7,0-1.1,0.1-1.4,0.3c-0.3,0.2-0.5,0.6-0.7,1.2l-1.4-0.2
		c0.1-0.6,0.3-1,0.6-1.4c0.3-0.4,0.7-0.6,1.2-0.8c0.5-0.2,1.1-0.3,1.9-0.3c0.7,0,1.3,0.1,1.7,0.2c0.4,0.2,0.8,0.4,1,0.6
		c0.2,0.2,0.3,0.6,0.4,0.9c0,0.2,0.1,0.7,0.1,1.3V61c0,1.3,0,2.1,0.1,2.4c0.1,0.3,0.2,0.7,0.3,1h-1.4C43.4,64.1,43.3,63.8,43.3,63.4
		z M43.2,60.3c-0.5,0.2-1.3,0.4-2.3,0.5c-0.6,0.1-1,0.2-1.2,0.3c-0.2,0.1-0.4,0.3-0.5,0.4C39,61.8,39,62,39,62.2
		c0,0.4,0.1,0.7,0.4,0.9c0.3,0.2,0.7,0.4,1.2,0.4c0.5,0,1-0.1,1.4-0.3c0.4-0.2,0.7-0.6,0.9-1c0.1-0.3,0.2-0.8,0.2-1.4V60.3z"/>
	<path class="st0" d="M46.2,56.3h6.4v8.2h-1.4v-7h-3.7v7h-1.4V56.3z"/>
	<path class="st0" d="M59.7,61.8l1.4,0.2c-0.2,0.8-0.6,1.5-1.3,1.9c-0.6,0.5-1.4,0.7-2.3,0.7c-1.2,0-2.1-0.4-2.8-1.1
		c-0.7-0.7-1-1.8-1-3.1c0-1.4,0.4-2.4,1.1-3.2c0.7-0.8,1.6-1.1,2.7-1.1c1.1,0,2,0.4,2.7,1.1c0.7,0.7,1,1.8,1,3.1c0,0.1,0,0.2,0,0.4
		h-6.1c0.1,0.9,0.3,1.6,0.8,2.1c0.5,0.5,1,0.7,1.7,0.7c0.5,0,0.9-0.1,1.3-0.4C59.2,62.8,59.5,62.4,59.7,61.8z M55.2,59.6h4.6
		c-0.1-0.7-0.2-1.2-0.5-1.5c-0.4-0.5-1-0.8-1.7-0.8c-0.6,0-1.2,0.2-1.6,0.6C55.5,58.3,55.2,58.8,55.2,59.6z"/>
	<path class="st0" d="M62.3,56.3h1.4v3.4h3.8v-3.4h1.4v8.2h-1.4v-3.6h-3.8v3.6h-1.4V56.3z"/>
	<path class="st0" d="M69.7,56.3h6.6v1.1h-2.6v7h-1.4v-7h-2.6V56.3z"/>
	<path class="st0" d="M82.3,63.4c-0.5,0.4-1,0.7-1.5,0.9c-0.5,0.2-1,0.3-1.5,0.3c-0.9,0-1.6-0.2-2.1-0.7c-0.5-0.4-0.7-1-0.7-1.7
		c0-0.4,0.1-0.8,0.3-1.1c0.2-0.3,0.4-0.6,0.7-0.8c0.3-0.2,0.6-0.4,1-0.5c0.3-0.1,0.7-0.1,1.2-0.2c1.1-0.1,1.9-0.3,2.5-0.5
		c0-0.2,0-0.3,0-0.4c0-0.6-0.1-1-0.4-1.2c-0.4-0.3-0.9-0.5-1.6-0.5c-0.7,0-1.1,0.1-1.4,0.3c-0.3,0.2-0.5,0.6-0.7,1.2l-1.4-0.2
		c0.1-0.6,0.3-1,0.6-1.4c0.3-0.4,0.7-0.6,1.2-0.8c0.5-0.2,1.1-0.3,1.9-0.3c0.7,0,1.3,0.1,1.7,0.2c0.4,0.2,0.8,0.4,1,0.6
		c0.2,0.2,0.3,0.6,0.4,0.9c0,0.2,0.1,0.7,0.1,1.3V61c0,1.3,0,2.1,0.1,2.4c0.1,0.3,0.2,0.7,0.3,1h-1.4C82.4,64.1,82.3,63.8,82.3,63.4
		z M82.2,60.3c-0.5,0.2-1.3,0.4-2.3,0.5c-0.6,0.1-1,0.2-1.2,0.3c-0.2,0.1-0.4,0.3-0.5,0.4C78,61.8,78,62,78,62.2
		c0,0.4,0.1,0.7,0.4,0.9c0.3,0.2,0.7,0.4,1.2,0.4c0.5,0,1-0.1,1.4-0.3c0.4-0.2,0.7-0.6,0.9-1c0.1-0.3,0.2-0.8,0.2-1.4V60.3z"/>
	<path class="st0" d="M90.7,61.8l1.4,0.2c-0.2,0.8-0.6,1.5-1.3,1.9c-0.6,0.5-1.4,0.7-2.3,0.7c-1.2,0-2.1-0.4-2.8-1.1
		c-0.7-0.7-1-1.8-1-3.1c0-1.4,0.4-2.4,1.1-3.2c0.7-0.8,1.6-1.1,2.7-1.1c1.1,0,2,0.4,2.7,1.1c0.7,0.7,1,1.8,1,3.1c0,0.1,0,0.2,0,0.4
		h-6.1c0.1,0.9,0.3,1.6,0.8,2.1c0.5,0.5,1,0.7,1.7,0.7c0.5,0,0.9-0.1,1.3-0.4C90.2,62.8,90.5,62.4,90.7,61.8z M86.2,59.6h4.6
		c-0.1-0.7-0.2-1.2-0.5-1.5c-0.4-0.5-1-0.8-1.7-0.8c-0.6,0-1.2,0.2-1.6,0.6C86.5,58.3,86.2,58.8,86.2,59.6z"/>
	<path class="st0" d="M93.3,56.3h1.4v3.4h3.8v-3.4h1.4v8.2h-1.4v-3.6h-3.8v3.6h-1.4V56.3z"/>
	<path class="st0" d="M111.1,66.7h-1.1v-2.3h-0.2l-1.5-2.5c-0.2-0.4-0.5-0.7-0.6-0.9c-0.3-0.3-0.6-0.4-1-0.4v3.8h-1.4v-8.2h1.4v3.5
		c0.5,0,0.9-0.2,1.1-0.5c0.1-0.1,0.3-0.5,0.6-1.2c0.2-0.5,0.4-0.8,0.5-1c0.2-0.4,0.5-0.6,0.8-0.7c0.2-0.1,0.6-0.1,1.1-0.1h0.3v1.1
		l-0.4,0c-0.4,0-0.7,0.1-0.8,0.3c-0.1,0.1-0.2,0.4-0.4,0.9c-0.2,0.5-0.4,0.8-0.5,1c-0.2,0.3-0.5,0.5-0.9,0.7
		c0.6,0.2,1.2,0.7,1.8,1.7l0.8,1.4h0.5V66.7z"/>
	<path class="st0" d="M111.7,56.3h1.4v3.2h1.8c1.1,0,2,0.2,2.6,0.7c0.6,0.4,0.9,1.1,0.9,1.8c0,0.7-0.3,1.3-0.8,1.7s-1.3,0.7-2.5,0.7
		h-3.5V56.3z M113,63.3h1.5c0.9,0,1.5-0.1,1.9-0.3c0.4-0.2,0.6-0.6,0.6-1c0-0.4-0.1-0.7-0.4-0.9c-0.3-0.3-0.9-0.4-1.8-0.4H113V63.3z
		 M119.4,56.3h1.4v8.2h-1.4V56.3z"/>
	<path class="st0" d="M122.4,56.3h1.4v7h3.1v-7h1.4v7h3.2v-7h1.4v8.2h-10.4V56.3z"/>
	<path class="st0" d="M140.2,66.7h-1.1v-2.3h-0.2l-1.5-2.5c-0.2-0.4-0.5-0.7-0.6-0.9c-0.3-0.3-0.6-0.4-1-0.4v3.8h-1.4v-8.2h1.4v3.5
		c0.5,0,0.9-0.2,1.1-0.5c0.1-0.1,0.3-0.5,0.6-1.2c0.2-0.5,0.4-0.8,0.5-1c0.2-0.4,0.5-0.6,0.8-0.7c0.2-0.1,0.6-0.1,1.1-0.1h0.3v1.1
		l-0.4,0c-0.4,0-0.7,0.1-0.8,0.3c-0.1,0.1-0.2,0.4-0.4,0.9c-0.2,0.5-0.4,0.8-0.5,1c-0.2,0.3-0.5,0.5-0.9,0.7
		c0.6,0.2,1.2,0.7,1.8,1.7l0.8,1.4h0.5V66.7z"/>
	<path class="st0" d="M140.8,56.3h1.4v3.2h1.8c1.1,0,2,0.2,2.6,0.7c0.6,0.4,0.9,1.1,0.9,1.8c0,0.7-0.3,1.3-0.8,1.7
		c-0.5,0.5-1.3,0.7-2.5,0.7h-3.5V56.3z M142.2,63.3h1.5c0.9,0,1.5-0.1,1.9-0.3c0.4-0.2,0.6-0.6,0.6-1c0-0.4-0.1-0.7-0.4-0.9
		c-0.3-0.3-0.9-0.4-1.8-0.4h-1.6V63.3z M148.5,56.3h1.4v8.2h-1.4V56.3z"/>
	<path class="st0" d="M152.2,56.3h6.4v8.2h-1.4v-7h-3.7v4.1c0,0.9,0,1.6-0.1,1.9c-0.1,0.3-0.2,0.6-0.5,0.8c-0.3,0.2-0.7,0.3-1.2,0.3
		c-0.3,0-0.7,0-1.1-0.1v-1.2h0.6c0.3,0,0.5,0,0.6-0.1c0.1-0.1,0.2-0.2,0.2-0.3c0-0.1,0.1-0.5,0.1-1.3V56.3z"/>
	<path class="st0" d="M160.2,56.3h1.4v3.2h1.8c1.1,0,2,0.2,2.6,0.7c0.6,0.4,0.9,1.1,0.9,1.8c0,0.7-0.3,1.3-0.8,1.7
		c-0.5,0.5-1.3,0.7-2.5,0.7h-3.5V56.3z M161.6,63.3h1.5c0.9,0,1.5-0.1,1.9-0.3c0.4-0.2,0.6-0.6,0.6-1c0-0.4-0.1-0.7-0.4-0.9
		c-0.3-0.3-0.9-0.4-1.8-0.4h-1.6V63.3z M167.9,56.3h1.4v8.2h-1.4V56.3z"/>
	<path class="st0" d="M177.4,67.7c-0.8-1-1.4-2.1-1.9-3.4c-0.5-1.3-0.8-2.6-0.8-4c0-1.2,0.2-2.4,0.6-3.5c0.5-1.3,1.2-2.6,2.1-3.9h1
		c-0.6,1.1-1,1.8-1.2,2.3c-0.3,0.7-0.6,1.4-0.7,2.2c-0.2,1-0.3,1.9-0.3,2.9c0,2.5,0.8,4.9,2.3,7.4H177.4z"/>
	<path class="st0" d="M187.2,57.9c-0.1-1.1-0.4-2-1-2.7c-0.6-0.7-1.5-1-2.6-1c-1.6,0-2.6,0.8-3.1,2.4l-1.5-0.4
		c0.3-1,0.8-1.8,1.6-2.4c0.8-0.6,1.8-0.9,2.9-0.9c1.1,0,2.1,0.3,2.9,0.8c0.8,0.5,1.4,1.2,1.8,2.1c0.4,0.8,0.6,1.8,0.6,2.8
		c0.1,1.7-0.3,3.1-1.2,4.2s-2.2,1.7-4,1.7c-2.5,0-4.1-1.2-4.7-3.7l1.4-0.4c0.5,1.9,1.6,2.9,3.4,2.9c1,0,1.8-0.4,2.5-1.1
		c0.6-0.7,1-1.7,1.1-3h-4.2v-1.3H187.2z"/>
	<path class="st0" d="M190.4,53.2h8.9v11.3h-1.5v-9.9h-5.9v9.9h-1.5V53.2z"/>
	<path class="st0" d="M209,67.5h-1.3v-3.1h-0.5l-1.9-3.1c-0.5-0.8-0.8-1.3-1-1.5c-0.5-0.5-1-0.7-1.6-0.7v5.3h-1.5V53.2h1.5v4.9
		c0.7,0,1.3-0.2,1.6-0.6c0.2-0.2,0.5-0.8,0.9-1.7c0.3-0.7,0.6-1.3,0.8-1.6c0.5-0.7,1.2-1.1,2.1-1.1c0.6,0,0.9,0,0.9,0v1.3
		c-0.1,0-0.2,0-0.3,0c-0.1,0-0.2,0-0.3,0c-0.5,0-0.9,0.2-1.2,0.5c-0.2,0.2-0.4,0.6-0.6,1.3c-0.3,0.7-0.5,1.2-0.7,1.4
		c-0.3,0.4-0.7,0.7-1.2,1c0.7,0.2,1.4,0.9,2.2,2l1.5,2.4h0.8V67.5z"/>
	<path class="st0" d="M210.4,67.7h-1c1.5-2.5,2.3-4.9,2.3-7.4c0-1-0.1-1.9-0.3-2.9c-0.2-0.8-0.4-1.5-0.7-2.2
		c-0.2-0.5-0.6-1.2-1.2-2.3h1c1,1.3,1.7,2.6,2.1,3.9c0.4,1.1,0.6,2.3,0.6,3.5c0,1.4-0.3,2.7-0.8,4C211.8,65.6,211.2,66.8,210.4,67.7
		z"/>
	<path class="st0" d="M6,74v3.5c0.4,0,0.7-0.1,0.9-0.3c0.2-0.2,0.4-0.7,0.8-1.5C8,75,8.3,74.5,8.6,74.3C8.8,74.1,9.2,74,9.8,74h0.5
		v1.1l-0.4,0c-0.4,0-0.6,0.1-0.7,0.2c-0.1,0.1-0.3,0.4-0.5,1c-0.2,0.5-0.4,0.9-0.6,1.1c-0.2,0.2-0.4,0.4-0.8,0.6
		c0.6,0.2,1.2,0.7,1.8,1.7l1.5,2.5H9.1l-1.5-2.5c-0.3-0.5-0.6-0.8-0.8-1c-0.2-0.2-0.5-0.2-0.8-0.2v3.8H4.6v-3.8
		c-0.3,0-0.6,0.1-0.8,0.2c-0.2,0.2-0.5,0.5-0.8,1l-1.5,2.5H0l1.5-2.5c0.6-0.9,1.2-1.5,1.8-1.7c-0.4-0.2-0.7-0.4-0.9-0.6
		c-0.2-0.2-0.4-0.8-0.7-1.6c-0.1-0.3-0.2-0.5-0.4-0.5c-0.1-0.1-0.3-0.1-0.6-0.1c-0.1,0-0.2,0-0.4,0V74h0.2c0.5,0,0.9,0,1.1,0.1
		c0.2,0.1,0.4,0.2,0.6,0.4c0.2,0.2,0.4,0.6,0.7,1.3c0.3,0.8,0.6,1.3,0.8,1.5c0.2,0.2,0.5,0.3,0.9,0.3V74H6z"/>
	<path class="st0" d="M18.2,78c0,1.3-0.3,2.3-0.9,3.1c-0.7,0.8-1.6,1.3-2.9,1.3c-1.2,0-2.1-0.4-2.8-1.3c-0.6-0.8-0.9-1.8-0.9-3
		c0-0.1,0-0.2,0-0.4h6.1c0-0.8-0.3-1.4-0.7-1.9c-0.4-0.6-1-0.8-1.8-0.8c-1,0-1.8,0.6-2.2,1.7l-1.4-0.2c0.5-1.8,1.7-2.6,3.6-2.6
		c1.3,0,2.2,0.4,2.9,1.2C17.9,75.7,18.2,76.7,18.2,78z M16.7,78.8h-4.6c0.1,0.7,0.2,1.2,0.5,1.5c0.4,0.5,1,0.8,1.7,0.8
		c0.7,0,1.2-0.2,1.6-0.7C16.4,80.1,16.6,79.5,16.7,78.8z"/>
	<path class="st0" d="M19.3,74h1.4v3.4h3.8V74h1.4v8.2h-1.4v-3.6h-3.8v3.6h-1.4V74z"/>
	<path class="st0" d="M33,79.5l1.4,0.2c-0.2,0.8-0.6,1.5-1.3,1.9c-0.6,0.5-1.4,0.7-2.3,0.7c-1.2,0-2.1-0.4-2.8-1.1
		c-0.7-0.7-1-1.8-1-3.1c0-1.4,0.4-2.4,1.1-3.2c0.7-0.8,1.6-1.1,2.7-1.1c1.1,0,2,0.4,2.7,1.1c0.7,0.7,1,1.8,1,3.1c0,0.1,0,0.2,0,0.4
		h-6.1c0.1,0.9,0.3,1.6,0.8,2.1c0.5,0.5,1,0.7,1.7,0.7c0.5,0,0.9-0.1,1.3-0.4C32.5,80.5,32.8,80.1,33,79.5z M28.4,77.3H33
		c-0.1-0.7-0.2-1.2-0.5-1.5c-0.4-0.5-1-0.8-1.7-0.8c-0.6,0-1.2,0.2-1.6,0.6C28.7,76,28.5,76.5,28.4,77.3z"/>
	<path class="st0" d="M40.5,74h5.7v7h0.9v3.4h-1.1v-2.3h-6.4v2.3h-1.1V81h0.7C40.1,79.7,40.5,77.3,40.5,74z M41.6,75.1
		c-0.1,2.6-0.5,4.6-1.2,5.9h4.4v-5.9H41.6z"/>
	<path class="st0" d="M47.5,78c0-1.5,0.4-2.6,1.3-3.4c0.7-0.6,1.6-0.9,2.6-0.9c1.1,0,2,0.4,2.7,1.1c0.7,0.7,1.1,1.8,1.1,3
		c0,1-0.2,1.9-0.5,2.5c-0.3,0.6-0.8,1.1-1.4,1.4c-0.6,0.3-1.3,0.5-2,0.5c-1.1,0-2.1-0.4-2.8-1.1C47.9,80.5,47.5,79.4,47.5,78z
		 M48.9,78c0,1,0.2,1.8,0.7,2.3c0.5,0.5,1,0.8,1.7,0.8c0.7,0,1.3-0.3,1.7-0.8c0.5-0.5,0.7-1.3,0.7-2.4c0-1-0.2-1.8-0.7-2.3
		c-0.5-0.5-1-0.8-1.7-0.8c-0.7,0-1.3,0.3-1.7,0.8C49.2,76.2,48.9,77,48.9,78z"/>
	<path class="st0" d="M56.2,74h1.4v3.5c0.4,0,0.7-0.1,0.9-0.3c0.2-0.2,0.4-0.7,0.8-1.5c0.3-0.6,0.5-1.1,0.7-1.3
		c0.2-0.2,0.4-0.3,0.6-0.4c0.2-0.1,0.6-0.1,1.1-0.1h0.3v1.1l-0.4,0c-0.4,0-0.6,0.1-0.7,0.2c-0.1,0.1-0.3,0.4-0.5,1
		c-0.2,0.5-0.4,0.9-0.6,1.1c-0.2,0.2-0.4,0.4-0.8,0.6c0.6,0.2,1.2,0.7,1.8,1.7l1.5,2.5h-1.5l-1.5-2.5c-0.3-0.5-0.6-0.8-0.8-1
		c-0.2-0.2-0.5-0.2-0.8-0.2v3.8h-1.4V74z"/>
	<path class="st0" d="M62.2,78c0-1.5,0.4-2.6,1.3-3.4c0.7-0.6,1.6-0.9,2.6-0.9c1.1,0,2,0.4,2.7,1.1c0.7,0.7,1.1,1.8,1.1,3
		c0,1-0.2,1.9-0.5,2.5c-0.3,0.6-0.8,1.1-1.4,1.4c-0.6,0.3-1.3,0.5-2,0.5c-1.1,0-2.1-0.4-2.8-1.1C62.6,80.5,62.2,79.4,62.2,78z
		 M63.6,78c0,1,0.2,1.8,0.7,2.3c0.5,0.5,1,0.8,1.7,0.8c0.7,0,1.3-0.3,1.7-0.8c0.5-0.5,0.7-1.3,0.7-2.4c0-1-0.2-1.8-0.7-2.3
		c-0.5-0.5-1-0.8-1.7-0.8c-0.7,0-1.3,0.3-1.7,0.8C63.9,76.2,63.6,77,63.6,78z"/>
	<path class="st0" d="M72.6,78.4v-1.1c0.6,0,1,0,1.2-0.1c0.2,0,0.4-0.2,0.6-0.4c0.2-0.2,0.3-0.5,0.3-0.8c0-0.4-0.1-0.7-0.4-0.9
		c-0.2-0.2-0.6-0.3-1-0.3c-0.8,0-1.3,0.5-1.6,1.4l-1.3-0.2c0.4-1.5,1.4-2.3,3-2.3c0.9,0,1.6,0.2,2,0.7c0.5,0.5,0.7,1,0.7,1.7
		c0,0.7-0.3,1.2-1,1.6c0.4,0.2,0.7,0.5,0.9,0.8c0.2,0.3,0.3,0.7,0.3,1.2c0,0.7-0.3,1.3-0.8,1.8c-0.5,0.5-1.3,0.7-2.2,0.7
		c-1.9,0-2.9-0.8-3.2-2.5l1.3-0.3c0.1,0.5,0.4,0.9,0.7,1.2c0.4,0.3,0.8,0.4,1.2,0.4c0.5,0,0.9-0.1,1.2-0.4c0.3-0.3,0.5-0.6,0.5-1
		c0-0.3-0.1-0.6-0.3-0.8c-0.2-0.2-0.4-0.4-0.6-0.4c-0.2-0.1-0.6-0.1-1.2-0.1C72.8,78.4,72.7,78.4,72.6,78.4z"/>
	<path class="st0" d="M82.7,81.1c-0.5,0.4-1,0.7-1.5,0.9c-0.5,0.2-1,0.3-1.5,0.3c-0.9,0-1.6-0.2-2.1-0.7c-0.5-0.4-0.7-1-0.7-1.7
		c0-0.4,0.1-0.8,0.3-1.1c0.2-0.3,0.4-0.6,0.7-0.8c0.3-0.2,0.6-0.4,1-0.5c0.3-0.1,0.7-0.1,1.2-0.2c1.1-0.1,1.9-0.3,2.5-0.5
		c0-0.2,0-0.3,0-0.4c0-0.6-0.1-1-0.4-1.2c-0.4-0.3-0.9-0.5-1.6-0.5c-0.7,0-1.1,0.1-1.4,0.3c-0.3,0.2-0.5,0.6-0.7,1.2l-1.4-0.2
		c0.1-0.6,0.3-1,0.6-1.4c0.3-0.4,0.7-0.6,1.2-0.8c0.5-0.2,1.1-0.3,1.9-0.3c0.7,0,1.3,0.1,1.7,0.2c0.4,0.2,0.8,0.4,1,0.6
		c0.2,0.2,0.3,0.6,0.4,0.9c0,0.2,0.1,0.7,0.1,1.3v1.8c0,1.3,0,2.1,0.1,2.4c0.1,0.3,0.2,0.7,0.3,1H83C82.9,81.8,82.8,81.5,82.7,81.1z
		 M82.6,78c-0.5,0.2-1.3,0.4-2.3,0.5c-0.6,0.1-1,0.2-1.2,0.3c-0.2,0.1-0.4,0.3-0.5,0.4c-0.1,0.2-0.2,0.4-0.2,0.7
		c0,0.4,0.1,0.7,0.4,0.9c0.3,0.2,0.7,0.4,1.2,0.4c0.5,0,1-0.1,1.4-0.3c0.4-0.2,0.7-0.6,0.9-1c0.1-0.3,0.2-0.8,0.2-1.4V78z"/>
	<path class="st0" d="M85.6,74h4.7v1.1H87v7h-1.4V74z"/>
	<path class="st0" d="M96,79.5l1.4,0.2c-0.2,0.8-0.6,1.5-1.3,1.9c-0.6,0.5-1.4,0.7-2.3,0.7c-1.2,0-2.1-0.4-2.8-1.1
		c-0.7-0.7-1-1.8-1-3.1c0-1.4,0.4-2.4,1.1-3.2c0.7-0.8,1.6-1.1,2.7-1.1c1.1,0,2,0.4,2.7,1.1c0.7,0.7,1,1.8,1,3.1c0,0.1,0,0.2,0,0.4
		h-6.1c0.1,0.9,0.3,1.6,0.8,2.1c0.5,0.5,1,0.7,1.7,0.7c0.5,0,0.9-0.1,1.3-0.4C95.5,80.5,95.8,80.1,96,79.5z M91.5,77.3H96
		c-0.1-0.7-0.2-1.2-0.5-1.5c-0.4-0.5-1-0.8-1.7-0.8c-0.6,0-1.2,0.2-1.6,0.6C91.8,76,91.5,76.5,91.5,77.3z"/>
	<path class="st0" d="M98.6,74h1.4v3.5c0.4,0,0.7-0.1,0.9-0.3c0.2-0.2,0.4-0.7,0.8-1.5c0.3-0.6,0.5-1.1,0.7-1.3
		c0.2-0.2,0.4-0.3,0.6-0.4c0.2-0.1,0.6-0.1,1.1-0.1h0.3v1.1l-0.4,0c-0.4,0-0.6,0.1-0.7,0.2c-0.1,0.1-0.3,0.4-0.5,1
		c-0.2,0.5-0.4,0.9-0.6,1.1c-0.2,0.2-0.4,0.4-0.8,0.6c0.6,0.2,1.2,0.7,1.8,1.7l1.5,2.5h-1.5l-1.5-2.5c-0.3-0.5-0.6-0.8-0.8-1
		c-0.2-0.2-0.5-0.2-0.8-0.2v3.8h-1.4V74z"/>
	<path class="st0" d="M110.5,79.1l1.4,0.2c-0.1,0.9-0.5,1.7-1.1,2.2c-0.6,0.5-1.4,0.8-2.3,0.8c-1.1,0-2-0.4-2.7-1.1
		c-0.7-0.7-1-1.8-1-3.1c0-0.9,0.1-1.7,0.4-2.3c0.3-0.7,0.7-1.2,1.3-1.5c0.6-0.3,1.2-0.5,1.9-0.5c0.9,0,1.6,0.2,2.2,0.7
		c0.6,0.4,0.9,1.1,1.1,1.9l-1.3,0.2c-0.1-0.5-0.4-1-0.7-1.2c-0.3-0.3-0.7-0.4-1.2-0.4c-0.7,0-1.3,0.2-1.7,0.7
		c-0.4,0.5-0.7,1.3-0.7,2.4c0,1.1,0.2,1.9,0.6,2.4c0.4,0.5,1,0.7,1.6,0.7c0.5,0,1-0.2,1.4-0.5C110.1,80.3,110.4,79.8,110.5,79.1z"/>
	<path class="st0" d="M117.8,81.1c-0.5,0.4-1,0.7-1.5,0.9c-0.5,0.2-1,0.3-1.5,0.3c-0.9,0-1.6-0.2-2.1-0.7c-0.5-0.4-0.7-1-0.7-1.7
		c0-0.4,0.1-0.8,0.3-1.1c0.2-0.3,0.4-0.6,0.7-0.8c0.3-0.2,0.6-0.4,1-0.5c0.3-0.1,0.7-0.1,1.2-0.2c1.1-0.1,1.9-0.3,2.5-0.5
		c0-0.2,0-0.3,0-0.4c0-0.6-0.1-1-0.4-1.2c-0.4-0.3-0.9-0.5-1.6-0.5c-0.7,0-1.1,0.1-1.4,0.3c-0.3,0.2-0.5,0.6-0.7,1.2l-1.4-0.2
		c0.1-0.6,0.3-1,0.6-1.4c0.3-0.4,0.7-0.6,1.2-0.8c0.5-0.2,1.1-0.3,1.9-0.3c0.7,0,1.3,0.1,1.7,0.2c0.4,0.2,0.8,0.4,1,0.6
		c0.2,0.2,0.3,0.6,0.4,0.9c0,0.2,0.1,0.7,0.1,1.3v1.8c0,1.3,0,2.1,0.1,2.4c0.1,0.3,0.2,0.7,0.3,1h-1.4
		C117.9,81.8,117.8,81.5,117.8,81.1z M117.7,78c-0.5,0.2-1.3,0.4-2.3,0.5c-0.6,0.1-1,0.2-1.2,0.3c-0.2,0.1-0.4,0.3-0.5,0.4
		c-0.1,0.2-0.2,0.4-0.2,0.7c0,0.4,0.1,0.7,0.4,0.9c0.3,0.2,0.7,0.4,1.2,0.4c0.5,0,1-0.1,1.4-0.3c0.4-0.2,0.7-0.6,0.9-1
		c0.1-0.3,0.2-0.8,0.2-1.4V78z"/>
	<path class="st0" d="M126.2,79.5l1.4,0.2c-0.2,0.8-0.6,1.5-1.3,1.9c-0.6,0.5-1.4,0.7-2.3,0.7c-1.2,0-2.1-0.4-2.8-1.1
		c-0.7-0.7-1-1.8-1-3.1c0-1.4,0.4-2.4,1.1-3.2c0.7-0.8,1.6-1.1,2.7-1.1c1.1,0,2,0.4,2.7,1.1c0.7,0.7,1,1.8,1,3.1c0,0.1,0,0.2,0,0.4
		h-6.1c0.1,0.9,0.3,1.6,0.8,2.1c0.5,0.5,1,0.7,1.7,0.7c0.5,0,0.9-0.1,1.3-0.4C125.7,80.5,126,80.1,126.2,79.5z M121.7,77.3h4.6
		c-0.1-0.7-0.2-1.2-0.5-1.5c-0.4-0.5-1-0.8-1.7-0.8c-0.6,0-1.2,0.2-1.6,0.6C122,76,121.7,76.5,121.7,77.3z"/>
	<path class="st0" d="M128.9,74h1.4v3.4h3.8V74h1.4v8.2h-1.4v-3.6h-3.8v3.6h-1.4V74z"/>
	<path class="st0" d="M146.6,84.4h-1.1v-2.3h-0.2l-1.5-2.5c-0.2-0.4-0.5-0.7-0.6-0.9c-0.3-0.3-0.6-0.4-1-0.4v3.8h-1.4V74h1.4v3.5
		c0.5,0,0.9-0.2,1.1-0.5c0.1-0.1,0.3-0.5,0.6-1.2c0.2-0.5,0.4-0.8,0.5-1c0.2-0.4,0.5-0.6,0.8-0.7c0.2-0.1,0.6-0.1,1.1-0.1h0.3v1.1
		l-0.4,0c-0.4,0-0.7,0.1-0.8,0.3c-0.1,0.1-0.2,0.4-0.4,0.9c-0.2,0.5-0.4,0.8-0.5,1c-0.2,0.3-0.5,0.5-0.9,0.7
		c0.6,0.2,1.2,0.7,1.8,1.7l0.8,1.4h0.5V84.4z"/>
	<path class="st0" d="M147.2,74h1.4v3.2h1.8c1.1,0,2,0.2,2.6,0.7c0.6,0.4,0.9,1.1,0.9,1.8c0,0.7-0.3,1.3-0.8,1.7s-1.3,0.7-2.5,0.7
		h-3.5V74z M148.6,81h1.5c0.9,0,1.5-0.1,1.9-0.3c0.4-0.2,0.6-0.6,0.6-1c0-0.4-0.1-0.7-0.4-0.9s-0.9-0.4-1.8-0.4h-1.6V81z M154.9,74
		h1.4v8.2h-1.4V74z"/>
	<path class="st0" d="M157.9,74h1.4v7h3.1v-7h1.4v7h3.2v-7h1.4v8.2h-10.4V74z"/>
	<path class="st0" d="M175.7,84.4h-1.1v-2.3h-0.2l-1.5-2.5c-0.2-0.4-0.5-0.7-0.6-0.9c-0.3-0.3-0.6-0.4-1-0.4v3.8H170V74h1.4v3.5
		c0.5,0,0.9-0.2,1.1-0.5c0.1-0.1,0.3-0.5,0.6-1.2c0.2-0.5,0.4-0.8,0.5-1c0.2-0.4,0.5-0.6,0.8-0.7c0.2-0.1,0.6-0.1,1.1-0.1h0.3v1.1
		l-0.4,0c-0.4,0-0.7,0.1-0.8,0.3c-0.1,0.1-0.2,0.4-0.4,0.9c-0.2,0.5-0.4,0.8-0.5,1c-0.2,0.3-0.5,0.5-0.9,0.7
		c0.6,0.2,1.2,0.7,1.8,1.7l0.8,1.4h0.5V84.4z"/>
	<path class="st0" d="M176.3,74h1.4v3.2h1.8c1.1,0,2,0.2,2.6,0.7c0.6,0.4,0.9,1.1,0.9,1.8c0,0.7-0.3,1.3-0.8,1.7
		c-0.5,0.5-1.3,0.7-2.5,0.7h-3.5V74z M177.7,81h1.5c0.9,0,1.5-0.1,1.9-0.3c0.4-0.2,0.6-0.6,0.6-1c0-0.4-0.1-0.7-0.4-0.9
		s-0.9-0.4-1.8-0.4h-1.6V81z M184.1,74h1.4v8.2h-1.4V74z"/>
	<path class="st0" d="M187.7,74h6.4v8.2h-1.4v-7h-3.7v4.1c0,0.9,0,1.6-0.1,1.9c-0.1,0.3-0.2,0.6-0.5,0.8c-0.3,0.2-0.7,0.3-1.2,0.3
		c-0.3,0-0.7,0-1.1-0.1V81h0.6c0.3,0,0.5,0,0.6-0.1c0.1-0.1,0.2-0.2,0.2-0.3c0-0.1,0.1-0.5,0.1-1.3V74z"/>
	<path class="st0" d="M195.7,74h1.4v3.2h1.8c1.1,0,2,0.2,2.6,0.7c0.6,0.4,0.9,1.1,0.9,1.8c0,0.7-0.3,1.3-0.8,1.7
		c-0.5,0.5-1.3,0.7-2.5,0.7h-3.5V74z M197.1,81h1.5c0.9,0,1.5-0.1,1.9-0.3c0.4-0.2,0.6-0.6,0.6-1c0-0.4-0.1-0.7-0.4-0.9
		c-0.3-0.3-0.9-0.4-1.8-0.4h-1.6V81z M203.4,74h1.4v8.2h-1.4V74z"/>
	<path class="st0" d="M3.7,103.1c-0.8-1-1.4-2.1-1.9-3.4c-0.5-1.3-0.8-2.6-0.8-4c0-1.2,0.2-2.4,0.6-3.5c0.5-1.3,1.2-2.6,2.1-3.9h1
		c-0.6,1.1-1,1.8-1.2,2.3c-0.3,0.7-0.6,1.4-0.7,2.2c-0.2,1-0.3,1.9-0.3,2.9c0,2.5,0.8,4.9,2.3,7.4H3.7z"/>
	<path class="st0" d="M7,88.5h6.9v9.9h1v4h-1.3v-2.6H6.1v2.6H4.7v-4h0.9C6.5,97.1,7,94.3,7,90.2V88.5z M12.3,89.9H8.4v0.6
		c0,1-0.1,2.3-0.3,3.9c-0.2,1.7-0.5,3-1,4.1h5.2V89.9z"/>
	<path class="st0" d="M16.1,88.5h7.3v1.3h-5.8v9.9h-1.5V88.5z"/>
	<path class="st0" d="M31.9,102.9h-1.3v-3.1h-0.5l-1.9-3.1c-0.5-0.8-0.8-1.3-1-1.5c-0.5-0.5-1-0.7-1.6-0.7v5.3H24V88.5h1.5v4.9
		c0.7,0,1.3-0.2,1.6-0.6c0.2-0.2,0.5-0.8,0.9-1.7c0.3-0.7,0.6-1.3,0.8-1.6c0.5-0.7,1.2-1.1,2.1-1.1c0.6,0,0.9,0,0.9,0v1.3
		c-0.1,0-0.2,0-0.3,0c-0.1,0-0.2,0-0.3,0c-0.5,0-0.9,0.2-1.2,0.5c-0.2,0.2-0.4,0.6-0.6,1.3c-0.3,0.7-0.5,1.2-0.7,1.4
		c-0.3,0.4-0.7,0.7-1.2,1c0.7,0.2,1.4,0.9,2.2,2l1.5,2.4h0.8V102.9z"/>
	<path class="st0" d="M33.3,103.1h-1c1.5-2.5,2.3-4.9,2.3-7.4c0-1-0.1-1.9-0.3-2.9c-0.2-0.8-0.4-1.5-0.7-2.2
		c-0.2-0.5-0.6-1.2-1.2-2.3h1c1,1.3,1.7,2.6,2.1,3.9c0.4,1.1,0.6,2.3,0.6,3.5c0,1.4-0.3,2.7-0.8,4S34.1,102.2,33.3,103.1z"/>
	<path class="st0" d="M37.5,99.8v-1.6h1.6v1.6c0,0.6-0.1,1-0.3,1.4c-0.2,0.4-0.5,0.6-1,0.8l-0.4-0.6c0.3-0.1,0.5-0.3,0.6-0.6
		c0.1-0.2,0.2-0.6,0.2-1.1H37.5z"/>
	<path class="st0" d="M44.8,91.7H47l2.1,6.5l2.4-6.5h2v8.2h-1.4v-6.6l-2.4,6.6h-1.2l-2.3-6.9v6.9h-1.4V91.7z"/>
	<path class="st0" d="M60.4,98.8c-0.5,0.4-1,0.7-1.5,0.9c-0.5,0.2-1,0.3-1.5,0.3c-0.9,0-1.6-0.2-2.1-0.7c-0.5-0.4-0.7-1-0.7-1.7
		c0-0.4,0.1-0.8,0.3-1.1c0.2-0.3,0.4-0.6,0.7-0.8c0.3-0.2,0.6-0.4,1-0.5c0.3-0.1,0.7-0.1,1.2-0.2c1.1-0.1,1.9-0.3,2.5-0.5
		c0-0.2,0-0.3,0-0.4c0-0.6-0.1-1-0.4-1.2c-0.4-0.3-0.9-0.5-1.6-0.5c-0.7,0-1.1,0.1-1.4,0.3c-0.3,0.2-0.5,0.6-0.7,1.2L54.8,94
		c0.1-0.6,0.3-1,0.6-1.4c0.3-0.4,0.7-0.6,1.2-0.8c0.5-0.2,1.1-0.3,1.9-0.3c0.7,0,1.3,0.1,1.7,0.2c0.4,0.2,0.8,0.4,1,0.6
		c0.2,0.2,0.3,0.6,0.4,0.9c0,0.2,0.1,0.7,0.1,1.3v1.8c0,1.3,0,2.1,0.1,2.4c0.1,0.3,0.2,0.7,0.3,1h-1.4
		C60.5,99.5,60.4,99.2,60.4,98.8z M60.2,95.7c-0.5,0.2-1.3,0.4-2.3,0.5c-0.6,0.1-1,0.2-1.2,0.3c-0.2,0.1-0.4,0.3-0.5,0.4
		c-0.1,0.2-0.2,0.4-0.2,0.7c0,0.4,0.1,0.7,0.4,0.9c0.3,0.2,0.7,0.4,1.2,0.4c0.5,0,1-0.1,1.4-0.3c0.4-0.2,0.7-0.6,0.9-1
		c0.1-0.3,0.2-0.8,0.2-1.4V95.7z"/>
	<path class="st0" d="M63.2,102.9V91.7h1.3v1.1c0.3-0.4,0.6-0.7,1-0.9c0.4-0.2,0.8-0.3,1.4-0.3c0.7,0,1.3,0.2,1.8,0.5
		c0.5,0.4,0.9,0.9,1.2,1.5c0.3,0.7,0.4,1.4,0.4,2.1c0,0.8-0.1,1.6-0.4,2.3c-0.3,0.7-0.7,1.2-1.3,1.5c-0.6,0.4-1.2,0.5-1.8,0.5
		c-0.5,0-0.9-0.1-1.2-0.3c-0.4-0.2-0.7-0.4-0.9-0.7v4H63.2z M64.5,95.8c0,1.1,0.2,1.8,0.6,2.3c0.4,0.5,0.9,0.8,1.5,0.8
		c0.6,0,1.1-0.3,1.6-0.8c0.4-0.5,0.7-1.3,0.7-2.4c0-1-0.2-1.8-0.6-2.3c-0.4-0.5-0.9-0.8-1.5-0.8c-0.6,0-1.1,0.3-1.6,0.8
		C64.7,93.9,64.5,94.7,64.5,95.8z"/>
	<path class="st0" d="M71.4,91.7h4.7v1.1h-3.3v7h-1.4V91.7z"/>
	<path class="st0" d="M81.6,98.8c-0.5,0.4-1,0.7-1.5,0.9c-0.5,0.2-1,0.3-1.5,0.3c-0.9,0-1.6-0.2-2.1-0.7c-0.5-0.4-0.7-1-0.7-1.7
		c0-0.4,0.1-0.8,0.3-1.1c0.2-0.3,0.4-0.6,0.7-0.8c0.3-0.2,0.6-0.4,1-0.5c0.3-0.1,0.7-0.1,1.2-0.2c1.1-0.1,1.9-0.3,2.5-0.5
		c0-0.2,0-0.3,0-0.4c0-0.6-0.1-1-0.4-1.2c-0.4-0.3-0.9-0.5-1.6-0.5c-0.7,0-1.1,0.1-1.4,0.3c-0.3,0.2-0.5,0.6-0.7,1.2L76,94
		c0.1-0.6,0.3-1,0.6-1.4c0.3-0.4,0.7-0.6,1.2-0.8c0.5-0.2,1.1-0.3,1.9-0.3c0.7,0,1.3,0.1,1.7,0.2c0.4,0.2,0.8,0.4,1,0.6
		c0.2,0.2,0.3,0.6,0.4,0.9c0,0.2,0.1,0.7,0.1,1.3v1.8c0,1.3,0,2.1,0.1,2.4c0.1,0.3,0.2,0.7,0.3,1h-1.4
		C81.7,99.5,81.6,99.2,81.6,98.8z M81.5,95.7c-0.5,0.2-1.3,0.4-2.3,0.5c-0.6,0.1-1,0.2-1.2,0.3c-0.2,0.1-0.4,0.3-0.5,0.4
		c-0.1,0.2-0.2,0.4-0.2,0.7c0,0.4,0.1,0.7,0.4,0.9c0.3,0.2,0.7,0.4,1.2,0.4c0.5,0,1-0.1,1.4-0.3c0.4-0.2,0.7-0.6,0.9-1
		c0.1-0.3,0.2-0.8,0.2-1.4V95.7z"/>
	<path class="st0" d="M84.5,91.7h1.4V95h3.8v-3.4h1.4v8.2h-1.4v-3.6h-3.8v3.6h-1.4V91.7z"/>
	<path class="st0" d="M98.2,97.2l1.4,0.2c-0.2,0.8-0.6,1.5-1.3,1.9C97.7,99.8,97,100,96,100c-1.2,0-2.1-0.4-2.8-1.1
		c-0.7-0.7-1-1.8-1-3.1c0-1.4,0.4-2.4,1.1-3.2c0.7-0.8,1.6-1.1,2.7-1.1c1.1,0,2,0.4,2.7,1.1c0.7,0.7,1,1.8,1,3.1c0,0.1,0,0.2,0,0.4
		h-6.1c0.1,0.9,0.3,1.6,0.8,2.1c0.5,0.5,1,0.7,1.7,0.7c0.5,0,0.9-0.1,1.3-0.4C97.7,98.2,98,97.8,98.2,97.2z M93.6,94.9h4.6
		c-0.1-0.7-0.2-1.2-0.5-1.5c-0.4-0.5-1-0.8-1.7-0.8c-0.6,0-1.2,0.2-1.6,0.6C93.9,93.7,93.7,94.2,93.6,94.9z"/>
	<path class="st0" d="M100.8,91.7h1.4v7h3.8v-7h1.4v7h0.9v3.4h-1.1v-2.3h-6.3V91.7z"/>
	<path class="st0" d="M109.6,99.8v-1.6h1.6v1.6c0,0.6-0.1,1-0.3,1.4c-0.2,0.4-0.5,0.6-1,0.8l-0.4-0.6c0.3-0.1,0.5-0.3,0.6-0.6
		c0.1-0.2,0.2-0.6,0.2-1.1H109.6z"/>
	<path class="st0" d="M116.9,91.7h2.2l2.1,6.5l2.4-6.5h2v8.2h-1.4v-6.6l-2.4,6.6h-1.2l-2.3-6.9v6.9h-1.4V91.7z"/>
	<path class="st0" d="M127.2,91.7h1.4v3.2h1.8c1.1,0,2,0.2,2.6,0.7c0.6,0.4,0.9,1.1,0.9,1.8c0,0.7-0.3,1.3-0.8,1.7
		c-0.5,0.5-1.3,0.7-2.5,0.7h-3.5V91.7z M128.6,98.7h1.5c0.9,0,1.5-0.1,1.9-0.3s0.6-0.6,0.6-1c0-0.4-0.1-0.7-0.4-0.9
		s-0.9-0.4-1.8-0.4h-1.6V98.7z M134.9,91.7h1.4v8.2h-1.4V91.7z"/>
	<path class="st0" d="M143.2,96.8l1.4,0.2c-0.1,0.9-0.5,1.7-1.1,2.2c-0.6,0.5-1.4,0.8-2.3,0.8c-1.1,0-2-0.4-2.7-1.1
		c-0.7-0.7-1-1.8-1-3.1c0-0.9,0.1-1.7,0.4-2.3s0.7-1.2,1.3-1.5c0.6-0.3,1.2-0.5,1.9-0.5c0.9,0,1.6,0.2,2.2,0.7
		c0.6,0.4,0.9,1.1,1.1,1.9l-1.3,0.2c-0.1-0.5-0.4-1-0.7-1.2c-0.3-0.3-0.7-0.4-1.2-0.4c-0.7,0-1.3,0.2-1.7,0.7
		c-0.4,0.5-0.7,1.3-0.7,2.4c0,1.1,0.2,1.9,0.6,2.4c0.4,0.5,1,0.7,1.6,0.7c0.5,0,1-0.2,1.4-0.5C142.9,98,143.1,97.5,143.2,96.8z"/>
	<path class="st0" d="M145.6,99.8v-1.6h1.6v1.6c0,0.6-0.1,1-0.3,1.4c-0.2,0.4-0.5,0.6-1,0.8l-0.4-0.6c0.3-0.1,0.5-0.3,0.6-0.6
		c0.1-0.2,0.2-0.6,0.2-1.1H145.6z"/>
	<path class="st0" d="M152.9,91.7h2.2l2.1,6.5l2.4-6.5h2v8.2h-1.4v-6.6l-2.4,6.6h-1.2l-2.3-6.9v6.9h-1.4V91.7z"/>
	<path class="st0" d="M163.2,91.7h1.4v3.2h1.8c1.1,0,2,0.2,2.6,0.7c0.6,0.4,0.9,1.1,0.9,1.8c0,0.7-0.3,1.3-0.8,1.7
		c-0.5,0.5-1.3,0.7-2.5,0.7h-3.5V91.7z M164.5,98.7h1.5c0.9,0,1.5-0.1,1.9-0.3s0.6-0.6,0.6-1c0-0.4-0.1-0.7-0.4-0.9
		s-0.9-0.4-1.8-0.4h-1.6V98.7z M170.9,91.7h1.4v8.2h-1.4V91.7z"/>
	<path class="st0" d="M173.9,102.9V91.7h1.3v1.1c0.3-0.4,0.6-0.7,1-0.9c0.4-0.2,0.8-0.3,1.4-0.3c0.7,0,1.3,0.2,1.8,0.5
		c0.5,0.4,0.9,0.9,1.2,1.5c0.3,0.7,0.4,1.4,0.4,2.1c0,0.8-0.1,1.6-0.4,2.3c-0.3,0.7-0.7,1.2-1.3,1.5c-0.6,0.4-1.2,0.5-1.8,0.5
		c-0.5,0-0.9-0.1-1.2-0.3c-0.4-0.2-0.7-0.4-0.9-0.7v4H173.9z M175.1,95.8c0,1.1,0.2,1.8,0.6,2.3c0.4,0.5,0.9,0.8,1.5,0.8
		c0.6,0,1.1-0.3,1.6-0.8c0.4-0.5,0.7-1.3,0.7-2.4c0-1-0.2-1.8-0.6-2.3c-0.4-0.5-0.9-0.8-1.5-0.8c-0.6,0-1.1,0.3-1.6,0.8
		C175.4,93.9,175.1,94.7,175.1,95.8z"/>
	<path class="st0" d="M182.1,91.7h1.4v3.2h1.8c1.1,0,2,0.2,2.6,0.7c0.6,0.4,0.9,1.1,0.9,1.8c0,0.7-0.3,1.3-0.8,1.7
		c-0.5,0.5-1.3,0.7-2.5,0.7h-3.5V91.7z M183.5,98.7h1.5c0.9,0,1.5-0.1,1.9-0.3c0.4-0.2,0.6-0.6,0.6-1c0-0.4-0.1-0.7-0.4-0.9
		s-0.9-0.4-1.8-0.4h-1.6V98.7z M189.8,91.7h1.4v8.2h-1.4V91.7z"/>
	<path class="st0" d="M192.9,91.7h1.4v7h3.1v-7h1.4v7h3.2v-7h1.4v8.2h-10.4V91.7z"/>
	<path class="st0" d="M205.3,99.8v-1.6h1.6v1.6c0,0.6-0.1,1-0.3,1.4c-0.2,0.4-0.5,0.6-1,0.8l-0.4-0.6c0.3-0.1,0.5-0.3,0.6-0.6
		c0.1-0.2,0.2-0.6,0.2-1.1H205.3z"/>
	<path class="st0" d="M6.4,114.5l1.4,0.2c-0.1,0.9-0.5,1.7-1.1,2.2c-0.6,0.5-1.4,0.8-2.3,0.8c-1.1,0-2-0.4-2.7-1.1
		c-0.7-0.7-1-1.8-1-3.1c0-0.9,0.1-1.7,0.4-2.3c0.3-0.7,0.7-1.2,1.3-1.5c0.6-0.3,1.2-0.5,1.9-0.5c0.9,0,1.6,0.2,2.2,0.7
		c0.6,0.4,0.9,1.1,1.1,1.9l-1.3,0.2c-0.1-0.5-0.4-1-0.7-1.2c-0.3-0.3-0.7-0.4-1.2-0.4c-0.7,0-1.3,0.2-1.7,0.7
		c-0.4,0.5-0.7,1.3-0.7,2.4c0,1.1,0.2,1.9,0.6,2.4c0.4,0.5,1,0.7,1.6,0.7c0.5,0,1-0.2,1.4-0.5C6.1,115.7,6.3,115.2,6.4,114.5z"/>
	<path class="st0" d="M14,114.9l1.4,0.2c-0.2,0.8-0.6,1.5-1.3,1.9c-0.6,0.5-1.4,0.7-2.3,0.7c-1.2,0-2.1-0.4-2.8-1.1
		c-0.7-0.7-1-1.8-1-3.1c0-1.4,0.4-2.4,1.1-3.2c0.7-0.8,1.6-1.1,2.7-1.1c1.1,0,2,0.4,2.7,1.1c0.7,0.7,1,1.8,1,3.1c0,0.1,0,0.2,0,0.4
		H9.4c0.1,0.9,0.3,1.6,0.8,2.1c0.5,0.5,1,0.7,1.7,0.7c0.5,0,0.9-0.1,1.3-0.4C13.5,115.9,13.8,115.5,14,114.9z M9.4,112.6H14
		c-0.1-0.7-0.2-1.2-0.5-1.5c-0.4-0.5-1-0.8-1.7-0.8c-0.6,0-1.2,0.2-1.6,0.6C9.7,111.4,9.5,111.9,9.4,112.6z"/>
	<path class="st0" d="M16.7,109.3h6.4v8.2h-1.4v-7h-3.7v4.1c0,0.9,0,1.6-0.1,1.9c-0.1,0.3-0.2,0.6-0.5,0.8c-0.3,0.2-0.7,0.3-1.2,0.3
		c-0.3,0-0.7,0-1.1-0.1v-1.2h0.6c0.3,0,0.5,0,0.6-0.1c0.1-0.1,0.2-0.2,0.2-0.3c0-0.1,0.1-0.5,0.1-1.3V109.3z"/>
	<path class="st0" d="M30.3,114.9l1.4,0.2c-0.2,0.8-0.6,1.5-1.3,1.9c-0.6,0.5-1.4,0.7-2.3,0.7c-1.2,0-2.1-0.4-2.8-1.1
		c-0.7-0.7-1-1.8-1-3.1c0-1.4,0.4-2.4,1.1-3.2c0.7-0.8,1.6-1.1,2.7-1.1c1.1,0,2,0.4,2.7,1.1c0.7,0.7,1,1.8,1,3.1c0,0.1,0,0.2,0,0.4
		h-6.1c0.1,0.9,0.3,1.6,0.8,2.1c0.5,0.5,1,0.7,1.7,0.7c0.5,0,0.9-0.1,1.3-0.4C29.8,115.9,30.1,115.5,30.3,114.9z M25.7,112.6h4.6
		c-0.1-0.7-0.2-1.2-0.5-1.5c-0.4-0.5-1-0.8-1.7-0.8c-0.6,0-1.2,0.2-1.6,0.6C26,111.4,25.8,111.9,25.7,112.6z"/>
	<path class="st0" d="M32.9,109.3h1.4v3.4h3.8v-3.4h1.4v8.2h-1.4v-3.6h-3.8v3.6h-1.4V109.3z"/>
	<path class="st0" d="M41.4,117.5v-1.6H43v1.6c0,0.6-0.1,1-0.3,1.4c-0.2,0.4-0.5,0.6-1,0.8l-0.4-0.6c0.3-0.1,0.5-0.3,0.6-0.6
		c0.1-0.2,0.2-0.6,0.2-1.1H41.4z"/>
	<path class="st0" d="M56.9,113.6l1.5,0.4c-0.3,1.2-0.9,2.2-1.7,2.8c-0.8,0.6-1.8,1-3,1c-1.2,0-2.2-0.2-3-0.7
		c-0.8-0.5-1.3-1.2-1.7-2.1c-0.4-0.9-0.6-1.9-0.6-3c0-1.2,0.2-2.2,0.7-3.1c0.4-0.9,1.1-1.5,1.9-2c0.8-0.5,1.7-0.7,2.7-0.7
		c1.1,0,2.1,0.3,2.8,0.9c0.8,0.6,1.3,1.4,1.6,2.4l-1.5,0.3c-0.3-0.8-0.6-1.4-1.1-1.8c-0.5-0.4-1.1-0.6-1.9-0.6
		c-0.9,0-1.6,0.2-2.2,0.6c-0.6,0.4-1,1-1.2,1.7c-0.2,0.7-0.4,1.4-0.4,2.2c0,1,0.1,1.8,0.4,2.5c0.3,0.7,0.7,1.2,1.3,1.6
		c0.6,0.4,1.2,0.5,1.9,0.5c0.8,0,1.5-0.2,2.1-0.7C56.3,115.2,56.7,114.5,56.9,113.6z"/>
	<path class="st0" d="M59.8,117.5v-1.6h1.6v1.6c0,0.6-0.1,1-0.3,1.4c-0.2,0.4-0.5,0.6-1,0.8l-0.4-0.6c0.3-0.1,0.5-0.3,0.6-0.6
		s0.2-0.6,0.2-1.1H59.8z"/>
	<path class="st0" d="M67.3,117.5v-11.3h8.1v1.3h-6.7v3.4H75v1.3h-6.2v3.8h6.9v1.3H67.3z"/>
	<path class="st0" d="M82,109.3h5.7v7h0.9v3.4h-1.1v-2.3H81v2.3h-1.1v-3.4h0.7C81.5,115,82,112.7,82,109.3z M83.1,110.5
		c-0.1,2.6-0.5,4.6-1.2,5.9h4.4v-5.9H83.1z"/>
	<path class="st0" d="M96.6,113.4c0,1.3-0.3,2.3-0.9,3.1c-0.7,0.8-1.6,1.3-2.9,1.3c-1.2,0-2.1-0.4-2.8-1.3c-0.6-0.8-0.9-1.8-0.9-3
		c0-0.1,0-0.2,0-0.4h6.1c0-0.8-0.3-1.4-0.7-1.9c-0.4-0.6-1-0.8-1.8-0.8c-1,0-1.8,0.6-2.2,1.7l-1.4-0.2c0.5-1.8,1.7-2.6,3.6-2.6
		c1.3,0,2.2,0.4,2.9,1.2C96.3,111.1,96.6,112.1,96.6,113.4z M95.1,114.2h-4.6c0.1,0.7,0.2,1.2,0.5,1.5c0.4,0.5,1,0.8,1.7,0.8
		c0.7,0,1.2-0.2,1.6-0.7C94.9,115.4,95.1,114.9,95.1,114.2z"/>
	<path class="st0" d="M97.7,120.6v-11.3H99v1.1c0.3-0.4,0.6-0.7,1-0.9c0.4-0.2,0.8-0.3,1.4-0.3c0.7,0,1.3,0.2,1.8,0.5
		c0.5,0.4,0.9,0.9,1.2,1.5c0.3,0.7,0.4,1.4,0.4,2.1c0,0.8-0.1,1.6-0.4,2.3c-0.3,0.7-0.7,1.2-1.3,1.5c-0.6,0.4-1.2,0.5-1.8,0.5
		c-0.5,0-0.9-0.1-1.2-0.3c-0.4-0.2-0.7-0.4-0.9-0.7v4H97.7z M98.9,113.5c0,1.1,0.2,1.8,0.6,2.3c0.4,0.5,0.9,0.8,1.5,0.8
		c0.6,0,1.1-0.3,1.6-0.8c0.4-0.5,0.7-1.3,0.7-2.4c0-1-0.2-1.8-0.6-2.3c-0.4-0.5-0.9-0.8-1.5-0.8c-0.6,0-1.1,0.3-1.6,0.8
		C99.2,111.6,98.9,112.4,98.9,113.5z"/>
	<path class="st0" d="M105.7,120.6l-0.2-1.3c0.3,0.1,0.6,0.1,0.8,0.1c0.3,0,0.6-0.1,0.7-0.2c0.2-0.1,0.3-0.2,0.5-0.4
		c0.1-0.1,0.2-0.5,0.4-1c0-0.1,0.1-0.2,0.1-0.3l-3.1-8.2h1.5l1.7,4.7c0.2,0.6,0.4,1.2,0.6,1.9c0.2-0.6,0.3-1.3,0.6-1.9l1.7-4.8h1.4
		l-3.1,8.3c-0.3,0.9-0.6,1.5-0.8,1.9c-0.2,0.5-0.5,0.8-0.8,1c-0.3,0.2-0.7,0.3-1.1,0.3C106.3,120.8,106,120.8,105.7,120.6z"/>
	<path class="st0" d="M112.9,109.3h2.2l2.1,6.5l2.4-6.5h2v8.2h-1.4v-6.6l-2.4,6.6h-1.2l-2.3-6.9v6.9h-1.4V109.3z"/>
	<path class="st0" d="M128.7,114.9l1.4,0.2c-0.2,0.8-0.6,1.5-1.3,1.9c-0.6,0.5-1.4,0.7-2.3,0.7c-1.2,0-2.1-0.4-2.8-1.1
		c-0.7-0.7-1-1.8-1-3.1c0-1.4,0.4-2.4,1.1-3.2c0.7-0.8,1.6-1.1,2.7-1.1c1.1,0,2,0.4,2.7,1.1c0.7,0.7,1,1.8,1,3.1c0,0.1,0,0.2,0,0.4
		h-6.1c0.1,0.9,0.3,1.6,0.8,2.1c0.5,0.5,1,0.7,1.7,0.7c0.5,0,0.9-0.1,1.3-0.4C128.2,115.9,128.5,115.5,128.7,114.9z M124.2,112.6
		h4.6c-0.1-0.7-0.2-1.2-0.5-1.5c-0.4-0.5-1-0.8-1.7-0.8c-0.6,0-1.2,0.2-1.6,0.6C124.4,111.4,124.2,111.9,124.2,112.6z"/>
	<path class="st0" d="M131.3,109.3h1.4v3.4h3.8v-3.4h1.4v8.2h-1.4v-3.6h-3.8v3.6h-1.4V109.3z"/>
	<path class="st0" d="M140.5,109.3h5.7v7h0.9v3.4H146v-2.3h-6.4v2.3h-1.1v-3.4h0.7C140.1,115,140.6,112.7,140.5,109.3z M141.7,110.5
		c-0.1,2.6-0.5,4.6-1.2,5.9h4.4v-5.9H141.7z"/>
	<path class="st0" d="M153.7,114.9l1.4,0.2c-0.2,0.8-0.6,1.5-1.3,1.9s-1.4,0.7-2.3,0.7c-1.2,0-2.1-0.4-2.8-1.1c-0.7-0.7-1-1.8-1-3.1
		c0-1.4,0.4-2.4,1.1-3.2c0.7-0.8,1.6-1.1,2.7-1.1c1.1,0,2,0.4,2.7,1.1c0.7,0.7,1,1.8,1,3.1c0,0.1,0,0.2,0,0.4H149
		c0.1,0.9,0.3,1.6,0.8,2.1c0.5,0.5,1,0.7,1.7,0.7c0.5,0,0.9-0.1,1.3-0.4C153.2,115.9,153.4,115.5,153.7,114.9z M149.1,112.6h4.6
		c-0.1-0.7-0.2-1.2-0.5-1.5c-0.4-0.5-1-0.8-1.7-0.8c-0.6,0-1.2,0.2-1.6,0.6C149.4,111.4,149.2,111.9,149.1,112.6z"/>
	<path class="st0" d="M156.3,120.6v-11.3h1.3v1.1c0.3-0.4,0.6-0.7,1-0.9c0.4-0.2,0.8-0.3,1.4-0.3c0.7,0,1.3,0.2,1.8,0.5
		c0.5,0.4,0.9,0.9,1.2,1.5c0.3,0.7,0.4,1.4,0.4,2.1c0,0.8-0.1,1.6-0.4,2.3c-0.3,0.7-0.7,1.2-1.3,1.5c-0.6,0.4-1.2,0.5-1.8,0.5
		c-0.5,0-0.9-0.1-1.2-0.3c-0.4-0.2-0.7-0.4-0.9-0.7v4H156.3z M157.5,113.5c0,1.1,0.2,1.8,0.6,2.3c0.4,0.5,0.9,0.8,1.5,0.8
		c0.6,0,1.1-0.3,1.6-0.8c0.4-0.5,0.7-1.3,0.7-2.4c0-1-0.2-1.8-0.6-2.3c-0.4-0.5-0.9-0.8-1.5-0.8c-0.6,0-1.1,0.3-1.6,0.8
		C157.7,111.6,157.5,112.4,157.5,113.5z"/>
	<path class="st0" d="M164.5,107.8v-1.6h1.4v1.6H164.5z M164.5,117.5v-8.2h1.4v8.2H164.5z"/>
	<path class="st0" d="M167.8,117.5v-1.6h1.6v1.6c0,0.6-0.1,1-0.3,1.4c-0.2,0.4-0.5,0.6-1,0.8l-0.4-0.6c0.3-0.1,0.5-0.3,0.6-0.6
		c0.1-0.2,0.2-0.6,0.2-1.1H167.8z"/>
	<path class="st0" d="M1.2,135.2v-11.3h4.2c0.9,0,1.5,0.1,2.1,0.3c0.5,0.2,0.9,0.6,1.2,1.1c0.3,0.5,0.4,1,0.4,1.5
		c0,0.5-0.1,0.9-0.4,1.4c-0.3,0.4-0.7,0.8-1.2,1c0.7,0.2,1.2,0.5,1.6,1c0.4,0.5,0.5,1.1,0.5,1.7c0,0.5-0.1,1-0.3,1.5
		c-0.2,0.5-0.5,0.8-0.8,1c-0.3,0.2-0.7,0.4-1.2,0.6c-0.5,0.1-1.1,0.2-1.8,0.2H1.2z M2.7,128.7h2.4c0.7,0,1.1,0,1.4-0.1
		c0.4-0.1,0.7-0.3,0.9-0.6c0.2-0.3,0.3-0.6,0.3-1c0-0.4-0.1-0.7-0.3-1c-0.2-0.3-0.4-0.5-0.8-0.6c-0.3-0.1-0.9-0.2-1.7-0.2H2.7V128.7
		z M2.7,133.9h2.8c0.5,0,0.8,0,1-0.1c0.3-0.1,0.6-0.2,0.9-0.3c0.2-0.1,0.4-0.4,0.6-0.6c0.1-0.3,0.2-0.6,0.2-0.9
		c0-0.4-0.1-0.8-0.3-1.1c-0.2-0.3-0.5-0.5-0.9-0.7C6.5,130.1,6,130,5.3,130H2.7V133.9z"/>
	<path class="st0" d="M14.1,127h6.6v1.1h-2.6v7h-1.4v-7h-2.6V127z"/>
	<path class="st0" d="M20.8,131.1c0-1.5,0.4-2.6,1.3-3.4c0.7-0.6,1.6-0.9,2.6-0.9c1.1,0,2,0.4,2.7,1.1c0.7,0.7,1.1,1.8,1.1,3
		c0,1.1-0.2,1.9-0.5,2.5c-0.3,0.6-0.8,1.1-1.4,1.4c-0.6,0.3-1.3,0.5-2,0.5c-1.1,0-2.1-0.4-2.8-1.1C21.1,133.6,20.8,132.5,20.8,131.1
		z M22.2,131.1c0,1,0.2,1.8,0.7,2.3c0.5,0.5,1,0.8,1.7,0.8c0.7,0,1.3-0.3,1.7-0.8c0.5-0.5,0.7-1.3,0.7-2.4c0-1-0.2-1.8-0.7-2.3
		c-0.5-0.5-1-0.8-1.7-0.8c-0.7,0-1.3,0.3-1.7,0.8C22.4,129.3,22.2,130.1,22.2,131.1z"/>
	<path class="st0" d="M35.5,123.7l1.2,0c-0.1,0.5-0.2,0.9-0.4,1.1c-0.2,0.2-0.4,0.4-0.7,0.4c-0.3,0.1-0.9,0.1-1.7,0.1
		c-1.1,0-1.9,0.1-2.3,0.3c-0.4,0.2-0.7,0.6-0.9,1.1c-0.2,0.5-0.3,1.1-0.3,1.9c0.3-0.5,0.8-0.9,1.2-1.2c0.5-0.3,1-0.4,1.6-0.4
		c1.1,0,2,0.4,2.7,1.1c0.7,0.7,1.1,1.7,1.1,3c0,1-0.2,1.7-0.5,2.3c-0.4,0.6-0.8,1.1-1.3,1.4c-0.5,0.3-1.1,0.5-2,0.5
		c-1,0-1.7-0.2-2.3-0.7c-0.5-0.4-0.9-1-1.2-1.7c-0.3-0.7-0.4-1.9-0.4-3.6c0-2.2,0.4-3.6,1.1-4.4c0.7-0.7,1.9-1.1,3.4-1.1
		c0.9,0,1.5,0,1.6,0C35.4,123.9,35.4,123.8,35.5,123.7z M35.4,131.1c0-0.8-0.2-1.5-0.6-2.1c-0.4-0.5-1-0.8-1.7-0.8
		c-0.8,0-1.4,0.3-1.8,0.9c-0.4,0.6-0.6,1.3-0.6,2.3c0,0.9,0.2,1.7,0.7,2.2c0.5,0.5,1,0.8,1.7,0.8c0.7,0,1.2-0.3,1.7-0.9
		C35.2,132.8,35.4,132,35.4,131.1z"/>
	<path class="st0" d="M38,127h1.4v3.2h1.8c1.1,0,2,0.2,2.6,0.7c0.6,0.4,0.9,1.1,0.9,1.8c0,0.7-0.3,1.3-0.8,1.7
		c-0.5,0.5-1.3,0.7-2.5,0.7H38V127z M39.4,134.1h1.5c0.9,0,1.5-0.1,1.9-0.3c0.4-0.2,0.6-0.6,0.6-1c0-0.4-0.1-0.7-0.4-0.9
		c-0.3-0.3-0.9-0.4-1.8-0.4h-1.6V134.1z M45.7,127h1.4v8.2h-1.4V127z"/>
	<path class="st0" d="M48.7,127h1.4v3.4h3.8V127h1.4v8.2h-1.4v-3.6h-3.8v3.6h-1.4V127z"/>
	<path class="st0" d="M56.9,127h1.4v3.2H60c1.1,0,2,0.2,2.6,0.7c0.6,0.4,0.9,1.1,0.9,1.8c0,0.7-0.3,1.3-0.8,1.7
		c-0.5,0.5-1.3,0.7-2.5,0.7h-3.5V127z M58.3,134.1h1.5c0.9,0,1.5-0.1,1.9-0.3c0.4-0.2,0.6-0.6,0.6-1c0-0.4-0.1-0.7-0.4-0.9
		c-0.3-0.3-0.9-0.4-1.8-0.4h-1.6V134.1z M64.6,127H66v8.2h-1.4V127z"/>
	<path class="st0" d="M75.1,137.5H74v-2.3h-1.1v-3.6H69v3.6h-1.4V127H69v3.4h3.8V127h1.4v7h0.9V137.5z"/>
	<path class="st0" d="M80.7,127h5.7v7h0.9v3.4h-1.1v-2.3h-6.4v2.3h-1.1v-3.4h0.7C80.2,132.7,80.7,130.4,80.7,127z M81.8,128.2
		c-0.1,2.6-0.5,4.6-1.2,5.9H85v-5.9H81.8z"/>
	<path class="st0" d="M95.3,131c0,1.3-0.3,2.3-0.9,3.1c-0.7,0.8-1.6,1.3-2.9,1.3c-1.2,0-2.1-0.4-2.8-1.3c-0.6-0.8-0.9-1.8-0.9-3
		c0-0.1,0-0.2,0-0.4h6.1c0-0.8-0.3-1.4-0.7-1.9c-0.4-0.6-1-0.8-1.8-0.8c-1,0-1.8,0.6-2.2,1.7l-1.4-0.2c0.5-1.8,1.7-2.6,3.6-2.6
		c1.3,0,2.2,0.4,2.9,1.2C95,128.8,95.3,129.8,95.3,131z M93.8,131.9h-4.6c0.1,0.7,0.2,1.2,0.5,1.5c0.4,0.5,1,0.8,1.7,0.8
		c0.7,0,1.2-0.2,1.6-0.7C93.5,133.1,93.8,132.6,93.8,131.9z"/>
	<path class="st0" d="M96.4,138.3V127h1.3v1.1c0.3-0.4,0.6-0.7,1-0.9c0.4-0.2,0.8-0.3,1.4-0.3c0.7,0,1.3,0.2,1.8,0.5
		c0.5,0.4,0.9,0.9,1.2,1.5c0.3,0.7,0.4,1.4,0.4,2.1c0,0.8-0.1,1.6-0.4,2.3s-0.7,1.2-1.3,1.5c-0.6,0.4-1.2,0.5-1.8,0.5
		c-0.5,0-0.9-0.1-1.2-0.3c-0.4-0.2-0.7-0.4-0.9-0.7v4H96.4z M97.6,131.2c0,1.1,0.2,1.8,0.6,2.3c0.4,0.5,0.9,0.8,1.5,0.8
		c0.6,0,1.1-0.3,1.6-0.8c0.4-0.5,0.7-1.3,0.7-2.4c0-1-0.2-1.8-0.6-2.3c-0.4-0.5-0.9-0.8-1.5-0.8c-0.6,0-1.1,0.3-1.6,0.8
		C97.9,129.3,97.6,130.1,97.6,131.2z"/>
	<path class="st0" d="M104.3,138.3l-0.2-1.3c0.3,0.1,0.6,0.1,0.8,0.1c0.3,0,0.6-0.1,0.7-0.2c0.2-0.1,0.3-0.2,0.5-0.4
		c0.1-0.1,0.2-0.5,0.4-1c0-0.1,0.1-0.2,0.1-0.3l-3.1-8.2h1.5l1.7,4.7c0.2,0.6,0.4,1.2,0.6,1.9c0.2-0.6,0.3-1.3,0.6-1.9l1.7-4.8h1.4
		l-3.1,8.3c-0.3,0.9-0.6,1.5-0.8,1.9c-0.2,0.5-0.5,0.8-0.8,1c-0.3,0.2-0.7,0.3-1.1,0.3C105,138.5,104.7,138.4,104.3,138.3z"/>
	<path class="st0" d="M111.6,127h2.2l2.1,6.5l2.4-6.5h2v8.2h-1.4v-6.6l-2.4,6.6h-1.2l-2.3-6.9v6.9h-1.4V127z"/>
	<path class="st0" d="M127.4,132.6l1.4,0.2c-0.2,0.8-0.6,1.5-1.3,1.9c-0.6,0.5-1.4,0.7-2.3,0.7c-1.2,0-2.1-0.4-2.8-1.1
		c-0.7-0.7-1-1.8-1-3.1c0-1.4,0.4-2.4,1.1-3.2c0.7-0.8,1.6-1.1,2.7-1.1c1.1,0,2,0.4,2.7,1.1c0.7,0.7,1,1.8,1,3.1c0,0.1,0,0.2,0,0.4
		h-6.1c0.1,0.9,0.3,1.6,0.8,2.1c0.5,0.5,1,0.7,1.7,0.7c0.5,0,0.9-0.1,1.3-0.4C126.9,133.6,127.2,133.2,127.4,132.6z M122.9,130.3
		h4.6c-0.1-0.7-0.2-1.2-0.5-1.5c-0.4-0.5-1-0.8-1.7-0.8c-0.6,0-1.2,0.2-1.6,0.6C123.1,129.1,122.9,129.6,122.9,130.3z"/>
	<path class="st0" d="M130,127h1.4v3.4h3.8V127h1.4v8.2h-1.4v-3.6h-3.8v3.6H130V127z"/>
	<path class="st0" d="M139.2,127h5.7v7h0.9v3.4h-1.1v-2.3h-6.4v2.3h-1.1v-3.4h0.7C138.8,132.7,139.3,130.4,139.2,127z M140.4,128.2
		c-0.1,2.6-0.5,4.6-1.2,5.9h4.4v-5.9H140.4z"/>
	<path class="st0" d="M152.4,132.6l1.4,0.2c-0.2,0.8-0.6,1.5-1.3,1.9c-0.6,0.5-1.4,0.7-2.3,0.7c-1.2,0-2.1-0.4-2.8-1.1
		c-0.7-0.7-1-1.8-1-3.1c0-1.4,0.4-2.4,1.1-3.2c0.7-0.8,1.6-1.1,2.7-1.1c1.1,0,2,0.4,2.7,1.1c0.7,0.7,1,1.8,1,3.1c0,0.1,0,0.2,0,0.4
		h-6.1c0.1,0.9,0.3,1.6,0.8,2.1s1,0.7,1.7,0.7c0.5,0,0.9-0.1,1.3-0.4C151.9,133.6,152.1,133.2,152.4,132.6z M147.8,130.3h4.6
		c-0.1-0.7-0.2-1.2-0.5-1.5c-0.4-0.5-1-0.8-1.7-0.8c-0.6,0-1.2,0.2-1.6,0.6C148.1,129.1,147.9,129.6,147.8,130.3z"/>
	<path class="st0" d="M155,138.3V127h1.3v1.1c0.3-0.4,0.6-0.7,1-0.9c0.4-0.2,0.8-0.3,1.4-0.3c0.7,0,1.3,0.2,1.8,0.5
		c0.5,0.4,0.9,0.9,1.2,1.5c0.3,0.7,0.4,1.4,0.4,2.1c0,0.8-0.1,1.6-0.4,2.3s-0.7,1.2-1.3,1.5c-0.6,0.4-1.2,0.5-1.8,0.5
		c-0.5,0-0.9-0.1-1.2-0.3c-0.4-0.2-0.7-0.4-0.9-0.7v4H155z M156.2,131.2c0,1.1,0.2,1.8,0.6,2.3c0.4,0.5,0.9,0.8,1.5,0.8
		c0.6,0,1.1-0.3,1.6-0.8c0.4-0.5,0.7-1.3,0.7-2.4c0-1-0.2-1.8-0.6-2.3c-0.4-0.5-0.9-0.8-1.5-0.8c-0.6,0-1.1,0.3-1.6,0.8
		C156.4,129.3,156.2,130.1,156.2,131.2z"/>
	<path class="st0" d="M163.2,125.5v-1.6h1.4v1.6H163.2z M163.2,135.2V127h1.4v8.2H163.2z"/>
	<path class="st0" d="M166.5,128.6V127h1.6v1.6H166.5z M166.5,135.2v-1.6h1.6v1.6H166.5z"/>
	<path class="st0" d="M173.9,135.2v-11.3h4.2c0.9,0,1.6,0.1,2.1,0.3c0.5,0.2,0.9,0.6,1.2,1.1c0.3,0.5,0.4,1,0.4,1.5
		c0,0.5-0.1,0.9-0.4,1.4c-0.3,0.4-0.7,0.8-1.2,1c0.7,0.2,1.2,0.5,1.6,1c0.4,0.5,0.5,1.1,0.5,1.7c0,0.5-0.1,1-0.3,1.5s-0.5,0.8-0.8,1
		c-0.3,0.2-0.7,0.4-1.2,0.6c-0.5,0.1-1.1,0.2-1.8,0.2H173.9z M175.3,128.7h2.4c0.7,0,1.1,0,1.4-0.1c0.4-0.1,0.7-0.3,0.9-0.6
		c0.2-0.3,0.3-0.6,0.3-1c0-0.4-0.1-0.7-0.3-1c-0.2-0.3-0.4-0.5-0.8-0.6c-0.3-0.1-0.9-0.2-1.7-0.2h-2.3V128.7z M175.3,133.9h2.8
		c0.5,0,0.8,0,1-0.1c0.3-0.1,0.6-0.2,0.9-0.3c0.2-0.1,0.4-0.4,0.6-0.6c0.1-0.3,0.2-0.6,0.2-0.9c0-0.4-0.1-0.8-0.3-1.1
		c-0.2-0.3-0.5-0.5-0.9-0.7c-0.4-0.1-0.9-0.2-1.6-0.2h-2.6V133.9z"/>
	<path class="st0" d="M188.5,135.2h-1.4v-8.8c-0.3,0.3-0.8,0.6-1.3,1c-0.5,0.3-1,0.6-1.5,0.7v-1.3c0.8-0.4,1.4-0.8,2-1.3
		c0.6-0.5,1-1,1.2-1.5h0.9V135.2z"/>
	<path class="st0" d="M192.2,135.2v-1.6h1.6v1.6c0,0.6-0.1,1-0.3,1.4c-0.2,0.4-0.5,0.6-1,0.8l-0.4-0.6c0.3-0.1,0.5-0.3,0.6-0.6
		c0.1-0.2,0.2-0.6,0.2-1.1H192.2z"/>
	<path class="st0" d="M199.6,135.2v-11.3h4.2c0.9,0,1.6,0.1,2.1,0.3c0.5,0.2,0.9,0.6,1.2,1.1c0.3,0.5,0.4,1,0.4,1.5
		c0,0.5-0.1,0.9-0.4,1.4c-0.3,0.4-0.7,0.8-1.2,1c0.7,0.2,1.2,0.5,1.6,1c0.4,0.5,0.5,1.1,0.5,1.7c0,0.5-0.1,1-0.3,1.5s-0.5,0.8-0.8,1
		c-0.3,0.2-0.7,0.4-1.2,0.6c-0.5,0.1-1.1,0.2-1.8,0.2H199.6z M201.1,128.7h2.4c0.7,0,1.1,0,1.4-0.1c0.4-0.1,0.7-0.3,0.9-0.6
		c0.2-0.3,0.3-0.6,0.3-1c0-0.4-0.1-0.7-0.3-1c-0.2-0.3-0.4-0.5-0.8-0.6c-0.3-0.1-0.9-0.2-1.7-0.2h-2.3V128.7z M201.1,133.9h2.8
		c0.5,0,0.8,0,1-0.1c0.3-0.1,0.6-0.2,0.9-0.3c0.2-0.1,0.4-0.4,0.6-0.6c0.1-0.3,0.2-0.6,0.2-0.9c0-0.4-0.1-0.8-0.3-1.1
		c-0.2-0.3-0.5-0.5-0.9-0.7c-0.4-0.1-0.9-0.2-1.6-0.2h-2.6V133.9z"/>
	<path class="st0" d="M216.3,133.9v1.3h-7.4c0-0.3,0-0.7,0.2-1c0.2-0.5,0.5-1,0.9-1.5c0.4-0.5,1-1.1,1.8-1.7c1.2-1,2.1-1.8,2.5-2.4
		c0.4-0.6,0.6-1.1,0.6-1.7c0-0.5-0.2-1-0.6-1.4c-0.4-0.4-0.9-0.6-1.5-0.6c-0.7,0-1.2,0.2-1.6,0.6s-0.6,1-0.6,1.7l-1.4-0.1
		c0.1-1.1,0.5-1.9,1.1-2.4c0.6-0.6,1.5-0.8,2.6-0.8c1.1,0,1.9,0.3,2.6,0.9c0.6,0.6,0.9,1.3,0.9,2.2c0,0.5-0.1,0.9-0.3,1.3
		c-0.2,0.4-0.5,0.9-0.9,1.4c-0.4,0.5-1.1,1.1-2.1,2c-0.8,0.7-1.4,1.2-1.6,1.4c-0.2,0.2-0.4,0.5-0.6,0.7H216.3z"/>
	<path class="st0" d="M218,135.2v-1.6h1.6v1.6c0,0.6-0.1,1-0.3,1.4c-0.2,0.4-0.5,0.6-1,0.8l-0.4-0.6c0.3-0.1,0.5-0.3,0.6-0.6
		c0.1-0.2,0.2-0.6,0.2-1.1H218z"/>
	<path class="st0" d="M225.4,135.2v-11.3h4.2c0.9,0,1.6,0.1,2.1,0.3c0.5,0.2,0.9,0.6,1.2,1.1c0.3,0.5,0.4,1,0.4,1.5
		c0,0.5-0.1,0.9-0.4,1.4c-0.3,0.4-0.7,0.8-1.2,1c0.7,0.2,1.2,0.5,1.6,1c0.4,0.5,0.5,1.1,0.5,1.7c0,0.5-0.1,1-0.3,1.5s-0.5,0.8-0.8,1
		c-0.3,0.2-0.7,0.4-1.2,0.6c-0.5,0.1-1.1,0.2-1.8,0.2H225.4z M226.9,128.7h2.4c0.7,0,1.1,0,1.4-0.1c0.4-0.1,0.7-0.3,0.9-0.6
		c0.2-0.3,0.3-0.6,0.3-1c0-0.4-0.1-0.7-0.3-1c-0.2-0.3-0.4-0.5-0.8-0.6c-0.3-0.1-0.9-0.2-1.7-0.2h-2.3V128.7z M226.9,133.9h2.8
		c0.5,0,0.8,0,1-0.1c0.3-0.1,0.6-0.2,0.9-0.3c0.2-0.1,0.4-0.4,0.6-0.6c0.1-0.3,0.2-0.6,0.2-0.9c0-0.4-0.1-0.8-0.3-1.1
		c-0.2-0.3-0.5-0.5-0.9-0.7c-0.4-0.1-0.9-0.2-1.6-0.2h-2.6V133.9z"/>
	<path class="st0" d="M234.9,132.2l1.4-0.2c0.2,0.8,0.4,1.3,0.8,1.7c0.4,0.3,0.8,0.5,1.4,0.5c0.6,0,1.2-0.2,1.6-0.7
		c0.4-0.5,0.7-1,0.7-1.7c0-0.6-0.2-1.2-0.6-1.6c-0.4-0.4-0.9-0.6-1.6-0.6c-0.3,0-0.6,0.1-1,0.2l0.2-1.2c0.1,0,0.2,0,0.2,0
		c0.6,0,1.1-0.2,1.6-0.5c0.5-0.3,0.7-0.8,0.7-1.4c0-0.5-0.2-0.9-0.5-1.3c-0.3-0.3-0.8-0.5-1.3-0.5c-0.5,0-1,0.2-1.3,0.5
		c-0.4,0.3-0.6,0.8-0.7,1.5l-1.4-0.2c0.2-0.9,0.6-1.6,1.2-2.2c0.6-0.5,1.3-0.8,2.2-0.8c0.6,0,1.2,0.1,1.7,0.4
		c0.5,0.3,0.9,0.6,1.2,1.1c0.3,0.5,0.4,0.9,0.4,1.5c0,0.5-0.1,0.9-0.4,1.3c-0.3,0.4-0.6,0.7-1.2,1c0.7,0.2,1.2,0.5,1.6,1
		c0.4,0.5,0.6,1.1,0.6,1.8c0,1-0.4,1.8-1.1,2.5c-0.7,0.7-1.6,1-2.7,1c-1,0-1.8-0.3-2.5-0.9C235.3,133.9,235,133.2,234.9,132.2z"/>
	<path class="st0" d="M3.7,156.2c-0.8-1-1.4-2.1-1.9-3.4c-0.5-1.3-0.8-2.6-0.8-4c0-1.2,0.2-2.4,0.6-3.5c0.5-1.3,1.2-2.6,2.1-3.9h1
		c-0.6,1.1-1,1.8-1.2,2.3c-0.3,0.7-0.6,1.4-0.7,2.2c-0.2,1-0.3,1.9-0.3,2.9c0,2.5,0.8,4.9,2.3,7.4H3.7z"/>
	<path class="st0" d="M5.8,144.7h1.4v3.4H11v-3.4h1.4v8.2H11v-3.6H7.2v3.6H5.8V144.7z"/>
	<path class="st0" d="M13.9,144.7h1.4v6.2l3.8-6.2h1.5v8.2h-1.4v-6.2l-3.8,6.2h-1.5V144.7z"/>
	<path class="st0" d="M27.5,151.9c-0.5,0.4-1,0.7-1.5,0.9c-0.5,0.2-1,0.3-1.5,0.3c-0.9,0-1.6-0.2-2.1-0.7c-0.5-0.4-0.7-1-0.7-1.7
		c0-0.4,0.1-0.8,0.3-1.1c0.2-0.3,0.4-0.6,0.7-0.8c0.3-0.2,0.6-0.4,1-0.5c0.3-0.1,0.7-0.1,1.2-0.2c1.1-0.1,1.9-0.3,2.5-0.5
		c0-0.2,0-0.3,0-0.4c0-0.6-0.1-1-0.4-1.2c-0.4-0.3-0.9-0.5-1.6-0.5c-0.7,0-1.1,0.1-1.4,0.3c-0.3,0.2-0.5,0.6-0.7,1.2l-1.4-0.2
		c0.1-0.6,0.3-1,0.6-1.4c0.3-0.4,0.7-0.6,1.2-0.8c0.5-0.2,1.1-0.3,1.9-0.3c0.7,0,1.3,0.1,1.7,0.2c0.4,0.2,0.8,0.4,1,0.6
		c0.2,0.2,0.3,0.6,0.4,0.9c0,0.2,0.1,0.7,0.1,1.3v1.8c0,1.3,0,2.1,0.1,2.4c0.1,0.3,0.2,0.7,0.3,1h-1.4
		C27.6,152.6,27.5,152.3,27.5,151.9z M27.3,148.8c-0.5,0.2-1.3,0.4-2.3,0.5c-0.6,0.1-1,0.2-1.2,0.3c-0.2,0.1-0.4,0.3-0.5,0.4
		c-0.1,0.2-0.2,0.4-0.2,0.7c0,0.4,0.1,0.7,0.4,0.9c0.3,0.2,0.7,0.4,1.2,0.4c0.5,0,1-0.1,1.4-0.3c0.4-0.2,0.7-0.6,0.9-1
		c0.1-0.3,0.2-0.8,0.2-1.4V148.8z"/>
	<path class="st0" d="M30.4,144.7h1.4v7h3.8v-7h1.4v7h0.9v3.4h-1.1v-2.3h-6.3V144.7z"/>
	<path class="st0" d="M38.8,144.7h1.4v6.2l3.8-6.2h1.5v8.2h-1.4v-6.2l-3.8,6.2h-1.5V144.7z"/>
	<path class="st0" d="M47,144.7h1.4v3.4h3.8v-3.4h1.4v8.2h-1.4v-3.6h-3.8v3.6H47V144.7z"/>
	<path class="st0" d="M56.1,156.2h-1c1.5-2.5,2.3-4.9,2.3-7.4c0-1-0.1-1.9-0.3-2.9c-0.2-0.8-0.4-1.5-0.7-2.2
		c-0.2-0.5-0.6-1.2-1.2-2.3h1c1,1.3,1.7,2.6,2.1,3.9c0.4,1.1,0.6,2.3,0.6,3.5c0,1.4-0.3,2.7-0.8,4C57.5,154.1,56.8,155.2,56.1,156.2
		z"/>
	<path class="st0" d="M60.2,152.9v-1.6h1.6v1.6c0,0.6-0.1,1-0.3,1.4c-0.2,0.4-0.5,0.6-1,0.8l-0.4-0.6c0.3-0.1,0.5-0.3,0.6-0.6
		c0.1-0.2,0.2-0.6,0.2-1.1H60.2z"/>
	<path class="st0" d="M67.6,152.9v-11.3h4.2c0.9,0,1.5,0.1,2.1,0.3c0.5,0.2,0.9,0.6,1.2,1.1c0.3,0.5,0.4,1,0.4,1.5
		c0,0.5-0.1,0.9-0.4,1.4c-0.3,0.4-0.7,0.8-1.2,1c0.7,0.2,1.2,0.5,1.6,1c0.4,0.5,0.5,1.1,0.5,1.7c0,0.5-0.1,1-0.3,1.5
		c-0.2,0.5-0.5,0.8-0.8,1c-0.3,0.2-0.7,0.4-1.2,0.6c-0.5,0.1-1.1,0.2-1.8,0.2H67.6z M69.1,146.4h2.4c0.7,0,1.1,0,1.4-0.1
		c0.4-0.1,0.7-0.3,0.9-0.6c0.2-0.3,0.3-0.6,0.3-1c0-0.4-0.1-0.7-0.3-1c-0.2-0.3-0.4-0.5-0.8-0.6c-0.3-0.1-0.9-0.2-1.7-0.2h-2.3
		V146.4z M69.1,151.6h2.8c0.5,0,0.8,0,1-0.1c0.3-0.1,0.6-0.2,0.9-0.3c0.2-0.1,0.4-0.4,0.6-0.6c0.1-0.3,0.2-0.6,0.2-0.9
		c0-0.4-0.1-0.8-0.3-1.1c-0.2-0.3-0.5-0.5-0.9-0.7c-0.4-0.1-0.9-0.2-1.6-0.2h-2.6V151.6z"/>
	<path class="st0" d="M84.2,144.4l-1.4,0.1c-0.1-0.5-0.3-0.9-0.5-1.2c-0.4-0.4-0.8-0.6-1.4-0.6c-0.4,0-0.8,0.1-1.2,0.4
		c-0.4,0.3-0.8,0.8-1,1.4c-0.3,0.6-0.4,1.5-0.4,2.6c0.3-0.5,0.7-0.9,1.2-1.1c0.5-0.2,1-0.4,1.5-0.4c0.9,0,1.7,0.3,2.4,1
		c0.6,0.7,1,1.6,1,2.6c0,0.7-0.2,1.4-0.5,2c-0.3,0.6-0.7,1.1-1.3,1.4c-0.5,0.3-1.1,0.5-1.8,0.5c-1.2,0-2.1-0.4-2.8-1.3
		c-0.7-0.8-1.1-2.2-1.1-4.2c0-2.2,0.4-3.8,1.2-4.7c0.7-0.9,1.6-1.3,2.8-1.3c0.9,0,1.6,0.2,2.2,0.7C83.8,142.8,84.1,143.5,84.2,144.4
		z M78.6,149.2c0,0.5,0.1,0.9,0.3,1.4c0.2,0.4,0.5,0.8,0.8,1c0.4,0.2,0.7,0.3,1.1,0.3c0.6,0,1.1-0.2,1.5-0.7
		c0.4-0.5,0.6-1.1,0.6-1.9c0-0.8-0.2-1.4-0.6-1.8c-0.4-0.4-0.9-0.7-1.6-0.7c-0.6,0-1.2,0.2-1.6,0.7
		C78.8,147.9,78.6,148.5,78.6,149.2z"/>
	<path class="st0" d="M86,152.9v-1.6h1.6v1.6c0,0.6-0.1,1-0.3,1.4c-0.2,0.4-0.5,0.6-1,0.8l-0.4-0.6c0.3-0.1,0.5-0.3,0.6-0.6
		s0.2-0.6,0.2-1.1H86z"/>
	<path class="st0" d="M93.4,152.9v-11.3h4.2c0.9,0,1.5,0.1,2.1,0.3c0.5,0.2,0.9,0.6,1.2,1.1c0.3,0.5,0.4,1,0.4,1.5
		c0,0.5-0.1,0.9-0.4,1.4c-0.3,0.4-0.7,0.8-1.2,1c0.7,0.2,1.2,0.5,1.6,1c0.4,0.5,0.5,1.1,0.5,1.7c0,0.5-0.1,1-0.3,1.5
		c-0.2,0.5-0.5,0.8-0.8,1c-0.3,0.2-0.7,0.4-1.2,0.6c-0.5,0.1-1.1,0.2-1.8,0.2H93.4z M94.9,146.4h2.4c0.7,0,1.1,0,1.4-0.1
		c0.4-0.1,0.7-0.3,0.9-0.6c0.2-0.3,0.3-0.6,0.3-1c0-0.4-0.1-0.7-0.3-1c-0.2-0.3-0.4-0.5-0.8-0.6c-0.3-0.1-0.9-0.2-1.7-0.2h-2.3
		V146.4z M94.9,151.6h2.8c0.5,0,0.8,0,1-0.1c0.3-0.1,0.6-0.2,0.9-0.3c0.2-0.1,0.4-0.4,0.6-0.6c0.1-0.3,0.2-0.6,0.2-0.9
		c0-0.4-0.1-0.8-0.3-1.1c-0.2-0.3-0.5-0.5-0.9-0.7c-0.4-0.1-0.9-0.2-1.6-0.2h-2.6V151.6z"/>
	<path class="st0" d="M103,150.3l1.3-0.1c0.1,0.6,0.3,1.1,0.6,1.4c0.3,0.3,0.7,0.4,1.2,0.4c0.4,0,0.8-0.1,1.1-0.3
		c0.3-0.2,0.6-0.5,0.8-0.8c0.2-0.3,0.4-0.8,0.5-1.3c0.1-0.6,0.2-1.1,0.2-1.7c0-0.1,0-0.2,0-0.3c-0.3,0.4-0.7,0.8-1.1,1.1
		c-0.5,0.3-1,0.4-1.6,0.4c-0.9,0-1.7-0.3-2.4-1c-0.6-0.7-1-1.6-1-2.7c0-1.1,0.3-2.1,1-2.8c0.7-0.7,1.5-1,2.5-1c0.7,0,1.4,0.2,2,0.6
		c0.6,0.4,1.1,1,1.4,1.7s0.5,1.8,0.5,3.2c0,1.4-0.2,2.6-0.5,3.4c-0.3,0.9-0.8,1.5-1.4,1.9c-0.6,0.4-1.3,0.7-2.2,0.7
		c-0.9,0-1.6-0.2-2.2-0.7C103.5,151.9,103.1,151.2,103,150.3z M108.7,145.3c0-0.8-0.2-1.4-0.6-1.9c-0.4-0.5-0.9-0.7-1.5-0.7
		c-0.6,0-1.1,0.3-1.6,0.8c-0.5,0.5-0.7,1.2-0.7,2c0,0.7,0.2,1.3,0.6,1.7c0.4,0.4,1,0.7,1.6,0.7c0.6,0,1.2-0.2,1.6-0.7
		C108.5,146.7,108.7,146.1,108.7,145.3z"/>
	<path class="st0" d="M117.9,156.2c-0.8-1-1.4-2.1-1.9-3.4c-0.5-1.3-0.8-2.6-0.8-4c0-1.2,0.2-2.4,0.6-3.5c0.5-1.3,1.2-2.6,2.1-3.9h1
		c-0.6,1.1-1,1.8-1.2,2.3c-0.3,0.7-0.6,1.4-0.7,2.2c-0.2,1-0.3,1.9-0.3,2.9c0,2.5,0.8,4.9,2.3,7.4H117.9z"/>
	<path class="st0" d="M124.6,141.6h1.4v3.9c0.3-0.3,0.6-0.6,0.9-0.7c0.3-0.2,0.7-0.2,1.1-0.2c1,0,1.7,0.4,2.3,1.2s0.8,1.8,0.8,3
		c0,1.3-0.3,2.3-0.9,3.1c-0.6,0.8-1.4,1.2-2.3,1.2c-0.3,0-0.6,0-0.9-0.1c-0.3-0.1-0.7-0.3-1.1-0.8v3.8h-1.4v-3.8
		c-0.3,0.3-0.6,0.5-0.9,0.7c-0.3,0.1-0.7,0.2-1.1,0.2c-0.9,0-1.6-0.4-2.2-1.1c-0.6-0.7-1-1.8-1-3.2c0-1.2,0.3-2.2,0.9-3
		c0.6-0.8,1.4-1.2,2.3-1.2c0.4,0,0.8,0.1,1.1,0.2c0.3,0.2,0.6,0.4,0.9,0.7V141.6z M120.8,148.7c0,1.2,0.2,2,0.6,2.5
		c0.4,0.5,0.9,0.8,1.4,0.8c0.6,0,1-0.3,1.3-0.8c0.3-0.5,0.4-1.3,0.4-2.3c0-1.1-0.2-1.9-0.5-2.4c-0.3-0.5-0.8-0.8-1.4-0.8
		c-0.6,0-1,0.3-1.4,0.8C121,147,120.8,147.7,120.8,148.7z M126,148.8c0,1.2,0.2,2.1,0.5,2.5s0.8,0.6,1.3,0.6c0.6,0,1-0.3,1.4-0.8
		c0.4-0.5,0.6-1.3,0.6-2.4c0-1-0.2-1.8-0.5-2.3c-0.4-0.5-0.8-0.8-1.4-0.8c-0.6,0-1.1,0.3-1.4,0.8C126.2,147,126,147.8,126,148.8z"/>
	<path class="st0" d="M131.8,148.8c0-1.5,0.4-2.6,1.3-3.4c0.7-0.6,1.6-0.9,2.6-0.9c1.1,0,2,0.4,2.7,1.1c0.7,0.7,1.1,1.8,1.1,3
		c0,1.1-0.2,1.9-0.5,2.5c-0.3,0.6-0.8,1.1-1.4,1.4c-0.6,0.3-1.3,0.5-2,0.5c-1.1,0-2.1-0.4-2.8-1.1
		C132.1,151.2,131.8,150.2,131.8,148.8z M133.2,148.8c0,1,0.2,1.8,0.7,2.3c0.5,0.5,1,0.8,1.7,0.8c0.7,0,1.3-0.3,1.7-0.8
		c0.5-0.5,0.7-1.3,0.7-2.4c0-1-0.2-1.8-0.7-2.3c-0.5-0.5-1-0.8-1.7-0.8c-0.7,0-1.3,0.3-1.7,0.8C133.4,147,133.2,147.8,133.2,148.8z"
		/>
	<path class="st0" d="M140.8,144.7h6.4v8.2h-1.4v-7h-3.7v4.1c0,0.9,0,1.6-0.1,1.9c-0.1,0.3-0.2,0.6-0.5,0.8
		c-0.3,0.2-0.7,0.3-1.2,0.3c-0.3,0-0.7,0-1.1-0.1v-1.2h0.6c0.3,0,0.5,0,0.6-0.1c0.1-0.1,0.2-0.2,0.2-0.3c0-0.1,0.1-0.5,0.1-1.3
		V144.7z"/>
	<path class="st0" d="M148.8,144.7h1.4v6.2l3.8-6.2h1.5v8.2h-1.4v-6.2l-3.8,6.2h-1.5V144.7z"/>
	<path class="st0" d="M157,144.7h1.4v6.2l3.8-6.2h1.5v8.2h-1.4v-6.2l-3.8,6.2H157V144.7z M161.8,141.6h0.9c-0.1,0.6-0.3,1.1-0.7,1.5
		c-0.4,0.3-0.9,0.5-1.6,0.5c-0.7,0-1.2-0.2-1.6-0.5c-0.4-0.3-0.6-0.8-0.7-1.5h0.9c0.1,0.3,0.2,0.6,0.4,0.8c0.2,0.2,0.5,0.3,0.9,0.3
		c0.4,0,0.7-0.1,0.9-0.2C161.6,142.3,161.7,142,161.8,141.6z"/>
	<path class="st0" d="M174.8,155.2h-1.1v-2.3h-0.2l-1.5-2.5c-0.2-0.4-0.5-0.7-0.6-0.9c-0.3-0.3-0.6-0.4-1-0.4v3.8h-1.4v-8.2h1.4v3.5
		c0.5,0,0.9-0.2,1.1-0.5c0.1-0.1,0.3-0.5,0.6-1.2c0.2-0.5,0.4-0.8,0.5-1c0.2-0.4,0.5-0.6,0.8-0.7c0.2-0.1,0.6-0.1,1.1-0.1h0.3v1.1
		l-0.4,0c-0.4,0-0.7,0.1-0.8,0.3c-0.1,0.1-0.2,0.4-0.4,0.9c-0.2,0.5-0.4,0.8-0.5,1c-0.2,0.3-0.5,0.5-0.9,0.7
		c0.6,0.2,1.2,0.7,1.8,1.7l0.8,1.4h0.5V155.2z"/>
	<path class="st0" d="M175.4,144.7h1.4v3.2h1.8c1.1,0,2,0.2,2.6,0.7c0.6,0.4,0.9,1.1,0.9,1.8c0,0.7-0.3,1.3-0.8,1.7
		c-0.5,0.5-1.3,0.7-2.5,0.7h-3.5V144.7z M176.8,151.8h1.5c0.9,0,1.5-0.1,1.9-0.3c0.4-0.2,0.6-0.6,0.6-1c0-0.4-0.1-0.7-0.4-0.9
		s-0.9-0.4-1.8-0.4h-1.6V151.8z M183.2,144.7h1.4v8.2h-1.4V144.7z"/>
	<path class="st0" d="M186.2,144.7h1.4v7h3.1v-7h1.4v7h3.2v-7h1.4v8.2h-10.4V144.7z"/>
	<path class="st0" d="M204,155.2h-1.1v-2.3h-0.2l-1.5-2.5c-0.2-0.4-0.5-0.7-0.6-0.9c-0.3-0.3-0.6-0.4-1-0.4v3.8h-1.4v-8.2h1.4v3.5
		c0.5,0,0.9-0.2,1.1-0.5c0.1-0.1,0.3-0.5,0.6-1.2c0.2-0.5,0.4-0.8,0.5-1c0.2-0.4,0.5-0.6,0.8-0.7c0.2-0.1,0.6-0.1,1.1-0.1h0.3v1.1
		l-0.4,0c-0.4,0-0.7,0.1-0.8,0.3c-0.1,0.1-0.2,0.4-0.4,0.9c-0.2,0.5-0.4,0.8-0.5,1c-0.2,0.3-0.5,0.5-0.9,0.7
		c0.6,0.2,1.2,0.7,1.8,1.7l0.8,1.4h0.5V155.2z"/>
	<path class="st0" d="M204.6,144.7h1.4v3.2h1.8c1.1,0,2,0.2,2.6,0.7c0.6,0.4,0.9,1.1,0.9,1.8c0,0.7-0.3,1.3-0.8,1.7
		c-0.5,0.5-1.3,0.7-2.5,0.7h-3.5V144.7z M206,151.8h1.5c0.9,0,1.5-0.1,1.9-0.3c0.4-0.2,0.6-0.6,0.6-1c0-0.4-0.1-0.7-0.4-0.9
		s-0.9-0.4-1.8-0.4H206V151.8z M212.3,144.7h1.4v8.2h-1.4V144.7z"/>
	<path class="st0" d="M216,144.7h6.4v8.2H221v-7h-3.7v4.1c0,0.9,0,1.6-0.1,1.9c-0.1,0.3-0.2,0.6-0.5,0.8c-0.3,0.2-0.7,0.3-1.2,0.3
		c-0.3,0-0.7,0-1.1-0.1v-1.2h0.6c0.3,0,0.5,0,0.6-0.1c0.1-0.1,0.2-0.2,0.2-0.3c0-0.1,0.1-0.5,0.1-1.3V144.7z"/>
	<path class="st0" d="M224,144.7h1.4v3.2h1.8c1.1,0,2,0.2,2.6,0.7c0.6,0.4,0.9,1.1,0.9,1.8c0,0.7-0.3,1.3-0.8,1.7
		c-0.5,0.5-1.3,0.7-2.5,0.7H224V144.7z M225.3,151.8h1.5c0.9,0,1.5-0.1,1.9-0.3c0.4-0.2,0.6-0.6,0.6-1c0-0.4-0.1-0.7-0.4-0.9
		s-0.9-0.4-1.8-0.4h-1.6V151.8z M231.7,144.7h1.4v8.2h-1.4V144.7z"/>
	<path class="st0" d="M235.6,156.2h-1c1.5-2.5,2.3-4.9,2.3-7.4c0-1-0.1-1.9-0.3-2.9c-0.2-0.8-0.4-1.5-0.7-2.2
		c-0.2-0.5-0.6-1.2-1.2-2.3h1c1,1.3,1.7,2.6,2.1,3.9c0.4,1.1,0.6,2.3,0.6,3.5c0,1.4-0.3,2.7-0.8,4
		C237,154.1,236.3,155.2,235.6,156.2z"/>
	<path class="st0" d="M239.7,152.9v-1.6h1.6v1.6c0,0.6-0.1,1-0.3,1.4c-0.2,0.4-0.5,0.6-1,0.8l-0.4-0.6c0.3-0.1,0.5-0.3,0.6-0.6
		c0.1-0.2,0.2-0.6,0.2-1.1H239.7z"/>
	<path class="st0" d="M1.2,170.6v-11.3h4.2c0.9,0,1.5,0.1,2.1,0.3c0.5,0.2,0.9,0.6,1.2,1.1c0.3,0.5,0.4,1,0.4,1.5
		c0,0.5-0.1,0.9-0.4,1.4c-0.3,0.4-0.7,0.8-1.2,1c0.7,0.2,1.2,0.5,1.6,1c0.4,0.5,0.5,1.1,0.5,1.7c0,0.5-0.1,1-0.3,1.5
		c-0.2,0.5-0.5,0.8-0.8,1c-0.3,0.2-0.7,0.4-1.2,0.6c-0.5,0.1-1.1,0.2-1.8,0.2H1.2z M2.7,164.1h2.4c0.7,0,1.1,0,1.4-0.1
		c0.4-0.1,0.7-0.3,0.9-0.6c0.2-0.3,0.3-0.6,0.3-1c0-0.4-0.1-0.7-0.3-1c-0.2-0.3-0.4-0.5-0.8-0.6c-0.3-0.1-0.9-0.2-1.7-0.2H2.7V164.1
		z M2.7,169.3h2.8c0.5,0,0.8,0,1-0.1c0.3-0.1,0.6-0.2,0.9-0.3c0.2-0.1,0.4-0.4,0.6-0.6c0.1-0.3,0.2-0.6,0.2-0.9
		c0-0.4-0.1-0.8-0.3-1.1c-0.2-0.3-0.5-0.5-0.9-0.7c-0.4-0.1-0.9-0.2-1.6-0.2H2.7V169.3z"/>
	<path class="st0" d="M15.8,170.6h-1.4v-8.8c-0.3,0.3-0.8,0.6-1.3,1c-0.5,0.3-1,0.6-1.5,0.7v-1.3c0.8-0.4,1.4-0.8,2-1.3
		c0.6-0.5,1-1,1.2-1.5h0.9V170.6z"/>
	<path class="st0" d="M26.1,169.3v1.3h-7.4c0-0.3,0-0.7,0.2-1c0.2-0.5,0.5-1,0.9-1.5c0.4-0.5,1-1.1,1.8-1.7c1.2-1,2.1-1.8,2.5-2.4
		c0.4-0.6,0.6-1.1,0.6-1.7c0-0.5-0.2-1-0.6-1.4c-0.4-0.4-0.9-0.6-1.5-0.6c-0.7,0-1.2,0.2-1.6,0.6s-0.6,1-0.6,1.7l-1.4-0.1
		c0.1-1.1,0.5-1.9,1.1-2.4c0.6-0.6,1.5-0.8,2.6-0.8c1.1,0,1.9,0.3,2.6,0.9c0.6,0.6,0.9,1.3,0.9,2.2c0,0.5-0.1,0.9-0.3,1.3
		c-0.2,0.4-0.5,0.9-0.9,1.4c-0.4,0.5-1.1,1.1-2.1,2c-0.8,0.7-1.4,1.2-1.6,1.4c-0.2,0.2-0.4,0.5-0.6,0.7H26.1z"/>
	<path class="st0" d="M27.8,170.6V169h1.6v1.6H27.8z"/>
	<path class="st0" d="M35.3,170.6v-11.3h8.1v1.3h-6.7v3.4H43v1.3h-6.2v3.8h6.9v1.3H35.3z"/>
	<path class="st0" d="M45,173.7v-11.3h1.3v1.1c0.3-0.4,0.6-0.7,1-0.9c0.4-0.2,0.8-0.3,1.4-0.3c0.7,0,1.3,0.2,1.8,0.5
		c0.5,0.4,0.9,0.9,1.2,1.5c0.3,0.7,0.4,1.4,0.4,2.1c0,0.8-0.1,1.6-0.4,2.3c-0.3,0.7-0.7,1.2-1.3,1.5c-0.6,0.4-1.2,0.5-1.8,0.5
		c-0.5,0-0.9-0.1-1.2-0.3c-0.4-0.2-0.7-0.4-0.9-0.7v4H45z M46.2,166.6c0,1.1,0.2,1.8,0.6,2.3c0.4,0.5,0.9,0.8,1.5,0.8
		c0.6,0,1.1-0.3,1.6-0.8c0.4-0.5,0.7-1.3,0.7-2.4c0-1-0.2-1.8-0.6-2.3c-0.4-0.5-0.9-0.8-1.5-0.8c-0.6,0-1.1,0.3-1.6,0.8
		C46.5,164.7,46.2,165.5,46.2,166.6z"/>
	<path class="st0" d="M58.8,168l1.4,0.2c-0.2,0.8-0.6,1.5-1.3,1.9c-0.6,0.5-1.4,0.7-2.3,0.7c-1.2,0-2.1-0.4-2.8-1.1
		c-0.7-0.7-1-1.8-1-3.1c0-1.4,0.4-2.4,1.1-3.2c0.7-0.8,1.6-1.1,2.7-1.1c1.1,0,2,0.4,2.7,1.1c0.7,0.7,1,1.8,1,3.1c0,0.1,0,0.2,0,0.4
		h-6.1c0.1,0.9,0.3,1.6,0.8,2.1c0.5,0.5,1,0.7,1.7,0.7c0.5,0,0.9-0.1,1.3-0.4C58.3,169,58.6,168.5,58.8,168z M54.2,165.7h4.6
		c-0.1-0.7-0.2-1.2-0.5-1.5c-0.4-0.5-1-0.8-1.7-0.8c-0.6,0-1.2,0.2-1.6,0.6C54.5,164.4,54.3,165,54.2,165.7z"/>
	<path class="st0" d="M66.7,167.6l1.4,0.2c-0.1,0.9-0.5,1.7-1.1,2.2c-0.6,0.5-1.4,0.8-2.3,0.8c-1.1,0-2-0.4-2.7-1.1
		c-0.7-0.7-1-1.8-1-3.1c0-0.9,0.1-1.7,0.4-2.3c0.3-0.7,0.7-1.2,1.3-1.5c0.6-0.3,1.2-0.5,1.9-0.5c0.9,0,1.6,0.2,2.2,0.7
		c0.6,0.4,0.9,1.1,1.1,1.9l-1.3,0.2c-0.1-0.5-0.4-1-0.7-1.2c-0.3-0.3-0.7-0.4-1.2-0.4c-0.7,0-1.3,0.2-1.7,0.7
		c-0.4,0.5-0.7,1.3-0.7,2.4c0,1.1,0.2,1.9,0.6,2.4c0.4,0.5,1,0.7,1.6,0.7c0.5,0,1-0.2,1.4-0.5C66.4,168.8,66.6,168.3,66.7,167.6z"/>
	<path class="st0" d="M74.3,168l1.4,0.2c-0.2,0.8-0.6,1.5-1.3,1.9c-0.6,0.5-1.4,0.7-2.3,0.7c-1.2,0-2.1-0.4-2.8-1.1
		c-0.7-0.7-1-1.8-1-3.1c0-1.4,0.4-2.4,1.1-3.2c0.7-0.8,1.6-1.1,2.7-1.1c1.1,0,2,0.4,2.7,1.1c0.7,0.7,1,1.8,1,3.1c0,0.1,0,0.2,0,0.4
		h-6.1c0.1,0.9,0.3,1.6,0.8,2.1c0.5,0.5,1,0.7,1.7,0.7c0.5,0,0.9-0.1,1.3-0.4C73.8,169,74.1,168.5,74.3,168z M69.7,165.7h4.6
		c-0.1-0.7-0.2-1.2-0.5-1.5c-0.4-0.5-1-0.8-1.7-0.8c-0.6,0-1.2,0.2-1.6,0.6C70,164.4,69.8,165,69.7,165.7z"/>
	<path class="st0" d="M76.9,162.4h1.4v3.5c0.4,0,0.7-0.1,0.9-0.3s0.4-0.7,0.8-1.5c0.3-0.6,0.5-1.1,0.7-1.3c0.2-0.2,0.4-0.3,0.6-0.4
		c0.2-0.1,0.6-0.1,1.1-0.1h0.3v1.1l-0.4,0c-0.4,0-0.6,0.1-0.7,0.2c-0.1,0.1-0.3,0.4-0.5,1c-0.2,0.5-0.4,0.9-0.6,1.1
		c-0.2,0.2-0.4,0.4-0.8,0.6c0.6,0.2,1.2,0.7,1.8,1.7l1.5,2.5h-1.5l-1.5-2.5c-0.3-0.5-0.6-0.8-0.8-1c-0.2-0.2-0.5-0.2-0.8-0.2v3.8
		h-1.4V162.4z"/>
	<path class="st0" d="M82.7,162.4h6.6v1.1h-2.6v7h-1.4v-7h-2.6V162.4z"/>
	<path class="st0" d="M95.5,168l1.4,0.2c-0.2,0.8-0.6,1.5-1.3,1.9c-0.6,0.5-1.4,0.7-2.3,0.7c-1.2,0-2.1-0.4-2.8-1.1
		c-0.7-0.7-1-1.8-1-3.1c0-1.4,0.4-2.4,1.1-3.2c0.7-0.8,1.6-1.1,2.7-1.1c1.1,0,2,0.4,2.7,1.1c0.7,0.7,1,1.8,1,3.1c0,0.1,0,0.2,0,0.4
		h-6.1c0.1,0.9,0.3,1.6,0.8,2.1c0.5,0.5,1,0.7,1.7,0.7c0.5,0,0.9-0.1,1.3-0.4C95,169,95.2,168.5,95.5,168z M90.9,165.7h4.6
		c-0.1-0.7-0.2-1.2-0.5-1.5c-0.4-0.5-1-0.8-1.7-0.8c-0.6,0-1.2,0.2-1.6,0.6C91.2,164.4,91,165,90.9,165.7z"/>
	<path class="st0" d="M98.1,173.7v-11.3h1.3v1.1c0.3-0.4,0.6-0.7,1-0.9c0.4-0.2,0.8-0.3,1.4-0.3c0.7,0,1.3,0.2,1.8,0.5
		c0.5,0.4,0.9,0.9,1.2,1.5c0.3,0.7,0.4,1.4,0.4,2.1c0,0.8-0.1,1.6-0.4,2.3c-0.3,0.7-0.7,1.2-1.3,1.5c-0.6,0.4-1.2,0.5-1.8,0.5
		c-0.5,0-0.9-0.1-1.2-0.3c-0.4-0.2-0.7-0.4-0.9-0.7v4H98.1z M99.3,166.6c0,1.1,0.2,1.8,0.6,2.3c0.4,0.5,0.9,0.8,1.5,0.8
		c0.6,0,1.1-0.3,1.6-0.8c0.4-0.5,0.7-1.3,0.7-2.4c0-1-0.2-1.8-0.6-2.3c-0.4-0.5-0.9-0.8-1.5-0.8c-0.6,0-1.1,0.3-1.6,0.8
		C99.6,164.7,99.3,165.5,99.3,166.6z"/>
	<path class="st0" d="M106.3,162.4h4.7v1.1h-3.3v7h-1.4V162.4z"/>
	<path class="st0" d="M116.7,168l1.4,0.2c-0.2,0.8-0.6,1.5-1.3,1.9c-0.6,0.5-1.4,0.7-2.3,0.7c-1.2,0-2.1-0.4-2.8-1.1
		c-0.7-0.7-1-1.8-1-3.1c0-1.4,0.4-2.4,1.1-3.2c0.7-0.8,1.6-1.1,2.7-1.1c1.1,0,2,0.4,2.7,1.1c0.7,0.7,1,1.8,1,3.1c0,0.1,0,0.2,0,0.4
		h-6.1c0.1,0.9,0.3,1.6,0.8,2.1c0.5,0.5,1,0.7,1.7,0.7c0.5,0,0.9-0.1,1.3-0.4C116.2,169,116.5,168.5,116.7,168z M112.2,165.7h4.6
		c-0.1-0.7-0.2-1.2-0.5-1.5c-0.4-0.5-1-0.8-1.7-0.8c-0.6,0-1.2,0.2-1.6,0.6C112.4,164.4,112.2,165,112.2,165.7z"/>
	<path class="st0" d="M128,170.6h-1.4v-8.8c-0.3,0.3-0.8,0.6-1.3,1c-0.5,0.3-1,0.6-1.5,0.7v-1.3c0.8-0.4,1.4-0.8,2-1.3
		c0.6-0.5,1-1,1.2-1.5h0.9V170.6z"/>
	<path class="st0" d="M135.1,162.4h1.4v3.5c0.4,0,0.7-0.1,0.9-0.3s0.4-0.7,0.8-1.5c0.3-0.6,0.5-1.1,0.7-1.3c0.2-0.2,0.4-0.3,0.6-0.4
		c0.2-0.1,0.6-0.1,1.1-0.1h0.3v1.1l-0.4,0c-0.4,0-0.6,0.1-0.7,0.2c-0.1,0.1-0.3,0.4-0.5,1c-0.2,0.5-0.4,0.9-0.6,1.1
		c-0.2,0.2-0.4,0.4-0.8,0.6c0.6,0.2,1.2,0.7,1.8,1.7l1.5,2.5h-1.5l-1.5-2.5c-0.3-0.5-0.6-0.8-0.8-1c-0.2-0.2-0.5-0.2-0.8-0.2v3.8
		h-1.4V162.4z"/>
	<path class="st0" d="M147.1,169.6c-0.5,0.4-1,0.7-1.5,0.9c-0.5,0.2-1,0.3-1.5,0.3c-0.9,0-1.6-0.2-2.1-0.7c-0.5-0.4-0.7-1-0.7-1.7
		c0-0.4,0.1-0.8,0.3-1.1s0.4-0.6,0.7-0.8c0.3-0.2,0.6-0.4,1-0.5c0.3-0.1,0.7-0.1,1.2-0.2c1.1-0.1,1.9-0.3,2.5-0.5c0-0.2,0-0.3,0-0.4
		c0-0.6-0.1-1-0.4-1.2c-0.4-0.3-0.9-0.5-1.6-0.5c-0.6,0-1.1,0.1-1.4,0.3c-0.3,0.2-0.5,0.6-0.7,1.2l-1.4-0.2c0.1-0.6,0.3-1,0.6-1.4
		c0.3-0.4,0.7-0.6,1.2-0.8s1.1-0.3,1.9-0.3c0.7,0,1.3,0.1,1.7,0.2c0.4,0.2,0.8,0.4,1,0.6c0.2,0.2,0.3,0.6,0.4,0.9
		c0,0.2,0.1,0.7,0.1,1.3v1.8c0,1.3,0,2.1,0.1,2.4c0.1,0.3,0.2,0.7,0.3,1h-1.4C147.3,170.3,147.2,170,147.1,169.6z M147,166.5
		c-0.5,0.2-1.3,0.4-2.3,0.5c-0.6,0.1-1,0.2-1.2,0.3c-0.2,0.1-0.4,0.3-0.5,0.4c-0.1,0.2-0.2,0.4-0.2,0.7c0,0.4,0.1,0.7,0.4,0.9
		s0.7,0.4,1.2,0.4c0.5,0,1-0.1,1.4-0.3c0.4-0.2,0.7-0.6,0.9-1c0.1-0.3,0.2-0.8,0.2-1.4V166.5z"/>
	<path class="st0" d="M150,162.4h6.4v8.2h-1.4v-7h-3.7v7H150V162.4z"/>
	<path class="st0" d="M161.8,162.4h1.4v3.5c0.4,0,0.7-0.1,0.9-0.3s0.4-0.7,0.8-1.5c0.3-0.6,0.5-1.1,0.7-1.3c0.2-0.2,0.4-0.3,0.6-0.4
		c0.2-0.1,0.6-0.1,1.1-0.1h0.3v1.1l-0.4,0c-0.4,0-0.6,0.1-0.7,0.2c-0.1,0.1-0.3,0.4-0.5,1c-0.2,0.5-0.4,0.9-0.6,1.1
		c-0.2,0.2-0.4,0.4-0.8,0.6c0.6,0.2,1.2,0.7,1.8,1.7l1.5,2.5h-1.5l-1.5-2.5c-0.3-0.5-0.6-0.8-0.8-1c-0.2-0.2-0.5-0.2-0.8-0.2v3.8
		h-1.4V162.4z"/>
	<path class="st0" d="M174.8,162.4l-3.1,8.2v3.1h-1.4v-3.1l-3.1-8.2h1.5l1.7,4.7c0.2,0.7,0.4,1.3,0.6,1.9c0.1-0.6,0.3-1.2,0.6-1.9
		l1.7-4.7H174.8z"/>
	<path class="st0" d="M175.5,162.4h1.4v3.4h3.8v-3.4h1.4v8.2h-1.4V167h-3.8v3.6h-1.4V162.4z"/>
	<path class="st0" d="M183.6,160.9v-1.6h1.4v1.6H183.6z M183.6,170.6v-8.2h1.4v8.2H183.6z"/>
	<path class="st0" d="M186.5,162.4h1.4v3.4h3.8v-3.4h1.4v8.2h-1.4V167h-3.8v3.6h-1.4V162.4z"/>
	<path class="st0" d="M200.2,168l1.4,0.2c-0.2,0.8-0.6,1.5-1.3,1.9c-0.6,0.5-1.4,0.7-2.3,0.7c-1.2,0-2.1-0.4-2.8-1.1
		c-0.7-0.7-1-1.8-1-3.1c0-1.4,0.4-2.4,1.1-3.2c0.7-0.8,1.6-1.1,2.7-1.1c1.1,0,2,0.4,2.7,1.1c0.7,0.7,1,1.8,1,3.1c0,0.1,0,0.2,0,0.4
		h-6.1c0.1,0.9,0.3,1.6,0.8,2.1s1,0.7,1.7,0.7c0.5,0,0.9-0.1,1.3-0.4C199.8,169,200,168.5,200.2,168z M195.7,165.7h4.6
		c-0.1-0.7-0.2-1.2-0.5-1.5c-0.4-0.5-1-0.8-1.7-0.8c-0.6,0-1.2,0.2-1.6,0.6C196,164.4,195.8,165,195.7,165.7z"/>
	<path class="st0" d="M211.5,170.6h-1.4v-8.8c-0.3,0.3-0.8,0.6-1.3,1c-0.5,0.3-1,0.6-1.5,0.7v-1.3c0.8-0.4,1.4-0.8,2-1.3
		c0.6-0.5,1-1,1.2-1.5h0.9V170.6z"/>
	<path class="st0" d="M218.7,173.7v-11.3h1.3v1.1c0.3-0.4,0.6-0.7,1-0.9c0.4-0.2,0.8-0.3,1.4-0.3c0.7,0,1.3,0.2,1.8,0.5
		c0.5,0.4,0.9,0.9,1.2,1.5c0.3,0.7,0.4,1.4,0.4,2.1c0,0.8-0.1,1.6-0.4,2.3c-0.3,0.7-0.7,1.2-1.3,1.5c-0.6,0.4-1.2,0.5-1.8,0.5
		c-0.5,0-0.9-0.1-1.2-0.3c-0.4-0.2-0.7-0.4-0.9-0.7v4H218.7z M219.9,166.6c0,1.1,0.2,1.8,0.6,2.3c0.4,0.5,0.9,0.8,1.5,0.8
		c0.6,0,1.1-0.3,1.6-0.8c0.4-0.5,0.7-1.3,0.7-2.4c0-1-0.2-1.8-0.6-2.3c-0.4-0.5-0.9-0.8-1.5-0.8c-0.6,0-1.1,0.3-1.6,0.8
		C220.2,164.7,219.9,165.5,219.9,166.6z"/>
	<path class="st0" d="M232.5,168l1.4,0.2c-0.2,0.8-0.6,1.5-1.3,1.9c-0.6,0.5-1.4,0.7-2.3,0.7c-1.2,0-2.1-0.4-2.8-1.1
		c-0.7-0.7-1-1.8-1-3.1c0-1.4,0.4-2.4,1.1-3.2c0.7-0.8,1.6-1.1,2.7-1.1c1.1,0,2,0.4,2.7,1.1c0.7,0.7,1,1.8,1,3.1c0,0.1,0,0.2,0,0.4
		h-6.1c0.1,0.9,0.3,1.6,0.8,2.1s1,0.7,1.7,0.7c0.5,0,0.9-0.1,1.3-0.4C232,169,232.3,168.5,232.5,168z M227.9,165.7h4.6
		c-0.1-0.7-0.2-1.2-0.5-1.5c-0.4-0.5-1-0.8-1.7-0.8c-0.6,0-1.2,0.2-1.6,0.6C228.2,164.4,228,165,227.9,165.7z"/>
	<path class="st0" d="M233.8,162.4h6.6v1.1h-2.6v7h-1.4v-7h-2.6V162.4z"/>
</g>
</svg>
