<?xml version="1.0" encoding="utf-8"?>
<!-- Generator: Adobe Illustrator 25.2.3, SVG Export Plug-In . SVG Version: 6.00 Build 0)  -->
<svg version="1.1" id="Layer_1" xmlns="http://www.w3.org/2000/svg" xmlns:xlink="http://www.w3.org/1999/xlink" x="0px" y="0px"
	 viewBox="0 0 95.6 17.8" style="enable-background:new 0 0 95.6 17.8;" xml:space="preserve">
<style type="text/css">
	.st0{fill:#147BB8;}
</style>
<g>
	<path class="st0" d="M0,0.3h6.9c1.4,0,2.4,0.1,3,0.2s1.3,0.3,1.8,0.7s1,0.8,1.3,1.4s0.5,1.3,0.5,2c0,0.8-0.2,1.5-0.7,2.2
		s-1,1.2-1.8,1.5c1,0.3,1.9,0.8,2.4,1.6s0.8,1.6,0.8,2.6c0,0.8-0.2,1.5-0.5,2.3s-0.9,1.3-1.5,1.8S11,17.3,10,17.4
		c-0.6,0.1-2,0.1-4.2,0.1H0V0.3z M3.5,3.2v4h2.3c1.4,0,2.2,0,2.5-0.1C8.9,7,9.3,6.8,9.7,6.5s0.5-0.8,0.5-1.3c0-0.5-0.1-1-0.4-1.3
		S9,3.3,8.4,3.2c-0.3,0-1.3-0.1-3-0.1H3.5z M3.5,10v4.6h3.2c1.2,0,2,0,2.4-0.1c0.5-0.1,0.9-0.3,1.3-0.7s0.5-0.8,0.5-1.5
		c0-0.5-0.1-1-0.4-1.3s-0.6-0.6-1.1-0.8S7.8,10,6.3,10H3.5z"/>
	<path class="st0" d="M17.4,0.3h3.2v11.4l7-11.4H31v17.2h-3.2V6.3l-6.9,11.2h-3.5V0.3z"/>
	<path class="st0" d="M37,5l-3.4-0.8C34.4,1.4,36.4,0,39.8,0c2,0,3.5,0.4,4.6,1.3s1.5,1.9,1.5,3.1c0,0.8-0.2,1.6-0.7,2.2
		s-1.2,1.2-2.1,1.7c1.1,0.4,2,0.9,2.6,1.7s0.9,1.6,0.9,2.6c0,1.5-0.6,2.7-1.7,3.7s-2.8,1.4-5,1.4c-1.8,0-3.2-0.3-4.3-0.9
		s-1.8-1.7-2.3-3.4l3.2-1c0.3,1,0.8,1.7,1.3,2s1.2,0.5,2,0.5c1.1,0,1.9-0.2,2.4-0.7s0.8-1,0.8-1.6c0-0.7-0.3-1.3-0.8-1.7
		s-1.4-0.6-2.6-0.6h-0.8V7.7h0.4c1.1,0,1.9-0.2,2.4-0.7s0.8-1.1,0.8-1.9c0-0.6-0.2-1.2-0.7-1.6s-1.1-0.6-2-0.6
		C38.4,2.8,37.4,3.5,37,5z"/>
	<path class="st0" d="M50.2,0.3h12v17.2h-3.5V3.2h-5.2v7.3c0,2.1-0.1,3.6-0.2,4.4s-0.5,1.5-1,1.9s-1.4,0.7-2.5,0.7
		c-0.4,0-1.1,0-2.2-0.1v-2.7l0.8,0c0.7,0,1.2-0.1,1.5-0.3s0.4-0.7,0.4-1.4l0-3V0.3z"/>
	<path class="st0" d="M65.8,17.5V0.3h12.7v2.9h-9.3V7h8.6v2.9h-8.6v4.7h9.6v2.9H65.8z"/>
	<path class="st0" d="M92.1,17.5v-7.2h-0.7c-1.1,0-1.9,0.2-2.3,0.5s-1.2,1.3-2.3,2.9l-2.5,3.7h-4.1l2.1-3.4c0.8-1.3,1.5-2.3,2-2.8
		s1.1-1,1.9-1.4c-1.6-0.2-2.8-0.8-3.5-1.7s-1.1-1.9-1.1-3.1c0-1,0.3-2,0.8-2.8s1.2-1.4,2.1-1.6s2.2-0.4,3.9-0.4h7.3v17.2H92.1z
		 M92.1,3.2h-2.7c-1.4,0-2.3,0-2.7,0.1s-0.8,0.3-1.1,0.6s-0.5,0.8-0.5,1.4c0,0.6,0.2,1.1,0.5,1.4s0.7,0.6,1.1,0.7s1.4,0.1,2.8,0.1
		h2.6V3.2z"/>
</g>
</svg>
