<?xml version="1.0" encoding="utf-8"?>
<!-- Generator: Adobe Illustrator 25.2.3, SVG Export Plug-In . SVG Version: 6.00 Build 0)  -->
<svg version="1.1" id="Layer_1" xmlns="http://www.w3.org/2000/svg" xmlns:xlink="http://www.w3.org/1999/xlink" x="0px" y="0px"
	 viewBox="0 0 25.9 289.8" style="enable-background:new 0 0 25.9 289.8;" xml:space="preserve">
<style type="text/css">
	.st0{fill:#147BB8;}
</style>
<g>
	<path class="st0" d="M25.5,280.1l-25,9.7v-3.6l18.2-6.5c1.5-0.5,2.8-1,4.1-1.3c-1.4-0.4-2.7-0.8-4.1-1.3l-18.2-6.8v-3.4l25,9.8
		V280.1z"/>
	<path class="st0" d="M25.5,263.4h-25v-3.3h25V263.4z"/>
	<path class="st0" d="M17.4,255.4l-0.3-3.1c1.3-0.1,2.3-0.5,3.1-1c0.8-0.5,1.5-1.4,1.9-2.5c0.5-1.1,0.7-2.4,0.7-3.8
		c0-1.3-0.2-2.4-0.6-3.3c-0.4-1-0.9-1.7-1.5-2.2c-0.7-0.5-1.4-0.7-2.1-0.7c-0.8,0-1.5,0.2-2.1,0.7s-1.1,1.2-1.5,2.3
		c-0.3,0.7-0.7,2.2-1.2,4.5c-0.6,2.3-1.1,3.9-1.6,4.8c-0.6,1.2-1.4,2.1-2.3,2.7s-2,0.9-3.1,0.9c-1.3,0-2.4-0.4-3.5-1.1
		s-1.9-1.8-2.5-3.1c-0.6-1.4-0.9-2.9-0.9-4.6c0-1.9,0.3-3.5,0.9-4.9s1.5-2.5,2.6-3.3s2.5-1.2,3.9-1.2l0.2,3.2
		c-1.6,0.2-2.8,0.7-3.6,1.7s-1.2,2.4-1.2,4.4s0.4,3.5,1.1,4.4s1.6,1.4,2.7,1.4c0.9,0,1.6-0.3,2.2-1c0.6-0.6,1.2-2.3,1.8-5
		s1.1-4.5,1.6-5.5c0.7-1.5,1.5-2.5,2.6-3.2s2.2-1,3.6-1c1.3,0,2.6,0.4,3.8,1.1c1.2,0.8,2.1,1.9,2.7,3.3c0.7,1.4,1,3,1,4.8
		c0,2.3-0.3,4.2-1,5.7s-1.7,2.7-3,3.6C20.6,254.9,19.1,255.3,17.4,255.4z"/>
	<path class="st0" d="M17.9,232.5h-3.1v-9.4h3.1V232.5z"/>
	<path class="st0" d="M25.5,219.4h-25v-3.3h12.4L0.4,203.7v-4.5l10.1,10.5l14.9-11v4.4L12.8,212l4,4.1h8.7V219.4z"/>
	<path class="st0" d="M25.5,197.9h-3.1l-16-12.8c-1.1-0.9-2.1-1.8-3-2.6v14h-3v-17.9h3l17.4,14.1l1.8,1.5v-16h3L25.5,197.9
		L25.5,197.9z"/>
	<path class="st0" d="M17.9,176.2h-3.1v-9.4h3.1V176.2z"/>
	<path class="st0" d="M13.1,164.2c-3,0-5.3-0.3-7.1-0.9c-1.8-0.6-3.2-1.5-4.2-2.7s-1.5-2.7-1.5-4.5c0-1.3,0.3-2.5,0.8-3.5
		s1.3-1.8,2.3-2.5s2.3-1.2,3.7-1.6c1.5-0.4,3.4-0.6,5.9-0.6c2.9,0,5.3,0.3,7.1,0.9c1.8,0.6,3.2,1.5,4.2,2.7c1,1.2,1.5,2.7,1.5,4.6
		c0,2.4-0.9,4.3-2.6,5.7C21.2,163.4,17.8,164.2,13.1,164.2z M13.1,161c4.1,0,6.8-0.5,8.2-1.4c1.4-1,2-2.1,2-3.6s-0.7-2.6-2-3.6
		c-1.4-1-4.1-1.4-8.2-1.4s-6.9,0.5-8.2,1.4c-1.4,1-2,2.2-2,3.6c0,1.4,0.6,2.5,1.8,3.4C6.2,160.5,9,161,13.1,161z"/>
	<path class="st0" d="M22.5,128.6h3v16.5c-0.7,0-1.5-0.1-2.1-0.4c-1.1-0.4-2.2-1.1-3.3-2c-1.1-0.9-2.4-2.3-3.8-4
		c-2.2-2.7-4-4.6-5.3-5.5c-1.3-1-2.5-1.4-3.7-1.4s-2.2,0.4-3.1,1.3c-0.8,0.9-1.3,2-1.3,3.4c0,1.5,0.4,2.7,1.3,3.6s2.1,1.3,3.7,1.3
		l-0.3,3.2c-2.4-0.2-4.2-1-5.4-2.4s-1.9-3.3-1.9-5.7s0.7-4.3,2-5.7s3-2.1,5-2.1c1,0,2,0.2,3,0.6c1,0.4,2,1.1,3.1,2
		c1.1,1,2.5,2.5,4.4,4.7c1.5,1.8,2.6,3,3.2,3.6c0.6,0.5,1.1,1,1.7,1.3v-12.3H22.5z"/>
	<path class="st0" d="M22.5,109.1h3v16.5c-0.7,0-1.5-0.1-2.1-0.4c-1.1-0.4-2.2-1.1-3.3-2c-1.1-0.9-2.4-2.3-3.8-4
		c-2.2-2.7-4-4.6-5.3-5.5c-1.3-1-2.5-1.4-3.7-1.4s-2.2,0.4-3.1,1.3c-0.8,0.9-1.3,2-1.3,3.4c0,1.5,0.4,2.7,1.3,3.6s2.1,1.3,3.7,1.3
		l-0.3,3.2c-2.4-0.2-4.2-1-5.4-2.4s-1.9-3.3-1.9-5.7c0-2.4,0.7-4.3,2-5.7c1.3-1.4,3-2.1,5-2.1c1,0,2,0.2,3,0.6s2,1.1,3.1,2
		c1.1,1,2.5,2.5,4.4,4.7c1.5,1.8,2.6,3,3.2,3.6c0.6,0.5,1.1,1,1.7,1.3v-12.3H22.5z"/>
	<path class="st0" d="M13.1,105.8c-3,0-5.3-0.3-7.1-0.9s-3.2-1.5-4.2-2.7s-1.5-2.7-1.5-4.5c0-1.3,0.3-2.5,0.8-3.5s1.3-1.8,2.3-2.5
		s2.3-1.2,3.7-1.6c1.5-0.4,3.4-0.6,5.9-0.6c2.9,0,5.3,0.3,7.1,0.9c1.8,0.6,3.2,1.5,4.2,2.7c1,1.2,1.5,2.7,1.5,4.6
		c0,2.4-0.9,4.3-2.6,5.7C21.2,105,17.8,105.8,13.1,105.8z M13.1,102.7c4.1,0,6.8-0.5,8.2-1.4c1.4-1,2-2.1,2-3.6s-0.7-2.6-2-3.6
		c-1.4-1-4.1-1.4-8.2-1.4s-6.9,0.5-8.2,1.4c-1.4,1-2,2.2-2,3.6s0.6,2.5,1.8,3.4C6.2,102.2,9,102.7,13.1,102.7z"/>
	<path class="st0" d="M22.5,70.2h3v16.5c-0.7,0-1.5-0.1-2.1-0.4c-1.1-0.4-2.2-1.1-3.3-2c-1.1-0.9-2.4-2.3-3.8-4
		c-2.2-2.7-4-4.6-5.3-5.5c-1.3-1-2.5-1.4-3.7-1.4s-2.2,0.4-3.1,1.3c-0.8,0.9-1.3,2-1.3,3.4c0,1.5,0.4,2.7,1.3,3.6S6.3,83,7.9,83
		l-0.3,3.2c-2.4-0.2-4.2-1-5.4-2.4s-1.9-3.3-1.9-5.7c0-2.4,0.7-4.3,2-5.7c1.3-1.4,3-2.1,5-2.1c1,0,2,0.2,3,0.6s2,1.1,3.1,2
		c1.1,1,2.5,2.5,4.4,4.7c1.5,1.8,2.6,3,3.2,3.6c0.6,0.5,1.1,1,1.7,1.3V70.2H22.5z"/>
	<path class="st0" d="M18.9,66.9l-0.3-3.2c1.6-0.2,2.8-0.8,3.5-1.7c0.8-0.9,1.2-1.9,1.2-3.2c0-1.5-0.6-2.7-1.7-3.8
		c-1.1-1-2.6-1.5-4.4-1.5S14.1,54,13.1,55s-1.5,2.3-1.5,3.9c0,1,0.2,1.9,0.7,2.7c0.4,0.8,1,1.4,1.8,1.9l-0.4,2.9L0.8,64V51.5h2.9v10
		l6.7,1.3c-1-1.5-1.6-3.1-1.6-4.7c0-2.2,0.8-4,2.3-5.5s3.5-2.3,5.8-2.3s4.2,0.7,5.9,2c2,1.6,3,3.8,3,6.6c0,2.3-0.6,4.1-1.9,5.6
		C22.7,65.9,21,66.7,18.9,66.9z"/>
	<path class="st0" d="M17.9,47.8h-3.1v-9.4h3.1V47.8z"/>
	<path class="st0" d="M25.5,24.3v3.1H5.9c0.7,0.7,1.4,1.7,2.1,2.9c0.7,1.2,1.2,2.3,1.6,3.2h-3c-0.8-1.7-1.8-3.2-2.9-4.5
		s-2.3-2.2-3.3-2.7v-2H25.5z"/>
	<path class="st0" d="M3.7,16.2h-3V0h2.4c1.7,1.6,4,3.2,6.8,4.7s5.7,2.8,8.7,3.6c2.1,0.6,4.4,1,6.9,1.2v3.2c-2,0-4.3-0.4-7.1-1.2
		c-2.8-0.7-5.5-1.8-8.1-3.2C7.7,7,5.5,5.5,3.7,3.9V16.2z"/>
</g>
</svg>
