<?xml version="1.0" encoding="utf-8"?>
<!-- Generator: Adobe Illustrator 25.2.3, SVG Export Plug-In . SVG Version: 6.00 Build 0)  -->
<svg version="1.1" id="Layer_1" xmlns="http://www.w3.org/2000/svg" xmlns:xlink="http://www.w3.org/1999/xlink" x="0px" y="0px"
	 viewBox="0 0 274.2 75.6" style="enable-background:new 0 0 274.2 75.6;" xml:space="preserve">
<style type="text/css">
	.st0{fill:#147BB8;}
</style>
<g>
	<path class="st0" d="M1.4,0H3v5.3c0.7,0,1.3-0.1,1.6-0.4s0.7-1,1.1-2.1C6,2.1,6.3,1.5,6.5,1.2c0.2-0.3,0.5-0.6,0.9-0.8
		C7.9,0.1,8.3,0,8.8,0c0.6,0,0.9,0,1,0v1.4c-0.1,0-0.2,0-0.3,0c-0.2,0-0.3,0-0.3,0C8.6,1.4,8.2,1.5,8,1.8C7.7,2,7.4,2.5,7.1,3.4
		c-0.4,1-0.8,1.7-1,1.9C5.8,5.6,5.4,5.8,5.1,6c0.8,0.2,1.6,0.9,2.3,2.2l2.5,4.1h-2l-2-3.3C5.3,8,4.8,7.3,4.4,7
		C4.1,6.7,3.6,6.5,3,6.5v5.7H1.4V0z"/>
	<path class="st0" d="M18.8,7.6c0,2.1-0.7,3.5-2,4.2c-0.6,0.4-1.4,0.5-2.1,0.5c-1.3,0-2.4-0.4-3.1-1.3c-0.7-0.8-1-1.9-1-3.3
		c0-1.6,0.5-2.8,1.4-3.6c0.8-0.7,1.7-1,2.8-1c1.3,0,2.3,0.4,3.1,1.3C18.4,5.3,18.8,6.3,18.8,7.6z M17.2,8.2h-5.2
		c0,0.9,0.3,1.5,0.7,2.1c0.5,0.6,1.1,0.9,1.9,0.9s1.4-0.3,1.9-0.9C17,9.7,17.2,9,17.2,8.2z M17.2,6.9c-0.1-0.7-0.3-1.3-0.7-1.7
		c-0.5-0.6-1.1-0.8-1.9-0.8c-0.7,0-1.4,0.3-1.9,0.8c-0.4,0.4-0.6,1-0.7,1.7H17.2z"/>
	<path class="st0" d="M22.5,8.2V7c0.6,0,1.1,0,1.3-0.1c0.2,0,0.4-0.2,0.7-0.4s0.3-0.5,0.3-0.8c0-0.4-0.1-0.7-0.4-1
		c-0.3-0.2-0.6-0.4-1-0.4c-0.8,0-1.4,0.5-1.8,1.5l-1.4-0.2c0.4-1.7,1.5-2.5,3.2-2.5c0.9,0,1.7,0.3,2.2,0.8c0.5,0.5,0.8,1.1,0.8,1.8
		c0,0.7-0.3,1.3-1,1.7c0.4,0.2,0.8,0.5,1,0.9s0.3,0.8,0.3,1.3c0,0.8-0.3,1.4-0.9,1.9c-0.6,0.5-1.4,0.7-2.4,0.7c-2,0-3.2-0.9-3.5-2.7
		l1.4-0.3c0.1,0.6,0.4,1,0.8,1.3c0.4,0.3,0.8,0.5,1.3,0.5s0.9-0.1,1.3-0.4c0.3-0.3,0.5-0.6,0.5-1.1c0-0.3-0.1-0.6-0.3-0.9
		s-0.4-0.4-0.7-0.5s-0.7-0.1-1.3-0.1C22.8,8.2,22.6,8.2,22.5,8.2z"/>
	<path class="st0" d="M32.2,3.4h7.2v1.2h-2.8v7.6h-1.5V4.6h-2.8V3.4z"/>
	<path class="st0" d="M40.1,7.8c0-1.6,0.5-2.8,1.4-3.6c0.8-0.7,1.7-1,2.8-1c1.2,0,2.2,0.4,3,1.2s1.2,1.9,1.2,3.3
		c0,1.1-0.2,2-0.5,2.7c-0.3,0.7-0.8,1.2-1.5,1.5c-0.6,0.4-1.4,0.5-2.1,0.5c-1.2,0-2.2-0.4-3-1.2C40.5,10.4,40.1,9.3,40.1,7.8z
		 M41.6,7.8c0,1.1,0.2,2,0.7,2.5s1.1,0.8,1.9,0.8c0.7,0,1.4-0.3,1.9-0.8s0.7-1.4,0.7-2.6c0-1.1-0.2-1.9-0.7-2.5
		c-0.5-0.6-1.1-0.8-1.8-0.8c-0.7,0-1.4,0.3-1.9,0.8S41.6,6.6,41.6,7.8z"/>
	<path class="st0" d="M50.1,15.6V3.4h1.4v1.1c0.3-0.4,0.7-0.8,1.1-1c0.4-0.2,0.9-0.3,1.5-0.3c0.8,0,1.4,0.2,2,0.6s1,0.9,1.3,1.6
		c0.3,0.7,0.4,1.5,0.4,2.3c0,0.9-0.2,1.7-0.5,2.4c-0.3,0.7-0.8,1.3-1.4,1.7c-0.6,0.4-1.3,0.6-1.9,0.6c-0.5,0-0.9-0.1-1.3-0.3
		c-0.4-0.2-0.7-0.5-1-0.8v4.3H50.1z M51.4,7.8c0,1.1,0.2,2,0.7,2.5s1,0.8,1.7,0.8c0.7,0,1.2-0.3,1.7-0.8c0.5-0.6,0.7-1.4,0.7-2.6
		c0-1.1-0.2-2-0.7-2.5c-0.5-0.6-1-0.8-1.7-0.8c-0.6,0-1.2,0.3-1.7,0.9C51.7,5.8,51.4,6.7,51.4,7.8z"/>
	<path class="st0" d="M59.6,3.4h1.5v3.4H63c1.2,0,2.2,0.2,2.9,0.7c0.7,0.5,1,1.1,1,2c0,0.7-0.3,1.4-0.8,1.9
		c-0.6,0.5-1.4,0.8-2.7,0.8h-3.7V3.4z M61.1,10.9h1.6c0.9,0,1.6-0.1,2-0.3s0.6-0.6,0.6-1.1c0-0.4-0.1-0.7-0.4-1s-1-0.4-2-0.4h-1.8
		V10.9z M67.9,3.4h1.5v8.8h-1.5V3.4z"/>
	<path class="st0" d="M71.8,3.4h1.5V7h4.1V3.4h1.5v8.8h-1.5V8.3h-4.1v3.9h-1.5V3.4z"/>
	<path class="st0" d="M92.1,14.7h-1.2v-2.5h-0.2l-1.6-2.7c-0.3-0.4-0.5-0.8-0.7-0.9c-0.3-0.3-0.6-0.4-1-0.4v4.1h-1.5V3.4h1.5v3.8
		c0.6,0,1-0.2,1.2-0.5c0.1-0.1,0.3-0.6,0.6-1.3c0.2-0.5,0.4-0.9,0.5-1.1c0.2-0.4,0.5-0.7,0.8-0.8c0.2-0.1,0.6-0.1,1.1-0.1H92v1.2
		l-0.4,0c-0.4,0-0.7,0.1-0.9,0.3c-0.1,0.1-0.2,0.4-0.4,0.9c-0.2,0.5-0.4,0.9-0.5,1.1c-0.2,0.3-0.5,0.5-1,0.7
		c0.6,0.2,1.3,0.8,1.9,1.8l0.9,1.5h0.5V14.7z"/>
	<path class="st0" d="M92.8,7.8c0-1.6,0.5-2.8,1.4-3.6c0.8-0.7,1.7-1,2.8-1c1.2,0,2.2,0.4,3,1.2s1.2,1.9,1.2,3.3
		c0,1.1-0.2,2-0.5,2.7c-0.3,0.7-0.8,1.2-1.5,1.5c-0.6,0.4-1.4,0.5-2.1,0.5c-1.2,0-2.2-0.4-3-1.2C93.1,10.4,92.8,9.3,92.8,7.8z
		 M94.3,7.8c0,1.1,0.2,2,0.7,2.5s1.1,0.8,1.9,0.8c0.7,0,1.4-0.3,1.9-0.8s0.7-1.4,0.7-2.6c0-1.1-0.2-1.9-0.7-2.5
		c-0.5-0.6-1.1-0.8-1.8-0.8c-0.7,0-1.4,0.3-1.9,0.8S94.3,6.6,94.3,7.8z"/>
	<path class="st0" d="M102.8,15.6V3.4h1.4v1.1c0.3-0.4,0.7-0.8,1.1-1c0.4-0.2,0.9-0.3,1.5-0.3c0.8,0,1.4,0.2,2,0.6s1,0.9,1.3,1.6
		c0.3,0.7,0.4,1.5,0.4,2.3c0,0.9-0.2,1.7-0.5,2.4c-0.3,0.7-0.8,1.3-1.4,1.7c-0.6,0.4-1.3,0.6-1.9,0.6c-0.5,0-0.9-0.1-1.3-0.3
		c-0.4-0.2-0.7-0.5-1-0.8v4.3H102.8z M104.1,7.8c0,1.1,0.2,2,0.7,2.5s1,0.8,1.7,0.8c0.7,0,1.2-0.3,1.7-0.8c0.5-0.6,0.7-1.4,0.7-2.6
		c0-1.1-0.2-2-0.7-2.5c-0.5-0.6-1-0.8-1.7-0.8c-0.6,0-1.2,0.3-1.7,0.9C104.4,5.8,104.1,6.7,104.1,7.8z"/>
	<path class="st0" d="M117.3,4.6h-3.6v2.2h1.9v1.1h-1.9v4.3h-1.5V7.9h-1V6.8h1V3.4h5.1V4.6z"/>
	<path class="st0" d="M124.2,11.1c-0.6,0.5-1.1,0.8-1.6,1c-0.5,0.2-1.1,0.3-1.6,0.3c-1,0-1.7-0.2-2.2-0.7c-0.5-0.5-0.8-1.1-0.8-1.8
		c0-0.4,0.1-0.8,0.3-1.2c0.2-0.4,0.5-0.6,0.8-0.9c0.3-0.2,0.7-0.4,1.1-0.5c0.3-0.1,0.7-0.2,1.3-0.2c1.2-0.1,2.1-0.3,2.7-0.5
		c0-0.2,0-0.3,0-0.4c0-0.6-0.1-1-0.4-1.3c-0.4-0.3-0.9-0.5-1.7-0.5c-0.7,0-1.2,0.1-1.6,0.4c-0.3,0.2-0.6,0.7-0.7,1.3l-1.5-0.2
		c0.1-0.6,0.4-1.1,0.7-1.5c0.3-0.4,0.7-0.7,1.3-0.9c0.6-0.2,1.2-0.3,2-0.3c0.8,0,1.4,0.1,1.8,0.3s0.8,0.4,1,0.7s0.4,0.6,0.5,1
		c0,0.3,0.1,0.7,0.1,1.4v2c0,1.4,0,2.3,0.1,2.6c0.1,0.4,0.2,0.7,0.4,1.1h-1.6C124.3,11.9,124.2,11.5,124.2,11.1z M124,7.8
		c-0.5,0.2-1.4,0.4-2.4,0.6c-0.6,0.1-1,0.2-1.3,0.3c-0.3,0.1-0.5,0.3-0.6,0.5c-0.1,0.2-0.2,0.4-0.2,0.7c0,0.4,0.2,0.7,0.5,1
		c0.3,0.3,0.7,0.4,1.3,0.4c0.6,0,1.1-0.1,1.5-0.4c0.4-0.3,0.8-0.6,1-1C124,9.5,124,9,124,8.3V7.8z"/>
	<path class="st0" d="M127.6,15.6l-0.2-1.4c0.3,0.1,0.6,0.1,0.9,0.1c0.3,0,0.6-0.1,0.8-0.2s0.4-0.3,0.5-0.5c0.1-0.1,0.2-0.5,0.5-1.1
		c0-0.1,0.1-0.2,0.1-0.4l-3.3-8.8h1.6l1.8,5.1c0.2,0.6,0.5,1.3,0.6,2c0.2-0.7,0.4-1.4,0.6-2l1.9-5.1h1.5l-3.4,9
		c-0.4,1-0.6,1.6-0.8,2c-0.3,0.5-0.6,0.9-0.9,1.1s-0.8,0.3-1.2,0.3C128.3,15.8,128,15.7,127.6,15.6z"/>
	<path class="st0" d="M141.3,4.6h-3.6v2.2h1.9v1.1h-1.9v4.3h-1.5V7.9h-1V6.8h1V3.4h5.1V4.6z"/>
	<path class="st0" d="M148.1,11.1c-0.6,0.5-1.1,0.8-1.6,1c-0.5,0.2-1.1,0.3-1.6,0.3c-1,0-1.7-0.2-2.2-0.7c-0.5-0.5-0.8-1.1-0.8-1.8
		c0-0.4,0.1-0.8,0.3-1.2c0.2-0.4,0.5-0.6,0.8-0.9s0.7-0.4,1.1-0.5c0.3-0.1,0.7-0.2,1.3-0.2c1.2-0.1,2.1-0.3,2.7-0.5
		c0-0.2,0-0.3,0-0.4c0-0.6-0.1-1-0.4-1.3c-0.4-0.3-0.9-0.5-1.7-0.5c-0.7,0-1.2,0.1-1.6,0.4s-0.6,0.7-0.7,1.3l-1.5-0.2
		c0.1-0.6,0.4-1.1,0.7-1.5c0.3-0.4,0.7-0.7,1.3-0.9c0.6-0.2,1.2-0.3,2-0.3c0.8,0,1.4,0.1,1.8,0.3c0.5,0.2,0.8,0.4,1,0.7
		s0.4,0.6,0.5,1c0,0.3,0.1,0.7,0.1,1.4v2c0,1.4,0,2.3,0.1,2.6c0.1,0.4,0.2,0.7,0.4,1.1h-1.6C148.3,11.9,148.2,11.5,148.1,11.1z
		 M148,7.8c-0.5,0.2-1.4,0.4-2.4,0.6c-0.6,0.1-1,0.2-1.3,0.3c-0.3,0.1-0.5,0.3-0.6,0.5c-0.1,0.2-0.2,0.4-0.2,0.7
		c0,0.4,0.2,0.7,0.5,1s0.7,0.4,1.3,0.4c0.6,0,1.1-0.1,1.5-0.4c0.4-0.3,0.8-0.6,1-1c0.2-0.3,0.2-0.8,0.2-1.5V7.8z"/>
	<path class="st0" d="M156.6,3.4h1.5v3.8c0.5,0,0.8-0.1,1-0.3c0.2-0.2,0.5-0.7,0.8-1.6c0.3-0.7,0.5-1.2,0.7-1.4s0.4-0.4,0.6-0.4
		s0.6-0.1,1.1-0.1h0.3v1.2l-0.4,0c-0.4,0-0.6,0.1-0.8,0.2c-0.1,0.1-0.3,0.5-0.5,1.1c-0.2,0.6-0.4,1-0.6,1.2s-0.5,0.4-0.9,0.6
		c0.6,0.2,1.3,0.8,1.9,1.8l1.6,2.7h-1.6l-1.6-2.7c-0.3-0.5-0.6-0.9-0.9-1.1c-0.2-0.2-0.5-0.3-0.9-0.3v4.1h-1.5V3.4z"/>
	<path class="st0" d="M171.7,7.6c0,2.1-0.7,3.5-2,4.2c-0.6,0.4-1.4,0.5-2.1,0.5c-1.3,0-2.4-0.4-3.1-1.3c-0.7-0.8-1-1.9-1-3.3
		c0-1.6,0.5-2.8,1.4-3.6c0.8-0.7,1.7-1,2.8-1c1.3,0,2.3,0.4,3.1,1.3C171.3,5.3,171.7,6.3,171.7,7.6z M170.2,8.2H165
		c0,0.9,0.3,1.5,0.7,2.1c0.5,0.6,1.1,0.9,1.9,0.9s1.5-0.3,1.9-0.9C169.9,9.7,170.1,9,170.2,8.2z M170.1,6.9
		c-0.1-0.7-0.3-1.3-0.7-1.7c-0.5-0.6-1.1-0.8-1.9-0.8c-0.7,0-1.4,0.3-1.9,0.8c-0.4,0.4-0.6,1-0.7,1.7H170.1z"/>
	<path class="st0" d="M173.5,3.4h2.3l2.3,7.1l2.6-7.1h2.2v8.8h-1.5V5.1l-2.6,7.1h-1.3L175,4.7v7.4h-1.5V3.4z"/>
	<path class="st0" d="M191.2,9.3l1.5,0.2c-0.2,0.9-0.7,1.6-1.4,2.1c-0.7,0.5-1.5,0.7-2.5,0.7c-1.3,0-2.3-0.4-3.1-1.2
		c-0.8-0.8-1.1-1.9-1.1-3.3c0-1.5,0.4-2.6,1.1-3.5s1.8-1.2,3-1.2c1.2,0,2.1,0.4,2.9,1.2c0.7,0.8,1.1,1.9,1.1,3.4c0,0.1,0,0.2,0,0.4
		h-6.6c0.1,1,0.3,1.7,0.8,2.2c0.5,0.5,1.1,0.8,1.8,0.8c0.5,0,1-0.1,1.4-0.4C190.6,10.4,190.9,10,191.2,9.3z M186.3,6.9h4.9
		c-0.1-0.7-0.3-1.3-0.6-1.7c-0.5-0.6-1.1-0.9-1.9-0.9c-0.7,0-1.3,0.2-1.7,0.7C186.6,5.5,186.3,6.2,186.3,6.9z"/>
	<path class="st0" d="M194.6,3.4h1.5v3.8c0.5,0,0.8-0.1,1-0.3c0.2-0.2,0.5-0.7,0.8-1.6c0.3-0.7,0.5-1.2,0.7-1.4s0.4-0.4,0.6-0.4
		s0.6-0.1,1.1-0.1h0.3v1.2l-0.4,0c-0.4,0-0.6,0.1-0.8,0.2c-0.1,0.1-0.3,0.5-0.5,1.1c-0.2,0.6-0.4,1-0.6,1.2s-0.5,0.4-0.9,0.6
		c0.6,0.2,1.3,0.8,1.9,1.8l1.6,2.7h-1.6l-1.6-2.7c-0.3-0.5-0.6-0.9-0.9-1.1c-0.2-0.2-0.5-0.3-0.9-0.3v4.1h-1.5V3.4z"/>
	<path class="st0" d="M201.4,3.4h7.2v1.2h-2.8v7.6h-1.5V4.6h-2.8V3.4z"/>
	<path class="st0" d="M215.9,9.3l1.5,0.2c-0.2,0.9-0.7,1.6-1.4,2.1c-0.7,0.5-1.5,0.7-2.5,0.7c-1.3,0-2.3-0.4-3.1-1.2
		c-0.8-0.8-1.1-1.9-1.1-3.3c0-1.5,0.4-2.6,1.1-3.5s1.8-1.2,3-1.2c1.2,0,2.1,0.4,2.9,1.2c0.7,0.8,1.1,1.9,1.1,3.4c0,0.1,0,0.2,0,0.4
		h-6.6c0.1,1,0.3,1.7,0.8,2.2c0.5,0.5,1.1,0.8,1.8,0.8c0.5,0,1-0.1,1.4-0.4C215.3,10.4,215.6,10,215.9,9.3z M210.9,6.9h4.9
		c-0.1-0.7-0.3-1.3-0.6-1.7c-0.5-0.6-1.1-0.9-1.9-0.9c-0.7,0-1.3,0.2-1.7,0.7C211.3,5.5,211,6.2,210.9,6.9z"/>
	<path class="st0" d="M225,8.9l1.5,0.2c-0.2,1-0.6,1.8-1.2,2.4c-0.7,0.6-1.5,0.9-2.4,0.9c-1.2,0-2.2-0.4-2.9-1.2
		c-0.7-0.8-1.1-1.9-1.1-3.4c0-1,0.2-1.8,0.5-2.5c0.3-0.7,0.8-1.2,1.4-1.6c0.6-0.4,1.3-0.5,2.1-0.5c1,0,1.7,0.2,2.3,0.7
		c0.6,0.5,1,1.2,1.2,2.1l-1.5,0.2c-0.1-0.6-0.4-1-0.7-1.3s-0.8-0.4-1.3-0.4c-0.8,0-1.4,0.3-1.8,0.8c-0.5,0.5-0.7,1.4-0.7,2.6
		c0,1.2,0.2,2,0.7,2.6c0.5,0.5,1,0.8,1.8,0.8c0.6,0,1.1-0.2,1.5-0.5C224.7,10.2,224.9,9.7,225,8.9z"/>
	<path class="st0" d="M233.8,9.3l1.5,0.2c-0.2,0.9-0.7,1.6-1.4,2.1c-0.7,0.5-1.5,0.7-2.5,0.7c-1.3,0-2.3-0.4-3.1-1.2
		c-0.8-0.8-1.1-1.9-1.1-3.3c0-1.5,0.4-2.6,1.1-3.5s1.8-1.2,3-1.2c1.2,0,2.1,0.4,2.9,1.2c0.7,0.8,1.1,1.9,1.1,3.4c0,0.1,0,0.2,0,0.4
		h-6.6c0.1,1,0.3,1.7,0.8,2.2c0.5,0.5,1.1,0.8,1.8,0.8c0.5,0,1-0.1,1.4-0.4C233.3,10.4,233.6,10,233.8,9.3z M228.9,6.9h4.9
		c-0.1-0.7-0.3-1.3-0.6-1.7c-0.5-0.6-1.1-0.9-1.9-0.9c-0.7,0-1.3,0.2-1.7,0.7C229.2,5.5,229,6.2,228.9,6.9z"/>
	<path class="st0" d="M238,3.4h6.1v7.6h1v3.7h-1.2v-2.5H237v2.5h-1.2v-3.7h0.8C237.6,9.5,238.1,7,238,3.4z M239.3,4.6
		c-0.1,2.9-0.6,5-1.3,6.3h4.7V4.6H239.3z"/>
	<path class="st0" d="M246.8,1.7V0h1.5v1.7H246.8z M246.8,12.2V3.4h1.5v8.8H246.8z"/>
	<path class="st0" d="M6.5,23.4v3.8c0.5,0,0.8-0.1,1-0.3s0.5-0.7,0.8-1.6c0.3-0.8,0.7-1.4,0.9-1.6c0.3-0.2,0.7-0.3,1.3-0.3h0.5v1.2
		l-0.4,0c-0.4,0-0.7,0.1-0.8,0.2c-0.1,0.1-0.3,0.5-0.5,1.1c-0.2,0.6-0.4,1-0.6,1.2s-0.5,0.4-0.9,0.6c0.6,0.2,1.3,0.8,1.9,1.8
		l1.6,2.7H9.8l-1.6-2.7c-0.3-0.6-0.6-0.9-0.9-1.1s-0.5-0.3-0.9-0.3v4.1H5v-4.1c-0.3,0-0.6,0.1-0.9,0.3c-0.2,0.2-0.5,0.5-0.9,1.1
		l-1.6,2.7H0l1.6-2.7c0.6-1,1.3-1.6,1.9-1.8c-0.4-0.2-0.8-0.4-0.9-0.7c-0.2-0.2-0.4-0.8-0.8-1.7c-0.1-0.3-0.3-0.5-0.4-0.6
		c-0.1-0.1-0.4-0.1-0.6-0.1c-0.1,0-0.2,0-0.4,0v-1.2h0.2c0.6,0,1,0,1.2,0.1c0.2,0.1,0.4,0.2,0.6,0.4c0.2,0.2,0.4,0.7,0.7,1.4
		c0.4,0.9,0.6,1.4,0.8,1.6c0.2,0.2,0.5,0.3,1,0.3v-3.8H6.5z"/>
	<path class="st0" d="M20.2,27.7c0,1.4-0.3,2.5-1,3.3c-0.7,0.9-1.8,1.4-3.1,1.4c-1.3,0-2.3-0.5-3-1.4c-0.7-0.8-1-1.9-1-3.2
		c0-0.1,0-0.2,0-0.4h6.6c0-0.9-0.3-1.6-0.7-2.1c-0.5-0.6-1.1-0.9-2-0.9c-1.1,0-1.9,0.6-2.3,1.8L12.2,26c0.5-1.9,1.8-2.8,3.9-2.8
		c1.4,0,2.4,0.4,3.1,1.3C19.9,25.2,20.2,26.3,20.2,27.7z M18.6,28.6h-4.9c0.1,0.7,0.3,1.3,0.6,1.7c0.5,0.6,1.1,0.9,1.9,0.9
		c0.7,0,1.3-0.2,1.8-0.7C18.3,30,18.6,29.4,18.6,28.6z"/>
	<path class="st0" d="M22,23.4h1.5V27h4.1v-3.7h1.5v8.8h-1.5v-3.9h-4.1v3.9H22V23.4z"/>
	<path class="st0" d="M37.4,29.3l1.5,0.2c-0.2,0.9-0.7,1.6-1.4,2.1s-1.5,0.7-2.5,0.7c-1.3,0-2.3-0.4-3.1-1.2
		c-0.8-0.8-1.1-1.9-1.1-3.3c0-1.5,0.4-2.6,1.1-3.5s1.8-1.2,3-1.2c1.2,0,2.1,0.4,2.9,1.2c0.7,0.8,1.1,1.9,1.1,3.4c0,0.1,0,0.2,0,0.4
		h-6.6c0.1,1,0.3,1.7,0.8,2.2c0.5,0.5,1.1,0.8,1.8,0.8c0.5,0,1-0.1,1.4-0.4S37.2,30,37.4,29.3z M32.5,26.9h4.9
		c-0.1-0.7-0.3-1.3-0.6-1.7c-0.5-0.6-1.1-0.9-1.9-0.9c-0.7,0-1.3,0.2-1.7,0.7C32.8,25.5,32.6,26.2,32.5,26.9z"/>
	<path class="st0" d="M44.7,23.4h7.2v1.2h-2.8v7.6h-1.5v-7.6h-2.8V23.4z"/>
	<path class="st0" d="M58.9,31.1c-0.6,0.5-1.1,0.8-1.6,1c-0.5,0.2-1.1,0.3-1.6,0.3c-1,0-1.7-0.2-2.2-0.7c-0.5-0.5-0.8-1.1-0.8-1.8
		c0-0.4,0.1-0.8,0.3-1.2c0.2-0.4,0.5-0.6,0.8-0.9c0.3-0.2,0.7-0.4,1.1-0.5c0.3-0.1,0.7-0.2,1.3-0.2c1.2-0.1,2.1-0.3,2.7-0.5
		c0-0.2,0-0.3,0-0.4c0-0.6-0.1-1-0.4-1.3c-0.4-0.3-0.9-0.5-1.7-0.5c-0.7,0-1.2,0.1-1.6,0.4c-0.3,0.2-0.6,0.7-0.7,1.3l-1.5-0.2
		c0.1-0.6,0.4-1.1,0.7-1.5c0.3-0.4,0.7-0.7,1.3-0.9c0.6-0.2,1.2-0.3,2-0.3c0.8,0,1.4,0.1,1.8,0.3s0.8,0.4,1,0.7s0.4,0.6,0.5,1
		c0,0.3,0.1,0.7,0.1,1.4v2c0,1.4,0,2.3,0.1,2.6c0.1,0.4,0.2,0.7,0.4,1.1h-1.6C59,31.9,58.9,31.5,58.9,31.1z M58.8,27.8
		c-0.5,0.2-1.4,0.4-2.4,0.6c-0.6,0.1-1,0.2-1.3,0.3c-0.3,0.1-0.5,0.3-0.6,0.5c-0.1,0.2-0.2,0.4-0.2,0.7c0,0.4,0.2,0.7,0.5,1
		c0.3,0.3,0.7,0.4,1.3,0.4c0.6,0,1.1-0.1,1.5-0.4c0.4-0.3,0.8-0.6,1-1c0.2-0.3,0.2-0.8,0.2-1.5V27.8z"/>
	<path class="st0" d="M62.6,23.4H65l2.3,7.1l2.6-7.1H72v8.8h-1.5v-7.1l-2.6,7.1h-1.3l-2.5-7.4v7.4h-1.5V23.4z"/>
	<path class="st0" d="M74.3,23.4h1.5v3.4h1.9c1.2,0,2.2,0.2,2.9,0.7c0.7,0.5,1,1.1,1,2c0,0.7-0.3,1.4-0.8,1.9
		c-0.6,0.5-1.4,0.8-2.7,0.8h-3.7V23.4z M75.8,30.9h1.6c0.9,0,1.6-0.1,2-0.3S80,30,80,29.5c0-0.4-0.1-0.7-0.4-1s-1-0.4-2-0.4h-1.8
		V30.9z M82.7,23.4h1.5v8.8h-1.5V23.4z"/>
	<path class="st0" d="M86.5,35.6V23.4h1.4v1.1c0.3-0.4,0.7-0.8,1.1-1c0.4-0.2,0.9-0.3,1.5-0.3c0.8,0,1.4,0.2,2,0.6s1,0.9,1.3,1.6
		c0.3,0.7,0.4,1.5,0.4,2.3c0,0.9-0.2,1.7-0.5,2.4c-0.3,0.7-0.8,1.3-1.4,1.7c-0.6,0.4-1.3,0.6-1.9,0.6c-0.5,0-0.9-0.1-1.3-0.3
		c-0.4-0.2-0.7-0.5-1-0.8v4.3H86.5z M87.9,27.8c0,1.1,0.2,2,0.7,2.5s1,0.8,1.7,0.8c0.7,0,1.2-0.3,1.7-0.8c0.5-0.6,0.7-1.4,0.7-2.6
		c0-1.1-0.2-2-0.7-2.5c-0.5-0.6-1-0.8-1.7-0.8c-0.6,0-1.2,0.3-1.7,0.9C88.1,25.8,87.9,26.7,87.9,27.8z"/>
	<path class="st0" d="M96.1,23.4h6.9v8.8h-1.5v-7.6h-4V29c0,1,0,1.7-0.1,2s-0.2,0.6-0.5,0.9c-0.3,0.2-0.7,0.4-1.3,0.4
		c-0.3,0-0.8,0-1.2-0.1v-1.2h0.7c0.3,0,0.5,0,0.7-0.1s0.2-0.2,0.3-0.3c0-0.1,0.1-0.6,0.1-1.4V23.4z"/>
	<path class="st0" d="M105.3,23.4h1.5v3.4h1.9c1.2,0,2.2,0.2,2.9,0.7c0.7,0.5,1,1.1,1,2c0,0.7-0.3,1.4-0.8,1.9
		c-0.6,0.5-1.4,0.8-2.7,0.8h-3.7V23.4z M106.8,30.9h1.6c0.9,0,1.6-0.1,2-0.3s0.6-0.6,0.6-1.1c0-0.4-0.1-0.7-0.4-1s-1-0.4-2-0.4h-1.8
		V30.9z M113.7,23.4h1.5v8.8h-1.5V23.4z"/>
	<path class="st0" d="M128.5,34.7h-1.2v-2.5h-0.2l-1.6-2.7c-0.3-0.4-0.5-0.8-0.7-0.9c-0.3-0.3-0.6-0.4-1-0.4v4.1h-1.5v-8.8h1.5v3.8
		c0.6,0,1-0.2,1.2-0.5c0.1-0.1,0.3-0.6,0.6-1.3c0.2-0.5,0.4-0.9,0.5-1.1c0.2-0.4,0.5-0.7,0.8-0.8c0.2-0.1,0.6-0.1,1.1-0.1h0.3v1.2
		l-0.4,0c-0.4,0-0.7,0.1-0.9,0.3c-0.1,0.1-0.2,0.4-0.4,0.9c-0.2,0.5-0.4,0.9-0.5,1.1c-0.2,0.3-0.5,0.5-1,0.7
		c0.6,0.2,1.3,0.8,1.9,1.8l0.9,1.5h0.5V34.7z"/>
	<path class="st0" d="M135.4,31.1c-0.6,0.5-1.1,0.8-1.6,1c-0.5,0.2-1.1,0.3-1.6,0.3c-1,0-1.7-0.2-2.2-0.7c-0.5-0.5-0.8-1.1-0.8-1.8
		c0-0.4,0.1-0.8,0.3-1.2c0.2-0.4,0.5-0.6,0.8-0.9c0.3-0.2,0.7-0.4,1.1-0.5c0.3-0.1,0.7-0.2,1.3-0.2c1.2-0.1,2.1-0.3,2.7-0.5
		c0-0.2,0-0.3,0-0.4c0-0.6-0.1-1-0.4-1.3c-0.4-0.3-0.9-0.5-1.7-0.5c-0.7,0-1.2,0.1-1.6,0.4s-0.6,0.7-0.7,1.3l-1.5-0.2
		c0.1-0.6,0.4-1.1,0.7-1.5c0.3-0.4,0.7-0.7,1.3-0.9c0.6-0.2,1.2-0.3,2-0.3c0.8,0,1.4,0.1,1.8,0.3s0.8,0.4,1,0.7
		c0.2,0.3,0.4,0.6,0.5,1c0.1,0.3,0.1,0.7,0.1,1.4v2c0,1.4,0,2.3,0.1,2.6c0.1,0.4,0.2,0.7,0.4,1.1h-1.6
		C135.6,31.9,135.5,31.5,135.4,31.1z M135.3,27.8c-0.5,0.2-1.4,0.4-2.4,0.6c-0.6,0.1-1,0.2-1.3,0.3c-0.3,0.1-0.5,0.3-0.6,0.5
		c-0.1,0.2-0.2,0.4-0.2,0.7c0,0.4,0.2,0.7,0.5,1s0.7,0.4,1.3,0.4c0.6,0,1.1-0.1,1.5-0.4c0.4-0.3,0.8-0.6,1-1
		c0.2-0.3,0.2-0.8,0.2-1.5V27.8z"/>
	<path class="st0" d="M145.6,19.7l1.3,0c-0.1,0.6-0.2,1-0.4,1.2s-0.5,0.4-0.8,0.4s-0.9,0.1-1.9,0.1c-1.2,0-2.1,0.1-2.5,0.4
		c-0.4,0.2-0.8,0.6-1,1.1c-0.2,0.5-0.3,1.2-0.3,2c0.4-0.6,0.8-1,1.3-1.3s1.1-0.4,1.7-0.4c1.2,0,2.1,0.4,2.9,1.2
		c0.8,0.8,1.1,1.9,1.1,3.2c0,1-0.2,1.9-0.6,2.5c-0.4,0.7-0.8,1.2-1.4,1.5c-0.5,0.4-1.2,0.5-2.1,0.5c-1,0-1.9-0.2-2.4-0.7
		c-0.6-0.5-1-1.1-1.3-1.8c-0.3-0.7-0.5-2-0.5-3.9c0-2.3,0.4-3.9,1.2-4.7c0.8-0.8,2-1.2,3.6-1.2c1,0,1.6,0,1.7,0
		C145.5,19.9,145.6,19.8,145.6,19.7z M145.5,27.7c0-0.9-0.2-1.7-0.7-2.3c-0.4-0.6-1-0.9-1.8-0.9c-0.8,0-1.5,0.3-1.9,0.9
		c-0.4,0.6-0.7,1.4-0.7,2.5c0,1,0.2,1.8,0.7,2.3c0.5,0.5,1.1,0.8,1.8,0.8c0.7,0,1.3-0.3,1.8-0.9S145.5,28.8,145.5,27.7z"/>
	<path class="st0" d="M148.9,23.4h1.5v3.4h1.9c1.2,0,2.2,0.2,2.9,0.7s1,1.1,1,2c0,0.7-0.3,1.4-0.8,1.9c-0.6,0.5-1.4,0.8-2.7,0.8
		h-3.7V23.4z M150.4,30.9h1.6c0.9,0,1.6-0.1,2-0.3s0.6-0.6,0.6-1.1c0-0.4-0.1-0.7-0.4-1s-1-0.4-2-0.4h-1.8V30.9z M157.3,23.4h1.5
		v8.8h-1.5V23.4z"/>
	<path class="st0" d="M167.3,34.7h-1.2v-2.5h-0.2l-1.6-2.7c-0.3-0.4-0.5-0.8-0.7-0.9c-0.3-0.3-0.6-0.4-1-0.4v4.1h-1.5v-8.8h1.5v3.8
		c0.6,0,1-0.2,1.2-0.5c0.1-0.1,0.3-0.6,0.6-1.3c0.2-0.5,0.4-0.9,0.5-1.1c0.2-0.4,0.5-0.7,0.8-0.8c0.2-0.1,0.6-0.1,1.1-0.1h0.3v1.2
		l-0.4,0c-0.4,0-0.7,0.1-0.9,0.3c-0.1,0.1-0.2,0.4-0.4,0.9c-0.2,0.5-0.4,0.9-0.5,1.1c-0.2,0.3-0.5,0.5-1,0.7
		c0.6,0.2,1.3,0.8,1.9,1.8l0.9,1.5h0.5V34.7z"/>
	<path class="st0" d="M167.7,23.4h7.2v1.2h-2.8v7.6h-1.5v-7.6h-2.8V23.4z"/>
	<path class="st0" d="M176.4,23.4h1.5v3.4h1.9c1.2,0,2.2,0.2,2.9,0.7s1,1.1,1,2c0,0.7-0.3,1.4-0.8,1.9c-0.6,0.5-1.4,0.8-2.7,0.8
		h-3.7V23.4z M177.8,30.9h1.6c0.9,0,1.6-0.1,2-0.3s0.6-0.6,0.6-1.1c0-0.4-0.1-0.7-0.4-1s-1-0.4-2-0.4h-1.8V30.9z M184.7,23.4h1.5
		v8.8h-1.5V23.4z"/>
	<path class="st0" d="M193.3,23.4h1.5V27h4.1v-3.7h1.5v8.8h-1.5v-3.9h-4.1v3.9h-1.5V23.4z"/>
	<path class="st0" d="M202.7,23.4h1.5v3.4h1.9c1.2,0,2.2,0.2,2.9,0.7s1,1.1,1,2c0,0.7-0.3,1.4-0.8,1.9c-0.6,0.5-1.4,0.8-2.7,0.8
		h-3.7V23.4z M204.2,30.9h1.6c0.9,0,1.6-0.1,2-0.3s0.6-0.6,0.6-1.1c0-0.4-0.1-0.7-0.4-1s-1-0.4-2-0.4h-1.8V30.9z M211,23.4h1.5v8.8
		H211V23.4z"/>
	<path class="st0" d="M219.9,24.6h-3.6v2.2h1.9v1.1h-1.9v4.3h-1.5v-4.3h-1v-1.1h1v-3.5h5.1V24.6z"/>
	<path class="st0" d="M226.8,31.1c-0.6,0.5-1.1,0.8-1.6,1c-0.5,0.2-1.1,0.3-1.6,0.3c-1,0-1.7-0.2-2.2-0.7c-0.5-0.5-0.8-1.1-0.8-1.8
		c0-0.4,0.1-0.8,0.3-1.2c0.2-0.4,0.5-0.6,0.8-0.9s0.7-0.4,1.1-0.5c0.3-0.1,0.7-0.2,1.3-0.2c1.2-0.1,2.1-0.3,2.7-0.5
		c0-0.2,0-0.3,0-0.4c0-0.6-0.1-1-0.4-1.3c-0.4-0.3-0.9-0.5-1.7-0.5c-0.7,0-1.2,0.1-1.6,0.4s-0.6,0.7-0.7,1.3l-1.5-0.2
		c0.1-0.6,0.4-1.1,0.7-1.5c0.3-0.4,0.7-0.7,1.3-0.9c0.6-0.2,1.2-0.3,2-0.3c0.8,0,1.4,0.1,1.8,0.3c0.5,0.2,0.8,0.4,1,0.7
		s0.4,0.6,0.5,1c0,0.3,0.1,0.7,0.1,1.4v2c0,1.4,0,2.3,0.1,2.6c0.1,0.4,0.2,0.7,0.4,1.1h-1.6C227,31.9,226.9,31.5,226.8,31.1z
		 M226.7,27.8c-0.5,0.2-1.4,0.4-2.4,0.6c-0.6,0.1-1,0.2-1.3,0.3c-0.3,0.1-0.5,0.3-0.6,0.5c-0.1,0.2-0.2,0.4-0.2,0.7
		c0,0.4,0.2,0.7,0.5,1s0.7,0.4,1.3,0.4c0.6,0,1.1-0.1,1.5-0.4c0.4-0.3,0.8-0.6,1-1c0.2-0.3,0.2-0.8,0.2-1.5V27.8z"/>
	<path class="st0" d="M230.5,23.4h1.5v6.7l4.1-6.7h1.6v8.8h-1.5v-6.7l-4.1,6.7h-1.6V23.4z M235.7,20h1c-0.1,0.7-0.3,1.2-0.8,1.6
		c-0.4,0.4-1,0.6-1.7,0.6c-0.7,0-1.3-0.2-1.7-0.6c-0.4-0.4-0.7-0.9-0.8-1.6h1c0.1,0.4,0.2,0.7,0.5,0.8c0.2,0.2,0.5,0.3,0.9,0.3
		c0.4,0,0.8-0.1,1-0.3C235.5,20.7,235.6,20.4,235.7,20z"/>
	<path class="st0" d="M239.2,23.4h7.2v1.2h-2.8v7.6h-1.5v-7.6h-2.8V23.4z"/>
	<path class="st0" d="M247.9,35.6l-0.2-1.4c0.3,0.1,0.6,0.1,0.9,0.1c0.3,0,0.6-0.1,0.8-0.2s0.4-0.3,0.5-0.5c0.1-0.1,0.2-0.5,0.5-1.1
		c0-0.1,0.1-0.2,0.1-0.4l-3.3-8.8h1.6l1.8,5.1c0.2,0.6,0.5,1.3,0.6,2c0.2-0.7,0.4-1.4,0.6-2l1.9-5.1h1.5l-3.4,9
		c-0.4,1-0.6,1.6-0.8,2c-0.3,0.5-0.6,0.9-0.9,1.1c-0.3,0.2-0.8,0.3-1.2,0.3C248.6,35.8,248.3,35.7,247.9,35.6z"/>
	<path class="st0" d="M261.6,24.6H258v2.2h1.9v1.1H258v4.3h-1.5v-4.3h-1v-1.1h1v-3.5h5.1V24.6z"/>
	<path class="st0" d="M268.4,31.1c-0.6,0.5-1.1,0.8-1.6,1c-0.5,0.2-1.1,0.3-1.6,0.3c-1,0-1.7-0.2-2.2-0.7c-0.5-0.5-0.8-1.1-0.8-1.8
		c0-0.4,0.1-0.8,0.3-1.2c0.2-0.4,0.5-0.6,0.8-0.9s0.7-0.4,1.1-0.5c0.3-0.1,0.7-0.2,1.3-0.2c1.2-0.1,2.1-0.3,2.7-0.5
		c0-0.2,0-0.3,0-0.4c0-0.6-0.1-1-0.4-1.3c-0.4-0.3-0.9-0.5-1.7-0.5c-0.7,0-1.2,0.1-1.6,0.4s-0.6,0.7-0.7,1.3l-1.5-0.2
		c0.1-0.6,0.4-1.1,0.7-1.5c0.3-0.4,0.7-0.7,1.3-0.9c0.6-0.2,1.2-0.3,2-0.3c0.8,0,1.4,0.1,1.8,0.3c0.5,0.2,0.8,0.4,1,0.7
		s0.4,0.6,0.5,1c0,0.3,0.1,0.7,0.1,1.4v2c0,1.4,0,2.3,0.1,2.6c0.1,0.4,0.2,0.7,0.4,1.1h-1.6C268.6,31.9,268.5,31.5,268.4,31.1z
		 M268.3,27.8c-0.5,0.2-1.4,0.4-2.4,0.6c-0.6,0.1-1,0.2-1.3,0.3c-0.3,0.1-0.5,0.3-0.6,0.5c-0.1,0.2-0.2,0.4-0.2,0.7
		c0,0.4,0.2,0.7,0.5,1s0.7,0.4,1.3,0.4c0.6,0,1.1-0.1,1.5-0.4c0.4-0.3,0.8-0.6,1-1c0.2-0.3,0.2-0.8,0.2-1.5V27.8z"/>
	<path class="st0" d="M272.5,32.2v-1.7h1.7v1.7c0,0.6-0.1,1.1-0.3,1.5c-0.2,0.4-0.6,0.7-1.1,0.9l-0.4-0.6c0.3-0.1,0.5-0.3,0.7-0.6
		c0.1-0.3,0.2-0.7,0.2-1.2H272.5z"/>
	<path class="st0" d="M1.2,43.4h1.5v3.8c0.5,0,0.8-0.1,1-0.3c0.2-0.2,0.5-0.7,0.8-1.6c0.3-0.7,0.5-1.2,0.7-1.4s0.4-0.4,0.6-0.4
		s0.6-0.1,1.1-0.1h0.3v1.2l-0.4,0c-0.4,0-0.6,0.1-0.8,0.2c-0.1,0.1-0.3,0.5-0.5,1.1c-0.2,0.6-0.4,1-0.6,1.2s-0.5,0.4-0.9,0.6
		c0.6,0.2,1.3,0.8,1.9,1.8l1.6,2.7H6l-1.6-2.7c-0.3-0.5-0.6-0.9-0.9-1.1c-0.2-0.2-0.5-0.3-0.9-0.3v4.1H1.2V43.4z"/>
	<path class="st0" d="M16.3,47.6c0,2.1-0.7,3.5-2,4.2c-0.6,0.4-1.4,0.5-2.1,0.5c-1.3,0-2.4-0.4-3.1-1.3c-0.7-0.8-1-1.9-1-3.3
		c0-1.6,0.5-2.8,1.4-3.6c0.8-0.7,1.7-1,2.8-1c1.3,0,2.3,0.4,3.1,1.3C15.9,45.3,16.3,46.3,16.3,47.6z M14.8,48.2H9.6
		c0,0.9,0.3,1.5,0.7,2.1c0.5,0.6,1.1,0.9,1.9,0.9s1.4-0.3,1.9-0.9C14.5,49.7,14.7,49,14.8,48.2z M14.7,46.9
		c-0.1-0.7-0.3-1.3-0.7-1.7c-0.5-0.6-1.1-0.8-1.9-0.8c-0.7,0-1.4,0.3-1.9,0.8c-0.4,0.4-0.6,1-0.7,1.7H14.7z"/>
	<path class="st0" d="M20,48.2V47c0.6,0,1.1,0,1.3-0.1c0.2,0,0.4-0.2,0.7-0.4s0.3-0.5,0.3-0.8c0-0.4-0.1-0.7-0.4-1
		c-0.3-0.2-0.6-0.4-1-0.4c-0.8,0-1.4,0.5-1.8,1.5l-1.4-0.2c0.4-1.7,1.5-2.5,3.2-2.5c0.9,0,1.7,0.3,2.2,0.8c0.5,0.5,0.8,1.1,0.8,1.8
		c0,0.7-0.3,1.3-1,1.7c0.4,0.2,0.8,0.5,1,0.9s0.3,0.8,0.3,1.3c0,0.8-0.3,1.4-0.9,1.9c-0.6,0.5-1.4,0.7-2.4,0.7c-2,0-3.2-0.9-3.5-2.7
		l1.4-0.3c0.1,0.6,0.4,1,0.8,1.3c0.4,0.3,0.8,0.5,1.3,0.5s0.9-0.1,1.3-0.4c0.3-0.3,0.5-0.6,0.5-1.1c0-0.3-0.1-0.6-0.3-0.9
		s-0.4-0.4-0.7-0.5s-0.7-0.1-1.3-0.1C20.3,48.2,20.2,48.2,20,48.2z"/>
	<path class="st0" d="M26.7,43.4h6.1v7.6h1v3.7h-1.2v-2.5h-6.9v2.5h-1.2v-3.7h0.8C26.2,49.5,26.7,47,26.7,43.4z M27.9,44.6
		c-0.1,2.9-0.6,5-1.3,6.3h4.7v-6.3H27.9z"/>
	<path class="st0" d="M35.4,41.7V40h1.5v1.7H35.4z M35.4,52.2v-8.8h1.5v8.8H35.4z"/>
	<path class="st0" d="M47.3,54.7H46v-2.5h-1.2v-3.9h-4.1v3.9h-1.5v-8.8h1.5V47h4.1v-3.7h1.5v7.6h1V54.7z"/>
	<path class="st0" d="M58.6,43.4v3.8c0.5,0,0.8-0.1,1-0.3s0.5-0.7,0.8-1.6c0.3-0.8,0.7-1.4,0.9-1.6c0.3-0.2,0.7-0.3,1.3-0.3h0.5v1.2
		l-0.4,0c-0.4,0-0.7,0.1-0.8,0.2c-0.1,0.1-0.3,0.5-0.5,1.1c-0.2,0.6-0.4,1-0.6,1.2s-0.5,0.4-0.9,0.6c0.6,0.2,1.3,0.8,1.9,1.8
		l1.6,2.7h-1.6l-1.6-2.7c-0.3-0.6-0.6-0.9-0.9-1.1s-0.5-0.3-0.9-0.3v4.1h-1.5v-4.1c-0.3,0-0.6,0.1-0.9,0.3c-0.2,0.2-0.5,0.5-0.9,1.1
		l-1.6,2.7h-1.6l1.6-2.7c0.6-1,1.3-1.6,1.9-1.8c-0.4-0.2-0.8-0.4-0.9-0.7c-0.2-0.2-0.4-0.8-0.8-1.7c-0.1-0.3-0.3-0.5-0.4-0.6
		c-0.1-0.1-0.4-0.1-0.6-0.1c-0.1,0-0.2,0-0.4,0v-1.2h0.2c0.6,0,1,0,1.2,0.1c0.2,0.1,0.4,0.2,0.6,0.4c0.2,0.2,0.4,0.7,0.7,1.4
		c0.4,0.9,0.6,1.4,0.8,1.6c0.2,0.2,0.5,0.3,1,0.3v-3.8H58.6z"/>
	<path class="st0" d="M71.9,43.4l-3.3,8.8v3.4H67v-3.4l-3.3-8.8h1.6l1.8,5.1c0.3,0.7,0.5,1.4,0.6,2c0.2-0.6,0.4-1.3,0.6-2l1.8-5.1
		H71.9z"/>
	<path class="st0" d="M73.2,43.4h1.5v6.7l4.1-6.7h1.6v8.8h-1.5v-6.7l-4.1,6.7h-1.6V43.4z M78.3,40h1c-0.1,0.7-0.3,1.2-0.8,1.6
		c-0.4,0.4-1,0.6-1.7,0.6c-0.7,0-1.3-0.2-1.7-0.6c-0.4-0.4-0.7-0.9-0.8-1.6h1c0.1,0.4,0.2,0.7,0.5,0.8c0.2,0.2,0.5,0.3,0.9,0.3
		c0.4,0,0.8-0.1,1-0.3C78.1,40.7,78.3,40.4,78.3,40z"/>
	<path class="st0" d="M82.6,43.4h1.5v3.8c0.5,0,0.8-0.1,1-0.3c0.2-0.2,0.5-0.7,0.8-1.6c0.3-0.7,0.5-1.2,0.7-1.4s0.4-0.4,0.6-0.4
		s0.6-0.1,1.1-0.1h0.3v1.2l-0.4,0c-0.4,0-0.6,0.1-0.8,0.2c-0.1,0.1-0.3,0.5-0.5,1.1c-0.2,0.6-0.4,1-0.6,1.2s-0.5,0.4-0.9,0.6
		c0.6,0.2,1.3,0.8,1.9,1.8l1.6,2.7h-1.6l-1.6-2.7c-0.3-0.5-0.6-0.9-0.9-1.1c-0.2-0.2-0.5-0.3-0.9-0.3v4.1h-1.5V43.4z"/>
	<path class="st0" d="M96.3,49.3l1.5,0.2c-0.2,0.9-0.7,1.6-1.4,2.1S95,52.4,94,52.4c-1.3,0-2.3-0.4-3.1-1.2
		c-0.8-0.8-1.1-1.9-1.1-3.3c0-1.5,0.4-2.6,1.1-3.5s1.8-1.2,3-1.2c1.2,0,2.1,0.4,2.9,1.2c0.7,0.8,1.1,1.9,1.1,3.4c0,0.1,0,0.2,0,0.4
		h-6.6c0.1,1,0.3,1.7,0.8,2.2c0.5,0.5,1.1,0.8,1.8,0.8c0.5,0,1-0.1,1.4-0.4S96.1,50,96.3,49.3z M91.4,46.9h4.9
		c-0.1-0.7-0.3-1.3-0.6-1.7c-0.5-0.6-1.1-0.9-1.9-0.9c-0.7,0-1.3,0.2-1.7,0.7C91.7,45.5,91.5,46.2,91.4,46.9z"/>
	<path class="st0" d="M109.8,43.4v3.8c0.5,0,0.8-0.1,1-0.3s0.5-0.7,0.8-1.6c0.3-0.8,0.7-1.4,0.9-1.6c0.3-0.2,0.7-0.3,1.3-0.3h0.5
		v1.2l-0.4,0c-0.4,0-0.7,0.1-0.8,0.2c-0.1,0.1-0.3,0.5-0.5,1.1c-0.2,0.6-0.4,1-0.6,1.2s-0.5,0.4-0.9,0.6c0.6,0.2,1.3,0.8,1.9,1.8
		l1.6,2.7h-1.6l-1.6-2.7c-0.3-0.6-0.6-0.9-0.9-1.1s-0.5-0.3-0.9-0.3v4.1h-1.5v-4.1c-0.3,0-0.6,0.1-0.9,0.3c-0.2,0.2-0.5,0.5-0.9,1.1
		l-1.6,2.7h-1.6l1.6-2.7c0.6-1,1.3-1.6,1.9-1.8c-0.4-0.2-0.8-0.4-0.9-0.7c-0.2-0.2-0.4-0.8-0.8-1.7c-0.1-0.3-0.3-0.5-0.4-0.6
		c-0.1-0.1-0.4-0.1-0.6-0.1c-0.1,0-0.2,0-0.4,0v-1.2h0.2c0.6,0,1,0,1.2,0.1c0.2,0.1,0.4,0.2,0.6,0.4c0.2,0.2,0.4,0.7,0.7,1.4
		c0.4,0.9,0.6,1.4,0.8,1.6c0.2,0.2,0.5,0.3,1,0.3v-3.8H109.8z"/>
	<path class="st0" d="M123.1,43.4l-3.3,8.8v3.4h-1.5v-3.4l-3.3-8.8h1.6l1.8,5.1c0.3,0.7,0.5,1.4,0.6,2c0.2-0.6,0.4-1.3,0.6-2
		l1.8-5.1H123.1z"/>
	<path class="st0" d="M124.3,43.4h1.5v6.7l4.1-6.7h1.6v8.8h-1.5v-6.7l-4.1,6.7h-1.6V43.4z M129.5,40h1c-0.1,0.7-0.3,1.2-0.8,1.6
		c-0.4,0.4-1,0.6-1.7,0.6c-0.7,0-1.3-0.2-1.7-0.6c-0.4-0.4-0.7-0.9-0.8-1.6h1c0.1,0.4,0.2,0.7,0.5,0.8c0.2,0.2,0.5,0.3,0.9,0.3
		c0.4,0,0.8-0.1,1-0.3C129.3,40.7,129.4,40.4,129.5,40z"/>
	<path class="st0" d="M139.9,49.3l1.5,0.2c-0.2,0.9-0.7,1.6-1.4,2.1c-0.7,0.5-1.5,0.7-2.5,0.7c-1.3,0-2.3-0.4-3.1-1.2
		c-0.8-0.8-1.1-1.9-1.1-3.3c0-1.5,0.4-2.6,1.1-3.5s1.8-1.2,3-1.2c1.2,0,2.1,0.4,2.9,1.2c0.7,0.8,1.1,1.9,1.1,3.4c0,0.1,0,0.2,0,0.4
		h-6.6c0.1,1,0.3,1.7,0.8,2.2c0.5,0.5,1.1,0.8,1.8,0.8c0.5,0,1-0.1,1.4-0.4C139.3,50.4,139.6,50,139.9,49.3z M135,46.9h4.9
		c-0.1-0.7-0.3-1.3-0.6-1.7c-0.5-0.6-1.1-0.9-1.9-0.9c-0.7,0-1.3,0.2-1.7,0.7C135.3,45.5,135,46.2,135,46.9z"/>
	<path class="st0" d="M149,48.9l1.5,0.2c-0.2,1-0.6,1.8-1.2,2.4c-0.7,0.6-1.5,0.9-2.4,0.9c-1.2,0-2.2-0.4-2.9-1.2
		c-0.7-0.8-1.1-1.9-1.1-3.4c0-1,0.2-1.8,0.5-2.5c0.3-0.7,0.8-1.2,1.4-1.6c0.6-0.4,1.3-0.5,2.1-0.5c1,0,1.7,0.2,2.3,0.7
		c0.6,0.5,1,1.2,1.2,2.1l-1.5,0.2c-0.1-0.6-0.4-1-0.7-1.3s-0.8-0.4-1.3-0.4c-0.8,0-1.4,0.3-1.8,0.8c-0.5,0.5-0.7,1.4-0.7,2.6
		c0,1.2,0.2,2,0.7,2.6c0.5,0.5,1,0.8,1.8,0.8c0.6,0,1.1-0.2,1.5-0.5C148.7,50.2,148.9,49.7,149,48.9z"/>
	<path class="st0" d="M151.8,41.7V40h1.5v1.7H151.8z M151.8,52.2v-8.8h1.5v8.8H151.8z"/>
	<path class="st0" d="M155.6,43.4h1.5V47h4.1v-3.7h1.5v8.8h-1.5v-3.9h-4.1v3.9h-1.5V43.4z"/>
	<path class="st0" d="M175.9,54.7h-1.2v-2.5h-0.2l-1.6-2.7c-0.3-0.4-0.5-0.8-0.7-0.9c-0.3-0.3-0.6-0.4-1-0.4v4.1h-1.5v-8.8h1.5v3.8
		c0.6,0,1-0.2,1.2-0.5c0.1-0.1,0.3-0.6,0.6-1.3c0.2-0.5,0.4-0.9,0.5-1.1c0.2-0.4,0.5-0.7,0.8-0.8c0.2-0.1,0.6-0.1,1.1-0.1h0.3v1.2
		l-0.4,0c-0.4,0-0.7,0.1-0.9,0.3c-0.1,0.1-0.2,0.4-0.4,0.9c-0.2,0.5-0.4,0.9-0.5,1.1c-0.2,0.3-0.5,0.5-1,0.7
		c0.6,0.2,1.3,0.8,1.9,1.8l0.9,1.5h0.5V54.7z"/>
	<path class="st0" d="M176.6,47.8c0-1.6,0.5-2.8,1.4-3.6c0.8-0.7,1.7-1,2.8-1c1.2,0,2.2,0.4,3,1.2s1.2,1.9,1.2,3.3
		c0,1.1-0.2,2-0.5,2.7c-0.3,0.7-0.8,1.2-1.5,1.5c-0.7,0.4-1.4,0.5-2.1,0.5c-1.2,0-2.2-0.4-3-1.2C176.9,50.4,176.6,49.3,176.6,47.8z
		 M178.1,47.8c0,1.1,0.2,2,0.7,2.5s1.1,0.8,1.9,0.8c0.7,0,1.4-0.3,1.9-0.8c0.5-0.6,0.7-1.4,0.7-2.6c0-1.1-0.2-1.9-0.7-2.5
		c-0.5-0.6-1.1-0.8-1.8-0.8c-0.7,0-1.4,0.3-1.9,0.8S178.1,46.6,178.1,47.8z"/>
	<path class="st0" d="M186.9,43.4h6.9v8.8h-1.5v-7.6h-4V49c0,1,0,1.7-0.1,2s-0.2,0.6-0.5,0.9c-0.3,0.2-0.7,0.4-1.3,0.4
		c-0.3,0-0.7,0-1.2-0.1v-1.2h0.7c0.3,0,0.5,0,0.7-0.1s0.2-0.2,0.3-0.3c0-0.1,0.1-0.6,0.1-1.4V43.4z"/>
	<path class="st0" d="M197.3,43.4h6.1v7.6h1v3.7h-1.2v-2.5h-6.9v2.5H195v-3.7h0.8C196.8,49.5,197.3,47,197.3,43.4z M198.5,44.6
		c-0.1,2.9-0.6,5-1.3,6.3h4.7v-6.3H198.5z"/>
	<path class="st0" d="M211.8,51.1c-0.6,0.5-1.1,0.8-1.6,1c-0.5,0.2-1.1,0.3-1.6,0.3c-1,0-1.7-0.2-2.2-0.7c-0.5-0.5-0.8-1.1-0.8-1.8
		c0-0.4,0.1-0.8,0.3-1.2c0.2-0.4,0.5-0.6,0.8-0.9s0.7-0.4,1.1-0.5c0.3-0.1,0.7-0.2,1.3-0.2c1.2-0.1,2.1-0.3,2.7-0.5
		c0-0.2,0-0.3,0-0.4c0-0.6-0.1-1-0.4-1.3c-0.4-0.3-0.9-0.5-1.7-0.5c-0.7,0-1.2,0.1-1.6,0.4s-0.6,0.7-0.7,1.3l-1.5-0.2
		c0.1-0.6,0.4-1.1,0.7-1.5c0.3-0.4,0.7-0.7,1.3-0.9c0.6-0.2,1.2-0.3,2-0.3c0.8,0,1.4,0.1,1.8,0.3c0.5,0.2,0.8,0.4,1,0.7
		s0.4,0.6,0.5,1c0,0.3,0.1,0.7,0.1,1.4v2c0,1.4,0,2.3,0.1,2.6c0.1,0.4,0.2,0.7,0.4,1.1h-1.6C211.9,51.9,211.8,51.5,211.8,51.1z
		 M211.7,47.8c-0.5,0.2-1.4,0.4-2.4,0.6c-0.6,0.1-1,0.2-1.3,0.3c-0.3,0.1-0.5,0.3-0.6,0.5c-0.1,0.2-0.2,0.4-0.2,0.7
		c0,0.4,0.2,0.7,0.5,1s0.7,0.4,1.3,0.4c0.6,0,1.1-0.1,1.5-0.4c0.4-0.3,0.8-0.6,1-1c0.2-0.3,0.2-0.8,0.2-1.5V47.8z"/>
	<path class="st0" d="M215.2,55.6l-0.2-1.4c0.3,0.1,0.6,0.1,0.9,0.1c0.3,0,0.6-0.1,0.8-0.2s0.4-0.3,0.5-0.5c0.1-0.1,0.2-0.5,0.5-1.1
		c0-0.1,0.1-0.2,0.1-0.4l-3.3-8.8h1.6l1.8,5.1c0.2,0.6,0.5,1.3,0.6,2c0.2-0.7,0.4-1.4,0.6-2l1.9-5.1h1.5l-3.4,9
		c-0.4,1-0.6,1.6-0.8,2c-0.3,0.5-0.6,0.9-0.9,1.1c-0.3,0.2-0.8,0.3-1.2,0.3C215.9,55.8,215.6,55.7,215.2,55.6z"/>
	<path class="st0" d="M228.9,44.6h-3.6v2.2h1.9v1.1h-1.9v4.3h-1.5v-4.3h-1v-1.1h1v-3.5h5.1V44.6z"/>
	<path class="st0" d="M235.7,51.1c-0.6,0.5-1.1,0.8-1.6,1c-0.5,0.2-1.1,0.3-1.6,0.3c-1,0-1.7-0.2-2.2-0.7c-0.5-0.5-0.8-1.1-0.8-1.8
		c0-0.4,0.1-0.8,0.3-1.2c0.2-0.4,0.5-0.6,0.8-0.9s0.7-0.4,1.1-0.5c0.3-0.1,0.7-0.2,1.3-0.2c1.2-0.1,2.1-0.3,2.7-0.5
		c0-0.2,0-0.3,0-0.4c0-0.6-0.1-1-0.4-1.3c-0.4-0.3-0.9-0.5-1.7-0.5c-0.7,0-1.2,0.1-1.6,0.4s-0.6,0.7-0.7,1.3l-1.5-0.2
		c0.1-0.6,0.4-1.1,0.7-1.5c0.3-0.4,0.7-0.7,1.3-0.9c0.6-0.2,1.2-0.3,2-0.3c0.8,0,1.4,0.1,1.8,0.3c0.5,0.2,0.8,0.4,1,0.7
		s0.4,0.6,0.5,1c0,0.3,0.1,0.7,0.1,1.4v2c0,1.4,0,2.3,0.1,2.6c0.1,0.4,0.2,0.7,0.4,1.1H236C235.9,51.9,235.8,51.5,235.7,51.1z
		 M235.6,47.8c-0.5,0.2-1.4,0.4-2.4,0.6c-0.6,0.1-1,0.2-1.3,0.3c-0.3,0.1-0.5,0.3-0.6,0.5c-0.1,0.2-0.2,0.4-0.2,0.7
		c0,0.4,0.2,0.7,0.5,1s0.7,0.4,1.3,0.4c0.6,0,1.1-0.1,1.5-0.4c0.4-0.3,0.8-0.6,1-1c0.2-0.3,0.2-0.8,0.2-1.5V47.8z"/>
	<path class="st0" d="M7.6,59.7l1.3,0c-0.1,0.6-0.2,1-0.4,1.2c-0.2,0.2-0.5,0.4-0.8,0.4c-0.3,0.1-0.9,0.1-1.9,0.1
		c-1.2,0-2.1,0.1-2.5,0.4c-0.4,0.2-0.8,0.6-1,1.1c-0.2,0.5-0.3,1.2-0.3,2c0.4-0.6,0.8-1,1.3-1.3s1.1-0.4,1.7-0.4
		c1.2,0,2.1,0.4,2.9,1.2s1.1,1.9,1.1,3.2c0,1-0.2,1.9-0.6,2.5c-0.4,0.7-0.8,1.2-1.4,1.5c-0.5,0.4-1.2,0.5-2.1,0.5
		c-1,0-1.9-0.2-2.4-0.7c-0.6-0.5-1-1.1-1.3-1.8s-0.5-2-0.5-3.9c0-2.3,0.4-3.9,1.2-4.7C2.8,60.4,4,60,5.6,60c1,0,1.6,0,1.7,0
		S7.6,59.8,7.6,59.7z M7.5,67.7c0-0.9-0.2-1.7-0.7-2.3c-0.4-0.6-1-0.9-1.8-0.9c-0.8,0-1.5,0.3-1.9,0.9C2.7,66.1,2.5,67,2.5,68
		c0,1,0.2,1.8,0.7,2.3c0.5,0.5,1.1,0.8,1.8,0.8c0.7,0,1.3-0.3,1.8-0.9C7.3,69.6,7.5,68.8,7.5,67.7z"/>
	<path class="st0" d="M16.7,69.3l1.5,0.2c-0.2,0.9-0.7,1.6-1.4,2.1s-1.5,0.7-2.5,0.7c-1.3,0-2.3-0.4-3.1-1.2
		c-0.8-0.8-1.1-1.9-1.1-3.3c0-1.5,0.4-2.6,1.1-3.5s1.8-1.2,3-1.2c1.2,0,2.1,0.4,2.9,1.2c0.7,0.8,1.1,1.9,1.1,3.4c0,0.1,0,0.2,0,0.4
		h-6.6c0.1,1,0.3,1.7,0.8,2.2c0.5,0.5,1.1,0.8,1.8,0.8c0.5,0,1-0.1,1.4-0.4S16.5,70,16.7,69.3z M11.8,66.9h4.9
		c-0.1-0.7-0.3-1.3-0.6-1.7c-0.5-0.6-1.1-0.9-1.9-0.9c-0.7,0-1.3,0.2-1.7,0.7C12.1,65.5,11.9,66.2,11.8,66.9z"/>
	<path class="st0" d="M20.3,63.4h6.9v8.8h-1.5v-7.6h-4V69c0,1,0,1.7-0.1,2s-0.2,0.6-0.5,0.9c-0.3,0.2-0.7,0.4-1.3,0.4
		c-0.3,0-0.8,0-1.2-0.1v-1.2h0.7c0.3,0,0.5,0,0.7-0.1s0.2-0.2,0.3-0.3c0-0.1,0.1-0.6,0.1-1.4V63.4z"/>
	<path class="st0" d="M35.3,68.9l1.5,0.2c-0.2,1-0.6,1.8-1.2,2.4c-0.7,0.6-1.5,0.9-2.4,0.9c-1.2,0-2.2-0.4-2.9-1.2
		c-0.7-0.8-1.1-1.9-1.1-3.4c0-1,0.2-1.8,0.5-2.5s0.8-1.2,1.4-1.6c0.6-0.4,1.3-0.5,2.1-0.5c1,0,1.7,0.2,2.3,0.7
		c0.6,0.5,1,1.2,1.2,2.1l-1.5,0.2c-0.1-0.6-0.4-1-0.7-1.3c-0.4-0.3-0.8-0.4-1.3-0.4c-0.8,0-1.4,0.3-1.8,0.8
		c-0.5,0.5-0.7,1.4-0.7,2.6c0,1.2,0.2,2,0.7,2.6c0.5,0.5,1,0.8,1.8,0.8c0.6,0,1.1-0.2,1.5-0.5C34.9,70.2,35.2,69.7,35.3,68.9z"/>
	<path class="st0" d="M44.1,69.3l1.5,0.2c-0.2,0.9-0.7,1.6-1.4,2.1s-1.5,0.7-2.5,0.7c-1.3,0-2.3-0.4-3.1-1.2
		c-0.8-0.8-1.1-1.9-1.1-3.3c0-1.5,0.4-2.6,1.1-3.5s1.8-1.2,3-1.2c1.2,0,2.1,0.4,2.9,1.2c0.7,0.8,1.1,1.9,1.1,3.4c0,0.1,0,0.2,0,0.4
		h-6.6c0.1,1,0.3,1.7,0.8,2.2c0.5,0.5,1.1,0.8,1.8,0.8c0.5,0,1-0.1,1.4-0.4S43.8,70,44.1,69.3z M39.1,66.9h4.9
		c-0.1-0.7-0.3-1.3-0.6-1.7c-0.5-0.6-1.1-0.9-1.9-0.9c-0.7,0-1.3,0.2-1.7,0.7C39.5,65.5,39.2,66.2,39.1,66.9z"/>
	<path class="st0" d="M47.5,63.4H49V67h4.1v-3.7h1.5v8.8h-1.5v-3.9H49v3.9h-1.5V63.4z"/>
	<path class="st0" d="M62.9,69.3l1.5,0.2c-0.2,0.9-0.7,1.6-1.4,2.1s-1.5,0.7-2.5,0.7c-1.3,0-2.3-0.4-3.1-1.2
		c-0.8-0.8-1.1-1.9-1.1-3.3c0-1.5,0.4-2.6,1.1-3.5s1.8-1.2,3-1.2c1.2,0,2.1,0.4,2.9,1.2c0.7,0.8,1.1,1.9,1.1,3.4c0,0.1,0,0.2,0,0.4
		h-6.6c0.1,1,0.3,1.7,0.8,2.2c0.5,0.5,1.1,0.8,1.8,0.8c0.5,0,1-0.1,1.4-0.4S62.7,70,62.9,69.3z M58,66.9h4.9
		c-0.1-0.7-0.3-1.3-0.6-1.7c-0.5-0.6-1.1-0.9-1.9-0.9c-0.7,0-1.3,0.2-1.7,0.7C58.3,65.5,58,66.2,58,66.9z"/>
	<path class="st0" d="M76.8,71.1c-0.6,0.5-1.1,0.8-1.6,1c-0.5,0.2-1.1,0.3-1.6,0.3c-1,0-1.7-0.2-2.2-0.7c-0.5-0.5-0.8-1.1-0.8-1.8
		c0-0.4,0.1-0.8,0.3-1.2c0.2-0.4,0.5-0.6,0.8-0.9c0.3-0.2,0.7-0.4,1.1-0.5c0.3-0.1,0.7-0.2,1.3-0.2c1.2-0.1,2.1-0.3,2.7-0.5
		c0-0.2,0-0.3,0-0.4c0-0.6-0.1-1-0.4-1.3c-0.4-0.3-0.9-0.5-1.7-0.5c-0.7,0-1.2,0.1-1.6,0.4c-0.3,0.2-0.6,0.7-0.7,1.3l-1.5-0.2
		c0.1-0.6,0.4-1.1,0.7-1.5c0.3-0.4,0.7-0.7,1.3-0.9c0.6-0.2,1.2-0.3,2-0.3c0.8,0,1.4,0.1,1.8,0.3s0.8,0.4,1,0.7s0.4,0.6,0.5,1
		c0,0.3,0.1,0.7,0.1,1.4v2c0,1.4,0,2.3,0.1,2.6c0.1,0.4,0.2,0.7,0.4,1.1h-1.6C76.9,71.9,76.8,71.5,76.8,71.1z M76.7,67.8
		c-0.5,0.2-1.4,0.4-2.4,0.6c-0.6,0.1-1,0.2-1.3,0.3c-0.3,0.1-0.5,0.3-0.6,0.5c-0.1,0.2-0.2,0.4-0.2,0.7c0,0.4,0.2,0.7,0.5,1
		c0.3,0.3,0.7,0.4,1.3,0.4c0.6,0,1.1-0.1,1.5-0.4c0.4-0.3,0.8-0.6,1-1c0.2-0.3,0.2-0.8,0.2-1.5V67.8z"/>
	<path class="st0" d="M80.5,75.6V63.4h1.4v1.1c0.3-0.4,0.7-0.8,1.1-1c0.4-0.2,0.9-0.3,1.5-0.3c0.8,0,1.4,0.2,2,0.6s1,0.9,1.3,1.6
		c0.3,0.7,0.4,1.5,0.4,2.3c0,0.9-0.2,1.7-0.5,2.4c-0.3,0.7-0.8,1.3-1.4,1.7c-0.6,0.4-1.3,0.6-1.9,0.6c-0.5,0-0.9-0.1-1.3-0.3
		c-0.4-0.2-0.7-0.5-1-0.8v4.3H80.5z M81.8,67.8c0,1.1,0.2,2,0.7,2.5s1,0.8,1.7,0.8c0.7,0,1.2-0.3,1.7-0.8c0.5-0.6,0.7-1.4,0.7-2.6
		c0-1.1-0.2-2-0.7-2.5c-0.5-0.6-1-0.8-1.7-0.8c-0.6,0-1.2,0.3-1.7,0.9C82.1,65.8,81.8,66.7,81.8,67.8z"/>
	<path class="st0" d="M95.7,71.1c-0.6,0.5-1.1,0.8-1.6,1c-0.5,0.2-1.1,0.3-1.6,0.3c-1,0-1.7-0.2-2.2-0.7c-0.5-0.5-0.8-1.1-0.8-1.8
		c0-0.4,0.1-0.8,0.3-1.2c0.2-0.4,0.5-0.6,0.8-0.9c0.3-0.2,0.7-0.4,1.1-0.5c0.3-0.1,0.7-0.2,1.3-0.2c1.2-0.1,2.1-0.3,2.7-0.5
		c0-0.2,0-0.3,0-0.4c0-0.6-0.1-1-0.4-1.3c-0.4-0.3-0.9-0.5-1.7-0.5c-0.7,0-1.2,0.1-1.6,0.4c-0.3,0.2-0.6,0.7-0.7,1.3l-1.5-0.2
		c0.1-0.6,0.4-1.1,0.7-1.5c0.3-0.4,0.7-0.7,1.3-0.9c0.6-0.2,1.2-0.3,2-0.3c0.8,0,1.4,0.1,1.8,0.3s0.8,0.4,1,0.7s0.4,0.6,0.5,1
		c0,0.3,0.1,0.7,0.1,1.4v2c0,1.4,0,2.3,0.1,2.6c0.1,0.4,0.2,0.7,0.4,1.1H96C95.8,71.9,95.7,71.5,95.7,71.1z M95.6,67.8
		c-0.5,0.2-1.4,0.4-2.4,0.6c-0.6,0.1-1,0.2-1.3,0.3c-0.3,0.1-0.5,0.3-0.6,0.5c-0.1,0.2-0.2,0.4-0.2,0.7c0,0.4,0.2,0.7,0.5,1
		c0.3,0.3,0.7,0.4,1.3,0.4c0.6,0,1.1-0.1,1.5-0.4c0.4-0.3,0.8-0.6,1-1c0.2-0.3,0.2-0.8,0.2-1.5V67.8z"/>
	<path class="st0" d="M100.1,63.4h6.9v8.8h-1.5v-7.6h-4V69c0,1,0,1.7-0.1,2s-0.2,0.6-0.5,0.9c-0.3,0.2-0.7,0.4-1.3,0.4
		c-0.3,0-0.8,0-1.2-0.1v-1.2h0.7c0.3,0,0.5,0,0.7-0.1s0.2-0.2,0.3-0.3c0-0.1,0.1-0.6,0.1-1.4V63.4z"/>
	<path class="st0" d="M115.1,71.1c-0.6,0.5-1.1,0.8-1.6,1c-0.5,0.2-1.1,0.3-1.6,0.3c-1,0-1.7-0.2-2.2-0.7c-0.5-0.5-0.8-1.1-0.8-1.8
		c0-0.4,0.1-0.8,0.3-1.2c0.2-0.4,0.5-0.6,0.8-0.9c0.3-0.2,0.7-0.4,1.1-0.5c0.3-0.1,0.7-0.2,1.3-0.2c1.2-0.1,2.1-0.3,2.7-0.5
		c0-0.2,0-0.3,0-0.4c0-0.6-0.1-1-0.4-1.3c-0.4-0.3-0.9-0.5-1.7-0.5c-0.7,0-1.2,0.1-1.6,0.4c-0.3,0.2-0.6,0.7-0.7,1.3l-1.5-0.2
		c0.1-0.6,0.4-1.1,0.7-1.5c0.3-0.4,0.7-0.7,1.3-0.9c0.6-0.2,1.2-0.3,2-0.3c0.8,0,1.4,0.1,1.8,0.3s0.8,0.4,1,0.7s0.4,0.6,0.5,1
		c0,0.3,0.1,0.7,0.1,1.4v2c0,1.4,0,2.3,0.1,2.6c0.1,0.4,0.2,0.7,0.4,1.1h-1.6C115.2,71.9,115.1,71.5,115.1,71.1z M114.9,67.8
		c-0.5,0.2-1.4,0.4-2.4,0.6c-0.6,0.1-1,0.2-1.3,0.3c-0.3,0.1-0.5,0.3-0.6,0.5c-0.1,0.2-0.2,0.4-0.2,0.7c0,0.4,0.2,0.7,0.5,1
		c0.3,0.3,0.7,0.4,1.3,0.4c0.6,0,1.1-0.1,1.5-0.4c0.4-0.3,0.8-0.6,1-1c0.2-0.3,0.2-0.8,0.2-1.5V67.8z"/>
	<path class="st0" d="M124.5,68.9l1.5,0.2c-0.2,1-0.6,1.8-1.2,2.4c-0.7,0.6-1.5,0.9-2.4,0.9c-1.2,0-2.2-0.4-2.9-1.2
		c-0.7-0.8-1.1-1.9-1.1-3.4c0-1,0.2-1.8,0.5-2.5s0.8-1.2,1.4-1.6c0.6-0.4,1.3-0.5,2.1-0.5c1,0,1.7,0.2,2.3,0.7
		c0.6,0.5,1,1.2,1.2,2.1l-1.5,0.2c-0.1-0.6-0.4-1-0.7-1.3c-0.4-0.3-0.8-0.4-1.3-0.4c-0.8,0-1.4,0.3-1.8,0.8
		c-0.5,0.5-0.7,1.4-0.7,2.6c0,1.2,0.2,2,0.7,2.6c0.5,0.5,1,0.8,1.8,0.8c0.6,0,1.1-0.2,1.5-0.5C124.2,70.2,124.4,69.7,124.5,68.9z"/>
	<path class="st0" d="M133,71.1c-0.6,0.5-1.1,0.8-1.6,1c-0.5,0.2-1.1,0.3-1.6,0.3c-1,0-1.7-0.2-2.2-0.7c-0.5-0.5-0.8-1.1-0.8-1.8
		c0-0.4,0.1-0.8,0.3-1.2c0.2-0.4,0.5-0.6,0.8-0.9c0.3-0.2,0.7-0.4,1.1-0.5c0.3-0.1,0.7-0.2,1.3-0.2c1.2-0.1,2.1-0.3,2.7-0.5
		c0-0.2,0-0.3,0-0.4c0-0.6-0.1-1-0.4-1.3c-0.4-0.3-0.9-0.5-1.7-0.5c-0.7,0-1.2,0.1-1.6,0.4c-0.3,0.2-0.6,0.7-0.7,1.3l-1.5-0.2
		c0.1-0.6,0.4-1.1,0.7-1.5c0.3-0.4,0.7-0.7,1.3-0.9c0.6-0.2,1.2-0.3,2-0.3c0.8,0,1.4,0.1,1.8,0.3s0.8,0.4,1,0.7
		c0.2,0.3,0.4,0.6,0.5,1c0,0.3,0.1,0.7,0.1,1.4v2c0,1.4,0,2.3,0.1,2.6c0.1,0.4,0.2,0.7,0.4,1.1h-1.6C133.2,71.9,133.1,71.5,133,71.1
		z M132.9,67.8c-0.5,0.2-1.4,0.4-2.4,0.6c-0.6,0.1-1,0.2-1.3,0.3c-0.3,0.1-0.5,0.3-0.6,0.5c-0.1,0.2-0.2,0.4-0.2,0.7
		c0,0.4,0.2,0.7,0.5,1c0.3,0.3,0.7,0.4,1.3,0.4c0.6,0,1.1-0.1,1.5-0.4c0.4-0.3,0.8-0.6,1-1c0.2-0.3,0.2-0.8,0.2-1.5V67.8z"/>
	<path class="st0" d="M137.9,63.4h6.1v7.6h1v3.7h-1.2v-2.5h-6.9v2.5h-1.2v-3.7h0.8C137.4,69.5,138,67,137.9,63.4z M139.2,64.6
		c-0.1,2.9-0.6,5-1.3,6.3h4.7v-6.3H139.2z"/>
	<path class="st0" d="M146.7,63.4h1.5v3.4h1.9c1.2,0,2.2,0.2,2.9,0.7s1,1.1,1,2c0,0.7-0.3,1.4-0.8,1.9c-0.6,0.5-1.4,0.8-2.7,0.8
		h-3.7V63.4z M148.2,70.9h1.6c0.9,0,1.6-0.1,2-0.3s0.6-0.6,0.6-1.1c0-0.4-0.1-0.7-0.4-1s-1-0.4-2-0.4h-1.8V70.9z M155,63.4h1.5v8.8
		H155V63.4z"/>
</g>
</svg>
