<?xml version="1.0" encoding="utf-8"?>
<!-- Generator: Adobe Illustrator 25.2.3, SVG Export Plug-In . SVG Version: 6.00 Build 0)  -->
<svg version="1.1" id="Layer_1" xmlns="http://www.w3.org/2000/svg" xmlns:xlink="http://www.w3.org/1999/xlink" x="0px" y="0px"
	 viewBox="0 0 321.7 95.9" style="enable-background:new 0 0 321.7 95.9;" xml:space="preserve">
<style type="text/css">
	.st0{fill:#147BB8;}
</style>
<g>
	<path class="st0" d="M14.7,21.5h-2.9v-3.8h-1.2l-2.1-4.5c0-0.1-0.1-0.2-0.2-0.4c-0.1-0.1-0.2-0.4-0.4-0.8c-0.4-0.7-0.7-1.2-0.9-1.4
		C6.6,10.1,6.1,10,5.4,10v7.7H1.8V0.1h3.5v7.5c0.9-0.1,1.5-0.4,2-1.1c0.1-0.2,0.4-0.9,0.9-2.2c0.7-1.7,1.3-2.9,2-3.4
		C11,0.3,12.3,0,14,0c0.1,0,0.3,0,0.5,0v2.6l-0.5,0c-1.2,0-2,0.3-2.4,1.1c-0.2,0.4-0.5,1.1-0.9,2.3c-0.3,0.7-0.5,1.2-0.7,1.6
		C9.7,7.9,9.3,8.3,8.7,8.6c0.8,0.2,1.5,0.7,2,1.4c0.6,0.8,1.1,1.7,1.7,2.9l0.9,1.9h1.5V21.5z"/>
	<path class="st0" d="M27.5,4.9l-4.9,12.7h3.7v2.2h-3.7v2.6h-3.4v-2.6h-3.7v-2.2h3.7l-5-12.7h3.5l3.1,9l3.1-9H27.5z"/>
	<path class="st0" d="M28.5,4.9h3.1v1.9c0.4-0.6,1-1.2,1.6-1.6s1.5-0.6,2.3-0.6c1.5,0,2.7,0.6,3.8,1.7c1,1.2,1.5,2.8,1.5,4.8
		c0,2.1-0.5,3.8-1.6,4.9c-1,1.2-2.3,1.8-3.8,1.8c-0.7,0-1.3-0.1-1.9-0.4c-0.6-0.3-1.2-0.8-1.8-1.4v6.4h-3.4V4.9z M31.8,11.1
		c0,1.4,0.3,2.5,0.8,3.2c0.6,0.7,1.3,1,2.1,1c0.8,0,1.4-0.3,1.9-0.9s0.8-1.7,0.8-3.1c0-1.3-0.3-2.3-0.8-3c-0.5-0.6-1.2-1-2-1
		c-0.8,0-1.5,0.3-2,1C32.1,8.9,31.8,9.8,31.8,11.1z"/>
	<path class="st0" d="M45.2,8.8l-3-0.5c0.3-1.2,0.9-2.1,1.8-2.7C44.8,5,46,4.7,47.7,4.7c1.5,0,2.6,0.2,3.3,0.5
		c0.7,0.4,1.2,0.8,1.5,1.4c0.3,0.5,0.4,1.5,0.4,3l0,3.9c0,1.1,0.1,1.9,0.2,2.5c0.1,0.5,0.3,1.1,0.6,1.7h-3.3c-0.1-0.2-0.2-0.6-0.3-1
		C50,16.5,50,16.3,50,16.3c-0.6,0.6-1.2,1-1.8,1.3c-0.7,0.3-1.4,0.4-2.1,0.4c-1.3,0-2.3-0.4-3.1-1.1s-1.1-1.6-1.1-2.7
		c0-0.7,0.2-1.4,0.5-1.9c0.3-0.6,0.8-1,1.4-1.3c0.6-0.3,1.5-0.6,2.7-0.8c1.6-0.3,2.7-0.6,3.3-0.8V9c0-0.6-0.2-1.1-0.5-1.4
		c-0.3-0.3-0.9-0.4-1.8-0.4c-0.6,0-1.1,0.1-1.4,0.4C45.7,7.8,45.4,8.2,45.2,8.8z M49.7,11.5c-0.4,0.1-1.1,0.3-2,0.5
		s-1.5,0.4-1.8,0.6c-0.4,0.3-0.7,0.7-0.7,1.2c0,0.5,0.2,0.9,0.5,1.2s0.8,0.5,1.3,0.5c0.6,0,1.2-0.2,1.7-0.6c0.4-0.3,0.7-0.7,0.8-1.1
		c0.1-0.3,0.1-0.8,0.1-1.6V11.5z"/>
	<path class="st0" d="M55.5,4.9h4.2l3.2,8.8L66,4.9h4.1v12.7h-2.9V9.3l-3.1,8.4h-2.9l-3-8.4v8.4h-2.9V4.9z"/>
	<path class="st0" d="M72.7,4.9h3.4v5.3h3.4c1.3,0,2.3,0.1,3,0.3c0.7,0.2,1.3,0.6,1.8,1.2s0.7,1.4,0.7,2.2c0,1.2-0.4,2.1-1.3,2.8
		c-0.8,0.6-2.1,0.9-3.8,0.9h-7.2V4.9z M76.1,15.5h3.1c0.8,0,1.4-0.1,1.8-0.4c0.4-0.3,0.5-0.7,0.5-1.2c0-0.6-0.2-1-0.7-1.3
		c-0.5-0.2-1.3-0.3-2.6-0.3h-2.2V15.5z M86.9,4.9h3.4v12.7h-3.4V4.9z"/>
	<path class="st0" d="M93.4,8.3V4.9h3.4v3.4H93.4z M93.4,17.6v-3.4h3.4v3.4H93.4z"/>
	<path class="st0" d="M106.9,4.9h10v12.7h-2.1V6.7H109v6.3c0,1.5,0,2.4-0.1,2.9c-0.1,0.5-0.4,0.9-0.8,1.2c-0.4,0.4-1.1,0.5-1.9,0.5
		c-0.5,0-1.1,0-1.7-0.1v-1.8h0.9c0.4,0,0.8,0,1-0.1c0.2-0.1,0.3-0.2,0.4-0.4c0.1-0.2,0.1-0.8,0.1-1.9V4.9z"/>
	<path class="st0" d="M119.3,4.9h2.2v5.3h2.6c0.2-1.8,0.8-3.2,1.7-4.2c0.9-1,2.2-1.4,3.7-1.4c1.3,0,2.3,0.3,3,0.8
		c0.7,0.5,1.4,1.2,1.8,2.1s0.7,2.1,0.7,3.7c0,2.2-0.5,3.9-1.5,5c-1,1.1-2.3,1.7-4.1,1.7c-1.6,0-2.9-0.5-3.8-1.6
		c-1-1.1-1.5-2.5-1.6-4.3h-2.6v5.6h-2.2V4.9z M129.5,6.5c-1.1,0-1.9,0.4-2.5,1.2c-0.6,0.8-0.9,1.9-0.9,3.4c0,1.7,0.3,3,0.9,3.8
		c0.6,0.8,1.4,1.2,2.4,1.2c1,0,1.8-0.4,2.4-1.1s0.9-2,0.9-3.6c0-1.6-0.3-2.9-0.8-3.7C131.5,6.9,130.6,6.5,129.5,6.5z"/>
	<path class="st0" d="M135.1,4.9h10.3v1.8h-4.1v10.9h-2.1V6.7h-4.1V4.9z"/>
	<path class="st0" d="M155,13.6l2.2,0.3c-0.4,1.3-1,2.3-1.9,3c-0.9,0.7-2.2,1.1-3.6,1.1c-1.9,0-3.3-0.6-4.4-1.7
		c-1.1-1.1-1.6-2.7-1.6-4.8c0-2.1,0.5-3.8,1.6-5c1.1-1.2,2.5-1.8,4.3-1.8c1.7,0,3.1,0.6,4.2,1.7c1.1,1.2,1.6,2.8,1.6,4.9
		c0,0.1,0,0.3,0,0.6h-9.5c0.1,1.4,0.5,2.5,1.2,3.2s1.6,1.1,2.7,1.1c0.8,0,1.5-0.2,2-0.6C154.2,15.1,154.7,14.5,155,13.6z
		 M147.9,10.1h7.1c-0.1-1.1-0.4-1.9-0.8-2.4c-0.7-0.8-1.6-1.2-2.7-1.2c-1,0-1.8,0.3-2.5,1C148.4,8.1,148,9,147.9,10.1z"/>
	<path class="st0" d="M159.1,4.9h2.2v9.7l6-9.7h2.3v12.7h-2.2V8l-6,9.6h-2.3V4.9z"/>
	<path class="st0" d="M171.9,4.9h2.2v5.3h6V4.9h2.2v12.7H180V12h-6v5.6h-2.2V4.9z"/>
	<path class="st0" d="M185.1,17.6v-2.5h2.5v2.5c0,0.9-0.2,1.6-0.5,2.2c-0.3,0.6-0.8,1-1.5,1.3l-0.6-0.9c0.5-0.2,0.8-0.5,1-0.9
		c0.2-0.4,0.3-0.9,0.4-1.7H185.1z"/>
	<path class="st0" d="M199.2,11.9v-1.7c0.9,0,1.5,0,1.9-0.1c0.3-0.1,0.6-0.3,0.9-0.6c0.3-0.3,0.4-0.7,0.4-1.2c0-0.6-0.2-1-0.6-1.4
		c-0.4-0.3-0.9-0.5-1.5-0.5c-1.2,0-2.1,0.7-2.5,2.1l-2-0.3c0.6-2.4,2.2-3.6,4.6-3.6c1.4,0,2.4,0.4,3.2,1.1c0.8,0.7,1.2,1.6,1.2,2.7
		c0,1-0.5,1.9-1.5,2.5c0.6,0.3,1.1,0.8,1.4,1.3c0.3,0.5,0.5,1.2,0.5,1.9c0,1.1-0.4,2.1-1.2,2.8c-0.8,0.7-2,1.1-3.5,1.1
		c-2.9,0-4.6-1.3-5-3.9l2-0.4c0.2,0.8,0.6,1.4,1.1,1.9c0.6,0.4,1.2,0.7,1.9,0.7s1.3-0.2,1.8-0.6s0.7-0.9,0.7-1.6
		c0-0.5-0.2-0.9-0.5-1.3c-0.3-0.4-0.6-0.6-1-0.7c-0.3-0.1-1-0.1-1.9-0.1C199.7,11.9,199.5,11.9,199.2,11.9z"/>
	<path class="st0" d="M215.2,13.6l2.2,0.3c-0.4,1.3-1,2.3-1.9,3c-0.9,0.7-2.2,1.1-3.6,1.1c-1.9,0-3.3-0.6-4.4-1.7
		c-1.1-1.1-1.6-2.7-1.6-4.8c0-2.1,0.5-3.8,1.6-5c1.1-1.2,2.5-1.8,4.3-1.8c1.7,0,3.1,0.6,4.2,1.7c1.1,1.2,1.6,2.8,1.6,4.9
		c0,0.1,0,0.3,0,0.6H208c0.1,1.4,0.5,2.5,1.2,3.2s1.6,1.1,2.7,1.1c0.8,0,1.5-0.2,2-0.6C214.4,15.1,214.9,14.5,215.2,13.6z
		 M208.1,10.1h7.1c-0.1-1.1-0.4-1.9-0.8-2.4c-0.7-0.8-1.6-1.2-2.7-1.2c-1,0-1.8,0.3-2.5,1C208.6,8.1,208.2,9,208.1,10.1z"/>
	<path class="st0" d="M227.6,16.1c-0.8,0.7-1.6,1.2-2.3,1.4c-0.7,0.3-1.5,0.4-2.4,0.4c-1.4,0-2.5-0.3-3.2-1s-1.1-1.6-1.1-2.6
		c0-0.6,0.1-1.2,0.4-1.7s0.7-0.9,1.1-1.2s1-0.5,1.5-0.7c0.4-0.1,1.1-0.2,1.9-0.3c1.7-0.2,3-0.5,3.8-0.7c0-0.3,0-0.5,0-0.6
		c0-0.9-0.2-1.5-0.6-1.9c-0.5-0.5-1.4-0.7-2.5-0.7c-1,0-1.8,0.2-2.2,0.5c-0.5,0.4-0.8,1-1.1,1.9l-2.1-0.3c0.2-0.9,0.5-1.6,0.9-2.2
		c0.4-0.6,1.1-1,1.9-1.3c0.8-0.3,1.8-0.4,2.9-0.4c1.1,0,2,0.1,2.6,0.4c0.7,0.3,1.2,0.6,1.5,1c0.3,0.4,0.5,0.9,0.7,1.5
		c0.1,0.4,0.1,1,0.1,2v2.9c0,2,0,3.3,0.1,3.8c0.1,0.5,0.3,1,0.5,1.5H228C227.8,17.2,227.6,16.7,227.6,16.1z M227.4,11.3
		c-0.8,0.3-2,0.6-3.5,0.8c-0.9,0.1-1.5,0.3-1.9,0.4c-0.4,0.2-0.6,0.4-0.8,0.7c-0.2,0.3-0.3,0.6-0.3,1c0,0.6,0.2,1.1,0.7,1.4
		c0.4,0.4,1.1,0.6,1.9,0.6c0.8,0,1.6-0.2,2.2-0.5c0.6-0.4,1.1-0.9,1.4-1.5c0.2-0.5,0.3-1.2,0.3-2.2V11.3z"/>
	<path class="st0" d="M232,4.9h2.2v5.5c0.7,0,1.2-0.1,1.4-0.4c0.3-0.3,0.7-1,1.2-2.3c0.4-1,0.8-1.7,1-2c0.3-0.3,0.6-0.5,0.9-0.6
		c0.3-0.1,0.9-0.2,1.6-0.2h0.4v1.8l-0.6,0c-0.6,0-0.9,0.1-1.1,0.3c-0.2,0.2-0.4,0.7-0.8,1.6c-0.3,0.8-0.6,1.4-0.9,1.7
		s-0.7,0.6-1.3,0.9c0.9,0.2,1.8,1.1,2.7,2.6l2.4,3.9H239l-2.3-3.9c-0.5-0.8-0.9-1.3-1.2-1.6c-0.4-0.3-0.8-0.4-1.3-0.4v5.9H232V4.9z"
		/>
	<path class="st0" d="M250.4,13l2.1,0.3c-0.2,1.5-0.8,2.6-1.8,3.4s-2.1,1.2-3.5,1.2c-1.7,0-3.1-0.6-4.2-1.7
		c-1.1-1.1-1.6-2.8-1.6-4.9c0-1.4,0.2-2.6,0.7-3.6c0.5-1,1.1-1.8,2.1-2.3c0.9-0.5,1.9-0.8,3-0.8c1.4,0,2.5,0.3,3.4,1
		c0.9,0.7,1.4,1.7,1.7,3L250.3,9c-0.2-0.9-0.6-1.5-1.1-1.9s-1.1-0.6-1.8-0.6c-1.1,0-2,0.4-2.6,1.2c-0.7,0.8-1,2-1,3.7
		c0,1.7,0.3,2.9,1,3.7c0.7,0.8,1.5,1.2,2.6,1.2c0.8,0,1.5-0.3,2.1-0.8S250.3,14.1,250.4,13z"/>
	<path class="st0" d="M261.8,16.1c-0.8,0.7-1.6,1.2-2.3,1.4c-0.7,0.3-1.5,0.4-2.4,0.4c-1.4,0-2.5-0.3-3.2-1s-1.1-1.6-1.1-2.6
		c0-0.6,0.1-1.2,0.4-1.7s0.7-0.9,1.1-1.2s1-0.5,1.5-0.7c0.4-0.1,1.1-0.2,1.9-0.3c1.7-0.2,3-0.5,3.8-0.7c0-0.3,0-0.5,0-0.6
		c0-0.9-0.2-1.5-0.6-1.9c-0.5-0.5-1.4-0.7-2.5-0.7c-1,0-1.8,0.2-2.2,0.5c-0.5,0.4-0.8,1-1.1,1.9l-2.1-0.3c0.2-0.9,0.5-1.6,0.9-2.2
		c0.4-0.6,1.1-1,1.9-1.3c0.8-0.3,1.8-0.4,2.9-0.4c1.1,0,2,0.1,2.6,0.4c0.7,0.3,1.2,0.6,1.5,1c0.3,0.4,0.5,0.9,0.7,1.5
		c0.1,0.4,0.1,1,0.1,2v2.9c0,2,0,3.3,0.1,3.8c0.1,0.5,0.3,1,0.5,1.5h-2.2C262,17.2,261.9,16.7,261.8,16.1z M261.6,11.3
		c-0.8,0.3-2,0.6-3.5,0.8c-0.9,0.1-1.5,0.3-1.9,0.4c-0.4,0.2-0.6,0.4-0.8,0.7c-0.2,0.3-0.3,0.6-0.3,1c0,0.6,0.2,1.1,0.7,1.4
		c0.4,0.4,1.1,0.6,1.9,0.6c0.8,0,1.6-0.2,2.2-0.5c0.6-0.4,1.1-0.9,1.4-1.5c0.2-0.5,0.3-1.2,0.3-2.2V11.3z"/>
	<path class="st0" d="M266.3,4.9h2.2v5.3h6V4.9h2.2v12.7h-2.2V12h-6v5.6h-2.2V4.9z"/>
	<path class="st0" d="M277.8,4.9h10.3v1.8H284v10.9h-2.1V6.7h-4.1V4.9z"/>
	<path class="st0" d="M289.3,4.9h2.2v9.7l6-9.7h2.3v12.7h-2.2V8l-6,9.6h-2.3V4.9z"/>
	<path class="st0" d="M302.1,4.9h2.2v5.3h6V4.9h2.2v12.7h-2.2V12h-6v5.6h-2.2V4.9z"/>
	<path class="st0" d="M315.4,17.6v-2.5h2.5v2.5c0,0.9-0.2,1.6-0.5,2.2c-0.3,0.6-0.8,1-1.5,1.3l-0.6-0.9c0.5-0.2,0.8-0.5,1-0.9
		c0.2-0.4,0.3-0.9,0.4-1.7H315.4z"/>
	<path class="st0" d="M1.7,29.4H5l3.3,10.2l3.7-10.2h3.1v12.7H13V31.9L9.3,42.1H7.3L3.8,31.4v10.7H1.7V29.4z"/>
	<path class="st0" d="M17.6,29.4h2.2v5h2.7c1.8,0,3.1,0.3,4.1,1c1,0.7,1.4,1.6,1.4,2.8c0,1.1-0.4,2-1.2,2.7s-2.1,1.1-3.8,1.1h-5.4
		V29.4z M19.8,40.3H22c1.4,0,2.3-0.2,2.9-0.5c0.6-0.3,0.9-0.9,0.9-1.6c0-0.5-0.2-1-0.6-1.5c-0.4-0.4-1.4-0.6-2.9-0.6h-2.5V40.3z
		 M29.7,29.4h2.2v12.7h-2.2V29.4z"/>
	<path class="st0" d="M34.3,47V29.4h2v1.6c0.5-0.6,1-1.1,1.6-1.5s1.3-0.5,2.1-0.5c1.1,0,2,0.3,2.9,0.8s1.5,1.3,1.9,2.4
		s0.6,2.1,0.6,3.3c0,1.3-0.2,2.5-0.7,3.5c-0.5,1-1.1,1.8-2,2.4c-0.9,0.6-1.8,0.8-2.8,0.8c-0.7,0-1.4-0.2-1.9-0.5s-1-0.7-1.4-1.1V47
		H34.3z M36.3,35.8c0,1.6,0.3,2.8,1,3.6c0.7,0.8,1.5,1.2,2.4,1.2c1,0,1.8-0.4,2.5-1.2c0.7-0.8,1-2.1,1-3.8c0-1.6-0.3-2.8-1-3.6
		c-0.7-0.8-1.5-1.2-2.4-1.2c-0.9,0-1.7,0.4-2.4,1.3C36.6,33,36.3,34.2,36.3,35.8z"/>
	<path class="st0" d="M47.1,29.4h2.2v5H52c1.8,0,3.1,0.3,4.1,1c1,0.7,1.4,1.6,1.4,2.8c0,1.1-0.4,2-1.2,2.7s-2.1,1.1-3.8,1.1h-5.4
		V29.4z M49.3,40.3h2.3c1.4,0,2.3-0.2,2.9-0.5c0.6-0.3,0.9-0.9,0.9-1.6c0-0.5-0.2-1-0.6-1.5c-0.4-0.4-1.4-0.6-2.9-0.6h-2.5V40.3z
		 M59.2,29.4h2.2v12.7h-2.2V29.4z"/>
	<path class="st0" d="M63.9,29.4H66v10.9h4.9V29.4h2.2v10.9H78V29.4h2.1v12.7H63.9V29.4z"/>
	<path class="st0" d="M83.2,42.1v-2.5h2.5v2.5c0,0.9-0.2,1.6-0.5,2.2c-0.3,0.6-0.8,1-1.5,1.3L83,44.7c0.5-0.2,0.8-0.5,1-0.9
		c0.2-0.4,0.3-0.9,0.4-1.7H83.2z"/>
	<path class="st0" d="M102.8,37.5l2.1,0.3c-0.2,1.5-0.8,2.6-1.8,3.4c-1,0.8-2.1,1.2-3.5,1.2c-1.7,0-3.1-0.6-4.2-1.7
		s-1.6-2.8-1.6-4.9c0-1.4,0.2-2.6,0.7-3.6s1.1-1.8,2.1-2.3s1.9-0.8,3-0.8c1.4,0,2.5,0.3,3.4,1s1.4,1.7,1.7,3l-2.1,0.3
		c-0.2-0.9-0.6-1.5-1.1-1.9c-0.5-0.4-1.1-0.6-1.8-0.6c-1.1,0-2,0.4-2.6,1.2s-1,2-1,3.7c0,1.7,0.3,2.9,1,3.7c0.7,0.8,1.5,1.2,2.6,1.2
		c0.8,0,1.5-0.3,2.1-0.8C102.3,39.3,102.6,38.5,102.8,37.5z"/>
	<path class="st0" d="M114.6,38l2.2,0.3c-0.4,1.3-1,2.3-1.9,3s-2.2,1.1-3.6,1.1c-1.9,0-3.3-0.6-4.4-1.7c-1.1-1.1-1.6-2.7-1.6-4.8
		c0-2.1,0.5-3.8,1.6-5s2.5-1.8,4.3-1.8c1.7,0,3.1,0.6,4.2,1.7s1.6,2.8,1.6,4.9c0,0.1,0,0.3,0,0.6h-9.5c0.1,1.4,0.5,2.5,1.2,3.2
		c0.7,0.7,1.6,1.1,2.7,1.1c0.8,0,1.5-0.2,2-0.6S114.2,38.9,114.6,38z M107.5,34.6h7.1c-0.1-1.1-0.4-1.9-0.8-2.4
		c-0.7-0.8-1.6-1.2-2.7-1.2c-1,0-1.8,0.3-2.5,1C107.9,32.6,107.6,33.4,107.5,34.6z"/>
	<path class="st0" d="M118.9,29.4h10v12.7h-2.1V31.2H121v6.3c0,1.5,0,2.4-0.1,2.9c-0.1,0.5-0.4,0.9-0.8,1.2
		c-0.4,0.4-1.1,0.5-1.9,0.5c-0.5,0-1.1,0-1.7-0.1v-1.8h0.9c0.4,0,0.8,0,1-0.1c0.2-0.1,0.3-0.2,0.4-0.4c0.1-0.2,0.1-0.8,0.1-1.9V29.4
		z"/>
	<path class="st0" d="M139.9,38l2.2,0.3c-0.4,1.3-1,2.3-1.9,3c-0.9,0.7-2.2,1.1-3.6,1.1c-1.9,0-3.3-0.6-4.4-1.7s-1.6-2.7-1.6-4.8
		c0-2.1,0.5-3.8,1.6-5c1.1-1.2,2.5-1.8,4.3-1.8c1.7,0,3.1,0.6,4.2,1.7c1.1,1.2,1.6,2.8,1.6,4.9c0,0.1,0,0.3,0,0.6h-9.5
		c0.1,1.4,0.5,2.5,1.2,3.2c0.7,0.7,1.6,1.1,2.7,1.1c0.8,0,1.5-0.2,2-0.6C139.2,39.6,139.6,38.9,139.9,38z M132.9,34.6h7.1
		c-0.1-1.1-0.4-1.9-0.8-2.4c-0.7-0.8-1.6-1.2-2.7-1.2c-1,0-1.8,0.3-2.5,1C133.3,32.6,132.9,33.4,132.9,34.6z"/>
	<path class="st0" d="M144,29.4h2.2v5.3h6v-5.3h2.2v12.7h-2.2v-5.6h-6v5.6H144V29.4z"/>
	<path class="st0" d="M157.2,42.1v-2.5h2.5v2.5c0,0.9-0.2,1.6-0.5,2.2c-0.3,0.6-0.8,1-1.5,1.3l-0.6-0.9c0.5-0.2,0.8-0.5,1-0.9
		c0.2-0.4,0.3-0.9,0.4-1.7H157.2z"/>
	<path class="st0" d="M181.3,36l2.3,0.6c-0.5,1.9-1.4,3.4-2.6,4.4s-2.8,1.5-4.6,1.5c-1.9,0-3.4-0.4-4.6-1.2
		c-1.2-0.8-2.1-1.9-2.7-3.3c-0.6-1.5-0.9-3-0.9-4.7c0-1.8,0.3-3.4,1-4.8c0.7-1.4,1.7-2.4,3-3.1c1.3-0.7,2.7-1.1,4.2-1.1
		c1.8,0,3.2,0.4,4.4,1.3c1.2,0.9,2,2.1,2.5,3.8l-2.3,0.5c-0.4-1.3-1-2.2-1.8-2.8c-0.8-0.6-1.7-0.9-2.9-0.9c-1.3,0-2.5,0.3-3.4,1
		s-1.5,1.5-1.9,2.6c-0.4,1.1-0.5,2.2-0.5,3.4c0,1.5,0.2,2.8,0.7,3.9s1.1,1.9,2,2.5c0.9,0.5,1.9,0.8,3,0.8c1.3,0,2.4-0.4,3.3-1.1
		C180.4,38.6,181,37.4,181.3,36z"/>
	<path class="st0" d="M185.9,42.1v-2.5h2.5v2.5c0,0.9-0.2,1.6-0.5,2.2c-0.3,0.6-0.8,1-1.5,1.3l-0.6-0.9c0.5-0.2,0.8-0.5,1-0.9
		c0.2-0.4,0.3-0.9,0.4-1.7H185.9z"/>
	<path class="st0" d="M197.6,42.1V24.6h12.7v2.1h-10.3V32h9.7v2.1h-9.7v6h10.8v2.1H197.6z"/>
	<path class="st0" d="M3.3,53.9h8.8v10.9h1.4v5.4h-1.8v-3.6h-10v3.6H0v-5.4h1.1C2.6,62.8,3.4,59.1,3.3,53.9z M5.1,55.7
		c-0.2,4.1-0.8,7.2-1.9,9.1H10v-9.1H5.1z"/>
	<path class="st0" d="M26.1,60.1c0,2-0.5,3.5-1.5,4.8c-1.1,1.3-2.5,2-4.5,2c-1.9,0-3.3-0.6-4.4-1.9c-0.9-1.2-1.4-2.7-1.4-4.7
		c0-0.1,0-0.3,0-0.6h9.5c-0.1-1.2-0.4-2.2-1-3c-0.7-0.9-1.6-1.3-2.8-1.3c-1.6,0-2.7,0.9-3.3,2.6l-2.2-0.3c0.7-2.7,2.6-4.1,5.6-4.1
		c2,0,3.5,0.6,4.5,1.8C25.6,56.6,26.1,58.2,26.1,60.1z M23.8,61.5h-7.1c0.1,1.1,0.4,1.9,0.8,2.4c0.7,0.8,1.6,1.2,2.7,1.2
		c1,0,1.9-0.3,2.6-1.1C23.4,63.4,23.7,62.5,23.8,61.5z"/>
	<path class="st0" d="M27.8,71.5V53.9h2v1.7c0.5-0.6,1-1.1,1.6-1.5c0.6-0.3,1.3-0.5,2.1-0.5c1.1,0,2,0.3,2.9,0.8
		c0.8,0.6,1.5,1.3,1.9,2.4c0.4,1,0.6,2.1,0.6,3.3c0,1.3-0.2,2.5-0.7,3.5c-0.5,1-1.1,1.8-2,2.4c-0.9,0.6-1.8,0.8-2.8,0.8
		c-0.7,0-1.4-0.2-1.9-0.5s-1-0.7-1.4-1.1v6.2H27.8z M29.7,60.3c0,1.6,0.3,2.8,1,3.6c0.7,0.8,1.5,1.2,2.4,1.2c1,0,1.8-0.4,2.5-1.2
		c0.7-0.8,1-2.1,1-3.8c0-1.6-0.3-2.8-1-3.6c-0.7-0.8-1.5-1.2-2.4-1.2c-0.9,0-1.7,0.4-2.4,1.3C30.1,57.4,29.7,58.7,29.7,60.3z"/>
	<path class="st0" d="M40.2,71.5l-0.2-2c0.5,0.1,0.9,0.2,1.2,0.2c0.5,0,0.9-0.1,1.1-0.2c0.3-0.2,0.5-0.4,0.7-0.7
		c0.1-0.2,0.4-0.7,0.7-1.6c0-0.1,0.1-0.3,0.2-0.5l-4.8-12.7h2.3l2.6,7.4c0.3,0.9,0.6,1.9,0.9,2.9c0.2-1,0.5-2,0.9-2.9l2.7-7.4h2.2
		l-4.8,12.9c-0.5,1.4-0.9,2.4-1.2,2.9c-0.4,0.7-0.8,1.2-1.3,1.6c-0.5,0.3-1.1,0.5-1.8,0.5C41.2,71.7,40.7,71.7,40.2,71.5z"/>
	<path class="st0" d="M51.4,53.9h3.3l3.3,10.2l3.7-10.2h3.1v12.7h-2.2V56.4L59,66.6h-1.9l-3.5-10.7v10.7h-2.1V53.9z"/>
	<path class="st0" d="M76,62.5l2.2,0.3c-0.4,1.3-1,2.3-1.9,3s-2.2,1.1-3.6,1.1c-1.9,0-3.3-0.6-4.4-1.7c-1.1-1.1-1.6-2.7-1.6-4.8
		c0-2.1,0.5-3.8,1.6-5c1.1-1.2,2.5-1.8,4.3-1.8c1.7,0,3.1,0.6,4.2,1.7c1.1,1.2,1.6,2.8,1.6,4.9c0,0.1,0,0.3,0,0.6h-9.5
		c0.1,1.4,0.5,2.5,1.2,3.2c0.7,0.7,1.6,1.1,2.7,1.1c0.8,0,1.5-0.2,2-0.6S75.7,63.4,76,62.5z M69,59h7.1c-0.1-1.1-0.4-1.9-0.8-2.4
		c-0.7-0.8-1.6-1.2-2.7-1.2c-1,0-1.8,0.3-2.5,1C69.4,57,69.1,57.9,69,59z"/>
	<path class="st0" d="M80.1,53.9h2.2v5.3h6v-5.3h2.2v12.7h-2.2V61h-6v5.6h-2.2V53.9z"/>
	<path class="st0" d="M94.5,53.9h8.8v10.9h1.4v5.4h-1.8v-3.6h-10v3.6h-1.8v-5.4h1.1C93.8,62.8,94.5,59.1,94.5,53.9z M96.3,55.7
		c-0.2,4.1-0.8,7.2-1.9,9.1h6.8v-9.1H96.3z"/>
	<path class="st0" d="M114.9,62.5l2.2,0.3c-0.4,1.3-1,2.3-1.9,3s-2.2,1.1-3.6,1.1c-1.9,0-3.3-0.6-4.4-1.7c-1.1-1.1-1.6-2.7-1.6-4.8
		c0-2.1,0.5-3.8,1.6-5c1.1-1.2,2.5-1.8,4.3-1.8c1.7,0,3.1,0.6,4.2,1.7c1.1,1.2,1.6,2.8,1.6,4.9c0,0.1,0,0.3,0,0.6h-9.5
		c0.1,1.4,0.5,2.5,1.2,3.2c0.7,0.7,1.6,1.1,2.7,1.1c0.8,0,1.5-0.2,2-0.6S114.6,63.4,114.9,62.5z M107.8,59h7.1
		c-0.1-1.1-0.4-1.9-0.8-2.4c-0.7-0.8-1.6-1.2-2.7-1.2c-1,0-1.8,0.3-2.5,1C108.3,57,107.9,57.9,107.8,59z"/>
	<path class="st0" d="M119,71.5V53.9h2v1.7c0.5-0.6,1-1.1,1.6-1.5c0.6-0.3,1.3-0.5,2.1-0.5c1.1,0,2,0.3,2.9,0.8
		c0.8,0.6,1.5,1.3,1.9,2.4c0.4,1,0.6,2.1,0.6,3.3c0,1.3-0.2,2.5-0.7,3.5c-0.5,1-1.1,1.8-2,2.4c-0.9,0.6-1.8,0.8-2.8,0.8
		c-0.7,0-1.4-0.2-1.9-0.5s-1-0.7-1.4-1.1v6.2H119z M120.9,60.3c0,1.6,0.3,2.8,1,3.6c0.7,0.8,1.5,1.2,2.4,1.2c1,0,1.8-0.4,2.5-1.2
		c0.7-0.8,1-2.1,1-3.8c0-1.6-0.3-2.8-1-3.6c-0.7-0.8-1.5-1.2-2.4-1.2c-0.9,0-1.7,0.4-2.4,1.3C121.3,57.4,120.9,58.7,120.9,60.3z"/>
	<path class="st0" d="M131.7,51.5v-2.5h2.2v2.5H131.7z M131.7,66.6V53.9h2.2v12.7H131.7z"/>
	<path class="st0" d="M136.9,66.6v-2.5h2.5v2.5H136.9z"/>
	<path class="st0" d="M1.9,91.1V73.6h12.7v2.1H4.3V81h9.7V83H4.3v6H15v2.1H1.9z"/>
	<path class="st0" d="M17.1,95.9V78.4h2V80c0.5-0.6,1-1.1,1.6-1.5s1.3-0.5,2.1-0.5c1.1,0,2,0.3,2.9,0.8c0.8,0.6,1.5,1.3,1.9,2.4
		c0.4,1,0.6,2.1,0.6,3.3c0,1.3-0.2,2.5-0.7,3.5c-0.5,1-1.1,1.8-2,2.4c-0.9,0.6-1.8,0.8-2.8,0.8c-0.7,0-1.4-0.2-1.9-0.5
		s-1-0.7-1.4-1.1v6.2H17.1z M19,84.8c0,1.6,0.3,2.8,1,3.6c0.7,0.8,1.5,1.2,2.4,1.2c1,0,1.8-0.4,2.5-1.2c0.7-0.8,1-2.1,1-3.8
		c0-1.6-0.3-2.8-1-3.6c-0.7-0.8-1.5-1.2-2.4-1.2c-0.9,0-1.7,0.4-2.4,1.3C19.4,81.9,19,83.2,19,84.8z"/>
	<path class="st0" d="M38.5,87l2.2,0.3c-0.4,1.3-1,2.3-1.9,3c-0.9,0.7-2.2,1.1-3.6,1.1c-1.9,0-3.3-0.6-4.4-1.7
		c-1.1-1.1-1.6-2.7-1.6-4.8c0-2.1,0.5-3.8,1.6-5s2.5-1.8,4.3-1.8c1.7,0,3.1,0.6,4.2,1.7s1.6,2.8,1.6,4.9c0,0.1,0,0.3,0,0.6h-9.5
		c0.1,1.4,0.5,2.5,1.2,3.2c0.7,0.7,1.6,1.1,2.7,1.1c0.8,0,1.5-0.2,2-0.6C37.8,88.6,38.2,87.9,38.5,87z M31.5,83.5h7.1
		c-0.1-1.1-0.4-1.9-0.8-2.4c-0.7-0.8-1.6-1.2-2.7-1.2c-1,0-1.8,0.3-2.5,1C31.9,81.5,31.5,82.4,31.5,83.5z"/>
	<path class="st0" d="M50.9,86.4l2.1,0.3c-0.2,1.5-0.8,2.6-1.8,3.4c-1,0.8-2.1,1.2-3.5,1.2c-1.7,0-3.1-0.6-4.2-1.7
		c-1.1-1.1-1.6-2.8-1.6-4.9c0-1.4,0.2-2.6,0.7-3.6s1.1-1.8,2.1-2.3c0.9-0.5,1.9-0.8,3-0.8c1.4,0,2.5,0.3,3.4,1s1.4,1.7,1.7,3
		l-2.1,0.3c-0.2-0.9-0.6-1.5-1.1-1.9c-0.5-0.4-1.1-0.6-1.8-0.6c-1.1,0-2,0.4-2.6,1.2s-1,2-1,3.7c0,1.7,0.3,2.9,1,3.7
		c0.7,0.8,1.5,1.2,2.6,1.2c0.8,0,1.5-0.3,2.1-0.8C50.4,88.3,50.7,87.5,50.9,86.4z"/>
	<path class="st0" d="M62.7,87l2.2,0.3c-0.4,1.3-1,2.3-1.9,3c-0.9,0.7-2.2,1.1-3.6,1.1c-1.9,0-3.3-0.6-4.4-1.7
		c-1.1-1.1-1.6-2.7-1.6-4.8c0-2.1,0.5-3.8,1.6-5s2.5-1.8,4.3-1.8c1.7,0,3.1,0.6,4.2,1.7s1.6,2.8,1.6,4.9c0,0.1,0,0.3,0,0.6h-9.5
		c0.1,1.4,0.5,2.5,1.2,3.2c0.7,0.7,1.6,1.1,2.7,1.1c0.8,0,1.5-0.2,2-0.6C61.9,88.6,62.3,87.9,62.7,87z M55.6,83.5h7.1
		c-0.1-1.1-0.4-1.9-0.8-2.4c-0.7-0.8-1.6-1.2-2.7-1.2c-1,0-1.8,0.3-2.5,1C56,81.5,55.7,82.4,55.6,83.5z"/>
	<path class="st0" d="M66.7,78.4h2.2v5.5c0.7,0,1.2-0.1,1.4-0.4s0.7-1,1.2-2.3c0.4-1,0.8-1.7,1-2c0.3-0.3,0.6-0.5,0.9-0.6
		c0.3-0.1,0.9-0.2,1.6-0.2h0.4v1.8l-0.6,0c-0.6,0-0.9,0.1-1.1,0.3c-0.2,0.2-0.4,0.7-0.8,1.6c-0.3,0.8-0.6,1.4-0.9,1.7
		c-0.3,0.3-0.7,0.6-1.3,0.9c0.9,0.2,1.8,1.1,2.7,2.6l2.4,3.9h-2.4l-2.3-3.9c-0.5-0.8-0.9-1.3-1.2-1.6s-0.8-0.4-1.3-0.4v5.9h-2.2
		V78.4z"/>
	<path class="st0" d="M75.7,78.4H86v1.8h-4.1v10.9h-2.1V80.2h-4.1V78.4z"/>
	<path class="st0" d="M95.6,87l2.2,0.3c-0.4,1.3-1,2.3-1.9,3c-0.9,0.7-2.2,1.1-3.6,1.1c-1.9,0-3.3-0.6-4.4-1.7
		c-1.1-1.1-1.6-2.7-1.6-4.8c0-2.1,0.5-3.8,1.6-5s2.5-1.8,4.3-1.8c1.7,0,3.1,0.6,4.2,1.7s1.6,2.8,1.6,4.9c0,0.1,0,0.3,0,0.6h-9.5
		c0.1,1.4,0.5,2.5,1.2,3.2c0.7,0.7,1.6,1.1,2.7,1.1c0.8,0,1.5-0.2,2-0.6C94.9,88.6,95.3,87.9,95.6,87z M88.6,83.5h7.1
		c-0.1-1.1-0.4-1.9-0.8-2.4c-0.7-0.8-1.6-1.2-2.7-1.2c-1,0-1.8,0.3-2.5,1C89,81.5,88.6,82.4,88.6,83.5z"/>
	<path class="st0" d="M99.7,95.9V78.4h2V80c0.5-0.6,1-1.1,1.6-1.5s1.3-0.5,2.1-0.5c1.1,0,2,0.3,2.9,0.8c0.8,0.6,1.5,1.3,1.9,2.4
		c0.4,1,0.6,2.1,0.6,3.3c0,1.3-0.2,2.5-0.7,3.5c-0.5,1-1.1,1.8-2,2.4c-0.9,0.6-1.8,0.8-2.8,0.8c-0.7,0-1.4-0.2-1.9-0.5
		s-1-0.7-1.4-1.1v6.2H99.7z M101.6,84.8c0,1.6,0.3,2.8,1,3.6c0.7,0.8,1.5,1.2,2.4,1.2c1,0,1.8-0.4,2.5-1.2c0.7-0.8,1-2.1,1-3.8
		c0-1.6-0.3-2.8-1-3.6c-0.7-0.8-1.5-1.2-2.4-1.2c-0.9,0-1.7,0.4-2.4,1.3C102,81.9,101.6,83.2,101.6,84.8z"/>
	<path class="st0" d="M112.5,78.4h7.3v1.8h-5.2v10.9h-2.2V78.4z"/>
	<path class="st0" d="M128.7,87l2.2,0.3c-0.4,1.3-1,2.3-1.9,3c-0.9,0.7-2.2,1.1-3.6,1.1c-1.9,0-3.3-0.6-4.4-1.7
		c-1.1-1.1-1.6-2.7-1.6-4.8c0-2.1,0.5-3.8,1.6-5s2.5-1.8,4.3-1.8c1.7,0,3.1,0.6,4.2,1.7s1.6,2.8,1.6,4.9c0,0.1,0,0.3,0,0.6h-9.5
		c0.1,1.4,0.5,2.5,1.2,3.2c0.7,0.7,1.6,1.1,2.7,1.1c0.8,0,1.5-0.2,2-0.6C127.9,88.6,128.3,87.9,128.7,87z M121.6,83.5h7.1
		c-0.1-1.1-0.4-1.9-0.8-2.4c-0.7-0.8-1.6-1.2-2.7-1.2c-1,0-1.8,0.3-2.5,1C122.1,81.5,121.7,82.4,121.6,83.5z"/>
	<path class="st0" d="M146.2,91.1H144V77.4c-0.5,0.5-1.2,1-2,1.5s-1.6,0.9-2.3,1.1v-2.1c1.2-0.6,2.3-1.3,3.2-2.1s1.5-1.6,1.9-2.3
		h1.4V91.1z"/>
	<path class="st0" d="M156.2,78.4h10.3v1.8h-4.1v10.9h-2.1V80.2h-4.1V78.4z"/>
	<path class="st0" d="M175.7,89.5c-0.8,0.7-1.6,1.2-2.3,1.4c-0.7,0.3-1.5,0.4-2.4,0.4c-1.4,0-2.5-0.3-3.2-1s-1.1-1.6-1.1-2.6
		c0-0.6,0.1-1.2,0.4-1.7s0.7-0.9,1.1-1.2s1-0.5,1.5-0.7c0.4-0.1,1.1-0.2,1.9-0.3c1.7-0.2,3-0.5,3.8-0.7c0-0.3,0-0.5,0-0.6
		c0-0.9-0.2-1.5-0.6-1.9c-0.5-0.5-1.4-0.7-2.5-0.7c-1,0-1.8,0.2-2.2,0.5c-0.5,0.4-0.8,1-1.1,1.9l-2.1-0.3c0.2-0.9,0.5-1.6,0.9-2.2
		s1.1-1,1.9-1.3c0.8-0.3,1.8-0.4,2.9-0.4c1.1,0,2,0.1,2.6,0.4c0.7,0.3,1.2,0.6,1.5,1c0.3,0.4,0.5,0.9,0.7,1.5c0.1,0.4,0.1,1,0.1,2
		v2.9c0,2,0,3.3,0.1,3.8c0.1,0.5,0.3,1,0.5,1.5h-2.2C176,90.6,175.8,90.1,175.7,89.5z M175.6,84.7c-0.8,0.3-2,0.6-3.5,0.8
		c-0.9,0.1-1.5,0.3-1.9,0.4c-0.4,0.2-0.6,0.4-0.8,0.7s-0.3,0.6-0.3,1c0,0.6,0.2,1.1,0.7,1.4c0.4,0.4,1.1,0.6,1.9,0.6
		c0.8,0,1.6-0.2,2.2-0.5c0.6-0.4,1.1-0.9,1.4-1.5c0.2-0.5,0.3-1.2,0.3-2.2V84.7z"/>
	<path class="st0" d="M189.5,73.1l1.9,0c-0.1,0.9-0.3,1.4-0.6,1.8c-0.3,0.3-0.7,0.6-1.1,0.6s-1.4,0.1-2.7,0.1c-1.8,0-3,0.2-3.6,0.5
		c-0.6,0.3-1.1,0.9-1.4,1.6c-0.3,0.8-0.4,1.7-0.5,2.9c0.5-0.8,1.2-1.4,1.9-1.8c0.7-0.4,1.5-0.6,2.5-0.6c1.7,0,3,0.6,4.1,1.7
		c1.1,1.1,1.6,2.7,1.6,4.6c0,1.5-0.3,2.7-0.8,3.6s-1.2,1.7-2,2.2c-0.8,0.5-1.8,0.8-3.1,0.8c-1.5,0-2.7-0.3-3.5-1
		c-0.8-0.7-1.5-1.6-1.9-2.6s-0.7-2.9-0.7-5.6c0-3.4,0.6-5.6,1.7-6.8c1.1-1.2,2.9-1.7,5.2-1.7c1.5,0,2.3,0,2.5-0.1
		S189.5,73.3,189.5,73.1z M189.4,84.7c0-1.3-0.3-2.4-0.9-3.3c-0.6-0.8-1.5-1.3-2.6-1.3c-1.2,0-2.1,0.4-2.7,1.3s-1,2.1-1,3.6
		c0,1.5,0.4,2.6,1.1,3.4s1.6,1.2,2.6,1.2c1.1,0,1.9-0.5,2.6-1.4C189.1,87.4,189.4,86.2,189.4,84.7z"/>
	<path class="st0" d="M199.3,78.4h2.2v5.5c0.7,0,1.2-0.1,1.4-0.4c0.3-0.3,0.7-1,1.2-2.3c0.4-1,0.8-1.7,1-2c0.3-0.3,0.6-0.5,0.9-0.6
		c0.3-0.1,0.9-0.2,1.6-0.2h0.4v1.8l-0.6,0c-0.6,0-0.9,0.1-1.1,0.3c-0.2,0.2-0.4,0.7-0.8,1.6c-0.3,0.8-0.6,1.4-0.9,1.7
		c-0.3,0.3-0.7,0.6-1.3,0.9c0.9,0.2,1.8,1.1,2.7,2.6l2.4,3.9h-2.4l-2.3-3.9c-0.5-0.8-0.9-1.3-1.2-1.6s-0.8-0.4-1.3-0.4v5.9h-2.2
		V78.4z"/>
	<path class="st0" d="M219.6,78.4l-4.8,12.7v4.9h-2.2v-4.9l-4.8-12.7h2.3l2.6,7.4c0.4,1,0.7,2,0.9,2.9c0.2-0.9,0.5-1.8,0.9-2.9
		l2.6-7.4H219.6z"/>
	<path class="st0" d="M220.6,78.4h2.2v5.3h6v-5.3h2.2v12.7h-2.2v-5.6h-6v5.6h-2.2V78.4z"/>
	<path class="st0" d="M233.2,76v-2.5h2.2V76H233.2z M233.2,91.1V78.4h2.2v12.7H233.2z"/>
	<path class="st0" d="M237.8,78.4h2.2v5.3h6v-5.3h2.2v12.7h-2.2v-5.6h-6v5.6h-2.2V78.4z"/>
	<path class="st0" d="M259.2,87l2.2,0.3c-0.4,1.3-1,2.3-1.9,3c-0.9,0.7-2.2,1.1-3.6,1.1c-1.9,0-3.3-0.6-4.4-1.7
		c-1.1-1.1-1.6-2.7-1.6-4.8c0-2.1,0.5-3.8,1.6-5s2.5-1.8,4.3-1.8c1.7,0,3.1,0.6,4.2,1.7c1.1,1.2,1.6,2.8,1.6,4.9c0,0.1,0,0.3,0,0.6
		H252c0.1,1.4,0.5,2.5,1.2,3.2c0.7,0.7,1.6,1.1,2.7,1.1c0.8,0,1.5-0.2,2-0.6C258.4,88.6,258.8,87.9,259.2,87z M252.1,83.5h7.1
		c-0.1-1.1-0.4-1.9-0.8-2.4c-0.7-0.8-1.6-1.2-2.7-1.2c-1,0-1.8,0.3-2.5,1C252.5,81.5,252.2,82.4,252.1,83.5z"/>
	<path class="st0" d="M276.7,91.1h-2.2V77.4c-0.5,0.5-1.2,1-2,1.5s-1.6,0.9-2.3,1.1v-2.1c1.2-0.6,2.3-1.3,3.2-2.1s1.5-1.6,1.9-2.3
		h1.4V91.1z"/>
	<path class="st0" d="M287.9,95.9V78.4h2V80c0.5-0.6,1-1.1,1.6-1.5c0.6-0.3,1.3-0.5,2.1-0.5c1.1,0,2,0.3,2.9,0.8
		c0.8,0.6,1.5,1.3,1.9,2.4c0.4,1,0.6,2.1,0.6,3.3c0,1.3-0.2,2.5-0.7,3.5c-0.5,1-1.1,1.8-2,2.4c-0.9,0.6-1.8,0.8-2.8,0.8
		c-0.7,0-1.4-0.2-1.9-0.5s-1-0.7-1.4-1.1v6.2H287.9z M289.8,84.8c0,1.6,0.3,2.8,1,3.6s1.5,1.2,2.4,1.2c1,0,1.8-0.4,2.5-1.2
		c0.7-0.8,1-2.1,1-3.8c0-1.6-0.3-2.8-1-3.6c-0.7-0.8-1.5-1.2-2.4-1.2c-0.9,0-1.7,0.4-2.4,1.3C290.2,81.9,289.8,83.2,289.8,84.8z"/>
	<path class="st0" d="M309.3,87l2.2,0.3c-0.4,1.3-1,2.3-1.9,3c-0.9,0.7-2.2,1.1-3.6,1.1c-1.9,0-3.3-0.6-4.4-1.7
		c-1.1-1.1-1.6-2.7-1.6-4.8c0-2.1,0.5-3.8,1.6-5s2.5-1.8,4.3-1.8c1.7,0,3.1,0.6,4.2,1.7c1.1,1.2,1.6,2.8,1.6,4.9c0,0.1,0,0.3,0,0.6
		h-9.5c0.1,1.4,0.5,2.5,1.2,3.2c0.7,0.7,1.6,1.1,2.7,1.1c0.8,0,1.5-0.2,2-0.6C308.5,88.6,309,87.9,309.3,87z M302.2,83.5h7.1
		c-0.1-1.1-0.4-1.9-0.8-2.4c-0.7-0.8-1.6-1.2-2.7-1.2c-1,0-1.8,0.3-2.5,1C302.7,81.5,302.3,82.4,302.2,83.5z"/>
	<path class="st0" d="M311.4,78.4h10.3v1.8h-4.1v10.9h-2.1V80.2h-4.1V78.4z"/>
</g>
</svg>
