<?xml version="1.0" encoding="utf-8"?>
<!-- Generator: Adobe Illustrator 25.2.3, SVG Export Plug-In . SVG Version: 6.00 Build 0)  -->
<svg version="1.1" id="Layer_1" xmlns="http://www.w3.org/2000/svg" xmlns:xlink="http://www.w3.org/1999/xlink" x="0px" y="0px"
	 viewBox="0 0 25.9 309.6" style="enable-background:new 0 0 25.9 309.6;" xml:space="preserve">
<style type="text/css">
	.st0{fill:#147BB8;}
</style>
<g>
	<path class="st0" d="M13.3,309.6c-4.2,0-7.4-1.1-9.8-3.3C1.2,304,0,301.1,0,297.6c0-2.3,0.6-4.4,1.7-6.2c1.1-1.9,2.6-3.3,4.6-4.2
		s4.2-1.5,6.7-1.5c2.5,0,4.8,0.5,6.8,1.5c2,1,3.5,2.5,4.5,4.4s1.5,3.9,1.5,6.1c0,2.4-0.6,4.5-1.7,6.3c-1.1,1.9-2.7,3.3-4.7,4.2
		C17.6,309.1,15.5,309.6,13.3,309.6z M13.3,306.2c3,0,5.4-0.8,7.1-2.4c1.7-1.6,2.6-3.7,2.6-6.1c0-2.5-0.9-4.5-2.6-6.2
		s-4.2-2.4-7.5-2.4c-2,0-3.8,0.3-5.3,1c-1.5,0.7-2.7,1.7-3.5,3c-0.8,1.3-1.3,2.8-1.3,4.5c0,2.3,0.8,4.4,2.4,6.1
		C6.9,305.3,9.6,306.2,13.3,306.2z"/>
	<path class="st0" d="M16.7,263.5l0.8-3.3c2.7,0.7,4.8,1.9,6.2,3.7c1.4,1.8,2.1,4,2.1,6.6c0,2.7-0.5,4.9-1.6,6.6
		c-1.1,1.7-2.7,3-4.8,3.9c-2.1,0.9-4.3,1.3-6.7,1.3c-2.6,0-4.9-0.5-6.8-1.5s-3.4-2.4-4.4-4.3c-1-1.8-1.5-3.9-1.5-6.1
		c0-2.5,0.6-4.6,1.9-6.3c1.3-1.7,3.1-2.9,5.4-3.6l0.8,3.3c-1.8,0.6-3.1,1.4-4,2.5c-0.8,1.1-1.2,2.5-1.2,4.2c0,1.9,0.5,3.5,1.4,4.8
		s2.2,2.2,3.7,2.7s3.2,0.8,4.8,0.8c2.1,0,4-0.3,5.6-0.9c1.6-0.6,2.8-1.6,3.6-2.9c0.8-1.3,1.2-2.7,1.2-4.3c0-1.9-0.5-3.4-1.6-4.7
		C20.4,264.9,18.8,264,16.7,263.5z"/>
	<path class="st0" d="M0.4,239.7v-3.3h14.5c2.5,0,4.5,0.3,6,0.9s2.7,1.6,3.6,3.1c0.9,1.5,1.4,3.4,1.4,5.8c0,2.3-0.4,4.3-1.2,5.8
		s-2,2.6-3.5,3.2c-1.5,0.6-3.6,1-6.3,1H0.4v-3.3h14.4c2.2,0,3.8-0.2,4.8-0.6s1.8-1.1,2.4-2.1s0.8-2.2,0.8-3.6c0-2.4-0.6-4.2-1.7-5.2
		c-1.1-1-3.2-1.6-6.4-1.6H0.4z"/>
	<path class="st0" d="M18,232.5h-3.1V223H18V232.5z"/>
	<path class="st0" d="M25.5,219.4h-25v-3.3h12.4L0.4,203.6v-4.5l10.1,10.5l14.9-11v4.4L12.8,212l4,4.1h8.7V219.4z"/>
	<path class="st0" d="M25.5,197.9h-3.1l-16-12.8c-1.1-0.9-2.1-1.8-3-2.6v14h-3v-17.9h3l17.4,14.1l1.8,1.5v-16h3V197.9z"/>
	<path class="st0" d="M18,176.2h-3.1v-9.4H18V176.2z"/>
	<path class="st0" d="M13.1,164.2c-3,0-5.3-0.3-7.1-0.9c-1.8-0.6-3.2-1.5-4.2-2.7c-1-1.2-1.5-2.7-1.5-4.5c0-1.3,0.3-2.5,0.8-3.5
		c0.5-1,1.3-1.8,2.3-2.5s2.3-1.2,3.7-1.6c1.5-0.4,3.4-0.6,5.9-0.6c2.9,0,5.3,0.3,7.1,0.9c1.8,0.6,3.2,1.5,4.2,2.7
		c1,1.2,1.5,2.7,1.5,4.6c0,2.4-0.9,4.3-2.6,5.7C21.2,163.3,17.8,164.2,13.1,164.2z M13.1,161c4.1,0,6.8-0.5,8.2-1.4
		c1.4-1,2-2.1,2-3.6s-0.7-2.6-2-3.6c-1.4-1-4.1-1.4-8.2-1.4c-4.1,0-6.9,0.5-8.2,1.4c-1.4,1-2,2.2-2,3.6c0,1.4,0.6,2.5,1.8,3.4
		C6.2,160.5,9,161,13.1,161z"/>
	<path class="st0" d="M22.5,128.6h3v16.5c-0.7,0-1.5-0.1-2.1-0.4c-1.1-0.4-2.2-1.1-3.3-2c-1.1-0.9-2.4-2.3-3.8-4
		c-2.2-2.7-4-4.6-5.3-5.5c-1.3-1-2.5-1.4-3.7-1.4c-1.2,0-2.2,0.4-3.1,1.3c-0.8,0.9-1.3,2-1.3,3.4c0,1.5,0.4,2.7,1.3,3.6
		s2.1,1.3,3.7,1.3l-0.3,3.2c-2.4-0.2-4.2-1-5.4-2.4c-1.2-1.4-1.9-3.3-1.9-5.7c0-2.4,0.7-4.3,2-5.7c1.3-1.4,3-2.1,5-2.1
		c1,0,2,0.2,3,0.6c1,0.4,2,1.1,3.1,2c1.1,1,2.5,2.5,4.4,4.7c1.5,1.8,2.6,3,3.2,3.6c0.6,0.5,1.1,1,1.7,1.3V128.6z"/>
	<path class="st0" d="M22.5,109.1h3v16.5c-0.7,0-1.5-0.1-2.1-0.4c-1.1-0.4-2.2-1.1-3.3-2c-1.1-0.9-2.4-2.3-3.8-4
		c-2.2-2.7-4-4.6-5.3-5.5c-1.3-1-2.5-1.4-3.7-1.4c-1.2,0-2.2,0.4-3.1,1.3c-0.8,0.9-1.3,2-1.3,3.4c0,1.5,0.4,2.7,1.3,3.6
		s2.1,1.3,3.7,1.3l-0.3,3.2c-2.4-0.2-4.2-1-5.4-2.4c-1.2-1.4-1.9-3.3-1.9-5.7c0-2.4,0.7-4.3,2-5.7c1.3-1.4,3-2.1,5-2.1
		c1,0,2,0.2,3,0.6c1,0.4,2,1.1,3.1,2c1.1,1,2.5,2.5,4.4,4.7c1.5,1.8,2.6,3,3.2,3.6c0.6,0.5,1.1,1,1.7,1.3V109.1z"/>
	<path class="st0" d="M13.1,105.8c-3,0-5.3-0.3-7.1-0.9c-1.8-0.6-3.2-1.5-4.2-2.7c-1-1.2-1.5-2.7-1.5-4.5c0-1.3,0.3-2.5,0.8-3.5
		c0.5-1,1.3-1.8,2.3-2.5s2.3-1.2,3.7-1.6c1.5-0.4,3.4-0.6,5.9-0.6c2.9,0,5.3,0.3,7.1,0.9c1.8,0.6,3.2,1.5,4.2,2.7
		c1,1.2,1.5,2.7,1.5,4.6c0,2.4-0.9,4.3-2.6,5.7C21.2,105,17.8,105.8,13.1,105.8z M13.1,102.7c4.1,0,6.8-0.5,8.2-1.4
		c1.4-1,2-2.1,2-3.6s-0.7-2.6-2-3.6c-1.4-1-4.1-1.4-8.2-1.4c-4.1,0-6.9,0.5-8.2,1.4c-1.4,1-2,2.2-2,3.6c0,1.4,0.6,2.5,1.8,3.4
		C6.2,102.1,9,102.7,13.1,102.7z"/>
	<path class="st0" d="M22.5,70.2h3v16.5c-0.7,0-1.5-0.1-2.1-0.4c-1.1-0.4-2.2-1.1-3.3-2c-1.1-0.9-2.4-2.3-3.8-4
		c-2.2-2.7-4-4.6-5.3-5.5c-1.3-1-2.5-1.4-3.7-1.4c-1.2,0-2.2,0.4-3.1,1.3c-0.8,0.9-1.3,2-1.3,3.4c0,1.5,0.4,2.7,1.3,3.6
		S6.3,83,7.9,83l-0.3,3.2c-2.4-0.2-4.2-1-5.4-2.4c-1.2-1.4-1.9-3.3-1.9-5.7c0-2.4,0.7-4.3,2-5.7c1.3-1.4,3-2.1,5-2.1
		c1,0,2,0.2,3,0.6c1,0.4,2,1.1,3.1,2c1.1,1,2.5,2.5,4.4,4.7c1.5,1.8,2.6,3,3.2,3.6c0.6,0.5,1.1,1,1.7,1.3V70.2z"/>
	<path class="st0" d="M18.9,66.9l-0.3-3.2c1.6-0.2,2.8-0.8,3.5-1.7c0.8-0.9,1.2-1.9,1.2-3.2c0-1.5-0.6-2.7-1.7-3.8
		c-1.1-1-2.6-1.5-4.4-1.5c-1.8,0-3.1,0.5-4.1,1.5c-1,1-1.5,2.3-1.5,3.9c0,1,0.2,1.9,0.7,2.7c0.4,0.8,1,1.4,1.8,1.9l-0.4,2.9L0.8,64
		V51.5h2.9v10l6.7,1.3c-1-1.5-1.6-3.1-1.6-4.7c0-2.2,0.8-4,2.3-5.5c1.5-1.5,3.5-2.3,5.8-2.3c2.3,0,4.2,0.7,5.9,2c2,1.6,3,3.8,3,6.6
		c0,2.3-0.6,4.1-1.9,5.6C22.7,65.9,21,66.7,18.9,66.9z"/>
	<path class="st0" d="M18,47.8h-3.1v-9.4H18V47.8z"/>
	<path class="st0" d="M25.5,24.3v3.1H5.9C6.6,28.1,7.3,29,8,30.2c0.7,1.2,1.2,2.3,1.6,3.2h-3c-0.8-1.7-1.8-3.2-2.9-4.5
		c-1.1-1.3-2.3-2.2-3.3-2.7v-2H25.5z"/>
	<path class="st0" d="M6.6,0.4l0.2,3.1C5.6,3.8,4.7,4.2,4.2,4.7C3.3,5.5,2.9,6.5,2.9,7.7c0,1,0.3,1.8,0.8,2.6c0.7,1,1.7,1.7,3.1,2.3
		s3.3,0.8,5.8,0.9c-1.1-0.7-2-1.6-2.5-2.7C9.5,9.7,9.2,8.6,9.2,7.4c0-2,0.8-3.8,2.3-5.2C13,0.7,15,0,17.3,0c1.6,0,3,0.3,4.4,1
		c1.3,0.7,2.4,1.6,3.1,2.8c0.7,1.2,1.1,2.5,1.1,4c0,2.6-0.9,4.6-2.8,6.3s-5,2.4-9.3,2.4c-4.8,0-8.4-0.9-10.6-2.7
		c-1.9-1.6-2.9-3.7-2.9-6.3c0-2,0.6-3.6,1.7-4.8C3.1,1.4,4.6,0.7,6.6,0.4z M17.4,13c1.1,0,2.1-0.2,3-0.7c1-0.4,1.7-1.1,2.2-1.9
		c0.5-0.8,0.8-1.7,0.8-2.5c0-1.3-0.5-2.4-1.6-3.3c-1-0.9-2.5-1.4-4.3-1.4c-1.7,0-3.1,0.5-4.1,1.4S12,6.6,12,8c0,1.4,0.5,2.6,1.5,3.5
		C14.4,12.5,15.7,13,17.4,13z"/>
</g>
</svg>
