<?xml version="1.0" encoding="utf-8"?>
<!-- Generator: Adobe Illustrator 25.2.3, SVG Export Plug-In . SVG Version: 6.00 Build 0)  -->
<svg version="1.1" id="Layer_1" xmlns="http://www.w3.org/2000/svg" xmlns:xlink="http://www.w3.org/1999/xlink" x="0px" y="0px"
	 viewBox="0 0 279.2 95.6" style="enable-background:new 0 0 279.2 95.6;" xml:space="preserve">
<style type="text/css">
	.st0{fill:#147BB8;}
</style>
<g>
	<path class="st0" d="M1.3,0h1.6v5.3c0.7,0,1.3-0.1,1.6-0.4s0.7-1,1.1-2.1C6,2.1,6.3,1.5,6.5,1.2C6.7,0.8,7,0.6,7.4,0.3
		C7.8,0.1,8.3,0,8.7,0c0.6,0,0.9,0,1,0v1.4c-0.1,0-0.2,0-0.3,0c-0.2,0-0.3,0-0.3,0c-0.5,0-0.9,0.1-1.1,0.4C7.7,2,7.4,2.5,7.1,3.4
		C6.7,4.4,6.3,5,6,5.3S5.4,5.8,5,6c0.8,0.2,1.6,0.9,2.3,2.2l2.5,4.1h-2l-2-3.3C5.3,8,4.8,7.3,4.4,7C4,6.7,3.5,6.5,2.9,6.5v5.7H1.3V0
		z"/>
	<path class="st0" d="M18.7,7.6c0,2.1-0.7,3.5-2,4.2c-0.6,0.4-1.4,0.5-2.1,0.5c-1.3,0-2.4-0.4-3.1-1.3c-0.7-0.8-1-1.9-1-3.3
		c0-1.6,0.5-2.8,1.4-3.6c0.8-0.7,1.7-1,2.8-1c1.3,0,2.3,0.4,3.1,1.3C18.4,5.3,18.7,6.3,18.7,7.6z M17.2,8.2H12
		c0,0.9,0.3,1.5,0.7,2.1c0.5,0.6,1.1,0.9,1.9,0.9s1.4-0.3,1.9-0.9C16.9,9.7,17.1,9,17.2,8.2z M17.1,6.9c-0.1-0.7-0.3-1.3-0.7-1.7
		c-0.5-0.6-1.1-0.8-1.9-0.8c-0.7,0-1.4,0.3-1.9,0.8c-0.4,0.4-0.6,1-0.7,1.7H17.1z"/>
	<path class="st0" d="M22.4,8.2V7c0.6,0,1.1,0,1.3-0.1c0.2,0,0.4-0.2,0.7-0.4c0.2-0.2,0.3-0.5,0.3-0.8c0-0.4-0.1-0.7-0.4-1
		c-0.3-0.2-0.6-0.4-1-0.4c-0.8,0-1.4,0.5-1.8,1.5L20,5.6c0.4-1.7,1.5-2.5,3.2-2.5c0.9,0,1.7,0.3,2.2,0.8c0.5,0.5,0.8,1.1,0.8,1.8
		c0,0.7-0.3,1.3-1,1.7c0.4,0.2,0.8,0.5,1,0.9c0.2,0.4,0.3,0.8,0.3,1.3c0,0.8-0.3,1.4-0.9,1.9c-0.6,0.5-1.4,0.7-2.4,0.7
		c-2,0-3.2-0.9-3.5-2.7l1.4-0.3c0.1,0.6,0.4,1,0.8,1.3c0.4,0.3,0.8,0.5,1.3,0.5s0.9-0.1,1.3-0.4c0.3-0.3,0.5-0.6,0.5-1.1
		c0-0.3-0.1-0.6-0.3-0.9c-0.2-0.3-0.4-0.4-0.7-0.5s-0.7-0.1-1.3-0.1C22.7,8.2,22.6,8.2,22.4,8.2z"/>
	<path class="st0" d="M29.1,3.4h6.1v7.6h1v3.7h-1.2v-2.5H28v2.5h-1.2v-3.7h0.8C28.6,9.5,29.1,7,29.1,3.4z M30.3,4.6
		c-0.1,2.9-0.6,5-1.3,6.4h4.7V4.6H30.3z"/>
	<path class="st0" d="M37.8,1.7V0h1.5v1.7H37.8z M37.8,12.2V3.4h1.5v8.8H37.8z"/>
	<path class="st0" d="M49.7,14.7h-1.2v-2.5h-1.2V8.3h-4.1v3.9h-1.5V3.4h1.5V7h4.1V3.4h1.5v7.6h1V14.7z"/>
	<path class="st0" d="M55.7,3.4h1.5v3.8c0.5,0,0.8-0.1,1-0.3c0.2-0.2,0.5-0.7,0.8-1.6c0.3-0.7,0.5-1.2,0.7-1.4
		c0.2-0.2,0.4-0.4,0.6-0.4c0.2-0.1,0.6-0.1,1.1-0.1h0.3v1.2l-0.4,0c-0.4,0-0.6,0.1-0.8,0.2c-0.1,0.1-0.3,0.5-0.5,1.1
		c-0.2,0.6-0.4,1-0.6,1.2c-0.2,0.2-0.5,0.4-0.9,0.6c0.6,0.2,1.3,0.8,1.9,1.8l1.6,2.7h-1.6l-1.6-2.7c-0.3-0.5-0.6-0.9-0.9-1.1
		c-0.2-0.2-0.5-0.3-0.9-0.3v4.1h-1.5V3.4z"/>
	<path class="st0" d="M70.8,7.6c0,2.1-0.7,3.5-2,4.2c-0.6,0.4-1.4,0.5-2.1,0.5c-1.3,0-2.4-0.4-3.1-1.3c-0.7-0.8-1-1.9-1-3.3
		c0-1.6,0.5-2.8,1.4-3.6c0.8-0.7,1.7-1,2.8-1c1.3,0,2.3,0.4,3.1,1.3C70.5,5.3,70.8,6.3,70.8,7.6z M69.3,8.2h-5.2
		c0,0.9,0.3,1.5,0.7,2.1c0.5,0.6,1.1,0.9,1.9,0.9s1.4-0.3,1.9-0.9C69,9.7,69.3,9,69.3,8.2z M69.3,6.9c-0.1-0.7-0.3-1.3-0.7-1.7
		c-0.5-0.6-1.1-0.8-1.9-0.8c-0.7,0-1.4,0.3-1.9,0.8c-0.4,0.4-0.6,1-0.7,1.7H69.3z"/>
	<path class="st0" d="M72.6,15.6V3.4H74v1.1c0.3-0.4,0.7-0.8,1.1-1c0.4-0.2,0.9-0.3,1.5-0.3c0.8,0,1.4,0.2,2,0.6
		c0.6,0.4,1,0.9,1.3,1.6c0.3,0.7,0.4,1.5,0.4,2.3c0,0.9-0.2,1.7-0.5,2.4c-0.3,0.7-0.8,1.3-1.4,1.7c-0.6,0.4-1.3,0.6-1.9,0.6
		c-0.5,0-0.9-0.1-1.3-0.3c-0.4-0.2-0.7-0.5-1-0.8v4.3H72.6z M74,7.8c0,1.1,0.2,2,0.7,2.5c0.5,0.5,1,0.8,1.7,0.8
		c0.7,0,1.2-0.3,1.7-0.8c0.5-0.6,0.7-1.4,0.7-2.6c0-1.1-0.2-2-0.7-2.5c-0.5-0.6-1-0.8-1.7-0.8c-0.6,0-1.2,0.3-1.7,0.9
		C74.2,5.8,74,6.7,74,7.8z"/>
	<path class="st0" d="M81.8,15.6l-0.2-1.4c0.3,0.1,0.6,0.1,0.9,0.1c0.3,0,0.6-0.1,0.8-0.2c0.2-0.1,0.4-0.3,0.5-0.5
		c0.1-0.1,0.2-0.5,0.5-1.1c0-0.1,0.1-0.2,0.1-0.4L81,3.4h1.6l1.8,5.1c0.2,0.6,0.5,1.3,0.6,2c0.2-0.7,0.4-1.4,0.6-2l1.9-5.1h1.5
		l-3.4,9c-0.4,1-0.6,1.6-0.8,2c-0.3,0.5-0.6,0.9-0.9,1.1c-0.3,0.2-0.8,0.3-1.2,0.3C82.5,15.8,82.1,15.7,81.8,15.6z"/>
	<path class="st0" d="M102.8,7.6c0,2.1-0.7,3.5-2,4.2c-0.6,0.4-1.4,0.5-2.1,0.5c-1.3,0-2.4-0.4-3.1-1.3c-0.7-0.8-1-1.9-1-3.3
		c0-1.6,0.5-2.8,1.4-3.6c0.8-0.7,1.7-1,2.8-1c1.3,0,2.3,0.4,3.1,1.3C102.4,5.3,102.8,6.3,102.8,7.6z M101.2,8.2h-5.2
		c0,0.9,0.3,1.5,0.7,2.1c0.5,0.6,1.1,0.9,1.9,0.9s1.4-0.3,1.9-0.9C101,9.7,101.2,9,101.2,8.2z M101.2,6.9c-0.1-0.7-0.3-1.3-0.7-1.7
		c-0.5-0.6-1.1-0.8-1.9-0.8c-0.7,0-1.4,0.3-1.9,0.8c-0.4,0.4-0.6,1-0.7,1.7H101.2z"/>
	<path class="st0" d="M103.7,3.4h7.2v1.2h-2.8v7.6h-1.5V4.6h-2.8V3.4z"/>
	<path class="st0" d="M112.3,3.4h1.5v3.8c0.5,0,0.8-0.1,1-0.3c0.2-0.2,0.5-0.7,0.8-1.6c0.3-0.7,0.5-1.2,0.7-1.4
		c0.2-0.2,0.4-0.4,0.6-0.4c0.2-0.1,0.6-0.1,1.1-0.1h0.3v1.2l-0.4,0c-0.4,0-0.6,0.1-0.8,0.2c-0.1,0.1-0.3,0.5-0.5,1.1
		c-0.2,0.6-0.4,1-0.6,1.2c-0.2,0.2-0.5,0.4-0.9,0.6c0.6,0.2,1.3,0.8,1.9,1.8l1.6,2.7h-1.6l-1.6-2.7c-0.3-0.5-0.6-0.9-0.9-1.1
		c-0.2-0.2-0.5-0.3-0.9-0.3v4.1h-1.5V3.4z"/>
	<path class="st0" d="M119.8,1.7V0h1.5v1.7H119.8z M119.8,12.2V3.4h1.5v8.8H119.8z"/>
	<path class="st0" d="M123.5,15.6V3.4h1.4v1.1c0.3-0.4,0.7-0.8,1.1-1c0.4-0.2,0.9-0.3,1.5-0.3c0.8,0,1.4,0.2,2,0.6
		c0.6,0.4,1,0.9,1.3,1.6c0.3,0.7,0.4,1.5,0.4,2.3c0,0.9-0.2,1.7-0.5,2.4c-0.3,0.7-0.8,1.3-1.4,1.7s-1.3,0.6-1.9,0.6
		c-0.5,0-0.9-0.1-1.3-0.3c-0.4-0.2-0.7-0.5-1-0.8v4.3H123.5z M124.9,7.8c0,1.1,0.2,2,0.7,2.5c0.5,0.5,1,0.8,1.7,0.8
		c0.7,0,1.2-0.3,1.7-0.8c0.5-0.6,0.7-1.4,0.7-2.6c0-1.1-0.2-2-0.7-2.5c-0.5-0.6-1-0.8-1.7-0.8c-0.6,0-1.2,0.3-1.7,0.9
		C125.1,5.8,124.9,6.7,124.9,7.8z"/>
	<path class="st0" d="M133.1,3.4h6.9v8.8h-1.5V4.6h-4V9c0,1,0,1.7-0.1,2c-0.1,0.3-0.2,0.6-0.5,0.9c-0.3,0.2-0.7,0.4-1.3,0.4
		c-0.3,0-0.8,0-1.2-0.1v-1.2h0.7c0.3,0,0.5,0,0.7-0.1c0.1-0.1,0.2-0.2,0.3-0.3c0-0.1,0.1-0.6,0.1-1.4V3.4z"/>
	<path class="st0" d="M142.3,1.7V0h1.5v1.7H142.3z M142.3,12.2V3.4h1.5v8.8H142.3z"/>
	<path class="st0" d="M146.1,3.4h5.1v1.2h-3.6v7.6h-1.5V3.4z"/>
	<path class="st0" d="M152.3,1.7V0h1.5v1.7H152.3z M152.3,12.2V3.4h1.5v8.8H152.3z"/>
	<path class="st0" d="M156.1,3.4h1.5V7h4.1V3.4h1.5v8.8h-1.5V8.3h-4.1v3.9h-1.5V3.4z"/>
	<path class="st0" d="M171.4,3.4h6.1v7.6h1v3.7h-1.2v-2.5h-6.9v2.5h-1.2v-3.7h0.8C170.9,9.5,171.4,7,171.4,3.4z M172.6,4.6
		c-0.1,2.9-0.6,5-1.3,6.4h4.7V4.6H172.6z"/>
	<path class="st0" d="M186.2,9.3l1.5,0.2c-0.2,0.9-0.7,1.6-1.4,2.1c-0.7,0.5-1.5,0.7-2.5,0.7c-1.3,0-2.3-0.4-3.1-1.2
		c-0.8-0.8-1.1-1.9-1.1-3.3c0-1.5,0.4-2.6,1.1-3.5c0.8-0.8,1.8-1.2,3-1.2c1.2,0,2.1,0.4,2.9,1.2c0.7,0.8,1.1,1.9,1.1,3.4
		c0,0.1,0,0.2,0,0.4h-6.6c0.1,1,0.3,1.7,0.8,2.2s1.1,0.8,1.8,0.8c0.5,0,1-0.1,1.4-0.4C185.6,10.4,185.9,10,186.2,9.3z M181.2,6.9
		h4.9c-0.1-0.7-0.3-1.3-0.6-1.7c-0.5-0.6-1.1-0.9-1.9-0.9c-0.7,0-1.3,0.2-1.7,0.7C181.6,5.5,181.3,6.2,181.2,6.9z"/>
	<path class="st0" d="M189.6,3.4h2.3l2.3,7.1l2.6-7.1h2.2v8.8h-1.5V5.1l-2.6,7.1h-1.3l-2.5-7.4v7.4h-1.5V3.4z"/>
	<path class="st0" d="M207.3,9.3l1.5,0.2c-0.2,0.9-0.7,1.6-1.4,2.1c-0.7,0.5-1.5,0.7-2.5,0.7c-1.3,0-2.3-0.4-3.1-1.2
		c-0.8-0.8-1.1-1.9-1.1-3.3c0-1.5,0.4-2.6,1.1-3.5c0.8-0.8,1.8-1.2,3-1.2c1.2,0,2.1,0.4,2.9,1.2c0.7,0.8,1.1,1.9,1.1,3.4
		c0,0.1,0,0.2,0,0.4h-6.6c0.1,1,0.3,1.7,0.8,2.2s1.1,0.8,1.8,0.8c0.5,0,1-0.1,1.4-0.4C206.8,10.4,207.1,10,207.3,9.3z M202.4,6.9
		h4.9c-0.1-0.7-0.3-1.3-0.6-1.7c-0.5-0.6-1.1-0.9-1.9-0.9c-0.7,0-1.3,0.2-1.7,0.7C202.7,5.5,202.4,6.2,202.4,6.9z"/>
	<path class="st0" d="M210.7,3.4h7v8.8h-1.5V4.6h-4v7.6h-1.5V3.4z"/>
	<path class="st0" d="M223.8,3.4h7.2v1.2h-2.8v7.6h-1.5V4.6h-2.8V3.4z"/>
	<path class="st0" d="M239.7,3.4l-3.3,8.8h2.7v1.1h-2.7v2.3h-1.5v-2.3h-2.7v-1.1h2.7l-3.3-8.8h1.6l1.8,5.1c0.3,0.7,0.5,1.4,0.6,2
		c0.2-0.6,0.4-1.3,0.6-2l1.8-5.1H239.7z"/>
	<path class="st0" d="M240.9,15.6V3.4h1.4v1.1c0.3-0.4,0.7-0.8,1.1-1c0.4-0.2,0.9-0.3,1.5-0.3c0.8,0,1.4,0.2,2,0.6
		c0.6,0.4,1,0.9,1.3,1.6c0.3,0.7,0.4,1.5,0.4,2.3c0,0.9-0.2,1.7-0.5,2.4c-0.3,0.7-0.8,1.3-1.4,1.7s-1.3,0.6-1.9,0.6
		c-0.5,0-0.9-0.1-1.3-0.3c-0.4-0.2-0.7-0.5-1-0.8v4.3H240.9z M242.3,7.8c0,1.1,0.2,2,0.7,2.5c0.5,0.5,1,0.8,1.7,0.8
		c0.7,0,1.2-0.3,1.7-0.8c0.5-0.6,0.7-1.4,0.7-2.6c0-1.1-0.2-2-0.7-2.5c-0.5-0.6-1-0.8-1.7-0.8c-0.6,0-1.2,0.3-1.7,0.9
		C242.5,5.8,242.3,6.7,242.3,7.8z"/>
	<path class="st0" d="M250.1,15.6l-0.2-1.4c0.3,0.1,0.6,0.1,0.9,0.1c0.3,0,0.6-0.1,0.8-0.2c0.2-0.1,0.4-0.3,0.5-0.5
		c0.1-0.1,0.2-0.5,0.5-1.1c0-0.1,0.1-0.2,0.1-0.4l-3.3-8.8h1.6l1.8,5.1c0.2,0.6,0.5,1.3,0.6,2c0.2-0.7,0.4-1.4,0.6-2l1.9-5.1h1.5
		l-3.4,9c-0.4,1-0.6,1.6-0.8,2c-0.3,0.5-0.6,0.9-0.9,1.1c-0.3,0.2-0.8,0.3-1.2,0.3C250.8,15.8,250.5,15.7,250.1,15.6z"/>
	<path class="st0" d="M263.8,4.6h-3.6v2.2h1.9v1.1h-1.9v4.3h-1.5V7.9h-1V6.8h1V3.4h5.1V4.6z"/>
	<path class="st0" d="M270.6,11.1c-0.6,0.5-1.1,0.8-1.6,1c-0.5,0.2-1.1,0.3-1.6,0.3c-1,0-1.7-0.2-2.2-0.7c-0.5-0.5-0.8-1.1-0.8-1.8
		c0-0.4,0.1-0.8,0.3-1.2c0.2-0.4,0.5-0.6,0.8-0.9s0.7-0.4,1.1-0.5c0.3-0.1,0.7-0.2,1.3-0.2c1.2-0.1,2.1-0.3,2.7-0.5
		c0-0.2,0-0.3,0-0.4c0-0.6-0.1-1-0.4-1.3c-0.4-0.3-0.9-0.5-1.7-0.5c-0.7,0-1.2,0.1-1.6,0.4c-0.3,0.2-0.6,0.7-0.7,1.3l-1.5-0.2
		c0.1-0.6,0.4-1.1,0.7-1.5s0.7-0.7,1.3-0.9c0.6-0.2,1.2-0.3,2-0.3c0.8,0,1.4,0.1,1.8,0.3c0.5,0.2,0.8,0.4,1,0.7s0.4,0.6,0.5,1
		c0,0.3,0.1,0.7,0.1,1.4v2c0,1.4,0,2.3,0.1,2.6s0.2,0.7,0.4,1.1h-1.6C270.8,11.9,270.7,11.5,270.6,11.1z M270.5,7.8
		c-0.5,0.2-1.4,0.4-2.4,0.6c-0.6,0.1-1,0.2-1.3,0.3c-0.3,0.1-0.5,0.3-0.6,0.5c-0.1,0.2-0.2,0.4-0.2,0.7c0,0.4,0.2,0.7,0.5,1
		s0.7,0.4,1.3,0.4c0.6,0,1.1-0.1,1.5-0.4c0.4-0.3,0.8-0.6,1-1c0.2-0.3,0.2-0.8,0.2-1.5V7.8z"/>
	<path class="st0" d="M1.2,23.4h1.5v3.4h1.9c1.2,0,2.2,0.2,2.9,0.7c0.7,0.5,1,1.1,1,2c0,0.7-0.3,1.4-0.8,1.9
		c-0.6,0.5-1.4,0.8-2.7,0.8H1.2V23.4z M2.6,30.9h1.6c0.9,0,1.6-0.1,2-0.3s0.6-0.6,0.6-1.1c0-0.4-0.1-0.7-0.4-1s-1-0.4-2-0.4H2.6
		V30.9z M9.5,23.4H11v8.8H9.5V23.4z"/>
	<path class="st0" d="M19.6,34.7h-1.2v-2.5h-0.2l-1.6-2.7c-0.3-0.4-0.5-0.8-0.7-0.9c-0.3-0.3-0.6-0.4-1-0.4v4.1h-1.5v-8.8h1.5v3.8
		c0.6,0,1-0.2,1.2-0.5c0.1-0.1,0.3-0.6,0.6-1.3c0.2-0.5,0.4-0.9,0.5-1.1c0.2-0.4,0.5-0.7,0.8-0.8c0.2-0.1,0.6-0.1,1.1-0.1h0.3v1.2
		l-0.4,0c-0.4,0-0.7,0.1-0.9,0.3c-0.1,0.1-0.2,0.4-0.4,0.9c-0.2,0.5-0.4,0.9-0.5,1.1c-0.2,0.3-0.5,0.5-1,0.7
		c0.6,0.2,1.3,0.8,1.9,1.8l0.9,1.5h0.5V34.7z"/>
	<path class="st0" d="M20.8,23.4h7v8.8h-1.5v-7.6h-4v7.6h-1.5V23.4z"/>
	<path class="st0" d="M35.7,31.1c-0.6,0.5-1.1,0.8-1.6,1c-0.5,0.2-1.1,0.3-1.6,0.3c-1,0-1.7-0.2-2.2-0.7c-0.5-0.5-0.8-1.1-0.8-1.8
		c0-0.4,0.1-0.8,0.3-1.2c0.2-0.4,0.5-0.6,0.8-0.9c0.3-0.2,0.7-0.4,1.1-0.5c0.3-0.1,0.7-0.2,1.3-0.2c1.2-0.1,2.1-0.3,2.7-0.5
		c0-0.2,0-0.3,0-0.4c0-0.6-0.1-1-0.4-1.3c-0.4-0.3-0.9-0.5-1.7-0.5c-0.7,0-1.2,0.1-1.6,0.4c-0.3,0.2-0.6,0.7-0.7,1.3l-1.5-0.2
		c0.1-0.6,0.4-1.1,0.7-1.5s0.7-0.7,1.3-0.9c0.6-0.2,1.2-0.3,2-0.3c0.8,0,1.4,0.1,1.8,0.3c0.5,0.2,0.8,0.4,1,0.7s0.4,0.6,0.5,1
		c0,0.3,0.1,0.7,0.1,1.4v2c0,1.4,0,2.3,0.1,2.6c0.1,0.4,0.2,0.7,0.4,1.1H36C35.9,31.9,35.8,31.5,35.7,31.1z M35.6,27.8
		c-0.5,0.2-1.4,0.4-2.4,0.6c-0.6,0.1-1,0.2-1.3,0.3c-0.3,0.1-0.5,0.3-0.6,0.5c-0.1,0.2-0.2,0.4-0.2,0.7c0,0.4,0.2,0.7,0.5,1
		c0.3,0.3,0.7,0.4,1.3,0.4c0.6,0,1.1-0.1,1.5-0.4c0.4-0.3,0.8-0.6,1-1c0.2-0.3,0.2-0.8,0.2-1.5V27.8z"/>
	<path class="st0" d="M40.2,23.4h6.9v8.8h-1.5v-7.6h-4V29c0,1,0,1.7-0.1,2c-0.1,0.3-0.2,0.6-0.5,0.9c-0.3,0.2-0.7,0.4-1.3,0.4
		c-0.3,0-0.8,0-1.2-0.1v-1.2h0.7c0.3,0,0.5,0,0.7-0.1c0.1-0.1,0.2-0.2,0.3-0.3c0-0.1,0.1-0.6,0.1-1.4V23.4z"/>
	<path class="st0" d="M60.1,29.3l1.5,0.2c-0.2,0.9-0.7,1.6-1.4,2.1s-1.5,0.7-2.5,0.7c-1.3,0-2.3-0.4-3.1-1.2
		c-0.8-0.8-1.1-1.9-1.1-3.3c0-1.5,0.4-2.6,1.1-3.5c0.8-0.8,1.8-1.2,3-1.2c1.2,0,2.1,0.4,2.9,1.2c0.7,0.8,1.1,1.9,1.1,3.4
		c0,0.1,0,0.2,0,0.4h-6.6c0.1,1,0.3,1.7,0.8,2.2s1.1,0.8,1.8,0.8c0.5,0,1-0.1,1.4-0.4C59.6,30.4,59.9,30,60.1,29.3z M55.2,26.9h4.9
		c-0.1-0.7-0.3-1.3-0.6-1.7c-0.5-0.6-1.1-0.9-1.9-0.9c-0.7,0-1.3,0.2-1.7,0.7C55.5,25.5,55.3,26.2,55.2,26.9z"/>
	<path class="st0" d="M62.2,23.4h7.2v1.2h-2.8v7.6H65v-7.6h-2.8V23.4z"/>
	<path class="st0" d="M76.6,29.3l1.5,0.2c-0.2,0.9-0.7,1.6-1.4,2.1s-1.5,0.7-2.5,0.7c-1.3,0-2.3-0.4-3.1-1.2
		c-0.8-0.8-1.1-1.9-1.1-3.3c0-1.5,0.4-2.6,1.1-3.5c0.8-0.8,1.8-1.2,3-1.2c1.2,0,2.1,0.4,2.9,1.2c0.7,0.8,1.1,1.9,1.1,3.4
		c0,0.1,0,0.2,0,0.4h-6.6c0.1,1,0.3,1.7,0.8,2.2s1.1,0.8,1.8,0.8c0.5,0,1-0.1,1.4-0.4C76.1,30.4,76.4,30,76.6,29.3z M71.7,26.9h4.9
		c-0.1-0.7-0.3-1.3-0.6-1.7c-0.5-0.6-1.1-0.9-1.9-0.9c-0.7,0-1.3,0.2-1.7,0.7C72,25.5,71.7,26.2,71.7,26.9z"/>
	<path class="st0" d="M80.8,23.4H87v7.6h1v3.7h-1.2v-2.5h-6.9v2.5h-1.2v-3.7h0.8C80.4,29.5,80.9,27,80.8,23.4z M82.1,24.6
		c-0.1,2.9-0.6,5-1.3,6.4h4.7v-6.4H82.1z"/>
	<path class="st0" d="M89.6,21.7V20h1.5v1.7H89.6z M89.6,32.2v-8.8h1.5v8.8H89.6z"/>
	<path class="st0" d="M93.7,32.2v-1.7h1.7v1.7c0,0.6-0.1,1.1-0.3,1.5s-0.6,0.7-1.1,0.9l-0.4-0.6c0.3-0.1,0.5-0.3,0.7-0.6
		c0.1-0.3,0.2-0.7,0.2-1.2H93.7z"/>
	<path class="st0" d="M108.1,23.4v3.8c0.5,0,0.8-0.1,1-0.3s0.5-0.7,0.8-1.6c0.3-0.8,0.7-1.4,0.9-1.6c0.3-0.2,0.7-0.3,1.3-0.3h0.5
		v1.2l-0.4,0c-0.4,0-0.7,0.1-0.8,0.2c-0.1,0.1-0.3,0.5-0.5,1.1c-0.2,0.6-0.4,1-0.6,1.2c-0.2,0.2-0.5,0.4-0.9,0.6
		c0.6,0.2,1.3,0.8,1.9,1.8l1.6,2.7h-1.6l-1.6-2.7c-0.3-0.6-0.6-0.9-0.9-1.1c-0.2-0.2-0.5-0.3-0.9-0.3v4.1h-1.5v-4.1
		c-0.3,0-0.6,0.1-0.9,0.3c-0.2,0.2-0.5,0.5-0.9,1.1l-1.6,2.7h-1.6l1.6-2.7c0.6-1,1.3-1.6,1.9-1.8c-0.4-0.2-0.8-0.4-0.9-0.7
		c-0.2-0.2-0.4-0.8-0.8-1.7c-0.1-0.3-0.3-0.5-0.4-0.6c-0.1-0.1-0.4-0.1-0.6-0.1c-0.1,0-0.2,0-0.4,0v-1.2h0.2c0.6,0,1,0,1.2,0.1
		c0.2,0.1,0.4,0.2,0.6,0.4c0.2,0.2,0.4,0.7,0.7,1.4c0.4,0.9,0.6,1.4,0.8,1.6c0.2,0.2,0.5,0.3,1,0.3v-3.8H108.1z"/>
	<path class="st0" d="M119.9,31.1c-0.6,0.5-1.1,0.8-1.6,1c-0.5,0.2-1.1,0.3-1.6,0.3c-1,0-1.7-0.2-2.2-0.7c-0.5-0.5-0.8-1.1-0.8-1.8
		c0-0.4,0.1-0.8,0.3-1.2c0.2-0.4,0.5-0.6,0.8-0.9c0.3-0.2,0.7-0.4,1.1-0.5c0.3-0.1,0.7-0.2,1.3-0.2c1.2-0.1,2.1-0.3,2.7-0.5
		c0-0.2,0-0.3,0-0.4c0-0.6-0.1-1-0.4-1.3c-0.4-0.3-0.9-0.5-1.7-0.5c-0.7,0-1.2,0.1-1.6,0.4c-0.3,0.2-0.6,0.7-0.7,1.3l-1.5-0.2
		c0.1-0.6,0.4-1.1,0.7-1.5s0.7-0.7,1.3-0.9c0.6-0.2,1.2-0.3,2-0.3c0.8,0,1.4,0.1,1.8,0.3c0.5,0.2,0.8,0.4,1,0.7s0.4,0.6,0.5,1
		c0,0.3,0.1,0.7,0.1,1.4v2c0,1.4,0,2.3,0.1,2.6c0.1,0.4,0.2,0.7,0.4,1.1h-1.6C120.1,31.9,120,31.5,119.9,31.1z M119.8,27.8
		c-0.5,0.2-1.4,0.4-2.4,0.6c-0.6,0.1-1,0.2-1.3,0.3c-0.3,0.1-0.5,0.3-0.6,0.5c-0.1,0.2-0.2,0.4-0.2,0.7c0,0.4,0.2,0.7,0.5,1
		c0.3,0.3,0.7,0.4,1.3,0.4c0.6,0,1.1-0.1,1.5-0.4c0.4-0.3,0.8-0.6,1-1c0.2-0.3,0.2-0.8,0.2-1.5V27.8z"/>
	<path class="st0" d="M129.4,28.9l1.5,0.2c-0.2,1-0.6,1.8-1.2,2.4c-0.7,0.6-1.5,0.9-2.4,0.9c-1.2,0-2.2-0.4-2.9-1.2
		c-0.7-0.8-1.1-1.9-1.1-3.4c0-1,0.2-1.8,0.5-2.5s0.8-1.2,1.4-1.6c0.6-0.4,1.3-0.5,2.1-0.5c1,0,1.7,0.2,2.3,0.7
		c0.6,0.5,1,1.2,1.2,2.1l-1.5,0.2c-0.1-0.6-0.4-1-0.7-1.3c-0.4-0.3-0.8-0.4-1.3-0.4c-0.8,0-1.4,0.3-1.8,0.8
		c-0.5,0.5-0.7,1.4-0.7,2.6c0,1.2,0.2,2,0.7,2.6c0.5,0.5,1,0.8,1.8,0.8c0.6,0,1.1-0.2,1.5-0.5C129,30.2,129.3,29.7,129.4,28.9z"/>
	<path class="st0" d="M138.4,34.7h-1.2v-2.5h-0.2l-1.6-2.7c-0.3-0.4-0.5-0.8-0.7-0.9c-0.3-0.3-0.6-0.4-1-0.4v4.1h-1.5v-8.8h1.5v3.8
		c0.6,0,1-0.2,1.2-0.5c0.1-0.1,0.3-0.6,0.6-1.3c0.2-0.5,0.4-0.9,0.5-1.1c0.2-0.4,0.5-0.7,0.8-0.8c0.2-0.1,0.6-0.1,1.1-0.1h0.3v1.2
		l-0.4,0c-0.4,0-0.7,0.1-0.9,0.3c-0.1,0.1-0.2,0.4-0.4,0.9c-0.2,0.5-0.4,0.9-0.5,1.1c-0.2,0.3-0.5,0.5-1,0.7
		c0.6,0.2,1.3,0.8,1.9,1.8l0.9,1.5h0.5V34.7z"/>
	<path class="st0" d="M145.3,31.1c-0.6,0.5-1.1,0.8-1.6,1c-0.5,0.2-1.1,0.3-1.6,0.3c-1,0-1.7-0.2-2.2-0.7c-0.5-0.5-0.8-1.1-0.8-1.8
		c0-0.4,0.1-0.8,0.3-1.2c0.2-0.4,0.5-0.6,0.8-0.9s0.7-0.4,1.1-0.5c0.3-0.1,0.7-0.2,1.3-0.2c1.2-0.1,2.1-0.3,2.7-0.5
		c0-0.2,0-0.3,0-0.4c0-0.6-0.1-1-0.4-1.3c-0.4-0.3-0.9-0.5-1.7-0.5c-0.7,0-1.2,0.1-1.6,0.4c-0.3,0.2-0.6,0.7-0.7,1.3l-1.5-0.2
		c0.1-0.6,0.4-1.1,0.7-1.5s0.7-0.7,1.3-0.9c0.6-0.2,1.2-0.3,2-0.3c0.8,0,1.4,0.1,1.8,0.3c0.5,0.2,0.8,0.4,1,0.7s0.4,0.6,0.5,1
		c0,0.3,0.1,0.7,0.1,1.4v2c0,1.4,0,2.3,0.1,2.6s0.2,0.7,0.4,1.1h-1.6C145.4,31.9,145.3,31.5,145.3,31.1z M145.2,27.8
		c-0.5,0.2-1.4,0.4-2.4,0.6c-0.6,0.1-1,0.2-1.3,0.3c-0.3,0.1-0.5,0.3-0.6,0.5c-0.1,0.2-0.2,0.4-0.2,0.7c0,0.4,0.2,0.7,0.5,1
		s0.7,0.4,1.3,0.4c0.6,0,1.1-0.1,1.5-0.4c0.4-0.3,0.8-0.6,1-1c0.2-0.3,0.2-0.8,0.2-1.5V27.8z"/>
	<path class="st0" d="M160.2,19.7l1.3,0c-0.1,0.6-0.2,1-0.4,1.2s-0.5,0.4-0.8,0.4s-0.9,0.1-1.9,0.1c-1.2,0-2.1,0.1-2.5,0.4
		c-0.4,0.2-0.8,0.6-1,1.1c-0.2,0.5-0.3,1.2-0.3,2c0.4-0.6,0.8-1,1.3-1.3s1.1-0.4,1.7-0.4c1.2,0,2.1,0.4,2.9,1.2
		c0.8,0.8,1.1,1.9,1.1,3.2c0,1-0.2,1.9-0.6,2.5c-0.4,0.7-0.8,1.2-1.4,1.5c-0.5,0.4-1.2,0.5-2.1,0.5c-1,0-1.9-0.2-2.4-0.7
		c-0.6-0.5-1-1.1-1.3-1.8c-0.3-0.7-0.5-2-0.5-3.9c0-2.3,0.4-3.9,1.2-4.7c0.8-0.8,2-1.2,3.6-1.2c1,0,1.6,0,1.7,0
		C160.1,19.9,160.1,19.8,160.2,19.7z M160.1,27.7c0-0.9-0.2-1.7-0.7-2.3c-0.4-0.6-1-0.9-1.8-0.9c-0.8,0-1.5,0.3-1.9,0.9
		c-0.4,0.6-0.7,1.4-0.7,2.5c0,1,0.2,1.8,0.7,2.3c0.5,0.5,1.1,0.8,1.8,0.8c0.7,0,1.3-0.3,1.8-0.9C159.9,29.6,160.1,28.8,160.1,27.7z"
		/>
	<path class="st0" d="M168.8,31.1c-0.6,0.5-1.1,0.8-1.6,1c-0.5,0.2-1.1,0.3-1.6,0.3c-1,0-1.7-0.2-2.2-0.7c-0.5-0.5-0.8-1.1-0.8-1.8
		c0-0.4,0.1-0.8,0.3-1.2c0.2-0.4,0.5-0.6,0.8-0.9s0.7-0.4,1.1-0.5c0.3-0.1,0.7-0.2,1.3-0.2c1.2-0.1,2.1-0.3,2.7-0.5
		c0-0.2,0-0.3,0-0.4c0-0.6-0.1-1-0.4-1.3c-0.4-0.3-0.9-0.5-1.7-0.5c-0.7,0-1.2,0.1-1.6,0.4c-0.3,0.2-0.6,0.7-0.7,1.3l-1.5-0.2
		c0.1-0.6,0.4-1.1,0.7-1.5s0.7-0.7,1.3-0.9c0.6-0.2,1.2-0.3,2-0.3c0.8,0,1.4,0.1,1.8,0.3c0.5,0.2,0.8,0.4,1,0.7s0.4,0.6,0.5,1
		c0,0.3,0.1,0.7,0.1,1.4v2c0,1.4,0,2.3,0.1,2.6s0.2,0.7,0.4,1.1h-1.6C169,31.9,168.9,31.5,168.8,31.1z M168.7,27.8
		c-0.5,0.2-1.4,0.4-2.4,0.6c-0.6,0.1-1,0.2-1.3,0.3c-0.3,0.1-0.5,0.3-0.6,0.5c-0.1,0.2-0.2,0.4-0.2,0.7c0,0.4,0.2,0.7,0.5,1
		s0.7,0.4,1.3,0.4c0.6,0,1.1-0.1,1.5-0.4c0.4-0.3,0.8-0.6,1-1c0.2-0.3,0.2-0.8,0.2-1.5V27.8z"/>
	<path class="st0" d="M172.5,23.4h1.5v6.7l4.1-6.7h1.6v8.8h-1.5v-6.7l-4.1,6.7h-1.6V23.4z M177.7,20h1c-0.1,0.7-0.3,1.2-0.8,1.6
		c-0.4,0.4-1,0.6-1.7,0.6c-0.7,0-1.3-0.2-1.7-0.6c-0.4-0.4-0.7-0.9-0.8-1.6h1c0.1,0.4,0.2,0.7,0.5,0.8c0.2,0.2,0.5,0.3,0.9,0.3
		c0.4,0,0.8-0.1,1-0.3S177.6,20.4,177.7,20z"/>
	<path class="st0" d="M182.8,23.4h6.9v8.8h-1.5v-7.6h-4V29c0,1,0,1.7-0.1,2c-0.1,0.3-0.2,0.6-0.5,0.9c-0.3,0.2-0.7,0.4-1.3,0.4
		c-0.3,0-0.7,0-1.2-0.1v-1.2h0.7c0.3,0,0.5,0,0.7-0.1c0.1-0.1,0.2-0.2,0.3-0.3c0-0.1,0.1-0.6,0.1-1.4V23.4z"/>
	<path class="st0" d="M197.7,31.1c-0.6,0.5-1.1,0.8-1.6,1c-0.5,0.2-1.1,0.3-1.6,0.3c-1,0-1.7-0.2-2.2-0.7c-0.5-0.5-0.8-1.1-0.8-1.8
		c0-0.4,0.1-0.8,0.3-1.2c0.2-0.4,0.5-0.6,0.8-0.9s0.7-0.4,1.1-0.5c0.3-0.1,0.7-0.2,1.3-0.2c1.2-0.1,2.1-0.3,2.7-0.5
		c0-0.2,0-0.3,0-0.4c0-0.6-0.1-1-0.4-1.3c-0.4-0.3-0.9-0.5-1.7-0.5c-0.7,0-1.2,0.1-1.6,0.4c-0.3,0.2-0.6,0.7-0.7,1.3l-1.5-0.2
		c0.1-0.6,0.4-1.1,0.7-1.5s0.7-0.7,1.3-0.9c0.6-0.2,1.2-0.3,2-0.3c0.8,0,1.4,0.1,1.8,0.3c0.5,0.2,0.8,0.4,1,0.7s0.4,0.6,0.5,1
		c0,0.3,0.1,0.7,0.1,1.4v2c0,1.4,0,2.3,0.1,2.6s0.2,0.7,0.4,1.1H198C197.8,31.9,197.7,31.5,197.7,31.1z M197.6,27.8
		c-0.5,0.2-1.4,0.4-2.4,0.6c-0.6,0.1-1,0.2-1.3,0.3c-0.3,0.1-0.5,0.3-0.6,0.5c-0.1,0.2-0.2,0.4-0.2,0.7c0,0.4,0.2,0.7,0.5,1
		s0.7,0.4,1.3,0.4c0.6,0,1.1-0.1,1.5-0.4c0.4-0.3,0.8-0.6,1-1c0.2-0.3,0.2-0.8,0.2-1.5V27.8z"/>
	<path class="st0" d="M201.4,23.4h1.5V27h4.1v-3.7h1.5v8.8H207v-3.9h-4.1v3.9h-1.5V23.4z"/>
	<path class="st0" d="M210.8,23.4h1.5v3.4h1.9c1.2,0,2.2,0.2,2.9,0.7c0.7,0.5,1,1.1,1,2c0,0.7-0.3,1.4-0.8,1.9
		c-0.6,0.5-1.4,0.8-2.7,0.8h-3.7V23.4z M212.3,30.9h1.6c0.9,0,1.6-0.1,2-0.3s0.6-0.6,0.6-1.1c0-0.4-0.1-0.7-0.4-1s-1-0.4-2-0.4h-1.8
		V30.9z M219.2,23.4h1.5v8.8h-1.5V23.4z"/>
	<path class="st0" d="M228.8,28.9l1.5,0.2c-0.2,1-0.6,1.8-1.2,2.4c-0.7,0.6-1.5,0.9-2.4,0.9c-1.2,0-2.2-0.4-2.9-1.2
		c-0.7-0.8-1.1-1.9-1.1-3.4c0-1,0.2-1.8,0.5-2.5c0.3-0.7,0.8-1.2,1.4-1.6c0.6-0.4,1.3-0.5,2.1-0.5c1,0,1.7,0.2,2.3,0.7
		c0.6,0.5,1,1.2,1.2,2.1l-1.5,0.2c-0.1-0.6-0.4-1-0.7-1.3s-0.8-0.4-1.3-0.4c-0.8,0-1.4,0.3-1.8,0.8c-0.5,0.5-0.7,1.4-0.7,2.6
		c0,1.2,0.2,2,0.7,2.6c0.5,0.5,1,0.8,1.8,0.8c0.6,0,1.1-0.2,1.5-0.5C228.4,30.2,228.7,29.7,228.8,28.9z"/>
	<path class="st0" d="M230.7,23.4h7.2v1.2H235v7.6h-1.5v-7.6h-2.8V23.4z"/>
	<path class="st0" d="M239.3,23.4h1.5v3.4h1.9c1.2,0,2.2,0.2,2.9,0.7c0.7,0.5,1,1.1,1,2c0,0.7-0.3,1.4-0.8,1.9
		c-0.6,0.5-1.4,0.8-2.7,0.8h-3.7V23.4z M240.8,30.9h1.6c0.9,0,1.6-0.1,2-0.3s0.6-0.6,0.6-1.1c0-0.4-0.1-0.7-0.4-1s-1-0.4-2-0.4h-1.8
		V30.9z M247.7,23.4h1.5v8.8h-1.5V23.4z"/>
	<path class="st0" d="M256.2,23.4h1.5v3.8c0.5,0,0.8-0.1,1-0.3c0.2-0.2,0.5-0.7,0.8-1.6c0.3-0.7,0.5-1.2,0.7-1.4
		c0.2-0.2,0.4-0.4,0.6-0.4c0.2-0.1,0.6-0.1,1.1-0.1h0.3v1.2l-0.4,0c-0.4,0-0.6,0.1-0.8,0.2c-0.1,0.1-0.3,0.5-0.5,1.1
		c-0.2,0.6-0.4,1-0.6,1.2c-0.2,0.2-0.5,0.4-0.9,0.6c0.6,0.2,1.3,0.8,1.9,1.8l1.6,2.7H261l-1.6-2.7c-0.3-0.5-0.6-0.9-0.9-1.1
		c-0.2-0.2-0.5-0.3-0.9-0.3v4.1h-1.5V23.4z"/>
	<path class="st0" d="M271.4,27.6c0,2.1-0.7,3.5-2,4.2c-0.6,0.4-1.4,0.5-2.1,0.5c-1.3,0-2.4-0.4-3.1-1.3c-0.7-0.8-1-1.9-1-3.3
		c0-1.6,0.5-2.8,1.4-3.6c0.8-0.7,1.7-1,2.8-1c1.3,0,2.3,0.4,3.1,1.3C271,25.3,271.4,26.3,271.4,27.6z M269.8,28.2h-5.2
		c0,0.9,0.3,1.5,0.7,2.1c0.5,0.6,1.1,0.9,1.9,0.9s1.5-0.3,1.9-0.9C269.6,29.7,269.8,29,269.8,28.2z M269.8,26.9
		c-0.1-0.7-0.3-1.3-0.7-1.7c-0.5-0.6-1.1-0.8-1.9-0.8c-0.7,0-1.4,0.3-1.9,0.8c-0.4,0.4-0.6,1-0.7,1.7H269.8z"/>
	<path class="st0" d="M275.1,28.2V27c0.6,0,1.1,0,1.3-0.1c0.2,0,0.4-0.2,0.7-0.4c0.2-0.2,0.3-0.5,0.3-0.8c0-0.4-0.1-0.7-0.4-1
		c-0.3-0.2-0.6-0.4-1-0.4c-0.8,0-1.4,0.5-1.8,1.5l-1.4-0.2c0.4-1.7,1.5-2.5,3.2-2.5c0.9,0,1.7,0.3,2.2,0.8s0.8,1.1,0.8,1.8
		c0,0.7-0.3,1.3-1,1.7c0.4,0.2,0.8,0.5,1,0.9c0.2,0.4,0.3,0.8,0.3,1.3c0,0.8-0.3,1.4-0.9,1.9c-0.6,0.5-1.4,0.7-2.4,0.7
		c-2,0-3.2-0.9-3.5-2.7l1.4-0.3c0.1,0.6,0.4,1,0.8,1.3c0.4,0.3,0.8,0.5,1.3,0.5s0.9-0.1,1.3-0.4c0.3-0.3,0.5-0.6,0.5-1.1
		c0-0.3-0.1-0.6-0.3-0.9c-0.2-0.3-0.4-0.4-0.7-0.5c-0.2-0.1-0.7-0.1-1.3-0.1C275.4,28.2,275.3,28.2,275.1,28.2z"/>
	<path class="st0" d="M0.3,43.4h7.2v1.2H4.6v7.6H3.2v-7.6H0.3V43.4z"/>
	<path class="st0" d="M8.2,47.8c0-1.6,0.5-2.8,1.4-3.6c0.8-0.7,1.7-1,2.8-1c1.2,0,2.2,0.4,3,1.2c0.8,0.8,1.2,1.9,1.2,3.3
		c0,1.1-0.2,2-0.5,2.7c-0.3,0.7-0.8,1.2-1.5,1.5c-0.6,0.4-1.4,0.5-2.1,0.5c-1.2,0-2.2-0.4-3-1.2C8.5,50.4,8.2,49.3,8.2,47.8z
		 M9.7,47.8c0,1.1,0.2,2,0.7,2.5s1.1,0.8,1.9,0.8c0.7,0,1.4-0.3,1.9-0.8s0.7-1.4,0.7-2.6c0-1.1-0.2-1.9-0.7-2.5
		c-0.5-0.6-1.1-0.8-1.8-0.8c-0.7,0-1.4,0.3-1.9,0.8C9.9,45.8,9.7,46.6,9.7,47.8z"/>
	<path class="st0" d="M18.2,55.6V43.4h1.4v1.1c0.3-0.4,0.7-0.8,1.1-1c0.4-0.2,0.9-0.3,1.5-0.3c0.8,0,1.4,0.2,2,0.6
		c0.6,0.4,1,0.9,1.3,1.6c0.3,0.7,0.4,1.5,0.4,2.3c0,0.9-0.2,1.7-0.5,2.4c-0.3,0.7-0.8,1.3-1.4,1.7c-0.6,0.4-1.3,0.6-1.9,0.6
		c-0.5,0-0.9-0.1-1.3-0.3c-0.4-0.2-0.7-0.5-1-0.8v4.3H18.2z M19.5,47.8c0,1.1,0.2,2,0.7,2.5c0.5,0.5,1,0.8,1.7,0.8
		c0.7,0,1.2-0.3,1.7-0.8c0.5-0.6,0.7-1.4,0.7-2.6c0-1.1-0.2-2-0.7-2.5c-0.5-0.6-1-0.8-1.7-0.8c-0.6,0-1.2,0.3-1.7,0.9
		C19.8,45.8,19.5,46.7,19.5,47.8z"/>
	<path class="st0" d="M27.7,43.4h1.5v3.4H31c1.2,0,2.2,0.2,2.9,0.7c0.7,0.5,1,1.1,1,2c0,0.7-0.3,1.4-0.8,1.9
		c-0.6,0.5-1.4,0.8-2.7,0.8h-3.7V43.4z M29.2,50.9h1.6c0.9,0,1.6-0.1,2-0.3s0.6-0.6,0.6-1.1c0-0.4-0.1-0.7-0.4-1s-1-0.4-2-0.4h-1.8
		V50.9z M36,43.4h1.5v8.8H36V43.4z"/>
	<path class="st0" d="M39.9,43.4h1.5V47h4.1v-3.7H47v8.8h-1.5v-3.9h-4.1v3.9h-1.5V43.4z"/>
	<path class="st0" d="M49.3,43.4h1.5v3.4h1.9c1.2,0,2.2,0.2,2.9,0.7c0.7,0.5,1,1.1,1,2c0,0.7-0.3,1.4-0.8,1.9
		c-0.6,0.5-1.4,0.8-2.7,0.8h-3.7V43.4z M50.8,50.9h1.6c0.9,0,1.6-0.1,2-0.3S55,50,55,49.5c0-0.4-0.1-0.7-0.4-1s-1-0.4-2-0.4h-1.8
		V50.9z M57.6,43.4h1.5v8.8h-1.5V43.4z"/>
	<path class="st0" d="M69.6,54.7h-1.2v-2.5h-1.2v-3.9H63v3.9h-1.5v-8.8H63V47h4.1v-3.7h1.5v7.6h1V54.7z"/>
	<path class="st0" d="M83.3,47.6c0,2.1-0.7,3.5-2,4.2c-0.6,0.4-1.4,0.5-2.1,0.5c-1.3,0-2.4-0.4-3.1-1.3c-0.7-0.8-1-1.9-1-3.3
		c0-1.6,0.5-2.8,1.4-3.6c0.8-0.7,1.7-1,2.8-1c1.3,0,2.3,0.4,3.1,1.3C82.9,45.3,83.3,46.3,83.3,47.6z M81.7,48.2h-5.2
		c0,0.9,0.3,1.5,0.7,2.1c0.5,0.6,1.1,0.9,1.9,0.9s1.4-0.3,1.9-0.9C81.4,49.7,81.7,49,81.7,48.2z M81.7,46.9
		c-0.1-0.7-0.3-1.3-0.7-1.7c-0.5-0.6-1.1-0.8-1.9-0.8c-0.7,0-1.4,0.3-1.9,0.8c-0.4,0.4-0.6,1-0.7,1.7H81.7z"/>
	<path class="st0" d="M87,48.2V47c0.6,0,1.1,0,1.3-0.1c0.2,0,0.4-0.2,0.7-0.4c0.2-0.2,0.3-0.5,0.3-0.8c0-0.4-0.1-0.7-0.4-1
		c-0.3-0.2-0.6-0.4-1-0.4c-0.8,0-1.4,0.5-1.8,1.5l-1.4-0.2c0.4-1.7,1.5-2.5,3.2-2.5c0.9,0,1.7,0.3,2.2,0.8c0.5,0.5,0.8,1.1,0.8,1.8
		c0,0.7-0.3,1.3-1,1.7c0.4,0.2,0.8,0.5,1,0.9c0.2,0.4,0.3,0.8,0.3,1.3c0,0.8-0.3,1.4-0.9,1.9c-0.6,0.5-1.4,0.7-2.4,0.7
		c-2,0-3.2-0.9-3.5-2.7l1.4-0.3c0.1,0.6,0.4,1,0.8,1.3c0.4,0.3,0.8,0.5,1.3,0.5s0.9-0.1,1.3-0.4c0.3-0.3,0.5-0.6,0.5-1.1
		c0-0.3-0.1-0.6-0.3-0.9c-0.2-0.3-0.4-0.4-0.7-0.5s-0.7-0.1-1.3-0.1C87.3,48.2,87.1,48.2,87,48.2z"/>
	<path class="st0" d="M92.8,43.4h5.1v1.2h-3.6v7.6h-1.5V43.4z"/>
	<path class="st0" d="M104.7,49.3l1.5,0.2c-0.2,0.9-0.7,1.6-1.4,2.1s-1.5,0.7-2.5,0.7c-1.3,0-2.3-0.4-3.1-1.2
		c-0.8-0.8-1.1-1.9-1.1-3.3c0-1.5,0.4-2.6,1.1-3.5c0.8-0.8,1.8-1.2,3-1.2c1.2,0,2.1,0.4,2.9,1.2c0.7,0.8,1.1,1.9,1.1,3.4
		c0,0.1,0,0.2,0,0.4h-6.6c0.1,1,0.3,1.7,0.8,2.2s1.1,0.8,1.8,0.8c0.5,0,1-0.1,1.4-0.4C104.1,50.4,104.4,50,104.7,49.3z M99.8,46.9
		h4.9c-0.1-0.7-0.3-1.3-0.6-1.7c-0.5-0.6-1.1-0.9-1.9-0.9c-0.7,0-1.3,0.2-1.7,0.7C100.1,45.5,99.8,46.2,99.8,46.9z"/>
	<path class="st0" d="M108.1,55.6V43.4h1.4v1.1c0.3-0.4,0.7-0.8,1.1-1c0.4-0.2,0.9-0.3,1.5-0.3c0.8,0,1.4,0.2,2,0.6
		c0.6,0.4,1,0.9,1.3,1.6c0.3,0.7,0.4,1.5,0.4,2.3c0,0.9-0.2,1.7-0.5,2.4c-0.3,0.7-0.8,1.3-1.4,1.7c-0.6,0.4-1.3,0.6-1.9,0.6
		c-0.5,0-0.9-0.1-1.3-0.3c-0.4-0.2-0.7-0.5-1-0.8v4.3H108.1z M109.4,47.8c0,1.1,0.2,2,0.7,2.5c0.5,0.5,1,0.8,1.7,0.8
		c0.7,0,1.2-0.3,1.7-0.8c0.5-0.6,0.7-1.4,0.7-2.6c0-1.1-0.2-2-0.7-2.5c-0.5-0.6-1-0.8-1.7-0.8c-0.6,0-1.2,0.3-1.7,0.9
		C109.7,45.8,109.4,46.7,109.4,47.8z"/>
	<path class="st0" d="M117.6,41.7V40h1.5v1.7H117.6z M117.6,52.2v-8.8h1.5v8.8H117.6z"/>
	<path class="st0" d="M127.1,48.9l1.5,0.2c-0.2,1-0.6,1.8-1.2,2.4c-0.7,0.6-1.5,0.9-2.4,0.9c-1.2,0-2.2-0.4-2.9-1.2
		c-0.7-0.8-1.1-1.9-1.1-3.4c0-1,0.2-1.8,0.5-2.5s0.8-1.2,1.4-1.6c0.6-0.4,1.3-0.5,2.1-0.5c1,0,1.7,0.2,2.3,0.7
		c0.6,0.5,1,1.2,1.2,2.1l-1.5,0.2c-0.1-0.6-0.4-1-0.7-1.3c-0.4-0.3-0.8-0.4-1.3-0.4c-0.8,0-1.4,0.3-1.8,0.8
		c-0.5,0.5-0.7,1.4-0.7,2.6c0,1.2,0.2,2,0.7,2.6c0.5,0.5,1,0.8,1.8,0.8c0.6,0,1.1-0.2,1.5-0.5C126.7,50.2,127,49.7,127.1,48.9z"/>
	<path class="st0" d="M129,43.4h7.2v1.2h-2.8v7.6h-1.5v-7.6H129V43.4z"/>
	<path class="st0" d="M143.5,49.3l1.5,0.2c-0.2,0.9-0.7,1.6-1.4,2.1c-0.7,0.5-1.5,0.7-2.5,0.7c-1.3,0-2.3-0.4-3.1-1.2
		c-0.8-0.8-1.1-1.9-1.1-3.3c0-1.5,0.4-2.6,1.1-3.5c0.8-0.8,1.8-1.2,3-1.2c1.2,0,2.1,0.4,2.9,1.2c0.7,0.8,1.1,1.9,1.1,3.4
		c0,0.1,0,0.2,0,0.4h-6.6c0.1,1,0.3,1.7,0.8,2.2s1.1,0.8,1.8,0.8c0.5,0,1-0.1,1.4-0.4C142.9,50.4,143.2,50,143.5,49.3z M138.5,46.9
		h4.9c-0.1-0.7-0.3-1.3-0.6-1.7c-0.5-0.6-1.1-0.9-1.9-0.9c-0.7,0-1.3,0.2-1.7,0.7C138.9,45.5,138.6,46.2,138.5,46.9z"/>
	<path class="st0" d="M146.9,55.6V43.4h1.4v1.1c0.3-0.4,0.7-0.8,1.1-1c0.4-0.2,0.9-0.3,1.5-0.3c0.8,0,1.4,0.2,2,0.6
		c0.6,0.4,1,0.9,1.3,1.6c0.3,0.7,0.4,1.5,0.4,2.3c0,0.9-0.2,1.7-0.5,2.4c-0.3,0.7-0.8,1.3-1.4,1.7s-1.3,0.6-1.9,0.6
		c-0.5,0-0.9-0.1-1.3-0.3c-0.4-0.2-0.7-0.5-1-0.8v4.3H146.9z M148.2,47.8c0,1.1,0.2,2,0.7,2.5c0.5,0.5,1,0.8,1.7,0.8
		c0.7,0,1.2-0.3,1.7-0.8c0.5-0.6,0.7-1.4,0.7-2.6c0-1.1-0.2-2-0.7-2.5c-0.5-0.6-1-0.8-1.7-0.8c-0.6,0-1.2,0.3-1.7,0.9
		C148.5,45.8,148.2,46.7,148.2,47.8z"/>
	<path class="st0" d="M156.3,41.7V40h1.5v1.7H156.3z M156.3,52.2v-8.8h1.5v8.8H156.3z"/>
	<path class="st0" d="M164.8,43.4h1.5v3.8c0.5,0,0.8-0.1,1-0.3c0.2-0.2,0.5-0.7,0.8-1.6c0.3-0.7,0.5-1.2,0.7-1.4
		c0.2-0.2,0.4-0.4,0.6-0.4c0.2-0.1,0.6-0.1,1.1-0.1h0.3v1.2l-0.4,0c-0.4,0-0.6,0.1-0.8,0.2c-0.1,0.1-0.3,0.5-0.5,1.1
		c-0.2,0.6-0.4,1-0.6,1.2c-0.2,0.2-0.5,0.4-0.9,0.6c0.6,0.2,1.3,0.8,1.9,1.8l1.6,2.7h-1.6l-1.6-2.7c-0.3-0.5-0.6-0.9-0.9-1.1
		c-0.2-0.2-0.5-0.3-0.9-0.3v4.1h-1.5V43.4z"/>
	<path class="st0" d="M178.5,49.3l1.5,0.2c-0.2,0.9-0.7,1.6-1.4,2.1c-0.7,0.5-1.5,0.7-2.5,0.7c-1.3,0-2.3-0.4-3.1-1.2
		c-0.8-0.8-1.1-1.9-1.1-3.3c0-1.5,0.4-2.6,1.1-3.5c0.8-0.8,1.8-1.2,3-1.2c1.2,0,2.1,0.4,2.9,1.2c0.7,0.8,1.1,1.9,1.1,3.4
		c0,0.1,0,0.2,0,0.4h-6.6c0.1,1,0.3,1.7,0.8,2.2s1.1,0.8,1.8,0.8c0.5,0,1-0.1,1.4-0.4C178,50.4,178.3,50,178.5,49.3z M173.6,46.9
		h4.9c-0.1-0.7-0.3-1.3-0.6-1.7c-0.5-0.6-1.1-0.9-1.9-0.9c-0.7,0-1.3,0.2-1.7,0.7C173.9,45.5,173.6,46.2,173.6,46.9z"/>
	<path class="st0" d="M183.5,48.2V47c0.6,0,1.1,0,1.3-0.1c0.2,0,0.4-0.2,0.7-0.4c0.2-0.2,0.3-0.5,0.3-0.8c0-0.4-0.1-0.7-0.4-1
		c-0.3-0.2-0.6-0.4-1-0.4c-0.8,0-1.4,0.5-1.8,1.5l-1.4-0.2c0.4-1.7,1.5-2.5,3.2-2.5c0.9,0,1.7,0.3,2.2,0.8s0.8,1.1,0.8,1.8
		c0,0.7-0.3,1.3-1,1.7c0.4,0.2,0.8,0.5,1,0.9c0.2,0.4,0.3,0.8,0.3,1.3c0,0.8-0.3,1.4-0.9,1.9c-0.6,0.5-1.4,0.7-2.4,0.7
		c-2,0-3.2-0.9-3.5-2.7l1.4-0.3c0.1,0.6,0.4,1,0.8,1.3c0.4,0.3,0.8,0.5,1.3,0.5s0.9-0.1,1.3-0.4c0.3-0.3,0.5-0.6,0.5-1.1
		c0-0.3-0.1-0.6-0.3-0.9c-0.2-0.3-0.4-0.4-0.7-0.5c-0.2-0.1-0.7-0.1-1.3-0.1C183.8,48.2,183.7,48.2,183.5,48.2z"/>
	<path class="st0" d="M189.3,41.7V40h1.5v1.7H189.3z M189.3,52.2v-8.8h1.5v8.8H189.3z"/>
	<path class="st0" d="M193.1,43.4h1.5V47h4.1v-3.7h1.5v8.8h-1.5v-3.9h-4.1v3.9h-1.5V43.4z"/>
	<path class="st0" d="M203.7,43.4h6.1v7.6h1v3.7h-1.2v-2.5h-6.9v2.5h-1.2v-3.7h0.8C203.2,49.5,203.7,47,203.7,43.4z M204.9,44.6
		c-0.1,2.9-0.6,5-1.3,6.4h4.7v-6.4H204.9z"/>
	<path class="st0" d="M218.5,49.3l1.5,0.2c-0.2,0.9-0.7,1.6-1.4,2.1c-0.7,0.5-1.5,0.7-2.5,0.7c-1.3,0-2.3-0.4-3.1-1.2
		c-0.8-0.8-1.1-1.9-1.1-3.3c0-1.5,0.4-2.6,1.1-3.5c0.8-0.8,1.8-1.2,3-1.2c1.2,0,2.1,0.4,2.9,1.2c0.7,0.8,1.1,1.9,1.1,3.4
		c0,0.1,0,0.2,0,0.4h-6.6c0.1,1,0.3,1.7,0.8,2.2s1.1,0.8,1.8,0.8c0.5,0,1-0.1,1.4-0.4C217.9,50.4,218.2,50,218.5,49.3z M213.6,46.9
		h4.9c-0.1-0.7-0.3-1.3-0.6-1.7c-0.5-0.6-1.1-0.9-1.9-0.9c-0.7,0-1.3,0.2-1.7,0.7C213.9,45.5,213.6,46.2,213.6,46.9z"/>
	<path class="st0" d="M221.9,43.4h5.1v1.2h-3.6v7.6h-1.5V43.4z"/>
	<path class="st0" d="M228.1,41.7V40h1.5v1.7H228.1z M228.1,52.2v-8.8h1.5v8.8H228.1z"/>
	<path class="st0" d="M1.1,63.4h1.5v3.8c0.5,0,0.8-0.1,1-0.3c0.2-0.2,0.5-0.7,0.8-1.6c0.3-0.7,0.5-1.2,0.7-1.4
		c0.2-0.2,0.4-0.4,0.6-0.4c0.2-0.1,0.6-0.1,1.1-0.1h0.3v1.2l-0.4,0c-0.4,0-0.6,0.1-0.8,0.2c-0.1,0.1-0.3,0.5-0.5,1.1
		c-0.2,0.6-0.4,1-0.6,1.2c-0.2,0.2-0.5,0.4-0.9,0.6c0.6,0.2,1.3,0.8,1.9,1.8l1.6,2.7H5.9l-1.6-2.7c-0.3-0.5-0.6-0.9-0.9-1.1
		c-0.2-0.2-0.5-0.3-0.9-0.3v4.1H1.1V63.4z"/>
	<path class="st0" d="M16.3,67.6c0,2.1-0.7,3.5-2,4.2c-0.6,0.4-1.4,0.5-2.1,0.5c-1.3,0-2.4-0.4-3.1-1.3c-0.7-0.8-1-1.9-1-3.3
		c0-1.6,0.5-2.8,1.4-3.6c0.8-0.7,1.7-1,2.8-1c1.3,0,2.3,0.4,3.1,1.3C15.9,65.3,16.3,66.3,16.3,67.6z M14.7,68.2H9.5
		c0,0.9,0.3,1.5,0.7,2.1c0.5,0.6,1.1,0.9,1.9,0.9s1.4-0.3,1.9-0.9C14.4,69.7,14.7,69,14.7,68.2z M14.7,66.9
		c-0.1-0.7-0.3-1.3-0.7-1.7c-0.5-0.6-1.1-0.8-1.9-0.8c-0.7,0-1.4,0.3-1.9,0.8c-0.4,0.4-0.6,1-0.7,1.7H14.7z"/>
	<path class="st0" d="M20,68.2V67c0.6,0,1.1,0,1.3-0.1c0.2,0,0.4-0.2,0.7-0.4c0.2-0.2,0.3-0.5,0.3-0.8c0-0.4-0.1-0.7-0.4-1
		c-0.3-0.2-0.6-0.4-1-0.4c-0.8,0-1.4,0.5-1.8,1.5l-1.4-0.2c0.4-1.7,1.5-2.5,3.2-2.5c0.9,0,1.7,0.3,2.2,0.8c0.5,0.5,0.8,1.1,0.8,1.8
		c0,0.7-0.3,1.3-1,1.7c0.4,0.2,0.8,0.5,1,0.9c0.2,0.4,0.3,0.8,0.3,1.3c0,0.8-0.3,1.4-0.9,1.9c-0.6,0.5-1.4,0.7-2.4,0.7
		c-2,0-3.2-0.9-3.5-2.7l1.4-0.3c0.1,0.6,0.4,1,0.8,1.3c0.4,0.3,0.8,0.5,1.3,0.5s0.9-0.1,1.3-0.4c0.3-0.3,0.5-0.6,0.5-1.1
		c0-0.3-0.1-0.6-0.3-0.9c-0.2-0.3-0.4-0.4-0.7-0.5s-0.7-0.1-1.3-0.1C20.3,68.2,20.1,68.2,20,68.2z"/>
	<path class="st0" d="M25.8,61.7V60h1.5v1.7H25.8z M25.8,72.2v-8.8h1.5v8.8H25.8z"/>
	<path class="st0" d="M37.7,74.7h-1.2v-2.5h-1.2v-3.9h-4.1v3.9h-1.5v-8.8h1.5V67h4.1v-3.7h1.5v7.6h1V74.7z"/>
	<path class="st0" d="M39,61.7V60h1.5v1.7H39z M39,72.2v-8.8h1.5v8.8H39z"/>
	<path class="st0" d="M44.7,68.2V67c0.6,0,1.1,0,1.3-0.1c0.2,0,0.4-0.2,0.7-0.4c0.2-0.2,0.3-0.5,0.3-0.8c0-0.4-0.1-0.7-0.4-1
		c-0.3-0.2-0.6-0.4-1-0.4c-0.8,0-1.4,0.5-1.8,1.5l-1.4-0.2c0.4-1.7,1.5-2.5,3.2-2.5c0.9,0,1.7,0.3,2.2,0.8c0.5,0.5,0.8,1.1,0.8,1.8
		c0,0.7-0.3,1.3-1,1.7c0.4,0.2,0.8,0.5,1,0.9c0.2,0.4,0.3,0.8,0.3,1.3c0,0.8-0.3,1.4-0.9,1.9c-0.6,0.5-1.4,0.7-2.4,0.7
		c-2,0-3.2-0.9-3.5-2.7l1.4-0.3c0.1,0.6,0.4,1,0.8,1.3c0.4,0.3,0.8,0.5,1.3,0.5s0.9-0.1,1.3-0.4c0.3-0.3,0.5-0.6,0.5-1.1
		c0-0.3-0.1-0.6-0.3-0.9c-0.2-0.3-0.4-0.4-0.7-0.5s-0.7-0.1-1.3-0.1C45,68.2,44.9,68.2,44.7,68.2z"/>
	<path class="st0" d="M50.6,63.4h5.1v1.2H52v7.6h-1.5V63.4z"/>
	<path class="st0" d="M62.4,69.3l1.5,0.2c-0.2,0.9-0.7,1.6-1.4,2.1s-1.5,0.7-2.5,0.7c-1.3,0-2.3-0.4-3.1-1.2
		c-0.8-0.8-1.1-1.9-1.1-3.3c0-1.5,0.4-2.6,1.1-3.5c0.8-0.8,1.8-1.2,3-1.2c1.2,0,2.1,0.4,2.9,1.2c0.7,0.8,1.1,1.9,1.1,3.4
		c0,0.1,0,0.2,0,0.4h-6.6c0.1,1,0.3,1.7,0.8,2.2s1.1,0.8,1.8,0.8c0.5,0,1-0.1,1.4-0.4C61.9,70.4,62.2,70,62.4,69.3z M57.5,66.9h4.9
		c-0.1-0.7-0.3-1.3-0.6-1.7c-0.5-0.6-1.1-0.9-1.9-0.9c-0.7,0-1.3,0.2-1.7,0.7C57.8,65.5,57.5,66.2,57.5,66.9z"/>
	<path class="st0" d="M70.6,63.4h7v8.8H76v-7.6h-4v7.6h-1.5V63.4z"/>
	<path class="st0" d="M85.5,71.1c-0.6,0.5-1.1,0.8-1.6,1c-0.5,0.2-1.1,0.3-1.6,0.3c-1,0-1.7-0.2-2.2-0.7c-0.5-0.5-0.8-1.1-0.8-1.8
		c0-0.4,0.1-0.8,0.3-1.2c0.2-0.4,0.5-0.6,0.8-0.9c0.3-0.2,0.7-0.4,1.1-0.5c0.3-0.1,0.7-0.2,1.3-0.2c1.2-0.1,2.1-0.3,2.7-0.5
		c0-0.2,0-0.3,0-0.4c0-0.6-0.1-1-0.4-1.3c-0.4-0.3-0.9-0.5-1.7-0.5c-0.7,0-1.2,0.1-1.6,0.4c-0.3,0.2-0.6,0.7-0.7,1.3l-1.5-0.2
		c0.1-0.6,0.4-1.1,0.7-1.5s0.7-0.7,1.3-0.9c0.6-0.2,1.2-0.3,2-0.3c0.8,0,1.4,0.1,1.8,0.3c0.5,0.2,0.8,0.4,1,0.7s0.4,0.6,0.5,1
		c0,0.3,0.1,0.7,0.1,1.4v2c0,1.4,0,2.3,0.1,2.6c0.1,0.4,0.2,0.7,0.4,1.1h-1.6C85.7,71.9,85.6,71.5,85.5,71.1z M85.4,67.8
		c-0.5,0.2-1.4,0.4-2.4,0.6c-0.6,0.1-1,0.2-1.3,0.3c-0.3,0.1-0.5,0.3-0.6,0.5c-0.1,0.2-0.2,0.4-0.2,0.7c0,0.4,0.2,0.7,0.5,1
		c0.3,0.3,0.7,0.4,1.3,0.4c0.6,0,1.1-0.1,1.5-0.4c0.4-0.3,0.8-0.6,1-1c0.2-0.3,0.2-0.8,0.2-1.5V67.8z"/>
	<path class="st0" d="M89.2,63.4h1.5v6.7l4.1-6.7h1.6v8.8H95v-6.7l-4.1,6.7h-1.6V63.4z M94.4,60h1c-0.1,0.7-0.3,1.2-0.8,1.6
		c-0.4,0.4-1,0.6-1.7,0.6c-0.7,0-1.3-0.2-1.7-0.6c-0.4-0.4-0.7-0.9-0.8-1.6h1c0.1,0.4,0.2,0.7,0.5,0.8c0.2,0.2,0.5,0.3,0.9,0.3
		c0.4,0,0.8-0.1,1-0.3C94.2,60.7,94.3,60.4,94.4,60z"/>
	<path class="st0" d="M99.9,63.4h6.1v7.6h1v3.7h-1.2v-2.5h-6.9v2.5h-1.2v-3.7h0.8C99.4,69.5,99.9,67,99.9,63.4z M101.1,64.6
		c-0.1,2.9-0.6,5-1.3,6.4h4.7v-6.4H101.1z"/>
	<path class="st0" d="M114.4,71.1c-0.6,0.5-1.1,0.8-1.6,1c-0.5,0.2-1.1,0.3-1.6,0.3c-1,0-1.7-0.2-2.2-0.7c-0.5-0.5-0.8-1.1-0.8-1.8
		c0-0.4,0.1-0.8,0.3-1.2c0.2-0.4,0.5-0.6,0.8-0.9c0.3-0.2,0.7-0.4,1.1-0.5c0.3-0.1,0.7-0.2,1.3-0.2c1.2-0.1,2.1-0.3,2.7-0.5
		c0-0.2,0-0.3,0-0.4c0-0.6-0.1-1-0.4-1.3c-0.4-0.3-0.9-0.5-1.7-0.5c-0.7,0-1.2,0.1-1.6,0.4c-0.3,0.2-0.6,0.7-0.7,1.3l-1.5-0.2
		c0.1-0.6,0.4-1.1,0.7-1.5s0.7-0.7,1.3-0.9c0.6-0.2,1.2-0.3,2-0.3c0.8,0,1.4,0.1,1.8,0.3c0.5,0.2,0.8,0.4,1,0.7s0.4,0.6,0.5,1
		c0,0.3,0.1,0.7,0.1,1.4v2c0,1.4,0,2.3,0.1,2.6c0.1,0.4,0.2,0.7,0.4,1.1h-1.6C114.5,71.9,114.4,71.5,114.4,71.1z M114.3,67.8
		c-0.5,0.2-1.4,0.4-2.4,0.6c-0.6,0.1-1,0.2-1.3,0.3c-0.3,0.1-0.5,0.3-0.6,0.5c-0.1,0.2-0.2,0.4-0.2,0.7c0,0.4,0.2,0.7,0.5,1
		c0.3,0.3,0.7,0.4,1.3,0.4c0.6,0,1.1-0.1,1.5-0.4c0.4-0.3,0.8-0.6,1-1c0.2-0.3,0.2-0.8,0.2-1.5V67.8z"/>
	<path class="st0" d="M118.8,63.4h6.9v8.8h-1.5v-7.6h-4V69c0,1,0,1.7-0.1,2c-0.1,0.3-0.2,0.6-0.5,0.9c-0.3,0.2-0.7,0.4-1.3,0.4
		c-0.3,0-0.8,0-1.2-0.1v-1.2h0.7c0.3,0,0.5,0,0.7-0.1c0.1-0.1,0.2-0.2,0.3-0.3c0-0.1,0.1-0.6,0.1-1.4V63.4z"/>
	<path class="st0" d="M128,63.4h1.5v3.4h1.9c1.2,0,2.2,0.2,2.9,0.7c0.7,0.5,1,1.1,1,2c0,0.7-0.3,1.4-0.8,1.9
		c-0.6,0.5-1.4,0.8-2.7,0.8H128V63.4z M129.5,70.9h1.6c0.9,0,1.6-0.1,2-0.3c0.4-0.2,0.6-0.6,0.6-1.1c0-0.4-0.1-0.7-0.4-1
		s-1-0.4-2-0.4h-1.8V70.9z M136.4,63.4h1.5v8.8h-1.5V63.4z"/>
	<path class="st0" d="M146.9,68.2V67c0.6,0,1.1,0,1.3-0.1c0.2,0,0.4-0.2,0.7-0.4c0.2-0.2,0.3-0.5,0.3-0.8c0-0.4-0.1-0.7-0.4-1
		c-0.3-0.2-0.6-0.4-1-0.4c-0.8,0-1.4,0.5-1.8,1.5l-1.4-0.2c0.4-1.7,1.5-2.5,3.2-2.5c0.9,0,1.7,0.3,2.2,0.8s0.8,1.1,0.8,1.8
		c0,0.7-0.3,1.3-1,1.7c0.4,0.2,0.8,0.5,1,0.9c0.2,0.4,0.3,0.8,0.3,1.3c0,0.8-0.3,1.4-0.9,1.9c-0.6,0.5-1.4,0.7-2.4,0.7
		c-2,0-3.2-0.9-3.5-2.7l1.4-0.3c0.1,0.6,0.4,1,0.8,1.3c0.4,0.3,0.8,0.5,1.3,0.5s0.9-0.1,1.3-0.4c0.3-0.3,0.5-0.6,0.5-1.1
		c0-0.3-0.1-0.6-0.3-0.9c-0.2-0.3-0.4-0.4-0.7-0.5c-0.2-0.1-0.7-0.1-1.3-0.1C147.2,68.2,147.1,68.2,146.9,68.2z"/>
	<path class="st0" d="M158.5,71.1c-0.6,0.5-1.1,0.8-1.6,1c-0.5,0.2-1.1,0.3-1.6,0.3c-1,0-1.7-0.2-2.2-0.7c-0.5-0.5-0.8-1.1-0.8-1.8
		c0-0.4,0.1-0.8,0.3-1.2c0.2-0.4,0.5-0.6,0.8-0.9s0.7-0.4,1.1-0.5c0.3-0.1,0.7-0.2,1.3-0.2c1.2-0.1,2.1-0.3,2.7-0.5
		c0-0.2,0-0.3,0-0.4c0-0.6-0.1-1-0.4-1.3c-0.4-0.3-0.9-0.5-1.7-0.5c-0.7,0-1.2,0.1-1.6,0.4c-0.3,0.2-0.6,0.7-0.7,1.3l-1.5-0.2
		c0.1-0.6,0.4-1.1,0.7-1.5s0.7-0.7,1.3-0.9c0.6-0.2,1.2-0.3,2-0.3c0.8,0,1.4,0.1,1.8,0.3c0.5,0.2,0.8,0.4,1,0.7s0.4,0.6,0.5,1
		c0,0.3,0.1,0.7,0.1,1.4v2c0,1.4,0,2.3,0.1,2.6s0.2,0.7,0.4,1.1h-1.6C158.6,71.9,158.5,71.5,158.5,71.1z M158.4,67.8
		c-0.5,0.2-1.4,0.4-2.4,0.6c-0.6,0.1-1,0.2-1.3,0.3c-0.3,0.1-0.5,0.3-0.6,0.5c-0.1,0.2-0.2,0.4-0.2,0.7c0,0.4,0.2,0.7,0.5,1
		s0.7,0.4,1.3,0.4c0.6,0,1.1-0.1,1.5-0.4c0.4-0.3,0.8-0.6,1-1c0.2-0.3,0.2-0.8,0.2-1.5V67.8z"/>
	<path class="st0" d="M161,63.4h7.2v1.2h-2.8v7.6h-1.5v-7.6H161V63.4z"/>
	<path class="st0" d="M168.8,63.4h7.2v1.2h-2.8v7.6h-1.5v-7.6h-2.8V63.4z"/>
	<path class="st0" d="M183,71.1c-0.6,0.5-1.1,0.8-1.6,1c-0.5,0.2-1.1,0.3-1.6,0.3c-1,0-1.7-0.2-2.2-0.7c-0.5-0.5-0.8-1.1-0.8-1.8
		c0-0.4,0.1-0.8,0.3-1.2c0.2-0.4,0.5-0.6,0.8-0.9s0.7-0.4,1.1-0.5c0.3-0.1,0.7-0.2,1.3-0.2c1.2-0.1,2.1-0.3,2.7-0.5
		c0-0.2,0-0.3,0-0.4c0-0.6-0.1-1-0.4-1.3c-0.4-0.3-0.9-0.5-1.7-0.5c-0.7,0-1.2,0.1-1.6,0.4c-0.3,0.2-0.6,0.7-0.7,1.3l-1.5-0.2
		c0.1-0.6,0.4-1.1,0.7-1.5s0.7-0.7,1.3-0.9c0.6-0.2,1.2-0.3,2-0.3c0.8,0,1.4,0.1,1.8,0.3c0.5,0.2,0.8,0.4,1,0.7s0.4,0.6,0.5,1
		c0,0.3,0.1,0.7,0.1,1.4v2c0,1.4,0,2.3,0.1,2.6s0.2,0.7,0.4,1.1h-1.6C183.1,71.9,183,71.5,183,71.1z M182.8,67.8
		c-0.5,0.2-1.4,0.4-2.4,0.6c-0.6,0.1-1,0.2-1.3,0.3c-0.3,0.1-0.5,0.3-0.6,0.5c-0.1,0.2-0.2,0.4-0.2,0.7c0,0.4,0.2,0.7,0.5,1
		s0.7,0.4,1.3,0.4c0.6,0,1.1-0.1,1.5-0.4c0.4-0.3,0.8-0.6,1-1c0.2-0.3,0.2-0.8,0.2-1.5V67.8z"/>
	<path class="st0" d="M186.7,75.6V63.4h1.4v1.1c0.3-0.4,0.7-0.8,1.1-1c0.4-0.2,0.9-0.3,1.5-0.3c0.8,0,1.4,0.2,2,0.6
		c0.6,0.4,1,0.9,1.3,1.6c0.3,0.7,0.4,1.5,0.4,2.3c0,0.9-0.2,1.7-0.5,2.4c-0.3,0.7-0.8,1.3-1.4,1.7s-1.3,0.6-1.9,0.6
		c-0.5,0-0.9-0.1-1.3-0.3c-0.4-0.2-0.7-0.5-1-0.8v4.3H186.7z M188,67.8c0,1.1,0.2,2,0.7,2.5c0.5,0.5,1,0.8,1.7,0.8
		c0.7,0,1.2-0.3,1.7-0.8c0.5-0.6,0.7-1.4,0.7-2.6c0-1.1-0.2-2-0.7-2.5c-0.5-0.6-1-0.8-1.7-0.8c-0.6,0-1.2,0.3-1.7,0.9
		C188.3,65.8,188,66.7,188,67.8z"/>
	<path class="st0" d="M196.9,63.4h6.1v7.6h1v3.7h-1.2v-2.5h-6.9v2.5h-1.2v-3.7h0.8C196.4,69.5,196.9,67,196.9,63.4z M198.1,64.6
		c-0.1,2.9-0.6,5-1.3,6.4h4.7v-6.4H198.1z"/>
	<path class="st0" d="M205.7,63.4h1.5v3.4h1.9c1.2,0,2.2,0.2,2.9,0.7c0.7,0.5,1,1.1,1,2c0,0.7-0.3,1.4-0.8,1.9
		c-0.6,0.5-1.4,0.8-2.7,0.8h-3.7V63.4z M207.2,70.9h1.6c0.9,0,1.6-0.1,2-0.3s0.6-0.6,0.6-1.1c0-0.4-0.1-0.7-0.4-1s-1-0.4-2-0.4h-1.8
		V70.9z M214,63.4h1.5v8.8H214V63.4z"/>
	<path class="st0" d="M226,74.7h-1.2v-2.5h-1.2v-3.9h-4.1v3.9h-1.5v-8.8h1.5V67h4.1v-3.7h1.5v7.6h1V74.7z"/>
	<path class="st0" d="M2.3,83.4h6.1v7.6h1v3.7H8.2v-2.5H1.2v2.5H0v-3.7h0.8C1.8,89.5,2.3,87,2.3,83.4z M3.5,84.6
		c-0.1,2.9-0.6,5-1.3,6.4H7v-6.4H3.5z"/>
	<path class="st0" d="M17.1,89.3l1.5,0.2c-0.2,0.9-0.7,1.6-1.4,2.1s-1.5,0.7-2.5,0.7c-1.3,0-2.3-0.4-3.1-1.2
		c-0.8-0.8-1.1-1.9-1.1-3.3c0-1.5,0.4-2.6,1.1-3.5c0.8-0.8,1.8-1.2,3-1.2c1.2,0,2.1,0.4,2.9,1.2c0.7,0.8,1.1,1.9,1.1,3.4
		c0,0.1,0,0.2,0,0.4h-6.6c0.1,1,0.3,1.7,0.8,2.2s1.1,0.8,1.8,0.8c0.5,0,1-0.1,1.4-0.4C16.5,90.4,16.8,90,17.1,89.3z M12.2,86.9h4.9
		c-0.1-0.7-0.3-1.3-0.6-1.7c-0.5-0.6-1.1-0.9-1.9-0.9c-0.7,0-1.3,0.2-1.7,0.7C12.5,85.5,12.2,86.2,12.2,86.9z"/>
	<path class="st0" d="M20.5,95.6V83.4h1.4v1.1c0.3-0.4,0.7-0.8,1.1-1c0.4-0.2,0.9-0.3,1.5-0.3c0.8,0,1.4,0.2,2,0.6
		c0.6,0.4,1,0.9,1.3,1.6c0.3,0.7,0.4,1.5,0.4,2.3c0,0.9-0.2,1.7-0.5,2.4c-0.3,0.7-0.8,1.3-1.4,1.7c-0.6,0.4-1.3,0.6-1.9,0.6
		c-0.5,0-0.9-0.1-1.3-0.3c-0.4-0.2-0.7-0.5-1-0.8v4.3H20.5z M21.8,87.8c0,1.1,0.2,2,0.7,2.5c0.5,0.5,1,0.8,1.7,0.8
		c0.7,0,1.2-0.3,1.7-0.8c0.5-0.6,0.7-1.4,0.7-2.6c0-1.1-0.2-2-0.7-2.5c-0.5-0.6-1-0.8-1.7-0.8c-0.6,0-1.2,0.3-1.7,0.9
		C22.1,85.8,21.8,86.7,21.8,87.8z"/>
	<path class="st0" d="M36,89.3l1.5,0.2c-0.2,0.9-0.7,1.6-1.4,2.1s-1.5,0.7-2.5,0.7c-1.3,0-2.3-0.4-3.1-1.2c-0.8-0.8-1.1-1.9-1.1-3.3
		c0-1.5,0.4-2.6,1.1-3.5c0.8-0.8,1.8-1.2,3-1.2c1.2,0,2.1,0.4,2.9,1.2c0.7,0.8,1.1,1.9,1.1,3.4c0,0.1,0,0.2,0,0.4H31
		c0.1,1,0.3,1.7,0.8,2.2s1.1,0.8,1.8,0.8c0.5,0,1-0.1,1.4-0.4C35.4,90.4,35.8,90,36,89.3z M31.1,86.9H36c-0.1-0.7-0.3-1.3-0.6-1.7
		c-0.5-0.6-1.1-0.9-1.9-0.9c-0.7,0-1.3,0.2-1.7,0.7C31.4,85.5,31.1,86.2,31.1,86.9z"/>
	<path class="st0" d="M39.4,83.4h1.5v3.8c0.5,0,0.8-0.1,1-0.3c0.2-0.2,0.5-0.7,0.8-1.6c0.3-0.7,0.5-1.2,0.7-1.4
		c0.2-0.2,0.4-0.4,0.6-0.4c0.2-0.1,0.6-0.1,1.1-0.1h0.3v1.2l-0.4,0c-0.4,0-0.6,0.1-0.8,0.2c-0.1,0.1-0.3,0.5-0.5,1.1
		c-0.2,0.6-0.4,1-0.6,1.2c-0.2,0.2-0.5,0.4-0.9,0.6c0.6,0.2,1.3,0.8,1.9,1.8l1.6,2.7h-1.6l-1.6-2.7c-0.3-0.5-0.6-0.9-0.9-1.1
		c-0.2-0.2-0.5-0.3-0.9-0.3v4.1h-1.5V83.4z"/>
	<path class="st0" d="M46.8,83.4h1.5v3.8c0.5,0,0.8-0.1,1-0.3c0.2-0.2,0.5-0.7,0.8-1.6c0.3-0.7,0.5-1.2,0.7-1.4
		c0.2-0.2,0.4-0.4,0.6-0.4c0.2-0.1,0.6-0.1,1.1-0.1H53v1.2l-0.4,0c-0.4,0-0.6,0.1-0.8,0.2c-0.1,0.1-0.3,0.5-0.5,1.1
		c-0.2,0.6-0.4,1-0.6,1.2c-0.2,0.2-0.5,0.4-0.9,0.6c0.6,0.2,1.3,0.8,1.9,1.8l1.6,2.7h-1.6l-1.6-2.7c-0.3-0.5-0.6-0.9-0.9-1.1
		c-0.2-0.2-0.5-0.3-0.9-0.3v4.1h-1.5V83.4z"/>
	<path class="st0" d="M62,87.6c0,2.1-0.7,3.5-2,4.2c-0.6,0.4-1.4,0.5-2.1,0.5c-1.3,0-2.4-0.4-3.1-1.3c-0.7-0.8-1-1.9-1-3.3
		c0-1.6,0.5-2.8,1.4-3.6c0.8-0.7,1.7-1,2.8-1c1.3,0,2.3,0.4,3.1,1.3C61.6,85.3,62,86.3,62,87.6z M60.4,88.2h-5.2
		c0,0.9,0.3,1.5,0.7,2.1c0.5,0.6,1.1,0.9,1.9,0.9s1.4-0.3,1.9-0.9C60.2,89.7,60.4,89,60.4,88.2z M60.4,86.9
		c-0.1-0.7-0.3-1.3-0.7-1.7c-0.5-0.6-1.1-0.8-1.9-0.8c-0.7,0-1.4,0.3-1.9,0.8c-0.4,0.4-0.6,1-0.7,1.7H60.4z"/>
	<path class="st0" d="M65.7,88.2V87c0.6,0,1.1,0,1.3-0.1c0.2,0,0.4-0.2,0.7-0.4c0.2-0.2,0.3-0.5,0.3-0.8c0-0.4-0.1-0.7-0.4-1
		c-0.3-0.2-0.6-0.4-1-0.4c-0.8,0-1.4,0.5-1.8,1.5l-1.4-0.2c0.4-1.7,1.5-2.5,3.2-2.5c0.9,0,1.7,0.3,2.2,0.8c0.5,0.5,0.8,1.1,0.8,1.8
		c0,0.7-0.3,1.3-1,1.7c0.4,0.2,0.8,0.5,1,0.9c0.2,0.4,0.3,0.8,0.3,1.3c0,0.8-0.3,1.4-0.9,1.9c-0.6,0.5-1.4,0.7-2.4,0.7
		c-2,0-3.2-0.9-3.5-2.7l1.4-0.3c0.1,0.6,0.4,1,0.8,1.3c0.4,0.3,0.8,0.5,1.3,0.5s0.9-0.1,1.3-0.4c0.3-0.3,0.5-0.6,0.5-1.1
		c0-0.3-0.1-0.6-0.3-0.9c-0.2-0.3-0.4-0.4-0.7-0.5s-0.7-0.1-1.3-0.1C66,88.2,65.9,88.2,65.7,88.2z"/>
	<path class="st0" d="M71.5,81.7V80H73v1.7H71.5z M71.5,92.2v-8.8H73v8.8H71.5z"/>
</g>
</svg>
