<?xml version="1.0" encoding="utf-8"?>
<!-- Generator: Adobe Illustrator 25.2.3, SVG Export Plug-In . SVG Version: 6.00 Build 0)  -->
<svg version="1.1" id="Layer_1" xmlns="http://www.w3.org/2000/svg" xmlns:xlink="http://www.w3.org/1999/xlink" x="0px" y="0px"
	 viewBox="0 0 300 600" style="enable-background:new 0 0 300 600;" xml:space="preserve">
<style type="text/css">
	.st0{fill:url(#SVGID_1_);}
	.st1{fill:#231F20;}
	.st2{fill:#8C734B;}
</style>
<linearGradient id="SVGID_1_" gradientUnits="userSpaceOnUse" x1="150.4138" y1="535.2562" x2="150.4138" y2="601.2128" gradientTransform="matrix(-1 0 0 1 300.8276 -1.0246)">
	<stop  offset="0" style="stop-color:#FFFFFF"/>
	<stop  offset="1" style="stop-color:#C6DFEE"/>
</linearGradient>
<rect x="0.4" y="534.2" class="st0" width="300" height="66"/>
<g>
	<g>
		<path class="st1" d="M19,548.3c1.7,0,6,0.7,6,6.6s-4.4,6.6-6,6.6c-1.7,0-6-0.7-6-6.6S17.4,548.3,19,548.3z M19,559.3
			c1.4,0,3.4-0.9,3.4-4.4s-2-4.4-3.4-4.4s-3.4,0.9-3.4,4.4S17.6,559.3,19,559.3z"/>
		<path class="st1" d="M29.4,555.4l3.1-3.5h3l-3.3,3.6l3.4,5.7h-2.9l-2.2-4l-1,1.1v3h-2.4V552h2.4v3.4H29.4z"/>
		<path class="st1" d="M38.7,551.9l2,6.9l0,0l1.9-6.9h2.6l-3.2,9.2c-1.1,3-1.5,3.9-3.6,3.9c-0.3,0-0.8,0-1.1,0v-2c0.1,0,0.3,0,0.5,0
			c0.9,0,1.4-0.1,1.6-1.4l-3.4-9.7H38.7z"/>
		<path class="st1" d="M46.7,551.9h4.2c2.1,0,3.6,0.9,3.6,2.4c0,1.1-0.8,1.8-1.7,2c1,0.2,2,0.8,2,2.4c0,1.7-1.3,2.6-3.4,2.6h-4.7
			L46.7,551.9L46.7,551.9z M49.1,555.6h1.6c0.8,0,1.4-0.3,1.4-1.1c0-0.8-0.6-1-1.4-1h-1.6V555.6z M49.1,559.5h1.8
			c0.9,0,1.5-0.3,1.5-1.2c0-0.8-0.6-1.2-1.5-1.2h-1.8V559.5z"/>
		<path class="st1" d="M56.4,554.9c0.3-2.9,2.3-3.3,4.2-3.3c1.3,0,3.7,0.4,3.7,2.7v5.1c0,1.1,0.2,1.3,0.5,1.4v0.4h-2.6
			c-0.1-0.5-0.2-0.6-0.2-1.1c-0.6,0.6-1.4,1.4-3,1.4c-1.4,0-2.8-0.8-2.8-2.7c0-2.2,2-3,4.4-3.2c1-0.1,1.4-0.4,1.4-0.8
			c0-1-1-1.1-1.6-1.1c-1.2,0-1.4,0.8-1.5,1.3L56.4,554.9L56.4,554.9z M60.2,557.1c-0.9,0.2-1.7,0.4-1.7,1.4c0,0.9,0.7,1.1,1.1,1.1
			c1.1,0,2.2-0.7,2.2-1.8v-1.2C61.6,556.8,61.2,557,60.2,557.1z"/>
		<path class="st1" d="M68.9,557.8l3.5-5.9H75v9.3h-2.4v-5.9l-3.5,5.9h-2.6v-9.3h2.4V557.8z M74.1,548c-0.1,0.8-0.5,2.6-3.1,2.6
			c-2.3,0-2.7-1.9-2.8-2.6h1.2c0.1,0.5,0.3,1.2,1.7,1.2c0.8,0,1.7-0.1,1.9-1.2H74.1z"/>
		<path class="st1" d="M79.3,561.2v-7.4h-2.8v-2h8v2h-2.8v7.4H79.3z"/>
	</g>
	<g>
		<path class="st2" d="M21.3,566.4c2.2,0,5.5,1.1,5.5,4.8s-3.4,4.8-5.5,4.8v1.3h-2.5V576c-2.2,0-5.5-1.1-5.5-4.8s3.4-4.8,5.5-4.8
			v-1.2h2.5V566.4z M18.8,573.9v-5.5c-1.3,0-3,0.5-3,2.8S17.5,573.9,18.8,573.9z M21.3,568.4v5.5c1.3,0,3-0.5,3-2.7
			C24.3,568.9,22.6,568.4,21.3,568.4z"/>
		<path class="st2" d="M37.6,572.7c0,3.2-2.2,4.7-4.6,4.7c-2.4,0-4.6-1.5-4.6-4.7s2.2-4.7,4.6-4.7S37.6,569.5,37.6,572.7z
			 M30.9,572.7c0,1.1,0.3,2.7,2.2,2.7s2.2-1.6,2.2-2.7c0-1.2-0.3-2.7-2.2-2.7S30.9,571.6,30.9,572.7z"/>
		<path class="st2" d="M41.8,569.6L41.8,569.6c0.5-0.7,1.1-1.5,2.7-1.5c2,0,3.7,1.6,3.7,4.7c0,2.5-1.1,4.8-3.8,4.8
			c-1.6,0-2.2-0.9-2.5-1.4l0,0v4.8h-2.4v-12.7h2.3V569.6z M41.8,572.8c0,1.1,0.4,2.7,2,2.7c1.5,0,2.1-1.2,2.1-2.6s-0.4-2.9-2-2.9
			C42.3,570.1,41.8,571.4,41.8,572.8z"/>
		<path class="st2" d="M51.8,577.2v-7.1h-2.7v-1.9h7.7v1.9h-2.7v7.1H51.8z"/>
		<path class="st2" d="M66.1,574.6c-0.6,2.2-2.4,2.9-3.9,2.9c-2.5,0-4.5-1.2-4.5-4.9c0-1.1,0.4-4.5,4.3-4.5c2.5,0,4.2,1.4,4.2,4.5
			v0.9h-6.1c0,0.7,0.1,2.2,2.1,2.2c0.7,0,1.3-0.3,1.5-1L66.1,574.6L66.1,574.6z M63.7,571.9c-0.1-1.4-1.1-1.9-1.8-1.9
			c-1.1,0-1.7,0.7-1.8,1.9H63.7z"/>
	</g>
	<g>
		<path class="st1" d="M88.6,552.8c-1.3,0-2.5-0.9-2.5-2.4s1.2-2.4,2.5-2.4s2.4,0.9,2.4,2.4S89.9,552.8,88.6,552.8 M88.6,548.5
			c-1,0-1.8,0.7-1.8,1.9c0,1.1,0.8,1.9,1.8,1.9c0.9,0,1.7-0.8,1.7-1.9S89.5,548.5,88.6,548.5 M88.2,551.7h-0.6v-2.6h1
			c0.7,0,1.1,0.2,1.1,0.8c0,0.5-0.3,0.7-0.6,0.7l0.7,1.2h-0.7l-0.6-1.1h-0.3L88.2,551.7L88.2,551.7z M88.2,550.1h0.5
			c0.3,0,0.4,0,0.4-0.3c0-0.3-0.3-0.3-0.5-0.3h-0.4V550.1z"/>
	</g>
</g>
</svg>
