<?xml version="1.0" encoding="utf-8"?>
<!-- Generator: Adobe Illustrator 25.2.3, SVG Export Plug-In . SVG Version: 6.00 Build 0)  -->
<svg version="1.1" id="Layer_1" xmlns="http://www.w3.org/2000/svg" xmlns:xlink="http://www.w3.org/1999/xlink" x="0px" y="0px"
	 viewBox="0 0 257.2 175" style="enable-background:new 0 0 257.2 175;" xml:space="preserve">
<style type="text/css">
	.st0{fill:#147BB8;}
</style>
<g>
	<path class="st0" d="M8.2,7.4l2.2,0.7c-0.3,1.2-0.9,2.2-1.7,2.8c-0.8,0.6-1.8,0.9-3,0.9c-1.5,0-2.8-0.5-3.8-1.6S0.5,7.8,0.5,6
		c0-1.9,0.5-3.4,1.5-4.4S4.2,0,5.8,0c1.4,0,2.5,0.4,3.4,1.2c0.5,0.5,0.9,1.2,1.2,2.1L8.1,3.9C8,3.3,7.7,2.8,7.3,2.5S6.3,2,5.7,2
		C4.9,2,4.2,2.3,3.6,2.9s-0.8,1.6-0.8,3c0,1.4,0.3,2.5,0.8,3.1c0.5,0.6,1.2,0.9,2,0.9c0.6,0,1.1-0.2,1.6-0.6S8,8.3,8.2,7.4z"/>
	<path class="st0" d="M11.3,7.4c0-0.7,0.2-1.4,0.5-2.1c0.4-0.7,0.9-1.2,1.5-1.6c0.7-0.4,1.4-0.5,2.2-0.5c1.3,0,2.3,0.4,3.1,1.2
		c0.8,0.8,1.2,1.8,1.2,3.1c0,1.3-0.4,2.3-1.2,3.1c-0.8,0.8-1.8,1.2-3.1,1.2c-0.8,0-1.5-0.2-2.2-0.5c-0.7-0.3-1.2-0.8-1.6-1.5
		S11.3,8.3,11.3,7.4z M13.6,7.5c0,0.8,0.2,1.5,0.6,1.9S15,10,15.6,10c0.6,0,1.1-0.2,1.4-0.7c0.4-0.4,0.6-1.1,0.6-1.9
		c0-0.8-0.2-1.4-0.6-1.9C16.7,5.2,16.2,5,15.6,5c-0.6,0-1.1,0.2-1.4,0.7S13.6,6.7,13.6,7.5z"/>
	<path class="st0" d="M28.1,5.8l-2.2,0.4c-0.1-0.4-0.2-0.8-0.5-1s-0.6-0.3-1-0.3c-0.5,0-1,0.2-1.3,0.6c-0.3,0.4-0.5,1-0.5,1.9
		c0,1,0.2,1.7,0.5,2.1s0.8,0.6,1.3,0.6c0.4,0,0.8-0.1,1-0.4C25.7,9.5,25.9,9,26,8.5l2.2,0.4c-0.2,1-0.7,1.7-1.3,2.2
		c-0.6,0.5-1.5,0.8-2.6,0.8c-1.2,0-2.2-0.4-2.9-1.1s-1.1-1.8-1.1-3.2c0-1.4,0.4-2.4,1.1-3.2c0.7-0.8,1.7-1.1,2.9-1.1
		c1,0,1.8,0.2,2.4,0.7C27.4,4.3,27.8,4.9,28.1,5.8z"/>
	<path class="st0" d="M28.2,3.4h7.5v1.8h-2.7v6.5h-2.2V5.1h-2.7V3.4z"/>
	<path class="st0" d="M38.1,5.9l-2-0.4c0.2-0.8,0.6-1.4,1.2-1.8c0.5-0.4,1.4-0.6,2.4-0.6c1,0,1.7,0.1,2.2,0.3c0.5,0.2,0.8,0.5,1,0.9
		c0.2,0.4,0.3,1,0.3,2l0,2.6c0,0.7,0,1.3,0.1,1.6c0.1,0.3,0.2,0.7,0.4,1.1h-2.2c-0.1-0.1-0.1-0.4-0.2-0.6c0-0.1-0.1-0.2-0.1-0.3
		c-0.4,0.4-0.8,0.6-1.2,0.8s-0.9,0.3-1.4,0.3c-0.9,0-1.5-0.2-2-0.7c-0.5-0.5-0.7-1-0.7-1.8c0-0.5,0.1-0.9,0.3-1.3s0.5-0.6,0.9-0.8
		s1-0.4,1.7-0.5c1-0.2,1.7-0.4,2.1-0.5V6c0-0.4-0.1-0.7-0.3-0.9s-0.6-0.3-1.2-0.3c-0.4,0-0.7,0.1-0.9,0.2
		C38.4,5.2,38.2,5.5,38.1,5.9z M41,7.7c-0.3,0.1-0.7,0.2-1.3,0.3c-0.6,0.1-1,0.3-1.2,0.4c-0.3,0.2-0.4,0.5-0.4,0.8
		c0,0.3,0.1,0.6,0.3,0.8c0.2,0.2,0.5,0.3,0.9,0.3c0.4,0,0.8-0.1,1.1-0.4c0.3-0.2,0.4-0.4,0.5-0.7C41,9,41,8.6,41,8.1V7.7z"/>
	<path class="st0" d="M44.8,3.4h4.8c1,0,1.7,0.2,2.2,0.5s0.7,0.9,0.7,1.6c0,0.5-0.1,0.9-0.4,1.2s-0.6,0.6-1,0.7
		c0.6,0.1,1,0.4,1.3,0.8c0.3,0.4,0.4,0.8,0.4,1.3c0,0.6-0.2,1.2-0.7,1.6c-0.5,0.4-1.2,0.6-2.1,0.6h-5.2V3.4z M47,6.8h1.4
		c0.7,0,1.2-0.1,1.5-0.3s0.5-0.4,0.5-0.8c0-0.3-0.1-0.6-0.4-0.7s-0.8-0.2-1.5-0.2H47V6.8z M47,10.2h1.7c0.6,0,1.1-0.1,1.4-0.2
		c0.3-0.2,0.4-0.4,0.4-0.8c0-0.4-0.2-0.7-0.5-0.8c-0.3-0.2-1-0.2-1.9-0.2H47V10.2z"/>
	<path class="st0" d="M54.5,5.5V3.4h2.2v2.2H54.5z M54.5,11.6V9.5h2.2v2.2H54.5z"/>
	<path class="st0" d="M63.3,3.4h6.5v8.3h-1.4V4.5h-3.7v4.1c0,1,0,1.6-0.1,1.9c-0.1,0.3-0.2,0.6-0.5,0.8c-0.3,0.2-0.7,0.3-1.2,0.3
		c-0.3,0-0.7,0-1.1-0.1v-1.2h0.6c0.3,0,0.5,0,0.6-0.1c0.1-0.1,0.2-0.2,0.2-0.3c0-0.1,0.1-0.6,0.1-1.3V3.4z"/>
	<path class="st0" d="M71.4,3.4h1.4v3.5h1.7c0.1-1.2,0.5-2.1,1.1-2.7s1.4-0.9,2.4-0.9c0.8,0,1.5,0.2,2,0.5c0.5,0.3,0.9,0.8,1.2,1.4
		s0.5,1.4,0.5,2.4c0,1.4-0.3,2.5-1,3.3c-0.7,0.7-1.5,1.1-2.6,1.1c-1,0-1.9-0.3-2.5-1s-1-1.6-1.1-2.8h-1.7v3.7h-1.4V3.4z M78.1,4.4
		c-0.7,0-1.2,0.3-1.6,0.8C76.1,5.7,76,6.4,76,7.4c0,1.1,0.2,2,0.6,2.5s0.9,0.8,1.5,0.8c0.6,0,1.2-0.2,1.6-0.7s0.6-1.3,0.6-2.4
		c0-1.1-0.2-1.9-0.5-2.4C79.4,4.6,78.8,4.4,78.1,4.4z"/>
	<path class="st0" d="M81.7,3.4h6.7v1.2h-2.7v7.1h-1.4V4.5h-2.7V3.4z"/>
	<path class="st0" d="M94.8,9l1.5,0.2c-0.2,0.8-0.7,1.5-1.3,2s-1.4,0.7-2.4,0.7c-1.2,0-2.2-0.4-2.9-1.1C89,10,88.6,8.9,88.6,7.6
		c0-1.4,0.4-2.5,1.1-3.2c0.7-0.8,1.7-1.2,2.8-1.2c1.1,0,2,0.4,2.7,1.1c0.7,0.8,1.1,1.8,1.1,3.2c0,0.1,0,0.2,0,0.4h-6.2
		c0.1,0.9,0.3,1.6,0.8,2.1s1,0.7,1.7,0.7c0.5,0,1-0.1,1.3-0.4C94.3,10,94.6,9.6,94.8,9z M90.2,6.7h4.6c-0.1-0.7-0.2-1.2-0.5-1.6
		c-0.4-0.5-1-0.8-1.7-0.8c-0.6,0-1.2,0.2-1.6,0.6C90.4,5.4,90.2,6,90.2,6.7z"/>
	<path class="st0" d="M97.4,3.4h1.4v6.3l3.9-6.3h1.5v8.3h-1.4V5.4l-3.9,6.3h-1.5V3.4z"/>
	<path class="st0" d="M105.8,3.4h1.4v3.5h3.9V3.4h1.4v8.3h-1.4V8h-3.9v3.7h-1.4V3.4z"/>
	<path class="st0" d="M114.4,11.6V10h1.6v1.6c0,0.6-0.1,1.1-0.3,1.4c-0.2,0.4-0.5,0.6-1,0.8l-0.4-0.6c0.3-0.1,0.5-0.3,0.7-0.6
		c0.1-0.3,0.2-0.6,0.2-1.1H114.4z"/>
	<path class="st0" d="M123.7,7.9V6.8c0.6,0,1,0,1.2-0.1c0.2,0,0.4-0.2,0.6-0.4c0.2-0.2,0.3-0.5,0.3-0.8c0-0.4-0.1-0.7-0.4-0.9
		s-0.6-0.3-1-0.3c-0.8,0-1.3,0.5-1.7,1.4l-1.3-0.2c0.4-1.6,1.4-2.3,3-2.3c0.9,0,1.6,0.2,2.1,0.7s0.8,1.1,0.8,1.7
		c0,0.7-0.3,1.2-1,1.6c0.4,0.2,0.7,0.5,0.9,0.9c0.2,0.3,0.3,0.8,0.3,1.2c0,0.7-0.3,1.3-0.8,1.8c-0.5,0.5-1.3,0.7-2.3,0.7
		c-1.9,0-3-0.8-3.3-2.5l1.3-0.3c0.1,0.5,0.4,0.9,0.7,1.2c0.4,0.3,0.8,0.4,1.3,0.4s0.9-0.1,1.2-0.4c0.3-0.3,0.5-0.6,0.5-1
		c0-0.3-0.1-0.6-0.3-0.8c-0.2-0.2-0.4-0.4-0.6-0.4c-0.2-0.1-0.6-0.1-1.2-0.1C124,7.9,123.9,7.9,123.7,7.9z"/>
	<path class="st0" d="M134.1,9l1.5,0.2c-0.2,0.8-0.7,1.5-1.3,2c-0.6,0.5-1.4,0.7-2.4,0.7c-1.2,0-2.2-0.4-2.9-1.1
		c-0.7-0.7-1.1-1.8-1.1-3.1c0-1.4,0.4-2.5,1.1-3.2c0.7-0.8,1.7-1.2,2.8-1.2c1.1,0,2,0.4,2.7,1.1c0.7,0.8,1.1,1.8,1.1,3.2
		c0,0.1,0,0.2,0,0.4h-6.2c0.1,0.9,0.3,1.6,0.8,2.1c0.5,0.5,1,0.7,1.7,0.7c0.5,0,1-0.1,1.3-0.4C133.6,10,133.9,9.6,134.1,9z
		 M129.5,6.7h4.6c-0.1-0.7-0.2-1.2-0.5-1.6c-0.4-0.5-1-0.8-1.7-0.8c-0.6,0-1.2,0.2-1.6,0.6C129.8,5.4,129.6,6,129.5,6.7z"/>
	<path class="st0" d="M142.2,10.6c-0.5,0.4-1,0.8-1.5,0.9s-1,0.3-1.6,0.3c-0.9,0-1.6-0.2-2.1-0.7s-0.7-1-0.7-1.7
		c0-0.4,0.1-0.8,0.3-1.1s0.4-0.6,0.7-0.8s0.6-0.4,1-0.5c0.3-0.1,0.7-0.1,1.2-0.2c1.1-0.1,2-0.3,2.5-0.5c0-0.2,0-0.3,0-0.4
		c0-0.6-0.1-1-0.4-1.2c-0.4-0.3-0.9-0.5-1.6-0.5c-0.7,0-1.1,0.1-1.5,0.3c-0.3,0.2-0.5,0.6-0.7,1.2l-1.4-0.2c0.1-0.6,0.3-1.1,0.6-1.4
		c0.3-0.4,0.7-0.6,1.2-0.8s1.2-0.3,1.9-0.3c0.7,0,1.3,0.1,1.7,0.2c0.4,0.2,0.8,0.4,1,0.6c0.2,0.3,0.4,0.6,0.4,1
		c0,0.2,0.1,0.7,0.1,1.3v1.9c0,1.3,0,2.1,0.1,2.5c0.1,0.3,0.2,0.7,0.4,1h-1.5C142.3,11.4,142.2,11,142.2,10.6z M142.1,7.5
		c-0.5,0.2-1.3,0.4-2.3,0.5c-0.6,0.1-1,0.2-1.2,0.3c-0.2,0.1-0.4,0.3-0.6,0.5c-0.1,0.2-0.2,0.4-0.2,0.7c0,0.4,0.1,0.7,0.4,0.9
		s0.7,0.4,1.2,0.4c0.5,0,1-0.1,1.4-0.4c0.4-0.2,0.7-0.6,0.9-1c0.2-0.3,0.2-0.8,0.2-1.4V7.5z"/>
	<path class="st0" d="M145.1,3.4h1.4v3.6c0.4,0,0.8-0.1,0.9-0.3s0.4-0.7,0.8-1.5c0.3-0.7,0.5-1.1,0.7-1.3c0.2-0.2,0.4-0.3,0.6-0.4
		c0.2-0.1,0.6-0.1,1.1-0.1h0.3v1.2l-0.4,0c-0.4,0-0.6,0.1-0.7,0.2c-0.1,0.1-0.3,0.5-0.5,1c-0.2,0.5-0.4,0.9-0.6,1.1
		c-0.2,0.2-0.5,0.4-0.8,0.6c0.6,0.2,1.2,0.7,1.8,1.7l1.5,2.6h-1.5l-1.5-2.6c-0.3-0.5-0.6-0.9-0.8-1s-0.5-0.2-0.8-0.2v3.8h-1.4V3.4z"
		/>
	<path class="st0" d="M157.2,8.6l1.4,0.2c-0.2,1-0.5,1.7-1.2,2.2s-1.4,0.8-2.3,0.8c-1.1,0-2-0.4-2.7-1.1s-1-1.8-1-3.2
		c0-0.9,0.1-1.7,0.4-2.4s0.7-1.2,1.4-1.5s1.3-0.5,2-0.5c0.9,0,1.6,0.2,2.2,0.7c0.6,0.5,0.9,1.1,1.1,1.9L157,6
		c-0.1-0.6-0.4-1-0.7-1.3s-0.7-0.4-1.2-0.4c-0.7,0-1.3,0.3-1.7,0.8s-0.7,1.3-0.7,2.4c0,1.1,0.2,1.9,0.6,2.4c0.4,0.5,1,0.8,1.7,0.8
		c0.6,0,1-0.2,1.4-0.5C156.8,9.8,157.1,9.3,157.2,8.6z"/>
	<path class="st0" d="M164.6,10.6c-0.5,0.4-1,0.8-1.5,0.9s-1,0.3-1.6,0.3c-0.9,0-1.6-0.2-2.1-0.7s-0.7-1-0.7-1.7
		c0-0.4,0.1-0.8,0.3-1.1s0.4-0.6,0.7-0.8s0.6-0.4,1-0.5c0.3-0.1,0.7-0.1,1.2-0.2c1.1-0.1,2-0.3,2.5-0.5c0-0.2,0-0.3,0-0.4
		c0-0.6-0.1-1-0.4-1.2c-0.4-0.3-0.9-0.5-1.6-0.5c-0.7,0-1.1,0.1-1.5,0.3c-0.3,0.2-0.5,0.6-0.7,1.2L159,5.7c0.1-0.6,0.3-1.1,0.6-1.4
		c0.3-0.4,0.7-0.6,1.2-0.8s1.2-0.3,1.9-0.3c0.7,0,1.3,0.1,1.7,0.2c0.4,0.2,0.8,0.4,1,0.6c0.2,0.3,0.4,0.6,0.4,1
		c0,0.2,0.1,0.7,0.1,1.3v1.9c0,1.3,0,2.1,0.1,2.5c0.1,0.3,0.2,0.7,0.4,1h-1.5C164.7,11.4,164.6,11,164.6,10.6z M164.5,7.5
		c-0.5,0.2-1.3,0.4-2.3,0.5c-0.6,0.1-1,0.2-1.2,0.3c-0.2,0.1-0.4,0.3-0.6,0.5c-0.1,0.2-0.2,0.4-0.2,0.7c0,0.4,0.1,0.7,0.4,0.9
		s0.7,0.4,1.2,0.4c0.5,0,1-0.1,1.4-0.4c0.4-0.2,0.7-0.6,0.9-1c0.2-0.3,0.2-0.8,0.2-1.4V7.5z"/>
	<path class="st0" d="M167.5,3.4h1.4v3.5h3.9V3.4h1.4v8.3h-1.4V8h-3.9v3.7h-1.4V3.4z"/>
	<path class="st0" d="M175,3.4h6.7v1.2h-2.7v7.1h-1.4V4.5H175V3.4z"/>
	<path class="st0" d="M182.6,3.4h1.4v6.3l3.9-6.3h1.5v8.3H188V5.4l-3.9,6.3h-1.5V3.4z"/>
	<path class="st0" d="M191,3.4h1.4v3.5h3.9V3.4h1.4v8.3h-1.4V8h-3.9v3.7H191V3.4z"/>
	<path class="st0" d="M199.6,11.6V10h1.6v1.6c0,0.6-0.1,1.1-0.3,1.4c-0.2,0.4-0.5,0.6-1,0.8l-0.4-0.6c0.3-0.1,0.5-0.3,0.7-0.6
		c0.1-0.3,0.2-0.6,0.2-1.1H199.6z"/>
	<path class="st0" d="M0,23.4h6.7v1.2H4.1v7.1H2.7v-7.1H0V23.4z"/>
	<path class="st0" d="M7.5,34.8V23.4h1.3v1.1c0.3-0.4,0.6-0.7,1-0.9c0.4-0.2,0.8-0.3,1.4-0.3c0.7,0,1.3,0.2,1.9,0.5
		c0.5,0.4,1,0.9,1.2,1.5c0.3,0.7,0.4,1.4,0.4,2.2c0,0.8-0.2,1.6-0.5,2.3s-0.7,1.2-1.3,1.6c-0.6,0.4-1.2,0.5-1.8,0.5
		c-0.5,0-0.9-0.1-1.3-0.3c-0.4-0.2-0.7-0.4-0.9-0.8v4H7.5z M8.8,27.5c0,1.1,0.2,1.9,0.6,2.4c0.4,0.5,1,0.8,1.6,0.8
		c0.6,0,1.2-0.3,1.6-0.8c0.4-0.5,0.7-1.3,0.7-2.5c0-1.1-0.2-1.8-0.7-2.4c-0.4-0.5-1-0.8-1.6-0.8c-0.6,0-1.1,0.3-1.6,0.8
		C9,25.7,8.8,26.5,8.8,27.5z"/>
	<path class="st0" d="M15.3,27.5c0-1.5,0.4-2.7,1.3-3.4c0.7-0.6,1.6-0.9,2.6-0.9c1.1,0,2.1,0.4,2.8,1.1c0.7,0.7,1.1,1.8,1.1,3.1
		c0,1.1-0.2,1.9-0.5,2.5c-0.3,0.6-0.8,1.1-1.4,1.4s-1.3,0.5-2,0.5c-1.2,0-2.1-0.4-2.8-1.1C15.7,30,15.3,28.9,15.3,27.5z M16.8,27.5
		c0,1.1,0.2,1.9,0.7,2.4c0.5,0.5,1,0.8,1.8,0.8c0.7,0,1.3-0.3,1.7-0.8s0.7-1.3,0.7-2.4c0-1-0.2-1.8-0.7-2.3c-0.5-0.5-1-0.8-1.7-0.8
		c-0.7,0-1.3,0.3-1.8,0.8C17,25.6,16.8,26.4,16.8,27.5z"/>
	<path class="st0" d="M24.2,23.4h1.4v3.6c0.4,0,0.8-0.1,0.9-0.3s0.4-0.7,0.8-1.5c0.3-0.7,0.5-1.1,0.7-1.3c0.2-0.2,0.4-0.3,0.6-0.4
		c0.2-0.1,0.6-0.1,1.1-0.1H30v1.2l-0.4,0c-0.4,0-0.6,0.1-0.7,0.2c-0.1,0.1-0.3,0.5-0.5,1c-0.2,0.5-0.4,0.9-0.6,1.1
		c-0.2,0.2-0.5,0.4-0.8,0.6c0.6,0.2,1.2,0.7,1.8,1.7l1.5,2.6h-1.5l-1.5-2.6c-0.3-0.5-0.6-0.9-0.8-1c-0.2-0.2-0.5-0.2-0.8-0.2v3.8
		h-1.4V23.4z"/>
	<path class="st0" d="M36.2,28.6l1.4,0.2c-0.2,1-0.5,1.7-1.2,2.2s-1.4,0.8-2.3,0.8c-1.1,0-2-0.4-2.7-1.1s-1-1.8-1-3.2
		c0-0.9,0.1-1.7,0.4-2.4s0.7-1.2,1.4-1.5s1.3-0.5,2-0.5c0.9,0,1.6,0.2,2.2,0.7c0.6,0.5,0.9,1.1,1.1,1.9L36.1,26
		c-0.1-0.6-0.4-1-0.7-1.3s-0.7-0.4-1.2-0.4c-0.7,0-1.3,0.3-1.7,0.8s-0.7,1.3-0.7,2.4c0,1.1,0.2,1.9,0.6,2.4c0.4,0.5,1,0.8,1.7,0.8
		c0.6,0,1-0.2,1.4-0.5C35.9,29.8,36.1,29.3,36.2,28.6z"/>
	<path class="st0" d="M43.9,29l1.5,0.2c-0.2,0.8-0.7,1.5-1.3,2s-1.4,0.7-2.4,0.7c-1.2,0-2.2-0.4-2.9-1.1c-0.7-0.7-1.1-1.8-1.1-3.1
		c0-1.4,0.4-2.5,1.1-3.2c0.7-0.8,1.7-1.2,2.8-1.2c1.1,0,2,0.4,2.7,1.1c0.7,0.8,1.1,1.8,1.1,3.2c0,0.1,0,0.2,0,0.4h-6.2
		c0.1,0.9,0.3,1.6,0.8,2.1s1,0.7,1.7,0.7c0.5,0,1-0.1,1.3-0.4C43.4,30,43.7,29.6,43.9,29z M39.3,26.7H44c-0.1-0.7-0.2-1.2-0.5-1.6
		c-0.4-0.5-1-0.8-1.7-0.8c-0.6,0-1.2,0.2-1.6,0.6C39.6,25.4,39.4,26,39.3,26.7z"/>
	<path class="st0" d="M46.6,34.8V23.4h1.3v1.1c0.3-0.4,0.6-0.7,1-0.9c0.4-0.2,0.8-0.3,1.4-0.3c0.7,0,1.3,0.2,1.9,0.5
		c0.5,0.4,1,0.9,1.2,1.5c0.3,0.7,0.4,1.4,0.4,2.2c0,0.8-0.2,1.6-0.5,2.3s-0.7,1.2-1.3,1.6c-0.6,0.4-1.2,0.5-1.8,0.5
		c-0.5,0-0.9-0.1-1.3-0.3c-0.4-0.2-0.7-0.4-0.9-0.8v4H46.6z M47.9,27.5c0,1.1,0.2,1.9,0.6,2.4c0.4,0.5,1,0.8,1.6,0.8
		c0.6,0,1.2-0.3,1.6-0.8c0.4-0.5,0.7-1.3,0.7-2.5c0-1.1-0.2-1.8-0.7-2.4c-0.4-0.5-1-0.8-1.6-0.8c-0.6,0-1.1,0.3-1.6,0.8
		C48.1,25.7,47.9,26.5,47.9,27.5z"/>
	<path class="st0" d="M54.7,34.8l-0.2-1.3c0.3,0.1,0.6,0.1,0.8,0.1c0.3,0,0.6-0.1,0.8-0.2c0.2-0.1,0.3-0.2,0.5-0.4
		c0.1-0.1,0.2-0.5,0.4-1c0-0.1,0.1-0.2,0.1-0.3L54,23.4h1.5l1.7,4.8c0.2,0.6,0.4,1.2,0.6,1.9c0.2-0.6,0.4-1.3,0.6-1.9l1.8-4.8h1.4
		l-3.2,8.4c-0.3,0.9-0.6,1.5-0.8,1.9c-0.2,0.5-0.5,0.8-0.9,1c-0.3,0.2-0.7,0.3-1.2,0.3C55.3,35,55,35,54.7,34.8z"/>
	<path class="st0" d="M61.4,23.4h6.7v1.2h-2.7v7.1h-1.4v-7.1h-2.7V23.4z"/>
	<path class="st0" d="M69,23.4h1.4v6.3l3.9-6.3h1.5v8.3h-1.4v-6.3l-3.9,6.3H69V23.4z"/>
	<path class="st0" d="M77.4,23.4h1.4v3.5h3.9v-3.5h1.4v8.3h-1.4V28h-3.9v3.7h-1.4V23.4z"/>
	<path class="st0" d="M86,31.6V30h1.6v1.6c0,0.6-0.1,1.1-0.3,1.4c-0.2,0.4-0.5,0.6-1,0.8l-0.4-0.6c0.3-0.1,0.5-0.3,0.7-0.6
		c0.1-0.3,0.2-0.6,0.2-1.1H86z"/>
	<path class="st0" d="M93.4,34.8V23.4h1.3v1.1c0.3-0.4,0.6-0.7,1-0.9c0.4-0.2,0.8-0.3,1.4-0.3c0.7,0,1.3,0.2,1.9,0.5
		c0.5,0.4,1,0.9,1.2,1.5c0.3,0.7,0.4,1.4,0.4,2.2c0,0.8-0.2,1.6-0.5,2.3s-0.7,1.2-1.3,1.6c-0.6,0.4-1.2,0.5-1.8,0.5
		c-0.5,0-0.9-0.1-1.3-0.3c-0.4-0.2-0.7-0.4-0.9-0.8v4H93.4z M94.7,27.5c0,1.1,0.2,1.9,0.6,2.4c0.4,0.5,1,0.8,1.6,0.8
		c0.6,0,1.2-0.3,1.6-0.8c0.4-0.5,0.7-1.3,0.7-2.5c0-1.1-0.2-1.8-0.7-2.4c-0.4-0.5-1-0.8-1.6-0.8c-0.6,0-1.1,0.3-1.6,0.8
		C94.9,25.7,94.7,26.5,94.7,27.5z"/>
	<path class="st0" d="M101.8,23.4h1.4v3.2h1.8c1.2,0,2.1,0.2,2.7,0.7c0.6,0.5,0.9,1.1,0.9,1.9c0,0.7-0.3,1.3-0.8,1.8
		s-1.4,0.7-2.5,0.7h-3.5V23.4z M103.2,30.5h1.5c0.9,0,1.5-0.1,1.9-0.3s0.6-0.6,0.6-1c0-0.4-0.1-0.7-0.4-1s-0.9-0.4-1.9-0.4h-1.7
		V30.5z M109.6,23.4h1.4v8.3h-1.4V23.4z"/>
	<path class="st0" d="M118.7,19.9l1.2,0c-0.1,0.6-0.2,0.9-0.4,1.2c-0.2,0.2-0.4,0.4-0.7,0.4c-0.3,0.1-0.9,0.1-1.8,0.1
		c-1.2,0-2,0.1-2.4,0.3c-0.4,0.2-0.7,0.6-0.9,1.1c-0.2,0.5-0.3,1.1-0.3,1.9c0.4-0.5,0.8-0.9,1.2-1.2c0.5-0.3,1-0.4,1.6-0.4
		c1.1,0,2,0.4,2.7,1.1c0.7,0.7,1.1,1.8,1.1,3c0,1-0.2,1.8-0.5,2.4c-0.4,0.6-0.8,1.1-1.3,1.4s-1.2,0.5-2,0.5c-1,0-1.8-0.2-2.3-0.7
		c-0.5-0.5-1-1-1.3-1.7c-0.3-0.7-0.4-1.9-0.4-3.7c0-2.2,0.4-3.7,1.1-4.4c0.7-0.8,1.9-1.1,3.4-1.1c1,0,1.5,0,1.6,0
		C118.6,20.1,118.7,20,118.7,19.9z M118.7,27.5c0-0.9-0.2-1.6-0.6-2.1c-0.4-0.6-1-0.8-1.7-0.8c-0.8,0-1.4,0.3-1.8,0.9
		c-0.4,0.6-0.6,1.4-0.6,2.3c0,1,0.2,1.7,0.7,2.2c0.5,0.5,1,0.8,1.7,0.8c0.7,0,1.3-0.3,1.7-0.9C118.5,29.2,118.7,28.4,118.7,27.5z"/>
	<path class="st0" d="M121.3,23.4h1.4v6.3l3.9-6.3h1.5v8.3h-1.4v-6.3l-3.9,6.3h-1.5V23.4z"/>
	<path class="st0" d="M129.7,23.4h1.4v6.3l3.9-6.3h1.5v8.3h-1.4v-6.3l-3.9,6.3h-1.5V23.4z M134.5,20.2h1c-0.1,0.7-0.3,1.2-0.7,1.5
		c-0.4,0.3-0.9,0.5-1.6,0.5c-0.7,0-1.2-0.2-1.6-0.5c-0.4-0.3-0.6-0.8-0.7-1.5h1c0.1,0.4,0.2,0.6,0.4,0.8c0.2,0.2,0.5,0.3,0.9,0.3
		c0.4,0,0.7-0.1,1-0.3C134.3,20.8,134.5,20.6,134.5,20.2z"/>
	<path class="st0" d="M146.9,23.4v3.6c0.4,0,0.8-0.1,0.9-0.3s0.4-0.7,0.8-1.5c0.3-0.8,0.6-1.3,0.9-1.5c0.3-0.2,0.7-0.3,1.2-0.3h0.5
		v1.2l-0.4,0c-0.4,0-0.6,0.1-0.7,0.2c-0.1,0.1-0.3,0.5-0.5,1c-0.2,0.5-0.4,0.9-0.6,1.1c-0.2,0.2-0.5,0.4-0.8,0.6
		c0.6,0.2,1.2,0.7,1.8,1.7l1.5,2.6h-1.5l-1.5-2.6c-0.3-0.5-0.6-0.9-0.8-1c-0.2-0.2-0.5-0.2-0.8-0.2v3.8h-1.4v-3.8
		c-0.3,0-0.6,0.1-0.8,0.2c-0.2,0.2-0.5,0.5-0.8,1l-1.5,2.6h-1.5l1.5-2.6c0.6-1,1.2-1.5,1.8-1.7c-0.4-0.2-0.7-0.4-0.9-0.6
		s-0.4-0.8-0.8-1.6c-0.1-0.3-0.2-0.5-0.4-0.5c-0.1-0.1-0.3-0.1-0.6-0.1c-0.1,0-0.2,0-0.4,0v-1.2h0.2c0.5,0,0.9,0,1.1,0.1
		c0.2,0.1,0.4,0.2,0.6,0.4s0.4,0.6,0.7,1.3c0.3,0.8,0.6,1.3,0.8,1.5c0.2,0.2,0.5,0.3,0.9,0.3v-3.6H146.9z"/>
	<path class="st0" d="M152.1,23.4h1.4v6.3l3.9-6.3h1.5v8.3h-1.4v-6.3l-3.9,6.3h-1.5V23.4z"/>
	<path class="st0" d="M160.4,34.8V23.4h1.3v1.1c0.3-0.4,0.6-0.7,1-0.9s0.8-0.3,1.4-0.3c0.7,0,1.3,0.2,1.9,0.5c0.5,0.4,1,0.9,1.2,1.5
		s0.4,1.4,0.4,2.2c0,0.8-0.2,1.6-0.5,2.3s-0.7,1.2-1.3,1.6s-1.2,0.5-1.8,0.5c-0.5,0-0.9-0.1-1.3-0.3s-0.7-0.4-0.9-0.8v4H160.4z
		 M161.7,27.5c0,1.1,0.2,1.9,0.6,2.4c0.4,0.5,1,0.8,1.6,0.8c0.6,0,1.2-0.3,1.6-0.8c0.4-0.5,0.7-1.3,0.7-2.5c0-1.1-0.2-1.8-0.7-2.4
		c-0.4-0.5-1-0.8-1.6-0.8c-0.6,0-1.1,0.3-1.6,0.8C161.9,25.7,161.7,26.5,161.7,27.5z"/>
	<path class="st0" d="M169.1,31.6V30h1.6v1.6c0,0.6-0.1,1.1-0.3,1.4c-0.2,0.4-0.5,0.6-1,0.8l-0.4-0.6c0.3-0.1,0.5-0.3,0.7-0.6
		c0.1-0.3,0.2-0.6,0.2-1.1H169.1z"/>
	<path class="st0" d="M176.6,23.4h3.2c0.8,0,1.4,0.1,1.8,0.2s0.7,0.4,1,0.7c0.3,0.4,0.4,0.8,0.4,1.3c0,0.4-0.1,0.7-0.2,1
		c-0.2,0.3-0.4,0.5-0.7,0.7c0.4,0.1,0.7,0.4,1,0.7c0.3,0.4,0.4,0.8,0.4,1.3c-0.1,0.8-0.3,1.4-0.8,1.8c-0.5,0.4-1.3,0.6-2.2,0.6h-3.7
		V23.4z M178,26.8h1.5c0.6,0,1,0,1.2-0.1s0.4-0.2,0.6-0.4c0.2-0.2,0.3-0.4,0.3-0.7c0-0.4-0.2-0.7-0.5-0.9s-0.8-0.3-1.6-0.3H178V26.8
		z M178,30.5h1.9c0.8,0,1.3-0.1,1.6-0.3c0.3-0.2,0.5-0.5,0.5-1c0-0.3-0.1-0.5-0.3-0.7s-0.4-0.4-0.7-0.4c-0.3-0.1-0.7-0.1-1.3-0.1
		H178V30.5z"/>
	<path class="st0" d="M187.6,23.4h6.7v1.2h-2.7v7.1h-1.4v-7.1h-2.7V23.4z"/>
	<path class="st0" d="M193.8,31.6V30h1.6v1.6H193.8z"/>
	<path class="st0" d="M196.7,23.4h1.4v1.6c0,0.7,0,1.2,0.1,1.5s0.3,0.6,0.6,0.8s0.7,0.3,1.2,0.3c0.5,0,1.2-0.1,2.1-0.4v-3.8h1.4v8.3
		h-1.4v-3.3c-0.9,0.3-1.7,0.4-2.4,0.4c-0.6,0-1.2-0.2-1.7-0.5s-0.8-0.7-1-1.2c-0.2-0.5-0.3-1-0.3-1.5V23.4z"/>
	<path class="st0" d="M205.4,31.6V30h1.6v1.6H205.4z"/>
	<path class="st0" d="M213,20.2h9v11.5h-1.5V21.5h-6v10.1H213V20.2z"/>
	<path class="st0" d="M224,31.6V20.2h1.5v4.7h6v-4.7h1.5v11.5h-1.5v-5.4h-6v5.4H224z"/>
	<path class="st0" d="M241.8,20.2v5c0.7,0,1.3-0.1,1.5-0.4s0.6-0.9,1.1-1.9c0.3-0.8,0.6-1.3,0.8-1.6c0.2-0.3,0.5-0.6,0.9-0.8
		s0.8-0.3,1.2-0.3c0.5,0,0.8,0,0.9,0v1.3c0,0-0.1,0-0.3,0c-0.2,0-0.3,0-0.3,0c-0.5,0-0.8,0.1-1.1,0.4c-0.2,0.2-0.5,0.7-0.8,1.5
		c-0.3,0.8-0.6,1.4-0.9,1.7c-0.2,0.3-0.6,0.5-1.1,0.7c0.8,0.2,1.5,0.9,2.2,2l2.4,3.8h-1.9l-1.9-3.1c-0.5-0.8-0.9-1.4-1.3-1.7
		c-0.3-0.3-0.8-0.5-1.5-0.5v5.4h-1.6v-5.4c-0.5,0-0.9,0.1-1.3,0.4c-0.4,0.3-0.8,0.8-1.3,1.7l-0.1,0.2l-1.9,3.1h-1.9l2.4-3.8
		c0.7-1.2,1.4-1.8,2.2-2c-0.4-0.2-0.7-0.4-1-0.7c-0.3-0.3-0.6-0.9-0.9-1.8c-0.3-0.8-0.6-1.3-0.8-1.5c-0.2-0.2-0.6-0.3-1-0.3l-0.6,0
		v-1.3c0.1,0,0.3,0,0.9,0c0.5,0,0.9,0.1,1.3,0.3c0.4,0.2,0.7,0.5,0.9,0.8c0.2,0.3,0.5,0.8,0.8,1.6c0.4,1,0.8,1.7,1.1,1.9
		c0.3,0.3,0.8,0.4,1.5,0.4v-5H241.8z"/>
	<path class="st0" d="M249.1,20.2h1.5v5c0.7,0,1.2-0.1,1.5-0.4c0.3-0.3,0.6-0.9,1.1-1.9c0.3-0.8,0.6-1.3,0.8-1.6
		c0.2-0.3,0.5-0.6,0.9-0.8s0.8-0.3,1.3-0.3c0.6,0,0.9,0,0.9,0v1.3c-0.1,0-0.2,0-0.3,0c-0.2,0-0.3,0-0.3,0c-0.5,0-0.8,0.1-1.1,0.4
		c-0.2,0.2-0.5,0.7-0.8,1.5c-0.4,1-0.7,1.6-1,1.8c-0.3,0.3-0.6,0.5-1,0.6c0.7,0.2,1.5,0.9,2.2,2l2.4,3.8h-1.9l-1.9-3.1
		c-0.5-0.9-1-1.4-1.3-1.8s-0.8-0.5-1.4-0.5v5.4h-1.5V20.2z"/>
	<path class="st0" d="M0.2,47.5c0-1.5,0.4-2.7,1.3-3.4c0.7-0.6,1.6-0.9,2.6-0.9c1.1,0,2.1,0.4,2.8,1.1C7.6,45,8,46.1,8,47.4
		c0,1.1-0.2,1.9-0.5,2.5c-0.3,0.6-0.8,1.1-1.4,1.4s-1.3,0.5-2,0.5c-1.2,0-2.1-0.4-2.8-1.1C0.6,50,0.2,48.9,0.2,47.5z M1.7,47.5
		c0,1.1,0.2,1.9,0.7,2.4c0.5,0.5,1,0.8,1.8,0.8c0.7,0,1.3-0.3,1.7-0.8s0.7-1.3,0.7-2.4c0-1-0.2-1.8-0.7-2.3c-0.5-0.5-1-0.8-1.7-0.8
		c-0.7,0-1.3,0.3-1.8,0.8C1.9,45.6,1.7,46.4,1.7,47.5z"/>
	<path class="st0" d="M9.1,43.4h2.2l2.2,6.6l2.4-6.6h2v8.3h-1.4V45l-2.5,6.7h-1.3l-2.3-7v7H9.1V43.4z"/>
	<path class="st0" d="M25.2,49l1.5,0.2c-0.2,0.8-0.7,1.5-1.3,2S24,51.8,23,51.8c-1.2,0-2.2-0.4-2.9-1.1c-0.7-0.7-1.1-1.8-1.1-3.1
		c0-1.4,0.4-2.5,1.1-3.2c0.7-0.8,1.7-1.2,2.8-1.2c1.1,0,2,0.4,2.7,1.1c0.7,0.8,1.1,1.8,1.1,3.2c0,0.1,0,0.2,0,0.4h-6.2
		c0.1,0.9,0.3,1.6,0.8,2.1s1,0.7,1.7,0.7c0.5,0,1-0.1,1.3-0.4C24.7,50,25,49.6,25.2,49z M20.6,46.7h4.6c-0.1-0.7-0.2-1.2-0.5-1.6
		c-0.4-0.5-1-0.8-1.7-0.8c-0.6,0-1.2,0.2-1.6,0.6C20.9,45.4,20.6,46,20.6,46.7z"/>
	<path class="st0" d="M27.9,43.4h4.8v1.2h-3.4v7.1h-1.4V43.4z"/>
	<path class="st0" d="M38.2,50.6c-0.5,0.4-1,0.8-1.5,0.9s-1,0.3-1.6,0.3c-0.9,0-1.6-0.2-2.1-0.7s-0.7-1-0.7-1.7
		c0-0.4,0.1-0.8,0.3-1.1s0.4-0.6,0.7-0.8s0.6-0.4,1-0.5c0.3-0.1,0.7-0.1,1.2-0.2c1.1-0.1,2-0.3,2.5-0.5c0-0.2,0-0.3,0-0.4
		c0-0.6-0.1-1-0.4-1.2c-0.4-0.3-0.9-0.5-1.6-0.5c-0.7,0-1.1,0.1-1.5,0.3c-0.3,0.2-0.5,0.6-0.7,1.2l-1.4-0.2c0.1-0.6,0.3-1.1,0.6-1.4
		c0.3-0.4,0.7-0.6,1.2-0.8s1.2-0.3,1.9-0.3c0.7,0,1.3,0.1,1.7,0.2c0.4,0.2,0.8,0.4,1,0.6c0.2,0.3,0.4,0.6,0.4,1
		c0,0.2,0.1,0.7,0.1,1.3v1.9c0,1.3,0,2.1,0.1,2.5c0.1,0.3,0.2,0.7,0.4,1h-1.5C38.3,51.4,38.3,51,38.2,50.6z M38.1,47.5
		c-0.5,0.2-1.3,0.4-2.3,0.5c-0.6,0.1-1,0.2-1.2,0.3c-0.2,0.1-0.4,0.3-0.6,0.5c-0.1,0.2-0.2,0.4-0.2,0.7c0,0.4,0.1,0.7,0.4,0.9
		s0.7,0.4,1.2,0.4c0.5,0,1-0.1,1.4-0.4c0.4-0.2,0.7-0.6,0.9-1c0.2-0.3,0.2-0.8,0.2-1.4V47.5z"/>
	<path class="st0" d="M40.6,48.2v-1.4h4.3v1.4H40.6z"/>
	<path class="st0" d="M45.5,48.6l1.4-0.2c0.2,0.8,0.4,1.4,0.8,1.7c0.4,0.4,0.9,0.5,1.4,0.5c0.7,0,1.2-0.2,1.7-0.7
		c0.5-0.5,0.7-1,0.7-1.7c0-0.6-0.2-1.2-0.6-1.6c-0.4-0.4-1-0.6-1.6-0.6c-0.3,0-0.6,0.1-1,0.2l0.2-1.2c0.1,0,0.2,0,0.2,0
		c0.6,0,1.1-0.2,1.6-0.5c0.5-0.3,0.7-0.8,0.7-1.4c0-0.5-0.2-0.9-0.5-1.3c-0.3-0.3-0.8-0.5-1.4-0.5c-0.5,0-1,0.2-1.4,0.5
		c-0.4,0.3-0.6,0.9-0.7,1.5l-1.4-0.2c0.2-0.9,0.6-1.7,1.2-2.2c0.6-0.5,1.4-0.8,2.3-0.8c0.6,0,1.2,0.1,1.7,0.4
		c0.5,0.3,0.9,0.6,1.2,1.1c0.3,0.5,0.4,1,0.4,1.5c0,0.5-0.1,0.9-0.4,1.4s-0.7,0.7-1.2,1c0.7,0.2,1.2,0.5,1.6,1s0.6,1.1,0.6,1.8
		c0,1-0.4,1.8-1.1,2.5c-0.7,0.7-1.7,1-2.8,1c-1,0-1.8-0.3-2.5-0.9C46,50.4,45.6,49.6,45.5,48.6z"/>
	<path class="st0" d="M54.6,51.6V50h1.6v1.6c0,0.6-0.1,1.1-0.3,1.4c-0.2,0.4-0.5,0.6-1,0.8l-0.4-0.6c0.3-0.1,0.5-0.3,0.7-0.6
		c0.1-0.3,0.2-0.6,0.2-1.1H54.6z"/>
	<path class="st0" d="M67,46.8c-0.1-0.7-0.3-1.3-0.7-1.8s-0.9-0.7-1.5-0.7c-1.1,0-1.7,0.6-2,1.7l-1.4-0.2c0.1-0.8,0.5-1.4,1-1.9
		s1.3-0.7,2.2-0.7c1.2,0,2.1,0.4,2.8,1.2c0.7,0.8,1,1.8,1,3.2c0,1.3-0.3,2.4-0.9,3.2c-0.6,0.8-1.6,1.2-2.7,1.1c-1,0-1.8-0.3-2.4-0.8
		c-0.6-0.6-1-1.3-1.1-2.2l1.4-0.2c0.2,1.4,0.9,2.1,2.1,2.1c0.7,0,1.2-0.2,1.6-0.7c0.4-0.5,0.6-1.1,0.7-2h-2.9v-1.2H67z"/>
	<path class="st0" d="M69.6,43.4H71v6.3l3.9-6.3h1.5v8.3H75v-6.3l-3.9,6.3h-1.5V43.4z M74.5,40.2h1c-0.1,0.7-0.3,1.2-0.7,1.5
		c-0.4,0.3-0.9,0.5-1.6,0.5c-0.7,0-1.2-0.2-1.6-0.5c-0.4-0.3-0.6-0.8-0.7-1.5h1c0.1,0.4,0.2,0.6,0.4,0.8c0.2,0.2,0.5,0.3,0.9,0.3
		c0.4,0,0.7-0.1,1-0.3C74.3,40.8,74.4,40.6,74.5,40.2z"/>
	<path class="st0" d="M78,43.4h1.4v3.6c0.4,0,0.8-0.1,0.9-0.3s0.4-0.7,0.8-1.5c0.3-0.7,0.5-1.1,0.7-1.3c0.2-0.2,0.4-0.3,0.6-0.4
		c0.2-0.1,0.6-0.1,1.1-0.1h0.3v1.2l-0.4,0c-0.4,0-0.6,0.1-0.7,0.2c-0.1,0.1-0.3,0.5-0.5,1c-0.2,0.5-0.4,0.9-0.6,1.1
		c-0.2,0.2-0.5,0.4-0.8,0.6c0.6,0.2,1.2,0.7,1.8,1.7l1.5,2.6h-1.5L81,49.1c-0.3-0.5-0.6-0.9-0.8-1s-0.5-0.2-0.8-0.2v3.8H78V43.4z"/>
	<path class="st0" d="M84.1,47.5c0-1.5,0.4-2.7,1.3-3.4c0.7-0.6,1.6-0.9,2.6-0.9c1.1,0,2.1,0.4,2.8,1.1c0.7,0.7,1.1,1.8,1.1,3.1
		c0,1.1-0.2,1.9-0.5,2.5c-0.3,0.6-0.8,1.1-1.4,1.4c-0.6,0.3-1.3,0.5-2,0.5c-1.2,0-2.1-0.4-2.8-1.1C84.5,50,84.1,48.9,84.1,47.5z
		 M85.5,47.5c0,1.1,0.2,1.9,0.7,2.4c0.5,0.5,1,0.8,1.8,0.8c0.7,0,1.3-0.3,1.7-0.8c0.5-0.5,0.7-1.3,0.7-2.4c0-1-0.2-1.8-0.7-2.3
		c-0.5-0.5-1-0.8-1.7-0.8c-0.7,0-1.3,0.3-1.8,0.8C85.8,45.6,85.5,46.4,85.5,47.5z"/>
	<path class="st0" d="M94.6,47.9v-1.1c0.6,0,1,0,1.2-0.1c0.2,0,0.4-0.2,0.6-0.4c0.2-0.2,0.3-0.5,0.3-0.8c0-0.4-0.1-0.7-0.4-0.9
		c-0.3-0.2-0.6-0.3-1-0.3c-0.8,0-1.3,0.5-1.7,1.4l-1.3-0.2c0.4-1.6,1.4-2.3,3-2.3c0.9,0,1.6,0.2,2.1,0.7c0.5,0.5,0.8,1.1,0.8,1.7
		c0,0.7-0.3,1.2-1,1.6c0.4,0.2,0.7,0.5,0.9,0.9c0.2,0.3,0.3,0.8,0.3,1.2c0,0.7-0.3,1.3-0.8,1.8c-0.5,0.5-1.3,0.7-2.3,0.7
		c-1.9,0-3-0.8-3.3-2.5l1.3-0.3c0.1,0.5,0.4,0.9,0.7,1.2c0.4,0.3,0.8,0.4,1.3,0.4c0.5,0,0.9-0.1,1.2-0.4c0.3-0.3,0.5-0.6,0.5-1
		c0-0.3-0.1-0.6-0.3-0.8c-0.2-0.2-0.4-0.4-0.6-0.4c-0.2-0.1-0.6-0.1-1.2-0.1C94.9,47.9,94.8,47.9,94.6,47.9z"/>
	<path class="st0" d="M105,50.6c-0.5,0.4-1,0.8-1.5,0.9s-1,0.3-1.6,0.3c-0.9,0-1.6-0.2-2.1-0.7s-0.7-1-0.7-1.7
		c0-0.4,0.1-0.8,0.3-1.1s0.4-0.6,0.7-0.8s0.6-0.4,1-0.5c0.3-0.1,0.7-0.1,1.2-0.2c1.1-0.1,2-0.3,2.5-0.5c0-0.2,0-0.3,0-0.4
		c0-0.6-0.1-1-0.4-1.2c-0.4-0.3-0.9-0.5-1.6-0.5c-0.7,0-1.1,0.1-1.5,0.3c-0.3,0.2-0.5,0.6-0.7,1.2l-1.4-0.2c0.1-0.6,0.3-1.1,0.6-1.4
		c0.3-0.4,0.7-0.6,1.2-0.8s1.2-0.3,1.9-0.3c0.7,0,1.3,0.1,1.7,0.2c0.4,0.2,0.8,0.4,1,0.6c0.2,0.3,0.4,0.6,0.4,1
		c0,0.2,0.1,0.7,0.1,1.3v1.9c0,1.3,0,2.1,0.1,2.5c0.1,0.3,0.2,0.7,0.4,1h-1.5C105.1,51.4,105,51,105,50.6z M104.8,47.5
		c-0.5,0.2-1.3,0.4-2.3,0.5c-0.6,0.1-1,0.2-1.2,0.3c-0.2,0.1-0.4,0.3-0.6,0.5c-0.1,0.2-0.2,0.4-0.2,0.7c0,0.4,0.1,0.7,0.4,0.9
		s0.7,0.4,1.2,0.4c0.5,0,1-0.1,1.4-0.4c0.4-0.2,0.7-0.6,0.9-1c0.2-0.3,0.2-0.8,0.2-1.4V47.5z"/>
	<path class="st0" d="M107.9,43.4h6.5v8.3H113v-7.1h-3.7v7.1h-1.4V43.4z"/>
	<path class="st0" d="M121.7,49l1.5,0.2c-0.2,0.8-0.7,1.5-1.3,2s-1.4,0.7-2.4,0.7c-1.2,0-2.2-0.4-2.9-1.1c-0.7-0.7-1.1-1.8-1.1-3.1
		c0-1.4,0.4-2.5,1.1-3.2c0.7-0.8,1.7-1.2,2.8-1.2c1.1,0,2,0.4,2.7,1.1c0.7,0.8,1.1,1.8,1.1,3.2c0,0.1,0,0.2,0,0.4H117
		c0.1,0.9,0.3,1.6,0.8,2.1s1,0.7,1.7,0.7c0.5,0,1-0.1,1.3-0.4C121.2,50,121.5,49.6,121.7,49z M117.1,46.7h4.6
		c-0.1-0.7-0.2-1.2-0.5-1.6c-0.4-0.5-1-0.8-1.7-0.8c-0.6,0-1.2,0.2-1.6,0.6C117.3,45.4,117.1,46,117.1,46.7z"/>
	<path class="st0" d="M124.3,43.4h1.4v3.5h3.9v-3.5h1.4v8.3h-1.4V48h-3.9v3.7h-1.4V43.4z"/>
	<path class="st0" d="M131.8,43.4h6.7v1.2h-2.7v7.1h-1.4v-7.1h-2.7V43.4z"/>
	<path class="st0" d="M144.6,50.6c-0.5,0.4-1,0.8-1.5,0.9s-1,0.3-1.6,0.3c-0.9,0-1.6-0.2-2.1-0.7s-0.7-1-0.7-1.7
		c0-0.4,0.1-0.8,0.3-1.1s0.4-0.6,0.7-0.8s0.6-0.4,1-0.5c0.3-0.1,0.7-0.1,1.2-0.2c1.1-0.1,2-0.3,2.5-0.5c0-0.2,0-0.3,0-0.4
		c0-0.6-0.1-1-0.4-1.2c-0.4-0.3-0.9-0.5-1.6-0.5c-0.7,0-1.1,0.1-1.5,0.3c-0.3,0.2-0.5,0.6-0.7,1.2l-1.4-0.2c0.1-0.6,0.3-1.1,0.6-1.4
		c0.3-0.4,0.7-0.6,1.2-0.8s1.2-0.3,1.9-0.3c0.7,0,1.3,0.1,1.7,0.2c0.4,0.2,0.8,0.4,1,0.6c0.2,0.3,0.4,0.6,0.4,1
		c0,0.2,0.1,0.7,0.1,1.3v1.9c0,1.3,0,2.1,0.1,2.5c0.1,0.3,0.2,0.7,0.4,1h-1.5C144.7,51.4,144.7,51,144.6,50.6z M144.5,47.5
		c-0.5,0.2-1.3,0.4-2.3,0.5c-0.6,0.1-1,0.2-1.2,0.3c-0.2,0.1-0.4,0.3-0.6,0.5c-0.1,0.2-0.2,0.4-0.2,0.7c0,0.4,0.1,0.7,0.4,0.9
		s0.7,0.4,1.2,0.4c0.5,0,1-0.1,1.4-0.4c0.4-0.2,0.7-0.6,0.9-1c0.2-0.3,0.2-0.8,0.2-1.4V47.5z"/>
	<path class="st0" d="M153.2,49l1.5,0.2c-0.2,0.8-0.7,1.5-1.3,2s-1.4,0.7-2.4,0.7c-1.2,0-2.2-0.4-2.9-1.1c-0.7-0.7-1.1-1.8-1.1-3.1
		c0-1.4,0.4-2.5,1.1-3.2c0.7-0.8,1.7-1.2,2.8-1.2c1.1,0,2,0.4,2.7,1.1c0.7,0.8,1.1,1.8,1.1,3.2c0,0.1,0,0.2,0,0.4h-6.2
		c0.1,0.9,0.3,1.6,0.8,2.1s1,0.7,1.7,0.7c0.5,0,1-0.1,1.3-0.4C152.7,50,153,49.6,153.2,49z M148.6,46.7h4.6
		c-0.1-0.7-0.2-1.2-0.5-1.6c-0.4-0.5-1-0.8-1.7-0.8c-0.6,0-1.2,0.2-1.6,0.6C148.9,45.4,148.6,46,148.6,46.7z"/>
	<path class="st0" d="M155.9,43.4h1.4v3.5h3.9v-3.5h1.4v8.3h-1.4V48h-3.9v3.7h-1.4V43.4z"/>
	<path class="st0" d="M163.6,47.5c0-1.5,0.4-2.7,1.3-3.4c0.7-0.6,1.6-0.9,2.6-0.9c1.1,0,2.1,0.4,2.8,1.1c0.7,0.7,1.1,1.8,1.1,3.1
		c0,1.1-0.2,1.9-0.5,2.5c-0.3,0.6-0.8,1.1-1.4,1.4s-1.3,0.5-2,0.5c-1.2,0-2.1-0.4-2.8-1.1C164,50,163.6,48.9,163.6,47.5z
		 M165.1,47.5c0,1.1,0.2,1.9,0.7,2.4c0.5,0.5,1,0.8,1.8,0.8c0.7,0,1.3-0.3,1.7-0.8s0.7-1.3,0.7-2.4c0-1-0.2-1.8-0.7-2.3
		c-0.5-0.5-1-0.8-1.7-0.8c-0.7,0-1.3,0.3-1.8,0.8C165.3,45.6,165.1,46.4,165.1,47.5z"/>
	<path class="st0" d="M172.5,43.4h3.2c0.8,0,1.4,0.1,1.8,0.2s0.7,0.4,1,0.7c0.3,0.4,0.4,0.8,0.4,1.3c0,0.4-0.1,0.7-0.2,1
		c-0.2,0.3-0.4,0.5-0.7,0.7c0.4,0.1,0.7,0.4,1,0.7c0.3,0.4,0.4,0.8,0.4,1.3c-0.1,0.8-0.3,1.4-0.8,1.8c-0.5,0.4-1.3,0.6-2.2,0.6h-3.7
		V43.4z M173.9,46.8h1.5c0.6,0,1,0,1.2-0.1s0.4-0.2,0.6-0.4c0.2-0.2,0.3-0.4,0.3-0.7c0-0.4-0.2-0.7-0.5-0.9s-0.8-0.3-1.6-0.3h-1.5
		V46.8z M173.9,50.5h1.9c0.8,0,1.3-0.1,1.6-0.3c0.3-0.2,0.5-0.5,0.5-1c0-0.3-0.1-0.5-0.3-0.7s-0.4-0.4-0.7-0.4
		c-0.3-0.1-0.7-0.1-1.3-0.1h-1.7V50.5z"/>
	<path class="st0" d="M185.7,50.6c-0.5,0.4-1,0.8-1.5,0.9s-1,0.3-1.6,0.3c-0.9,0-1.6-0.2-2.1-0.7s-0.7-1-0.7-1.7
		c0-0.4,0.1-0.8,0.3-1.1s0.4-0.6,0.7-0.8s0.6-0.4,1-0.5c0.3-0.1,0.7-0.1,1.2-0.2c1.1-0.1,2-0.3,2.5-0.5c0-0.2,0-0.3,0-0.4
		c0-0.6-0.1-1-0.4-1.2c-0.4-0.3-0.9-0.5-1.6-0.5c-0.7,0-1.1,0.1-1.5,0.3c-0.3,0.2-0.5,0.6-0.7,1.2l-1.4-0.2c0.1-0.6,0.3-1.1,0.6-1.4
		c0.3-0.4,0.7-0.6,1.2-0.8s1.2-0.3,1.9-0.3c0.7,0,1.3,0.1,1.7,0.2c0.4,0.2,0.8,0.4,1,0.6c0.2,0.3,0.4,0.6,0.4,1
		c0,0.2,0.1,0.7,0.1,1.3v1.9c0,1.3,0,2.1,0.1,2.5c0.1,0.3,0.2,0.7,0.4,1h-1.5C185.8,51.4,185.7,51,185.7,50.6z M185.5,47.5
		c-0.5,0.2-1.3,0.4-2.3,0.5c-0.6,0.1-1,0.2-1.2,0.3c-0.2,0.1-0.4,0.3-0.6,0.5c-0.1,0.2-0.2,0.4-0.2,0.7c0,0.4,0.1,0.7,0.4,0.9
		s0.7,0.4,1.2,0.4c0.5,0,1-0.1,1.4-0.4c0.4-0.2,0.7-0.6,0.9-1c0.2-0.3,0.2-0.8,0.2-1.4V47.5z"/>
	<path class="st0" d="M195.1,43.4v8.3h-1.4v-3.2h-0.8c-0.5,0-0.9,0.1-1.1,0.2c-0.2,0.1-0.6,0.5-1.1,1.2l-1.2,1.8h-1.7l1.5-2.2
		c0.5-0.7,0.9-1.1,1.4-1.2c-0.8-0.1-1.4-0.4-1.8-0.9s-0.6-1-0.6-1.6c0-0.7,0.3-1.3,0.8-1.8c0.5-0.4,1.2-0.7,2.2-0.7H195.1z
		 M193.7,44.5h-2c-0.8,0-1.4,0.1-1.6,0.4c-0.2,0.3-0.4,0.6-0.4,0.9c0,0.5,0.2,0.9,0.5,1.1c0.4,0.2,1,0.3,1.9,0.3h1.6V44.5z"/>
	<path class="st0" d="M200.6,43.4h1.4v3.6c0.4,0,0.8-0.1,0.9-0.3s0.4-0.7,0.8-1.5c0.3-0.7,0.5-1.1,0.7-1.3c0.2-0.2,0.4-0.3,0.6-0.4
		c0.2-0.1,0.6-0.1,1.1-0.1h0.3v1.2l-0.4,0c-0.4,0-0.6,0.1-0.7,0.2c-0.1,0.1-0.3,0.5-0.5,1c-0.2,0.5-0.4,0.9-0.6,1.1
		c-0.2,0.2-0.5,0.4-0.8,0.6c0.6,0.2,1.2,0.7,1.8,1.7l1.5,2.6h-1.5l-1.5-2.6c-0.3-0.5-0.6-0.9-0.8-1s-0.5-0.2-0.8-0.2v3.8h-1.4V43.4z
		"/>
	<path class="st0" d="M207,43.4h1.4v6.3l3.9-6.3h1.5v8.3h-1.4v-6.3l-3.9,6.3H207V43.4z"/>
	<path class="st0" d="M220.8,48.6l1.4,0.2c-0.2,1-0.5,1.7-1.2,2.2s-1.4,0.8-2.3,0.8c-1.1,0-2-0.4-2.7-1.1s-1-1.8-1-3.2
		c0-0.9,0.1-1.7,0.4-2.4s0.7-1.2,1.4-1.5s1.3-0.5,2-0.5c0.9,0,1.6,0.2,2.2,0.7c0.6,0.5,0.9,1.1,1.1,1.9l-1.4,0.2
		c-0.1-0.6-0.4-1-0.7-1.3s-0.7-0.4-1.2-0.4c-0.7,0-1.3,0.3-1.7,0.8s-0.7,1.3-0.7,2.4c0,1.1,0.2,1.9,0.6,2.4c0.4,0.5,1,0.8,1.7,0.8
		c0.6,0,1-0.2,1.4-0.5C220.5,49.8,220.7,49.3,220.8,48.6z"/>
	<path class="st0" d="M223.5,43.4h6.5v8.3h-1.4v-7.1h-3.7v4.1c0,1,0,1.6-0.1,1.9c-0.1,0.3-0.2,0.6-0.5,0.8c-0.3,0.2-0.7,0.3-1.2,0.3
		c-0.3,0-0.7,0-1.1-0.1v-1.2h0.6c0.3,0,0.5,0,0.6-0.1c0.1-0.1,0.2-0.2,0.2-0.3c0-0.1,0.1-0.6,0.1-1.3V43.4z"/>
	<path class="st0" d="M231.3,47.5c0-1.5,0.4-2.7,1.3-3.4c0.7-0.6,1.6-0.9,2.6-0.9c1.1,0,2.1,0.4,2.8,1.1c0.7,0.7,1.1,1.8,1.1,3.1
		c0,1.1-0.2,1.9-0.5,2.5c-0.3,0.6-0.8,1.1-1.4,1.4s-1.3,0.5-2,0.5c-1.2,0-2.1-0.4-2.8-1.1C231.6,50,231.3,48.9,231.3,47.5z
		 M232.7,47.5c0,1.1,0.2,1.9,0.7,2.4c0.5,0.5,1,0.8,1.8,0.8c0.7,0,1.3-0.3,1.7-0.8s0.7-1.3,0.7-2.4c0-1-0.2-1.8-0.7-2.3
		c-0.5-0.5-1-0.8-1.7-0.8c-0.7,0-1.3,0.3-1.8,0.8C232.9,45.6,232.7,46.4,232.7,47.5z"/>
	<path class="st0" d="M239,43.4h6.7v1.2h-2.7v7.1h-1.4v-7.1H239V43.4z"/>
	<path class="st0" d="M251.8,50.6c-0.5,0.4-1,0.8-1.5,0.9s-1,0.3-1.6,0.3c-0.9,0-1.6-0.2-2.1-0.7s-0.7-1-0.7-1.7
		c0-0.4,0.1-0.8,0.3-1.1s0.4-0.6,0.7-0.8s0.6-0.4,1-0.5c0.3-0.1,0.7-0.1,1.2-0.2c1.1-0.1,2-0.3,2.5-0.5c0-0.2,0-0.3,0-0.4
		c0-0.6-0.1-1-0.4-1.2c-0.4-0.3-0.9-0.5-1.6-0.5c-0.7,0-1.1,0.1-1.5,0.3c-0.3,0.2-0.5,0.6-0.7,1.2l-1.4-0.2c0.1-0.6,0.3-1.1,0.6-1.4
		c0.3-0.4,0.7-0.6,1.2-0.8s1.2-0.3,1.9-0.3c0.7,0,1.3,0.1,1.7,0.2c0.4,0.2,0.8,0.4,1,0.6c0.2,0.3,0.4,0.6,0.4,1
		c0,0.2,0.1,0.7,0.1,1.3v1.9c0,1.3,0,2.1,0.1,2.5c0.1,0.3,0.2,0.7,0.4,1h-1.5C251.9,51.4,251.8,51,251.8,50.6z M251.7,47.5
		c-0.5,0.2-1.3,0.4-2.3,0.5c-0.6,0.1-1,0.2-1.2,0.3c-0.2,0.1-0.4,0.3-0.6,0.5c-0.1,0.2-0.2,0.4-0.2,0.7c0,0.4,0.1,0.7,0.4,0.9
		s0.7,0.4,1.2,0.4c0.5,0,1-0.1,1.4-0.4c0.4-0.2,0.7-0.6,0.9-1c0.2-0.3,0.2-0.8,0.2-1.4V47.5z"/>
	<path class="st0" d="M3.4,75c-0.8-1-1.4-2.1-2-3.4s-0.8-2.7-0.8-4.1c0-1.2,0.2-2.4,0.6-3.6c0.5-1.3,1.2-2.6,2.2-3.9h1
		c-0.6,1.1-1,1.9-1.2,2.3c-0.3,0.7-0.6,1.5-0.8,2.2c-0.2,1-0.3,2-0.3,2.9c0,2.5,0.8,5,2.3,7.5H3.4z"/>
	<path class="st0" d="M13.5,65.1c-0.1-1.1-0.4-2.1-1-2.7s-1.5-1-2.6-1c-1.7,0-2.7,0.8-3.1,2.4l-1.5-0.4c0.3-1,0.8-1.9,1.6-2.5
		c0.8-0.6,1.8-0.9,3-0.9c1.1,0,2.1,0.3,2.9,0.8c0.8,0.6,1.4,1.3,1.8,2.1c0.4,0.9,0.6,1.8,0.6,2.9c0.1,1.7-0.4,3.1-1.2,4.3
		s-2.2,1.7-4,1.7c-2.5,0-4.1-1.3-4.8-3.8l1.5-0.4c0.5,1.9,1.6,2.9,3.4,2.9c1,0,1.9-0.4,2.5-1.1s1-1.8,1.1-3H9.3v-1.4H13.5z"/>
	<path class="st0" d="M16.7,60.2h9v11.5h-1.5V61.5h-6v10.1h-1.5V60.2z"/>
	<path class="st0" d="M27.6,60.2h1.5v5c0.7,0,1.2-0.1,1.5-0.4c0.3-0.3,0.6-0.9,1.1-1.9c0.3-0.8,0.6-1.3,0.8-1.6
		c0.2-0.3,0.5-0.6,0.9-0.8c0.4-0.2,0.8-0.3,1.3-0.3c0.6,0,0.9,0,0.9,0v1.3c-0.1,0-0.2,0-0.3,0c-0.2,0-0.3,0-0.3,0
		c-0.5,0-0.8,0.1-1.1,0.4c-0.2,0.2-0.5,0.7-0.8,1.5c-0.4,1-0.7,1.6-1,1.8c-0.3,0.3-0.6,0.5-1,0.6c0.7,0.2,1.5,0.9,2.2,2l2.4,3.8
		h-1.9l-1.9-3.1c-0.5-0.9-1-1.4-1.3-1.8c-0.4-0.3-0.8-0.5-1.4-0.5v5.4h-1.5V60.2z"/>
	<path class="st0" d="M37.1,75h-1c1.6-2.5,2.3-5,2.3-7.5c0-1-0.1-2-0.3-2.9c-0.2-0.8-0.4-1.5-0.7-2.2c-0.2-0.5-0.6-1.2-1.3-2.3h1
		c1,1.3,1.7,2.6,2.2,3.9c0.4,1.1,0.6,2.3,0.6,3.6c0,1.4-0.3,2.8-0.8,4.1S37.9,74,37.1,75z"/>
	<path class="st0" d="M44.8,63.4h1.4v6.3l3.9-6.3h1.5v8.3h-1.4v-6.3l-3.9,6.3h-1.5V63.4z"/>
	<path class="st0" d="M58.2,63.4H64v7.1h0.9V74h-1.2v-2.4h-6.5V74H56v-3.5h0.7C57.8,69.1,58.2,66.8,58.2,63.4z M59.4,64.5
		c-0.1,2.7-0.5,4.7-1.2,6h4.5v-6H59.4z"/>
	<path class="st0" d="M65.3,67.5c0-1.5,0.4-2.7,1.3-3.4c0.7-0.6,1.6-0.9,2.6-0.9c1.1,0,2.1,0.4,2.8,1.1c0.7,0.7,1.1,1.8,1.1,3.1
		c0,1.1-0.2,1.9-0.5,2.5c-0.3,0.6-0.8,1.1-1.4,1.4s-1.3,0.5-2,0.5c-1.2,0-2.1-0.4-2.8-1.1C65.7,70,65.3,68.9,65.3,67.5z M66.8,67.5
		c0,1.1,0.2,1.9,0.7,2.4c0.5,0.5,1,0.8,1.8,0.8c0.7,0,1.3-0.3,1.7-0.8s0.7-1.3,0.7-2.4c0-1-0.2-1.8-0.7-2.3c-0.5-0.5-1-0.8-1.7-0.8
		c-0.7,0-1.3,0.3-1.8,0.8C67,65.6,66.8,66.4,66.8,67.5z"/>
	<path class="st0" d="M75.9,67.9v-1.1c0.6,0,1,0,1.2-0.1c0.2,0,0.4-0.2,0.6-0.4c0.2-0.2,0.3-0.5,0.3-0.8c0-0.4-0.1-0.7-0.4-0.9
		c-0.3-0.2-0.6-0.3-1-0.3c-0.8,0-1.3,0.5-1.7,1.4l-1.3-0.2c0.4-1.6,1.4-2.3,3-2.3c0.9,0,1.6,0.2,2.1,0.7c0.5,0.5,0.8,1.1,0.8,1.7
		c0,0.7-0.3,1.2-1,1.6c0.4,0.2,0.7,0.5,0.9,0.9c0.2,0.3,0.3,0.8,0.3,1.2c0,0.7-0.3,1.3-0.8,1.8c-0.5,0.5-1.3,0.7-2.3,0.7
		c-1.9,0-3-0.8-3.3-2.5l1.3-0.3c0.1,0.5,0.4,0.9,0.7,1.2c0.4,0.3,0.8,0.4,1.3,0.4c0.5,0,0.9-0.1,1.2-0.4c0.3-0.3,0.5-0.6,0.5-1
		c0-0.3-0.1-0.6-0.3-0.8c-0.2-0.2-0.4-0.4-0.6-0.4c-0.2-0.1-0.6-0.1-1.2-0.1C76.1,67.9,76,67.9,75.9,67.9z"/>
	<path class="st0" d="M86.2,70.6c-0.5,0.4-1,0.8-1.5,0.9s-1,0.3-1.6,0.3c-0.9,0-1.6-0.2-2.1-0.7s-0.7-1-0.7-1.7
		c0-0.4,0.1-0.8,0.3-1.1s0.4-0.6,0.7-0.8s0.6-0.4,1-0.5c0.3-0.1,0.7-0.1,1.2-0.2c1.1-0.1,2-0.3,2.5-0.5c0-0.2,0-0.3,0-0.4
		c0-0.6-0.1-1-0.4-1.2c-0.4-0.3-0.9-0.5-1.6-0.5c-0.7,0-1.1,0.1-1.5,0.3c-0.3,0.2-0.5,0.6-0.7,1.2l-1.4-0.2c0.1-0.6,0.3-1.1,0.6-1.4
		c0.3-0.4,0.7-0.6,1.2-0.8s1.2-0.3,1.9-0.3c0.7,0,1.3,0.1,1.7,0.2c0.4,0.2,0.8,0.4,1,0.6c0.2,0.3,0.4,0.6,0.4,1
		c0,0.2,0.1,0.7,0.1,1.3v1.9c0,1.3,0,2.1,0.1,2.5c0.1,0.3,0.2,0.7,0.4,1h-1.5C86.3,71.4,86.2,71,86.2,70.6z M86.1,67.5
		c-0.5,0.2-1.3,0.4-2.3,0.5c-0.6,0.1-1,0.2-1.2,0.3c-0.2,0.1-0.4,0.3-0.6,0.5c-0.1,0.2-0.2,0.4-0.2,0.7c0,0.4,0.1,0.7,0.4,0.9
		s0.7,0.4,1.2,0.4c0.5,0,1-0.1,1.4-0.4c0.4-0.2,0.7-0.6,0.9-1c0.2-0.3,0.2-0.8,0.2-1.4V67.5z"/>
	<path class="st0" d="M89.1,63.4h4.8v1.2h-3.4v7.1h-1.4V63.4z"/>
	<path class="st0" d="M99.7,69l1.5,0.2c-0.2,0.8-0.7,1.5-1.3,2c-0.6,0.5-1.4,0.7-2.4,0.7c-1.2,0-2.2-0.4-2.9-1.1
		c-0.7-0.7-1.1-1.8-1.1-3.1c0-1.4,0.4-2.5,1.1-3.2c0.7-0.8,1.7-1.2,2.8-1.2c1.1,0,2,0.4,2.7,1.1c0.7,0.8,1.1,1.8,1.1,3.2
		c0,0.1,0,0.2,0,0.4H95c0.1,0.9,0.3,1.6,0.8,2.1c0.5,0.5,1,0.7,1.7,0.7c0.5,0,1-0.1,1.3-0.4C99.2,70,99.5,69.6,99.7,69z M95.1,66.7
		h4.6c-0.1-0.7-0.2-1.2-0.5-1.6c-0.4-0.5-1-0.8-1.7-0.8c-0.6,0-1.2,0.2-1.6,0.6C95.4,65.4,95.2,66,95.1,66.7z"/>
	<path class="st0" d="M102.4,63.4h1.4v3.6c0.4,0,0.8-0.1,0.9-0.3s0.4-0.7,0.8-1.5c0.3-0.7,0.5-1.1,0.7-1.3c0.2-0.2,0.4-0.3,0.6-0.4
		c0.2-0.1,0.6-0.1,1.1-0.1h0.3v1.2l-0.4,0c-0.4,0-0.6,0.1-0.7,0.2c-0.1,0.1-0.3,0.5-0.5,1c-0.2,0.5-0.4,0.9-0.6,1.1
		c-0.2,0.2-0.5,0.4-0.8,0.6c0.6,0.2,1.2,0.7,1.8,1.7l1.5,2.6h-1.5l-1.5-2.6c-0.3-0.5-0.6-0.9-0.8-1s-0.5-0.2-0.8-0.2v3.8h-1.4V63.4z
		"/>
	<path class="st0" d="M114.4,68.6l1.4,0.2c-0.2,1-0.5,1.7-1.2,2.2c-0.6,0.5-1.4,0.8-2.3,0.8c-1.1,0-2-0.4-2.7-1.1
		c-0.7-0.7-1-1.8-1-3.2c0-0.9,0.1-1.7,0.4-2.4s0.7-1.2,1.4-1.5c0.6-0.3,1.3-0.5,2-0.5c0.9,0,1.6,0.2,2.2,0.7
		c0.6,0.5,0.9,1.1,1.1,1.9l-1.4,0.2c-0.1-0.6-0.4-1-0.7-1.3c-0.3-0.3-0.7-0.4-1.2-0.4c-0.7,0-1.3,0.3-1.7,0.8
		c-0.4,0.5-0.7,1.3-0.7,2.4c0,1.1,0.2,1.9,0.6,2.4c0.4,0.5,1,0.8,1.7,0.8c0.6,0,1-0.2,1.4-0.5C114.1,69.8,114.3,69.3,114.4,68.6z"/>
	<path class="st0" d="M121.9,70.6c-0.5,0.4-1,0.8-1.5,0.9s-1,0.3-1.6,0.3c-0.9,0-1.6-0.2-2.1-0.7s-0.7-1-0.7-1.7
		c0-0.4,0.1-0.8,0.3-1.1s0.4-0.6,0.7-0.8s0.6-0.4,1-0.5c0.3-0.1,0.7-0.1,1.2-0.2c1.1-0.1,2-0.3,2.5-0.5c0-0.2,0-0.3,0-0.4
		c0-0.6-0.1-1-0.4-1.2c-0.4-0.3-0.9-0.5-1.6-0.5c-0.7,0-1.1,0.1-1.5,0.3c-0.3,0.2-0.5,0.6-0.7,1.2l-1.4-0.2c0.1-0.6,0.3-1.1,0.6-1.4
		c0.3-0.4,0.7-0.6,1.2-0.8s1.2-0.3,1.9-0.3c0.7,0,1.3,0.1,1.7,0.2c0.4,0.2,0.8,0.4,1,0.6c0.2,0.3,0.4,0.6,0.4,1
		c0,0.2,0.1,0.7,0.1,1.3v1.9c0,1.3,0,2.1,0.1,2.5c0.1,0.3,0.2,0.7,0.4,1h-1.5C122,71.4,121.9,71,121.9,70.6z M121.8,67.5
		c-0.5,0.2-1.3,0.4-2.3,0.5c-0.6,0.1-1,0.2-1.2,0.3c-0.2,0.1-0.4,0.3-0.6,0.5c-0.1,0.2-0.2,0.4-0.2,0.7c0,0.4,0.1,0.7,0.4,0.9
		s0.7,0.4,1.2,0.4c0.5,0,1-0.1,1.4-0.4c0.4-0.2,0.7-0.6,0.9-1c0.2-0.3,0.2-0.8,0.2-1.4V67.5z"/>
	<path class="st0" d="M130.5,69l1.5,0.2c-0.2,0.8-0.7,1.5-1.3,2c-0.6,0.5-1.4,0.7-2.4,0.7c-1.2,0-2.2-0.4-2.9-1.1
		c-0.7-0.7-1.1-1.8-1.1-3.1c0-1.4,0.4-2.5,1.1-3.2c0.7-0.8,1.7-1.2,2.8-1.2c1.1,0,2,0.4,2.7,1.1c0.7,0.8,1.1,1.8,1.1,3.2
		c0,0.1,0,0.2,0,0.4h-6.2c0.1,0.9,0.3,1.6,0.8,2.1c0.5,0.5,1,0.7,1.7,0.7c0.5,0,1-0.1,1.3-0.4C130,70,130.3,69.6,130.5,69z
		 M125.9,66.7h4.6c-0.1-0.7-0.2-1.2-0.5-1.6c-0.4-0.5-1-0.8-1.7-0.8c-0.6,0-1.2,0.2-1.6,0.6C126.1,65.4,125.9,66,125.9,66.7z"/>
	<path class="st0" d="M133.1,63.4h1.4v3.5h3.9v-3.5h1.4v8.3h-1.4V68h-3.9v3.7h-1.4V63.4z"/>
	<path class="st0" d="M140.9,67.5c0-1.5,0.4-2.7,1.3-3.4c0.7-0.6,1.6-0.9,2.6-0.9c1.1,0,2.1,0.4,2.8,1.1c0.7,0.7,1.1,1.8,1.1,3.1
		c0,1.1-0.2,1.9-0.5,2.5c-0.3,0.6-0.8,1.1-1.4,1.4s-1.3,0.5-2,0.5c-1.2,0-2.1-0.4-2.8-1.1C141.2,70,140.9,68.9,140.9,67.5z
		 M142.3,67.5c0,1.1,0.2,1.9,0.7,2.4c0.5,0.5,1,0.8,1.8,0.8c0.7,0,1.3-0.3,1.7-0.8s0.7-1.3,0.7-2.4c0-1-0.2-1.8-0.7-2.3
		c-0.5-0.5-1-0.8-1.7-0.8c-0.7,0-1.3,0.3-1.8,0.8C142.6,65.6,142.3,66.4,142.3,67.5z"/>
	<path class="st0" d="M149.8,63.4h3.2c0.8,0,1.4,0.1,1.8,0.2s0.7,0.4,1,0.7c0.3,0.4,0.4,0.8,0.4,1.3c0,0.4-0.1,0.7-0.2,1
		c-0.2,0.3-0.4,0.5-0.7,0.7c0.4,0.1,0.7,0.4,1,0.7c0.3,0.4,0.4,0.8,0.4,1.3c-0.1,0.8-0.3,1.4-0.8,1.8c-0.5,0.4-1.3,0.6-2.2,0.6h-3.7
		V63.4z M151.2,66.8h1.5c0.6,0,1,0,1.2-0.1s0.4-0.2,0.6-0.4c0.2-0.2,0.3-0.4,0.3-0.7c0-0.4-0.2-0.7-0.5-0.9s-0.8-0.3-1.6-0.3h-1.5
		V66.8z M151.2,70.5h1.9c0.8,0,1.3-0.1,1.6-0.3c0.3-0.2,0.5-0.5,0.5-1c0-0.3-0.1-0.5-0.3-0.7s-0.4-0.4-0.7-0.4
		c-0.3-0.1-0.7-0.1-1.3-0.1h-1.7V70.5z"/>
	<path class="st0" d="M162.9,70.6c-0.5,0.4-1,0.8-1.5,0.9s-1,0.3-1.6,0.3c-0.9,0-1.6-0.2-2.1-0.7s-0.7-1-0.7-1.7
		c0-0.4,0.1-0.8,0.3-1.1s0.4-0.6,0.7-0.8s0.6-0.4,1-0.5c0.3-0.1,0.7-0.1,1.2-0.2c1.1-0.1,2-0.3,2.5-0.5c0-0.2,0-0.3,0-0.4
		c0-0.6-0.1-1-0.4-1.2c-0.4-0.3-0.9-0.5-1.6-0.5c-0.7,0-1.1,0.1-1.5,0.3c-0.3,0.2-0.5,0.6-0.7,1.2l-1.4-0.2c0.1-0.6,0.3-1.1,0.6-1.4
		c0.3-0.4,0.7-0.6,1.2-0.8s1.2-0.3,1.9-0.3c0.7,0,1.3,0.1,1.7,0.2c0.4,0.2,0.8,0.4,1,0.6c0.2,0.3,0.4,0.6,0.4,1
		c0,0.2,0.1,0.7,0.1,1.3v1.9c0,1.3,0,2.1,0.1,2.5c0.1,0.3,0.2,0.7,0.4,1h-1.5C163.1,71.4,163,71,162.9,70.6z M162.8,67.5
		c-0.5,0.2-1.3,0.4-2.3,0.5c-0.6,0.1-1,0.2-1.2,0.3c-0.2,0.1-0.4,0.3-0.6,0.5c-0.1,0.2-0.2,0.4-0.2,0.7c0,0.4,0.1,0.7,0.4,0.9
		s0.7,0.4,1.2,0.4c0.5,0,1-0.1,1.4-0.4c0.4-0.2,0.7-0.6,0.9-1c0.2-0.3,0.2-0.8,0.2-1.4V67.5z"/>
	<path class="st0" d="M172.4,63.4v8.3H171v-3.2h-0.8c-0.5,0-0.9,0.1-1.1,0.2c-0.2,0.1-0.6,0.5-1.1,1.2l-1.2,1.8H165l1.5-2.2
		c0.5-0.7,0.9-1.1,1.4-1.2c-0.8-0.1-1.4-0.4-1.8-0.9s-0.6-1-0.6-1.6c0-0.7,0.3-1.3,0.8-1.8c0.5-0.4,1.2-0.7,2.2-0.7H172.4z
		 M171,64.5h-2c-0.8,0-1.4,0.1-1.6,0.4c-0.2,0.3-0.4,0.6-0.4,0.9c0,0.5,0.2,0.9,0.5,1.1c0.4,0.2,1,0.3,1.9,0.3h1.6V64.5z"/>
	<path class="st0" d="M177.8,63.4h1.4v3.6c0.4,0,0.8-0.1,0.9-0.3s0.4-0.7,0.8-1.5c0.3-0.7,0.5-1.1,0.7-1.3c0.2-0.2,0.4-0.3,0.6-0.4
		c0.2-0.1,0.6-0.1,1.1-0.1h0.3v1.2l-0.4,0c-0.4,0-0.6,0.1-0.7,0.2c-0.1,0.1-0.3,0.5-0.5,1c-0.2,0.5-0.4,0.9-0.6,1.1
		c-0.2,0.2-0.5,0.4-0.8,0.6c0.6,0.2,1.2,0.7,1.8,1.7l1.5,2.6h-1.5l-1.5-2.6c-0.3-0.5-0.6-0.9-0.8-1s-0.5-0.2-0.8-0.2v3.8h-1.4V63.4z
		"/>
	<path class="st0" d="M184.3,63.4h1.4v6.3l3.9-6.3h1.5v8.3h-1.4v-6.3l-3.9,6.3h-1.5V63.4z"/>
	<path class="st0" d="M198.1,68.6l1.4,0.2c-0.2,1-0.5,1.7-1.2,2.2s-1.4,0.8-2.3,0.8c-1.1,0-2-0.4-2.7-1.1s-1-1.8-1-3.2
		c0-0.9,0.1-1.7,0.4-2.4s0.7-1.2,1.4-1.5s1.3-0.5,2-0.5c0.9,0,1.6,0.2,2.2,0.7c0.6,0.5,0.9,1.1,1.1,1.9l-1.4,0.2
		c-0.1-0.6-0.4-1-0.7-1.3s-0.7-0.4-1.2-0.4c-0.7,0-1.3,0.3-1.7,0.8s-0.7,1.3-0.7,2.4c0,1.1,0.2,1.9,0.6,2.4c0.4,0.5,1,0.8,1.7,0.8
		c0.6,0,1-0.2,1.4-0.5C197.7,69.8,198,69.3,198.1,68.6z"/>
	<path class="st0" d="M200.8,63.4h6.5v8.3h-1.4v-7.1h-3.7v4.1c0,1,0,1.6-0.1,1.9c-0.1,0.3-0.2,0.6-0.5,0.8c-0.3,0.2-0.7,0.3-1.2,0.3
		c-0.3,0-0.7,0-1.1-0.1v-1.2h0.6c0.3,0,0.5,0,0.6-0.1c0.1-0.1,0.2-0.2,0.2-0.3c0-0.1,0.1-0.6,0.1-1.3V63.4z"/>
	<path class="st0" d="M208.5,67.5c0-1.5,0.4-2.7,1.3-3.4c0.7-0.6,1.6-0.9,2.6-0.9c1.1,0,2.1,0.4,2.8,1.1c0.7,0.7,1.1,1.8,1.1,3.1
		c0,1.1-0.2,1.9-0.5,2.5c-0.3,0.6-0.8,1.1-1.4,1.4s-1.3,0.5-2,0.5c-1.2,0-2.1-0.4-2.8-1.1C208.9,70,208.5,68.9,208.5,67.5z
		 M210,67.5c0,1.1,0.2,1.9,0.7,2.4c0.5,0.5,1,0.8,1.8,0.8c0.7,0,1.3-0.3,1.7-0.8s0.7-1.3,0.7-2.4c0-1-0.2-1.8-0.7-2.3
		c-0.5-0.5-1-0.8-1.7-0.8c-0.7,0-1.3,0.3-1.8,0.8C210.2,65.6,210,66.4,210,67.5z"/>
	<path class="st0" d="M216.3,63.4h6.7v1.2h-2.7v7.1h-1.4v-7.1h-2.7V63.4z"/>
	<path class="st0" d="M229,70.6c-0.5,0.4-1,0.8-1.5,0.9s-1,0.3-1.6,0.3c-0.9,0-1.6-0.2-2.1-0.7s-0.7-1-0.7-1.7
		c0-0.4,0.1-0.8,0.3-1.1s0.4-0.6,0.7-0.8s0.6-0.4,1-0.5c0.3-0.1,0.7-0.1,1.2-0.2c1.1-0.1,2-0.3,2.5-0.5c0-0.2,0-0.3,0-0.4
		c0-0.6-0.1-1-0.4-1.2c-0.4-0.3-0.9-0.5-1.6-0.5c-0.7,0-1.1,0.1-1.5,0.3c-0.3,0.2-0.5,0.6-0.7,1.2l-1.4-0.2c0.1-0.6,0.3-1.1,0.6-1.4
		c0.3-0.4,0.7-0.6,1.2-0.8s1.2-0.3,1.9-0.3c0.7,0,1.3,0.1,1.7,0.2c0.4,0.2,0.8,0.4,1,0.6c0.2,0.3,0.4,0.6,0.4,1
		c0,0.2,0.1,0.7,0.1,1.3v1.9c0,1.3,0,2.1,0.1,2.5c0.1,0.3,0.2,0.7,0.4,1h-1.5C229.2,71.4,229.1,71,229,70.6z M228.9,67.5
		c-0.5,0.2-1.3,0.4-2.3,0.5c-0.6,0.1-1,0.2-1.2,0.3c-0.2,0.1-0.4,0.3-0.6,0.5c-0.1,0.2-0.2,0.4-0.2,0.7c0,0.4,0.1,0.7,0.4,0.9
		s0.7,0.4,1.2,0.4c0.5,0,1-0.1,1.4-0.4c0.4-0.2,0.7-0.6,0.9-1c0.2-0.3,0.2-0.8,0.2-1.4V67.5z"/>
	<path class="st0" d="M3.4,95c-0.8-1-1.4-2.1-2-3.4s-0.8-2.7-0.8-4.1c0-1.2,0.2-2.4,0.6-3.6c0.5-1.3,1.2-2.6,2.2-3.9h1
		c-0.6,1.1-1,1.9-1.2,2.3c-0.3,0.7-0.6,1.5-0.8,2.2c-0.2,1-0.3,2-0.3,2.9c0,2.5,0.8,5,2.3,7.5H3.4z"/>
	<path class="st0" d="M6.7,80.2h7v10.1h1v4h-1.4v-2.7H5.8v2.7H4.5v-4h0.9c0.9-1.4,1.4-4.2,1.4-8.4V80.2z M12.2,81.5h-4v0.6
		c0,1-0.1,2.3-0.3,4c-0.2,1.7-0.5,3.1-1,4.2h5.3V81.5z"/>
	<path class="st0" d="M16,80.2h7.4v1.4h-5.9v10.1H16V80.2z"/>
	<path class="st0" d="M24.1,80.2h1.5v5c0.7,0,1.2-0.1,1.5-0.4c0.3-0.3,0.6-0.9,1.1-1.9c0.3-0.8,0.6-1.3,0.8-1.6
		c0.2-0.3,0.5-0.6,0.9-0.8c0.4-0.2,0.8-0.3,1.3-0.3c0.6,0,0.9,0,0.9,0v1.3c-0.1,0-0.2,0-0.3,0c-0.2,0-0.3,0-0.3,0
		c-0.5,0-0.8,0.1-1.1,0.4c-0.2,0.2-0.5,0.7-0.8,1.5c-0.4,1-0.7,1.6-1,1.8c-0.3,0.3-0.6,0.5-1,0.6c0.7,0.2,1.5,0.9,2.2,2l2.4,3.8
		h-1.9l-1.9-3.1c-0.5-0.9-1-1.4-1.3-1.8c-0.4-0.3-0.8-0.5-1.4-0.5v5.4h-1.5V80.2z"/>
	<path class="st0" d="M33.6,95h-1c1.6-2.5,2.3-5,2.3-7.5c0-1-0.1-2-0.3-2.9c-0.2-0.8-0.4-1.5-0.7-2.2c-0.2-0.5-0.6-1.2-1.3-2.3h1
		c1,1.3,1.7,2.6,2.2,3.9c0.4,1.1,0.6,2.3,0.6,3.6c0,1.4-0.3,2.8-0.8,4.1S34.4,94,33.6,95z"/>
	<path class="st0" d="M37.8,91.6V90h1.6v1.6c0,0.6-0.1,1.1-0.3,1.4c-0.2,0.4-0.5,0.6-1,0.8l-0.4-0.6c0.3-0.1,0.5-0.3,0.7-0.6
		c0.1-0.3,0.2-0.6,0.2-1.1H37.8z"/>
	<path class="st0" d="M45.2,83.4h2.2l2.2,6.6l2.4-6.6h2v8.3h-1.4V85l-2.5,6.7h-1.3l-2.3-7v7h-1.4V83.4z"/>
	<path class="st0" d="M61.1,90.6c-0.5,0.4-1,0.8-1.5,0.9c-0.5,0.2-1,0.3-1.6,0.3c-0.9,0-1.6-0.2-2.1-0.7c-0.5-0.4-0.7-1-0.7-1.7
		c0-0.4,0.1-0.8,0.3-1.1c0.2-0.3,0.4-0.6,0.7-0.8c0.3-0.2,0.6-0.4,1-0.5c0.3-0.1,0.7-0.1,1.2-0.2c1.1-0.1,2-0.3,2.5-0.5
		c0-0.2,0-0.3,0-0.4c0-0.6-0.1-1-0.4-1.2c-0.4-0.3-0.9-0.5-1.6-0.5c-0.7,0-1.2,0.1-1.5,0.3c-0.3,0.2-0.5,0.6-0.7,1.2l-1.4-0.2
		c0.1-0.6,0.3-1.1,0.6-1.4c0.3-0.4,0.7-0.6,1.2-0.8c0.5-0.2,1.2-0.3,1.9-0.3c0.7,0,1.3,0.1,1.7,0.2c0.4,0.2,0.8,0.4,1,0.6
		c0.2,0.3,0.4,0.6,0.4,1c0,0.2,0.1,0.7,0.1,1.3v1.9c0,1.3,0,2.1,0.1,2.5c0.1,0.3,0.2,0.7,0.4,1h-1.5C61.2,91.4,61.1,91,61.1,90.6z
		 M60.9,87.5c-0.5,0.2-1.3,0.4-2.3,0.5c-0.6,0.1-1,0.2-1.2,0.3c-0.2,0.1-0.4,0.3-0.6,0.5c-0.1,0.2-0.2,0.4-0.2,0.7
		c0,0.4,0.1,0.7,0.4,0.9c0.3,0.2,0.7,0.4,1.2,0.4c0.5,0,1-0.1,1.4-0.4c0.4-0.2,0.7-0.6,0.9-1c0.2-0.3,0.2-0.8,0.2-1.4V87.5z"/>
	<path class="st0" d="M64,94.8V83.4h1.3v1.1c0.3-0.4,0.6-0.7,1-0.9s0.8-0.3,1.4-0.3c0.7,0,1.3,0.2,1.9,0.5c0.5,0.4,1,0.9,1.2,1.5
		s0.4,1.4,0.4,2.2c0,0.8-0.2,1.6-0.5,2.3s-0.7,1.2-1.3,1.6s-1.2,0.5-1.8,0.5c-0.5,0-0.9-0.1-1.3-0.3s-0.7-0.4-0.9-0.8v4H64z
		 M65.3,87.5c0,1.1,0.2,1.9,0.6,2.4c0.4,0.5,1,0.8,1.6,0.8c0.6,0,1.2-0.3,1.6-0.8c0.4-0.5,0.7-1.3,0.7-2.5c0-1.1-0.2-1.8-0.7-2.4
		c-0.4-0.5-1-0.8-1.6-0.8c-0.6,0-1.1,0.3-1.6,0.8C65.5,85.7,65.3,86.5,65.3,87.5z"/>
	<path class="st0" d="M72.3,83.4h4.8v1.2h-3.4v7.1h-1.4V83.4z"/>
	<path class="st0" d="M82.7,90.6c-0.5,0.4-1,0.8-1.5,0.9s-1,0.3-1.6,0.3c-0.9,0-1.6-0.2-2.1-0.7s-0.7-1-0.7-1.7
		c0-0.4,0.1-0.8,0.3-1.1s0.4-0.6,0.7-0.8s0.6-0.4,1-0.5c0.3-0.1,0.7-0.1,1.2-0.2c1.1-0.1,2-0.3,2.5-0.5c0-0.2,0-0.3,0-0.4
		c0-0.6-0.1-1-0.4-1.2c-0.4-0.3-0.9-0.5-1.6-0.5c-0.7,0-1.1,0.1-1.5,0.3c-0.3,0.2-0.5,0.6-0.7,1.2L77,85.7c0.1-0.6,0.3-1.1,0.6-1.4
		c0.3-0.4,0.7-0.6,1.2-0.8s1.2-0.3,1.9-0.3c0.7,0,1.3,0.1,1.7,0.2c0.4,0.2,0.8,0.4,1,0.6c0.2,0.3,0.4,0.6,0.4,1
		c0,0.2,0.1,0.7,0.1,1.3v1.9c0,1.3,0,2.1,0.1,2.5c0.1,0.3,0.2,0.7,0.4,1h-1.5C82.8,91.4,82.7,91,82.7,90.6z M82.5,87.5
		c-0.5,0.2-1.3,0.4-2.3,0.5c-0.6,0.1-1,0.2-1.2,0.3c-0.2,0.1-0.4,0.3-0.6,0.5c-0.1,0.2-0.2,0.4-0.2,0.7c0,0.4,0.1,0.7,0.4,0.9
		s0.7,0.4,1.2,0.4c0.5,0,1-0.1,1.4-0.4c0.4-0.2,0.7-0.6,0.9-1c0.2-0.3,0.2-0.8,0.2-1.4V87.5z"/>
	<path class="st0" d="M85.6,83.4H87v3.5h3.9v-3.5h1.4v8.3h-1.4V88H87v3.7h-1.4V83.4z"/>
	<path class="st0" d="M99.5,89l1.5,0.2c-0.2,0.8-0.7,1.5-1.3,2c-0.6,0.5-1.4,0.7-2.4,0.7c-1.2,0-2.2-0.4-2.9-1.1
		c-0.7-0.7-1.1-1.8-1.1-3.1c0-1.4,0.4-2.5,1.1-3.2c0.7-0.8,1.7-1.2,2.8-1.2c1.1,0,2,0.4,2.7,1.1c0.7,0.8,1.1,1.8,1.1,3.2
		c0,0.1,0,0.2,0,0.4h-6.2c0.1,0.9,0.3,1.6,0.8,2.1c0.5,0.5,1,0.7,1.7,0.7c0.5,0,1-0.1,1.3-0.4C99,90,99.3,89.6,99.5,89z M94.9,86.7
		h4.6c-0.1-0.7-0.2-1.2-0.5-1.6c-0.4-0.5-1-0.8-1.7-0.8c-0.6,0-1.2,0.2-1.6,0.6C95.2,85.4,95,86,94.9,86.7z"/>
	<path class="st0" d="M102.2,83.4h1.4v7.1h3.9v-7.1h1.4v7.1h0.9V94h-1.2v-2.4h-6.5V83.4z"/>
	<path class="st0" d="M111.2,91.6V90h1.6v1.6c0,0.6-0.1,1.1-0.3,1.4c-0.2,0.4-0.5,0.6-1,0.8l-0.4-0.6c0.3-0.1,0.5-0.3,0.7-0.6
		c0.1-0.3,0.2-0.6,0.2-1.1H111.2z"/>
	<path class="st0" d="M118.6,83.4h2.2L123,90l2.4-6.6h2v8.3H126V85l-2.5,6.7h-1.3l-2.3-7v7h-1.4V83.4z"/>
	<path class="st0" d="M134.7,89l1.5,0.2c-0.2,0.8-0.7,1.5-1.3,2s-1.4,0.7-2.4,0.7c-1.2,0-2.2-0.4-2.9-1.1c-0.7-0.7-1.1-1.8-1.1-3.1
		c0-1.4,0.4-2.5,1.1-3.2c0.7-0.8,1.7-1.2,2.8-1.2c1.1,0,2,0.4,2.7,1.1c0.7,0.8,1.1,1.8,1.1,3.2c0,0.1,0,0.2,0,0.4H130
		c0.1,0.9,0.3,1.6,0.8,2.1s1,0.7,1.7,0.7c0.5,0,1-0.1,1.3-0.4C134.2,90,134.5,89.6,134.7,89z M130.1,86.7h4.6
		c-0.1-0.7-0.2-1.2-0.5-1.6c-0.4-0.5-1-0.8-1.7-0.8c-0.6,0-1.2,0.2-1.6,0.6C130.4,85.4,130.1,86,130.1,86.7z"/>
	<path class="st0" d="M138.1,83.4h5.8v7.1h0.9V94h-1.2v-2.4h-6.5V94h-1.2v-3.5h0.7C137.7,89.1,138.2,86.8,138.1,83.4z M139.3,84.5
		c-0.1,2.7-0.5,4.7-1.2,6h4.5v-6H139.3z"/>
	<path class="st0" d="M145.8,83.4h1.4v3.2h1.8c1.2,0,2.1,0.2,2.7,0.7c0.6,0.5,0.9,1.1,0.9,1.9c0,0.7-0.3,1.3-0.8,1.8
		s-1.4,0.7-2.5,0.7h-3.5V83.4z M147.2,90.5h1.5c0.9,0,1.5-0.1,1.9-0.3s0.6-0.6,0.6-1c0-0.4-0.1-0.7-0.4-1s-0.9-0.4-1.9-0.4h-1.7
		V90.5z"/>
	<path class="st0" d="M153.9,91.6V90h1.6v1.6c0,0.6-0.1,1.1-0.3,1.4c-0.2,0.4-0.5,0.6-1,0.8l-0.4-0.6c0.3-0.1,0.5-0.3,0.7-0.6
		c0.1-0.3,0.2-0.6,0.2-1.1H153.9z"/>
	<path class="st0" d="M161.3,83.4h1.4v7.1h3.9v-7.1h1.4v7.1h0.9V94h-1.2v-2.4h-6.5V83.4z"/>
	<path class="st0" d="M169.9,83.4h1.4v6.3l3.9-6.3h1.5v8.3h-1.4v-6.3l-3.9,6.3h-1.5V83.4z"/>
	<path class="st0" d="M178.3,83.4h1.4v3.5h3.9v-3.5h1.4v8.3h-1.4V88h-3.9v3.7h-1.4V83.4z"/>
	<path class="st0" d="M186.6,83.4h1.4v3.6c0.4,0,0.8-0.1,0.9-0.3s0.4-0.7,0.8-1.5c0.3-0.7,0.5-1.1,0.7-1.3c0.2-0.2,0.4-0.3,0.6-0.4
		c0.2-0.1,0.6-0.1,1.1-0.1h0.3v1.2l-0.4,0c-0.4,0-0.6,0.1-0.7,0.2c-0.1,0.1-0.3,0.5-0.5,1c-0.2,0.5-0.4,0.9-0.6,1.1
		c-0.2,0.2-0.5,0.4-0.8,0.6c0.6,0.2,1.2,0.7,1.8,1.7l1.5,2.6h-1.5l-1.5-2.6c-0.3-0.5-0.6-0.9-0.8-1s-0.5-0.2-0.8-0.2v3.8h-1.4V83.4z
		"/>
	<path class="st0" d="M193.4,91.6V90h1.6v1.6c0,0.6-0.1,1.1-0.3,1.4c-0.2,0.4-0.5,0.6-1,0.8l-0.4-0.6c0.3-0.1,0.5-0.3,0.7-0.6
		c0.1-0.3,0.2-0.6,0.2-1.1H193.4z"/>
	<path class="st0" d="M206.2,88.6l1.4,0.2c-0.2,1-0.5,1.7-1.2,2.2s-1.4,0.8-2.3,0.8c-1.1,0-2-0.4-2.7-1.1s-1-1.8-1-3.2
		c0-0.9,0.1-1.7,0.4-2.4s0.7-1.2,1.4-1.5s1.3-0.5,2-0.5c0.9,0,1.6,0.2,2.2,0.7c0.6,0.5,0.9,1.1,1.1,1.9l-1.4,0.2
		c-0.1-0.6-0.4-1-0.7-1.3s-0.7-0.4-1.2-0.4c-0.7,0-1.3,0.3-1.7,0.8s-0.7,1.3-0.7,2.4c0,1.1,0.2,1.9,0.6,2.4c0.4,0.5,1,0.8,1.7,0.8
		c0.6,0,1-0.2,1.4-0.5C205.9,89.8,206.1,89.3,206.2,88.6z"/>
	<path class="st0" d="M213.9,89l1.5,0.2c-0.2,0.8-0.7,1.5-1.3,2s-1.4,0.7-2.4,0.7c-1.2,0-2.2-0.4-2.9-1.1c-0.7-0.7-1.1-1.8-1.1-3.1
		c0-1.4,0.4-2.5,1.1-3.2c0.7-0.8,1.7-1.2,2.8-1.2c1.1,0,2,0.4,2.7,1.1c0.7,0.8,1.1,1.8,1.1,3.2c0,0.1,0,0.2,0,0.4h-6.2
		c0.1,0.9,0.3,1.6,0.8,2.1s1,0.7,1.7,0.7c0.5,0,1-0.1,1.3-0.4C213.4,90,213.7,89.6,213.9,89z M209.3,86.7h4.6
		c-0.1-0.7-0.2-1.2-0.5-1.6c-0.4-0.5-1-0.8-1.7-0.8c-0.6,0-1.2,0.2-1.6,0.6C209.6,85.4,209.3,86,209.3,86.7z"/>
	<path class="st0" d="M216.7,83.4h6.5v8.3h-1.4v-7.1h-3.7v4.1c0,1,0,1.6-0.1,1.9c-0.1,0.3-0.2,0.6-0.5,0.8c-0.3,0.2-0.7,0.3-1.2,0.3
		c-0.3,0-0.7,0-1.1-0.1v-1.2h0.6c0.3,0,0.5,0,0.6-0.1c0.1-0.1,0.2-0.2,0.2-0.3c0-0.1,0.1-0.6,0.1-1.3V83.4z"/>
	<path class="st0" d="M230.5,89l1.5,0.2c-0.2,0.8-0.7,1.5-1.3,2s-1.4,0.7-2.4,0.7c-1.2,0-2.2-0.4-2.9-1.1c-0.7-0.7-1.1-1.8-1.1-3.1
		c0-1.4,0.4-2.5,1.1-3.2c0.7-0.8,1.7-1.2,2.8-1.2c1.1,0,2,0.4,2.7,1.1c0.7,0.8,1.1,1.8,1.1,3.2c0,0.1,0,0.2,0,0.4h-6.2
		c0.1,0.9,0.3,1.6,0.8,2.1s1,0.7,1.7,0.7c0.5,0,1-0.1,1.3-0.4C230,90,230.3,89.6,230.5,89z M225.9,86.7h4.6
		c-0.1-0.7-0.2-1.2-0.5-1.6c-0.4-0.5-1-0.8-1.7-0.8c-0.6,0-1.2,0.2-1.6,0.6C226.2,85.4,225.9,86,225.9,86.7z"/>
	<path class="st0" d="M233.2,83.4h1.4v3.5h3.9v-3.5h1.4v8.3h-1.4V88h-3.9v3.7h-1.4V83.4z"/>
	<path class="st0" d="M241.8,91.6V90h1.6v1.6c0,0.6-0.1,1.1-0.3,1.4c-0.2,0.4-0.5,0.6-1,0.8l-0.4-0.6c0.3-0.1,0.5-0.3,0.7-0.6
		c0.1-0.3,0.2-0.6,0.2-1.1H241.8z"/>
	<path class="st0" d="M0.8,103.4H4c0.8,0,1.4,0.1,1.8,0.2s0.7,0.4,1,0.7c0.3,0.4,0.4,0.8,0.4,1.3c0,0.4-0.1,0.7-0.2,1
		c-0.2,0.3-0.4,0.5-0.7,0.7c0.4,0.1,0.7,0.4,1,0.7c0.3,0.4,0.4,0.8,0.4,1.3c-0.1,0.8-0.3,1.4-0.8,1.8c-0.5,0.4-1.3,0.6-2.2,0.6H0.8
		V103.4z M2.2,106.8h1.5c0.6,0,1,0,1.2-0.1s0.4-0.2,0.6-0.4c0.2-0.2,0.3-0.4,0.3-0.7c0-0.4-0.2-0.7-0.5-0.9s-0.8-0.3-1.6-0.3H2.2
		V106.8z M2.2,110.5H4c0.8,0,1.3-0.1,1.6-0.3c0.3-0.2,0.5-0.5,0.5-1c0-0.3-0.1-0.5-0.3-0.7s-0.4-0.4-0.7-0.4
		C4.9,108,4.5,108,3.9,108H2.2V110.5z"/>
	<path class="st0" d="M8.7,103.4h1.4v6.3l3.9-6.3h1.5v8.3h-1.4v-6.3l-3.9,6.3H8.7V103.4z"/>
	<path class="st0" d="M16.3,103.4h6.7v1.2h-2.7v7.1H19v-7.1h-2.7V103.4z"/>
	<path class="st0" d="M29.1,110.6c-0.5,0.4-1,0.8-1.5,0.9c-0.5,0.2-1,0.3-1.6,0.3c-0.9,0-1.6-0.2-2.1-0.7c-0.5-0.4-0.7-1-0.7-1.7
		c0-0.4,0.1-0.8,0.3-1.1c0.2-0.3,0.4-0.6,0.7-0.8c0.3-0.2,0.6-0.4,1-0.5c0.3-0.1,0.7-0.1,1.2-0.2c1.1-0.1,2-0.3,2.5-0.5
		c0-0.2,0-0.3,0-0.4c0-0.6-0.1-1-0.4-1.2c-0.4-0.3-0.9-0.5-1.6-0.5c-0.7,0-1.2,0.1-1.5,0.3c-0.3,0.2-0.5,0.6-0.7,1.2l-1.4-0.2
		c0.1-0.6,0.3-1.1,0.6-1.4c0.3-0.4,0.7-0.6,1.2-0.8c0.5-0.2,1.2-0.3,1.9-0.3c0.7,0,1.3,0.1,1.7,0.2c0.4,0.2,0.8,0.4,1,0.6
		c0.2,0.3,0.4,0.6,0.4,1c0,0.2,0.1,0.7,0.1,1.3v1.9c0,1.3,0,2.1,0.1,2.5c0.1,0.3,0.2,0.7,0.4,1h-1.5C29.2,111.4,29.1,111,29.1,110.6
		z M29,107.5c-0.5,0.2-1.3,0.4-2.3,0.5c-0.6,0.1-1,0.2-1.2,0.3c-0.2,0.1-0.4,0.3-0.6,0.5c-0.1,0.2-0.2,0.4-0.2,0.7
		c0,0.4,0.1,0.7,0.4,0.9c0.3,0.2,0.7,0.4,1.2,0.4c0.5,0,1-0.1,1.4-0.4c0.4-0.2,0.7-0.6,0.9-1c0.2-0.3,0.2-0.8,0.2-1.4V107.5z"/>
	<path class="st0" d="M32,103.4h2.2l2.2,6.6l2.4-6.6h2v8.3h-1.4V105l-2.5,6.7h-1.3l-2.3-7v7H32V103.4z"/>
	<path class="st0" d="M42.4,103.4h1.4v6.3l3.9-6.3h1.5v8.3h-1.4v-6.3l-3.9,6.3h-1.5V103.4z"/>
	<path class="st0" d="M50.8,103.4h1.4v3.5h3.9v-3.5h1.4v8.3h-1.4V108h-3.9v3.7h-1.4V103.4z"/>
	<path class="st0" d="M59.1,103.4h1.4v3.2h1.8c1.2,0,2.1,0.2,2.7,0.7c0.6,0.5,0.9,1.1,0.9,1.9c0,0.7-0.3,1.3-0.8,1.8
		s-1.4,0.7-2.5,0.7h-3.5V103.4z M60.5,110.5H62c0.9,0,1.5-0.1,1.9-0.3s0.6-0.6,0.6-1c0-0.4-0.1-0.7-0.4-1s-0.9-0.4-1.9-0.4h-1.7
		V110.5z M67,103.4h1.4v8.3H67V103.4z"/>
	<path class="st0" d="M82.3,107.6l1.5,0.4c-0.3,1.2-0.9,2.2-1.7,2.8c-0.8,0.7-1.8,1-3,1c-1.2,0-2.2-0.3-3-0.8
		c-0.8-0.5-1.4-1.2-1.8-2.2s-0.6-2-0.6-3.1c0-1.2,0.2-2.2,0.7-3.1c0.5-0.9,1.1-1.6,1.9-2s1.8-0.7,2.8-0.7c1.1,0,2.1,0.3,2.9,0.9
		c0.8,0.6,1.3,1.4,1.6,2.5l-1.5,0.4c-0.3-0.8-0.7-1.4-1.2-1.8c-0.5-0.4-1.1-0.6-1.9-0.6c-0.9,0-1.6,0.2-2.2,0.6s-1,1-1.2,1.7
		s-0.4,1.4-0.4,2.2c0,1,0.1,1.8,0.4,2.6s0.7,1.3,1.3,1.6s1.2,0.5,1.9,0.5c0.8,0,1.6-0.2,2.2-0.7C81.7,109.3,82.1,108.6,82.3,107.6z"
		/>
	<path class="st0" d="M85.3,111.6V110h1.6v1.6c0,0.6-0.1,1.1-0.3,1.4c-0.2,0.4-0.5,0.6-1,0.8l-0.4-0.6c0.3-0.1,0.5-0.3,0.7-0.6
		c0.1-0.3,0.2-0.6,0.2-1.1H85.3z"/>
	<path class="st0" d="M92.9,111.6v-11.5h8.3v1.4h-6.8v3.5h6.3v1.3h-6.3v3.9h7v1.4H92.9z"/>
	<path class="st0" d="M103.2,111.6V110h1.6v1.6c0,0.6-0.1,1.1-0.3,1.4c-0.2,0.4-0.5,0.6-1,0.8l-0.4-0.6c0.3-0.1,0.5-0.3,0.7-0.6
		c0.1-0.3,0.2-0.6,0.2-1.1H103.2z"/>
	<path class="st0" d="M110.6,103.4h3.2c0.8,0,1.4,0.1,1.8,0.2c0.4,0.1,0.7,0.4,1,0.7c0.3,0.4,0.4,0.8,0.4,1.3c0,0.4-0.1,0.7-0.2,1
		c-0.2,0.3-0.4,0.5-0.7,0.7c0.4,0.1,0.7,0.4,1,0.7c0.3,0.4,0.4,0.8,0.4,1.3c-0.1,0.8-0.3,1.4-0.8,1.8c-0.5,0.4-1.3,0.6-2.2,0.6h-3.7
		V103.4z M112,106.8h1.5c0.6,0,1,0,1.2-0.1c0.2-0.1,0.4-0.2,0.6-0.4c0.2-0.2,0.3-0.4,0.3-0.7c0-0.4-0.2-0.7-0.5-0.9
		c-0.3-0.2-0.8-0.3-1.6-0.3H112V106.8z M112,110.5h1.9c0.8,0,1.3-0.1,1.6-0.3c0.3-0.2,0.5-0.5,0.5-1c0-0.3-0.1-0.5-0.3-0.7
		s-0.4-0.4-0.7-0.4c-0.3-0.1-0.7-0.1-1.3-0.1H112V110.5z"/>
	<path class="st0" d="M118.5,103.4h1.4v6.3l3.9-6.3h1.5v8.3h-1.4v-6.3l-3.9,6.3h-1.5V103.4z"/>
	<path class="st0" d="M126.1,103.4h6.7v1.2h-2.7v7.1h-1.4v-7.1h-2.7V103.4z"/>
	<path class="st0" d="M138.9,110.6c-0.5,0.4-1,0.8-1.5,0.9s-1,0.3-1.6,0.3c-0.9,0-1.6-0.2-2.1-0.7c-0.5-0.4-0.7-1-0.7-1.7
		c0-0.4,0.1-0.8,0.3-1.1c0.2-0.3,0.4-0.6,0.7-0.8s0.6-0.4,1-0.5c0.3-0.1,0.7-0.1,1.2-0.2c1.1-0.1,2-0.3,2.5-0.5c0-0.2,0-0.3,0-0.4
		c0-0.6-0.1-1-0.4-1.2c-0.4-0.3-0.9-0.5-1.6-0.5c-0.7,0-1.1,0.1-1.5,0.3c-0.3,0.2-0.5,0.6-0.7,1.2l-1.4-0.2c0.1-0.6,0.3-1.1,0.6-1.4
		c0.3-0.4,0.7-0.6,1.2-0.8s1.2-0.3,1.9-0.3c0.7,0,1.3,0.1,1.7,0.2c0.4,0.2,0.8,0.4,1,0.6c0.2,0.3,0.4,0.6,0.4,1
		c0,0.2,0.1,0.7,0.1,1.3v1.9c0,1.3,0,2.1,0.1,2.5c0.1,0.3,0.2,0.7,0.4,1h-1.5C139,111.4,138.9,111,138.9,110.6z M138.8,107.5
		c-0.5,0.2-1.3,0.4-2.3,0.5c-0.6,0.1-1,0.2-1.2,0.3c-0.2,0.1-0.4,0.3-0.6,0.5c-0.1,0.2-0.2,0.4-0.2,0.7c0,0.4,0.1,0.7,0.4,0.9
		s0.7,0.4,1.2,0.4c0.5,0,1-0.1,1.4-0.4c0.4-0.2,0.7-0.6,0.9-1c0.2-0.3,0.2-0.8,0.2-1.4V107.5z"/>
	<path class="st0" d="M141.9,103.4h2.2l2.2,6.6l2.4-6.6h2v8.3h-1.4V105l-2.5,6.7h-1.3l-2.3-7v7h-1.4V103.4z"/>
	<path class="st0" d="M152.3,103.4h1.4v6.3l3.9-6.3h1.5v8.3h-1.4v-6.3l-3.9,6.3h-1.5V103.4z"/>
	<path class="st0" d="M160.6,103.4h1.4v3.5h3.9v-3.5h1.4v8.3h-1.4V108H162v3.7h-1.4V103.4z"/>
	<path class="st0" d="M168.9,103.4h1.4v3.2h1.8c1.2,0,2.1,0.2,2.7,0.7c0.6,0.5,0.9,1.1,0.9,1.9c0,0.7-0.3,1.3-0.8,1.8
		s-1.4,0.7-2.5,0.7h-3.5V103.4z M170.3,110.5h1.5c0.9,0,1.5-0.1,1.9-0.3s0.6-0.6,0.6-1c0-0.4-0.1-0.7-0.4-1s-0.9-0.4-1.9-0.4h-1.7
		V110.5z M176.8,103.4h1.4v8.3h-1.4V103.4z"/>
	<path class="st0" d="M183.7,103.4h4.8v1.2h-3.4v7.1h-1.4V103.4z"/>
	<path class="st0" d="M189,114.8v-11.5h1.3v1.1c0.3-0.4,0.6-0.7,1-0.9s0.8-0.3,1.4-0.3c0.7,0,1.3,0.2,1.9,0.5c0.5,0.4,1,0.9,1.2,1.5
		s0.4,1.4,0.4,2.2c0,0.8-0.2,1.6-0.5,2.3s-0.7,1.2-1.3,1.6s-1.2,0.5-1.8,0.5c-0.5,0-0.9-0.1-1.3-0.3s-0.7-0.4-0.9-0.8v4H189z
		 M190.3,107.5c0,1.1,0.2,1.9,0.6,2.4c0.4,0.5,1,0.8,1.6,0.8c0.6,0,1.2-0.3,1.6-0.8c0.4-0.5,0.7-1.3,0.7-2.5c0-1.1-0.2-1.8-0.7-2.4
		c-0.4-0.5-1-0.8-1.6-0.8c-0.6,0-1.1,0.3-1.6,0.8C190.5,105.7,190.3,106.5,190.3,107.5z"/>
	<path class="st0" d="M197.1,114.8l-0.2-1.3c0.3,0.1,0.6,0.1,0.8,0.1c0.3,0,0.6-0.1,0.8-0.2c0.2-0.1,0.3-0.2,0.5-0.4
		c0.1-0.1,0.2-0.5,0.4-1c0-0.1,0.1-0.2,0.1-0.3l-3.1-8.3h1.5l1.7,4.8c0.2,0.6,0.4,1.2,0.6,1.9c0.2-0.6,0.4-1.3,0.6-1.9l1.8-4.8h1.4
		l-3.2,8.4c-0.3,0.9-0.6,1.5-0.8,1.9c-0.2,0.5-0.5,0.8-0.9,1c-0.3,0.2-0.7,0.3-1.2,0.3C197.7,115,197.4,115,197.1,114.8z"/>
	<path class="st0" d="M204.6,103.4h6.5v8.3h-1.4v-7.1H206v7.1h-1.4V103.4z"/>
	<path class="st0" d="M212.7,103.4h6.5v8.3h-1.4v-7.1h-3.7v7.1h-1.4V103.4z"/>
	<path class="st0" d="M220.8,103.4h1.4v3.2h1.8c1.2,0,2.1,0.2,2.7,0.7c0.6,0.5,0.9,1.1,0.9,1.9c0,0.7-0.3,1.3-0.8,1.8
		s-1.4,0.7-2.5,0.7h-3.5V103.4z M222.3,110.5h1.5c0.9,0,1.5-0.1,1.9-0.3s0.6-0.6,0.6-1c0-0.4-0.1-0.7-0.4-1s-0.9-0.4-1.9-0.4h-1.7
		V110.5z M228.7,103.4h1.4v8.3h-1.4V103.4z"/>
	<path class="st0" d="M235.8,111.6v-11.5h4.3c0.9,0,1.6,0.1,2.1,0.3c0.5,0.2,0.9,0.6,1.2,1.1c0.3,0.5,0.4,1,0.4,1.5
		c0,0.5-0.1,1-0.4,1.4c-0.3,0.4-0.7,0.8-1.2,1c0.7,0.2,1.2,0.5,1.6,1c0.4,0.5,0.6,1.1,0.6,1.7c0,0.5-0.1,1-0.3,1.5s-0.5,0.8-0.8,1.1
		s-0.8,0.4-1.3,0.6c-0.5,0.1-1.1,0.2-1.8,0.2H235.8z M237.3,105h2.5c0.7,0,1.2,0,1.4-0.1c0.4-0.1,0.7-0.3,0.9-0.6s0.3-0.6,0.3-1
		c0-0.4-0.1-0.7-0.3-1s-0.4-0.5-0.8-0.6c-0.3-0.1-0.9-0.2-1.7-0.2h-2.3V105z M237.3,110.3h2.9c0.5,0,0.8,0,1-0.1
		c0.3-0.1,0.6-0.2,0.9-0.3c0.2-0.1,0.4-0.4,0.6-0.6c0.2-0.3,0.2-0.6,0.2-1c0-0.4-0.1-0.8-0.3-1.1c-0.2-0.3-0.5-0.5-0.9-0.7
		c-0.4-0.1-0.9-0.2-1.7-0.2h-2.6V110.3z"/>
	<path class="st0" d="M246.1,105v-1.6h1.6v1.6H246.1z M246.1,111.6V110h1.6v1.6H246.1z"/>
	<path class="st0" d="M0.9,131.6v-11.5h4.3c0.9,0,1.6,0.1,2.1,0.3c0.5,0.2,0.9,0.6,1.2,1.1c0.3,0.5,0.4,1,0.4,1.5
		c0,0.5-0.1,1-0.4,1.4c-0.3,0.4-0.7,0.8-1.2,1c0.7,0.2,1.2,0.5,1.6,1c0.4,0.5,0.6,1.1,0.6,1.7c0,0.5-0.1,1-0.3,1.5s-0.5,0.8-0.8,1.1
		s-0.8,0.4-1.3,0.6c-0.5,0.1-1.1,0.2-1.8,0.2H0.9z M2.4,125h2.5c0.7,0,1.2,0,1.4-0.1c0.4-0.1,0.7-0.3,0.9-0.6s0.3-0.6,0.3-1
		c0-0.4-0.1-0.7-0.3-1s-0.4-0.5-0.8-0.6c-0.3-0.1-0.9-0.2-1.7-0.2H2.4V125z M2.4,130.3h2.9c0.5,0,0.8,0,1-0.1
		c0.3-0.1,0.6-0.2,0.9-0.3c0.2-0.1,0.4-0.4,0.6-0.6c0.2-0.3,0.2-0.6,0.2-1c0-0.4-0.1-0.8-0.3-1.1c-0.2-0.3-0.5-0.5-0.9-0.7
		c-0.4-0.1-0.9-0.2-1.7-0.2H2.4V130.3z"/>
	<path class="st0" d="M15.8,131.6h-1.4v-9c-0.3,0.3-0.8,0.6-1.3,1c-0.5,0.3-1,0.6-1.5,0.7V123c0.8-0.4,1.5-0.8,2.1-1.3
		c0.6-0.5,1-1,1.2-1.5h0.9V131.6z"/>
	<path class="st0" d="M19.6,131.6V130h1.6v1.6c0,0.6-0.1,1.1-0.3,1.4c-0.2,0.4-0.5,0.6-1,0.8l-0.4-0.6c0.3-0.1,0.5-0.3,0.7-0.6
		c0.1-0.3,0.2-0.6,0.2-1.1H19.6z"/>
	<path class="st0" d="M27.1,131.6v-11.5h4.3c0.9,0,1.6,0.1,2.1,0.3c0.5,0.2,0.9,0.6,1.2,1.1c0.3,0.5,0.4,1,0.4,1.5
		c0,0.5-0.1,1-0.4,1.4c-0.3,0.4-0.7,0.8-1.2,1c0.7,0.2,1.2,0.5,1.6,1c0.4,0.5,0.6,1.1,0.6,1.7c0,0.5-0.1,1-0.3,1.5s-0.5,0.8-0.8,1.1
		s-0.8,0.4-1.3,0.6c-0.5,0.1-1.1,0.2-1.8,0.2H27.1z M28.6,125h2.5c0.7,0,1.2,0,1.4-0.1c0.4-0.1,0.7-0.3,0.9-0.6s0.3-0.6,0.3-1
		c0-0.4-0.1-0.7-0.3-1s-0.4-0.5-0.8-0.6c-0.3-0.1-0.9-0.2-1.7-0.2h-2.3V125z M28.6,130.3h2.9c0.5,0,0.8,0,1-0.1
		c0.3-0.1,0.6-0.2,0.9-0.3c0.2-0.1,0.4-0.4,0.6-0.6c0.2-0.3,0.2-0.6,0.2-1c0-0.4-0.1-0.8-0.3-1.1c-0.2-0.3-0.5-0.5-0.9-0.7
		c-0.4-0.1-0.9-0.2-1.7-0.2h-2.6V130.3z"/>
	<path class="st0" d="M44.1,130.3v1.4h-7.6c0-0.3,0-0.7,0.2-1c0.2-0.5,0.5-1,0.9-1.5s1-1.1,1.8-1.7c1.2-1,2.1-1.8,2.5-2.4
		c0.4-0.6,0.7-1.2,0.7-1.7c0-0.6-0.2-1-0.6-1.4s-0.9-0.6-1.6-0.6c-0.7,0-1.2,0.2-1.6,0.6s-0.6,1-0.6,1.7l-1.4-0.1
		c0.1-1.1,0.5-1.9,1.1-2.5c0.6-0.6,1.5-0.8,2.6-0.8c1.1,0,2,0.3,2.6,0.9s1,1.4,1,2.3c0,0.5-0.1,0.9-0.3,1.4
		c-0.2,0.4-0.5,0.9-0.9,1.4c-0.4,0.5-1.2,1.2-2.2,2c-0.8,0.7-1.4,1.2-1.6,1.4c-0.2,0.3-0.4,0.5-0.6,0.8H44.1z"/>
	<path class="st0" d="M45.8,131.6V130h1.6v1.6c0,0.6-0.1,1.1-0.3,1.4c-0.2,0.4-0.5,0.6-1,0.8l-0.4-0.6c0.3-0.1,0.5-0.3,0.7-0.6
		c0.1-0.3,0.2-0.6,0.2-1.1H45.8z"/>
	<path class="st0" d="M53.3,131.6v-11.5h4.3c0.9,0,1.6,0.1,2.1,0.3c0.5,0.2,0.9,0.6,1.2,1.1c0.3,0.5,0.4,1,0.4,1.5
		c0,0.5-0.1,1-0.4,1.4c-0.3,0.4-0.7,0.8-1.2,1c0.7,0.2,1.2,0.5,1.6,1c0.4,0.5,0.6,1.1,0.6,1.7c0,0.5-0.1,1-0.3,1.5s-0.5,0.8-0.8,1.1
		c-0.3,0.2-0.8,0.4-1.3,0.6c-0.5,0.1-1.1,0.2-1.8,0.2H53.3z M54.8,125h2.5c0.7,0,1.2,0,1.4-0.1c0.4-0.1,0.7-0.3,0.9-0.6
		s0.3-0.6,0.3-1c0-0.4-0.1-0.7-0.3-1c-0.2-0.3-0.4-0.5-0.8-0.6c-0.3-0.1-0.9-0.2-1.7-0.2h-2.3V125z M54.8,130.3h2.9
		c0.5,0,0.8,0,1-0.1c0.3-0.1,0.6-0.2,0.9-0.3c0.2-0.1,0.4-0.4,0.6-0.6c0.2-0.3,0.2-0.6,0.2-1c0-0.4-0.1-0.8-0.3-1.1
		c-0.2-0.3-0.5-0.5-0.9-0.7c-0.4-0.1-0.9-0.2-1.7-0.2h-2.6V130.3z"/>
	<path class="st0" d="M62.9,128.6l1.4-0.2c0.2,0.8,0.4,1.4,0.8,1.7s0.9,0.5,1.4,0.5c0.7,0,1.2-0.2,1.7-0.7c0.5-0.5,0.7-1,0.7-1.7
		c0-0.6-0.2-1.2-0.6-1.6c-0.4-0.4-1-0.6-1.6-0.6c-0.3,0-0.6,0.1-1,0.2l0.2-1.2c0.1,0,0.2,0,0.2,0c0.6,0,1.1-0.2,1.6-0.5
		s0.7-0.8,0.7-1.4c0-0.5-0.2-0.9-0.5-1.3c-0.3-0.3-0.8-0.5-1.4-0.5c-0.5,0-1,0.2-1.4,0.5s-0.6,0.9-0.7,1.5l-1.4-0.2
		c0.2-0.9,0.6-1.7,1.2-2.2c0.6-0.5,1.4-0.8,2.3-0.8c0.6,0,1.2,0.1,1.7,0.4c0.5,0.3,0.9,0.6,1.2,1.1c0.3,0.5,0.4,1,0.4,1.5
		c0,0.5-0.1,0.9-0.4,1.4s-0.7,0.7-1.2,1c0.7,0.2,1.2,0.5,1.6,1s0.6,1.1,0.6,1.8c0,1-0.4,1.8-1.1,2.5s-1.7,1-2.8,1
		c-1,0-1.8-0.3-2.5-0.9C63.4,130.4,63,129.6,62.9,128.6z"/>
	<path class="st0" d="M78.2,135c-0.8-1-1.4-2.1-2-3.4s-0.8-2.7-0.8-4.1c0-1.2,0.2-2.4,0.6-3.6c0.5-1.3,1.2-2.6,2.2-3.9h1
		c-0.6,1.1-1,1.9-1.2,2.3c-0.3,0.7-0.6,1.5-0.8,2.2c-0.2,1-0.3,2-0.3,2.9c0,2.5,0.8,5,2.3,7.5H78.2z"/>
	<path class="st0" d="M80.3,123.4h1.4v3.5h3.9v-3.5H87v8.3h-1.4V128h-3.9v3.7h-1.4V123.4z"/>
	<path class="st0" d="M88.6,123.4H90v6.3l3.9-6.3h1.5v8.3H94v-6.3l-3.9,6.3h-1.5V123.4z"/>
	<path class="st0" d="M102.4,130.6c-0.5,0.4-1,0.8-1.5,0.9s-1,0.3-1.6,0.3c-0.9,0-1.6-0.2-2.1-0.7s-0.7-1-0.7-1.7
		c0-0.4,0.1-0.8,0.3-1.1s0.4-0.6,0.7-0.8s0.6-0.4,1-0.5c0.3-0.1,0.7-0.1,1.2-0.2c1.1-0.1,2-0.3,2.5-0.5c0-0.2,0-0.3,0-0.4
		c0-0.6-0.1-1-0.4-1.2c-0.4-0.3-0.9-0.5-1.6-0.5c-0.7,0-1.1,0.1-1.5,0.3c-0.3,0.2-0.5,0.6-0.7,1.2l-1.4-0.2c0.1-0.6,0.3-1.1,0.6-1.4
		c0.3-0.4,0.7-0.6,1.2-0.8s1.2-0.3,1.9-0.3c0.7,0,1.3,0.1,1.7,0.2c0.4,0.2,0.8,0.4,1,0.6c0.2,0.3,0.4,0.6,0.4,1
		c0,0.2,0.1,0.7,0.1,1.3v1.9c0,1.3,0,2.1,0.1,2.5c0.1,0.3,0.2,0.7,0.4,1h-1.5C102.5,131.4,102.4,131,102.4,130.6z M102.3,127.5
		c-0.5,0.2-1.3,0.4-2.3,0.5c-0.6,0.1-1,0.2-1.2,0.3c-0.2,0.1-0.4,0.3-0.6,0.5c-0.1,0.2-0.2,0.4-0.2,0.7c0,0.4,0.1,0.7,0.4,0.9
		s0.7,0.4,1.2,0.4c0.5,0,1-0.1,1.4-0.4c0.4-0.2,0.7-0.6,0.9-1c0.2-0.3,0.2-0.8,0.2-1.4V127.5z"/>
	<path class="st0" d="M105.3,123.4h1.4v7.1h3.9v-7.1h1.4v7.1h0.9v3.5h-1.2v-2.4h-6.5V123.4z"/>
	<path class="st0" d="M113.9,123.4h1.4v6.3l3.9-6.3h1.5v8.3h-1.4v-6.3l-3.9,6.3h-1.5V123.4z"/>
	<path class="st0" d="M122.3,123.4h1.4v3.5h3.9v-3.5h1.4v8.3h-1.4V128h-3.9v3.7h-1.4V123.4z"/>
	<path class="st0" d="M131.5,135h-1c1.6-2.5,2.3-5,2.3-7.5c0-1-0.1-2-0.3-2.9c-0.2-0.8-0.4-1.5-0.7-2.2c-0.2-0.5-0.6-1.2-1.3-2.3h1
		c1,1.3,1.7,2.6,2.2,3.9c0.4,1.1,0.6,2.3,0.6,3.6c0,1.4-0.3,2.8-0.8,4.1S132.2,134,131.5,135z"/>
	<path class="st0" d="M135.7,131.6V130h1.6v1.6c0,0.6-0.1,1.1-0.3,1.4c-0.2,0.4-0.5,0.6-1,0.8l-0.4-0.6c0.3-0.1,0.5-0.3,0.7-0.6
		c0.1-0.3,0.2-0.6,0.2-1.1H135.7z"/>
	<path class="st0" d="M143.2,131.6v-11.5h4.3c0.9,0,1.6,0.1,2.1,0.3c0.5,0.2,0.9,0.6,1.2,1.1c0.3,0.5,0.4,1,0.4,1.5
		c0,0.5-0.1,1-0.4,1.4c-0.3,0.4-0.7,0.8-1.2,1c0.7,0.2,1.2,0.5,1.6,1c0.4,0.5,0.6,1.1,0.6,1.7c0,0.5-0.1,1-0.3,1.5s-0.5,0.8-0.8,1.1
		s-0.8,0.4-1.3,0.6c-0.5,0.1-1.1,0.2-1.8,0.2H143.2z M144.7,125h2.5c0.7,0,1.2,0,1.4-0.1c0.4-0.1,0.7-0.3,0.9-0.6s0.3-0.6,0.3-1
		c0-0.4-0.1-0.7-0.3-1s-0.4-0.5-0.8-0.6c-0.3-0.1-0.9-0.2-1.7-0.2h-2.3V125z M144.7,130.3h2.9c0.5,0,0.8,0,1-0.1
		c0.3-0.1,0.6-0.2,0.9-0.3c0.2-0.1,0.4-0.4,0.6-0.6c0.2-0.3,0.2-0.6,0.2-1c0-0.4-0.1-0.8-0.3-1.1c-0.2-0.3-0.5-0.5-0.9-0.7
		c-0.4-0.1-0.9-0.2-1.7-0.2h-2.6V130.3z"/>
	<path class="st0" d="M160.1,123l-1.4,0.1c-0.1-0.6-0.3-1-0.5-1.2c-0.4-0.4-0.8-0.6-1.4-0.6c-0.4,0-0.8,0.1-1.2,0.4
		c-0.4,0.3-0.8,0.8-1,1.4c-0.3,0.6-0.4,1.5-0.4,2.6c0.3-0.5,0.8-0.9,1.2-1.1s1-0.4,1.5-0.4c0.9,0,1.7,0.3,2.4,1c0.7,0.7,1,1.6,1,2.7
		c0,0.7-0.2,1.4-0.5,2s-0.7,1.1-1.3,1.4s-1.2,0.5-1.8,0.5c-1.2,0-2.1-0.4-2.9-1.3c-0.7-0.9-1.1-2.3-1.1-4.3c0-2.2,0.4-3.8,1.2-4.8
		c0.7-0.9,1.7-1.3,2.9-1.3c0.9,0,1.6,0.3,2.2,0.8C159.6,121.4,160,122.1,160.1,123z M154.4,127.9c0,0.5,0.1,0.9,0.3,1.4
		c0.2,0.4,0.5,0.8,0.9,1c0.4,0.2,0.8,0.3,1.2,0.3c0.6,0,1.1-0.2,1.5-0.7c0.4-0.5,0.6-1.1,0.6-2c0-0.8-0.2-1.4-0.6-1.9
		c-0.4-0.5-1-0.7-1.6-0.7c-0.6,0-1.2,0.2-1.6,0.7C154.6,126.6,154.4,127.2,154.4,127.9z"/>
	<path class="st0" d="M161.9,131.6V130h1.6v1.6c0,0.6-0.1,1.1-0.3,1.4c-0.2,0.4-0.5,0.6-1,0.8l-0.4-0.6c0.3-0.1,0.5-0.3,0.7-0.6
		c0.1-0.3,0.2-0.6,0.2-1.1H161.9z"/>
	<path class="st0" d="M169.4,131.6v-11.5h4.3c0.9,0,1.6,0.1,2.1,0.3c0.5,0.2,0.9,0.6,1.2,1.1c0.3,0.5,0.4,1,0.4,1.5
		c0,0.5-0.1,1-0.4,1.4c-0.3,0.4-0.7,0.8-1.2,1c0.7,0.2,1.2,0.5,1.6,1c0.4,0.5,0.6,1.1,0.6,1.7c0,0.5-0.1,1-0.3,1.5s-0.5,0.8-0.8,1.1
		s-0.8,0.4-1.3,0.6c-0.5,0.1-1.1,0.2-1.8,0.2H169.4z M170.9,125h2.5c0.7,0,1.2,0,1.4-0.1c0.4-0.1,0.7-0.3,0.9-0.6s0.3-0.6,0.3-1
		c0-0.4-0.1-0.7-0.3-1s-0.4-0.5-0.8-0.6c-0.3-0.1-0.9-0.2-1.7-0.2h-2.3V125z M170.9,130.3h2.9c0.5,0,0.8,0,1-0.1
		c0.3-0.1,0.6-0.2,0.9-0.3c0.2-0.1,0.4-0.4,0.6-0.6c0.2-0.3,0.2-0.6,0.2-1c0-0.4-0.1-0.8-0.3-1.1c-0.2-0.3-0.5-0.5-0.9-0.7
		c-0.4-0.1-0.9-0.2-1.7-0.2h-2.6V130.3z"/>
	<path class="st0" d="M179.2,129l1.4-0.1c0.1,0.6,0.3,1.1,0.7,1.4c0.3,0.3,0.7,0.4,1.2,0.4c0.4,0,0.8-0.1,1.1-0.3
		c0.3-0.2,0.6-0.5,0.8-0.8c0.2-0.3,0.4-0.8,0.5-1.3s0.2-1.1,0.2-1.7c0-0.1,0-0.2,0-0.3c-0.3,0.4-0.7,0.8-1.2,1.1
		c-0.5,0.3-1,0.4-1.6,0.4c-0.9,0-1.8-0.3-2.4-1s-1-1.6-1-2.7c0-1.2,0.3-2.1,1-2.8c0.7-0.7,1.5-1.1,2.6-1.1c0.7,0,1.4,0.2,2,0.6
		c0.6,0.4,1.1,1,1.4,1.7s0.5,1.8,0.5,3.2c0,1.5-0.2,2.6-0.5,3.5s-0.8,1.5-1.4,2s-1.4,0.7-2.2,0.7c-0.9,0-1.6-0.2-2.2-0.7
		C179.7,130.6,179.4,129.9,179.2,129z M185,123.9c0-0.8-0.2-1.4-0.6-1.9c-0.4-0.5-0.9-0.7-1.6-0.7c-0.6,0-1.2,0.3-1.6,0.8
		c-0.5,0.5-0.7,1.2-0.7,2c0,0.7,0.2,1.3,0.7,1.8c0.4,0.5,1,0.7,1.6,0.7c0.7,0,1.2-0.2,1.6-0.7C184.8,125.4,185,124.8,185,123.9z"/>
	<path class="st0" d="M3.4,155c-0.8-1-1.4-2.1-2-3.4s-0.8-2.7-0.8-4.1c0-1.2,0.2-2.4,0.6-3.6c0.5-1.3,1.2-2.6,2.2-3.9h1
		c-0.6,1.1-1,1.9-1.2,2.3c-0.3,0.7-0.6,1.5-0.8,2.2c-0.2,1-0.3,2-0.3,2.9c0,2.5,0.8,5,2.3,7.5H3.4z"/>
	<path class="st0" d="M10.4,140.2h1.4v4c0.3-0.3,0.6-0.6,1-0.7c0.3-0.2,0.7-0.2,1.1-0.2c1,0,1.8,0.4,2.3,1.2
		c0.6,0.8,0.9,1.9,0.9,3.1c0,1.3-0.3,2.3-0.9,3.1c-0.6,0.8-1.4,1.2-2.3,1.2c-0.3,0-0.6,0-0.9-0.1s-0.7-0.3-1.1-0.8v3.9h-1.4v-3.9
		c-0.3,0.3-0.6,0.5-0.9,0.7c-0.3,0.2-0.7,0.2-1.1,0.2c-0.9,0-1.6-0.4-2.3-1.1c-0.7-0.8-1-1.9-1-3.3c0-1.2,0.3-2.2,0.9-3
		c0.6-0.8,1.4-1.2,2.4-1.2c0.4,0,0.8,0.1,1.1,0.2c0.3,0.2,0.6,0.4,0.9,0.7V140.2z M6.5,147.4c0,1.2,0.2,2,0.6,2.5
		c0.4,0.5,0.9,0.8,1.5,0.8c0.6,0,1.1-0.3,1.4-0.8c0.3-0.5,0.5-1.3,0.5-2.3c0-1.1-0.2-1.9-0.5-2.5c-0.3-0.5-0.8-0.8-1.4-0.8
		c-0.6,0-1,0.3-1.4,0.8C6.7,145.7,6.5,146.4,6.5,147.4z M11.8,147.5c0,1.2,0.2,2.1,0.5,2.5s0.8,0.6,1.3,0.6c0.6,0,1.1-0.3,1.5-0.8
		c0.4-0.5,0.6-1.4,0.6-2.5c0-1.1-0.2-1.8-0.6-2.4c-0.4-0.5-0.9-0.8-1.4-0.8c-0.6,0-1.1,0.3-1.4,0.8
		C11.9,145.7,11.8,146.5,11.8,147.5z"/>
	<path class="st0" d="M17.6,147.5c0-1.5,0.4-2.7,1.3-3.4c0.7-0.6,1.6-0.9,2.6-0.9c1.1,0,2.1,0.4,2.8,1.1c0.7,0.7,1.1,1.8,1.1,3.1
		c0,1.1-0.2,1.9-0.5,2.5c-0.3,0.6-0.8,1.1-1.4,1.4s-1.3,0.5-2,0.5c-1.2,0-2.1-0.4-2.8-1.1C18,150,17.6,148.9,17.6,147.5z
		 M19.1,147.5c0,1.1,0.2,1.9,0.7,2.4c0.5,0.5,1,0.8,1.8,0.8c0.7,0,1.3-0.3,1.7-0.8s0.7-1.3,0.7-2.4c0-1-0.2-1.8-0.7-2.3
		c-0.5-0.5-1-0.8-1.7-0.8c-0.7,0-1.3,0.3-1.8,0.8C19.3,145.6,19.1,146.4,19.1,147.5z"/>
	<path class="st0" d="M26.8,143.4h6.5v8.3h-1.4v-7.1h-3.7v4.1c0,1,0,1.6-0.1,1.9c-0.1,0.3-0.2,0.6-0.5,0.8c-0.3,0.2-0.7,0.3-1.2,0.3
		c-0.3,0-0.7,0-1.1-0.1v-1.2h0.6c0.3,0,0.5,0,0.6-0.1c0.1-0.1,0.2-0.2,0.2-0.3c0-0.1,0.1-0.6,0.1-1.3V143.4z"/>
	<path class="st0" d="M34.9,143.4h1.4v6.3l3.9-6.3h1.5v8.3h-1.4v-6.3l-3.9,6.3h-1.5V143.4z"/>
	<path class="st0" d="M49,149l1.5,0.2c-0.2,0.8-0.7,1.5-1.3,2s-1.4,0.7-2.4,0.7c-1.2,0-2.2-0.4-2.9-1.1c-0.7-0.7-1.1-1.8-1.1-3.1
		c0-1.4,0.4-2.5,1.1-3.2c0.7-0.8,1.7-1.2,2.8-1.2c1.1,0,2,0.4,2.7,1.1c0.7,0.8,1.1,1.8,1.1,3.2c0,0.1,0,0.2,0,0.4h-6.2
		c0.1,0.9,0.3,1.6,0.8,2.1s1,0.7,1.7,0.7c0.5,0,1-0.1,1.3-0.4C48.4,150,48.7,149.6,49,149z M44.3,146.7H49c-0.1-0.7-0.2-1.2-0.5-1.6
		c-0.4-0.5-1-0.8-1.7-0.8c-0.6,0-1.2,0.2-1.6,0.6C44.6,145.4,44.4,146,44.3,146.7z"/>
	<path class="st0" d="M51.6,143.4h3.2c0.8,0,1.4,0.1,1.8,0.2c0.4,0.1,0.7,0.4,1,0.7c0.3,0.4,0.4,0.8,0.4,1.3c0,0.4-0.1,0.7-0.2,1
		c-0.2,0.3-0.4,0.5-0.7,0.7c0.4,0.1,0.7,0.4,1,0.7c0.3,0.4,0.4,0.8,0.4,1.3c-0.1,0.8-0.3,1.4-0.8,1.8c-0.5,0.4-1.3,0.6-2.2,0.6h-3.7
		V143.4z M53,146.8h1.5c0.6,0,1,0,1.2-0.1c0.2-0.1,0.4-0.2,0.6-0.4c0.2-0.2,0.3-0.4,0.3-0.7c0-0.4-0.2-0.7-0.5-0.9
		c-0.3-0.2-0.8-0.3-1.6-0.3H53V146.8z M53,150.5h1.9c0.8,0,1.3-0.1,1.6-0.3c0.3-0.2,0.5-0.5,0.5-1c0-0.3-0.1-0.5-0.3-0.7
		s-0.4-0.4-0.7-0.4c-0.3-0.1-0.7-0.1-1.3-0.1H53V150.5z"/>
	<path class="st0" d="M64.8,150.6c-0.5,0.4-1,0.8-1.5,0.9s-1,0.3-1.6,0.3c-0.9,0-1.6-0.2-2.1-0.7s-0.7-1-0.7-1.7
		c0-0.4,0.1-0.8,0.3-1.1s0.4-0.6,0.7-0.8s0.6-0.4,1-0.5c0.3-0.1,0.7-0.1,1.2-0.2c1.1-0.1,2-0.3,2.5-0.5c0-0.2,0-0.3,0-0.4
		c0-0.6-0.1-1-0.4-1.2c-0.4-0.3-0.9-0.5-1.6-0.5c-0.7,0-1.1,0.1-1.5,0.3c-0.3,0.2-0.5,0.6-0.7,1.2l-1.4-0.2c0.1-0.6,0.3-1.1,0.6-1.4
		c0.3-0.4,0.7-0.6,1.2-0.8s1.2-0.3,1.9-0.3c0.7,0,1.3,0.1,1.7,0.2c0.4,0.2,0.8,0.4,1,0.6c0.2,0.3,0.4,0.6,0.4,1
		c0,0.2,0.1,0.7,0.1,1.3v1.9c0,1.3,0,2.1,0.1,2.5c0.1,0.3,0.2,0.7,0.4,1h-1.5C64.9,151.4,64.8,151,64.8,150.6z M64.7,147.5
		c-0.5,0.2-1.3,0.4-2.3,0.5c-0.6,0.1-1,0.2-1.2,0.3c-0.2,0.1-0.4,0.3-0.6,0.5c-0.1,0.2-0.2,0.4-0.2,0.7c0,0.4,0.1,0.7,0.4,0.9
		s0.7,0.4,1.2,0.4c0.5,0,1-0.1,1.4-0.4c0.4-0.2,0.7-0.6,0.9-1c0.2-0.3,0.2-0.8,0.2-1.4V147.5z"/>
	<path class="st0" d="M74.2,143.4v8.3h-1.4v-3.2H72c-0.5,0-0.9,0.1-1.1,0.2c-0.2,0.1-0.6,0.5-1.1,1.2l-1.2,1.8h-1.7l1.5-2.2
		c0.5-0.7,0.9-1.1,1.4-1.2c-0.8-0.1-1.4-0.4-1.8-0.9c-0.4-0.5-0.6-1-0.6-1.6c0-0.7,0.3-1.3,0.8-1.8c0.5-0.4,1.2-0.7,2.2-0.7H74.2z
		 M72.8,144.5h-2c-0.8,0-1.4,0.1-1.6,0.4c-0.2,0.3-0.4,0.6-0.4,0.9c0,0.5,0.2,0.9,0.5,1.1c0.4,0.2,1,0.3,1.9,0.3h1.6V144.5z"/>
	<path class="st0" d="M79.7,143.4h1.4v3.6c0.4,0,0.8-0.1,0.9-0.3s0.4-0.7,0.8-1.5c0.3-0.7,0.5-1.1,0.7-1.3c0.2-0.2,0.4-0.3,0.6-0.4
		c0.2-0.1,0.6-0.1,1.1-0.1h0.3v1.2l-0.4,0c-0.4,0-0.6,0.1-0.7,0.2c-0.1,0.1-0.3,0.5-0.5,1c-0.2,0.5-0.4,0.9-0.6,1.1
		c-0.2,0.2-0.5,0.4-0.8,0.6c0.6,0.2,1.2,0.7,1.8,1.7l1.5,2.6h-1.5l-1.5-2.6c-0.3-0.5-0.6-0.9-0.8-1c-0.2-0.2-0.5-0.2-0.8-0.2v3.8
		h-1.4V143.4z"/>
	<path class="st0" d="M86.1,143.4h1.4v6.3l3.9-6.3H93v8.3h-1.4v-6.3l-3.9,6.3h-1.5V143.4z"/>
	<path class="st0" d="M99.9,148.6l1.4,0.2c-0.2,1-0.5,1.7-1.2,2.2c-0.6,0.5-1.4,0.8-2.3,0.8c-1.1,0-2-0.4-2.7-1.1
		c-0.7-0.7-1-1.8-1-3.2c0-0.9,0.1-1.7,0.4-2.4s0.7-1.2,1.4-1.5c0.6-0.3,1.3-0.5,2-0.5c0.9,0,1.6,0.2,2.2,0.7
		c0.6,0.5,0.9,1.1,1.1,1.9l-1.4,0.2c-0.1-0.6-0.4-1-0.7-1.3c-0.3-0.3-0.7-0.4-1.2-0.4c-0.7,0-1.3,0.3-1.7,0.8
		c-0.4,0.5-0.7,1.3-0.7,2.4c0,1.1,0.2,1.9,0.6,2.4c0.4,0.5,1,0.8,1.7,0.8c0.6,0,1-0.2,1.4-0.5C99.6,149.8,99.8,149.3,99.9,148.6z"/>
	<path class="st0" d="M102.6,143.4h6.5v8.3h-1.4v-7.1H104v4.1c0,1,0,1.6-0.1,1.9c-0.1,0.3-0.2,0.6-0.5,0.8c-0.3,0.2-0.7,0.3-1.2,0.3
		c-0.3,0-0.7,0-1.1-0.1v-1.2h0.6c0.3,0,0.5,0,0.6-0.1c0.1-0.1,0.2-0.2,0.2-0.3c0-0.1,0.1-0.6,0.1-1.3V143.4z"/>
	<path class="st0" d="M110.4,147.5c0-1.5,0.4-2.7,1.3-3.4c0.7-0.6,1.6-0.9,2.6-0.9c1.1,0,2.1,0.4,2.8,1.1c0.7,0.7,1.1,1.8,1.1,3.1
		c0,1.1-0.2,1.9-0.5,2.5c-0.3,0.6-0.8,1.1-1.4,1.4s-1.3,0.5-2,0.5c-1.2,0-2.1-0.4-2.8-1.1C110.7,150,110.4,148.9,110.4,147.5z
		 M111.8,147.5c0,1.1,0.2,1.9,0.7,2.4c0.5,0.5,1,0.8,1.8,0.8c0.7,0,1.3-0.3,1.7-0.8s0.7-1.3,0.7-2.4c0-1-0.2-1.8-0.7-2.3
		c-0.5-0.5-1-0.8-1.7-0.8c-0.7,0-1.3,0.3-1.8,0.8C112.1,145.6,111.8,146.4,111.8,147.5z"/>
	<path class="st0" d="M118.1,143.4h6.7v1.2h-2.7v7.1h-1.4v-7.1h-2.7V143.4z"/>
	<path class="st0" d="M130.9,150.6c-0.5,0.4-1,0.8-1.5,0.9s-1,0.3-1.6,0.3c-0.9,0-1.6-0.2-2.1-0.7s-0.7-1-0.7-1.7
		c0-0.4,0.1-0.8,0.3-1.1s0.4-0.6,0.7-0.8s0.6-0.4,1-0.5c0.3-0.1,0.7-0.1,1.2-0.2c1.1-0.1,2-0.3,2.5-0.5c0-0.2,0-0.3,0-0.4
		c0-0.6-0.1-1-0.4-1.2c-0.4-0.3-0.9-0.5-1.6-0.5c-0.7,0-1.1,0.1-1.5,0.3c-0.3,0.2-0.5,0.6-0.7,1.2l-1.4-0.2c0.1-0.6,0.3-1.1,0.6-1.4
		c0.3-0.4,0.7-0.6,1.2-0.8s1.2-0.3,1.9-0.3c0.7,0,1.3,0.1,1.7,0.2c0.4,0.2,0.8,0.4,1,0.6c0.2,0.3,0.4,0.6,0.4,1
		c0,0.2,0.1,0.7,0.1,1.3v1.9c0,1.3,0,2.1,0.1,2.5c0.1,0.3,0.2,0.7,0.4,1h-1.5C131,151.4,130.9,151,130.9,150.6z M130.8,147.5
		c-0.5,0.2-1.3,0.4-2.3,0.5c-0.6,0.1-1,0.2-1.2,0.3c-0.2,0.1-0.4,0.3-0.6,0.5c-0.1,0.2-0.2,0.4-0.2,0.7c0,0.4,0.1,0.7,0.4,0.9
		s0.7,0.4,1.2,0.4c0.5,0,1-0.1,1.4-0.4c0.4-0.2,0.7-0.6,0.9-1c0.2-0.3,0.2-0.8,0.2-1.4V147.5z"/>
	<path class="st0" d="M134.7,155h-1c1.6-2.5,2.3-5,2.3-7.5c0-1-0.1-2-0.3-2.9c-0.2-0.8-0.4-1.5-0.7-2.2c-0.2-0.5-0.6-1.2-1.3-2.3h1
		c1,1.3,1.7,2.6,2.2,3.9c0.4,1.1,0.6,2.3,0.6,3.6c0,1.4-0.3,2.8-0.8,4.1S135.5,154,134.7,155z"/>
	<path class="st0" d="M139,151.6V150h1.6v1.6c0,0.6-0.1,1.1-0.3,1.4c-0.2,0.4-0.5,0.6-1,0.8l-0.4-0.6c0.3-0.1,0.5-0.3,0.7-0.6
		c0.1-0.3,0.2-0.6,0.2-1.1H139z"/>
	<path class="st0" d="M146.5,151.6v-11.5h4.3c0.9,0,1.6,0.1,2.1,0.3c0.5,0.2,0.9,0.6,1.2,1.1c0.3,0.5,0.4,1,0.4,1.5
		c0,0.5-0.1,1-0.4,1.4c-0.3,0.4-0.7,0.8-1.2,1c0.7,0.2,1.2,0.5,1.6,1c0.4,0.5,0.6,1.1,0.6,1.7c0,0.5-0.1,1-0.3,1.5s-0.5,0.8-0.8,1.1
		s-0.8,0.4-1.3,0.6c-0.5,0.1-1.1,0.2-1.8,0.2H146.5z M148,145h2.5c0.7,0,1.2,0,1.4-0.1c0.4-0.1,0.7-0.3,0.9-0.6s0.3-0.6,0.3-1
		c0-0.4-0.1-0.7-0.3-1s-0.4-0.5-0.8-0.6c-0.3-0.1-0.9-0.2-1.7-0.2H148V145z M148,150.3h2.9c0.5,0,0.8,0,1-0.1
		c0.3-0.1,0.6-0.2,0.9-0.3c0.2-0.1,0.4-0.4,0.6-0.6c0.2-0.3,0.2-0.6,0.2-1c0-0.4-0.1-0.8-0.3-1.1c-0.2-0.3-0.5-0.5-0.9-0.7
		c-0.4-0.1-0.9-0.2-1.7-0.2H148V150.3z"/>
	<path class="st0" d="M161.4,151.6H160v-9c-0.3,0.3-0.8,0.6-1.3,1c-0.5,0.3-1,0.6-1.5,0.7V143c0.8-0.4,1.5-0.8,2.1-1.3
		c0.6-0.5,1-1,1.2-1.5h0.9V151.6z"/>
	<path class="st0" d="M171.8,150.3v1.4h-7.6c0-0.3,0-0.7,0.2-1c0.2-0.5,0.5-1,0.9-1.5s1-1.1,1.8-1.7c1.2-1,2.1-1.8,2.5-2.4
		c0.4-0.6,0.7-1.2,0.7-1.7c0-0.6-0.2-1-0.6-1.4s-0.9-0.6-1.6-0.6c-0.7,0-1.2,0.2-1.6,0.6s-0.6,1-0.6,1.7l-1.4-0.1
		c0.1-1.1,0.5-1.9,1.1-2.5c0.6-0.6,1.5-0.8,2.6-0.8c1.1,0,2,0.3,2.6,0.9s1,1.4,1,2.3c0,0.5-0.1,0.9-0.3,1.4
		c-0.2,0.4-0.5,0.9-0.9,1.4c-0.4,0.5-1.2,1.2-2.2,2c-0.8,0.7-1.4,1.2-1.6,1.4c-0.2,0.3-0.4,0.5-0.6,0.8H171.8z"/>
	<path class="st0" d="M173.5,151.6V150h1.6v1.6H173.5z"/>
	<path class="st0" d="M181,151.6v-11.5h4.3c0.9,0,1.6,0.1,2.1,0.3c0.5,0.2,0.9,0.6,1.2,1.1c0.3,0.5,0.4,1,0.4,1.5
		c0,0.5-0.1,1-0.4,1.4c-0.3,0.4-0.7,0.8-1.2,1c0.7,0.2,1.2,0.5,1.6,1c0.4,0.5,0.6,1.1,0.6,1.7c0,0.5-0.1,1-0.3,1.5s-0.5,0.8-0.8,1.1
		s-0.8,0.4-1.3,0.6c-0.5,0.1-1.1,0.2-1.8,0.2H181z M182.6,145h2.5c0.7,0,1.2,0,1.4-0.1c0.4-0.1,0.7-0.3,0.9-0.6s0.3-0.6,0.3-1
		c0-0.4-0.1-0.7-0.3-1s-0.4-0.5-0.8-0.6c-0.3-0.1-0.9-0.2-1.7-0.2h-2.3V145z M182.6,150.3h2.9c0.5,0,0.8,0,1-0.1
		c0.3-0.1,0.6-0.2,0.9-0.3c0.2-0.1,0.4-0.4,0.6-0.6c0.2-0.3,0.2-0.6,0.2-1c0-0.4-0.1-0.8-0.3-1.1c-0.2-0.3-0.5-0.5-0.9-0.7
		c-0.4-0.1-0.9-0.2-1.7-0.2h-2.6V150.3z"/>
	<path class="st0" d="M192.9,147.9v-1.1c0.6,0,1,0,1.2-0.1c0.2,0,0.4-0.2,0.6-0.4c0.2-0.2,0.3-0.5,0.3-0.8c0-0.4-0.1-0.7-0.4-0.9
		s-0.6-0.3-1-0.3c-0.8,0-1.3,0.5-1.7,1.4l-1.3-0.2c0.4-1.6,1.4-2.3,3-2.3c0.9,0,1.6,0.2,2.1,0.7s0.8,1.1,0.8,1.7
		c0,0.7-0.3,1.2-1,1.6c0.4,0.2,0.7,0.5,0.9,0.9c0.2,0.3,0.3,0.8,0.3,1.2c0,0.7-0.3,1.3-0.8,1.8c-0.5,0.5-1.3,0.7-2.3,0.7
		c-1.9,0-3-0.8-3.3-2.5l1.3-0.3c0.1,0.5,0.4,0.9,0.7,1.2c0.4,0.3,0.8,0.4,1.3,0.4s0.9-0.1,1.2-0.4c0.3-0.3,0.5-0.6,0.5-1
		c0-0.3-0.1-0.6-0.3-0.8c-0.2-0.2-0.4-0.4-0.6-0.4c-0.2-0.1-0.6-0.1-1.2-0.1C193.1,147.9,193,147.9,192.9,147.9z"/>
	<path class="st0" d="M197.8,154.8v-11.5h1.3v1.1c0.3-0.4,0.6-0.7,1-0.9s0.8-0.3,1.4-0.3c0.7,0,1.3,0.2,1.9,0.5
		c0.5,0.4,1,0.9,1.2,1.5s0.4,1.4,0.4,2.2c0,0.8-0.2,1.6-0.5,2.3s-0.7,1.2-1.3,1.6s-1.2,0.5-1.8,0.5c-0.5,0-0.9-0.1-1.3-0.3
		s-0.7-0.4-0.9-0.8v4H197.8z M199.1,147.5c0,1.1,0.2,1.9,0.6,2.4c0.4,0.5,1,0.8,1.6,0.8c0.6,0,1.2-0.3,1.6-0.8
		c0.4-0.5,0.7-1.3,0.7-2.5c0-1.1-0.2-1.8-0.7-2.4c-0.4-0.5-1-0.8-1.6-0.8c-0.6,0-1.1,0.3-1.6,0.8
		C199.3,145.7,199.1,146.5,199.1,147.5z"/>
	<path class="st0" d="M205.6,147.5c0-1.5,0.4-2.7,1.3-3.4c0.7-0.6,1.6-0.9,2.6-0.9c1.1,0,2.1,0.4,2.8,1.1c0.7,0.7,1.1,1.8,1.1,3.1
		c0,1.1-0.2,1.9-0.5,2.5c-0.3,0.6-0.8,1.1-1.4,1.4s-1.3,0.5-2,0.5c-1.2,0-2.1-0.4-2.8-1.1C206,150,205.6,148.9,205.6,147.5z
		 M207.1,147.5c0,1.1,0.2,1.9,0.7,2.4c0.5,0.5,1,0.8,1.8,0.8c0.7,0,1.3-0.3,1.7-0.8s0.7-1.3,0.7-2.4c0-1-0.2-1.8-0.7-2.3
		c-0.5-0.5-1-0.8-1.7-0.8c-0.7,0-1.3,0.3-1.8,0.8C207.3,145.6,207.1,146.4,207.1,147.5z"/>
	<path class="st0" d="M219.9,148.6l1.4,0.2c-0.2,1-0.5,1.7-1.2,2.2s-1.4,0.8-2.3,0.8c-1.1,0-2-0.4-2.7-1.1s-1-1.8-1-3.2
		c0-0.9,0.1-1.7,0.4-2.4s0.7-1.2,1.4-1.5s1.3-0.5,2-0.5c0.9,0,1.6,0.2,2.2,0.7c0.6,0.5,0.9,1.1,1.1,1.9l-1.4,0.2
		c-0.1-0.6-0.4-1-0.7-1.3s-0.7-0.4-1.2-0.4c-0.7,0-1.3,0.3-1.7,0.8s-0.7,1.3-0.7,2.4c0,1.1,0.2,1.9,0.6,2.4c0.4,0.5,1,0.8,1.7,0.8
		c0.6,0,1-0.2,1.4-0.5C219.6,149.8,219.8,149.3,219.9,148.6z"/>
	<path class="st0" d="M222.6,143.4h6.5v8.3h-1.4v-7.1H224v4.1c0,1,0,1.6-0.1,1.9c-0.1,0.3-0.2,0.6-0.5,0.8c-0.3,0.2-0.7,0.3-1.2,0.3
		c-0.3,0-0.7,0-1.1-0.1v-1.2h0.6c0.3,0,0.5,0,0.6-0.1c0.1-0.1,0.2-0.2,0.2-0.3c0-0.1,0.1-0.6,0.1-1.3V143.4z"/>
	<path class="st0" d="M230.7,143.4h1.4v3.2h1.8c1.2,0,2.1,0.2,2.7,0.7c0.6,0.5,0.9,1.1,0.9,1.9c0,0.7-0.3,1.3-0.8,1.8
		s-1.4,0.7-2.5,0.7h-3.5V143.4z M232.1,150.5h1.5c0.9,0,1.5-0.1,1.9-0.3s0.6-0.6,0.6-1c0-0.4-0.1-0.7-0.4-1s-0.9-0.4-1.9-0.4h-1.7
		V150.5z M238.6,143.4h1.4v8.3h-1.4V143.4z"/>
	<path class="st0" d="M241.7,143.4h2.2l2.2,6.6l2.4-6.6h2v8.3h-1.4V145l-2.5,6.7h-1.3l-2.3-7v7h-1.4V143.4z"/>
	<path class="st0" d="M0.8,163.4h6.5v8.3H5.9v-7.1H2.2v7.1H0.8V163.4z"/>
	<path class="st0" d="M8.3,167.5c0-1.5,0.4-2.7,1.3-3.4c0.7-0.6,1.6-0.9,2.6-0.9c1.1,0,2.1,0.4,2.8,1.1c0.7,0.7,1.1,1.8,1.1,3.1
		c0,1.1-0.2,1.9-0.5,2.5c-0.3,0.6-0.8,1.1-1.4,1.4c-0.6,0.3-1.3,0.5-2,0.5c-1.2,0-2.1-0.4-2.8-1.1C8.7,170,8.3,168.9,8.3,167.5z
		 M9.8,167.5c0,1.1,0.2,1.9,0.7,2.4c0.5,0.5,1,0.8,1.8,0.8c0.7,0,1.3-0.3,1.7-0.8c0.5-0.5,0.7-1.3,0.7-2.4c0-1-0.2-1.8-0.7-2.3
		c-0.5-0.5-1-0.8-1.7-0.8c-0.7,0-1.3,0.3-1.8,0.8C10,165.6,9.8,166.4,9.8,167.5z"/>
	<path class="st0" d="M26,171.6h-1.4v-9c-0.3,0.3-0.8,0.6-1.3,1c-0.5,0.3-1,0.6-1.5,0.7V163c0.8-0.4,1.5-0.8,2.1-1.3
		c0.6-0.5,1-1,1.2-1.5H26V171.6z"/>
	<path class="st0" d="M33.3,163.4h1.4v3.6c0.4,0,0.8-0.1,0.9-0.3s0.4-0.7,0.8-1.5c0.3-0.7,0.5-1.1,0.7-1.3c0.2-0.2,0.4-0.3,0.6-0.4
		c0.2-0.1,0.6-0.1,1.1-0.1h0.3v1.2l-0.4,0c-0.4,0-0.6,0.1-0.7,0.2c-0.1,0.1-0.3,0.5-0.5,1c-0.2,0.5-0.4,0.9-0.6,1.1
		c-0.2,0.2-0.5,0.4-0.8,0.6c0.6,0.2,1.2,0.7,1.8,1.7l1.5,2.6h-1.5l-1.5-2.6c-0.3-0.5-0.6-0.9-0.8-1s-0.5-0.2-0.8-0.2v3.8h-1.4V163.4
		z"/>
	<path class="st0" d="M45.5,170.6c-0.5,0.4-1,0.8-1.5,0.9c-0.5,0.2-1,0.3-1.6,0.3c-0.9,0-1.6-0.2-2.1-0.7c-0.5-0.4-0.7-1-0.7-1.7
		c0-0.4,0.1-0.8,0.3-1.1c0.2-0.3,0.4-0.6,0.7-0.8c0.3-0.2,0.6-0.4,1-0.5c0.3-0.1,0.7-0.1,1.2-0.2c1.1-0.1,2-0.3,2.5-0.5
		c0-0.2,0-0.3,0-0.4c0-0.6-0.1-1-0.4-1.2c-0.4-0.3-0.9-0.5-1.6-0.5c-0.7,0-1.2,0.1-1.5,0.3c-0.3,0.2-0.5,0.6-0.7,1.2l-1.4-0.2
		c0.1-0.6,0.3-1.1,0.6-1.4c0.3-0.4,0.7-0.6,1.2-0.8c0.5-0.2,1.2-0.3,1.9-0.3c0.7,0,1.3,0.1,1.7,0.2c0.4,0.2,0.8,0.4,1,0.6
		c0.2,0.3,0.4,0.6,0.4,1c0,0.2,0.1,0.7,0.1,1.3v1.9c0,1.3,0,2.1,0.1,2.5c0.1,0.3,0.2,0.7,0.4,1h-1.5C45.7,171.4,45.6,171,45.5,170.6
		z M45.4,167.5c-0.5,0.2-1.3,0.4-2.3,0.5c-0.6,0.1-1,0.2-1.2,0.3c-0.2,0.1-0.4,0.3-0.6,0.5c-0.1,0.2-0.2,0.4-0.2,0.7
		c0,0.4,0.1,0.7,0.4,0.9c0.3,0.2,0.7,0.4,1.2,0.4c0.5,0,1-0.1,1.4-0.4c0.4-0.2,0.7-0.6,0.9-1c0.2-0.3,0.2-0.8,0.2-1.4V167.5z"/>
	<path class="st0" d="M48.4,163.4H55v8.3h-1.4v-7.1h-3.7v7.1h-1.4V163.4z"/>
	<path class="st0" d="M62,168.6l1.4,0.2c-0.2,1-0.5,1.7-1.2,2.2c-0.6,0.5-1.4,0.8-2.3,0.8c-1.1,0-2-0.4-2.7-1.1
		c-0.7-0.7-1-1.8-1-3.2c0-0.9,0.1-1.7,0.4-2.4s0.7-1.2,1.4-1.5c0.6-0.3,1.3-0.5,2-0.5c0.9,0,1.6,0.2,2.2,0.7
		c0.6,0.5,0.9,1.1,1.1,1.9l-1.4,0.2c-0.1-0.6-0.4-1-0.7-1.3c-0.3-0.3-0.7-0.4-1.2-0.4c-0.7,0-1.3,0.3-1.7,0.8
		c-0.4,0.5-0.7,1.3-0.7,2.4c0,1.1,0.2,1.9,0.6,2.4c0.4,0.5,1,0.8,1.7,0.8c0.6,0,1-0.2,1.4-0.5C61.6,169.8,61.9,169.3,62,168.6z"/>
	<path class="st0" d="M63.9,174.8l-0.2-1.3c0.3,0.1,0.6,0.1,0.8,0.1c0.3,0,0.6-0.1,0.8-0.2c0.2-0.1,0.3-0.2,0.5-0.4
		c0.1-0.1,0.2-0.5,0.4-1c0-0.1,0.1-0.2,0.1-0.3l-3.1-8.3h1.5l1.7,4.8c0.2,0.6,0.4,1.2,0.6,1.9c0.2-0.6,0.4-1.3,0.6-1.9l1.8-4.8h1.4
		l-3.2,8.4c-0.3,0.9-0.6,1.5-0.8,1.9c-0.2,0.5-0.5,0.8-0.9,1c-0.3,0.2-0.7,0.3-1.2,0.3C64.6,175,64.3,175,63.9,174.8z"/>
	<path class="st0" d="M71.8,163.4h6.5v8.3h-1.4v-7.1h-3.7v4.1c0,1,0,1.6-0.1,1.9c-0.1,0.3-0.2,0.6-0.5,0.8c-0.3,0.2-0.7,0.3-1.2,0.3
		c-0.3,0-0.7,0-1.1-0.1v-1.2h0.6c0.3,0,0.5,0,0.6-0.1c0.1-0.1,0.2-0.2,0.2-0.3c0-0.1,0.1-0.6,0.1-1.3V163.4z"/>
	<path class="st0" d="M85.5,169l1.5,0.2c-0.2,0.8-0.7,1.5-1.3,2s-1.4,0.7-2.4,0.7c-1.2,0-2.2-0.4-2.9-1.1c-0.7-0.7-1.1-1.8-1.1-3.1
		c0-1.4,0.4-2.5,1.1-3.2c0.7-0.8,1.7-1.2,2.8-1.2c1.1,0,2,0.4,2.7,1.1c0.7,0.8,1.1,1.8,1.1,3.2c0,0.1,0,0.2,0,0.4h-6.2
		c0.1,0.9,0.3,1.6,0.8,2.1s1,0.7,1.7,0.7c0.5,0,1-0.1,1.3-0.4C85,170,85.3,169.6,85.5,169z M80.9,166.7h4.6
		c-0.1-0.7-0.2-1.2-0.5-1.6c-0.4-0.5-1-0.8-1.7-0.8c-0.6,0-1.2,0.2-1.6,0.6C81.2,165.4,81,166,80.9,166.7z"/>
	<path class="st0" d="M92.1,163.4h3.2c0.8,0,1.4,0.1,1.8,0.2c0.4,0.1,0.7,0.4,1,0.7c0.3,0.4,0.4,0.8,0.4,1.3c0,0.4-0.1,0.7-0.2,1
		c-0.2,0.3-0.4,0.5-0.7,0.7c0.4,0.1,0.7,0.4,1,0.7c0.3,0.4,0.4,0.8,0.4,1.3c-0.1,0.8-0.3,1.4-0.8,1.8c-0.5,0.4-1.3,0.6-2.2,0.6h-3.7
		V163.4z M93.5,166.8H95c0.6,0,1,0,1.2-0.1c0.2-0.1,0.4-0.2,0.6-0.4c0.2-0.2,0.3-0.4,0.3-0.7c0-0.4-0.2-0.7-0.5-0.9
		c-0.3-0.2-0.8-0.3-1.6-0.3h-1.5V166.8z M93.5,170.5h1.9c0.8,0,1.3-0.1,1.6-0.3c0.3-0.2,0.5-0.5,0.5-1c0-0.3-0.1-0.5-0.3-0.7
		s-0.4-0.4-0.7-0.4c-0.3-0.1-0.7-0.1-1.3-0.1h-1.7V170.5z"/>
	<path class="st0" d="M105,163.4h5.8v7.1h0.9v3.5h-1.2v-2.4H104v2.4h-1.2v-3.5h0.7C104.6,169.1,105,166.8,105,163.4z M106.2,164.5
		c-0.1,2.7-0.5,4.7-1.2,6h4.5v-6H106.2z"/>
	<path class="st0" d="M118.4,169l1.5,0.2c-0.2,0.8-0.7,1.5-1.3,2s-1.4,0.7-2.4,0.7c-1.2,0-2.2-0.4-2.9-1.1c-0.7-0.7-1.1-1.8-1.1-3.1
		c0-1.4,0.4-2.5,1.1-3.2c0.7-0.8,1.7-1.2,2.8-1.2c1.1,0,2,0.4,2.7,1.1c0.7,0.8,1.1,1.8,1.1,3.2c0,0.1,0,0.2,0,0.4h-6.2
		c0.1,0.9,0.3,1.6,0.8,2.1s1,0.7,1.7,0.7c0.5,0,1-0.1,1.3-0.4C117.8,170,118.1,169.6,118.4,169z M113.7,166.7h4.6
		c-0.1-0.7-0.2-1.2-0.5-1.6c-0.4-0.5-1-0.8-1.7-0.8c-0.6,0-1.2,0.2-1.6,0.6C114,165.4,113.8,166,113.7,166.7z"/>
	<path class="st0" d="M121,163.4h1.4v3.5h3.9v-3.5h1.4v8.3h-1.4V168h-3.9v3.7H121V163.4z"/>
	<path class="st0" d="M129.3,163.4h1.4v3.2h1.8c1.2,0,2.1,0.2,2.7,0.7c0.6,0.5,0.9,1.1,0.9,1.9c0,0.7-0.3,1.3-0.8,1.8
		s-1.4,0.7-2.5,0.7h-3.5V163.4z M130.7,170.5h1.5c0.9,0,1.5-0.1,1.9-0.3s0.6-0.6,0.6-1c0-0.4-0.1-0.7-0.4-1s-0.9-0.4-1.9-0.4h-1.7
		V170.5z"/>
</g>
</svg>
