<?xml version="1.0" encoding="utf-8"?>
<!-- Generator: Adobe Illustrator 25.2.3, SVG Export Plug-In . SVG Version: 6.00 Build 0)  -->
<svg version="1.1" id="Layer_1" xmlns="http://www.w3.org/2000/svg" xmlns:xlink="http://www.w3.org/1999/xlink" x="0px" y="0px"
	 viewBox="0 0 331.8 71.6" style="enable-background:new 0 0 331.8 71.6;" xml:space="preserve">
<style type="text/css">
	.st0{fill:#147BB8;}
</style>
<g>
	<path class="st0" d="M11.8,11.4l3.4,1.1c-0.5,1.9-1.4,3.3-2.6,4.3c-1.2,0.9-2.8,1.4-4.7,1.4c-2.3,0-4.2-0.8-5.7-2.4
		C0.7,14.1,0,12,0,9.2C0,6.3,0.8,4,2.3,2.4C3.8,0.8,5.7,0,8.2,0c2.1,0,3.9,0.6,5.2,1.9c0.8,0.7,1.4,1.8,1.8,3.2L11.7,6
		c-0.2-0.9-0.6-1.6-1.3-2.2S9,3,8,3C6.7,3,5.7,3.5,4.9,4.4S3.6,6.9,3.6,9c0,2.2,0.4,3.8,1.2,4.7c0.8,0.9,1.8,1.4,3.1,1.4
		c0.9,0,1.7-0.3,2.4-0.9C11.1,13.6,11.5,12.7,11.8,11.4z"/>
	<path class="st0" d="M16.6,11.3c0-1.1,0.3-2.2,0.8-3.2c0.5-1,1.3-1.8,2.3-2.4s2.1-0.8,3.4-0.8c1.9,0,3.5,0.6,4.7,1.9
		c1.2,1.2,1.8,2.8,1.8,4.7c0,1.9-0.6,3.5-1.9,4.8c-1.2,1.3-2.8,1.9-4.7,1.9c-1.2,0-2.3-0.3-3.3-0.8C18.8,16.8,18,16,17.5,15
		C16.9,14,16.6,12.8,16.6,11.3z M20.1,11.5c0,1.3,0.3,2.2,0.9,2.9s1.3,1,2.2,1c0.9,0,1.6-0.3,2.2-1s0.9-1.6,0.9-2.9
		c0-1.2-0.3-2.2-0.9-2.9c-0.6-0.7-1.3-1-2.2-1c-0.9,0-1.6,0.3-2.2,1C20.4,9.3,20.1,10.2,20.1,11.5z"/>
	<path class="st0" d="M42.3,8.9l-3.3,0.6c-0.1-0.7-0.4-1.2-0.8-1.5c-0.4-0.3-0.9-0.5-1.5-0.5c-0.8,0-1.5,0.3-2,0.9s-0.7,1.5-0.7,2.9
		c0,1.5,0.3,2.6,0.8,3.2c0.5,0.6,1.2,0.9,2,0.9c0.6,0,1.2-0.2,1.6-0.5c0.4-0.4,0.7-1,0.9-1.9l3.3,0.6c-0.3,1.5-1,2.7-2,3.4
		c-1,0.8-2.3,1.2-3.9,1.2c-1.9,0-3.3-0.6-4.4-1.8c-1.1-1.2-1.7-2.8-1.7-4.9c0-2.1,0.6-3.7,1.7-4.9s2.6-1.8,4.5-1.8
		c1.5,0,2.8,0.3,3.7,1C41.2,6.5,41.9,7.5,42.3,8.9z"/>
	<path class="st0" d="M42.4,5.1h11.5v2.7h-4.1v10h-3.4v-10h-4.1V5.1z"/>
	<path class="st0" d="M57.6,9l-3-0.5c0.3-1.2,0.9-2.1,1.8-2.7c0.8-0.6,2.1-0.9,3.7-0.9c1.5,0,2.6,0.2,3.3,0.5
		c0.7,0.4,1.2,0.8,1.5,1.4c0.3,0.5,0.4,1.5,0.4,3l0,3.9c0,1.1,0.1,1.9,0.2,2.5s0.3,1.1,0.6,1.7h-3.3c-0.1-0.2-0.2-0.6-0.3-1
		c-0.1-0.2-0.1-0.3-0.1-0.4c-0.6,0.6-1.2,1-1.8,1.3s-1.4,0.4-2.1,0.4c-1.3,0-2.3-0.4-3.1-1.1c-0.8-0.7-1.1-1.6-1.1-2.7
		c0-0.7,0.2-1.4,0.5-1.9c0.3-0.6,0.8-1,1.4-1.3c0.6-0.3,1.5-0.6,2.7-0.8c1.6-0.3,2.7-0.6,3.3-0.8V9.2c0-0.6-0.2-1.1-0.5-1.4
		s-0.9-0.4-1.8-0.4c-0.6,0-1.1,0.1-1.4,0.4C58.1,8,57.8,8.4,57.6,9z M62.1,11.7c-0.4,0.1-1.1,0.3-2,0.5c-0.9,0.2-1.5,0.4-1.8,0.6
		c-0.4,0.3-0.7,0.7-0.7,1.2c0,0.5,0.2,0.9,0.5,1.2c0.3,0.3,0.8,0.5,1.3,0.5c0.6,0,1.2-0.2,1.7-0.6c0.4-0.3,0.7-0.7,0.8-1.1
		c0.1-0.3,0.1-0.8,0.1-1.6V11.7z"/>
	<path class="st0" d="M67.9,5.1h7.4c1.5,0,2.6,0.3,3.4,0.8c0.8,0.5,1.1,1.4,1.1,2.5c0,0.7-0.2,1.3-0.6,1.9s-0.9,0.9-1.5,1.1
		c0.9,0.2,1.5,0.6,2,1.2c0.4,0.6,0.6,1.2,0.6,1.9c0,1-0.4,1.8-1.1,2.4c-0.7,0.6-1.8,0.9-3.2,0.9h-8V5.1z M71.3,10.4h2.2
		c1,0,1.8-0.1,2.3-0.4c0.5-0.3,0.7-0.7,0.7-1.2c0-0.5-0.2-0.9-0.7-1.1s-1.2-0.3-2.3-0.3h-2.2V10.4z M71.3,15.7h2.7
		c1,0,1.7-0.1,2.1-0.3c0.4-0.2,0.7-0.6,0.7-1.2c0-0.6-0.3-1-0.8-1.3c-0.5-0.2-1.5-0.4-2.9-0.4h-1.7V15.7z"/>
	<path class="st0" d="M82.7,8.5V5.1H86v3.4H82.7z M82.7,17.8v-3.4H86v3.4H82.7z"/>
	<path class="st0" d="M96.2,5.1h10v12.7H104V6.9h-5.7v6.3c0,1.5,0,2.4-0.1,2.9c-0.1,0.5-0.4,0.9-0.8,1.2c-0.4,0.4-1.1,0.5-1.9,0.5
		c-0.5,0-1.1,0-1.7-0.1V16h0.9c0.4,0,0.8,0,1-0.1c0.2-0.1,0.3-0.2,0.4-0.4c0.1-0.2,0.1-0.8,0.1-1.9V5.1z"/>
	<path class="st0" d="M108.6,5.1h2.2v5.3h2.6c0.2-1.8,0.8-3.2,1.7-4.2c0.9-1,2.2-1.4,3.7-1.4c1.3,0,2.3,0.3,3,0.8
		c0.7,0.5,1.4,1.2,1.8,2.1c0.5,0.9,0.7,2.1,0.7,3.7c0,2.2-0.5,3.9-1.5,5s-2.3,1.7-4.1,1.7c-1.6,0-2.9-0.5-3.8-1.6s-1.5-2.5-1.6-4.3
		h-2.6v5.6h-2.2V5.1z M118.8,6.7c-1.1,0-1.9,0.4-2.5,1.2c-0.6,0.8-0.9,1.9-0.9,3.4c0,1.7,0.3,3,0.9,3.8c0.6,0.8,1.4,1.2,2.4,1.2
		c1,0,1.8-0.4,2.4-1.1c0.6-0.8,0.9-2,0.9-3.6c0-1.6-0.3-2.9-0.8-3.7S119.9,6.7,118.8,6.7z"/>
	<path class="st0" d="M124.3,5.1h10.3v1.8h-4.1v10.9h-2.1V6.9h-4.1V5.1z"/>
	<path class="st0" d="M144.3,13.7l2.2,0.3c-0.3,1.3-1,2.3-1.9,3c-0.9,0.7-2.2,1.1-3.6,1.1c-1.9,0-3.3-0.6-4.4-1.7
		c-1.1-1.1-1.6-2.7-1.6-4.8c0-2.1,0.6-3.8,1.7-5s2.5-1.8,4.3-1.8c1.7,0,3.1,0.6,4.2,1.7s1.6,2.8,1.6,4.9c0,0.1,0,0.3,0,0.6h-9.5
		c0.1,1.4,0.5,2.5,1.2,3.2c0.7,0.7,1.6,1.1,2.7,1.1c0.8,0,1.5-0.2,2-0.6C143.5,15.3,143.9,14.6,144.3,13.7z M137.2,10.3h7.1
		c-0.1-1.1-0.4-1.9-0.8-2.4c-0.7-0.8-1.6-1.2-2.7-1.2c-1,0-1.8,0.3-2.5,1C137.7,8.3,137.3,9.1,137.2,10.3z"/>
	<path class="st0" d="M148.3,5.1h2.2v9.7l6-9.7h2.3v12.7h-2.2V8.2l-6,9.6h-2.3V5.1z"/>
	<path class="st0" d="M161.2,5.1h2.2v5.3h6V5.1h2.2v12.7h-2.2v-5.6h-6v5.6h-2.2V5.1z"/>
	<path class="st0" d="M174.4,17.8v-2.5h2.5v2.5c0,0.9-0.2,1.6-0.5,2.2s-0.8,1-1.5,1.3l-0.6-0.9c0.5-0.2,0.8-0.5,1-0.9
		c0.2-0.4,0.3-0.9,0.4-1.7H174.4z"/>
	<path class="st0" d="M188.5,12.1v-1.7c0.9,0,1.5,0,1.9-0.1c0.3-0.1,0.6-0.3,0.9-0.6c0.3-0.3,0.4-0.7,0.4-1.2c0-0.6-0.2-1-0.6-1.4
		s-0.9-0.5-1.5-0.5c-1.2,0-2.1,0.7-2.5,2.1l-2-0.3c0.6-2.4,2.2-3.6,4.6-3.6c1.4,0,2.4,0.4,3.2,1.1c0.8,0.7,1.2,1.6,1.2,2.7
		c0,1-0.5,1.9-1.5,2.5c0.6,0.3,1.1,0.8,1.4,1.3c0.3,0.5,0.5,1.2,0.5,1.9c0,1.1-0.4,2.1-1.2,2.8c-0.8,0.7-2,1.1-3.5,1.1
		c-2.9,0-4.6-1.3-5-3.9l2-0.4c0.2,0.8,0.6,1.4,1.1,1.9s1.2,0.7,1.9,0.7s1.3-0.2,1.8-0.6c0.5-0.4,0.7-0.9,0.7-1.6
		c0-0.5-0.2-0.9-0.5-1.3c-0.3-0.4-0.6-0.6-1-0.7c-0.3-0.1-1-0.1-1.9-0.1C188.9,12.1,188.8,12.1,188.5,12.1z"/>
	<path class="st0" d="M204.5,13.7l2.2,0.3c-0.4,1.3-1,2.3-1.9,3c-0.9,0.7-2.2,1.1-3.6,1.1c-1.9,0-3.3-0.6-4.4-1.7
		c-1.1-1.1-1.6-2.7-1.6-4.8c0-2.1,0.5-3.8,1.6-5s2.5-1.8,4.3-1.8c1.7,0,3.1,0.6,4.2,1.7c1.1,1.2,1.6,2.8,1.6,4.9c0,0.1,0,0.3,0,0.6
		h-9.5c0.1,1.4,0.5,2.5,1.2,3.2c0.7,0.7,1.6,1.1,2.7,1.1c0.8,0,1.5-0.2,2-0.6C203.7,15.3,204.2,14.6,204.5,13.7z M197.4,10.3h7.1
		c-0.1-1.1-0.4-1.9-0.8-2.4C203,7,202.1,6.6,201,6.6c-1,0-1.8,0.3-2.5,1C197.9,8.3,197.5,9.1,197.4,10.3z"/>
	<path class="st0" d="M216.8,16.3c-0.8,0.7-1.6,1.2-2.3,1.4s-1.5,0.4-2.4,0.4c-1.4,0-2.5-0.3-3.2-1c-0.7-0.7-1.1-1.6-1.1-2.6
		c0-0.6,0.1-1.2,0.4-1.7c0.3-0.5,0.7-0.9,1.1-1.2c0.5-0.3,1-0.5,1.5-0.7c0.4-0.1,1.1-0.2,1.9-0.3c1.7-0.2,3-0.5,3.8-0.7
		c0-0.3,0-0.5,0-0.6c0-0.9-0.2-1.5-0.6-1.9c-0.5-0.5-1.4-0.7-2.4-0.7c-1,0-1.8,0.2-2.2,0.5c-0.5,0.4-0.8,1-1.1,1.9l-2.1-0.3
		c0.2-0.9,0.5-1.6,0.9-2.2c0.4-0.6,1.1-1,1.9-1.3s1.8-0.4,2.9-0.4c1.1,0,2,0.1,2.6,0.4c0.7,0.3,1.2,0.6,1.5,1
		c0.3,0.4,0.5,0.9,0.7,1.5c0.1,0.4,0.1,1,0.1,2v2.9c0,2,0,3.3,0.1,3.8c0.1,0.5,0.3,1,0.5,1.5h-2.2C217,17.4,216.9,16.9,216.8,16.3z
		 M216.7,11.4c-0.8,0.3-2,0.6-3.5,0.8c-0.9,0.1-1.5,0.3-1.9,0.4c-0.4,0.2-0.6,0.4-0.8,0.7c-0.2,0.3-0.3,0.6-0.3,1
		c0,0.6,0.2,1.1,0.7,1.4c0.4,0.4,1.1,0.6,1.9,0.6c0.8,0,1.6-0.2,2.2-0.5c0.6-0.4,1.1-0.9,1.4-1.5c0.2-0.5,0.3-1.2,0.3-2.2V11.4z"/>
	<path class="st0" d="M221.3,5.1h2.2v5.5c0.7,0,1.2-0.1,1.4-0.4c0.3-0.3,0.7-1,1.2-2.3c0.4-1,0.8-1.7,1-2s0.6-0.5,0.9-0.6
		c0.3-0.1,0.9-0.2,1.6-0.2h0.4v1.8l-0.6,0c-0.6,0-0.9,0.1-1.1,0.3c-0.2,0.2-0.4,0.7-0.8,1.6c-0.3,0.8-0.6,1.4-0.9,1.7
		c-0.3,0.3-0.7,0.6-1.3,0.9c0.9,0.2,1.8,1.1,2.7,2.6l2.4,3.9h-2.4l-2.3-3.9c-0.5-0.8-0.9-1.3-1.2-1.6c-0.4-0.3-0.8-0.4-1.3-0.4v5.9
		h-2.2V5.1z"/>
	<path class="st0" d="M239.7,13.2l2.1,0.3c-0.2,1.5-0.8,2.6-1.8,3.4c-1,0.8-2.1,1.2-3.5,1.2c-1.7,0-3.1-0.6-4.2-1.7
		c-1.1-1.1-1.6-2.8-1.6-4.9c0-1.4,0.2-2.6,0.7-3.6c0.5-1,1.1-1.8,2.1-2.3c0.9-0.5,1.9-0.8,3-0.8c1.4,0,2.5,0.3,3.4,1s1.4,1.7,1.7,3
		l-2.1,0.3c-0.2-0.9-0.6-1.5-1.1-1.9s-1.1-0.6-1.8-0.6c-1.1,0-2,0.4-2.6,1.2s-1,2-1,3.7c0,1.7,0.3,2.9,1,3.7
		c0.7,0.8,1.5,1.2,2.6,1.2c0.8,0,1.6-0.3,2.1-0.8C239.2,15,239.6,14.2,239.7,13.2z"/>
	<path class="st0" d="M251.1,16.3c-0.8,0.7-1.6,1.2-2.3,1.4s-1.5,0.4-2.4,0.4c-1.4,0-2.5-0.3-3.2-1c-0.7-0.7-1.1-1.6-1.1-2.6
		c0-0.6,0.1-1.2,0.4-1.7c0.3-0.5,0.7-0.9,1.1-1.2c0.5-0.3,1-0.5,1.5-0.7c0.4-0.1,1.1-0.2,1.9-0.3c1.7-0.2,3-0.5,3.8-0.7
		c0-0.3,0-0.5,0-0.6c0-0.9-0.2-1.5-0.6-1.9c-0.5-0.5-1.4-0.7-2.4-0.7c-1,0-1.8,0.2-2.2,0.5c-0.5,0.4-0.8,1-1.1,1.9l-2.1-0.3
		c0.2-0.9,0.5-1.6,0.9-2.2c0.4-0.6,1.1-1,1.9-1.3s1.8-0.4,2.9-0.4c1.1,0,2,0.1,2.6,0.4c0.7,0.3,1.2,0.6,1.5,1
		c0.3,0.4,0.5,0.9,0.7,1.5c0.1,0.4,0.1,1,0.1,2v2.9c0,2,0,3.3,0.1,3.8c0.1,0.5,0.3,1,0.5,1.5h-2.2C251.3,17.4,251.2,16.9,251.1,16.3
		z M250.9,11.4c-0.8,0.3-2,0.6-3.5,0.8c-0.9,0.1-1.5,0.3-1.9,0.4c-0.4,0.2-0.6,0.4-0.8,0.7c-0.2,0.3-0.3,0.6-0.3,1
		c0,0.6,0.2,1.1,0.7,1.4c0.4,0.4,1.1,0.6,1.9,0.6c0.8,0,1.6-0.2,2.2-0.5c0.6-0.4,1.1-0.9,1.4-1.5c0.2-0.5,0.3-1.2,0.3-2.2V11.4z"/>
	<path class="st0" d="M255.6,5.1h2.2v5.3h6V5.1h2.2v12.7h-2.2v-5.6h-6v5.6h-2.2V5.1z"/>
	<path class="st0" d="M267.1,5.1h10.3v1.8h-4.1v10.9h-2.1V6.9h-4.1V5.1z"/>
	<path class="st0" d="M278.6,5.1h2.2v9.7l6-9.7h2.3v12.7h-2.2V8.2l-6,9.6h-2.3V5.1z"/>
	<path class="st0" d="M291.4,5.1h2.2v5.3h6V5.1h2.2v12.7h-2.2v-5.6h-6v5.6h-2.2V5.1z"/>
	<path class="st0" d="M304.6,17.8v-2.5h2.5v2.5c0,0.9-0.2,1.6-0.5,2.2s-0.8,1-1.5,1.3l-0.6-0.9c0.5-0.2,0.8-0.5,1-0.9
		c0.2-0.4,0.3-0.9,0.4-1.7H304.6z"/>
	<path class="st0" d="M0.5,29.6h2.2v10.9h6V29.6h2.2v10.9h1.4v5.4h-1.8v-3.6H0.5V29.6z"/>
	<path class="st0" d="M13.6,29.6h2.2v9.7l6-9.7h2.3v12.7h-2.2v-9.6l-6,9.6h-2.3V29.6z"/>
	<path class="st0" d="M26.4,29.6h2.2v5.3h6v-5.3h2.2v12.7h-2.2v-5.6h-6v5.6h-2.2V29.6z"/>
	<path class="st0" d="M39.1,29.6h2.2v5.5c0.7,0,1.2-0.1,1.4-0.4c0.3-0.3,0.7-1,1.2-2.3c0.4-1,0.8-1.7,1-2c0.3-0.3,0.6-0.5,0.9-0.6
		c0.3-0.1,0.9-0.2,1.6-0.2h0.4v1.8l-0.6,0c-0.6,0-0.9,0.1-1.1,0.3c-0.2,0.2-0.4,0.7-0.8,1.6c-0.3,0.8-0.6,1.4-0.9,1.7
		c-0.3,0.3-0.7,0.6-1.3,0.9c0.9,0.2,1.8,1.1,2.7,2.6l2.4,3.9H46l-2.3-3.9c-0.5-0.8-0.9-1.3-1.2-1.6s-0.8-0.4-1.3-0.4v5.9h-2.2V29.6z
		"/>
	<path class="st0" d="M49.5,42.3v-2.5H52v2.5c0,0.9-0.2,1.6-0.5,2.2s-0.8,1-1.5,1.3l-0.6-0.9c0.5-0.2,0.8-0.5,1-0.9
		c0.2-0.4,0.3-0.9,0.4-1.7H49.5z"/>
	<path class="st0" d="M69.1,37.6l2.1,0.3c-0.2,1.5-0.8,2.6-1.8,3.4s-2.1,1.2-3.5,1.2c-1.7,0-3.1-0.6-4.2-1.7
		c-1.1-1.1-1.6-2.8-1.6-4.9c0-1.4,0.2-2.6,0.7-3.6c0.5-1,1.1-1.8,2.1-2.3c0.9-0.5,1.9-0.8,3-0.8c1.4,0,2.5,0.3,3.4,1s1.4,1.7,1.7,3
		l-2.1,0.3c-0.2-0.9-0.6-1.5-1.1-1.9c-0.5-0.4-1.1-0.6-1.8-0.6c-1.1,0-2,0.4-2.6,1.2c-0.7,0.8-1,2-1,3.7c0,1.7,0.3,2.9,1,3.7
		s1.5,1.2,2.6,1.2c0.8,0,1.5-0.3,2.1-0.8S69,38.7,69.1,37.6z"/>
	<path class="st0" d="M80.9,38.2l2.2,0.3c-0.3,1.3-1,2.3-1.9,3c-0.9,0.7-2.2,1.1-3.6,1.1c-1.9,0-3.3-0.6-4.4-1.7
		c-1.1-1.1-1.6-2.7-1.6-4.8c0-2.1,0.6-3.8,1.7-5s2.5-1.8,4.3-1.8c1.7,0,3.1,0.6,4.2,1.7c1.1,1.2,1.6,2.8,1.6,4.9c0,0.1,0,0.3,0,0.6
		h-9.5c0.1,1.4,0.5,2.5,1.2,3.2c0.7,0.7,1.6,1.1,2.7,1.1c0.8,0,1.5-0.2,2-0.6C80.1,39.8,80.6,39.1,80.9,38.2z M73.8,34.7h7.1
		c-0.1-1.1-0.4-1.9-0.8-2.4c-0.7-0.8-1.6-1.2-2.7-1.2c-1,0-1.8,0.3-2.5,1C74.3,32.7,73.9,33.6,73.8,34.7z"/>
	<path class="st0" d="M85.2,29.6h10v12.7h-2.1V31.4h-5.7v6.3c0,1.5,0,2.4-0.1,2.9c-0.1,0.5-0.4,0.9-0.8,1.2
		c-0.4,0.4-1.1,0.5-1.9,0.5c-0.5,0-1.1,0-1.7-0.1v-1.8h0.9c0.4,0,0.8,0,1-0.1c0.2-0.1,0.3-0.2,0.4-0.4c0.1-0.2,0.1-0.8,0.1-1.9V29.6
		z"/>
	<path class="st0" d="M106.3,38.2l2.2,0.3c-0.3,1.3-1,2.3-1.9,3c-0.9,0.7-2.2,1.1-3.6,1.1c-1.9,0-3.3-0.6-4.4-1.7
		c-1.1-1.1-1.6-2.7-1.6-4.8c0-2.1,0.6-3.8,1.7-5s2.5-1.8,4.3-1.8c1.7,0,3.1,0.6,4.2,1.7c1.1,1.2,1.6,2.8,1.6,4.9c0,0.1,0,0.3,0,0.6
		h-9.5c0.1,1.4,0.5,2.5,1.2,3.2c0.7,0.7,1.6,1.1,2.7,1.1c0.8,0,1.5-0.2,2-0.6C105.5,39.8,105.9,39.1,106.3,38.2z M99.2,34.7h7.1
		c-0.1-1.1-0.4-1.9-0.8-2.4c-0.7-0.8-1.6-1.2-2.7-1.2c-1,0-1.8,0.3-2.5,1C99.7,32.7,99.3,33.6,99.2,34.7z"/>
	<path class="st0" d="M110.4,29.6h2.2v5.3h6v-5.3h2.2v12.7h-2.2v-5.6h-6v5.6h-2.2V29.6z"/>
	<path class="st0" d="M123.6,42.3v-2.5h2.5v2.5c0,0.9-0.2,1.6-0.5,2.2s-0.8,1-1.5,1.3l-0.6-0.9c0.5-0.2,0.8-0.5,1-0.9
		c0.2-0.4,0.3-0.9,0.4-1.7H123.6z"/>
	<path class="st0" d="M134.9,29.6h5c1.2,0,2.1,0.1,2.7,0.3c0.6,0.2,1.1,0.6,1.5,1.1c0.4,0.5,0.6,1.2,0.6,1.9c0,0.6-0.1,1.1-0.4,1.6
		c-0.2,0.5-0.6,0.8-1.1,1.1c0.6,0.2,1.1,0.6,1.5,1.1s0.6,1.2,0.6,1.9c-0.1,1.2-0.5,2.1-1.3,2.7c-0.8,0.6-1.9,0.9-3.4,0.9h-5.7V29.6z
		 M137.1,34.9h2.3c0.9,0,1.5,0,1.9-0.1c0.3-0.1,0.7-0.3,0.9-0.6c0.3-0.3,0.4-0.6,0.4-1c0-0.7-0.2-1.1-0.7-1.4
		c-0.5-0.3-1.3-0.4-2.4-0.4h-2.4V34.9z M137.1,40.5h2.8c1.2,0,2.1-0.1,2.5-0.4c0.5-0.3,0.7-0.8,0.7-1.5c0-0.4-0.1-0.8-0.4-1.1
		s-0.6-0.6-1-0.7c-0.4-0.1-1.1-0.1-2-0.1h-2.6V40.5z"/>
	<path class="st0" d="M147,29.6h2.2v9.7l6-9.7h2.3v12.7h-2.2v-9.6l-6,9.6H147V29.6z"/>
	<path class="st0" d="M158.7,29.6H169v1.8h-4.1v10.9h-2.1V31.4h-4.1V29.6z"/>
	<path class="st0" d="M178.2,40.7c-0.8,0.7-1.6,1.2-2.3,1.4s-1.5,0.4-2.4,0.4c-1.4,0-2.5-0.3-3.2-1c-0.7-0.7-1.1-1.6-1.1-2.6
		c0-0.6,0.1-1.2,0.4-1.7c0.3-0.5,0.7-0.9,1.1-1.2c0.5-0.3,1-0.5,1.5-0.7c0.4-0.1,1.1-0.2,1.9-0.3c1.7-0.2,3-0.5,3.8-0.7
		c0-0.3,0-0.5,0-0.6c0-0.9-0.2-1.5-0.6-1.9c-0.5-0.5-1.4-0.7-2.4-0.7c-1,0-1.8,0.2-2.2,0.5c-0.5,0.4-0.8,1-1.1,1.9l-2.1-0.3
		c0.2-0.9,0.5-1.6,0.9-2.2c0.4-0.6,1.1-1,1.9-1.3s1.8-0.4,2.9-0.4c1.1,0,2,0.1,2.6,0.4c0.7,0.3,1.2,0.6,1.5,1
		c0.3,0.4,0.5,0.9,0.7,1.5c0.1,0.4,0.1,1,0.1,2V37c0,2,0,3.3,0.1,3.8c0.1,0.5,0.3,1,0.5,1.5h-2.2C178.4,41.9,178.3,41.3,178.2,40.7z
		 M178,35.9c-0.8,0.3-2,0.6-3.5,0.8c-0.9,0.1-1.5,0.3-1.9,0.4c-0.4,0.2-0.6,0.4-0.8,0.7c-0.2,0.3-0.3,0.6-0.3,1
		c0,0.6,0.2,1.1,0.7,1.4c0.4,0.4,1.1,0.6,1.9,0.6c0.8,0,1.6-0.2,2.2-0.5c0.6-0.4,1.1-0.9,1.4-1.5c0.2-0.5,0.3-1.2,0.3-2.2V35.9z"/>
	<path class="st0" d="M182.7,29.6h3.3l3.3,10.2l3.7-10.2h3.1v12.7h-2.2V32.1l-3.8,10.2h-1.9l-3.6-10.7v10.7h-2.1V29.6z"/>
	<path class="st0" d="M198.7,29.6h2.2v9.7l6-9.7h2.3v12.7h-2.2v-9.6l-6,9.6h-2.3V29.6z"/>
	<path class="st0" d="M211.5,29.6h2.2v5.3h6v-5.3h2.2v12.7h-2.2v-5.6h-6v5.6h-2.2V29.6z"/>
	<path class="st0" d="M242.9,36.2l2.3,0.6c-0.5,1.9-1.4,3.4-2.6,4.4c-1.3,1-2.8,1.5-4.6,1.5c-1.9,0-3.4-0.4-4.6-1.2
		s-2.1-1.9-2.7-3.3c-0.6-1.5-0.9-3-0.9-4.7c0-1.8,0.3-3.4,1-4.8c0.7-1.4,1.7-2.4,3-3.1s2.7-1.1,4.2-1.1c1.8,0,3.2,0.4,4.4,1.3
		c1.2,0.9,2,2.1,2.5,3.8l-2.3,0.5c-0.4-1.3-1-2.2-1.8-2.8s-1.7-0.9-2.9-0.9c-1.3,0-2.5,0.3-3.4,1c-0.9,0.6-1.5,1.5-1.9,2.6
		c-0.4,1.1-0.5,2.2-0.5,3.4c0,1.5,0.2,2.8,0.7,3.9c0.4,1.1,1.1,1.9,2,2.5c0.9,0.5,1.9,0.8,3,0.8c1.3,0,2.4-0.4,3.3-1.1
		S242.5,37.6,242.9,36.2z"/>
	<path class="st0" d="M247.5,42.3v-2.5h2.4v2.5c0,0.9-0.2,1.6-0.5,2.2c-0.3,0.6-0.8,1-1.5,1.3l-0.6-0.9c0.5-0.2,0.8-0.5,1-0.9
		c0.2-0.4,0.3-0.9,0.4-1.7H247.5z"/>
	<path class="st0" d="M259.1,42.3V24.8h12.7v2.1h-10.3v5.4h9.7v2.1h-9.7v6h10.8v2.1H259.1z"/>
	<path class="st0" d="M274.9,42.3v-2.5h2.4v2.5H274.9z"/>
	<path class="st0" d="M0.6,66.8V49.3h6.6c1.3,0,2.4,0.2,3.2,0.5c0.8,0.4,1.4,0.9,1.9,1.6c0.5,0.7,0.7,1.5,0.7,2.3
		c0,0.7-0.2,1.5-0.6,2.1c-0.4,0.7-1,1.2-1.8,1.6c1.1,0.3,1.9,0.8,2.4,1.6c0.6,0.7,0.9,1.6,0.9,2.7c0,0.8-0.2,1.6-0.5,2.3
		c-0.3,0.7-0.8,1.2-1.3,1.6c-0.5,0.4-1.1,0.7-1.9,0.9c-0.8,0.2-1.7,0.3-2.8,0.3H0.6z M3,56.6h3.8c1,0,1.8-0.1,2.2-0.2
		c0.6-0.2,1-0.5,1.3-0.9c0.3-0.4,0.4-0.9,0.4-1.5c0-0.6-0.1-1.1-0.4-1.5C10,52,9.6,51.7,9.1,51.6c-0.5-0.2-1.4-0.2-2.7-0.2H3V56.6z
		 M3,64.7h4.4c0.7,0,1.3,0,1.6-0.1c0.5-0.1,1-0.3,1.3-0.5c0.4-0.2,0.7-0.5,0.9-1s0.3-0.9,0.3-1.5c0-0.7-0.2-1.2-0.5-1.7
		c-0.3-0.5-0.8-0.8-1.4-1S8.1,58.7,7,58.7H3V64.7z"/>
	<path class="st0" d="M18.7,61v-1.7c0.9,0,1.5,0,1.9-0.1c0.3-0.1,0.6-0.3,0.9-0.6c0.3-0.3,0.4-0.7,0.4-1.2c0-0.6-0.2-1-0.6-1.4
		s-0.9-0.5-1.5-0.5c-1.2,0-2.1,0.7-2.5,2.1l-2-0.3c0.6-2.4,2.2-3.6,4.6-3.6c1.4,0,2.4,0.4,3.2,1.1c0.8,0.7,1.2,1.6,1.2,2.7
		c0,1-0.5,1.9-1.5,2.5c0.6,0.3,1.1,0.8,1.4,1.3c0.3,0.5,0.5,1.2,0.5,1.9c0,1.1-0.4,2.1-1.2,2.8c-0.8,0.7-2,1.1-3.5,1.1
		c-2.9,0-4.6-1.3-5-3.9l2-0.4c0.2,0.8,0.6,1.4,1.1,1.9s1.2,0.7,1.9,0.7c0.7,0,1.3-0.2,1.8-0.6c0.5-0.4,0.7-0.9,0.7-1.6
		c0-0.5-0.2-0.9-0.5-1.3c-0.3-0.4-0.6-0.6-1-0.7c-0.3-0.1-1-0.1-1.9-0.1C19.2,61,19,61,18.7,61z"/>
	<path class="st0" d="M26.3,71.6V54.1h2v1.6c0.5-0.6,1-1.1,1.6-1.5s1.3-0.5,2.1-0.5c1.1,0,2,0.3,2.9,0.8c0.8,0.6,1.5,1.3,1.9,2.4
		c0.4,1,0.6,2.1,0.6,3.3c0,1.3-0.2,2.5-0.7,3.5c-0.5,1-1.1,1.8-2,2.4c-0.9,0.6-1.8,0.8-2.8,0.8c-0.7,0-1.4-0.2-1.9-0.5
		c-0.6-0.3-1-0.7-1.4-1.1v6.2H26.3z M28.2,60.5c0,1.6,0.3,2.8,1,3.6c0.7,0.8,1.5,1.2,2.4,1.2c1,0,1.8-0.4,2.5-1.2
		c0.7-0.8,1-2.1,1-3.8c0-1.6-0.3-2.8-1-3.6c-0.7-0.8-1.5-1.2-2.4-1.2c-0.9,0-1.7,0.4-2.4,1.3C28.6,57.6,28.2,58.9,28.2,60.5z"/>
	<path class="st0" d="M38.2,60.4c0-2.4,0.7-4.1,2-5.2c1.1-0.9,2.4-1.4,4-1.4c1.7,0,3.2,0.6,4.3,1.7c1.1,1.1,1.7,2.7,1.7,4.7
		c0,1.6-0.2,2.9-0.7,3.9c-0.5,0.9-1.2,1.7-2.1,2.2c-0.9,0.5-2,0.8-3.1,0.8c-1.8,0-3.2-0.6-4.3-1.7C38.8,64.2,38.2,62.6,38.2,60.4z
		 M40.5,60.4c0,1.6,0.4,2.8,1.1,3.7c0.7,0.8,1.6,1.2,2.7,1.2c1.1,0,2-0.4,2.7-1.2c0.7-0.8,1.1-2.1,1.1-3.7c0-1.6-0.4-2.8-1.1-3.6
		c-0.7-0.8-1.6-1.2-2.7-1.2c-1.1,0-2,0.4-2.7,1.2C40.8,57.6,40.5,58.8,40.5,60.4z"/>
	<path class="st0" d="M60.1,62.1l2.1,0.3c-0.2,1.5-0.8,2.6-1.8,3.4s-2.1,1.2-3.5,1.2c-1.7,0-3.1-0.6-4.2-1.7
		c-1.1-1.1-1.6-2.8-1.6-4.9c0-1.4,0.2-2.6,0.7-3.6c0.5-1,1.1-1.8,2.1-2.3c0.9-0.5,1.9-0.8,3-0.8c1.4,0,2.5,0.3,3.4,1s1.4,1.7,1.7,3
		l-2.1,0.3c-0.2-0.9-0.6-1.5-1.1-1.9c-0.5-0.4-1.1-0.6-1.8-0.6c-1.1,0-2,0.4-2.6,1.2c-0.7,0.8-1,2-1,3.7c0,1.7,0.3,2.9,1,3.7
		s1.5,1.2,2.6,1.2c0.8,0,1.5-0.3,2.1-0.8S59.9,63.2,60.1,62.1z"/>
	<path class="st0" d="M64.2,54.1h10v12.7h-2.1V55.9h-5.7v6.3c0,1.5,0,2.4-0.1,2.9c-0.1,0.5-0.4,0.9-0.8,1.2
		c-0.4,0.4-1.1,0.5-1.9,0.5c-0.5,0-1.1,0-1.7-0.1V65h0.9c0.4,0,0.8,0,1-0.1c0.2-0.1,0.3-0.2,0.4-0.4c0.1-0.2,0.1-0.8,0.1-1.9V54.1z"
		/>
	<path class="st0" d="M76.7,54.1h2.2v5h2.7c1.8,0,3.1,0.3,4.1,1c1,0.7,1.4,1.6,1.4,2.9c0,1.1-0.4,2-1.2,2.7s-2.1,1.1-3.8,1.1h-5.4
		V54.1z M78.8,65h2.3c1.4,0,2.3-0.2,2.9-0.5c0.6-0.3,0.9-0.9,0.9-1.6c0-0.5-0.2-1-0.6-1.5s-1.4-0.6-2.9-0.6h-2.5V65z M88.7,54.1h2.2
		v12.7h-2.2V54.1z"/>
	<path class="st0" d="M93.4,54.1h3.3l3.3,10.2l3.7-10.2h3.1v12.7h-2.2V56.6L101,66.8h-1.9l-3.5-10.7v10.7h-2.1V54.1z"/>
	<path class="st0" d="M115.3,54.1h10v12.7h-2.2V55.9h-5.7v10.9h-2.2V54.1z"/>
	<path class="st0" d="M126.9,60.4c0-2.4,0.7-4.1,2-5.2c1.1-0.9,2.4-1.4,4-1.4c1.7,0,3.2,0.6,4.3,1.7c1.1,1.1,1.7,2.7,1.7,4.7
		c0,1.6-0.2,2.9-0.7,3.9c-0.5,0.9-1.2,1.7-2.1,2.2c-0.9,0.5-2,0.8-3.1,0.8c-1.8,0-3.2-0.6-4.3-1.7C127.4,64.2,126.9,62.6,126.9,60.4
		z M129.1,60.4c0,1.6,0.4,2.8,1.1,3.7c0.7,0.8,1.6,1.2,2.7,1.2c1.1,0,2-0.4,2.7-1.2c0.7-0.8,1.1-2.1,1.1-3.7c0-1.6-0.4-2.8-1.1-3.6
		c-0.7-0.8-1.6-1.2-2.7-1.2c-1.1,0-2,0.4-2.7,1.2C129.4,57.6,129.1,58.8,129.1,60.4z"/>
	<path class="st0" d="M153.9,66.8h-2.2V53.1c-0.5,0.5-1.2,1-2,1.5c-0.8,0.5-1.6,0.9-2.3,1.1v-2.1c1.2-0.6,2.3-1.3,3.2-2.1
		c0.9-0.8,1.5-1.6,1.9-2.3h1.4V66.8z"/>
	<path class="st0" d="M163.9,54.1h10.3v1.8h-4.1v10.9H168V55.9h-4.1V54.1z"/>
	<path class="st0" d="M183.4,65.2c-0.8,0.7-1.6,1.2-2.3,1.4c-0.7,0.3-1.5,0.4-2.4,0.4c-1.4,0-2.5-0.3-3.2-1
		c-0.8-0.7-1.1-1.6-1.1-2.6c0-0.6,0.1-1.2,0.4-1.7c0.3-0.5,0.7-0.9,1.1-1.2c0.5-0.3,1-0.5,1.5-0.7c0.4-0.1,1.1-0.2,1.9-0.3
		c1.7-0.2,3-0.5,3.8-0.7c0-0.3,0-0.5,0-0.6c0-0.9-0.2-1.5-0.6-1.9c-0.6-0.5-1.4-0.7-2.5-0.7c-1,0-1.8,0.2-2.2,0.5s-0.8,1-1.1,1.9
		l-2.1-0.3c0.2-0.9,0.5-1.6,0.9-2.2c0.4-0.6,1.1-1,1.9-1.3c0.8-0.3,1.8-0.4,2.9-0.4c1.1,0,2,0.1,2.6,0.4c0.7,0.3,1.2,0.6,1.5,1
		c0.3,0.4,0.5,0.9,0.7,1.5c0.1,0.4,0.1,1,0.1,2v2.9c0,2,0,3.3,0.1,3.8c0.1,0.5,0.3,1,0.5,1.5h-2.2C183.6,66.3,183.5,65.8,183.4,65.2
		z M183.2,60.4c-0.8,0.3-2,0.6-3.5,0.8c-0.9,0.1-1.5,0.3-1.9,0.4c-0.4,0.2-0.7,0.4-0.8,0.7c-0.2,0.3-0.3,0.6-0.3,1
		c0,0.6,0.2,1.1,0.7,1.4c0.4,0.4,1.1,0.6,1.9,0.6c0.8,0,1.6-0.2,2.2-0.5c0.6-0.4,1.1-0.9,1.4-1.5c0.2-0.5,0.3-1.2,0.3-2.2V60.4z"/>
	<path class="st0" d="M197.2,48.8l1.9,0c-0.1,0.9-0.3,1.4-0.6,1.8s-0.7,0.5-1.1,0.6c-0.5,0.1-1.4,0.1-2.7,0.1c-1.8,0-3,0.2-3.6,0.5
		c-0.6,0.3-1.1,0.9-1.4,1.6c-0.3,0.8-0.4,1.7-0.5,2.9c0.5-0.8,1.2-1.4,1.9-1.8c0.7-0.4,1.5-0.6,2.5-0.6c1.7,0,3,0.6,4.1,1.7
		s1.6,2.7,1.6,4.6c0,1.5-0.3,2.7-0.8,3.6c-0.5,0.9-1.2,1.7-2,2.2c-0.8,0.5-1.8,0.8-3.1,0.8c-1.5,0-2.7-0.3-3.5-1
		c-0.8-0.7-1.5-1.6-1.9-2.6c-0.4-1.1-0.7-2.9-0.7-5.6c0-3.4,0.6-5.6,1.7-6.8c1.1-1.2,2.9-1.7,5.2-1.7c1.5,0,2.3,0,2.5-0.1
		S197.1,49,197.2,48.8z M197.1,60.4c0-1.3-0.3-2.4-0.9-3.3c-0.6-0.8-1.5-1.3-2.6-1.3c-1.2,0-2.1,0.4-2.7,1.3c-0.6,0.9-1,2.1-1,3.6
		c0,1.5,0.4,2.6,1.1,3.4c0.7,0.8,1.6,1.2,2.6,1.2c1.1,0,1.9-0.5,2.6-1.4S197.1,61.9,197.1,60.4z"/>
	<path class="st0" d="M201,54.1h10v12.7h-2.1V55.9h-5.7v6.3c0,1.5,0,2.4-0.1,2.9c-0.1,0.5-0.4,0.9-0.8,1.2c-0.4,0.4-1.1,0.5-1.9,0.5
		c-0.5,0-1.1,0-1.7-0.1V65h0.9c0.4,0,0.8,0,1-0.1c0.2-0.1,0.3-0.2,0.4-0.4c0.1-0.2,0.1-0.8,0.1-1.9V54.1z"/>
	<path class="st0" d="M222.1,62.7l2.2,0.3c-0.3,1.3-1,2.3-1.9,3c-0.9,0.7-2.2,1.1-3.6,1.1c-1.9,0-3.3-0.6-4.4-1.7
		c-1.1-1.1-1.6-2.7-1.6-4.8c0-2.1,0.6-3.8,1.7-5s2.5-1.8,4.3-1.8c1.7,0,3.1,0.6,4.2,1.7s1.6,2.8,1.6,4.9c0,0.1,0,0.3,0,0.6h-9.5
		c0.1,1.4,0.5,2.5,1.2,3.2c0.7,0.7,1.6,1.1,2.7,1.1c0.8,0,1.5-0.2,2-0.6C221.3,64.3,221.7,63.6,222.1,62.7z M215,59.2h7.1
		c-0.1-1.1-0.4-1.9-0.8-2.4c-0.7-0.8-1.6-1.2-2.7-1.2c-1,0-1.8,0.3-2.5,1C215.5,57.2,215.1,58.1,215,59.2z"/>
	<path class="st0" d="M224.2,54.1h10.3v1.8h-4.1v10.9h-2.1V55.9h-4.1V54.1z"/>
	<path class="st0" d="M235.7,54.1h2.2v5.5c0.7,0,1.2-0.1,1.4-0.4c0.3-0.3,0.7-1,1.2-2.3c0.4-1,0.8-1.7,1-2s0.6-0.5,0.9-0.6
		c0.3-0.1,0.9-0.2,1.6-0.2h0.4v1.8l-0.6,0c-0.6,0-0.9,0.1-1.1,0.3c-0.2,0.2-0.4,0.7-0.8,1.6c-0.3,0.8-0.6,1.4-0.9,1.7
		c-0.3,0.3-0.7,0.6-1.3,0.9c0.9,0.2,1.8,1.1,2.7,2.6l2.4,3.9h-2.4l-2.3-3.9c-0.5-0.8-0.9-1.3-1.2-1.6c-0.4-0.3-0.8-0.4-1.3-0.4v5.9
		h-2.2V54.1z"/>
	<path class="st0" d="M254.5,62.7l2.2,0.3c-0.3,1.3-1,2.3-1.9,3c-0.9,0.7-2.2,1.1-3.6,1.1c-1.9,0-3.3-0.6-4.4-1.7
		c-1.1-1.1-1.6-2.7-1.6-4.8c0-2.1,0.6-3.8,1.7-5s2.5-1.8,4.3-1.8c1.7,0,3.1,0.6,4.2,1.7s1.6,2.8,1.6,4.9c0,0.1,0,0.3,0,0.6h-9.5
		c0.1,1.4,0.5,2.5,1.2,3.2c0.7,0.7,1.6,1.1,2.7,1.1c0.8,0,1.5-0.2,2-0.6C253.7,64.3,254.2,63.6,254.5,62.7z M247.4,59.2h7.1
		c-0.1-1.1-0.4-1.9-0.8-2.4c-0.7-0.8-1.6-1.2-2.7-1.2c-1,0-1.8,0.3-2.5,1C247.9,57.2,247.5,58.1,247.4,59.2z"/>
	<path class="st0" d="M264.5,54.1h5c1.2,0,2.1,0.1,2.7,0.3c0.6,0.2,1.1,0.6,1.5,1.1c0.4,0.5,0.6,1.2,0.6,1.9c0,0.6-0.1,1.1-0.4,1.6
		c-0.2,0.5-0.6,0.8-1.1,1.1c0.6,0.2,1.1,0.6,1.5,1.1s0.6,1.2,0.6,1.9c-0.1,1.2-0.5,2.1-1.3,2.7c-0.8,0.6-1.9,0.9-3.4,0.9h-5.7V54.1z
		 M266.7,59.4h2.3c0.9,0,1.5,0,1.9-0.1c0.3-0.1,0.7-0.3,0.9-0.6c0.3-0.3,0.4-0.6,0.4-1c0-0.7-0.2-1.1-0.7-1.4
		c-0.5-0.3-1.3-0.4-2.4-0.4h-2.4V59.4z M266.7,65h2.8c1.2,0,2.1-0.1,2.5-0.4c0.5-0.3,0.7-0.8,0.7-1.5c0-0.4-0.1-0.8-0.4-1.1
		s-0.6-0.6-1-0.7c-0.4-0.1-1.1-0.1-2-0.1h-2.6V65z"/>
	<path class="st0" d="M284.3,54.1h8.8V65h1.4v5.4h-1.8v-3.6h-10v3.6H281V65h1.1C283.6,62.9,284.4,59.3,284.3,54.1z M286.1,55.9
		c-0.2,4.1-0.8,7.2-1.9,9.1h6.8v-9.1H286.1z"/>
	<path class="st0" d="M304.7,62.7l2.2,0.3c-0.3,1.3-1,2.3-1.9,3c-0.9,0.7-2.2,1.1-3.6,1.1c-1.9,0-3.3-0.6-4.4-1.7
		c-1.1-1.1-1.6-2.7-1.6-4.8c0-2.1,0.6-3.8,1.7-5s2.5-1.8,4.3-1.8c1.7,0,3.1,0.6,4.2,1.7s1.6,2.8,1.6,4.9c0,0.1,0,0.3,0,0.6h-9.5
		c0.1,1.4,0.5,2.5,1.2,3.2c0.7,0.7,1.6,1.1,2.7,1.1c0.8,0,1.5-0.2,2-0.6C303.9,64.3,304.4,63.6,304.7,62.7z M297.7,59.2h7.1
		c-0.1-1.1-0.4-1.9-0.8-2.4c-0.7-0.8-1.6-1.2-2.7-1.2c-1,0-1.8,0.3-2.5,1C298.1,57.2,297.7,58.1,297.7,59.2z"/>
	<path class="st0" d="M308.8,54.1h2.2v5.3h6v-5.3h2.2v12.7h-2.2v-5.6h-6v5.6h-2.2V54.1z"/>
	<path class="st0" d="M321.4,54.1h2.2v5h2.7c1.8,0,3.1,0.3,4.1,1c1,0.7,1.4,1.6,1.4,2.9c0,1.1-0.4,2-1.2,2.7s-2.1,1.1-3.8,1.1h-5.4
		V54.1z M323.6,65h2.3c1.4,0,2.3-0.2,2.9-0.5c0.6-0.3,0.9-0.9,0.9-1.6c0-0.5-0.2-1-0.6-1.5c-0.4-0.4-1.4-0.6-2.9-0.6h-2.5V65z"/>
</g>
</svg>
