<?xml version="1.0" encoding="utf-8"?>
<!-- Generator: Adobe Illustrator 25.2.3, SVG Export Plug-In . SVG Version: 6.00 Build 0)  -->
<svg version="1.1" id="Layer_1" xmlns="http://www.w3.org/2000/svg" xmlns:xlink="http://www.w3.org/1999/xlink" x="0px" y="0px"
	 viewBox="0 0 300.1 47" style="enable-background:new 0 0 300.1 47;" xml:space="preserve">
<style type="text/css">
	.st0{opacity:0.5;}
	.st1{fill:#147BB8;}
</style>
<g>
	<g class="st0">
		<path class="st1" d="M-0.6,24h5.5v2.2H0.5V32h2c0.7,0,1.3,0.2,1.8,0.5c0.4,0.3,0.8,0.9,1.1,1.7c0.3,0.9,0.4,1.9,0.4,3.1
			c0,0.9-0.1,1.9-0.3,2.6C5.3,40.8,5,41.4,4.6,42c-0.4,0.5-1,0.9-1.9,0.9h-3.3V24z M0.5,40.7h2.2c0.6,0,1.1-0.3,1.4-0.9
			c0.3-0.6,0.5-1.4,0.5-2.4c0-0.9-0.1-1.4-0.3-1.9c-0.2-0.5-0.4-0.9-0.7-1c-0.3-0.1-0.8-0.2-1.6-0.2H0.5V40.7z M5.9,42.7L9.2,24h1.2
			l3.5,18.7h-1.3l-1-5.7H8l-0.9,5.7C7.1,42.7,5.9,42.7,5.9,42.7z M8.3,35h2.9l-0.9-5.1C10,28.4,9.8,27,9.7,26
			c-0.1,1.2-0.3,2.4-0.5,3.6L8.3,35z M15.9,24H21v16.4h0.8v6.5h-1v-4.3h-5.6v4.3h-1v-6.5h0.7c0.7-2.2,1-6.9,1-13.7V24z M19.9,26.3
			H17v1c0,1.5-0.1,3.8-0.2,6.5s-0.4,5-0.8,6.9h3.9V26.3z M23.3,42.7v-2.6h1.1v2.6H23.3z M29.7,42.7V24h1.1v7.7h4.4V24h1.1v18.7h-1.1
			V34h-4.4v8.7C30.8,42.7,29.7,42.7,29.7,42.7z M38.2,42.7V24h6.1v2.2h-5v5.7H44v2.2h-4.7v6.3h5.2v2.2L38.2,42.7L38.2,42.7z
			 M54.9,42.7v-8.2h-1.3c-0.3,0-0.5,0-0.6,0.2l-0.5,0.5c-0.2,0.2-0.4,0.7-0.6,1.2c-0.2,0.5-0.5,1.3-0.8,2.5l-1.1,4h-1.4l1.5-5.1
			c0.3-1,0.6-1.9,0.9-2.4c0.2-0.3,0.4-0.7,0.7-0.9c-0.8-0.2-1.4-0.9-1.8-1.7c-0.4-0.9-0.6-2.1-0.6-3.4c0-1,0.1-1.9,0.4-2.7
			c0.2-0.9,0.5-1.4,0.9-1.7c0.4-0.3,1-0.5,1.7-0.5H56v18.7h-1.1L54.9,42.7L54.9,42.7z M54.9,26.1h-2.7c-0.6,0-1.1,0.3-1.4,0.9
			c-0.2,0.7-0.4,1.4-0.4,2.2c0,0.7,0.1,1.2,0.2,1.7s0.4,0.9,0.7,1.2c0.3,0.2,0.7,0.3,1.2,0.3h2.4C54.9,32.4,54.9,26.1,54.9,26.1z
			 M57.8,42.7V24H61c0.6,0,1.2,0.2,1.6,0.5c0.4,0.3,0.7,1,0.9,1.7c0.2,0.9,0.3,1.5,0.3,2.4c0,0.9-0.1,1.5-0.3,2.2
			c-0.2,0.7-0.5,1.2-0.9,1.7c0.5,0.3,0.9,0.9,1.2,1.7c0.3,0.9,0.4,1.7,0.4,2.7c0,0.9-0.1,1.7-0.3,2.4c-0.2,0.7-0.4,1.4-0.6,1.7
			c-0.2,0.3-0.6,0.7-0.9,0.9c-0.4,0.2-0.8,0.3-1.4,0.3h-3.2L57.8,42.7L57.8,42.7z M58.9,31.9h1.8c0.5,0,0.9,0,1.1-0.2
			c0.3-0.2,0.5-0.5,0.6-0.9c0.1-0.5,0.2-1,0.2-1.7c0-0.7-0.1-1.2-0.2-1.7s-0.3-0.9-0.6-1c-0.2-0.2-0.7-0.3-1.3-0.3h-1.7v5.8
			C58.8,31.9,58.9,31.9,58.9,31.9z M58.9,40.5H61c0.4,0,0.6,0,0.8-0.2c0.3-0.2,0.5-0.3,0.6-0.5s0.3-0.5,0.4-1c0.1-0.5,0.2-1,0.2-1.5
			c0-0.7-0.1-1.4-0.2-1.9c-0.2-0.5-0.4-0.9-0.7-1c-0.3-0.2-0.7-0.3-1.2-0.3h-2C58.9,34.1,58.9,40.5,58.9,40.5z M66.2,24h5.3v18.7
			h-1.1V26.3h-3.1v9.6c0,1.9,0,3.4-0.1,4.3c-0.1,0.9-0.3,1.5-0.5,2.1c-0.3,0.5-0.6,0.7-1,0.7c-0.2,0-0.5-0.2-0.9-0.3l0.2-2.2
			c0.2,0.2,0.3,0.2,0.5,0.2c0.3,0,0.4-0.2,0.6-0.7s0.2-1.4,0.2-2.9C66.3,37.1,66.2,24,66.2,24z M78.9,42.7v-8.2h-1.3
			c-0.3,0-0.5,0-0.6,0.2l-0.5,0.5c-0.2,0.2-0.4,0.7-0.6,1.2s-0.5,1.3-0.8,2.5l-1.1,4h-1.4l1.5-5.1c0.3-1,0.6-1.9,0.9-2.4
			c0.2-0.3,0.4-0.7,0.7-0.9c-0.8-0.2-1.4-0.9-1.8-1.7c-0.4-0.8-0.6-2.1-0.6-3.4c0-1,0.1-1.9,0.4-2.7c0.2-0.9,0.5-1.4,0.9-1.7
			c0.4-0.3,1-0.5,1.7-0.5H80v18.7h-1.1C78.9,43.2,78.9,42.7,78.9,42.7z M78.9,26.1h-2.7c-0.6,0-1.1,0.3-1.4,0.9
			c-0.2,0.7-0.4,1.4-0.4,2.2c0,0.7,0.1,1.2,0.2,1.7s0.4,0.9,0.7,1.2c0.3,0.2,0.7,0.3,1.2,0.3h2.4C78.9,32.4,78.9,26.1,78.9,26.1z
			 M81.9,42.7V24H88v2.2h-5v5.7h4.7v2.2H83v6.3h5.2v2.2L81.9,42.7L81.9,42.7z M91.9,42.7V26.3h-2.8V24h6.7v2.2H93v16.4L91.9,42.7
			L91.9,42.7z M103,36.2l1.1,0.7c-0.2,2.1-0.7,3.6-1.3,4.6c-0.6,1-1.4,1.5-2.2,1.5c-0.9,0-1.7-0.3-2.2-1.2c-0.6-0.9-1-2.1-1.3-3.6
			s-0.4-3.3-0.4-5c0-1.9,0.2-3.6,0.5-5.1c0.3-1.4,0.8-2.6,1.4-3.3s1.3-1.2,2-1.2c0.8,0,1.6,0.5,2.1,1.4c0.6,1,1,2.2,1.2,3.9
			l-1.1,0.5c-0.2-1.4-0.5-2.4-0.9-2.9c-0.4-0.7-0.8-0.9-1.4-0.9s-1.2,0.3-1.6,1c-0.4,0.7-0.7,1.5-0.9,2.7c-0.2,1.2-0.3,2.4-0.3,3.6
			c0,1.5,0.1,2.9,0.3,4.1c0.2,1.2,0.5,2.1,1,2.6c0.4,0.5,0.9,0.9,1.4,0.9c0.6,0,1.2-0.3,1.6-1.2C102.5,38.9,102.8,37.7,103,36.2z
			 M111,42.7v-8.2h-1.3c-0.3,0-0.5,0-0.6,0.2l-0.5,0.5c-0.2,0.2-0.4,0.7-0.6,1.2s-0.5,1.4-0.8,2.6l-1.1,3.9h-1.4l1.5-5.1
			c0.3-1,0.6-1.9,0.9-2.4c0.2-0.3,0.4-0.7,0.7-0.9c-0.8-0.2-1.4-0.9-1.8-1.7c-0.4-0.8-0.6-2.1-0.6-3.4c0-1,0.1-1.9,0.4-2.7
			c0.2-0.9,0.5-1.4,0.9-1.7c0.4-0.3,1-0.5,1.7-0.5h3.7v18.7H111C111,43.2,111,42.7,111,42.7z M111,26.1h-2.6c-0.6,0-1.1,0.3-1.4,0.9
			c-0.3,0.5-0.4,1.4-0.4,2.2c0,0.7,0.1,1.2,0.2,1.7s0.4,0.9,0.7,1.2c0.3,0.2,0.7,0.3,1.2,0.3h2.4C111.1,32.4,111,26.1,111,26.1z
			 M117.9,24h5.3v18.7h-1.1V26.3H119v9.6c0,1.9,0,3.4-0.1,4.3c-0.1,0.9-0.3,1.5-0.5,2.1c-0.3,0.5-0.6,0.7-1,0.7
			c-0.2,0-0.5-0.2-0.9-0.3l0.2-2.2c0.2,0.2,0.3,0.2,0.5,0.2c0.3,0,0.4-0.2,0.6-0.7s0.2-1.4,0.2-2.9C118,37.1,117.9,24,117.9,24z
			 M125.1,42.7V24h6.1v2.2h-5v5.7h4.7v2.2h-4.7v6.3h5.2v2.2L125.1,42.7L125.1,42.7z M132.9,24h1.1v8.2c0.5,0,0.9-0.2,1.1-0.7
			c0.2-0.5,0.5-1.5,0.8-3.1c0.2-1.2,0.4-2.1,0.6-2.6c0.2-0.5,0.4-0.9,0.6-1.2c0.3-0.3,0.6-0.5,0.9-0.5h0.7v2.1h-0.4
			c-0.4,0-0.6,0.2-0.8,0.5c-0.2,0.3-0.4,1.2-0.6,2.4c-0.3,1.5-0.5,2.6-0.7,2.9c-0.2,0.3-0.4,0.7-0.7,1c0.5,0.3,1.1,1.4,1.6,3.3
			l1.7,6.2h-1.4l-1.4-5.1c-0.4-1.4-0.7-2.4-1-2.9s-0.6-0.9-1-0.9v8.7h-1.1V24z M138.9,42.7l3.2-18.7h1.2l3.5,18.7h-1.3l-1-5.7H141
			l-0.9,5.7H138.9z M141.3,35h2.9l-0.9-5.1c-0.3-1.5-0.5-2.9-0.6-3.9c-0.1,1.2-0.3,2.4-0.5,3.6L141.3,35z M147.7,42.7V24h3.2
			c0.6,0,1,0,1.3,0.2c0.4,0.2,0.8,0.5,1,0.9c0.3,0.5,0.5,1,0.7,1.9s0.3,1.5,0.3,2.6c0,1.5-0.2,2.9-0.7,4.1c-0.5,1-1.3,1.7-2.5,1.7
			h-2.2v7.5h-1.1V42.7z M148.8,33h2.2c0.7,0,1.2-0.3,1.5-0.9c0.3-0.5,0.5-1.4,0.5-2.6c0-0.9-0.1-1.4-0.3-2.1c-0.2-0.5-0.4-0.9-0.7-1
			c-0.2-0.2-0.5-0.2-1-0.2h-2.2C148.8,26.2,148.8,33,148.8,33z M161.4,36.2l1.1,0.7c-0.2,2.1-0.7,3.6-1.3,4.6S159.8,43,159,43
			c-0.9,0-1.7-0.3-2.2-1.2c-0.6-0.9-1-2.1-1.3-3.6s-0.4-3.3-0.4-5c0-1.9,0.2-3.6,0.5-5.1c0.3-1.4,0.8-2.6,1.4-3.3
			c0.6-0.7,1.3-1.2,2-1.2c0.8,0,1.6,0.5,2.1,1.4c0.6,1,1,2.2,1.2,3.9l-1.1,0.5c-0.2-1.4-0.5-2.4-0.9-2.9c-0.4-0.7-0.8-0.9-1.4-0.9
			c-0.6,0-1.2,0.3-1.6,1c-0.4,0.7-0.7,1.5-0.9,2.7c-0.2,1.2-0.3,2.4-0.3,3.6c0,1.5,0.1,2.9,0.3,4.1s0.5,2.1,1,2.6
			c0.4,0.5,0.9,0.9,1.4,0.9c0.6,0,1.2-0.3,1.6-1.2C161,38.9,161.3,37.7,161.4,36.2L161.4,36.2z M165.7,42.7V26.3h-2.8V24h6.7v2.2
			h-2.8v16.4L165.7,42.7L165.7,42.7z M170.7,42.7V24h3.2c0.6,0,1.2,0.2,1.6,0.5c0.4,0.3,0.7,1,0.9,1.7c0.2,0.9,0.3,1.5,0.3,2.4
			c0,0.9-0.1,1.5-0.3,2.2c-0.2,0.7-0.5,1.2-0.9,1.7c0.5,0.3,0.9,0.9,1.2,1.7c0.3,0.9,0.4,1.7,0.4,2.7c0,0.9-0.1,1.7-0.3,2.4
			s-0.4,1.4-0.6,1.7c-0.2,0.3-0.6,0.7-0.9,0.9c-0.4,0.2-0.8,0.3-1.4,0.3h-3.2C170.7,42.2,170.7,42.7,170.7,42.7z M171.8,31.9h1.8
			c0.5,0,0.9,0,1.1-0.2c0.3-0.2,0.5-0.5,0.6-0.9c0.1-0.5,0.2-1,0.2-1.7c0-0.7-0.1-1.2-0.2-1.7s-0.3-0.9-0.6-1
			c-0.2-0.2-0.7-0.3-1.3-0.3h-1.7L171.8,31.9L171.8,31.9z M171.8,40.5h2.1c0.4,0,0.6,0,0.8-0.2c0.3-0.2,0.5-0.3,0.6-0.5
			s0.3-0.5,0.4-1c0.1-0.5,0.2-1,0.2-1.5c0-0.7-0.1-1.4-0.2-1.9c-0.2-0.5-0.4-0.9-0.7-1c-0.3-0.2-0.7-0.3-1.2-0.3h-2L171.8,40.5
			L171.8,40.5z M178.6,42.7V24h6.1v2.2h-5v5.7h4.7v2.2h-4.7v6.3h5.2v2.2L178.6,42.7L178.6,42.7z M186.5,42.7V24h1.1v7.7h4.4V24h1.1
			v18.7H192V34h-4.4v8.7C187.6,42.7,186.5,42.7,186.5,42.7z M195,42.7V24h1.1v7.7h4.4V24h1.1v18.7h-1.1V34h-4.4v8.7
			C196.1,42.7,195,42.7,195,42.7z M203.6,24h1.1v7.9h2c1.3,0,2.2,0.5,2.6,1.5c0.4,1,0.6,2.2,0.6,3.6c0,1.4-0.2,2.7-0.7,3.8
			c-0.4,1-1.3,1.5-2.5,1.5h-3.2L203.6,24L203.6,24z M204.7,40.7h2c0.7,0,1.2-0.3,1.5-0.9c0.3-0.6,0.5-1.4,0.5-2.6
			c0-0.9-0.1-1.4-0.3-1.9s-0.4-0.9-0.7-1c-0.3-0.2-0.8-0.2-1.5-0.2h-1.5V40.7z M211,24h1.1v18.7H211C211,42.7,211,24,211,24z
			 M214,42.7V24h1.7l2,13.2c0.2,1.2,0.3,2.2,0.4,2.7c0.1-0.7,0.2-1.7,0.4-2.9l2-13h1.5v18.7h-1.1V27.1l-2.5,15.6h-1L215,26.8v15.9
			H214z M233.1,36.2l1.1,0.7c-0.2,2.1-0.7,3.6-1.3,4.6s-1.4,1.5-2.2,1.5c-0.9,0-1.7-0.3-2.2-1.2c-0.6-0.9-1-2.1-1.3-3.6
			s-0.4-3.3-0.4-5c0-1.9,0.2-3.6,0.5-5.1c0.3-1.4,0.8-2.6,1.4-3.3c0.6-0.7,1.3-1.2,2-1.2c0.8,0,1.6,0.5,2.1,1.4
			c0.5,0.9,1,2.2,1.2,3.9l-1.1,0.5c-0.2-1.4-0.5-2.4-0.9-2.9c-0.4-0.7-0.8-0.9-1.4-0.9c-0.6,0-1.2,0.3-1.6,1
			c-0.4,0.7-0.7,1.5-0.9,2.7c-0.2,1.2-0.3,2.4-0.3,3.6c0,1.5,0.1,2.9,0.3,4.1s0.5,2.1,1,2.6c0.4,0.5,0.9,0.9,1.4,0.9
			c0.6,0,1.2-0.3,1.6-1.2C232.7,38.9,233,37.7,233.1,36.2L233.1,36.2z M235.6,42.7V24h3.2c0.6,0,1,0,1.3,0.2c0.4,0.2,0.8,0.5,1,0.9
			c0.3,0.5,0.5,1,0.7,1.9s0.3,1.5,0.3,2.6c0,1.5-0.2,2.9-0.7,4.1c-0.5,1-1.3,1.7-2.5,1.7h-2.2v7.5h-1.1V42.7z M236.7,33h2.2
			c0.7,0,1.2-0.3,1.5-0.9c0.3-0.5,0.5-1.4,0.5-2.6c0-0.9-0.1-1.4-0.3-2.1c-0.2-0.5-0.4-0.9-0.7-1c-0.2-0.2-0.5-0.2-1-0.2h-2.2
			C236.7,26.2,236.7,33,236.7,33z M243.5,42.7V24h6.1v2.2h-5v5.7h4.7v2.2h-4.7v6.3h5.2v2.2L243.5,42.7L243.5,42.7z M252.1,24h5.1
			v16.4h0.8v6.5h-1v-4.3h-5.6v4.3h-1v-6.5h0.7c0.7-2.2,1-6.9,1-13.7V24z M256.2,26.3h-2.9v1c0,1.5-0.1,3.8-0.2,6.5s-0.4,5-0.8,6.9
			h3.9V26.3z M265.4,36.2l1.1,0.7c-0.2,2.1-0.7,3.6-1.3,4.6c-0.6,1-1.4,1.5-2.2,1.5c-0.9,0-1.7-0.3-2.2-1.2c-0.6-0.9-1-2.1-1.3-3.6
			s-0.4-3.3-0.4-5c0-1.9,0.2-3.6,0.5-5.1c0.3-1.4,0.8-2.6,1.4-3.3s1.3-1.2,2-1.2c0.8,0,1.6,0.5,2.1,1.4c0.6,1,1,2.2,1.2,3.9
			l-1.1,0.5c-0.2-1.4-0.5-2.4-0.9-2.9c-0.4-0.7-0.8-0.9-1.4-0.9s-1.2,0.3-1.6,1c-0.4,0.7-0.7,1.5-0.9,2.7c-0.2,1.2-0.3,2.4-0.3,3.6
			c0,1.5,0.1,2.9,0.3,4.1c0.2,1.2,0.5,2.1,1,2.6c0.4,0.5,0.9,0.9,1.4,0.9c0.6,0,1.2-0.3,1.6-1.2C264.9,38.9,265.2,37.7,265.4,36.2
			L265.4,36.2z M269.6,42.7V26.3h-2.8V24h6.7v2.2h-2.8v16.4L269.6,42.7L269.6,42.7z M274.7,42.7V24h3.2c0.6,0,1.2,0.2,1.6,0.5
			c0.4,0.3,0.7,1,0.9,1.7c0.2,0.9,0.3,1.5,0.3,2.4c0,0.9-0.1,1.5-0.3,2.2c-0.2,0.7-0.5,1.2-0.9,1.7c0.5,0.3,0.9,0.9,1.2,1.7
			c0.3,0.9,0.4,1.7,0.4,2.7c0,0.9-0.1,1.7-0.3,2.4c-0.2,0.7-0.4,1.4-0.6,1.7c-0.2,0.3-0.6,0.7-0.9,0.9c-0.4,0.2-0.8,0.3-1.4,0.3
			h-3.2L274.7,42.7L274.7,42.7z M275.8,31.9h1.8c0.5,0,0.9,0,1.1-0.2c0.3-0.2,0.5-0.5,0.6-0.9c0.1-0.5,0.2-1,0.2-1.7
			c0-0.7-0.1-1.2-0.2-1.7s-0.3-0.9-0.6-1c-0.2-0.2-0.7-0.3-1.3-0.3h-1.7v5.8C275.7,31.9,275.8,31.9,275.8,31.9z M275.8,40.5h2.1
			c0.4,0,0.6,0,0.8-0.2c0.3-0.2,0.5-0.3,0.6-0.5s0.3-0.5,0.4-1s0.2-1,0.2-1.5c0-0.7-0.1-1.4-0.2-1.9c-0.2-0.5-0.4-0.9-0.7-1
			c-0.3-0.2-0.7-0.3-1.2-0.3h-2L275.8,40.5L275.8,40.5z M281.8,33.6c0-3.1,0.4-5.5,1.1-7.2c0.8-1.7,1.7-2.6,2.9-2.6
			c0.8,0,1.5,0.3,2.1,1.2s1.1,1.9,1.4,3.4s0.5,3.1,0.5,5c0,1.9-0.2,3.6-0.5,5.1s-0.8,2.6-1.5,3.4c-0.6,0.7-1.3,1.2-2.1,1.2
			s-1.5-0.3-2.1-1.2s-1.1-2.1-1.4-3.4C282,36.9,281.8,35.4,281.8,33.6z M283,33.6c0,2.2,0.3,3.9,0.8,5.3c0.5,1.4,1.2,1.9,2.1,1.9
			c0.8,0,1.5-0.7,2.1-1.9c0.5-1.4,0.8-3.1,0.8-5.5c0-1.5-0.1-2.9-0.3-3.9c-0.2-1.2-0.6-2.1-1-2.6c-0.4-0.7-1-0.9-1.5-0.9
			c-0.8,0-1.5,0.7-2,1.9C283.3,28.8,283,30.9,283,33.6z M291.3,42.7V24h1.7l2,13.2c0.2,1.2,0.3,2.2,0.4,2.7c0.1-0.7,0.2-1.7,0.4-2.9
			l2-13h1.5v18.7h-1.1V27.1l-2.5,15.6h-1l-2.3-15.9v15.9H291.3z"/>
	</g>
	<g>
		<g>
			<path class="st1" d="M0.2,0.4h5.9v7.5H4.6V1.7H1.7v6.2H0.2V0.4z"/>
			<path class="st1" d="M10.4,6.2l1.4,0.2c-0.2,0.5-0.5,0.9-0.9,1.2C10.6,7.9,10.1,8,9.5,8C8.6,8,7.9,7.7,7.4,7.1
				C7.1,6.6,6.9,6,6.9,5.2c0-0.9,0.2-1.6,0.7-2.1c0.5-0.5,1.1-0.8,1.8-0.8c0.8,0,1.4,0.3,1.9,0.8c0.5,0.5,0.7,1.3,0.7,2.4H8.3
				c0,0.4,0.1,0.8,0.3,1c0.2,0.2,0.5,0.4,0.8,0.4c0.2,0,0.4-0.1,0.6-0.2C10.2,6.6,10.4,6.4,10.4,6.2z M10.5,4.7
				c0-0.4-0.1-0.7-0.3-0.9C10,3.5,9.7,3.4,9.4,3.4c-0.3,0-0.6,0.1-0.8,0.3S8.4,4.3,8.4,4.7H10.5z"/>
			<path class="st1" d="M12.7,2.5H14v0.8c0.2-0.3,0.4-0.5,0.7-0.7c0.3-0.2,0.6-0.3,1-0.3c0.6,0,1.2,0.2,1.6,0.7
				C17.8,3.6,18,4.3,18,5.1c0,0.9-0.2,1.6-0.7,2.1c-0.4,0.5-1,0.8-1.6,0.8c-0.3,0-0.6-0.1-0.8-0.2s-0.5-0.3-0.8-0.6v2.7h-1.4V2.5z
				 M14.1,5.1c0,0.6,0.1,1.1,0.4,1.3c0.2,0.3,0.5,0.4,0.9,0.4c0.3,0,0.6-0.1,0.8-0.4c0.2-0.3,0.3-0.7,0.3-1.3c0-0.6-0.1-1-0.3-1.3
				c-0.2-0.3-0.5-0.4-0.8-0.4c-0.4,0-0.6,0.1-0.9,0.4C14.2,4.2,14.1,4.6,14.1,5.1z"/>
			<path class="st1" d="M21.9,6.2l1.4,0.2c-0.2,0.5-0.5,0.9-0.9,1.2C22,7.9,21.6,8,21,8c-0.9,0-1.6-0.3-2.1-0.9
				c-0.4-0.5-0.5-1.1-0.5-1.9c0-0.9,0.2-1.6,0.7-2.1c0.5-0.5,1.1-0.8,1.8-0.8c0.8,0,1.4,0.3,1.9,0.8c0.5,0.5,0.7,1.3,0.7,2.4h-3.6
				c0,0.4,0.1,0.8,0.3,1c0.2,0.2,0.5,0.4,0.8,0.4c0.2,0,0.4-0.1,0.6-0.2C21.7,6.6,21.8,6.4,21.9,6.2z M22,4.7c0-0.4-0.1-0.7-0.3-0.9
				c-0.2-0.2-0.5-0.3-0.7-0.3c-0.3,0-0.6,0.1-0.8,0.3s-0.3,0.5-0.3,0.9H22z"/>
			<path class="st1" d="M28.7,7.9h-4.1v1.4h-1.2V6.7H24c0.2-0.3,0.4-0.7,0.6-1.3c0.2-0.6,0.3-1.6,0.3-3h4.4v4.2h0.6v2.6h-1.2V7.9z
				 M27.8,6.7l0-3.1h-1.7c-0.1,1.5-0.3,2.5-0.7,3.1H27.8z"/>
			<path class="st1" d="M32.9,2.5h4.8v5.4h-1.4V3.6h-1.9v4.3h-1.4V2.5z"/>
			<path class="st1" d="M38.9,2.5h1.3v0.8c0.2-0.3,0.4-0.5,0.7-0.7c0.3-0.2,0.6-0.3,1-0.3c0.6,0,1.2,0.2,1.6,0.7
				c0.4,0.5,0.7,1.2,0.7,2.1c0,0.9-0.2,1.6-0.7,2.1c-0.4,0.5-1,0.8-1.6,0.8c-0.3,0-0.6-0.1-0.8-0.2c-0.2-0.1-0.5-0.3-0.8-0.6v2.7
				h-1.4V2.5z M40.3,5.1c0,0.6,0.1,1.1,0.4,1.3c0.2,0.3,0.5,0.4,0.9,0.4c0.3,0,0.6-0.1,0.8-0.4c0.2-0.3,0.3-0.7,0.3-1.3
				c0-0.6-0.1-1-0.3-1.3c-0.2-0.3-0.5-0.4-0.8-0.4c-0.4,0-0.6,0.1-0.9,0.4C40.4,4.2,40.3,4.6,40.3,5.1z"/>
			<path class="st1" d="M44.9,2.5h1.4v3.4l2.2-3.4h1.4v5.4h-1.4V4.4l-2.2,3.5h-1.4V2.5z"/>
			<path class="st1" d="M51,2.5h1.8l1.3,3.8l1.4-3.8h1.8v5.4h-1.2V4.3l-1.3,3.6h-1.2l-1.3-3.6v3.6H51V2.5z"/>
			<path class="st1" d="M61.5,6.2l1.4,0.2c-0.2,0.5-0.5,0.9-0.9,1.2C61.6,7.9,61.1,8,60.5,8c-0.9,0-1.6-0.3-2.1-0.9
				c-0.4-0.5-0.5-1.1-0.5-1.9c0-0.9,0.2-1.6,0.7-2.1c0.5-0.5,1.1-0.8,1.8-0.8c0.8,0,1.4,0.3,1.9,0.8C62.8,3.7,63,4.5,63,5.6h-3.6
				c0,0.4,0.1,0.8,0.3,1c0.2,0.2,0.5,0.4,0.8,0.4c0.2,0,0.4-0.1,0.6-0.2S61.4,6.4,61.5,6.2z M61.6,4.7c0-0.4-0.1-0.7-0.3-0.9
				c-0.2-0.2-0.5-0.3-0.7-0.3c-0.3,0-0.6,0.1-0.8,0.3s-0.3,0.5-0.3,0.9H61.6z"/>
			<path class="st1" d="M63.7,2.5h1.4v2h2v-2h1.4v5.4h-1.4V5.6h-2v2.3h-1.4V2.5z"/>
			<path class="st1" d="M72.9,6.2l1.4,0.2c-0.2,0.5-0.5,0.9-0.9,1.2C73,7.9,72.5,8,71.9,8c-0.9,0-1.6-0.3-2.1-0.9
				c-0.4-0.5-0.5-1.1-0.5-1.9c0-0.9,0.2-1.6,0.7-2.1c0.5-0.5,1.1-0.8,1.8-0.8c0.8,0,1.4,0.3,1.9,0.8c0.5,0.5,0.7,1.3,0.7,2.4h-3.6
				c0,0.4,0.1,0.8,0.3,1c0.2,0.2,0.5,0.4,0.8,0.4c0.2,0,0.4-0.1,0.6-0.2S72.8,6.4,72.9,6.2z M72.9,4.7c0-0.4-0.1-0.7-0.3-0.9
				c-0.2-0.2-0.5-0.3-0.7-0.3c-0.3,0-0.6,0.1-0.8,0.3c-0.2,0.2-0.3,0.5-0.3,0.9H72.9z"/>
			<path class="st1" d="M75.1,2.5h1.4v2h2v-2H80v5.4h-1.4V5.6h-2v2.3h-1.4V2.5z"/>
			<path class="st1" d="M81.1,2.5h1.4v3.4l2.2-3.4H86v5.4h-1.4V4.4l-2.2,3.5h-1.4V2.5z"/>
			<path class="st1" d="M90.3,6.2l1.4,0.2c-0.2,0.5-0.5,0.9-0.9,1.2C90.4,7.9,90,8,89.4,8c-0.9,0-1.6-0.3-2.1-0.9
				c-0.4-0.5-0.5-1.1-0.5-1.9c0-0.9,0.2-1.6,0.7-2.1c0.5-0.5,1.1-0.8,1.8-0.8c0.8,0,1.4,0.3,1.9,0.8c0.5,0.5,0.7,1.3,0.7,2.4h-3.6
				c0,0.4,0.1,0.8,0.3,1c0.2,0.2,0.5,0.4,0.8,0.4c0.2,0,0.4-0.1,0.6-0.2S90.2,6.4,90.3,6.2z M90.4,4.7c0-0.4-0.1-0.7-0.3-0.9
				c-0.2-0.2-0.5-0.3-0.7-0.3c-0.3,0-0.6,0.1-0.8,0.3c-0.2,0.2-0.3,0.5-0.3,0.9H90.4z"/>
			<path class="st1" d="M92.5,2.5h1.8l1.3,3.8L97,2.5h1.8v5.4h-1.2V4.3l-1.3,3.6H95l-1.3-3.6v3.6h-1.2V2.5z"/>
			<path class="st1" d="M102.3,2.5h1.4v2h2v-2h1.4v5.4h-1.4V5.6h-2v2.3h-1.4V2.5z"/>
			<path class="st1" d="M111.4,6.2l1.4,0.2c-0.2,0.5-0.5,0.9-0.9,1.2c-0.4,0.3-0.9,0.4-1.5,0.4c-0.9,0-1.6-0.3-2.1-0.9
				c-0.4-0.5-0.5-1.1-0.5-1.9c0-0.9,0.2-1.6,0.7-2.1c0.5-0.5,1.1-0.8,1.8-0.8c0.8,0,1.4,0.3,1.9,0.8c0.5,0.5,0.7,1.3,0.7,2.4h-3.6
				c0,0.4,0.1,0.8,0.3,1c0.2,0.2,0.5,0.4,0.8,0.4c0.2,0,0.4-0.1,0.6-0.2S111.3,6.4,111.4,6.2z M111.5,4.7c0-0.4-0.1-0.7-0.3-0.9
				c-0.2-0.2-0.5-0.3-0.7-0.3c-0.3,0-0.6,0.1-0.8,0.3c-0.2,0.2-0.3,0.5-0.3,0.9H111.5z"/>
			<path class="st1" d="M113.4,5.1c0-0.5,0.1-0.9,0.4-1.4c0.2-0.4,0.6-0.8,1-1c0.4-0.2,0.9-0.4,1.4-0.4c0.8,0,1.5,0.3,2,0.8
				c0.5,0.5,0.8,1.2,0.8,2c0,0.8-0.3,1.5-0.8,2c-0.5,0.5-1.2,0.8-2,0.8c-0.5,0-1-0.1-1.4-0.3c-0.4-0.2-0.8-0.6-1-1
				C113.5,6.2,113.4,5.7,113.4,5.1z M114.9,5.2c0,0.5,0.1,0.9,0.4,1.2s0.6,0.4,0.9,0.4c0.4,0,0.7-0.1,0.9-0.4
				c0.3-0.3,0.4-0.7,0.4-1.2c0-0.5-0.1-0.9-0.4-1.2c-0.3-0.3-0.6-0.4-0.9-0.4c-0.4,0-0.7,0.1-0.9,0.4S114.9,4.6,114.9,5.2z"/>
			<path class="st1" d="M123.8,0.2h1c0,0.4-0.1,0.8-0.3,1c-0.2,0.2-0.7,0.3-1.4,0.3c-0.1,0-0.2,0-0.3,0h-0.2c-0.5,0-0.8,0-1.1,0.1
				c-0.3,0.1-0.5,0.3-0.7,0.6c-0.2,0.3-0.3,0.8-0.3,1.4c0.2-0.4,0.5-0.7,0.8-0.9c0.3-0.2,0.7-0.3,1.2-0.3c0.7,0,1.3,0.3,1.8,0.8
				c0.5,0.6,0.7,1.2,0.7,1.9c0,0.8-0.3,1.4-0.8,2c-0.5,0.5-1.2,0.8-2,0.8c-0.6,0-1.1-0.1-1.5-0.4c-0.4-0.3-0.7-0.7-0.9-1.1
				c-0.2-0.5-0.3-1.3-0.3-2.4c0-1.3,0.2-2.2,0.7-2.8c0.5-0.6,1.3-0.9,2.5-0.9h0.7C123.6,0.4,123.7,0.4,123.8,0.2z M120.9,5.2
				c0,0.5,0.1,0.9,0.4,1.2c0.2,0.3,0.5,0.4,0.9,0.4c0.4,0,0.7-0.1,0.9-0.4c0.2-0.3,0.4-0.7,0.4-1.1c0-0.5-0.1-0.9-0.4-1.2
				c-0.2-0.3-0.6-0.4-0.9-0.4c-0.4,0-0.7,0.1-0.9,0.4S120.9,4.7,120.9,5.2z"/>
			<path class="st1" d="M124.9,7.9l2-2.8l-1.9-2.6h1.7l1,1.5l1-1.5h1.7L128.5,5l2,2.8h-1.8l-1.1-1.7l-1.1,1.7H124.9z"/>
			<path class="st1" d="M130.4,5.1c0-0.5,0.1-0.9,0.4-1.4c0.2-0.4,0.6-0.8,1-1c0.4-0.2,0.9-0.4,1.4-0.4c0.8,0,1.5,0.3,2,0.8
				c0.5,0.5,0.8,1.2,0.8,2c0,0.8-0.3,1.5-0.8,2c-0.5,0.5-1.2,0.8-2,0.8c-0.5,0-1-0.1-1.4-0.3c-0.4-0.2-0.8-0.6-1-1
				C130.5,6.2,130.4,5.7,130.4,5.1z M131.9,5.2c0,0.5,0.1,0.9,0.4,1.2s0.6,0.4,0.9,0.4s0.7-0.1,0.9-0.4c0.3-0.3,0.4-0.7,0.4-1.2
				c0-0.5-0.1-0.9-0.4-1.2c-0.3-0.3-0.6-0.4-0.9-0.4s-0.7,0.1-0.9,0.4S131.9,4.6,131.9,5.2z"/>
			<path class="st1" d="M141.1,7.9H137v1.4h-1.2V6.7h0.6c0.2-0.3,0.4-0.7,0.6-1.3c0.2-0.6,0.3-1.6,0.3-3h4.4v4.2h0.6v2.6h-1.2V7.9z
				 M140.3,6.7l0-3.1h-1.7c-0.1,1.5-0.3,2.5-0.7,3.1H140.3z"/>
			<path class="st1" d="M142.8,2.5h1.4v3.4l2.2-3.4h1.4v5.4h-1.4V4.4l-2.2,3.5h-1.4V2.5z"/>
			<path class="st1" d="M149,2.5h1.8l1.3,3.8l1.4-3.8h1.8v5.4H154V4.3l-1.3,3.6h-1.2l-1.3-3.6v3.6H149V2.5z"/>
			<path class="st1" d="M155.8,5.1c0-0.5,0.1-0.9,0.4-1.4c0.2-0.4,0.6-0.8,1-1c0.4-0.2,0.9-0.4,1.4-0.4c0.8,0,1.5,0.3,2,0.8
				c0.5,0.5,0.8,1.2,0.8,2c0,0.8-0.3,1.5-0.8,2c-0.5,0.5-1.2,0.8-2,0.8c-0.5,0-1-0.1-1.4-0.3c-0.4-0.2-0.8-0.6-1-1
				C155.9,6.2,155.8,5.7,155.8,5.1z M157.3,5.2c0,0.5,0.1,0.9,0.4,1.2s0.6,0.4,0.9,0.4s0.7-0.1,0.9-0.4c0.3-0.3,0.4-0.7,0.4-1.2
				c0-0.5-0.1-0.9-0.4-1.2c-0.3-0.3-0.6-0.4-0.9-0.4s-0.7,0.1-0.9,0.4S157.3,4.6,157.3,5.2z"/>
			<path class="st1" d="M164.4,5.1c0-0.5,0.1-0.9,0.4-1.4c0.2-0.4,0.6-0.8,1-1c0.4-0.2,0.9-0.4,1.4-0.4c0.8,0,1.5,0.3,2,0.8
				c0.5,0.5,0.8,1.2,0.8,2c0,0.8-0.3,1.5-0.8,2c-0.5,0.5-1.2,0.8-2,0.8c-0.5,0-1-0.1-1.4-0.3c-0.4-0.2-0.8-0.6-1-1
				C164.5,6.2,164.4,5.7,164.4,5.1z M165.8,5.2c0,0.5,0.1,0.9,0.4,1.2s0.6,0.4,0.9,0.4c0.4,0,0.7-0.1,0.9-0.4
				c0.3-0.3,0.4-0.7,0.4-1.2c0-0.5-0.1-0.9-0.4-1.2c-0.3-0.3-0.6-0.4-0.9-0.4c-0.4,0-0.7,0.1-0.9,0.4S165.8,4.6,165.8,5.2z"/>
			<path class="st1" d="M172,5.7V4.7c0.2,0,0.4,0,0.5,0c0.1,0,0.2-0.1,0.3-0.2C173,4.3,173,4.2,173,4c0-0.2-0.1-0.3-0.2-0.5
				c-0.1-0.1-0.3-0.2-0.6-0.2c-0.2,0-0.4,0-0.5,0.1s-0.3,0.3-0.4,0.6l-1.2-0.3c0.1-0.5,0.4-0.8,0.8-1.1s0.9-0.4,1.4-0.4
				c0.7,0,1.2,0.1,1.5,0.4c0.4,0.3,0.5,0.7,0.5,1.1c0,0.3-0.1,0.5-0.2,0.7c-0.2,0.2-0.4,0.4-0.7,0.5c0.4,0.1,0.7,0.3,0.9,0.5
				c0.2,0.2,0.3,0.5,0.3,0.8c0,0.4-0.2,0.8-0.6,1.1c-0.4,0.3-1,0.5-1.7,0.5c-1.3,0-2.1-0.5-2.4-1.5l1.3-0.2c0.2,0.5,0.6,0.8,1,0.8
				c0.3,0,0.5-0.1,0.6-0.2c0.2-0.1,0.2-0.3,0.2-0.5c0-0.2-0.1-0.4-0.3-0.5c-0.2-0.1-0.4-0.2-0.7-0.2H172z"/>
			<path class="st1" d="M175.3,2.5h1.4v2h2v-2h1.4v5.4h-1.4V5.6h-2v2.3h-1.4V2.5z"/>
			<path class="st1" d="M182.4,4.1l-1.3-0.2c0.1-0.5,0.4-0.9,0.8-1.2s0.9-0.4,1.6-0.4c0.6,0,1.1,0.1,1.4,0.2
				c0.3,0.2,0.5,0.3,0.7,0.6c0.1,0.2,0.2,0.7,0.2,1.3l0,1.7c0,0.5,0,0.8,0.1,1.1c0,0.2,0.1,0.5,0.3,0.7h-1.4c0-0.1-0.1-0.2-0.1-0.4
				c0-0.1,0-0.1-0.1-0.2c-0.2,0.2-0.5,0.4-0.8,0.5c-0.3,0.1-0.6,0.2-0.9,0.2c-0.6,0-1-0.2-1.3-0.5c-0.3-0.3-0.5-0.7-0.5-1.1
				c0-0.3,0.1-0.6,0.2-0.8c0.1-0.2,0.4-0.4,0.6-0.6c0.3-0.1,0.6-0.2,1.1-0.3c0.7-0.1,1.1-0.2,1.4-0.4V4.2c0-0.3-0.1-0.5-0.2-0.6
				c-0.1-0.1-0.4-0.2-0.8-0.2c-0.3,0-0.5,0-0.6,0.1C182.6,3.7,182.5,3.9,182.4,4.1z M184.3,5.3c-0.2,0.1-0.5,0.1-0.9,0.2
				c-0.4,0.1-0.7,0.2-0.8,0.2c-0.2,0.1-0.3,0.3-0.3,0.5c0,0.2,0.1,0.4,0.2,0.5c0.1,0.1,0.3,0.2,0.6,0.2c0.3,0,0.5-0.1,0.7-0.3
				c0.2-0.1,0.3-0.3,0.3-0.5c0-0.1,0.1-0.4,0.1-0.7V5.3z"/>
			<path class="st1" d="M186.7,2.5h1.4v2.2c0.2,0,0.4-0.1,0.5-0.2c0.1-0.1,0.2-0.4,0.4-0.8c0.2-0.5,0.4-0.9,0.6-1
				c0.2-0.1,0.5-0.2,0.9-0.2c0.1,0,0.3,0,0.6,0l0,0.9c-0.4,0-0.6,0-0.7,0.1c-0.1,0.1-0.2,0.3-0.3,0.7c-0.2,0.5-0.4,0.8-0.7,0.9
				c0.5,0.1,0.8,0.5,1.1,1.2c0,0,0,0.1,0.1,0.1l0.8,1.5h-1.5L189,6.3c-0.1-0.3-0.3-0.5-0.4-0.6c-0.1-0.1-0.3-0.1-0.5-0.1v2.3h-1.4
				V2.5z"/>
			<path class="st1" d="M191.1,5.1c0-0.5,0.1-0.9,0.4-1.4c0.2-0.4,0.6-0.8,1-1c0.4-0.2,0.9-0.4,1.4-0.4c0.8,0,1.5,0.3,2,0.8
				c0.5,0.5,0.8,1.2,0.8,2c0,0.8-0.3,1.5-0.8,2c-0.5,0.5-1.2,0.8-2,0.8c-0.5,0-1-0.1-1.4-0.3c-0.4-0.2-0.8-0.6-1-1
				C191.3,6.2,191.1,5.7,191.1,5.1z M192.6,5.2c0,0.5,0.1,0.9,0.4,1.2s0.6,0.4,0.9,0.4s0.7-0.1,0.9-0.4c0.3-0.3,0.4-0.7,0.4-1.2
				c0-0.5-0.1-0.9-0.4-1.2c-0.3-0.3-0.6-0.4-0.9-0.4s-0.7,0.1-0.9,0.4S192.6,4.6,192.6,5.2z"/>
			<path class="st1" d="M197.4,2.5h1.8l1.3,3.8l1.4-3.8h1.8v5.4h-1.2V4.3l-1.3,3.6h-1.2l-1.3-3.6v3.6h-1.2V2.5z"/>
			<path class="st1" d="M204.7,2.5h1.4v3.4l2.2-3.4h1.4v5.4h-1.4V4.4l-2.2,3.5h-1.4V2.5z"/>
			<path class="st1" d="M210.1,2.5h4.9v1.2h-1.7v4.3h-1.4V3.6h-1.7V2.5z"/>
			<path class="st1" d="M215.5,2.5h1.4v2.2h1.4c0.6,0,1,0,1.3,0.1c0.3,0.1,0.6,0.3,0.8,0.5c0.2,0.3,0.3,0.6,0.3,0.9
				c0,0.5-0.2,0.9-0.5,1.2c-0.4,0.3-0.9,0.4-1.6,0.4h-3.1V2.5z M217,7h1.3c0.4,0,0.7-0.1,0.8-0.2c0.1-0.1,0.2-0.3,0.2-0.5
				c0-0.3-0.1-0.4-0.3-0.5c-0.2-0.1-0.6-0.1-1.1-0.1H217V7z"/>
			<path class="st1" d="M226.3,4.1l-1.4,0.3c0-0.3-0.2-0.5-0.3-0.6c-0.2-0.1-0.4-0.2-0.7-0.2c-0.4,0-0.6,0.1-0.9,0.4
				c-0.2,0.2-0.3,0.7-0.3,1.2c0,0.6,0.1,1.1,0.3,1.4c0.2,0.3,0.5,0.4,0.9,0.4c0.3,0,0.5-0.1,0.7-0.2c0.2-0.2,0.3-0.4,0.4-0.8
				l1.4,0.2c-0.1,0.6-0.4,1.1-0.8,1.5c-0.4,0.3-1,0.5-1.7,0.5c-0.8,0-1.4-0.2-1.9-0.7c-0.5-0.5-0.7-1.2-0.7-2.1
				c0-0.9,0.2-1.6,0.7-2.1c0.5-0.5,1.1-0.7,1.9-0.7c0.7,0,1.2,0.1,1.6,0.4C225.8,3.1,226.1,3.5,226.3,4.1z"/>
			<path class="st1" d="M231.6,2.5v5.4h-1.4V5.6h-0.1c-0.3,0-0.5,0-0.7,0.1c-0.1,0.1-0.3,0.2-0.5,0.5l-0.1,0.1l-0.9,1.5h-1.7l1-1.6
				c0.3-0.4,0.6-0.7,0.8-0.8c-0.4,0-0.7-0.2-1-0.5c-0.2-0.3-0.4-0.6-0.4-1.1c0-0.3,0.1-0.6,0.2-0.9c0.2-0.2,0.4-0.4,0.7-0.5
				c0.3-0.1,0.7-0.1,1.2-0.1H231.6z M230.2,3.4h-1c-0.4,0-0.6,0.1-0.8,0.2c-0.2,0.1-0.2,0.3-0.2,0.5s0.1,0.4,0.3,0.5
				c0.2,0.1,0.5,0.2,0.9,0.2h0.9V3.4z"/>
			<path class="st1" d="M240,4.1l-1.4,0.3c0-0.3-0.2-0.5-0.3-0.6c-0.2-0.1-0.4-0.2-0.7-0.2c-0.4,0-0.6,0.1-0.9,0.4
				c-0.2,0.2-0.3,0.7-0.3,1.2c0,0.6,0.1,1.1,0.3,1.4c0.2,0.3,0.5,0.4,0.9,0.4c0.3,0,0.5-0.1,0.7-0.2c0.2-0.2,0.3-0.4,0.4-0.8
				l1.4,0.2c-0.1,0.6-0.4,1.1-0.8,1.5c-0.4,0.3-1,0.5-1.7,0.5c-0.8,0-1.4-0.2-1.9-0.7c-0.5-0.5-0.7-1.2-0.7-2.1
				c0-0.9,0.2-1.6,0.7-2.1c0.5-0.5,1.1-0.7,1.9-0.7c0.7,0,1.2,0.1,1.6,0.4C239.5,3.1,239.8,3.5,240,4.1z"/>
			<path class="st1" d="M242.9,5.1c0-0.5,0.1-0.9,0.4-1.4c0.2-0.4,0.6-0.8,1-1c0.4-0.2,0.9-0.4,1.4-0.4c0.8,0,1.5,0.3,2,0.8
				c0.5,0.5,0.8,1.2,0.8,2c0,0.8-0.3,1.5-0.8,2c-0.5,0.5-1.2,0.8-2,0.8c-0.5,0-1-0.1-1.4-0.3c-0.4-0.2-0.8-0.6-1-1
				C243,6.2,242.9,5.7,242.9,5.1z M244.4,5.2c0,0.5,0.1,0.9,0.4,1.2s0.6,0.4,0.9,0.4s0.7-0.1,0.9-0.4c0.3-0.3,0.4-0.7,0.4-1.2
				c0-0.5-0.1-0.9-0.4-1.2c-0.3-0.3-0.6-0.4-0.9-0.4s-0.7,0.1-0.9,0.4S244.4,4.6,244.4,5.2z"/>
			<path class="st1" d="M253.8,4.1l-1.4,0.3c0-0.3-0.2-0.5-0.3-0.6c-0.2-0.1-0.4-0.2-0.7-0.2c-0.4,0-0.6,0.1-0.9,0.4
				c-0.2,0.2-0.3,0.7-0.3,1.2c0,0.6,0.1,1.1,0.3,1.4c0.2,0.3,0.5,0.4,0.9,0.4c0.3,0,0.5-0.1,0.7-0.2c0.2-0.2,0.3-0.4,0.4-0.8
				l1.4,0.2c-0.1,0.6-0.4,1.1-0.8,1.5c-0.4,0.3-1,0.5-1.7,0.5c-0.8,0-1.4-0.2-1.9-0.7c-0.5-0.5-0.7-1.2-0.7-2.1
				c0-0.9,0.2-1.6,0.7-2.1c0.5-0.5,1.1-0.7,1.9-0.7c0.7,0,1.2,0.1,1.6,0.4C253.4,3.1,253.7,3.5,253.8,4.1z"/>
			<path class="st1" d="M254.5,2.5h1.4v2h2v-2h1.4v5.4H258V5.6h-2v2.3h-1.4V2.5z"/>
			<path class="st1" d="M260.2,5.1c0-0.5,0.1-0.9,0.4-1.4c0.2-0.4,0.6-0.8,1-1c0.4-0.2,0.9-0.4,1.4-0.4c0.8,0,1.5,0.3,2,0.8
				c0.5,0.5,0.8,1.2,0.8,2c0,0.8-0.3,1.5-0.8,2c-0.5,0.5-1.2,0.8-2,0.8c-0.5,0-1-0.1-1.4-0.3c-0.4-0.2-0.8-0.6-1-1
				C260.3,6.2,260.2,5.7,260.2,5.1z M261.6,5.2c0,0.5,0.1,0.9,0.4,1.2c0.3,0.3,0.6,0.4,0.9,0.4c0.4,0,0.7-0.1,0.9-0.4
				c0.3-0.3,0.4-0.7,0.4-1.2c0-0.5-0.1-0.9-0.4-1.2c-0.3-0.3-0.6-0.4-0.9-0.4c-0.4,0-0.7,0.1-0.9,0.4C261.8,4.2,261.6,4.6,261.6,5.2
				z"/>
			<path class="st1" d="M266.5,2.5h3.1c0.6,0,1.1,0.1,1.4,0.4c0.3,0.2,0.5,0.6,0.5,1.1c0,0.3-0.1,0.6-0.3,0.8
				c-0.2,0.2-0.4,0.4-0.7,0.4c0.4,0.1,0.7,0.3,0.8,0.5c0.2,0.3,0.3,0.5,0.3,0.8c0,0.4-0.2,0.8-0.5,1c-0.3,0.3-0.8,0.4-1.4,0.4h-3.4
				V2.5z M268,4.7h0.9c0.4,0,0.8-0.1,1-0.2c0.2-0.1,0.3-0.3,0.3-0.5c0-0.2-0.1-0.4-0.3-0.5c-0.2-0.1-0.5-0.1-1-0.1H268V4.7z M268,7
				h1.1c0.4,0,0.7,0,0.9-0.1c0.2-0.1,0.3-0.3,0.3-0.5c0-0.3-0.1-0.4-0.3-0.5c-0.2-0.1-0.6-0.2-1.2-0.2H268V7z"/>
			<path class="st1" d="M272.5,2.5h1.4v2h2v-2h1.4v5.4H276V5.6h-2v2.3h-1.4V2.5z"/>
			<path class="st1" d="M278.5,2.5h1.4v2.2h1.4c0.6,0,1,0,1.3,0.1c0.3,0.1,0.5,0.3,0.8,0.5c0.2,0.3,0.3,0.6,0.3,0.9
				c0,0.5-0.2,0.9-0.5,1.2c-0.4,0.3-0.9,0.4-1.6,0.4h-3.1V2.5z M279.9,7h1.3c0.3,0,0.6-0.1,0.8-0.2c0.2-0.1,0.2-0.3,0.2-0.5
				c0-0.3-0.1-0.4-0.3-0.5c-0.2-0.1-0.6-0.1-1.1-0.1h-0.9V7z M284.5,2.5h1.4v5.4h-1.4V2.5z"/>
			<path class="st1" d="M287.1,2.5h1.8l1.3,3.8l1.4-3.8h1.8v5.4h-1.2V4.3l-1.3,3.6h-1.2l-1.3-3.6v3.6h-1.2V2.5z"/>
			<path class="st1" d="M294.4,2.5h1.4v3.4l2.2-3.4h1.4v5.4H298V4.4l-2.2,3.5h-1.4V2.5z"/>
			<path class="st1" d="M0.1,12.9h4.8v5.4H3.5v-4.3H1.5v4.3H0.1V12.9z"/>
			<path class="st1" d="M5.8,15.5c0-0.5,0.1-0.9,0.4-1.4s0.6-0.8,1-1s0.9-0.4,1.4-0.4c0.8,0,1.5,0.3,2,0.8c0.5,0.5,0.8,1.2,0.8,2
				c0,0.8-0.3,1.5-0.8,2c-0.5,0.5-1.2,0.8-2,0.8c-0.5,0-1-0.1-1.4-0.3c-0.5-0.2-0.8-0.6-1-1C5.9,16.7,5.8,16.2,5.8,15.5z M7.2,15.6
				c0,0.5,0.1,0.9,0.4,1.2c0.3,0.3,0.6,0.4,0.9,0.4c0.4,0,0.7-0.1,0.9-0.4c0.3-0.3,0.4-0.7,0.4-1.2c0-0.5-0.1-0.9-0.4-1.2
				C9.2,14.1,8.9,14,8.6,14c-0.4,0-0.7,0.1-0.9,0.4C7.4,14.7,7.2,15.1,7.2,15.6z"/>
			<path class="st1" d="M12.1,12.9h1.4v2.2c0.2,0,0.4-0.1,0.5-0.2c0.1-0.1,0.2-0.4,0.4-0.8c0.2-0.5,0.4-0.9,0.6-1
				c0.2-0.1,0.5-0.2,0.9-0.2c0.1,0,0.3,0,0.6,0l0,0.9c-0.4,0-0.6,0-0.7,0.1c-0.1,0.1-0.2,0.3-0.3,0.7c-0.2,0.5-0.4,0.8-0.7,0.9
				c0.5,0.1,0.8,0.5,1.1,1.2c0,0,0,0.1,0.1,0.1l0.8,1.5h-1.5l-0.7-1.6c-0.1-0.3-0.3-0.5-0.4-0.6c-0.1-0.1-0.3-0.1-0.5-0.1v2.3h-1.4
				V12.9z"/>
			<path class="st1" d="M18,14.6l-1.3-0.2c0.1-0.5,0.4-0.9,0.8-1.2s0.9-0.4,1.6-0.4c0.6,0,1.1,0.1,1.4,0.2c0.3,0.2,0.5,0.3,0.7,0.6
				c0.1,0.2,0.2,0.7,0.2,1.3l0,1.7c0,0.5,0,0.8,0.1,1.1c0,0.2,0.1,0.5,0.3,0.7h-1.4c0-0.1-0.1-0.2-0.1-0.4c0-0.1,0-0.1-0.1-0.2
				c-0.2,0.2-0.5,0.4-0.8,0.5c-0.3,0.1-0.6,0.2-0.9,0.2c-0.6,0-1-0.2-1.3-0.5c-0.3-0.3-0.5-0.7-0.5-1.1c0-0.3,0.1-0.6,0.2-0.8
				c0.1-0.2,0.4-0.4,0.6-0.6c0.3-0.1,0.6-0.2,1.1-0.3c0.7-0.1,1.1-0.2,1.4-0.4v-0.1c0-0.3-0.1-0.5-0.2-0.6c-0.1-0.1-0.4-0.2-0.8-0.2
				c-0.3,0-0.5,0-0.6,0.1C18.2,14.1,18.1,14.3,18,14.6z M20,15.7c-0.2,0.1-0.5,0.1-0.9,0.2c-0.4,0.1-0.7,0.2-0.8,0.2
				c-0.2,0.1-0.3,0.3-0.3,0.5c0,0.2,0.1,0.4,0.2,0.5c0.1,0.1,0.3,0.2,0.6,0.2c0.3,0,0.5-0.1,0.7-0.3c0.2-0.1,0.3-0.3,0.3-0.5
				c0-0.1,0.1-0.4,0.1-0.7V15.7z"/>
			<path class="st1" d="M24,16.1v-0.9c0.2,0,0.4,0,0.5,0c0.1,0,0.2-0.1,0.3-0.2c0.1-0.1,0.2-0.3,0.2-0.4c0-0.2-0.1-0.3-0.2-0.5
				c-0.1-0.1-0.3-0.2-0.6-0.2c-0.2,0-0.4,0-0.5,0.1c-0.1,0.1-0.3,0.3-0.4,0.6l-1.2-0.3c0.1-0.5,0.4-0.8,0.8-1.1
				c0.4-0.2,0.9-0.4,1.4-0.4c0.7,0,1.2,0.1,1.5,0.4c0.4,0.3,0.5,0.7,0.5,1.1c0,0.3-0.1,0.5-0.2,0.7c-0.2,0.2-0.4,0.4-0.7,0.5
				c0.4,0.1,0.7,0.3,0.9,0.5c0.2,0.2,0.3,0.5,0.3,0.8c0,0.4-0.2,0.8-0.6,1.1c-0.4,0.3-1,0.5-1.7,0.5c-1.3,0-2.1-0.5-2.4-1.5l1.3-0.2
				c0.2,0.5,0.6,0.8,1,0.8c0.3,0,0.5-0.1,0.6-0.2c0.2-0.1,0.2-0.3,0.2-0.5c0-0.2-0.1-0.4-0.3-0.5c-0.2-0.1-0.4-0.2-0.7-0.2H24z"/>
			<path class="st1" d="M28.3,14.6L27,14.3c0.1-0.5,0.4-0.9,0.8-1.2s0.9-0.4,1.6-0.4c0.6,0,1.1,0.1,1.4,0.2c0.3,0.2,0.5,0.3,0.7,0.6
				c0.1,0.2,0.2,0.7,0.2,1.3l0,1.7c0,0.5,0,0.8,0.1,1.1c0,0.2,0.1,0.5,0.3,0.7h-1.4c0-0.1-0.1-0.2-0.1-0.4c0-0.1,0-0.1-0.1-0.2
				c-0.2,0.2-0.5,0.4-0.8,0.5c-0.3,0.1-0.6,0.2-0.9,0.2c-0.6,0-1-0.2-1.3-0.5c-0.3-0.3-0.5-0.7-0.5-1.1c0-0.3,0.1-0.6,0.2-0.8
				c0.1-0.2,0.4-0.4,0.6-0.6c0.3-0.1,0.6-0.2,1.1-0.3c0.7-0.1,1.1-0.2,1.4-0.4v-0.1c0-0.3-0.1-0.5-0.2-0.6c-0.1-0.1-0.4-0.2-0.8-0.2
				c-0.3,0-0.5,0-0.6,0.1C28.5,14.1,28.4,14.3,28.3,14.6z M30.2,15.7c-0.2,0.1-0.5,0.1-0.9,0.2c-0.4,0.1-0.7,0.2-0.8,0.2
				c-0.2,0.1-0.3,0.3-0.3,0.5c0,0.2,0.1,0.4,0.2,0.5c0.1,0.1,0.3,0.2,0.6,0.2c0.3,0,0.5-0.1,0.7-0.3c0.2-0.1,0.3-0.3,0.3-0.5
				c0-0.1,0.1-0.4,0.1-0.7V15.7z"/>
			<path class="st1" d="M32.6,12.9H34v2h2v-2h1.4v5.4h-1.4V16h-2v2.3h-1.4V12.9z"/>
			<path class="st1" d="M38.6,12.9h1.4v3.4l2.2-3.4h1.4v5.4h-1.4v-3.5l-2.2,3.5h-1.4V12.9z"/>
			<path class="st1" d="M49.3,12.9v5.4h-1.4v-2.2h-0.1c-0.3,0-0.5,0-0.7,0.1c-0.1,0.1-0.3,0.2-0.5,0.5l-0.1,0.1l-0.9,1.5h-1.7l1-1.6
				c0.3-0.4,0.6-0.7,0.8-0.8c-0.4,0-0.7-0.2-1-0.5c-0.2-0.3-0.4-0.6-0.4-1.1c0-0.3,0.1-0.6,0.2-0.9c0.2-0.2,0.4-0.4,0.7-0.5
				c0.3-0.1,0.7-0.1,1.2-0.1H49.3z M47.9,13.8h-1c-0.4,0-0.6,0.1-0.8,0.2c-0.2,0.1-0.2,0.3-0.2,0.5c0,0.2,0.1,0.4,0.3,0.5
				c0.2,0.1,0.5,0.2,0.9,0.2h0.9V13.8z"/>
			<path class="st1" d="M50.4,12.9h1.8l1.3,3.8l1.4-3.8h1.8v5.4h-1.2v-3.6l-1.3,3.6h-1.2l-1.3-3.6v3.6h-1.2V12.9z"/>
			<path class="st1" d="M57.7,12.9h1.4v3.4l2.2-3.4h1.4v5.4h-1.4v-3.5l-2.2,3.5h-1.4V12.9z"/>
			<path class="st1" d="M66.3,12.9h1.4v3.4l2.2-3.4h1.4v5.4h-1.4v-3.5l-2.2,3.5h-1.4V12.9z"/>
			<path class="st1" d="M74.9,12.9h4.8v5.4h-1.4v-4.3h-1.9v4.3h-1.4V12.9z"/>
			<path class="st1" d="M80.8,12.9h1.3v0.8c0.2-0.3,0.4-0.5,0.7-0.7c0.3-0.2,0.6-0.3,1-0.3c0.6,0,1.2,0.2,1.6,0.7
				c0.4,0.5,0.7,1.2,0.7,2.1c0,0.9-0.2,1.6-0.7,2.1c-0.4,0.5-1,0.8-1.6,0.8c-0.3,0-0.6-0.1-0.8-0.2c-0.2-0.1-0.5-0.3-0.8-0.6v2.7
				h-1.4V12.9z M82.2,15.5c0,0.6,0.1,1.1,0.4,1.3c0.2,0.3,0.5,0.4,0.9,0.4c0.3,0,0.6-0.1,0.8-0.4c0.2-0.3,0.3-0.7,0.3-1.3
				c0-0.6-0.1-1-0.3-1.3s-0.5-0.4-0.8-0.4c-0.4,0-0.6,0.1-0.9,0.4C82.3,14.6,82.2,15,82.2,15.5z"/>
			<path class="st1" d="M86.5,15.5c0-0.5,0.1-0.9,0.4-1.4c0.2-0.4,0.6-0.8,1-1c0.4-0.2,0.9-0.4,1.4-0.4c0.8,0,1.5,0.3,2,0.8
				c0.5,0.5,0.8,1.2,0.8,2c0,0.8-0.3,1.5-0.8,2c-0.5,0.5-1.2,0.8-2,0.8c-0.5,0-1-0.1-1.4-0.3c-0.4-0.2-0.8-0.6-1-1
				C86.6,16.7,86.5,16.2,86.5,15.5z M88,15.6c0,0.5,0.1,0.9,0.4,1.2s0.6,0.4,0.9,0.4s0.7-0.1,0.9-0.4c0.3-0.3,0.4-0.7,0.4-1.2
				c0-0.5-0.1-0.9-0.4-1.2C90,14.1,89.7,14,89.3,14s-0.7,0.1-0.9,0.4S88,15.1,88,15.6z"/>
			<path class="st1" d="M92,12.9h4.9v1.2h-1.7v4.3h-1.4v-4.3H92V12.9z"/>
			<path class="st1" d="M97.3,12.9h1.4v3.4l2.2-3.4h1.4v5.4h-1.4v-3.5l-2.2,3.5h-1.4V12.9z"/>
			<path class="st1" d="M103.4,12.9h3.1c0.6,0,1.1,0.1,1.4,0.4s0.5,0.6,0.5,1.1c0,0.3-0.1,0.6-0.3,0.8c-0.2,0.2-0.4,0.4-0.7,0.4
				c0.4,0.1,0.7,0.3,0.8,0.5c0.2,0.3,0.3,0.5,0.3,0.8c0,0.4-0.2,0.8-0.5,1c-0.3,0.3-0.8,0.4-1.4,0.4h-3.4V12.9z M104.9,15.2h0.9
				c0.4,0,0.8-0.1,1-0.2c0.2-0.1,0.3-0.3,0.3-0.5c0-0.2-0.1-0.4-0.3-0.5c-0.2-0.1-0.5-0.1-1-0.1h-0.9V15.2z M104.9,17.4h1.1
				c0.4,0,0.7,0,0.9-0.1c0.2-0.1,0.3-0.3,0.3-0.5c0-0.3-0.1-0.4-0.3-0.5c-0.2-0.1-0.6-0.2-1.2-0.2h-0.7V17.4z"/>
			<path class="st1" d="M109,15.5c0-0.5,0.1-0.9,0.4-1.4c0.2-0.4,0.6-0.8,1-1c0.4-0.2,0.9-0.4,1.4-0.4c0.8,0,1.5,0.3,2,0.8
				c0.5,0.5,0.8,1.2,0.8,2c0,0.8-0.3,1.5-0.8,2c-0.5,0.5-1.2,0.8-2,0.8c-0.5,0-1-0.1-1.4-0.3c-0.4-0.2-0.8-0.6-1-1
				C109.1,16.7,109,16.2,109,15.5z M110.5,15.6c0,0.5,0.1,0.9,0.4,1.2c0.3,0.3,0.6,0.4,0.9,0.4s0.7-0.1,0.9-0.4
				c0.3-0.3,0.4-0.7,0.4-1.2c0-0.5-0.1-0.9-0.4-1.2c-0.3-0.3-0.6-0.4-0.9-0.4s-0.7,0.1-0.9,0.4C110.6,14.7,110.5,15.1,110.5,15.6z"
				/>
			<path class="st1" d="M115.3,12.9h4.8v5.4h-1.4v-4.3h-1.9v4.3h-1.4V12.9z"/>
			<path class="st1" d="M120.9,15.5c0-0.5,0.1-0.9,0.4-1.4s0.6-0.8,1-1c0.4-0.2,0.9-0.4,1.4-0.4c0.8,0,1.5,0.3,2,0.8
				c0.5,0.5,0.8,1.2,0.8,2c0,0.8-0.3,1.5-0.8,2c-0.5,0.5-1.2,0.8-2,0.8c-0.5,0-1-0.1-1.4-0.3c-0.4-0.2-0.8-0.6-1-1
				C121.1,16.7,120.9,16.2,120.9,15.5z M122.4,15.6c0,0.5,0.1,0.9,0.4,1.2c0.3,0.3,0.6,0.4,0.9,0.4s0.7-0.1,0.9-0.4
				c0.3-0.3,0.4-0.7,0.4-1.2c0-0.5-0.1-0.9-0.4-1.2c-0.3-0.3-0.6-0.4-0.9-0.4s-0.7,0.1-0.9,0.4C122.5,14.7,122.4,15.1,122.4,15.6z"
				/>
			<path class="st1" d="M127.2,12.9h1.4v2.2c0.2,0,0.4-0.1,0.5-0.2c0.1-0.1,0.2-0.4,0.4-0.8c0.2-0.5,0.4-0.9,0.6-1s0.5-0.2,0.9-0.2
				c0.1,0,0.3,0,0.6,0l0,0.9c-0.4,0-0.6,0-0.7,0.1c-0.1,0.1-0.2,0.3-0.3,0.7c-0.2,0.5-0.4,0.8-0.7,0.9c0.5,0.1,0.8,0.5,1.1,1.2
				c0,0,0,0.1,0.1,0.1l0.8,1.5h-1.5l-0.7-1.6c-0.1-0.3-0.3-0.5-0.4-0.6c-0.1-0.1-0.3-0.1-0.5-0.1v2.3h-1.4V12.9z"/>
			<path class="st1" d="M133.2,14.6l-1.3-0.2c0.1-0.5,0.4-0.9,0.8-1.2s0.9-0.4,1.6-0.4c0.6,0,1.1,0.1,1.4,0.2
				c0.3,0.2,0.5,0.3,0.7,0.6c0.1,0.2,0.2,0.7,0.2,1.3l0,1.7c0,0.5,0,0.8,0.1,1.1c0,0.2,0.1,0.5,0.3,0.7h-1.4c0-0.1-0.1-0.2-0.1-0.4
				c0-0.1,0-0.1-0.1-0.2c-0.2,0.2-0.5,0.4-0.8,0.5c-0.3,0.1-0.6,0.2-0.9,0.2c-0.6,0-1-0.2-1.3-0.5c-0.3-0.3-0.5-0.7-0.5-1.1
				c0-0.3,0.1-0.6,0.2-0.8c0.1-0.2,0.4-0.4,0.6-0.6c0.3-0.1,0.6-0.2,1.1-0.3c0.7-0.1,1.1-0.2,1.4-0.4v-0.1c0-0.3-0.1-0.5-0.2-0.6
				c-0.1-0.1-0.4-0.2-0.8-0.2c-0.3,0-0.5,0-0.6,0.1C133.4,14.1,133.3,14.3,133.2,14.6z M135.1,15.7c-0.2,0.1-0.5,0.1-0.9,0.2
				c-0.4,0.1-0.7,0.2-0.8,0.2c-0.2,0.1-0.3,0.3-0.3,0.5c0,0.2,0.1,0.4,0.2,0.5c0.1,0.1,0.3,0.2,0.6,0.2c0.3,0,0.5-0.1,0.7-0.3
				c0.2-0.1,0.3-0.3,0.3-0.5c0-0.1,0.1-0.4,0.1-0.7V15.7z"/>
			<path class="st1" d="M139.2,16.1v-0.9c0.2,0,0.4,0,0.5,0c0.1,0,0.2-0.1,0.3-0.2c0.1-0.1,0.1-0.3,0.1-0.4c0-0.2-0.1-0.3-0.2-0.5
				c-0.1-0.1-0.3-0.2-0.6-0.2c-0.2,0-0.4,0-0.5,0.1s-0.3,0.3-0.4,0.6l-1.2-0.3c0.1-0.5,0.4-0.8,0.8-1.1s0.9-0.4,1.4-0.4
				c0.7,0,1.2,0.1,1.5,0.4c0.4,0.3,0.5,0.7,0.5,1.1c0,0.3-0.1,0.5-0.2,0.7c-0.2,0.2-0.4,0.4-0.7,0.5c0.4,0.1,0.7,0.3,0.9,0.5
				c0.2,0.2,0.3,0.5,0.3,0.8c0,0.4-0.2,0.8-0.6,1.1c-0.4,0.3-1,0.5-1.7,0.5c-1.3,0-2.1-0.5-2.4-1.5l1.3-0.2c0.2,0.5,0.6,0.8,1,0.8
				c0.3,0,0.5-0.1,0.6-0.2c0.2-0.1,0.2-0.3,0.2-0.5c0-0.2-0.1-0.4-0.3-0.5c-0.2-0.1-0.4-0.2-0.7-0.2H139.2z"/>
			<path class="st1" d="M143.5,14.6l-1.3-0.2c0.1-0.5,0.4-0.9,0.8-1.2s0.9-0.4,1.6-0.4c0.6,0,1.1,0.1,1.4,0.2
				c0.3,0.2,0.5,0.3,0.7,0.6c0.1,0.2,0.2,0.7,0.2,1.3l0,1.7c0,0.5,0,0.8,0.1,1.1c0,0.2,0.1,0.5,0.3,0.7h-1.4c0-0.1-0.1-0.2-0.1-0.4
				c0-0.1,0-0.1-0.1-0.2c-0.2,0.2-0.5,0.4-0.8,0.5c-0.3,0.1-0.6,0.2-0.9,0.2c-0.6,0-1-0.2-1.3-0.5c-0.3-0.3-0.5-0.7-0.5-1.1
				c0-0.3,0.1-0.6,0.2-0.8c0.1-0.2,0.4-0.4,0.6-0.6c0.3-0.1,0.6-0.2,1.1-0.3c0.7-0.1,1.1-0.2,1.4-0.4v-0.1c0-0.3-0.1-0.5-0.2-0.6
				c-0.1-0.1-0.4-0.2-0.8-0.2c-0.3,0-0.5,0-0.6,0.1C143.7,14.1,143.6,14.3,143.5,14.6z M145.4,15.7c-0.2,0.1-0.5,0.1-0.9,0.2
				c-0.4,0.1-0.7,0.2-0.8,0.2c-0.2,0.1-0.3,0.3-0.3,0.5c0,0.2,0.1,0.4,0.2,0.5c0.1,0.1,0.3,0.2,0.6,0.2c0.3,0,0.5-0.1,0.7-0.3
				c0.2-0.1,0.3-0.3,0.3-0.5c0-0.1,0.1-0.4,0.1-0.7V15.7z"/>
			<path class="st1" d="M147.8,12.9h1.4v2h2v-2h1.4v5.4h-1.4V16h-2v2.3h-1.4V12.9z"/>
			<path class="st1" d="M153.7,12.9h1.4v3.4l2.2-3.4h1.4v5.4h-1.4v-3.5l-2.2,3.5h-1.4V12.9z"/>
			<path class="st1" d="M164.5,12.9v5.4H163v-2.2h-0.1c-0.3,0-0.5,0-0.7,0.1c-0.1,0.1-0.3,0.2-0.5,0.5l-0.1,0.1l-0.9,1.5H159l1-1.6
				c0.3-0.4,0.6-0.7,0.8-0.8c-0.4,0-0.7-0.2-1-0.5c-0.2-0.3-0.4-0.6-0.4-1.1c0-0.3,0.1-0.6,0.2-0.9c0.2-0.2,0.4-0.4,0.7-0.5
				c0.3-0.1,0.7-0.1,1.2-0.1H164.5z M163,13.8h-1c-0.4,0-0.6,0.1-0.8,0.2c-0.2,0.1-0.2,0.3-0.2,0.5c0,0.2,0.1,0.4,0.3,0.5
				c0.2,0.1,0.5,0.2,0.9,0.2h0.9V13.8z"/>
			<path class="st1" d="M165.6,12.9h1.8l1.3,3.8l1.4-3.8h1.8v5.4h-1.2v-3.6l-1.3,3.6h-1.2l-1.3-3.6v3.6h-1.2V12.9z"/>
			<path class="st1" d="M172.9,12.9h1.4v3.4l2.2-3.4h1.4v5.4h-1.4v-3.5l-2.2,3.5h-1.4V12.9z"/>
			<path class="st1" d="M181.4,12.9h1.4v2.2c0.2,0,0.4-0.1,0.5-0.2c0.1-0.1,0.2-0.4,0.4-0.8c0.2-0.5,0.4-0.9,0.6-1
				c0.2-0.1,0.5-0.2,0.9-0.2c0.1,0,0.3,0,0.6,0l0,0.9c-0.4,0-0.6,0-0.7,0.1c-0.1,0.1-0.2,0.3-0.3,0.7c-0.2,0.5-0.4,0.8-0.7,0.9
				c0.5,0.1,0.8,0.5,1.1,1.2c0,0,0,0.1,0.1,0.1l0.8,1.5h-1.5l-0.7-1.6c-0.1-0.3-0.3-0.5-0.4-0.6c-0.1-0.1-0.3-0.1-0.5-0.1v2.3h-1.4
				V12.9z"/>
			<path class="st1" d="M188.8,12.9h4.8v5.4h-1.4v-4.3h-1.9v4.3h-1.4V12.9z"/>
			<path class="st1" d="M194.8,12.9h1.3v0.8c0.2-0.3,0.4-0.5,0.7-0.7c0.3-0.2,0.6-0.3,1-0.3c0.6,0,1.2,0.2,1.6,0.7
				c0.4,0.5,0.7,1.2,0.7,2.1c0,0.9-0.2,1.6-0.7,2.1c-0.4,0.5-1,0.8-1.6,0.8c-0.3,0-0.6-0.1-0.8-0.2c-0.2-0.1-0.5-0.3-0.8-0.6v2.7
				h-1.4V12.9z M196.2,15.5c0,0.6,0.1,1.1,0.4,1.3c0.2,0.3,0.5,0.4,0.9,0.4c0.3,0,0.6-0.1,0.8-0.4c0.2-0.3,0.3-0.7,0.3-1.3
				c0-0.6-0.1-1-0.3-1.3c-0.2-0.3-0.5-0.4-0.8-0.4c-0.3,0-0.6,0.1-0.9,0.4C196.3,14.6,196.2,15,196.2,15.5z"/>
			<path class="st1" d="M200.8,12.9h1.4v3.4l2.2-3.4h1.4v5.4h-1.4v-3.5l-2.2,3.5h-1.4V12.9z"/>
			<path class="st1" d="M206.9,12.9h1.8l1.3,3.8l1.4-3.8h1.8v5.4H212v-3.6l-1.3,3.6h-1.2l-1.3-3.6v3.6h-1.2V12.9z"/>
			<path class="st1" d="M217.4,16.6l1.4,0.2c-0.2,0.5-0.5,0.9-0.9,1.2c-0.4,0.3-0.9,0.4-1.5,0.4c-0.9,0-1.6-0.3-2.1-0.9
				c-0.4-0.5-0.5-1.1-0.5-1.9c0-0.9,0.2-1.6,0.7-2.1c0.5-0.5,1.1-0.8,1.8-0.8c0.8,0,1.4,0.3,1.9,0.8c0.5,0.5,0.7,1.3,0.7,2.4h-3.6
				c0,0.4,0.1,0.8,0.3,1c0.2,0.2,0.5,0.4,0.8,0.4c0.2,0,0.4-0.1,0.6-0.2C217.2,17.1,217.3,16.9,217.4,16.6z M217.5,15.1
				c0-0.4-0.1-0.7-0.3-0.9c-0.2-0.2-0.5-0.3-0.7-0.3c-0.3,0-0.6,0.1-0.8,0.3c-0.2,0.2-0.3,0.5-0.3,0.9H217.5z"/>
			<path class="st1" d="M219.6,12.9h1.4v2h2v-2h1.4v5.4h-1.4V16h-2v2.3h-1.4V12.9z"/>
			<path class="st1" d="M228.8,16.6l1.4,0.2c-0.2,0.5-0.5,0.9-0.9,1.2c-0.4,0.3-0.9,0.4-1.5,0.4c-0.9,0-1.6-0.3-2.1-0.9
				c-0.4-0.5-0.5-1.1-0.5-1.9c0-0.9,0.2-1.6,0.7-2.1c0.5-0.5,1.1-0.8,1.8-0.8c0.8,0,1.4,0.3,1.9,0.8c0.5,0.5,0.7,1.3,0.7,2.4h-3.6
				c0,0.4,0.1,0.8,0.3,1c0.2,0.2,0.5,0.4,0.8,0.4c0.2,0,0.4-0.1,0.6-0.2C228.6,17.1,228.7,16.9,228.8,16.6z M228.8,15.1
				c0-0.4-0.1-0.7-0.3-0.9c-0.2-0.2-0.5-0.3-0.7-0.3c-0.3,0-0.6,0.1-0.8,0.3c-0.2,0.2-0.3,0.5-0.3,0.9H228.8z"/>
			<path class="st1" d="M231,12.9h1.4v2h2v-2h1.4v5.4h-1.4V16h-2v2.3H231V12.9z"/>
			<path class="st1" d="M237,12.9h1.4v3.4l2.2-3.4h1.4v5.4h-1.4v-3.5l-2.2,3.5H237V12.9z"/>
			<path class="st1" d="M243,12.9h1.4v2.2h1.1c0.1-0.7,0.3-1.3,0.8-1.7c0.5-0.4,1.1-0.6,1.8-0.6c0.8,0,1.4,0.2,1.9,0.7
				c0.5,0.5,0.7,1.2,0.7,2.1c0,0.5-0.1,1-0.3,1.4c-0.2,0.4-0.5,0.7-0.8,1c-0.4,0.3-0.9,0.4-1.5,0.4c-0.9,0-1.5-0.2-1.9-0.7
				c-0.4-0.5-0.7-1-0.7-1.5h-1.1v2.1H243V12.9z M248.2,13.9c-0.4,0-0.7,0.1-0.9,0.4c-0.2,0.3-0.3,0.7-0.3,1.2c0,0.7,0.1,1.2,0.3,1.4
				c0.2,0.3,0.5,0.4,0.9,0.4c0.4,0,0.6-0.1,0.8-0.4c0.2-0.3,0.3-0.7,0.3-1.3c0-0.7-0.1-1.1-0.3-1.4C248.8,14,248.6,13.9,248.2,13.9z
				"/>
		</g>
	</g>
</g>
</svg>
