<?xml version="1.0" encoding="utf-8"?>
<!-- Generator: Adobe Illustrator 25.2.3, SVG Export Plug-In . SVG Version: 6.00 Build 0)  -->
<svg version="1.1" id="Layer_1" xmlns="http://www.w3.org/2000/svg" xmlns:xlink="http://www.w3.org/1999/xlink" x="0px" y="0px"
	 viewBox="0 0 214.5 21.8" style="enable-background:new 0 0 214.5 21.8;" xml:space="preserve">
<style type="text/css">
	.st0{fill:#147BB8;}
</style>
<g>
	<path class="st0" d="M0,13c0-1.8,0.3-3.2,0.8-4.4c0.4-0.9,0.9-1.7,1.6-2.4S3.8,5,4.6,4.7C5.7,4.2,6.9,4,8.3,4
		c2.5,0,4.6,0.8,6.1,2.4s2.3,3.8,2.3,6.6c0,2.8-0.8,4.9-2.3,6.5s-3.5,2.3-6,2.3c-2.6,0-4.6-0.8-6.1-2.3S0,15.7,0,13z M3.6,12.9
		c0,1.9,0.4,3.4,1.3,4.4s2,1.5,3.4,1.5s2.5-0.5,3.4-1.5s1.3-2.5,1.3-4.5c0-2-0.4-3.4-1.3-4.4s-2-1.5-3.4-1.5S5.8,7.4,4.9,8.4
		S3.6,10.9,3.6,12.9z"/>
	<path class="st0" d="M19.4,4.3h3.5v7.3c0.8-0.1,1.3-0.3,1.6-0.6s0.7-1.2,1.3-2.7c0.7-1.9,1.4-3,2.2-3.5c0.7-0.5,1.9-0.7,3.5-0.7
		c0.1,0,0.2,0,0.5,0v2.6l-0.5,0c-0.7,0-1.2,0.1-1.6,0.3S29.2,7.4,29,7.8s-0.5,1.1-0.9,2.2c-0.2,0.6-0.4,1.1-0.7,1.5
		s-0.7,0.8-1.3,1.1c0.8,0.2,1.4,0.7,1.9,1.3s1.1,1.6,1.7,2.8l2.3,4.7H28L25.9,17c0-0.1-0.1-0.2-0.2-0.4c0-0.1-0.2-0.3-0.4-0.8
		c-0.4-0.8-0.8-1.4-1.1-1.6s-0.7-0.3-1.3-0.3v7.5h-3.5V4.3z"/>
	<path class="st0" d="M32.9,4.3h3.9l4,8.9l3.4-8.9h3.6L42,17.3c-0.6,1.4-1.3,2.5-1.9,3.2s-1.5,1.1-2.5,1.1c-1,0-1.8-0.1-2.4-0.2
		v-2.6c0.5,0,0.9,0,1.3,0c0.8,0,1.4-0.1,1.7-0.4s0.7-0.9,1-1.9L32.9,4.3z"/>
	<path class="st0" d="M49.6,4.3h6.9c1.4,0,2.4,0.1,3,0.2s1.3,0.3,1.8,0.7s1,0.8,1.3,1.4s0.5,1.3,0.5,2c0,0.8-0.2,1.5-0.7,2.2
		s-1,1.2-1.8,1.5c1,0.3,1.9,0.8,2.4,1.6s0.8,1.6,0.8,2.6c0,0.8-0.2,1.5-0.5,2.3s-0.9,1.3-1.5,1.8s-1.4,0.7-2.3,0.8
		c-0.6,0.1-2,0.1-4.2,0.1h-5.8V4.3z M53,7.1v4h2.3c1.4,0,2.2,0,2.5-0.1c0.6-0.1,1.1-0.3,1.4-0.6s0.5-0.8,0.5-1.3
		c0-0.5-0.1-1-0.4-1.3S58.6,7.3,58,7.2c-0.3,0-1.3-0.1-3-0.1H53z M53,14v4.6h3.2c1.2,0,2,0,2.4-0.1c0.5-0.1,0.9-0.3,1.3-0.7
		s0.5-0.8,0.5-1.5c0-0.5-0.1-1-0.4-1.3s-0.6-0.6-1.1-0.8S57.4,14,55.8,14H53z"/>
	<path class="st0" d="M81.2,21.5h-3.8l-1.5-3.9H69l-1.4,3.9h-3.7l6.7-17.2h3.7L81.2,21.5z M74.8,14.7l-2.4-6.4l-2.3,6.4H74.8z"/>
	<path class="st0" d="M83.1,4.3h3.2v11.4l7-11.4h3.5v17.2h-3.2V10.2l-6.9,11.2h-3.5V4.3z M92,0h1.6c-0.1,1.1-0.5,1.9-1.1,2.5
		S91,3.4,89.9,3.4S88,3.1,87.4,2.5s-1-1.4-1.1-2.5h1.6c0.1,0.6,0.2,1,0.6,1.3s0.8,0.4,1.5,0.4s1.1-0.1,1.5-0.4S91.9,0.6,92,0z"/>
	<path class="st0" d="M104.1,21.5V7.2H99V4.3h13.7v2.9h-5.1v14.3H104.1z"/>
	<path class="st0" d="M118.4,3.2c0.9,0,1.8,0.2,2.6,0.7c0.8,0.4,1.5,1.1,1.9,1.9c0.5,0.8,0.7,1.7,0.7,2.6c0,0.9-0.2,1.8-0.7,2.6
		c-0.5,0.8-1.1,1.5-1.9,1.9c-0.8,0.5-1.7,0.7-2.6,0.7c-0.9,0-1.8-0.2-2.6-0.7c-0.8-0.5-1.5-1.1-1.9-1.9s-0.7-1.7-0.7-2.6
		c0-0.9,0.2-1.8,0.7-2.6c0.5-0.8,1.1-1.5,1.9-1.9C116.6,3.5,117.5,3.2,118.4,3.2z M118.4,4.3c-0.7,0-1.4,0.2-2.1,0.5
		c-0.7,0.4-1.2,0.9-1.6,1.6c-0.4,0.7-0.6,1.4-0.6,2.1c0,0.7,0.2,1.4,0.6,2.1c0.4,0.7,0.9,1.2,1.6,1.6s1.4,0.6,2.1,0.6
		c0.7,0,1.4-0.2,2.1-0.6c0.7-0.4,1.2-0.9,1.6-1.6c0.4-0.7,0.6-1.4,0.6-2.1c0-0.7-0.2-1.4-0.6-2.1c-0.4-0.7-0.9-1.2-1.6-1.6
		C119.8,4.4,119.1,4.3,118.4,4.3z M116,11.3V5.7h1.1c1.1,0,1.6,0,1.8,0c0.4,0,0.7,0.1,0.9,0.2c0.2,0.1,0.4,0.3,0.5,0.5
		c0.1,0.2,0.2,0.5,0.2,0.8c0,0.4-0.1,0.7-0.4,1c-0.3,0.3-0.6,0.5-1.1,0.5c0.2,0.1,0.3,0.1,0.4,0.2c0.1,0.1,0.2,0.2,0.4,0.4
		c0,0.1,0.2,0.3,0.4,0.7l0.7,1.1h-1.4l-0.5-0.9c-0.3-0.6-0.6-1-0.8-1.1S117.7,9,117.4,9h-0.3v2.3H116z M117.1,8.1h0.5
		c0.7,0,1.1,0,1.2-0.1c0.2,0,0.3-0.1,0.4-0.3c0.1-0.1,0.1-0.3,0.1-0.4c0-0.2,0-0.3-0.1-0.4s-0.2-0.2-0.4-0.3
		c-0.2-0.1-0.6-0.1-1.2-0.1h-0.5V8.1z"/>
	<path class="st0" d="M142.1,19.5v2h-3.4v-2c-2.7-0.1-4.7-0.8-5.8-2s-1.7-2.8-1.7-4.7c0-2,0.6-3.6,1.8-4.8s3.1-1.8,5.7-2V4.3h3.4V6
		c2.7,0.1,4.7,0.8,5.8,2s1.7,2.8,1.7,4.7c0,1.9-0.6,3.5-1.7,4.7S144.8,19.4,142.1,19.5z M138.7,16.6V8.9c-1.5,0-2.5,0.3-3.2,1
		s-1,1.6-1,3C134.6,15.3,135.9,16.6,138.7,16.6z M142.1,16.6c0.9,0,1.7-0.2,2.3-0.5s1.1-0.7,1.4-1.2s0.4-1.3,0.4-2.3
		c0-2.5-1.4-3.7-4.1-3.7V16.6z"/>
	<path class="st0" d="M151.7,13c0-1.8,0.3-3.2,0.8-4.4c0.4-0.9,0.9-1.7,1.6-2.4s1.4-1.2,2.2-1.5c1.1-0.5,2.3-0.7,3.7-0.7
		c2.5,0,4.6,0.8,6.1,2.4s2.3,3.8,2.3,6.6c0,2.8-0.8,4.9-2.3,6.5s-3.5,2.3-6,2.3c-2.6,0-4.6-0.8-6.1-2.3S151.7,15.7,151.7,13z
		 M155.3,12.9c0,1.9,0.4,3.4,1.3,4.4s2,1.5,3.4,1.5s2.5-0.5,3.4-1.5s1.3-2.5,1.3-4.5c0-2-0.4-3.4-1.3-4.4s-2-1.5-3.4-1.5
		s-2.6,0.5-3.5,1.5S155.3,10.9,155.3,12.9z"/>
	<path class="st0" d="M171.1,21.5V4.3h5.6c2.1,0,3.5,0.1,4.1,0.3c1,0.3,1.8,0.8,2.5,1.7s1,2,1,3.3c0,1.1-0.2,1.9-0.6,2.7
		s-0.9,1.3-1.5,1.7s-1.2,0.7-1.8,0.8c-0.8,0.2-2,0.2-3.6,0.2h-2.3v6.5H171.1z M174.5,7.2v4.9h1.9c1.4,0,2.3-0.1,2.7-0.3
		s0.8-0.5,1.1-0.8s0.4-0.8,0.4-1.3c0-0.6-0.2-1.1-0.6-1.5s-0.8-0.7-1.4-0.8c-0.4-0.1-1.2-0.1-2.5-0.1H174.5z"/>
	<path class="st0" d="M190.6,21.5V7.2h-5.1V4.3h13.7v2.9h-5.1v14.3H190.6z"/>
	<path class="st0" d="M201.4,21.5V4.3h12.7v2.9h-9.3V11h8.6v2.9h-8.6v4.7h9.6v2.9H201.4z"/>
</g>
</svg>
