<?xml version="1.0" encoding="utf-8"?>
<!-- Generator: Adobe Illustrator 25.2.3, SVG Export Plug-In . SVG Version: 6.00 Build 0)  -->
<svg version="1.1" id="Layer_1" xmlns="http://www.w3.org/2000/svg" xmlns:xlink="http://www.w3.org/1999/xlink" x="0px" y="0px"
	 viewBox="0 0 274.9 72.7" style="enable-background:new 0 0 274.9 72.7;" xml:space="preserve">
<style type="text/css">
	.st0{fill:#147BB8;}
</style>
<g>
	<path class="st0" d="M9.4,8.2L11,8.6c-0.3,1.3-0.9,2.3-1.8,3c-0.9,0.7-1.9,1-3.2,1c-1.3,0-2.4-0.3-3.2-0.8C2,11.3,1.4,10.6,0.9,9.5
		c-0.4-1-0.6-2.1-0.6-3.3C0.3,5,0.5,3.9,1,3C1.5,2,2.2,1.3,3.1,0.8C4,0.3,5,0.1,6,0.1c1.2,0,2.2,0.3,3.1,0.9s1.4,1.5,1.7,2.6L9.2,4
		C9,3.1,8.6,2.5,8,2.1S6.8,1.5,6,1.5c-0.9,0-1.7,0.2-2.3,0.7C3,2.6,2.6,3.2,2.3,3.9C2.1,4.7,1.9,5.5,1.9,6.3c0,1,0.2,1.9,0.5,2.7
		c0.3,0.8,0.8,1.3,1.4,1.7s1.3,0.6,2.1,0.6c0.9,0,1.7-0.3,2.3-0.8C8.8,10,9.2,9.2,9.4,8.2z"/>
	<path class="st0" d="M12.8,3.6h7v8.8h-1.5V4.9h-4v7.6h-1.5V3.6z"/>
	<path class="st0" d="M21.5,8.1c0-1.6,0.5-2.8,1.4-3.6c0.8-0.7,1.7-1,2.8-1c1.2,0,2.2,0.4,3,1.2c0.8,0.8,1.2,1.9,1.2,3.3
		c0,1.1-0.2,2-0.5,2.7c-0.3,0.7-0.8,1.2-1.5,1.5c-0.6,0.4-1.4,0.5-2.1,0.5c-1.2,0-2.2-0.4-3-1.2S21.5,9.5,21.5,8.1z M23,8.1
		c0,1.1,0.2,2,0.7,2.5c0.5,0.6,1.1,0.8,1.9,0.8c0.7,0,1.4-0.3,1.9-0.8C28,10,28.2,9.2,28.2,8c0-1.1-0.2-1.9-0.7-2.5
		C27,5,26.4,4.7,25.6,4.7c-0.7,0-1.4,0.3-1.9,0.8S23,6.9,23,8.1z"/>
	<path class="st0" d="M37.2,9.2l1.5,0.2c-0.2,1-0.6,1.8-1.2,2.4c-0.7,0.6-1.5,0.9-2.4,0.9c-1.2,0-2.2-0.4-2.9-1.2
		C31.4,10.7,31,9.6,31,8.1c0-1,0.2-1.8,0.5-2.5s0.8-1.2,1.4-1.6c0.6-0.4,1.3-0.5,2.1-0.5c1,0,1.7,0.2,2.3,0.7c0.6,0.5,1,1.2,1.2,2.1
		l-1.5,0.2c-0.1-0.6-0.4-1-0.7-1.3s-0.8-0.4-1.3-0.4c-0.8,0-1.4,0.3-1.8,0.8C32.8,6,32.6,6.9,32.6,8c0,1.2,0.2,2,0.7,2.6
		s1,0.8,1.8,0.8c0.6,0,1.1-0.2,1.5-0.5C36.9,10.5,37.1,10,37.2,9.2z"/>
	<path class="st0" d="M39.6,8.1c0-1.6,0.5-2.8,1.4-3.6c0.8-0.7,1.7-1,2.8-1c1.2,0,2.2,0.4,3,1.2c0.8,0.8,1.2,1.9,1.2,3.3
		c0,1.1-0.2,2-0.5,2.7c-0.3,0.7-0.8,1.2-1.5,1.5s-1.4,0.5-2.1,0.5c-1.2,0-2.2-0.4-3-1.2C40,10.7,39.6,9.5,39.6,8.1z M41.2,8.1
		c0,1.1,0.2,2,0.7,2.5c0.5,0.6,1.1,0.8,1.9,0.8c0.7,0,1.4-0.3,1.9-0.8c0.5-0.6,0.7-1.4,0.7-2.6c0-1.1-0.2-1.9-0.7-2.5
		c-0.5-0.6-1.1-0.8-1.8-0.8c-0.7,0-1.4,0.3-1.9,0.8S41.2,6.9,41.2,8.1z"/>
	<path class="st0" d="M56.1,0l1.3,0c-0.1,0.6-0.2,1-0.4,1.2c-0.2,0.2-0.5,0.4-0.8,0.4s-0.9,0.1-1.9,0.1c-1.2,0-2.1,0.1-2.5,0.4
		s-0.8,0.6-1,1.1c-0.2,0.5-0.3,1.2-0.3,2c0.4-0.6,0.8-1,1.3-1.3c0.5-0.3,1.1-0.4,1.7-0.4c1.2,0,2.1,0.4,2.9,1.2
		c0.8,0.8,1.1,1.9,1.1,3.2c0,1-0.2,1.9-0.6,2.5s-0.8,1.2-1.4,1.5s-1.2,0.5-2.1,0.5c-1,0-1.9-0.2-2.4-0.7c-0.6-0.5-1-1.1-1.3-1.8
		s-0.5-2-0.5-3.9c0-2.3,0.4-3.9,1.2-4.7c0.8-0.8,2-1.2,3.6-1.2c1,0,1.6,0,1.7,0S56.1,0.1,56.1,0z M56,8c0-0.9-0.2-1.7-0.7-2.3
		c-0.4-0.6-1-0.9-1.8-0.9c-0.8,0-1.5,0.3-1.9,0.9C51.2,6.4,51,7.3,51,8.3c0,1,0.2,1.8,0.7,2.3c0.5,0.5,1.1,0.8,1.8,0.8
		c0.7,0,1.3-0.3,1.8-0.9C55.8,9.9,56,9.1,56,8z"/>
	<path class="st0" d="M64.9,9.2l1.5,0.2c-0.2,1-0.6,1.8-1.2,2.4c-0.7,0.6-1.5,0.9-2.4,0.9c-1.2,0-2.2-0.4-2.9-1.2
		c-0.7-0.8-1.1-1.9-1.1-3.4c0-1,0.2-1.8,0.5-2.5S60,4.3,60.6,4c0.6-0.4,1.3-0.5,2.1-0.5c1,0,1.7,0.2,2.3,0.7c0.6,0.5,1,1.2,1.2,2.1
		l-1.5,0.2c-0.1-0.6-0.4-1-0.7-1.3s-0.8-0.4-1.3-0.4c-0.8,0-1.4,0.3-1.8,0.8C60.5,6,60.3,6.9,60.3,8c0,1.2,0.2,2,0.7,2.6
		s1,0.8,1.8,0.8c0.6,0,1.1-0.2,1.5-0.5C64.6,10.5,64.8,10,64.9,9.2z"/>
	<path class="st0" d="M66.9,3.6H74v1.2h-2.8v7.6h-1.5V4.9h-2.8V3.6z"/>
	<path class="st0" d="M75.5,3.6h3.4c0.8,0,1.5,0.1,1.9,0.2c0.4,0.1,0.8,0.4,1.1,0.8C82.2,5,82.3,5.5,82.3,6c0,0.4-0.1,0.8-0.3,1.1
		c-0.2,0.3-0.4,0.6-0.8,0.8c0.4,0.1,0.8,0.4,1,0.8c0.3,0.4,0.4,0.8,0.4,1.3c-0.1,0.8-0.4,1.5-0.9,1.9c-0.5,0.4-1.3,0.6-2.4,0.6h-4
		V3.6z M77,7.4h1.6c0.6,0,1.1,0,1.3-0.1c0.2-0.1,0.5-0.2,0.6-0.4c0.2-0.2,0.3-0.4,0.3-0.7c0-0.5-0.2-0.8-0.5-1
		C80,5,79.4,4.9,78.6,4.9H77V7.4z M77,11.2h2c0.8,0,1.4-0.1,1.7-0.3c0.3-0.2,0.5-0.5,0.5-1c0-0.3-0.1-0.5-0.3-0.8
		c-0.2-0.2-0.4-0.4-0.7-0.5c-0.3-0.1-0.8-0.1-1.4-0.1H77V11.2z"/>
	<path class="st0" d="M84.1,15.9l-0.2-1.4c0.3,0.1,0.6,0.1,0.9,0.1c0.3,0,0.6-0.1,0.8-0.2s0.4-0.3,0.5-0.5c0.1-0.1,0.2-0.5,0.5-1.1
		c0-0.1,0.1-0.2,0.1-0.4l-3.3-8.8h1.6l1.8,5.1c0.2,0.6,0.5,1.3,0.6,2c0.2-0.7,0.4-1.4,0.6-2l1.9-5.1h1.5l-3.4,9
		c-0.4,1-0.6,1.6-0.8,2c-0.3,0.5-0.6,0.9-0.9,1.1C85.9,15.9,85.5,16,85,16C84.7,16,84.4,16,84.1,15.9z"/>
	<path class="st0" d="M98.5,9.6l1.5,0.2c-0.2,0.9-0.7,1.6-1.4,2.1s-1.5,0.7-2.5,0.7c-1.3,0-2.3-0.4-3.1-1.2
		c-0.8-0.8-1.1-1.9-1.1-3.3c0-1.5,0.4-2.6,1.1-3.5s1.8-1.2,3-1.2c1.2,0,2.1,0.4,2.9,1.2s1.1,1.9,1.1,3.4c0,0.1,0,0.2,0,0.4h-6.6
		c0.1,1,0.3,1.7,0.8,2.2c0.5,0.5,1.1,0.8,1.8,0.8c0.5,0,1-0.1,1.4-0.4S98.2,10.3,98.5,9.6z M93.6,7.2h4.9c-0.1-0.7-0.3-1.3-0.6-1.7
		c-0.5-0.6-1.1-0.9-1.9-0.9c-0.7,0-1.3,0.2-1.7,0.7C93.9,5.8,93.6,6.4,93.6,7.2z"/>
	<path class="st0" d="M100.5,3.6h7.2v1.2h-2.8v7.6h-1.5V4.9h-2.8V3.6z"/>
	<path class="st0" d="M113.8,3.6h7v8.8h-1.5V4.9h-4v7.6h-1.5V3.6z"/>
	<path class="st0" d="M122.5,8.1c0-1.6,0.5-2.8,1.4-3.6c0.8-0.7,1.7-1,2.8-1c1.2,0,2.2,0.4,3,1.2c0.8,0.8,1.2,1.9,1.2,3.3
		c0,1.1-0.2,2-0.5,2.7c-0.3,0.7-0.8,1.2-1.5,1.5c-0.6,0.4-1.4,0.5-2.1,0.5c-1.2,0-2.2-0.4-3-1.2S122.5,9.5,122.5,8.1z M124,8.1
		c0,1.1,0.2,2,0.7,2.5c0.5,0.6,1.1,0.8,1.9,0.8c0.7,0,1.4-0.3,1.9-0.8c0.5-0.6,0.7-1.4,0.7-2.6c0-1.1-0.2-1.9-0.7-2.5
		c-0.5-0.6-1.1-0.8-1.8-0.8c-0.7,0-1.4,0.3-1.9,0.8S124,6.9,124,8.1z"/>
	<path class="st0" d="M133.3,3.6h6.1v7.6h1V15h-1.2v-2.5h-6.9V15H131v-3.7h0.8C132.8,9.8,133.3,7.3,133.3,3.6z M134.5,4.9
		c-0.1,2.9-0.6,5-1.3,6.4h4.7V4.9H134.5z"/>
	<path class="st0" d="M143.2,3.6h6.1v7.6h1V15h-1.2v-2.5h-6.9V15h-1.2v-3.7h0.8C142.8,9.8,143.3,7.3,143.2,3.6z M144.5,4.9
		c-0.1,2.9-0.6,5-1.3,6.4h4.7V4.9H144.5z"/>
	<path class="st0" d="M158,9.6l1.5,0.2c-0.2,0.9-0.7,1.6-1.4,2.1c-0.7,0.5-1.5,0.7-2.5,0.7c-1.3,0-2.3-0.4-3.1-1.2
		c-0.8-0.8-1.1-1.9-1.1-3.3c0-1.5,0.4-2.6,1.1-3.5s1.8-1.2,3-1.2c1.2,0,2.1,0.4,2.9,1.2c0.7,0.8,1.1,1.9,1.1,3.4c0,0.1,0,0.2,0,0.4
		H153c0.1,1,0.3,1.7,0.8,2.2s1.1,0.8,1.8,0.8c0.5,0,1-0.1,1.4-0.4C157.5,10.7,157.8,10.3,158,9.6z M153.1,7.2h4.9
		c-0.1-0.7-0.3-1.3-0.6-1.7c-0.5-0.6-1.1-0.9-1.9-0.9c-0.7,0-1.3,0.2-1.7,0.7S153.1,6.4,153.1,7.2z"/>
	<path class="st0" d="M161.4,15.8V3.6h1.4v1.1c0.3-0.4,0.7-0.8,1.1-1c0.4-0.2,0.9-0.3,1.5-0.3c0.8,0,1.4,0.2,2,0.6
		c0.6,0.4,1,0.9,1.3,1.6c0.3,0.7,0.4,1.5,0.4,2.3c0,0.9-0.2,1.7-0.5,2.4c-0.3,0.7-0.8,1.3-1.4,1.7c-0.6,0.4-1.3,0.6-1.9,0.6
		c-0.5,0-0.9-0.1-1.3-0.3s-0.7-0.5-1-0.8v4.3H161.4z M162.8,8.1c0,1.1,0.2,2,0.7,2.5c0.5,0.5,1,0.8,1.7,0.8c0.7,0,1.2-0.3,1.7-0.8
		c0.5-0.6,0.7-1.4,0.7-2.6c0-1.1-0.2-2-0.7-2.5s-1-0.8-1.7-0.8c-0.6,0-1.2,0.3-1.7,0.9C163,6.1,162.8,7,162.8,8.1z"/>
	<path class="st0" d="M176.2,3.6v3.8c0.5,0,0.8-0.1,1-0.3s0.5-0.7,0.8-1.6c0.3-0.8,0.7-1.4,0.9-1.6c0.3-0.2,0.7-0.3,1.3-0.3h0.5v1.2
		l-0.4,0c-0.4,0-0.7,0.1-0.8,0.2c-0.1,0.1-0.3,0.5-0.5,1.1c-0.2,0.6-0.4,1-0.6,1.2s-0.5,0.4-0.9,0.6c0.6,0.2,1.3,0.8,1.9,1.8
		l1.6,2.7h-1.6l-1.6-2.7c-0.3-0.6-0.6-0.9-0.9-1.1s-0.5-0.3-0.9-0.3v4.1h-1.5V8.4c-0.3,0-0.6,0.1-0.9,0.3c-0.2,0.2-0.5,0.5-0.9,1.1
		l-1.6,2.7h-1.6l1.6-2.7c0.6-1,1.3-1.6,1.9-1.8c-0.4-0.2-0.8-0.4-0.9-0.7c-0.2-0.2-0.4-0.8-0.8-1.7c-0.1-0.3-0.3-0.5-0.4-0.6
		c-0.1-0.1-0.4-0.1-0.6-0.1c-0.1,0-0.2,0-0.4,0V3.6h0.2c0.6,0,1,0,1.2,0.1c0.2,0.1,0.4,0.2,0.6,0.4c0.2,0.2,0.4,0.7,0.7,1.4
		c0.4,0.9,0.6,1.4,0.8,1.6c0.2,0.2,0.5,0.3,1,0.3V3.6H176.2z"/>
	<path class="st0" d="M188,11.4c-0.6,0.5-1.1,0.8-1.6,1s-1.1,0.3-1.6,0.3c-1,0-1.7-0.2-2.2-0.7c-0.5-0.5-0.8-1.1-0.8-1.8
		c0-0.4,0.1-0.8,0.3-1.2c0.2-0.4,0.5-0.6,0.8-0.9s0.7-0.4,1.1-0.5c0.3-0.1,0.7-0.2,1.3-0.2c1.2-0.1,2.1-0.3,2.7-0.5
		c0-0.2,0-0.3,0-0.4c0-0.6-0.1-1-0.4-1.3c-0.4-0.3-0.9-0.5-1.7-0.5c-0.7,0-1.2,0.1-1.6,0.4c-0.3,0.2-0.6,0.7-0.7,1.3L182,6.2
		c0.1-0.6,0.4-1.1,0.7-1.5c0.3-0.4,0.7-0.7,1.3-0.9c0.6-0.2,1.2-0.3,2-0.3c0.8,0,1.4,0.1,1.8,0.3c0.5,0.2,0.8,0.4,1,0.7
		c0.2,0.3,0.4,0.6,0.5,1c0,0.3,0.1,0.7,0.1,1.4v2c0,1.4,0,2.3,0.1,2.6c0.1,0.4,0.2,0.7,0.4,1.1h-1.6C188.1,12.1,188,11.8,188,11.4z
		 M187.9,8c-0.5,0.2-1.4,0.4-2.4,0.6c-0.6,0.1-1,0.2-1.3,0.3s-0.5,0.3-0.6,0.5c-0.1,0.2-0.2,0.4-0.2,0.7c0,0.4,0.2,0.7,0.5,1
		s0.7,0.4,1.3,0.4c0.6,0,1.1-0.1,1.5-0.4c0.4-0.3,0.8-0.6,1-1c0.2-0.3,0.2-0.8,0.2-1.5V8z"/>
	<path class="st0" d="M191.7,3.6h1.5v3.7h4.1V3.6h1.5v8.8h-1.5V8.5h-4.1v3.9h-1.5V3.6z"/>
	<path class="st0" d="M201.1,3.6h1.5v6.7l4.1-6.7h1.6v8.8h-1.5V5.8l-4.1,6.7h-1.6V3.6z"/>
	<path class="st0" d="M210.6,3.6h1.5v3.7h1.8c0.1-1.3,0.5-2.2,1.2-2.9c0.7-0.7,1.5-1,2.6-1c0.9,0,1.6,0.2,2.1,0.5
		c0.5,0.4,0.9,0.9,1.3,1.5s0.5,1.5,0.5,2.5c0,1.5-0.3,2.7-1,3.5s-1.6,1.2-2.8,1.2c-1.1,0-2-0.4-2.6-1.1s-1-1.7-1.1-3h-1.8v3.9h-1.5
		V3.6z M217.7,4.7c-0.7,0-1.3,0.3-1.7,0.8c-0.4,0.6-0.6,1.3-0.6,2.4c0,1.2,0.2,2.1,0.6,2.7s1,0.8,1.6,0.8c0.7,0,1.2-0.3,1.7-0.8
		c0.4-0.5,0.7-1.4,0.7-2.5c0-1.1-0.2-2-0.6-2.6C219,5,218.5,4.7,217.7,4.7z"/>
	<path class="st0" d="M0,28.1c0-1.6,0.5-2.8,1.4-3.6c0.8-0.7,1.7-1,2.8-1c1.2,0,2.2,0.4,3,1.2c0.8,0.8,1.2,1.9,1.2,3.3
		c0,1.1-0.2,2-0.5,2.7c-0.3,0.7-0.8,1.2-1.5,1.5c-0.6,0.4-1.4,0.5-2.1,0.5c-1.2,0-2.2-0.4-3-1.2S0,29.5,0,28.1z M1.5,28.1
		c0,1.1,0.2,2,0.7,2.5c0.5,0.6,1.1,0.8,1.9,0.8c0.7,0,1.4-0.3,1.9-0.8C6.5,30,6.7,29.2,6.7,28c0-1.1-0.2-1.9-0.7-2.5
		c-0.5-0.6-1.1-0.8-1.8-0.8c-0.7,0-1.4,0.3-1.9,0.8S1.5,26.9,1.5,28.1z"/>
	<path class="st0" d="M15.8,29.2l1.5,0.2c-0.2,1-0.6,1.8-1.2,2.4c-0.7,0.6-1.5,0.9-2.4,0.9c-1.2,0-2.2-0.4-2.9-1.2
		c-0.7-0.8-1.1-1.9-1.1-3.4c0-1,0.2-1.8,0.5-2.5s0.8-1.2,1.4-1.6c0.6-0.4,1.3-0.5,2.1-0.5c1,0,1.7,0.2,2.3,0.7
		c0.6,0.5,1,1.2,1.2,2.1l-1.5,0.2c-0.1-0.6-0.4-1-0.7-1.3s-0.8-0.4-1.3-0.4c-0.8,0-1.4,0.3-1.8,0.8c-0.5,0.5-0.7,1.4-0.7,2.6
		c0,1.2,0.2,2,0.7,2.6s1,0.8,1.8,0.8c0.6,0,1.1-0.2,1.5-0.5C15.4,30.5,15.7,30,15.8,29.2z"/>
	<path class="st0" d="M17.7,23.6h7.2v1.2H22v7.6h-1.5v-7.6h-2.8V23.6z"/>
	<path class="st0" d="M26.3,35.8V23.6h1.4v1.1c0.3-0.4,0.7-0.8,1.1-1c0.4-0.2,0.9-0.3,1.5-0.3c0.8,0,1.4,0.2,2,0.6s1,0.9,1.3,1.6
		c0.3,0.7,0.4,1.5,0.4,2.3c0,0.9-0.2,1.7-0.5,2.4c-0.3,0.7-0.8,1.3-1.4,1.7c-0.6,0.4-1.3,0.6-1.9,0.6c-0.5,0-0.9-0.1-1.3-0.3
		c-0.4-0.2-0.7-0.5-1-0.8v4.3H26.3z M27.7,28.1c0,1.1,0.2,2,0.7,2.5s1,0.8,1.7,0.8c0.7,0,1.2-0.3,1.7-0.8c0.5-0.6,0.7-1.4,0.7-2.6
		c0-1.1-0.2-2-0.7-2.5c-0.5-0.6-1-0.8-1.7-0.8c-0.6,0-1.2,0.3-1.7,0.9C27.9,26.1,27.7,27,27.7,28.1z"/>
	<path class="st0" d="M35.2,28.1c0-1.6,0.5-2.8,1.4-3.6c0.8-0.7,1.7-1,2.8-1c1.2,0,2.2,0.4,3,1.2c0.8,0.8,1.2,1.9,1.2,3.3
		c0,1.1-0.2,2-0.5,2.7c-0.3,0.7-0.8,1.2-1.5,1.5c-0.6,0.4-1.4,0.5-2.1,0.5c-1.2,0-2.2-0.4-3-1.2S35.2,29.5,35.2,28.1z M36.7,28.1
		c0,1.1,0.2,2,0.7,2.5c0.5,0.6,1.1,0.8,1.9,0.8c0.7,0,1.4-0.3,1.9-0.8c0.5-0.6,0.7-1.4,0.7-2.6c0-1.1-0.2-1.9-0.7-2.5
		c-0.5-0.6-1.1-0.8-1.8-0.8c-0.7,0-1.4,0.3-1.9,0.8S36.7,26.9,36.7,28.1z"/>
	<path class="st0" d="M44,23.6h7.2v1.2h-2.8v7.6h-1.5v-7.6H44V23.6z"/>
	<path class="st0" d="M52.7,23.6h1.5v3.4H56c1.2,0,2.2,0.2,2.9,0.7c0.7,0.5,1,1.1,1,2c0,0.7-0.3,1.4-0.8,1.9
		c-0.6,0.5-1.4,0.8-2.7,0.8h-3.7V23.6z M54.1,31.2h1.6c0.9,0,1.6-0.1,2-0.3s0.6-0.6,0.6-1.1c0-0.4-0.1-0.7-0.4-1s-1-0.4-2-0.4h-1.8
		V31.2z M61,23.6h1.5v8.8H61V23.6z"/>
	<path class="st0" d="M71.5,28.5v-1.2c0.6,0,1.1,0,1.3-0.1c0.2,0,0.4-0.2,0.7-0.4c0.2-0.2,0.3-0.5,0.3-0.8c0-0.4-0.1-0.7-0.4-1
		c-0.3-0.2-0.6-0.4-1-0.4c-0.8,0-1.4,0.5-1.8,1.5l-1.4-0.2c0.4-1.7,1.5-2.5,3.2-2.5c0.9,0,1.7,0.3,2.2,0.8c0.5,0.5,0.8,1.1,0.8,1.8
		c0,0.7-0.3,1.3-1,1.7c0.4,0.2,0.8,0.5,1,0.9c0.2,0.4,0.3,0.8,0.3,1.3c0,0.8-0.3,1.4-0.9,1.9c-0.6,0.5-1.4,0.7-2.4,0.7
		c-2,0-3.2-0.9-3.5-2.7l1.4-0.3c0.1,0.6,0.4,1,0.8,1.3c0.4,0.3,0.8,0.5,1.3,0.5c0.5,0,0.9-0.1,1.3-0.4c0.3-0.3,0.5-0.6,0.5-1.1
		c0-0.3-0.1-0.6-0.3-0.9c-0.2-0.3-0.4-0.4-0.7-0.5c-0.2-0.1-0.7-0.1-1.3-0.1C71.8,28.5,71.7,28.5,71.5,28.5z"/>
	<path class="st0" d="M77.4,35.8V23.6h1.4v1.1c0.3-0.4,0.7-0.8,1.1-1c0.4-0.2,0.9-0.3,1.5-0.3c0.8,0,1.4,0.2,2,0.6
		c0.6,0.4,1,0.9,1.3,1.6c0.3,0.7,0.4,1.5,0.4,2.3c0,0.9-0.2,1.7-0.5,2.4c-0.3,0.7-0.8,1.3-1.4,1.7c-0.6,0.4-1.3,0.6-1.9,0.6
		c-0.5,0-0.9-0.1-1.3-0.3c-0.4-0.2-0.7-0.5-1-0.8v4.3H77.4z M78.7,28.1c0,1.1,0.2,2,0.7,2.5c0.5,0.5,1,0.8,1.7,0.8
		c0.7,0,1.2-0.3,1.7-0.8c0.5-0.6,0.7-1.4,0.7-2.6c0-1.1-0.2-2-0.7-2.5s-1-0.8-1.7-0.8c-0.6,0-1.2,0.3-1.7,0.9
		C79,26.1,78.7,27,78.7,28.1z"/>
	<path class="st0" d="M92.8,29.6l1.5,0.2c-0.2,0.9-0.7,1.6-1.4,2.1s-1.5,0.7-2.5,0.7c-1.3,0-2.3-0.4-3.1-1.2
		c-0.8-0.8-1.1-1.9-1.1-3.3c0-1.5,0.4-2.6,1.1-3.5s1.8-1.2,3-1.2c1.2,0,2.1,0.4,2.9,1.2s1.1,1.9,1.1,3.4c0,0.1,0,0.2,0,0.4h-6.6
		c0.1,1,0.3,1.7,0.8,2.2c0.5,0.5,1.1,0.8,1.8,0.8c0.5,0,1-0.1,1.4-0.4S92.6,30.3,92.8,29.6z M87.9,27.2h4.9
		c-0.1-0.7-0.3-1.3-0.6-1.7c-0.5-0.6-1.1-0.9-1.9-0.9c-0.7,0-1.3,0.2-1.7,0.7C88.2,25.8,88,26.4,87.9,27.2z"/>
	<path class="st0" d="M96.3,23.6h1.5v3.7h4.1v-3.7h1.5v8.8h-1.5v-3.9h-4.1v3.9h-1.5V23.6z"/>
	<path class="st0" d="M105.7,23.6h1.5v6.7l4.1-6.7h1.6v8.8h-1.5v-6.7l-4.1,6.7h-1.6V23.6z"/>
	<path class="st0" d="M122.1,23.6v8.8h-1.5V29h-0.9c-0.5,0-0.9,0.1-1.2,0.2c-0.3,0.1-0.6,0.6-1.1,1.3l-1.3,1.9h-1.9l1.6-2.4
		c0.5-0.7,1-1.1,1.5-1.2c-0.9-0.1-1.5-0.4-1.9-0.9c-0.4-0.5-0.6-1.1-0.6-1.7c0-0.8,0.3-1.4,0.8-1.9c0.5-0.5,1.3-0.7,2.3-0.7H122.1z
		 M120.6,24.9h-2.1c-0.9,0-1.5,0.1-1.7,0.4c-0.3,0.3-0.4,0.6-0.4,1c0,0.5,0.2,0.9,0.6,1.2c0.4,0.2,1,0.4,2,0.4h1.7V24.9z"/>
	<path class="st0" d="M124.7,32.5v-1.7h1.7v1.7c0,0.6-0.1,1.1-0.3,1.5c-0.2,0.4-0.6,0.7-1.1,0.9l-0.4-0.6c0.3-0.1,0.5-0.3,0.7-0.6
		c0.1-0.3,0.2-0.7,0.2-1.2H124.7z"/>
	<path class="st0" d="M133.8,23.6h1.5v6.7l4.1-6.7h1.6v8.8h-1.5v-6.7l-4.1,6.7h-1.6V23.6z"/>
	<path class="st0" d="M149,29.2l1.5,0.2c-0.2,1-0.6,1.8-1.2,2.4c-0.7,0.6-1.5,0.9-2.4,0.9c-1.2,0-2.2-0.4-2.9-1.2
		c-0.7-0.8-1.1-1.9-1.1-3.4c0-1,0.2-1.8,0.5-2.5c0.3-0.7,0.8-1.2,1.4-1.6c0.6-0.4,1.3-0.5,2.1-0.5c1,0,1.7,0.2,2.3,0.7
		c0.6,0.5,1,1.2,1.2,2.1l-1.5,0.2c-0.1-0.6-0.4-1-0.7-1.3s-0.8-0.4-1.3-0.4c-0.8,0-1.4,0.3-1.8,0.8c-0.5,0.5-0.7,1.4-0.7,2.6
		c0,1.2,0.2,2,0.7,2.6c0.5,0.5,1,0.8,1.8,0.8c0.6,0,1.1-0.2,1.5-0.5S148.9,30,149,29.2z"/>
	<path class="st0" d="M151,23.6h7.2v1.2h-2.8v7.6h-1.5v-7.6H151V23.6z"/>
	<path class="st0" d="M158.8,28.1c0-1.6,0.5-2.8,1.4-3.6c0.8-0.7,1.7-1,2.8-1c1.2,0,2.2,0.4,3,1.2c0.8,0.8,1.2,1.9,1.2,3.3
		c0,1.1-0.2,2-0.5,2.7c-0.3,0.7-0.8,1.2-1.5,1.5s-1.4,0.5-2.1,0.5c-1.2,0-2.2-0.4-3-1.2S158.8,29.5,158.8,28.1z M160.4,28.1
		c0,1.1,0.2,2,0.7,2.5c0.5,0.6,1.1,0.8,1.9,0.8c0.7,0,1.4-0.3,1.9-0.8c0.5-0.6,0.7-1.4,0.7-2.6c0-1.1-0.2-1.9-0.7-2.5
		c-0.5-0.6-1.1-0.8-1.8-0.8c-0.7,0-1.4,0.3-1.9,0.8S160.4,26.9,160.4,28.1z"/>
	<path class="st0" d="M167.9,23.6h1.5v1.7c0,0.7,0,1.2,0.1,1.6c0.1,0.3,0.3,0.6,0.6,0.8c0.3,0.2,0.7,0.4,1.2,0.4
		c0.6,0,1.3-0.1,2.2-0.4v-4h1.5v8.8h-1.5v-3.6c-0.9,0.3-1.8,0.4-2.6,0.4c-0.7,0-1.3-0.2-1.8-0.5c-0.5-0.3-0.9-0.8-1-1.2
		s-0.3-1-0.3-1.6V23.6z"/>
	<path class="st0" d="M177.3,23.6h1.5v3.7h4.1v-3.7h1.5v8.8H183v-3.9h-4.1v3.9h-1.5V23.6z"/>
	<path class="st0" d="M186.7,23.6h1.5v6.7l4.1-6.7h1.6v8.8h-1.5v-6.7l-4.1,6.7h-1.6V23.6z"/>
	<path class="st0" d="M196.2,23.6h1.5v3.8c0.5,0,0.8-0.1,1-0.3c0.2-0.2,0.5-0.7,0.8-1.6c0.3-0.7,0.5-1.2,0.7-1.4s0.4-0.4,0.6-0.4
		s0.6-0.1,1.1-0.1h0.3v1.2l-0.4,0c-0.4,0-0.6,0.1-0.8,0.2c-0.1,0.1-0.3,0.5-0.5,1.1c-0.2,0.6-0.4,1-0.6,1.2s-0.5,0.4-0.9,0.6
		c0.6,0.2,1.3,0.8,1.9,1.8l1.6,2.7H201l-1.6-2.7c-0.3-0.5-0.6-0.9-0.9-1.1c-0.2-0.2-0.5-0.3-0.9-0.3v4.1h-1.5V23.6z"/>
	<path class="st0" d="M0.6,43.6h7v8.8H6v-7.6h-4v7.6H0.6V43.6z"/>
	<path class="st0" d="M9.2,48.1c0-1.6,0.5-2.8,1.4-3.6c0.8-0.7,1.7-1,2.8-1c1.2,0,2.2,0.4,3,1.2c0.8,0.8,1.2,1.9,1.2,3.3
		c0,1.1-0.2,2-0.5,2.7c-0.3,0.7-0.8,1.2-1.5,1.5s-1.4,0.5-2.1,0.5c-1.2,0-2.2-0.4-3-1.2C9.6,50.7,9.2,49.5,9.2,48.1z M10.7,48.1
		c0,1.1,0.2,2,0.7,2.5c0.5,0.6,1.1,0.8,1.9,0.8c0.7,0,1.4-0.3,1.9-0.8s0.7-1.4,0.7-2.6c0-1.1-0.2-1.9-0.7-2.5
		c-0.5-0.6-1.1-0.8-1.8-0.8c-0.7,0-1.4,0.3-1.9,0.8C11,46.1,10.7,46.9,10.7,48.1z"/>
	<path class="st0" d="M19.6,43.6h6.9v8.8H25v-7.6h-4v4.4c0,1,0,1.7-0.1,2s-0.2,0.6-0.5,0.9s-0.7,0.4-1.3,0.4c-0.3,0-0.8,0-1.2-0.1
		v-1.2h0.7c0.3,0,0.5,0,0.7-0.1c0.1-0.1,0.2-0.2,0.3-0.3s0.1-0.6,0.1-1.4V43.6z"/>
	<path class="st0" d="M34.8,49.6l1.5,0.2c-0.2,0.9-0.7,1.6-1.4,2.1c-0.7,0.5-1.5,0.7-2.5,0.7c-1.3,0-2.3-0.4-3.1-1.2
		c-0.8-0.8-1.1-1.9-1.1-3.3c0-1.5,0.4-2.6,1.1-3.5s1.8-1.2,3-1.2c1.2,0,2.1,0.4,2.9,1.2c0.7,0.8,1.1,1.9,1.1,3.4c0,0.1,0,0.2,0,0.4
		h-6.6c0.1,1,0.3,1.7,0.8,2.2s1.1,0.8,1.8,0.8c0.5,0,1-0.1,1.4-0.4C34.3,50.7,34.6,50.3,34.8,49.6z M29.9,47.2h4.9
		c-0.1-0.7-0.3-1.3-0.6-1.7c-0.5-0.6-1.1-0.9-1.9-0.9c-0.7,0-1.3,0.2-1.7,0.7S29.9,46.4,29.9,47.2z"/>
	<path class="st0" d="M39.8,48.5v-1.2c0.6,0,1.1,0,1.3-0.1s0.4-0.2,0.7-0.4S42,46.3,42,46c0-0.4-0.1-0.7-0.4-1
		c-0.3-0.2-0.6-0.4-1-0.4c-0.8,0-1.4,0.5-1.8,1.5l-1.4-0.2c0.4-1.7,1.5-2.5,3.2-2.5c0.9,0,1.7,0.3,2.2,0.8c0.5,0.5,0.8,1.1,0.8,1.8
		c0,0.7-0.3,1.3-1,1.7c0.4,0.2,0.8,0.5,1,0.9c0.2,0.4,0.3,0.8,0.3,1.3c0,0.8-0.3,1.4-0.9,1.9s-1.4,0.7-2.4,0.7c-2,0-3.2-0.9-3.5-2.7
		l1.4-0.3c0.1,0.6,0.4,1,0.8,1.3c0.4,0.3,0.8,0.5,1.3,0.5s0.9-0.1,1.3-0.4c0.3-0.3,0.5-0.6,0.5-1.1c0-0.3-0.1-0.6-0.3-0.9
		s-0.4-0.4-0.7-0.5c-0.2-0.1-0.7-0.1-1.3-0.1C40.1,48.5,40,48.5,39.8,48.5z"/>
	<path class="st0" d="M45.6,43.6h1.5v3.7h4.1v-3.7h1.5v8.8h-1.5v-3.9h-4.1v3.9h-1.5V43.6z"/>
	<path class="st0" d="M55.1,43.6h1.5v3.4h1.9c1.2,0,2.2,0.2,2.9,0.7c0.7,0.5,1,1.1,1,2c0,0.7-0.3,1.4-0.8,1.9
		c-0.6,0.5-1.4,0.8-2.7,0.8h-3.7V43.6z M56.6,51.2h1.6c0.9,0,1.6-0.1,2-0.3s0.6-0.6,0.6-1.1c0-0.4-0.2-0.7-0.4-1s-1-0.4-2-0.4h-1.8
		V51.2z M63.4,43.6h1.5v8.8h-1.5V43.6z"/>
	<path class="st0" d="M66.2,52.5l3.2-4.6l-3-4.2h1.9l1.4,2.1c0.3,0.4,0.5,0.7,0.6,1c0.2-0.4,0.5-0.7,0.7-1l1.5-2.1h1.8l-3,4.2
		l3.3,4.7h-1.8l-1.8-2.7L70.4,49l-2.3,3.5H66.2z"/>
	<path class="st0" d="M80.5,43.6h3.4c0.8,0,1.5,0.1,1.9,0.2c0.4,0.1,0.8,0.4,1.1,0.8c0.3,0.4,0.4,0.8,0.4,1.4c0,0.4-0.1,0.8-0.3,1.1
		c-0.2,0.3-0.4,0.6-0.8,0.8c0.4,0.1,0.8,0.4,1,0.8c0.3,0.4,0.4,0.8,0.4,1.3c-0.1,0.8-0.4,1.5-0.9,1.9c-0.5,0.4-1.3,0.6-2.4,0.6h-4
		V43.6z M82,47.4h1.6c0.6,0,1.1,0,1.3-0.1c0.2-0.1,0.5-0.2,0.6-0.4c0.2-0.2,0.3-0.4,0.3-0.7c0-0.5-0.2-0.8-0.5-1
		c-0.3-0.2-0.9-0.3-1.7-0.3H82V47.4z M82,51.2h2c0.8,0,1.4-0.1,1.7-0.3c0.3-0.2,0.5-0.5,0.5-1c0-0.3-0.1-0.5-0.3-0.8
		c-0.2-0.2-0.4-0.4-0.7-0.5c-0.3-0.1-0.8-0.1-1.4-0.1H82V51.2z"/>
	<path class="st0" d="M95.3,49.6l1.5,0.2c-0.2,0.9-0.7,1.6-1.4,2.1c-0.7,0.5-1.5,0.7-2.5,0.7c-1.3,0-2.3-0.4-3.1-1.2
		c-0.8-0.8-1.1-1.9-1.1-3.3c0-1.5,0.4-2.6,1.1-3.5s1.8-1.2,3-1.2c1.2,0,2.1,0.4,2.9,1.2c0.7,0.8,1.1,1.9,1.1,3.4c0,0.1,0,0.2,0,0.4
		h-6.6c0.1,1,0.3,1.7,0.8,2.2s1.1,0.8,1.8,0.8c0.5,0,1-0.1,1.4-0.4C94.8,50.7,95.1,50.3,95.3,49.6z M90.4,47.2h4.9
		c-0.1-0.7-0.3-1.3-0.6-1.7c-0.5-0.6-1.1-0.9-1.9-0.9c-0.7,0-1.3,0.2-1.7,0.7C90.7,45.8,90.5,46.4,90.4,47.2z"/>
	<path class="st0" d="M98.8,43.6h1.5v7.6h3.4v-7.6h1.5v7.6h3.4v-7.6h1.5v7.6h1V55h-1.2v-2.5h-11V43.6z"/>
	<path class="st0" d="M118.6,49.6l1.5,0.2c-0.2,0.9-0.7,1.6-1.4,2.1s-1.5,0.7-2.5,0.7c-1.3,0-2.3-0.4-3.1-1.2
		c-0.8-0.8-1.1-1.9-1.1-3.3c0-1.5,0.4-2.6,1.1-3.5s1.8-1.2,3-1.2c1.2,0,2.1,0.4,2.9,1.2s1.1,1.9,1.1,3.4c0,0.1,0,0.2,0,0.4h-6.6
		c0.1,1,0.3,1.7,0.8,2.2c0.5,0.5,1.1,0.8,1.8,0.8c0.5,0,1-0.1,1.4-0.4S118.4,50.3,118.6,49.6z M113.7,47.2h4.9
		c-0.1-0.7-0.3-1.3-0.6-1.7c-0.5-0.6-1.1-0.9-1.9-0.9c-0.7,0-1.3,0.2-1.7,0.7C114,45.8,113.7,46.4,113.7,47.2z"/>
	<path class="st0" d="M127.8,49.2l1.5,0.2c-0.2,1-0.6,1.8-1.2,2.4c-0.7,0.6-1.5,0.9-2.4,0.9c-1.2,0-2.2-0.4-2.9-1.2
		c-0.7-0.8-1.1-1.9-1.1-3.4c0-1,0.2-1.8,0.5-2.5c0.3-0.7,0.8-1.2,1.4-1.6c0.6-0.4,1.3-0.5,2.1-0.5c1,0,1.7,0.2,2.3,0.7
		c0.6,0.5,1,1.2,1.2,2.1l-1.5,0.2c-0.1-0.6-0.4-1-0.7-1.3s-0.8-0.4-1.3-0.4c-0.8,0-1.4,0.3-1.8,0.8c-0.5,0.5-0.7,1.4-0.7,2.6
		c0,1.2,0.2,2,0.7,2.6c0.5,0.5,1,0.8,1.8,0.8c0.6,0,1.1-0.2,1.5-0.5S127.7,50,127.8,49.2z"/>
	<path class="st0" d="M129.7,43.6h7.2v1.2H134v7.6h-1.5v-7.6h-2.8V43.6z"/>
	<path class="st0" d="M138.3,43.6h3.4c0.8,0,1.5,0.1,1.9,0.2c0.4,0.1,0.8,0.4,1.1,0.8s0.4,0.8,0.4,1.4c0,0.4-0.1,0.8-0.3,1.1
		c-0.2,0.3-0.4,0.6-0.8,0.8c0.4,0.1,0.8,0.4,1,0.8c0.3,0.4,0.4,0.8,0.4,1.3c-0.1,0.8-0.4,1.5-0.9,1.9s-1.3,0.6-2.4,0.6h-4V43.6z
		 M139.8,47.4h1.6c0.6,0,1.1,0,1.3-0.1s0.5-0.2,0.6-0.4c0.2-0.2,0.3-0.4,0.3-0.7c0-0.5-0.2-0.8-0.5-1s-0.9-0.3-1.7-0.3h-1.6V47.4z
		 M139.8,51.2h2c0.8,0,1.4-0.1,1.7-0.3c0.3-0.2,0.5-0.5,0.5-1c0-0.3-0.1-0.5-0.3-0.8c-0.2-0.2-0.4-0.4-0.7-0.5
		c-0.3-0.1-0.8-0.1-1.4-0.1h-1.8V51.2z"/>
	<path class="st0" d="M152.1,43.6h7v8.8h-1.5v-7.6h-4v7.6h-1.5V43.6z"/>
	<path class="st0" d="M161.3,55.8V43.6h1.4v1.1c0.3-0.4,0.7-0.8,1.1-1c0.4-0.2,0.9-0.3,1.5-0.3c0.8,0,1.4,0.2,2,0.6
		c0.6,0.4,1,0.9,1.3,1.6c0.3,0.7,0.4,1.5,0.4,2.3c0,0.9-0.2,1.7-0.5,2.4c-0.3,0.7-0.8,1.3-1.4,1.7c-0.6,0.4-1.3,0.6-1.9,0.6
		c-0.5,0-0.9-0.1-1.3-0.3s-0.7-0.5-1-0.8v4.3H161.3z M162.6,48.1c0,1.1,0.2,2,0.7,2.5c0.5,0.5,1,0.8,1.7,0.8c0.7,0,1.2-0.3,1.7-0.8
		c0.5-0.6,0.7-1.4,0.7-2.6c0-1.1-0.2-2-0.7-2.5s-1-0.8-1.7-0.8c-0.6,0-1.2,0.3-1.7,0.9C162.9,46.1,162.6,47,162.6,48.1z"/>
	<path class="st0" d="M170.7,43.6h1.5v6.7l4.1-6.7h1.6v8.8h-1.5v-6.7l-4.1,6.7h-1.6V43.6z"/>
	<path class="st0" d="M184.9,43.6h3.4c0.8,0,1.5,0.1,1.9,0.2c0.4,0.1,0.8,0.4,1.1,0.8s0.4,0.8,0.4,1.4c0,0.4-0.1,0.8-0.3,1.1
		c-0.2,0.3-0.4,0.6-0.8,0.8c0.4,0.1,0.8,0.4,1,0.8c0.3,0.4,0.4,0.8,0.4,1.3c-0.1,0.8-0.4,1.5-0.9,1.9s-1.3,0.6-2.4,0.6h-4V43.6z
		 M186.4,47.4h1.6c0.6,0,1.1,0,1.3-0.1s0.5-0.2,0.6-0.4c0.2-0.2,0.3-0.4,0.3-0.7c0-0.5-0.2-0.8-0.5-1s-0.9-0.3-1.7-0.3h-1.6V47.4z
		 M186.4,51.2h2c0.8,0,1.4-0.1,1.7-0.3c0.3-0.2,0.5-0.5,0.5-1c0-0.3-0.1-0.5-0.3-0.8c-0.2-0.2-0.4-0.4-0.7-0.5
		c-0.3-0.1-0.8-0.1-1.4-0.1h-1.8V51.2z"/>
	<path class="st0" d="M193.2,48.1c0-1.6,0.5-2.8,1.4-3.6c0.8-0.7,1.7-1,2.8-1c1.2,0,2.2,0.4,3,1.2c0.8,0.8,1.2,1.9,1.2,3.3
		c0,1.1-0.2,2-0.5,2.7c-0.3,0.7-0.8,1.2-1.5,1.5s-1.4,0.5-2.1,0.5c-1.2,0-2.2-0.4-3-1.2S193.2,49.5,193.2,48.1z M194.8,48.1
		c0,1.1,0.2,2,0.7,2.5c0.5,0.6,1.1,0.8,1.9,0.8c0.7,0,1.4-0.3,1.9-0.8c0.5-0.6,0.7-1.4,0.7-2.6c0-1.1-0.2-1.9-0.7-2.5
		c-0.5-0.6-1.1-0.8-1.8-0.8c-0.7,0-1.4,0.3-1.9,0.8S194.8,46.9,194.8,48.1z"/>
	<path class="st0" d="M205,48.5v-1.2c0.6,0,1.1,0,1.3-0.1s0.4-0.2,0.7-0.4s0.3-0.5,0.3-0.8c0-0.4-0.1-0.7-0.4-1
		c-0.3-0.2-0.6-0.4-1-0.4c-0.8,0-1.4,0.5-1.8,1.5l-1.4-0.2c0.4-1.7,1.5-2.5,3.2-2.5c0.9,0,1.7,0.3,2.2,0.8s0.8,1.1,0.8,1.8
		c0,0.7-0.3,1.3-1,1.7c0.4,0.2,0.8,0.5,1,0.9c0.2,0.4,0.3,0.8,0.3,1.3c0,0.8-0.3,1.4-0.9,1.9s-1.4,0.7-2.4,0.7c-2,0-3.2-0.9-3.5-2.7
		l1.4-0.3c0.1,0.6,0.4,1,0.8,1.3c0.4,0.3,0.8,0.5,1.3,0.5s0.9-0.1,1.3-0.4c0.3-0.3,0.5-0.6,0.5-1.1c0-0.3-0.1-0.6-0.3-0.9
		s-0.4-0.4-0.7-0.5c-0.2-0.1-0.7-0.1-1.3-0.1C205.3,48.5,205.2,48.5,205,48.5z"/>
	<path class="st0" d="M210.8,55.8V43.6h1.4v1.1c0.3-0.4,0.7-0.8,1.1-1c0.4-0.2,0.9-0.3,1.5-0.3c0.8,0,1.4,0.2,2,0.6
		c0.6,0.4,1,0.9,1.3,1.6c0.3,0.7,0.4,1.5,0.4,2.3c0,0.9-0.2,1.7-0.5,2.4c-0.3,0.7-0.8,1.3-1.4,1.7c-0.6,0.4-1.3,0.6-1.9,0.6
		c-0.5,0-0.9-0.1-1.3-0.3s-0.7-0.5-1-0.8v4.3H210.8z M212.2,48.1c0,1.1,0.2,2,0.7,2.5c0.5,0.5,1,0.8,1.7,0.8c0.7,0,1.2-0.3,1.7-0.8
		c0.5-0.6,0.7-1.4,0.7-2.6c0-1.1-0.2-2-0.7-2.5s-1-0.8-1.7-0.8c-0.6,0-1.2,0.3-1.7,0.9C212.4,46.1,212.2,47,212.2,48.1z"/>
	<path class="st0" d="M226,51.4c-0.6,0.5-1.1,0.8-1.6,1s-1.1,0.3-1.6,0.3c-1,0-1.7-0.2-2.2-0.7c-0.5-0.5-0.8-1.1-0.8-1.8
		c0-0.4,0.1-0.8,0.3-1.2c0.2-0.4,0.5-0.6,0.8-0.9s0.7-0.4,1.1-0.5c0.3-0.1,0.7-0.2,1.3-0.2c1.2-0.1,2.1-0.3,2.7-0.5
		c0-0.2,0-0.3,0-0.4c0-0.6-0.1-1-0.4-1.3c-0.4-0.3-0.9-0.5-1.7-0.5c-0.7,0-1.2,0.1-1.6,0.4c-0.3,0.2-0.6,0.7-0.7,1.3l-1.5-0.2
		c0.1-0.6,0.4-1.1,0.7-1.5c0.3-0.4,0.7-0.7,1.3-0.9c0.6-0.2,1.2-0.3,2-0.3c0.8,0,1.4,0.1,1.8,0.3c0.5,0.2,0.8,0.4,1,0.7
		c0.2,0.3,0.4,0.6,0.5,1c0,0.3,0.1,0.7,0.1,1.4v2c0,1.4,0,2.3,0.1,2.6c0.1,0.4,0.2,0.7,0.4,1.1h-1.6C226.2,52.1,226.1,51.8,226,51.4
		z M225.9,48c-0.5,0.2-1.4,0.4-2.4,0.6c-0.6,0.1-1,0.2-1.3,0.3s-0.5,0.3-0.6,0.5c-0.1,0.2-0.2,0.4-0.2,0.7c0,0.4,0.2,0.7,0.5,1
		s0.7,0.4,1.3,0.4c0.6,0,1.1-0.1,1.5-0.4c0.4-0.3,0.8-0.6,1-1c0.2-0.3,0.2-0.8,0.2-1.5V48z"/>
	<path class="st0" d="M235.5,49.2l1.5,0.2c-0.2,1-0.6,1.8-1.2,2.4c-0.7,0.6-1.5,0.9-2.4,0.9c-1.2,0-2.2-0.4-2.9-1.2
		c-0.7-0.8-1.1-1.9-1.1-3.4c0-1,0.2-1.8,0.5-2.5c0.3-0.7,0.8-1.2,1.4-1.6c0.6-0.4,1.3-0.5,2.1-0.5c1,0,1.7,0.2,2.3,0.7
		c0.6,0.5,1,1.2,1.2,2.1l-1.5,0.2c-0.1-0.6-0.4-1-0.7-1.3s-0.8-0.4-1.3-0.4c-0.8,0-1.4,0.3-1.8,0.8c-0.5,0.5-0.7,1.4-0.7,2.6
		c0,1.2,0.2,2,0.7,2.6c0.5,0.5,1,0.8,1.8,0.8c0.6,0,1.1-0.2,1.5-0.5S235.4,50,235.5,49.2z"/>
	<path class="st0" d="M237.4,43.6h7.2v1.2h-2.8v7.6h-1.5v-7.6h-2.8V43.6z"/>
	<path class="st0" d="M246,43.6h1.5v3.7h4.1v-3.7h1.5v8.8h-1.5v-3.9h-4.1v3.9H246V43.6z"/>
	<path class="st0" d="M255.5,43.6h1.5v3.4h1.9c1.2,0,2.2,0.2,2.9,0.7c0.7,0.5,1,1.1,1,2c0,0.7-0.3,1.4-0.8,1.9
		c-0.6,0.5-1.4,0.8-2.7,0.8h-3.7V43.6z M256.9,51.2h1.6c0.9,0,1.6-0.1,2-0.3s0.6-0.6,0.6-1.1c0-0.4-0.1-0.7-0.4-1s-1-0.4-2-0.4h-1.8
		V51.2z M263.8,43.6h1.5v8.8h-1.5V43.6z"/>
	<path class="st0" d="M266.6,52.5l3.2-4.6l-3-4.2h1.9l1.4,2.1c0.3,0.4,0.5,0.7,0.6,1c0.2-0.4,0.5-0.7,0.7-1l1.5-2.1h1.8l-3,4.2
		l3.3,4.7h-1.8l-1.8-2.7l-0.5-0.7l-2.3,3.5H266.6z"/>
	<path class="st0" d="M0.6,63.6h1.5v6.7l4.1-6.7h1.6v8.8H6.3v-6.7l-4.1,6.7H0.6V63.6z"/>
	<path class="st0" d="M12,68.5v-1.2c0.6,0,1.1,0,1.3-0.1s0.4-0.2,0.7-0.4s0.3-0.5,0.3-0.8c0-0.4-0.1-0.7-0.4-1
		c-0.3-0.2-0.6-0.4-1-0.4c-0.8,0-1.4,0.5-1.8,1.5l-1.4-0.2c0.4-1.7,1.5-2.5,3.2-2.5c0.9,0,1.7,0.3,2.2,0.8c0.5,0.5,0.8,1.1,0.8,1.8
		c0,0.7-0.3,1.3-1,1.7c0.4,0.2,0.8,0.5,1,0.9c0.2,0.4,0.3,0.8,0.3,1.3c0,0.8-0.3,1.4-0.9,1.9s-1.4,0.7-2.4,0.7c-2,0-3.2-0.9-3.5-2.7
		l1.4-0.3c0.1,0.6,0.4,1,0.8,1.3c0.4,0.3,0.8,0.5,1.3,0.5s0.9-0.1,1.3-0.4c0.3-0.3,0.5-0.6,0.5-1.1c0-0.3-0.1-0.6-0.3-0.9
		s-0.4-0.4-0.7-0.5c-0.2-0.1-0.7-0.1-1.3-0.1C12.3,68.5,12.2,68.5,12,68.5z"/>
	<path class="st0" d="M17.9,63.6h2.3l2.3,7.1l2.6-7.1h2.2v8.8h-1.5v-7.1l-2.6,7.1h-1.3L19.3,65v7.4h-1.5V63.6z"/>
	<path class="st0" d="M35.6,69.6l1.5,0.2c-0.2,0.9-0.7,1.6-1.4,2.1s-1.5,0.7-2.5,0.7c-1.3,0-2.3-0.4-3.1-1.2
		c-0.8-0.8-1.1-1.9-1.1-3.3c0-1.5,0.4-2.6,1.1-3.5s1.8-1.2,3-1.2c1.2,0,2.1,0.4,2.9,1.2s1.1,1.9,1.1,3.4c0,0.1,0,0.2,0,0.4h-6.6
		c0.1,1,0.3,1.7,0.8,2.2c0.5,0.5,1.1,0.8,1.8,0.8c0.5,0,1-0.1,1.4-0.4S35.3,70.3,35.6,69.6z M30.7,67.2h4.9
		c-0.1-0.7-0.3-1.3-0.6-1.7c-0.5-0.6-1.1-0.9-1.9-0.9c-0.7,0-1.3,0.2-1.7,0.7C31,65.8,30.7,66.4,30.7,67.2z"/>
	<path class="st0" d="M39,63.6h1.5v3.7h4.1v-3.7h1.5v8.8h-1.5v-3.9h-4.1v3.9H39V63.6z"/>
	<path class="st0" d="M54.4,69.6l1.5,0.2c-0.2,0.9-0.7,1.6-1.4,2.1s-1.5,0.7-2.5,0.7c-1.3,0-2.3-0.4-3.1-1.2
		c-0.8-0.8-1.1-1.9-1.1-3.3c0-1.5,0.4-2.6,1.1-3.5s1.8-1.2,3-1.2c1.2,0,2.1,0.4,2.9,1.2S56,66.6,56,68c0,0.1,0,0.2,0,0.4h-6.6
		c0.1,1,0.3,1.7,0.8,2.2c0.5,0.5,1.1,0.8,1.8,0.8c0.5,0,1-0.1,1.4-0.4S54.2,70.3,54.4,69.6z M49.5,67.2h4.9
		c-0.1-0.7-0.3-1.3-0.6-1.7c-0.5-0.6-1.1-0.9-1.9-0.9c-0.7,0-1.3,0.2-1.7,0.7C49.8,65.8,49.6,66.4,49.5,67.2z"/>
	<path class="st0" d="M57.8,63.6h1.5v3.7h4.1v-3.7H65v8.8h-1.5v-3.9h-4.1v3.9h-1.5V63.6z"/>
	<path class="st0" d="M67.2,63.6h1.5v6.7l4.1-6.7h1.6v8.8H73v-6.7l-4.1,6.7h-1.6V63.6z"/>
	<path class="st0" d="M83.7,63.6v8.8h-1.5V69h-0.9c-0.5,0-0.9,0.1-1.2,0.2c-0.3,0.1-0.6,0.6-1.1,1.3l-1.3,1.9h-1.9l1.6-2.4
		c0.5-0.7,1-1.1,1.5-1.2c-0.9-0.1-1.5-0.4-1.9-0.9s-0.6-1.1-0.6-1.7c0-0.8,0.3-1.4,0.8-1.9s1.3-0.7,2.3-0.7H83.7z M82.2,64.9H80
		c-0.9,0-1.5,0.1-1.7,0.4s-0.4,0.6-0.4,1c0,0.5,0.2,0.9,0.6,1.2c0.4,0.2,1.1,0.4,2,0.4h1.7V64.9z"/>
	<path class="st0" d="M84.9,72.5l3.2-4.6l-3-4.2H87l1.4,2.1c0.3,0.4,0.5,0.7,0.6,1c0.2-0.4,0.5-0.7,0.7-1l1.5-2.1h1.8l-3,4.2
		l3.3,4.7h-1.8l-1.8-2.7L89.1,69l-2.3,3.5H84.9z"/>
	<path class="st0" d="M104.9,69.2l1.5,0.2c-0.2,1-0.6,1.8-1.2,2.4c-0.7,0.6-1.5,0.9-2.4,0.9c-1.2,0-2.2-0.4-2.9-1.2
		c-0.7-0.8-1.1-1.9-1.1-3.4c0-1,0.2-1.8,0.5-2.5s0.8-1.2,1.4-1.6c0.6-0.4,1.3-0.5,2.1-0.5c1,0,1.7,0.2,2.3,0.7
		c0.6,0.5,1,1.2,1.2,2.1l-1.5,0.2c-0.1-0.6-0.4-1-0.7-1.3c-0.4-0.3-0.8-0.4-1.3-0.4c-0.8,0-1.4,0.3-1.8,0.8
		c-0.5,0.5-0.7,1.4-0.7,2.6c0,1.2,0.2,2,0.7,2.6s1,0.8,1.8,0.8c0.6,0,1.1-0.2,1.5-0.5C104.5,70.5,104.8,70,104.9,69.2z"/>
	<path class="st0" d="M113.7,69.6l1.5,0.2c-0.2,0.9-0.7,1.6-1.4,2.1s-1.5,0.7-2.5,0.7c-1.3,0-2.3-0.4-3.1-1.2
		c-0.8-0.8-1.1-1.9-1.1-3.3c0-1.5,0.4-2.6,1.1-3.5s1.8-1.2,3-1.2c1.2,0,2.1,0.4,2.9,1.2s1.1,1.9,1.1,3.4c0,0.1,0,0.2,0,0.4h-6.6
		c0.1,1,0.3,1.7,0.8,2.2c0.5,0.5,1.1,0.8,1.8,0.8c0.5,0,1-0.1,1.4-0.4S113.5,70.3,113.7,69.6z M108.8,67.2h4.9
		c-0.1-0.7-0.3-1.3-0.6-1.7c-0.5-0.6-1.1-0.9-1.9-0.9c-0.7,0-1.3,0.2-1.7,0.7C109.1,65.8,108.8,66.4,108.8,67.2z"/>
	<path class="st0" d="M115.7,63.6h7.2v1.2h-2.8v7.6h-1.5v-7.6h-2.8V63.6z"/>
	<path class="st0" d="M123.8,63.6h1.5v1.7c0,0.7,0,1.2,0.1,1.6c0.1,0.3,0.3,0.6,0.6,0.8c0.3,0.2,0.7,0.4,1.2,0.4
		c0.6,0,1.3-0.1,2.2-0.4v-4h1.5v8.8h-1.5v-3.6c-0.9,0.3-1.8,0.4-2.6,0.4c-0.7,0-1.3-0.2-1.8-0.5c-0.5-0.3-0.9-0.8-1-1.2
		s-0.3-1-0.3-1.6V63.6z"/>
	<path class="st0" d="M138.9,71.4c-0.6,0.5-1.1,0.8-1.6,1s-1.1,0.3-1.6,0.3c-1,0-1.7-0.2-2.2-0.7c-0.5-0.5-0.8-1.1-0.8-1.8
		c0-0.4,0.1-0.8,0.3-1.2c0.2-0.4,0.5-0.6,0.8-0.9s0.7-0.4,1.1-0.5c0.3-0.1,0.7-0.2,1.3-0.2c1.2-0.1,2.1-0.3,2.7-0.5
		c0-0.2,0-0.3,0-0.4c0-0.6-0.1-1-0.4-1.3c-0.4-0.3-0.9-0.5-1.7-0.5c-0.7,0-1.2,0.1-1.6,0.4c-0.3,0.2-0.6,0.7-0.7,1.3l-1.5-0.2
		c0.1-0.6,0.4-1.1,0.7-1.5c0.3-0.4,0.7-0.7,1.3-0.9c0.6-0.2,1.2-0.3,2-0.3c0.8,0,1.4,0.1,1.8,0.3c0.5,0.2,0.8,0.4,1,0.7
		c0.2,0.3,0.4,0.6,0.5,1c0,0.3,0.1,0.7,0.1,1.4v2c0,1.4,0,2.3,0.1,2.6c0.1,0.4,0.2,0.7,0.4,1.1h-1.6C139.1,72.1,139,71.8,138.9,71.4
		z M138.8,68c-0.5,0.2-1.4,0.4-2.4,0.6c-0.6,0.1-1,0.2-1.3,0.3s-0.5,0.3-0.6,0.5c-0.1,0.2-0.2,0.4-0.2,0.7c0,0.4,0.2,0.7,0.5,1
		s0.7,0.4,1.3,0.4c0.6,0,1.1-0.1,1.5-0.4c0.4-0.3,0.8-0.6,1-1c0.2-0.3,0.2-0.8,0.2-1.5V68z"/>
	<path class="st0" d="M141.5,63.6h7.2v1.2h-2.8v7.6h-1.5v-7.6h-2.8V63.6z"/>
	<path class="st0" d="M150,63.6h1.5v3.8c0.5,0,0.8-0.1,1-0.3c0.2-0.2,0.5-0.7,0.8-1.6c0.3-0.7,0.5-1.2,0.7-1.4s0.4-0.4,0.6-0.4
		s0.6-0.1,1.1-0.1h0.3v1.2l-0.4,0c-0.4,0-0.6,0.1-0.8,0.2c-0.1,0.1-0.3,0.5-0.5,1.1c-0.2,0.6-0.4,1-0.6,1.2s-0.5,0.4-0.9,0.6
		c0.6,0.2,1.3,0.8,1.9,1.8l1.6,2.7h-1.6l-1.6-2.7c-0.3-0.5-0.6-0.9-0.9-1.1c-0.2-0.2-0.5-0.3-0.9-0.3v4.1H150V63.6z"/>
	<path class="st0" d="M157.5,63.6h1.5v6.7l4.1-6.7h1.6v8.8h-1.5v-6.7l-4.1,6.7h-1.6V63.6z"/>
</g>
</svg>
