<?xml version="1.0" encoding="utf-8"?>
<!-- Generator: Adobe Illustrator 25.2.3, SVG Export Plug-In . SVG Version: 6.00 Build 0)  -->
<svg version="1.1" id="Layer_1" xmlns="http://www.w3.org/2000/svg" xmlns:xlink="http://www.w3.org/1999/xlink" x="0px" y="0px"
	 viewBox="0 0 257.2 175" style="enable-background:new 0 0 257.2 175;" xml:space="preserve">
<style type="text/css">
	.st0{fill:#147BB8;}
</style>
<g>
	<path class="st0" d="M8.2,7.4l2.2,0.7c-0.3,1.2-0.9,2.2-1.7,2.8s-1.8,0.9-3,0.9c-1.5,0-2.8-0.5-3.8-1.6S0.5,7.8,0.5,6
		C0.5,4.1,1,2.6,2,1.6S4.2,0,5.8,0c1.4,0,2.5,0.4,3.4,1.2c0.5,0.5,0.9,1.2,1.2,2.1L8.1,3.9C8,3.3,7.7,2.8,7.3,2.5S6.3,2,5.7,2
		C4.9,2,4.2,2.3,3.6,2.9s-0.8,1.6-0.8,3S3.1,8.4,3.6,9s1.2,0.9,2,0.9c0.6,0,1.1-0.2,1.6-0.6S8,8.3,8.2,7.4z"/>
	<path class="st0" d="M11.3,7.4c0-0.7,0.2-1.4,0.5-2.1c0.4-0.7,0.9-1.2,1.5-1.6c0.7-0.4,1.4-0.5,2.2-0.5c1.3,0,2.3,0.4,3.1,1.2
		c0.8,0.8,1.2,1.8,1.2,3.1s-0.4,2.3-1.2,3.1c-0.8,0.8-1.8,1.2-3.1,1.2c-0.8,0-1.5-0.2-2.2-0.5s-1.2-0.8-1.6-1.5S11.3,8.3,11.3,7.4z
		 M13.6,7.5c0,0.8,0.2,1.5,0.6,1.9S15,10,15.6,10s1.1-0.2,1.4-0.7c0.4-0.4,0.6-1.1,0.6-1.9S17.4,6,17,5.5C16.7,5.2,16.2,5,15.6,5
		s-1.1,0.2-1.4,0.7S13.6,6.7,13.6,7.5z"/>
	<path class="st0" d="M28.1,5.8l-2.2,0.4c-0.1-0.4-0.2-0.8-0.5-1s-0.6-0.3-1-0.3c-0.5,0-1,0.2-1.3,0.6s-0.5,1-0.5,1.9
		c0,1,0.2,1.7,0.5,2.1s0.8,0.6,1.3,0.6c0.4,0,0.8-0.1,1-0.4C25.7,9.5,25.9,9,26,8.5l2.2,0.4c-0.2,1-0.7,1.7-1.3,2.2
		c-0.6,0.5-1.5,0.8-2.6,0.8c-1.2,0-2.2-0.4-2.9-1.1S20.3,9,20.3,7.6s0.4-2.4,1.1-3.2s1.7-1.1,2.9-1.1c1,0,1.8,0.2,2.4,0.7
		C27.4,4.3,27.8,4.9,28.1,5.8z"/>
	<path class="st0" d="M28.2,3.4h7.5v1.8H33v6.5h-2.2V5.1h-2.7V3.4H28.2z"/>
	<path class="st0" d="M38.1,5.9l-2-0.4c0.2-0.8,0.6-1.4,1.2-1.8c0.5-0.4,1.4-0.6,2.4-0.6s1.7,0.1,2.2,0.3s0.8,0.5,1,0.9s0.3,1,0.3,2
		v2.6c0,0.7,0,1.3,0.1,1.6s0.2,0.7,0.4,1.1h-2.2c-0.1-0.1-0.1-0.4-0.2-0.6c0-0.1-0.1-0.2-0.1-0.3c-0.4,0.4-0.8,0.6-1.2,0.8
		s-0.9,0.3-1.4,0.3c-0.9,0-1.5-0.2-2-0.7s-0.7-1-0.7-1.8c0-0.5,0.1-0.9,0.3-1.3s0.5-0.6,0.9-0.8s1-0.4,1.7-0.5
		c1-0.2,1.7-0.4,2.1-0.5V6c0-0.4-0.1-0.7-0.3-0.9S40,4.8,39.4,4.8c-0.4,0-0.7,0.1-0.9,0.2C38.4,5.2,38.2,5.5,38.1,5.9z M41,7.7
		c-0.3,0.1-0.7,0.2-1.3,0.3s-1,0.3-1.2,0.4c-0.3,0.2-0.4,0.5-0.4,0.8s0.1,0.6,0.3,0.8s0.5,0.3,0.9,0.3s0.8-0.1,1.1-0.4
		c0.3-0.2,0.4-0.4,0.5-0.7C41,9,41,8.6,41,8.1V7.7z"/>
	<path class="st0" d="M44.8,3.4h4.8c1,0,1.7,0.2,2.2,0.5s0.7,0.9,0.7,1.6c0,0.5-0.1,0.9-0.4,1.2s-0.6,0.6-1,0.7
		c0.6,0.1,1,0.4,1.3,0.8c0.3,0.4,0.4,0.8,0.4,1.3c0,0.6-0.2,1.2-0.7,1.6c-0.5,0.4-1.2,0.6-2.1,0.6h-5.2V3.4z M47,6.8h1.4
		c0.7,0,1.2-0.1,1.5-0.3s0.5-0.4,0.5-0.8c0-0.3-0.1-0.6-0.4-0.7s-0.8-0.2-1.5-0.2H47V6.8z M47,10.2h1.7c0.6,0,1.1-0.1,1.4-0.2
		c0.3-0.2,0.4-0.4,0.4-0.8c0-0.4-0.2-0.7-0.5-0.8c-0.3-0.2-1-0.2-1.9-0.2H47V10.2z"/>
	<path class="st0" d="M54.5,5.5V3.4h2.2v2.2h-2.2V5.5z M54.5,11.6V9.5h2.2v2.2L54.5,11.6L54.5,11.6z"/>
	<path class="st0" d="M63.3,3.4h6.5v8.3h-1.4V4.5h-3.7v4.1c0,1,0,1.6-0.1,1.9c-0.1,0.3-0.2,0.6-0.5,0.8c-0.3,0.2-0.7,0.3-1.2,0.3
		c-0.3,0-0.7,0-1.1-0.1v-1.2h0.6c0.3,0,0.5,0,0.6-0.1s0.2-0.2,0.2-0.3s0.1-0.6,0.1-1.3C63.3,8.6,63.3,3.4,63.3,3.4z"/>
	<path class="st0" d="M71.4,3.4h1.4v3.5h1.7c0.1-1.2,0.5-2.1,1.1-2.7S77,3.3,78,3.3c0.8,0,1.5,0.2,2,0.5s0.9,0.8,1.2,1.4
		s0.5,1.4,0.5,2.4c0,1.4-0.3,2.5-1,3.3C80,11.6,79.2,12,78.1,12c-1,0-1.9-0.3-2.5-1s-1-1.6-1.1-2.8h-1.7v3.7h-1.4V3.4z M78.1,4.4
		c-0.7,0-1.2,0.3-1.6,0.8S76,6.4,76,7.4c0,1.1,0.2,2,0.6,2.5s0.9,0.8,1.5,0.8s1.2-0.2,1.6-0.7s0.6-1.3,0.6-2.4s-0.2-1.9-0.5-2.4
		C79.4,4.6,78.8,4.4,78.1,4.4z"/>
	<path class="st0" d="M81.7,3.4h6.7v1.2h-2.7v7.1h-1.4V4.5h-2.7L81.7,3.4L81.7,3.4z"/>
	<path class="st0" d="M94.8,9l1.5,0.2c-0.2,0.8-0.7,1.5-1.3,2s-1.4,0.7-2.4,0.7c-1.2,0-2.2-0.4-2.9-1.1C89,10,88.6,8.9,88.6,7.6
		c0-1.4,0.4-2.5,1.1-3.2c0.7-0.8,1.7-1.2,2.8-1.2c1.1,0,2,0.4,2.7,1.1c0.7,0.8,1.1,1.8,1.1,3.2c0,0.1,0,0.2,0,0.4h-6.2
		c0.1,0.9,0.3,1.6,0.8,2.1s1,0.7,1.7,0.7c0.5,0,1-0.1,1.3-0.4C94.3,10,94.6,9.6,94.8,9z M90.2,6.7h4.6c-0.1-0.7-0.2-1.2-0.5-1.6
		c-0.4-0.5-1-0.8-1.7-0.8c-0.6,0-1.2,0.2-1.6,0.6C90.4,5.4,90.2,6,90.2,6.7z"/>
	<path class="st0" d="M97.4,3.4h1.4v6.3l3.9-6.3h1.5v8.3h-1.4V5.4l-3.9,6.3h-1.5V3.4z"/>
	<path class="st0" d="M105.8,3.4h1.4v3.5h3.9V3.4h1.4v8.3h-1.4V8h-3.9v3.7h-1.4V3.4z"/>
	<path class="st0" d="M114.4,11.6V10h1.6v1.6c0,0.6-0.1,1.1-0.3,1.4c-0.2,0.4-0.5,0.6-1,0.8l-0.4-0.6c0.3-0.1,0.5-0.3,0.7-0.6
		c0.1-0.3,0.2-0.6,0.2-1.1h-0.8V11.6z"/>
	<path class="st0" d="M123.7,7.9V6.8c0.6,0,1,0,1.2-0.1c0.2,0,0.4-0.2,0.6-0.4c0.2-0.2,0.3-0.5,0.3-0.8c0-0.4-0.1-0.7-0.4-0.9
		s-0.6-0.3-1-0.3c-0.8,0-1.3,0.5-1.7,1.4l-1.3-0.2c0.4-1.6,1.4-2.3,3-2.3c0.9,0,1.6,0.2,2.1,0.7s0.8,1.1,0.8,1.7
		c0,0.7-0.3,1.2-1,1.6c0.4,0.2,0.7,0.5,0.9,0.9c0.2,0.3,0.3,0.8,0.3,1.2c0,0.7-0.3,1.3-0.8,1.8s-1.3,0.7-2.3,0.7
		c-1.9,0-3-0.8-3.3-2.5l1.3-0.3c0.1,0.5,0.4,0.9,0.7,1.2c0.4,0.3,0.8,0.4,1.3,0.4s0.9-0.1,1.2-0.4c0.3-0.3,0.5-0.6,0.5-1
		c0-0.3-0.1-0.6-0.3-0.8c-0.2-0.2-0.4-0.4-0.6-0.4c-0.2-0.1-0.6-0.1-1.2-0.1C124,7.9,123.9,7.9,123.7,7.9z"/>
	<path class="st0" d="M134.1,9l1.5,0.2c-0.2,0.8-0.7,1.5-1.3,2s-1.4,0.7-2.4,0.7c-1.2,0-2.2-0.4-2.9-1.1c-0.7-0.7-1.1-1.8-1.1-3.1
		c0-1.4,0.4-2.5,1.1-3.2c0.7-0.8,1.7-1.2,2.8-1.2s2,0.4,2.7,1.1c0.7,0.8,1.1,1.8,1.1,3.2c0,0.1,0,0.2,0,0.4h-6.2
		c0.1,0.9,0.3,1.6,0.8,2.1s1,0.7,1.7,0.7c0.5,0,1-0.1,1.3-0.4C133.6,10,133.9,9.6,134.1,9z M129.5,6.7h4.6c-0.1-0.7-0.2-1.2-0.5-1.6
		c-0.4-0.5-1-0.8-1.7-0.8c-0.6,0-1.2,0.2-1.6,0.6C129.8,5.4,129.6,6,129.5,6.7z"/>
	<path class="st0" d="M142.2,10.6c-0.5,0.4-1,0.8-1.5,0.9s-1,0.3-1.6,0.3c-0.9,0-1.6-0.2-2.1-0.7s-0.7-1-0.7-1.7
		c0-0.4,0.1-0.8,0.3-1.1s0.4-0.6,0.7-0.8s0.6-0.4,1-0.5c0.3-0.1,0.7-0.1,1.2-0.2c1.1-0.1,2-0.3,2.5-0.5c0-0.2,0-0.3,0-0.4
		c0-0.6-0.1-1-0.4-1.2c-0.4-0.3-0.9-0.5-1.6-0.5c-0.7,0-1.1,0.1-1.5,0.3c-0.3,0.2-0.5,0.6-0.7,1.2l-1.4-0.2c0.1-0.6,0.3-1.1,0.6-1.4
		c0.3-0.4,0.7-0.6,1.2-0.8s1.2-0.3,1.9-0.3s1.3,0.1,1.7,0.2c0.4,0.2,0.8,0.4,1,0.6c0.2,0.3,0.4,0.6,0.4,1c0,0.2,0.1,0.7,0.1,1.3V8
		c0,1.3,0,2.1,0.1,2.5c0.1,0.3,0.2,0.7,0.4,1h-1.5C142.3,11.4,142.2,11,142.2,10.6z M142.1,7.5c-0.5,0.2-1.3,0.4-2.3,0.5
		c-0.6,0.1-1,0.2-1.2,0.3s-0.4,0.3-0.6,0.5c-0.1,0.2-0.2,0.4-0.2,0.7c0,0.4,0.1,0.7,0.4,0.9s0.7,0.4,1.2,0.4s1-0.1,1.4-0.4
		c0.4-0.2,0.7-0.6,0.9-1c0.2-0.3,0.2-0.8,0.2-1.4V7.5H142.1z"/>
	<path class="st0" d="M145.1,3.4h1.4V7c0.4,0,0.8-0.1,0.9-0.3s0.4-0.7,0.8-1.5c0.3-0.7,0.5-1.1,0.7-1.3s0.4-0.3,0.6-0.4
		c0.2-0.1,0.6-0.1,1.1-0.1h0.3v1.2h-0.4c-0.4,0-0.6,0.1-0.7,0.2c-0.1,0.1-0.3,0.5-0.5,1s-0.4,0.9-0.6,1.1c-0.2,0.2-0.5,0.4-0.8,0.6
		c0.6,0.2,1.2,0.7,1.8,1.7l1.5,2.6h-1.5l-1.5-2.6c-0.3-0.5-0.6-0.9-0.8-1S146.9,8,146.6,8v3.8h-1.4V3.4H145.1z"/>
	<path class="st0" d="M157.2,8.6l1.4,0.2c-0.2,1-0.5,1.7-1.2,2.2s-1.4,0.8-2.3,0.8c-1.1,0-2-0.4-2.7-1.1s-1-1.8-1-3.2
		c0-0.9,0.1-1.7,0.4-2.4s0.7-1.2,1.4-1.5s1.3-0.5,2-0.5c0.9,0,1.6,0.2,2.2,0.7c0.6,0.5,0.9,1.1,1.1,1.9L157,6
		c-0.1-0.6-0.4-1-0.7-1.3s-0.7-0.4-1.2-0.4c-0.7,0-1.3,0.3-1.7,0.8s-0.7,1.3-0.7,2.4s0.2,1.9,0.6,2.4c0.4,0.5,1,0.8,1.7,0.8
		c0.6,0,1-0.2,1.4-0.5C156.8,9.8,157.1,9.3,157.2,8.6z"/>
	<path class="st0" d="M164.6,10.6c-0.5,0.4-1,0.8-1.5,0.9s-1,0.3-1.6,0.3c-0.9,0-1.6-0.2-2.1-0.7s-0.7-1-0.7-1.7
		c0-0.4,0.1-0.8,0.3-1.1s0.4-0.6,0.7-0.8s0.6-0.4,1-0.5c0.3-0.1,0.7-0.1,1.2-0.2c1.1-0.1,2-0.3,2.5-0.5c0-0.2,0-0.3,0-0.4
		c0-0.6-0.1-1-0.4-1.2c-0.4-0.3-0.9-0.5-1.6-0.5c-0.7,0-1.1,0.1-1.5,0.3c-0.3,0.2-0.5,0.6-0.7,1.2H159c0.1-0.6,0.3-1.1,0.6-1.4
		c0.3-0.4,0.7-0.6,1.2-0.8s1.2-0.3,1.9-0.3s1.3,0.1,1.7,0.2c0.4,0.2,0.8,0.4,1,0.6c0.2,0.3,0.4,0.6,0.4,1c0,0.2,0.1,0.7,0.1,1.3v1.9
		c0,1.3,0,2.1,0.1,2.5c0.1,0.3,0.2,0.7,0.4,1h-1.5C164.7,11.4,164.6,11,164.6,10.6z M164.5,7.5c-0.5,0.2-1.3,0.4-2.3,0.5
		c-0.6,0.1-1,0.2-1.2,0.3s-0.4,0.3-0.6,0.5c-0.1,0.2-0.2,0.4-0.2,0.7c0,0.4,0.1,0.7,0.4,0.9s0.7,0.4,1.2,0.4s1-0.1,1.4-0.4
		c0.4-0.2,0.7-0.6,0.9-1c0.2-0.3,0.2-0.8,0.2-1.4V7.5H164.5z"/>
	<path class="st0" d="M167.5,3.4h1.4v3.5h3.9V3.4h1.4v8.3h-1.4V8h-3.9v3.7h-1.4V3.4z"/>
	<path class="st0" d="M175,3.4h6.7v1.2H179v7.1h-1.4V4.5H175V3.4z"/>
	<path class="st0" d="M182.6,3.4h1.4v6.3l3.9-6.3h1.5v8.3H188V5.4l-3.9,6.3h-1.5V3.4z"/>
	<path class="st0" d="M191,3.4h1.4v3.5h3.9V3.4h1.4v8.3h-1.4V8h-3.9v3.7H191V3.4z"/>
	<path class="st0" d="M199.6,11.6V10h1.6v1.6c0,0.6-0.1,1.1-0.3,1.4c-0.2,0.4-0.5,0.6-1,0.8l-0.4-0.6c0.3-0.1,0.5-0.3,0.7-0.6
		c0.1-0.3,0.2-0.6,0.2-1.1h-0.8V11.6z"/>
	<path class="st0" d="M0,23.4h6.7v1.2H4.1v7.1H2.7v-7.1H0V23.4z"/>
	<path class="st0" d="M7.5,34.8V23.4h1.3v1.1c0.3-0.4,0.6-0.7,1-0.9c0.4-0.2,0.8-0.3,1.4-0.3c0.7,0,1.3,0.2,1.9,0.5
		c0.5,0.4,1,0.9,1.2,1.5c0.3,0.7,0.4,1.4,0.4,2.2c0,0.8-0.2,1.6-0.5,2.3s-0.7,1.2-1.3,1.6s-1.2,0.5-1.8,0.5c-0.5,0-0.9-0.1-1.3-0.3
		c-0.4-0.2-0.7-0.4-0.9-0.8v4C8.9,34.8,7.5,34.8,7.5,34.8z M8.8,27.5c0,1.1,0.2,1.9,0.6,2.4c0.4,0.5,1,0.8,1.6,0.8s1.2-0.3,1.6-0.8
		c0.4-0.5,0.7-1.3,0.7-2.5c0-1.1-0.2-1.8-0.7-2.4c-0.4-0.5-1-0.8-1.6-0.8S9.9,24.5,9.4,25C9,25.7,8.8,26.5,8.8,27.5z"/>
	<path class="st0" d="M15.3,27.5c0-1.5,0.4-2.7,1.3-3.4c0.7-0.6,1.6-0.9,2.6-0.9c1.1,0,2.1,0.4,2.8,1.1c0.7,0.7,1.1,1.8,1.1,3.1
		c0,1.1-0.2,1.9-0.5,2.5s-0.8,1.1-1.4,1.4s-1.3,0.5-2,0.5c-1.2,0-2.1-0.4-2.8-1.1C15.7,30,15.3,28.9,15.3,27.5z M16.8,27.5
		c0,1.1,0.2,1.9,0.7,2.4s1,0.8,1.8,0.8c0.7,0,1.3-0.3,1.7-0.8s0.7-1.3,0.7-2.4c0-1-0.2-1.8-0.7-2.3s-1-0.8-1.7-0.8s-1.3,0.3-1.8,0.8
		C17,25.6,16.8,26.4,16.8,27.5z"/>
	<path class="st0" d="M24.2,23.4h1.4V27c0.4,0,0.8-0.1,0.9-0.3s0.4-0.7,0.8-1.5c0.3-0.7,0.5-1.1,0.7-1.3c0.2-0.2,0.4-0.3,0.6-0.4
		s0.6-0.1,1.1-0.1H30v1.2h-0.4c-0.4,0-0.6,0.1-0.7,0.2s-0.3,0.5-0.5,1s-0.4,0.9-0.6,1.1s-0.5,0.4-0.8,0.6c0.6,0.2,1.2,0.7,1.8,1.7
		l1.5,2.6h-1.5l-1.5-2.6c-0.3-0.5-0.6-0.9-0.8-1C26.3,28,26,28,25.7,28v3.8h-1.4v-8.4H24.2z"/>
	<path class="st0" d="M36.2,28.6l1.4,0.2c-0.2,1-0.5,1.7-1.2,2.2s-1.4,0.8-2.3,0.8c-1.1,0-2-0.4-2.7-1.1s-1-1.8-1-3.2
		c0-0.9,0.1-1.7,0.4-2.4s0.7-1.2,1.4-1.5c0.7-0.3,1.3-0.5,2-0.5c0.9,0,1.6,0.2,2.2,0.7c0.6,0.5,0.9,1.1,1.1,1.9L36.1,26
		c-0.1-0.6-0.4-1-0.7-1.3s-0.7-0.4-1.2-0.4c-0.7,0-1.3,0.3-1.7,0.8s-0.7,1.3-0.7,2.4s0.2,1.9,0.6,2.4c0.4,0.5,1,0.8,1.7,0.8
		c0.6,0,1-0.2,1.4-0.5C35.9,29.8,36.1,29.3,36.2,28.6z"/>
	<path class="st0" d="M43.9,29l1.5,0.2c-0.2,0.8-0.7,1.5-1.3,2s-1.4,0.7-2.4,0.7c-1.2,0-2.2-0.4-2.9-1.1s-1.1-1.8-1.1-3.1
		c0-1.4,0.4-2.5,1.1-3.2c0.7-0.8,1.7-1.2,2.8-1.2s2,0.4,2.7,1.1c0.7,0.8,1.1,1.8,1.1,3.2c0,0.1,0,0.2,0,0.4h-6.2
		c0.1,0.9,0.3,1.6,0.8,2.1s1,0.7,1.7,0.7c0.5,0,1-0.1,1.3-0.4C43.4,30,43.7,29.6,43.9,29z M39.3,26.7H44c-0.1-0.7-0.2-1.2-0.5-1.6
		c-0.4-0.5-1-0.8-1.7-0.8c-0.6,0-1.2,0.2-1.6,0.6C39.6,25.4,39.4,26,39.3,26.7z"/>
	<path class="st0" d="M46.6,34.8V23.4h1.3v1.1c0.3-0.4,0.6-0.7,1-0.9c0.4-0.2,0.8-0.3,1.4-0.3c0.7,0,1.3,0.2,1.9,0.5
		c0.5,0.4,1,0.9,1.2,1.5c0.3,0.7,0.4,1.4,0.4,2.2c0,0.8-0.2,1.6-0.5,2.3S52.6,31,52,31.4s-1.2,0.5-1.8,0.5c-0.5,0-0.9-0.1-1.3-0.3
		c-0.4-0.2-0.7-0.4-0.9-0.8v4C48,34.8,46.6,34.8,46.6,34.8z M47.9,27.5c0,1.1,0.2,1.9,0.6,2.4c0.4,0.5,1,0.8,1.6,0.8
		s1.2-0.3,1.6-0.8c0.4-0.5,0.7-1.3,0.7-2.5c0-1.1-0.2-1.8-0.7-2.4c-0.4-0.5-1-0.8-1.6-0.8S49,24.5,48.5,25
		C48.1,25.7,47.9,26.5,47.9,27.5z"/>
	<path class="st0" d="M54.7,34.8l-0.2-1.3c0.3,0.1,0.6,0.1,0.8,0.1c0.3,0,0.6-0.1,0.8-0.2c0.2-0.1,0.3-0.2,0.5-0.4
		c0.1-0.1,0.2-0.5,0.4-1c0-0.1,0.1-0.2,0.1-0.3L54,23.4h1.5l1.7,4.8c0.2,0.6,0.4,1.2,0.6,1.9c0.2-0.6,0.4-1.3,0.6-1.9l1.8-4.8h1.4
		l-3.2,8.4c-0.3,0.9-0.6,1.5-0.8,1.9c-0.2,0.5-0.5,0.8-0.9,1C56.4,34.9,56,35,55.5,35C55.3,35,55,35,54.7,34.8z"/>
	<path class="st0" d="M61.4,23.4h6.7v1.2h-2.7v7.1H64v-7.1h-2.7v-1.2H61.4z"/>
	<path class="st0" d="M69,23.4h1.4v6.3l3.9-6.3h1.5v8.3h-1.4v-6.3l-3.9,6.3H69V23.4z"/>
	<path class="st0" d="M77.4,23.4h1.4v3.5h3.9v-3.5h1.4v8.3h-1.4V28h-3.9v3.7h-1.4V23.4z"/>
	<path class="st0" d="M86,31.6V30h1.6v1.6c0,0.6-0.1,1.1-0.3,1.4c-0.2,0.4-0.5,0.6-1,0.8l-0.4-0.6c0.3-0.1,0.5-0.3,0.7-0.6
		c0.1-0.3,0.2-0.6,0.2-1.1L86,31.6L86,31.6z"/>
	<path class="st0" d="M93.4,34.8V23.4h1.3v1.1c0.3-0.4,0.6-0.7,1-0.9c0.4-0.2,0.8-0.3,1.4-0.3c0.7,0,1.3,0.2,1.9,0.5
		c0.5,0.4,1,0.9,1.2,1.5c0.3,0.7,0.4,1.4,0.4,2.2c0,0.8-0.2,1.6-0.5,2.3s-0.7,1.2-1.3,1.6c-0.6,0.4-1.2,0.5-1.8,0.5
		c-0.5,0-0.9-0.1-1.3-0.3c-0.4-0.2-0.7-0.4-0.9-0.8v4C94.8,34.8,93.4,34.8,93.4,34.8z M94.7,27.5c0,1.1,0.2,1.9,0.6,2.4
		s1,0.8,1.6,0.8s1.2-0.3,1.6-0.8s0.7-1.3,0.7-2.5c0-1.1-0.2-1.8-0.7-2.4c-0.4-0.5-1-0.8-1.6-0.8s-1.1,0.3-1.6,0.8
		C94.9,25.7,94.7,26.5,94.7,27.5z"/>
	<path class="st0" d="M101.8,23.4h1.4v3.2h1.8c1.2,0,2.1,0.2,2.7,0.7s0.9,1.1,0.9,1.9c0,0.7-0.3,1.3-0.8,1.8s-1.4,0.7-2.5,0.7h-3.5
		V23.4z M103.2,30.5h1.5c0.9,0,1.5-0.1,1.9-0.3s0.6-0.6,0.6-1s-0.1-0.7-0.4-1s-0.9-0.4-1.9-0.4h-1.7V30.5z M109.6,23.4h1.4v8.3h-1.4
		V23.4z"/>
	<path class="st0" d="M118.7,19.9h1.2c-0.1,0.6-0.2,0.9-0.4,1.2c-0.2,0.2-0.4,0.4-0.7,0.4c-0.3,0.1-0.9,0.1-1.8,0.1
		c-1.2,0-2,0.1-2.4,0.3c-0.4,0.2-0.7,0.6-0.9,1.1c-0.2,0.5-0.3,1.1-0.3,1.9c0.4-0.5,0.8-0.9,1.2-1.2c0.5-0.3,1-0.4,1.6-0.4
		c1.1,0,2,0.4,2.7,1.1s1.1,1.8,1.1,3c0,1-0.2,1.8-0.5,2.4c-0.4,0.6-0.8,1.1-1.3,1.4s-1.2,0.5-2,0.5c-1,0-1.8-0.2-2.3-0.7
		s-1-1-1.3-1.7s-0.4-1.9-0.4-3.7c0-2.2,0.4-3.7,1.1-4.4c0.7-0.8,1.9-1.1,3.4-1.1c1,0,1.5,0,1.6,0C118.6,20.1,118.7,20,118.7,19.9z
		 M118.7,27.5c0-0.9-0.2-1.6-0.6-2.1c-0.4-0.6-1-0.8-1.7-0.8c-0.8,0-1.4,0.3-1.8,0.9s-0.6,1.4-0.6,2.3c0,1,0.2,1.7,0.7,2.2
		s1,0.8,1.7,0.8s1.3-0.3,1.7-0.9C118.5,29.2,118.7,28.4,118.7,27.5z"/>
	<path class="st0" d="M121.3,23.4h1.4v6.3l3.9-6.3h1.5v8.3h-1.4v-6.3l-3.9,6.3h-1.5V23.4z"/>
	<path class="st0" d="M129.7,23.4h1.4v6.3l3.9-6.3h1.5v8.3h-1.4v-6.3l-3.9,6.3h-1.5V23.4z M134.5,20.2h1c-0.1,0.7-0.3,1.2-0.7,1.5
		s-0.9,0.5-1.6,0.5c-0.7,0-1.2-0.2-1.6-0.5c-0.4-0.3-0.6-0.8-0.7-1.5h1c0.1,0.4,0.2,0.6,0.4,0.8c0.2,0.2,0.5,0.3,0.9,0.3
		s0.7-0.1,1-0.3C134.3,20.8,134.5,20.6,134.5,20.2z"/>
	<path class="st0" d="M146.9,23.4V27c0.4,0,0.8-0.1,0.9-0.3s0.4-0.7,0.8-1.5c0.3-0.8,0.6-1.3,0.9-1.5c0.3-0.2,0.7-0.3,1.2-0.3h0.5
		v1.2h-0.4c-0.4,0-0.6,0.1-0.7,0.2c-0.1,0.1-0.3,0.5-0.5,1s-0.4,0.9-0.6,1.1c-0.2,0.2-0.5,0.4-0.8,0.6c0.6,0.2,1.2,0.7,1.8,1.7
		l1.5,2.6H150l-1.5-2.6c-0.3-0.5-0.6-0.9-0.8-1c-0.2-0.2-0.5-0.2-0.8-0.2v3.8h-1.4V28c-0.3,0-0.6,0.1-0.8,0.2
		c-0.2,0.2-0.5,0.5-0.8,1l-1.5,2.6h-1.5l1.5-2.6c0.6-1,1.2-1.5,1.8-1.7c-0.4-0.2-0.7-0.4-0.9-0.6s-0.4-0.8-0.8-1.6
		c-0.1-0.3-0.2-0.5-0.4-0.5c-0.1-0.1-0.3-0.1-0.6-0.1c-0.1,0-0.2,0-0.4,0v-1.2h0.2c0.5,0,0.9,0,1.1,0.1c0.2,0.1,0.4,0.2,0.6,0.4
		s0.4,0.6,0.7,1.3c0.3,0.8,0.6,1.3,0.8,1.5s0.5,0.3,0.9,0.3v-3.6h1.5V23.4z"/>
	<path class="st0" d="M152.1,23.4h1.4v6.3l3.9-6.3h1.5v8.3h-1.4v-6.3l-3.9,6.3h-1.5V23.4z"/>
	<path class="st0" d="M160.4,34.8V23.4h1.3v1.1c0.3-0.4,0.6-0.7,1-0.9s0.8-0.3,1.4-0.3c0.7,0,1.3,0.2,1.9,0.5c0.5,0.4,1,0.9,1.2,1.5
		s0.4,1.4,0.4,2.2c0,0.8-0.2,1.6-0.5,2.3s-0.7,1.2-1.3,1.6s-1.2,0.5-1.8,0.5c-0.5,0-0.9-0.1-1.3-0.3s-0.7-0.4-0.9-0.8v4
		C161.8,34.8,160.4,34.8,160.4,34.8z M161.7,27.5c0,1.1,0.2,1.9,0.6,2.4c0.4,0.5,1,0.8,1.6,0.8s1.2-0.3,1.6-0.8
		c0.4-0.5,0.7-1.3,0.7-2.5c0-1.1-0.2-1.8-0.7-2.4c-0.4-0.5-1-0.8-1.6-0.8s-1.1,0.3-1.6,0.8C161.9,25.7,161.7,26.5,161.7,27.5z"/>
	<path class="st0" d="M169.1,31.6V30h1.6v1.6c0,0.6-0.1,1.1-0.3,1.4c-0.2,0.4-0.5,0.6-1,0.8l-0.4-0.6c0.3-0.1,0.5-0.3,0.7-0.6
		c0.1-0.3,0.2-0.6,0.2-1.1L169.1,31.6L169.1,31.6z"/>
	<path class="st0" d="M176.6,23.4h3.2c0.8,0,1.4,0.1,1.8,0.2s0.7,0.4,1,0.7c0.3,0.4,0.4,0.8,0.4,1.3c0,0.4-0.1,0.7-0.2,1
		c-0.2,0.3-0.4,0.5-0.7,0.7c0.4,0.1,0.7,0.4,1,0.7c0.3,0.4,0.4,0.8,0.4,1.3c-0.1,0.8-0.3,1.4-0.8,1.8s-1.3,0.6-2.2,0.6h-3.7v-8.3
		H176.6z M178,26.8h1.5c0.6,0,1,0,1.2-0.1s0.4-0.2,0.6-0.4c0.2-0.2,0.3-0.4,0.3-0.7c0-0.4-0.2-0.7-0.5-0.9s-0.8-0.3-1.6-0.3H178
		V26.8z M178,30.5h1.9c0.8,0,1.3-0.1,1.6-0.3c0.3-0.2,0.5-0.5,0.5-1c0-0.3-0.1-0.5-0.3-0.7s-0.4-0.4-0.7-0.4
		c-0.3-0.1-0.7-0.1-1.3-0.1H178V30.5z"/>
	<path class="st0" d="M187.6,23.4h6.7v1.2h-2.7v7.1h-1.4v-7.1h-2.7L187.6,23.4L187.6,23.4z"/>
	<path class="st0" d="M193.8,31.6V30h1.6v1.6H193.8z"/>
	<path class="st0" d="M196.7,23.4h1.4V25c0,0.7,0,1.2,0.1,1.5s0.3,0.6,0.6,0.8s0.7,0.3,1.2,0.3s1.2-0.1,2.1-0.4v-3.8h1.4v8.3h-1.4
		v-3.3c-0.9,0.3-1.7,0.4-2.4,0.4c-0.6,0-1.2-0.2-1.7-0.5s-0.8-0.7-1-1.2s-0.3-1-0.3-1.5L196.7,23.4L196.7,23.4z"/>
	<path class="st0" d="M205.4,31.6V30h1.6v1.6H205.4z"/>
	<path class="st0" d="M213,20.2h9v11.5h-1.5V21.5h-6v10.1H213V20.2z"/>
	<path class="st0" d="M224,31.6V20.2h1.5v4.7h6v-4.7h1.5v11.5h-1.5v-5.4h-6v5.4H224V31.6z"/>
	<path class="st0" d="M241.8,20.2v5c0.7,0,1.3-0.1,1.5-0.4s0.6-0.9,1.1-1.9c0.3-0.8,0.6-1.3,0.8-1.6c0.2-0.3,0.5-0.6,0.9-0.8
		s0.8-0.3,1.2-0.3c0.5,0,0.8,0,0.9,0v1.3c0,0-0.1,0-0.3,0s-0.3,0-0.3,0c-0.5,0-0.8,0.1-1.1,0.4c-0.2,0.2-0.5,0.7-0.8,1.5
		s-0.6,1.4-0.9,1.7c-0.2,0.3-0.6,0.5-1.1,0.7c0.8,0.2,1.5,0.9,2.2,2l2.4,3.8h-1.9l-1.9-3.1c-0.5-0.8-0.9-1.4-1.3-1.7
		c-0.3-0.3-0.8-0.5-1.5-0.5v5.4h-1.6v-5.4c-0.5,0-0.9,0.1-1.3,0.4c-0.4,0.3-0.8,0.8-1.3,1.7l-0.1,0.2l-1.9,3.1h-1.9l2.4-3.8
		c0.7-1.2,1.4-1.8,2.2-2c-0.4-0.2-0.7-0.4-1-0.7c-0.3-0.3-0.6-0.9-0.9-1.8c-0.3-0.8-0.6-1.3-0.8-1.5s-0.6-0.3-1-0.3h-0.6v-1.3
		c0.1,0,0.3,0,0.9,0c0.5,0,0.9,0.1,1.3,0.3c0.4,0.2,0.7,0.5,0.9,0.8s0.5,0.8,0.8,1.6c0.4,1,0.8,1.7,1.1,1.9c0.3,0.3,0.8,0.4,1.5,0.4
		v-5h1.4V20.2z"/>
	<path class="st0" d="M249.1,20.2h1.5v5c0.7,0,1.2-0.1,1.5-0.4s0.6-0.9,1.1-1.9c0.3-0.8,0.6-1.3,0.8-1.6c0.2-0.3,0.5-0.6,0.9-0.8
		s0.8-0.3,1.3-0.3c0.6,0,0.9,0,0.9,0v1.3c-0.1,0-0.2,0-0.3,0c-0.2,0-0.3,0-0.3,0c-0.5,0-0.8,0.1-1.1,0.4c-0.2,0.2-0.5,0.7-0.8,1.5
		c-0.4,1-0.7,1.6-1,1.8c-0.3,0.3-0.6,0.5-1,0.6c0.7,0.2,1.5,0.9,2.2,2l2.4,3.8h-1.9l-1.9-3.1c-0.5-0.9-1-1.4-1.3-1.8
		s-0.8-0.5-1.4-0.5v5.4h-1.5V20.2H249.1z"/>
	<path class="st0" d="M0.2,47.5c0-1.5,0.4-2.7,1.3-3.4c0.7-0.6,1.6-0.9,2.6-0.9c1.1,0,2.1,0.4,2.8,1.1C7.6,45,8,46.1,8,47.4
		c0,1.1-0.2,1.9-0.5,2.5S6.7,51,6.1,51.3s-1.3,0.5-2,0.5c-1.2,0-2.1-0.4-2.8-1.1C0.6,50,0.2,48.9,0.2,47.5z M1.7,47.5
		c0,1.1,0.2,1.9,0.7,2.4s1,0.8,1.8,0.8c0.7,0,1.3-0.3,1.7-0.8s0.7-1.3,0.7-2.4c0-1-0.2-1.8-0.7-2.3s-1-0.8-1.7-0.8s-1.3,0.3-1.8,0.8
		C1.9,45.6,1.7,46.4,1.7,47.5z"/>
	<path class="st0" d="M9.1,43.4h2.2l2.2,6.6l2.4-6.6h2v8.3h-1.4V45L14,51.7h-1.3l-2.3-7v7H9.1V43.4z"/>
	<path class="st0" d="M25.2,49l1.5,0.2c-0.2,0.8-0.7,1.5-1.3,2S24,51.8,23,51.8c-1.2,0-2.2-0.4-2.9-1.1C19.4,50,19,48.9,19,47.6
		c0-1.4,0.4-2.5,1.1-3.2c0.7-0.8,1.7-1.2,2.8-1.2c1.1,0,2,0.4,2.7,1.1c0.7,0.8,1.1,1.8,1.1,3.2c0,0.1,0,0.2,0,0.4h-6.2
		c0.1,0.9,0.3,1.6,0.8,2.1s1,0.7,1.7,0.7c0.5,0,1-0.1,1.3-0.4C24.7,50,25,49.6,25.2,49z M20.6,46.7h4.6c-0.1-0.7-0.2-1.2-0.5-1.6
		c-0.4-0.5-1-0.8-1.7-0.8c-0.6,0-1.2,0.2-1.6,0.6C20.9,45.4,20.6,46,20.6,46.7z"/>
	<path class="st0" d="M27.9,43.4h4.8v1.2h-3.4v7.1h-1.4C27.9,51.7,27.9,43.4,27.9,43.4z"/>
	<path class="st0" d="M38.2,50.6c-0.5,0.4-1,0.8-1.5,0.9s-1,0.3-1.6,0.3c-0.9,0-1.6-0.2-2.1-0.7s-0.7-1-0.7-1.7
		c0-0.4,0.1-0.8,0.3-1.1s0.4-0.6,0.7-0.8s0.6-0.4,1-0.5c0.3-0.1,0.7-0.1,1.2-0.2c1.1-0.1,2-0.3,2.5-0.5c0-0.2,0-0.3,0-0.4
		c0-0.6-0.1-1-0.4-1.2c-0.4-0.3-0.9-0.5-1.6-0.5c-0.7,0-1.1,0.1-1.5,0.3c-0.3,0.2-0.5,0.6-0.7,1.2l-1.4-0.2c0.1-0.6,0.3-1.1,0.6-1.4
		c0.3-0.4,0.7-0.6,1.2-0.8s1.2-0.3,1.9-0.3s1.3,0.1,1.7,0.2c0.4,0.2,0.8,0.4,1,0.6c0.2,0.3,0.4,0.6,0.4,1c0,0.2,0.1,0.7,0.1,1.3V48
		c0,1.3,0,2.1,0.1,2.5c0.1,0.3,0.2,0.7,0.4,1h-1.5C38.3,51.4,38.3,51,38.2,50.6z M38.1,47.5c-0.5,0.2-1.3,0.4-2.3,0.5
		c-0.6,0.1-1,0.2-1.2,0.3s-0.4,0.3-0.6,0.5c-0.1,0.2-0.2,0.4-0.2,0.7c0,0.4,0.1,0.7,0.4,0.9s0.7,0.4,1.2,0.4s1-0.1,1.4-0.4
		c0.4-0.2,0.7-0.6,0.9-1c0.2-0.3,0.2-0.8,0.2-1.4v-0.5H38.1z"/>
	<path class="st0" d="M40.6,48.2v-1.4h4.3v1.4H40.6z"/>
	<path class="st0" d="M45.5,48.6l1.4-0.2c0.2,0.8,0.4,1.4,0.8,1.7c0.4,0.4,0.9,0.5,1.4,0.5c0.7,0,1.2-0.2,1.7-0.7s0.7-1,0.7-1.7
		c0-0.6-0.2-1.2-0.6-1.6c-0.4-0.4-1-0.6-1.6-0.6c-0.3,0-0.6,0.1-1,0.2l0.2-1.2c0.1,0,0.2,0,0.2,0c0.6,0,1.1-0.2,1.6-0.5
		s0.7-0.8,0.7-1.4c0-0.5-0.2-0.9-0.5-1.3c-0.3-0.3-0.8-0.5-1.4-0.5c-0.5,0-1,0.2-1.4,0.5s-0.6,0.9-0.7,1.5l-1.4-0.2
		c0.2-0.9,0.6-1.7,1.2-2.2c0.6-0.5,1.4-0.8,2.3-0.8c0.6,0,1.2,0.1,1.7,0.4c0.5,0.3,0.9,0.6,1.2,1.1s0.4,1,0.4,1.5S52.3,44,52,44.5
		s-0.7,0.7-1.2,1c0.7,0.2,1.2,0.5,1.6,1s0.6,1.1,0.6,1.8c0,1-0.4,1.8-1.1,2.5c-0.7,0.7-1.7,1-2.8,1c-1,0-1.8-0.3-2.5-0.9
		C46,50.4,45.6,49.6,45.5,48.6z"/>
	<path class="st0" d="M54.6,51.6V50h1.6v1.6c0,0.6-0.1,1.1-0.3,1.4c-0.2,0.4-0.5,0.6-1,0.8l-0.4-0.6c0.3-0.1,0.5-0.3,0.7-0.6
		c0.1-0.3,0.2-0.6,0.2-1.1L54.6,51.6L54.6,51.6z"/>
	<path class="st0" d="M67,46.8c-0.1-0.7-0.3-1.3-0.7-1.8s-0.9-0.7-1.5-0.7c-1.1,0-1.7,0.6-2,1.7l-1.4-0.2c0.1-0.8,0.5-1.4,1-1.9
		s1.3-0.7,2.2-0.7c1.2,0,2.1,0.4,2.8,1.2c0.7,0.8,1,1.8,1,3.2c0,1.3-0.3,2.4-0.9,3.2s-1.6,1.2-2.7,1.1c-1,0-1.8-0.3-2.4-0.8
		c-0.6-0.6-1-1.3-1.1-2.2l1.4-0.2c0.2,1.4,0.9,2.1,2.1,2.1c0.7,0,1.2-0.2,1.6-0.7s0.6-1.1,0.7-2h-2.9v-1.2L67,46.8L67,46.8z"/>
	<path class="st0" d="M69.6,43.4H71v6.3l3.9-6.3h1.5v8.3H75v-6.3l-3.9,6.3h-1.5V43.4z M74.5,40.2h1c-0.1,0.7-0.3,1.2-0.7,1.5
		c-0.4,0.3-0.9,0.5-1.6,0.5S72,42,71.6,41.7s-0.6-0.8-0.7-1.5h1c0.1,0.4,0.2,0.6,0.4,0.8c0.2,0.2,0.5,0.3,0.9,0.3s0.7-0.1,1-0.3
		C74.3,40.8,74.4,40.6,74.5,40.2z"/>
	<path class="st0" d="M78,43.4h1.4V47c0.4,0,0.8-0.1,0.9-0.3s0.4-0.7,0.8-1.5c0.3-0.7,0.5-1.1,0.7-1.3s0.4-0.3,0.6-0.4
		c0.2-0.1,0.6-0.1,1.1-0.1h0.3v1.2h-0.4c-0.4,0-0.6,0.1-0.7,0.2c-0.1,0.1-0.3,0.5-0.5,1s-0.4,0.9-0.6,1.1c-0.2,0.2-0.5,0.4-0.8,0.6
		c0.6,0.2,1.2,0.7,1.8,1.7l1.5,2.6h-1.5L81,49.1c-0.3-0.5-0.6-0.9-0.8-1s-0.5-0.2-0.8-0.2v3.8H78V43.4z"/>
	<path class="st0" d="M84.1,47.5c0-1.5,0.4-2.7,1.3-3.4c0.7-0.6,1.6-0.9,2.6-0.9c1.1,0,2.1,0.4,2.8,1.1c0.7,0.7,1.1,1.8,1.1,3.1
		c0,1.1-0.2,1.9-0.5,2.5S90.6,51,90,51.3c-0.6,0.3-1.3,0.5-2,0.5c-1.2,0-2.1-0.4-2.8-1.1C84.5,50,84.1,48.9,84.1,47.5z M85.5,47.5
		c0,1.1,0.2,1.9,0.7,2.4s1,0.8,1.8,0.8c0.7,0,1.3-0.3,1.7-0.8c0.5-0.5,0.7-1.3,0.7-2.4c0-1-0.2-1.8-0.7-2.3s-1-0.8-1.7-0.8
		s-1.3,0.3-1.8,0.8C85.8,45.6,85.5,46.4,85.5,47.5z"/>
	<path class="st0" d="M94.6,47.9v-1.1c0.6,0,1,0,1.2-0.1c0.2,0,0.4-0.2,0.6-0.4s0.3-0.5,0.3-0.8c0-0.4-0.1-0.7-0.4-0.9
		s-0.6-0.3-1-0.3c-0.8,0-1.3,0.5-1.7,1.4l-1.3-0.2c0.4-1.6,1.4-2.3,3-2.3c0.9,0,1.6,0.2,2.1,0.7s0.8,1.1,0.8,1.7
		c0,0.7-0.3,1.2-1,1.6c0.4,0.2,0.7,0.5,0.9,0.9c0.2,0.3,0.3,0.8,0.3,1.2c0,0.7-0.3,1.3-0.8,1.8s-1.3,0.7-2.3,0.7
		c-1.9,0-3-0.8-3.3-2.5l1.3-0.3c0.1,0.5,0.4,0.9,0.7,1.2c0.4,0.3,0.8,0.4,1.3,0.4s0.9-0.1,1.2-0.4c0.3-0.3,0.5-0.6,0.5-1
		c0-0.3-0.1-0.6-0.3-0.8c-0.2-0.2-0.4-0.4-0.6-0.4c-0.2-0.1-0.6-0.1-1.2-0.1C94.9,47.9,94.8,47.9,94.6,47.9z"/>
	<path class="st0" d="M105,50.6c-0.5,0.4-1,0.8-1.5,0.9s-1,0.3-1.6,0.3c-0.9,0-1.6-0.2-2.1-0.7s-0.7-1-0.7-1.7
		c0-0.4,0.1-0.8,0.3-1.1s0.4-0.6,0.7-0.8s0.6-0.4,1-0.5c0.3-0.1,0.7-0.1,1.2-0.2c1.1-0.1,2-0.3,2.5-0.5c0-0.2,0-0.3,0-0.4
		c0-0.6-0.1-1-0.4-1.2c-0.4-0.3-0.9-0.5-1.6-0.5s-1.1,0.1-1.5,0.3c-0.3,0.2-0.5,0.6-0.7,1.2l-1.4-0.2c0.1-0.6,0.3-1.1,0.6-1.4
		c0.3-0.4,0.7-0.6,1.2-0.8s1.2-0.3,1.9-0.3c0.7,0,1.3,0.1,1.7,0.2c0.4,0.2,0.8,0.4,1,0.6c0.2,0.3,0.4,0.6,0.4,1
		c0,0.2,0.1,0.7,0.1,1.3V48c0,1.3,0,2.1,0.1,2.5c0.1,0.3,0.2,0.7,0.4,1h-1.5C105.1,51.4,105,51,105,50.6z M104.8,47.5
		c-0.5,0.2-1.3,0.4-2.3,0.5c-0.6,0.1-1,0.2-1.2,0.3s-0.4,0.3-0.6,0.5c-0.1,0.2-0.2,0.4-0.2,0.7c0,0.4,0.1,0.7,0.4,0.9
		s0.7,0.4,1.2,0.4s1-0.1,1.4-0.4c0.4-0.2,0.7-0.6,0.9-1c0.2-0.3,0.2-0.8,0.2-1.4v-0.5H104.8z"/>
	<path class="st0" d="M107.9,43.4h6.5v8.3H113v-7.1h-3.7v7.1h-1.4V43.4z"/>
	<path class="st0" d="M121.7,49l1.5,0.2c-0.2,0.8-0.7,1.5-1.3,2s-1.4,0.7-2.4,0.7c-1.2,0-2.2-0.4-2.9-1.1c-0.7-0.7-1.1-1.8-1.1-3.1
		c0-1.4,0.4-2.5,1.1-3.2c0.7-0.8,1.7-1.2,2.8-1.2c1.1,0,2,0.4,2.7,1.1c0.7,0.8,1.1,1.8,1.1,3.2c0,0.1,0,0.2,0,0.4H117
		c0.1,0.9,0.3,1.6,0.8,2.1s1,0.7,1.7,0.7c0.5,0,1-0.1,1.3-0.4C121.2,50,121.5,49.6,121.7,49z M117.1,46.7h4.6
		c-0.1-0.7-0.2-1.2-0.5-1.6c-0.4-0.5-1-0.8-1.7-0.8c-0.6,0-1.2,0.2-1.6,0.6C117.3,45.4,117.1,46,117.1,46.7z"/>
	<path class="st0" d="M124.3,43.4h1.4v3.5h3.9v-3.5h1.4v8.3h-1.4V48h-3.9v3.7h-1.4V43.4z"/>
	<path class="st0" d="M131.8,43.4h6.7v1.2h-2.7v7.1h-1.4v-7.1h-2.7L131.8,43.4L131.8,43.4z"/>
	<path class="st0" d="M144.6,50.6c-0.5,0.4-1,0.8-1.5,0.9s-1,0.3-1.6,0.3c-0.9,0-1.6-0.2-2.1-0.7s-0.7-1-0.7-1.7
		c0-0.4,0.1-0.8,0.3-1.1s0.4-0.6,0.7-0.8s0.6-0.4,1-0.5c0.3-0.1,0.7-0.1,1.2-0.2c1.1-0.1,2-0.3,2.5-0.5c0-0.2,0-0.3,0-0.4
		c0-0.6-0.1-1-0.4-1.2c-0.4-0.3-0.9-0.5-1.6-0.5c-0.7,0-1.1,0.1-1.5,0.3c-0.3,0.2-0.5,0.6-0.7,1.2l-1.4-0.2c0.1-0.6,0.3-1.1,0.6-1.4
		c0.3-0.4,0.7-0.6,1.2-0.8s1.2-0.3,1.9-0.3s1.3,0.1,1.7,0.2c0.4,0.2,0.8,0.4,1,0.6c0.2,0.3,0.4,0.6,0.4,1c0,0.2,0.1,0.7,0.1,1.3V48
		c0,1.3,0,2.1,0.1,2.5c0.1,0.3,0.2,0.7,0.4,1h-1.5C144.7,51.4,144.7,51,144.6,50.6z M144.5,47.5c-0.5,0.2-1.3,0.4-2.3,0.5
		c-0.6,0.1-1,0.2-1.2,0.3s-0.4,0.3-0.6,0.5c-0.1,0.2-0.2,0.4-0.2,0.7c0,0.4,0.1,0.7,0.4,0.9s0.7,0.4,1.2,0.4s1-0.1,1.4-0.4
		c0.4-0.2,0.7-0.6,0.9-1c0.2-0.3,0.2-0.8,0.2-1.4v-0.5H144.5z"/>
	<path class="st0" d="M153.2,49l1.5,0.2c-0.2,0.8-0.7,1.5-1.3,2s-1.4,0.7-2.4,0.7c-1.2,0-2.2-0.4-2.9-1.1c-0.7-0.7-1.1-1.8-1.1-3.1
		c0-1.4,0.4-2.5,1.1-3.2c0.7-0.8,1.7-1.2,2.8-1.2s2,0.4,2.7,1.1c0.7,0.8,1.1,1.8,1.1,3.2c0,0.1,0,0.2,0,0.4h-6.2
		c0.1,0.9,0.3,1.6,0.8,2.1s1,0.7,1.7,0.7c0.5,0,1-0.1,1.3-0.4C152.7,50,153,49.6,153.2,49z M148.6,46.7h4.6
		c-0.1-0.7-0.2-1.2-0.5-1.6c-0.4-0.5-1-0.8-1.7-0.8c-0.6,0-1.2,0.2-1.6,0.6C148.9,45.4,148.6,46,148.6,46.7z"/>
	<path class="st0" d="M155.9,43.4h1.4v3.5h3.9v-3.5h1.4v8.3h-1.4V48h-3.9v3.7h-1.4V43.4z"/>
	<path class="st0" d="M163.6,47.5c0-1.5,0.4-2.7,1.3-3.4c0.7-0.6,1.6-0.9,2.6-0.9c1.1,0,2.1,0.4,2.8,1.1c0.7,0.7,1.1,1.8,1.1,3.1
		c0,1.1-0.2,1.9-0.5,2.5s-0.8,1.1-1.4,1.4s-1.3,0.5-2,0.5c-1.2,0-2.1-0.4-2.8-1.1C164,50,163.6,48.9,163.6,47.5z M165.1,47.5
		c0,1.1,0.2,1.9,0.7,2.4s1,0.8,1.8,0.8c0.7,0,1.3-0.3,1.7-0.8s0.7-1.3,0.7-2.4c0-1-0.2-1.8-0.7-2.3s-1-0.8-1.7-0.8s-1.3,0.3-1.8,0.8
		C165.3,45.6,165.1,46.4,165.1,47.5z"/>
	<path class="st0" d="M172.5,43.4h3.2c0.8,0,1.4,0.1,1.8,0.2s0.7,0.4,1,0.7c0.3,0.4,0.4,0.8,0.4,1.3c0,0.4-0.1,0.7-0.2,1
		c-0.2,0.3-0.4,0.5-0.7,0.7c0.4,0.1,0.7,0.4,1,0.7c0.3,0.4,0.4,0.8,0.4,1.3c-0.1,0.8-0.3,1.4-0.8,1.8c-0.5,0.4-1.3,0.6-2.2,0.6h-3.7
		v-8.3H172.5z M173.9,46.8h1.5c0.6,0,1,0,1.2-0.1s0.4-0.2,0.6-0.4c0.2-0.2,0.3-0.4,0.3-0.7c0-0.4-0.2-0.7-0.5-0.9s-0.8-0.3-1.6-0.3
		h-1.5V46.8z M173.9,50.5h1.9c0.8,0,1.3-0.1,1.6-0.3s0.5-0.5,0.5-1c0-0.3-0.1-0.5-0.3-0.7s-0.4-0.4-0.7-0.4
		c-0.3-0.1-0.7-0.1-1.3-0.1h-1.7V50.5z"/>
	<path class="st0" d="M185.7,50.6c-0.5,0.4-1,0.8-1.5,0.9s-1,0.3-1.6,0.3c-0.9,0-1.6-0.2-2.1-0.7s-0.7-1-0.7-1.7
		c0-0.4,0.1-0.8,0.3-1.1s0.4-0.6,0.7-0.8s0.6-0.4,1-0.5c0.3-0.1,0.7-0.1,1.2-0.2c1.1-0.1,2-0.3,2.5-0.5c0-0.2,0-0.3,0-0.4
		c0-0.6-0.1-1-0.4-1.2c-0.4-0.3-0.9-0.5-1.6-0.5c-0.7,0-1.1,0.1-1.5,0.3c-0.3,0.2-0.5,0.6-0.7,1.2l-1.4-0.2c0.1-0.6,0.3-1.1,0.6-1.4
		c0.3-0.4,0.7-0.6,1.2-0.8s1.2-0.3,1.9-0.3s1.3,0.1,1.7,0.2c0.4,0.2,0.8,0.4,1,0.6c0.2,0.3,0.4,0.6,0.4,1c0,0.2,0.1,0.7,0.1,1.3V48
		c0,1.3,0,2.1,0.1,2.5c0.1,0.3,0.2,0.7,0.4,1h-1.5C185.8,51.4,185.7,51,185.7,50.6z M185.5,47.5c-0.5,0.2-1.3,0.4-2.3,0.5
		c-0.6,0.1-1,0.2-1.2,0.3s-0.4,0.3-0.6,0.5c-0.1,0.2-0.2,0.4-0.2,0.7c0,0.4,0.1,0.7,0.4,0.9s0.7,0.4,1.2,0.4s1-0.1,1.4-0.4
		c0.4-0.2,0.7-0.6,0.9-1c0.2-0.3,0.2-0.8,0.2-1.4v-0.5H185.5z"/>
	<path class="st0" d="M195.1,43.4v8.3h-1.4v-3.2h-0.8c-0.5,0-0.9,0.1-1.1,0.2c-0.2,0.1-0.6,0.5-1.1,1.2l-1.2,1.8h-1.7l1.5-2.2
		c0.5-0.7,0.9-1.1,1.4-1.2c-0.8-0.1-1.4-0.4-1.8-0.9s-0.6-1-0.6-1.6c0-0.7,0.3-1.3,0.8-1.8c0.5-0.4,1.2-0.7,2.2-0.7h3.8V43.4z
		 M193.7,44.5h-2c-0.8,0-1.4,0.1-1.6,0.4c-0.2,0.3-0.4,0.6-0.4,0.9c0,0.5,0.2,0.9,0.5,1.1c0.4,0.2,1,0.3,1.9,0.3h1.6V44.5z"/>
	<path class="st0" d="M200.6,43.4h1.4V47c0.4,0,0.8-0.1,0.9-0.3s0.4-0.7,0.8-1.5c0.3-0.7,0.5-1.1,0.7-1.3s0.4-0.3,0.6-0.4
		c0.2-0.1,0.6-0.1,1.1-0.1h0.3v1.2H206c-0.4,0-0.6,0.1-0.7,0.2c-0.1,0.1-0.3,0.5-0.5,1s-0.4,0.9-0.6,1.1c-0.2,0.2-0.5,0.4-0.8,0.6
		c0.6,0.2,1.2,0.7,1.8,1.7l1.5,2.6h-1.5l-1.5-2.6c-0.3-0.5-0.6-0.9-0.8-1s-0.5-0.2-0.8-0.2v3.8h-1.4v-8.4H200.6z"/>
	<path class="st0" d="M207,43.4h1.4v6.3l3.9-6.3h1.5v8.3h-1.4v-6.3l-3.9,6.3H207V43.4z"/>
	<path class="st0" d="M220.8,48.6l1.4,0.2c-0.2,1-0.5,1.7-1.2,2.2s-1.4,0.8-2.3,0.8c-1.1,0-2-0.4-2.7-1.1s-1-1.8-1-3.2
		c0-0.9,0.1-1.7,0.4-2.4s0.7-1.2,1.4-1.5s1.3-0.5,2-0.5c0.9,0,1.6,0.2,2.2,0.7c0.6,0.5,0.9,1.1,1.1,1.9l-1.4,0.2
		c-0.1-0.6-0.4-1-0.7-1.3s-0.7-0.4-1.2-0.4c-0.7,0-1.3,0.3-1.7,0.8s-0.7,1.3-0.7,2.4c0,1.1,0.2,1.9,0.6,2.4c0.4,0.5,1,0.8,1.7,0.8
		c0.6,0,1-0.2,1.4-0.5C220.5,49.8,220.7,49.3,220.8,48.6z"/>
	<path class="st0" d="M223.5,43.4h6.5v8.3h-1.4v-7.1h-3.7v4.1c0,1,0,1.6-0.1,1.9c-0.1,0.3-0.2,0.6-0.5,0.8s-0.7,0.3-1.2,0.3
		c-0.3,0-0.7,0-1.1-0.1v-1.2h0.6c0.3,0,0.5,0,0.6-0.1s0.2-0.2,0.2-0.3s0.1-0.6,0.1-1.3L223.5,43.4L223.5,43.4z"/>
	<path class="st0" d="M231.3,47.5c0-1.5,0.4-2.7,1.3-3.4c0.7-0.6,1.6-0.9,2.6-0.9c1.1,0,2.1,0.4,2.8,1.1c0.7,0.7,1.1,1.8,1.1,3.1
		c0,1.1-0.2,1.9-0.5,2.5s-0.8,1.1-1.4,1.4s-1.3,0.5-2,0.5c-1.2,0-2.1-0.4-2.8-1.1C231.6,50,231.3,48.9,231.3,47.5z M232.7,47.5
		c0,1.1,0.2,1.9,0.7,2.4s1,0.8,1.8,0.8c0.7,0,1.3-0.3,1.7-0.8s0.7-1.3,0.7-2.4c0-1-0.2-1.8-0.7-2.3s-1-0.8-1.7-0.8s-1.3,0.3-1.8,0.8
		C232.9,45.6,232.7,46.4,232.7,47.5z"/>
	<path class="st0" d="M239,43.4h6.7v1.2H243v7.1h-1.4v-7.1H239V43.4z"/>
	<path class="st0" d="M251.8,50.6c-0.5,0.4-1,0.8-1.5,0.9s-1,0.3-1.6,0.3c-0.9,0-1.6-0.2-2.1-0.7s-0.7-1-0.7-1.7
		c0-0.4,0.1-0.8,0.3-1.1s0.4-0.6,0.7-0.8s0.6-0.4,1-0.5c0.3-0.1,0.7-0.1,1.2-0.2c1.1-0.1,2-0.3,2.5-0.5c0-0.2,0-0.3,0-0.4
		c0-0.6-0.1-1-0.4-1.2c-0.4-0.3-0.9-0.5-1.6-0.5c-0.7,0-1.1,0.1-1.5,0.3c-0.3,0.2-0.5,0.6-0.7,1.2l-1.4-0.2c0.1-0.6,0.3-1.1,0.6-1.4
		c0.3-0.4,0.7-0.6,1.2-0.8s1.2-0.3,1.9-0.3s1.3,0.1,1.7,0.2c0.4,0.2,0.8,0.4,1,0.6c0.2,0.3,0.4,0.6,0.4,1c0,0.2,0.1,0.7,0.1,1.3V48
		c0,1.3,0,2.1,0.1,2.5c0.1,0.3,0.2,0.7,0.4,1h-1.5C251.9,51.4,251.8,51,251.8,50.6z M251.7,47.5c-0.5,0.2-1.3,0.4-2.3,0.5
		c-0.6,0.1-1,0.2-1.2,0.3s-0.4,0.3-0.6,0.5c-0.1,0.2-0.2,0.4-0.2,0.7c0,0.4,0.1,0.7,0.4,0.9s0.7,0.4,1.2,0.4s1-0.1,1.4-0.4
		c0.4-0.2,0.7-0.6,0.9-1c0.2-0.3,0.2-0.8,0.2-1.4v-0.5H251.7z"/>
	<path class="st0" d="M3.4,75c-0.8-1-1.4-2.1-2-3.4s-0.8-2.7-0.8-4.1c0-1.2,0.2-2.4,0.6-3.6c0.5-1.3,1.2-2.6,2.2-3.9h1
		c-0.6,1.1-1,1.9-1.2,2.3c-0.3,0.7-0.6,1.5-0.8,2.2c-0.2,1-0.3,2-0.3,2.9c0,2.5,0.8,5,2.3,7.5L3.4,75L3.4,75z"/>
	<path class="st0" d="M13.5,65.1c-0.1-1.1-0.4-2.1-1-2.7s-1.5-1-2.6-1c-1.7,0-2.7,0.8-3.1,2.4l-1.5-0.4c0.3-1,0.8-1.9,1.6-2.5
		s1.8-0.9,3-0.9c1.1,0,2.1,0.3,2.9,0.8c0.8,0.6,1.4,1.3,1.8,2.1c0.4,0.9,0.6,1.8,0.6,2.9c0.1,1.7-0.4,3.1-1.2,4.3s-2.2,1.7-4,1.7
		c-2.5,0-4.1-1.3-4.8-3.8l1.5-0.4c0.5,1.9,1.6,2.9,3.4,2.9c1,0,1.9-0.4,2.5-1.1s1-1.8,1.1-3H9.3V65h4.2V65.1z"/>
	<path class="st0" d="M16.7,60.2h9v11.5h-1.5V61.5h-6v10.1h-1.5V60.2z"/>
	<path class="st0" d="M27.6,60.2h1.5v5c0.7,0,1.2-0.1,1.5-0.4s0.6-0.9,1.1-1.9c0.3-0.8,0.6-1.3,0.8-1.6s0.5-0.6,0.9-0.8
		s0.8-0.3,1.3-0.3c0.6,0,0.9,0,0.9,0v1.3c-0.1,0-0.2,0-0.3,0c-0.2,0-0.3,0-0.3,0c-0.5,0-0.8,0.1-1.1,0.4c-0.2,0.2-0.5,0.7-0.8,1.5
		c-0.4,1-0.7,1.6-1,1.8c-0.3,0.3-0.6,0.5-1,0.6c0.7,0.2,1.5,0.9,2.2,2l2.4,3.8h-1.9l-1.9-3.1c-0.5-0.9-1-1.4-1.3-1.8
		c-0.4-0.3-0.8-0.5-1.4-0.5v5.4h-1.5V60.2H27.6z"/>
	<path class="st0" d="M37.1,75h-1c1.6-2.5,2.3-5,2.3-7.5c0-1-0.1-2-0.3-2.9c-0.2-0.8-0.4-1.5-0.7-2.2c-0.2-0.5-0.6-1.2-1.3-2.3h1
		c1,1.3,1.7,2.6,2.2,3.9c0.4,1.1,0.6,2.3,0.6,3.6c0,1.4-0.3,2.8-0.8,4.1S37.9,74,37.1,75z"/>
	<path class="st0" d="M44.8,63.4h1.4v6.3l3.9-6.3h1.5v8.3h-1.4v-6.3l-3.9,6.3h-1.5V63.4z"/>
	<path class="st0" d="M58.2,63.4H64v7.1h0.9V74h-1.2v-2.4h-6.5V74H56v-3.5h0.7C57.8,69.1,58.2,66.8,58.2,63.4z M59.4,64.5
		c-0.1,2.7-0.5,4.7-1.2,6h4.5v-6H59.4z"/>
	<path class="st0" d="M65.3,67.5c0-1.5,0.4-2.7,1.3-3.4c0.7-0.6,1.6-0.9,2.6-0.9c1.1,0,2.1,0.4,2.8,1.1c0.7,0.7,1.1,1.8,1.1,3.1
		c0,1.1-0.2,1.9-0.5,2.5s-0.8,1.1-1.4,1.4s-1.3,0.5-2,0.5c-1.2,0-2.1-0.4-2.8-1.1S65.3,68.9,65.3,67.5z M66.8,67.5
		c0,1.1,0.2,1.9,0.7,2.4s1,0.8,1.8,0.8c0.7,0,1.3-0.3,1.7-0.8s0.7-1.3,0.7-2.4c0-1-0.2-1.8-0.7-2.3s-1-0.8-1.7-0.8s-1.3,0.3-1.8,0.8
		C67,65.6,66.8,66.4,66.8,67.5z"/>
	<path class="st0" d="M91.4,67.9v-1.1c0.6,0,1,0,1.2-0.1c0.2,0,0.4-0.2,0.6-0.4c0.2-0.2,0.3-0.5,0.3-0.8c0-0.4-0.1-0.7-0.4-0.9
		c-0.3-0.2-0.6-0.3-1-0.3c-0.8,0-1.3,0.5-1.7,1.4l-1.3-0.2c0.4-1.6,1.4-2.3,3-2.3c0.9,0,1.6,0.2,2.1,0.7S95,65,95,65.6
		c0,0.7-0.3,1.2-1,1.6c0.4,0.2,0.7,0.5,0.9,0.9c0.2,0.3,0.3,0.8,0.3,1.2c0,0.7-0.3,1.3-0.8,1.8s-1.3,0.7-2.3,0.7
		c-1.9,0-3-0.8-3.3-2.5l1.3-0.3c0.1,0.5,0.4,0.9,0.7,1.2c0.4,0.3,0.8,0.4,1.3,0.4s0.9-0.1,1.2-0.4s0.5-0.6,0.5-1
		c0-0.3-0.1-0.6-0.3-0.8c-0.2-0.2-0.4-0.4-0.6-0.4c-0.2-0.1-0.6-0.1-1.2-0.1C91.6,67.9,91.5,67.9,91.4,67.9z"/>
	<path class="st0" d="M101.7,70.6c-0.5,0.4-1,0.8-1.5,0.9s-1,0.3-1.6,0.3c-0.9,0-1.6-0.2-2.1-0.7s-0.7-1-0.7-1.7
		c0-0.4,0.1-0.8,0.3-1.1c0.2-0.3,0.4-0.6,0.7-0.8c0.3-0.2,0.6-0.4,1-0.5c0.3-0.1,0.7-0.1,1.2-0.2c1.1-0.1,2-0.3,2.5-0.5
		c0-0.2,0-0.3,0-0.4c0-0.6-0.1-1-0.4-1.2c-0.4-0.3-0.9-0.5-1.6-0.5s-1.1,0.1-1.5,0.3c-0.3,0.2-0.5,0.6-0.7,1.2l-1.4-0.2
		c0.1-0.6,0.3-1.1,0.6-1.4c0.3-0.4,0.7-0.6,1.2-0.8s1.2-0.3,1.9-0.3c0.7,0,1.3,0.1,1.7,0.2c0.4,0.2,0.8,0.4,1,0.6
		c0.2,0.3,0.4,0.6,0.4,1c0,0.2,0.1,0.7,0.1,1.3V68c0,1.3,0,2.1,0.1,2.5c0.1,0.3,0.2,0.7,0.4,1h-1.5C101.8,71.4,101.7,71,101.7,70.6z
		 M101.6,67.5c-0.5,0.2-1.3,0.4-2.3,0.5c-0.6,0.1-1,0.2-1.2,0.3c-0.2,0.1-0.4,0.3-0.6,0.5c-0.1,0.2-0.2,0.4-0.2,0.7
		c0,0.4,0.1,0.7,0.4,0.9s0.7,0.4,1.2,0.4s1-0.1,1.4-0.4c0.4-0.2,0.7-0.6,0.9-1c0.2-0.3,0.2-0.8,0.2-1.4v-0.5H101.6z"/>
	<path class="st0" d="M104.6,63.4h4.8v1.2H106v7.1h-1.4V63.4z"/>
	<path class="st0" d="M115.2,69l1.5,0.2c-0.2,0.8-0.7,1.5-1.3,2c-0.6,0.5-1.4,0.7-2.4,0.7c-1.2,0-2.2-0.4-2.9-1.1
		c-0.7-0.7-1.1-1.8-1.1-3.1c0-1.4,0.4-2.5,1.1-3.2c0.7-0.8,1.7-1.2,2.8-1.2s2,0.4,2.7,1.1c0.7,0.8,1.1,1.8,1.1,3.2
		c0,0.1,0,0.2,0,0.4h-6.2c0.1,0.9,0.3,1.6,0.8,2.1s1,0.7,1.7,0.7c0.5,0,1-0.1,1.3-0.4C114.7,70,115,69.6,115.2,69z M110.6,66.7h4.6
		c-0.1-0.7-0.2-1.2-0.5-1.6c-0.4-0.5-1-0.8-1.7-0.8c-0.6,0-1.2,0.2-1.6,0.6C110.9,65.4,110.7,66,110.6,66.7z"/>
	<path class="st0" d="M117.9,63.4h1.4V67c0.4,0,0.8-0.1,0.9-0.3c0.1-0.2,0.4-0.7,0.8-1.5c0.3-0.7,0.5-1.1,0.7-1.3s0.4-0.3,0.6-0.4
		c0.2-0.1,0.6-0.1,1.1-0.1h0.3v1.2h-0.4c-0.4,0-0.6,0.1-0.7,0.2c-0.1,0.1-0.3,0.5-0.5,1s-0.4,0.9-0.6,1.1s-0.5,0.4-0.8,0.6
		c0.6,0.2,1.2,0.7,1.8,1.7l1.5,2.6h-1.5l-1.5-2.6c-0.3-0.5-0.6-0.9-0.8-1c-0.2-0.1-0.5-0.2-0.8-0.2v3.8H118L117.9,63.4L117.9,63.4z"
		/>
	<path class="st0" d="M129.9,68.6l1.4,0.2c-0.2,1-0.5,1.7-1.2,2.2c-0.6,0.5-1.4,0.8-2.3,0.8c-1.1,0-2-0.4-2.7-1.1s-1-1.8-1-3.2
		c0-0.9,0.1-1.7,0.4-2.4s0.7-1.2,1.4-1.5c0.6-0.3,1.3-0.5,2-0.5c0.9,0,1.6,0.2,2.2,0.7c0.6,0.5,0.9,1.1,1.1,1.9l-1.4,0.2
		c-0.1-0.6-0.4-1-0.7-1.3s-0.7-0.4-1.2-0.4c-0.7,0-1.3,0.3-1.7,0.8s-0.7,1.3-0.7,2.4s0.2,1.9,0.6,2.4c0.4,0.5,1,0.8,1.7,0.8
		c0.6,0,1-0.2,1.4-0.5C129.6,69.8,129.8,69.3,129.9,68.6z"/>
	<path class="st0" d="M137.4,70.6c-0.5,0.4-1,0.8-1.5,0.9s-1,0.3-1.6,0.3c-0.9,0-1.6-0.2-2.1-0.7s-0.7-1-0.7-1.7
		c0-0.4,0.1-0.8,0.3-1.1c0.2-0.3,0.4-0.6,0.7-0.8c0.3-0.2,0.6-0.4,1-0.5c0.3-0.1,0.7-0.1,1.2-0.2c1.1-0.1,2-0.3,2.5-0.5
		c0-0.2,0-0.3,0-0.4c0-0.6-0.1-1-0.4-1.2c-0.4-0.3-0.9-0.5-1.6-0.5s-1.1,0.1-1.5,0.3c-0.3,0.2-0.5,0.6-0.7,1.2l-1.4-0.2
		c0.1-0.6,0.3-1.1,0.6-1.4c0.3-0.4,0.7-0.6,1.2-0.8s1.2-0.3,1.9-0.3s1.3,0.1,1.7,0.2c0.4,0.2,0.8,0.4,1,0.6c0.2,0.3,0.4,0.6,0.4,1
		c0,0.2,0.1,0.7,0.1,1.3V68c0,1.3,0,2.1,0.1,2.5c0.1,0.3,0.2,0.7,0.4,1h-1.5C137.5,71.4,137.4,71,137.4,70.6z M137.3,67.5
		c-0.5,0.2-1.3,0.4-2.3,0.5c-0.6,0.1-1,0.2-1.2,0.3c-0.2,0.1-0.4,0.3-0.6,0.5c-0.1,0.2-0.2,0.4-0.2,0.7c0,0.4,0.1,0.7,0.4,0.9
		s0.7,0.4,1.2,0.4s1-0.1,1.4-0.4c0.4-0.2,0.7-0.6,0.9-1c0.2-0.3,0.2-0.8,0.2-1.4v-0.5H137.3z"/>
	<path class="st0" d="M146,69l1.5,0.2c-0.2,0.8-0.7,1.5-1.3,2s-1.4,0.7-2.4,0.7c-1.2,0-2.2-0.4-2.9-1.1s-1.1-1.8-1.1-3.1
		c0-1.4,0.4-2.5,1.1-3.2c0.7-0.8,1.7-1.2,2.8-1.2c1.1,0,2,0.4,2.7,1.1c0.7,0.8,1.1,1.8,1.1,3.2c0,0.1,0,0.2,0,0.4h-6.2
		c0.1,0.9,0.3,1.6,0.8,2.1s1,0.7,1.7,0.7c0.5,0,1-0.1,1.3-0.4C145.5,70,145.8,69.6,146,69z M141.4,66.7h4.6
		c-0.1-0.7-0.2-1.2-0.5-1.6c-0.4-0.5-1-0.8-1.7-0.8c-0.6,0-1.2,0.2-1.6,0.6C141.6,65.4,141.4,66,141.4,66.7z"/>
	<path class="st0" d="M148.6,63.4h1.4v3.5h3.9v-3.5h1.4v8.3h-1.4V68H150v3.7h-1.4V63.4z"/>
	<path class="st0" d="M156.4,67.5c0-1.5,0.4-2.7,1.3-3.4c0.7-0.6,1.6-0.9,2.6-0.9c1.1,0,2.1,0.4,2.8,1.1s1.1,1.8,1.1,3.1
		c0,1.1-0.2,1.9-0.5,2.5s-0.8,1.1-1.4,1.4s-1.3,0.5-2,0.5c-1.2,0-2.1-0.4-2.8-1.1C156.7,70,156.4,68.9,156.4,67.5z M157.8,67.5
		c0,1.1,0.2,1.9,0.7,2.4s1,0.8,1.8,0.8c0.7,0,1.3-0.3,1.7-0.8s0.7-1.3,0.7-2.4c0-1-0.2-1.8-0.7-2.3s-1-0.8-1.7-0.8s-1.3,0.3-1.8,0.8
		C158.1,65.6,157.8,66.4,157.8,67.5z"/>
	<path class="st0" d="M165.3,63.4h3.2c0.8,0,1.4,0.1,1.8,0.2s0.7,0.4,1,0.7c0.3,0.4,0.4,0.8,0.4,1.3c0,0.4-0.1,0.7-0.2,1
		c-0.2,0.3-0.4,0.5-0.7,0.7c0.4,0.1,0.7,0.4,1,0.7c0.3,0.4,0.4,0.8,0.4,1.3c-0.1,0.8-0.3,1.4-0.8,1.8s-1.3,0.6-2.2,0.6h-3.7v-8.3
		H165.3z M166.7,66.8h1.5c0.6,0,1,0,1.2-0.1s0.4-0.2,0.6-0.4c0.2-0.2,0.3-0.4,0.3-0.7c0-0.4-0.2-0.7-0.5-0.9s-0.8-0.3-1.6-0.3h-1.5
		V66.8z M166.7,70.5h1.9c0.8,0,1.3-0.1,1.6-0.3c0.3-0.2,0.5-0.5,0.5-1c0-0.3-0.1-0.5-0.3-0.7s-0.4-0.4-0.7-0.4
		c-0.3-0.1-0.7-0.1-1.3-0.1h-1.7V70.5z"/>
	<path class="st0" d="M178.4,70.6c-0.5,0.4-1,0.8-1.5,0.9s-1,0.3-1.6,0.3c-0.9,0-1.6-0.2-2.1-0.7s-0.7-1-0.7-1.7
		c0-0.4,0.1-0.8,0.3-1.1s0.4-0.6,0.7-0.8s0.6-0.4,1-0.5c0.3-0.1,0.7-0.1,1.2-0.2c1.1-0.1,2-0.3,2.5-0.5c0-0.2,0-0.3,0-0.4
		c0-0.6-0.1-1-0.4-1.2c-0.4-0.3-0.9-0.5-1.6-0.5c-0.7,0-1.1,0.1-1.5,0.3c-0.3,0.2-0.5,0.6-0.7,1.2l-1.4-0.2c0.1-0.6,0.3-1.1,0.6-1.4
		c0.3-0.4,0.7-0.6,1.2-0.8s1.2-0.3,1.9-0.3s1.3,0.1,1.7,0.2c0.4,0.2,0.8,0.4,1,0.6c0.2,0.3,0.4,0.6,0.4,1c0,0.2,0.1,0.7,0.1,1.3V68
		c0,1.3,0,2.1,0.1,2.5c0.1,0.3,0.2,0.7,0.4,1h-1.5C178.6,71.4,178.5,71,178.4,70.6z M178.3,67.5c-0.5,0.2-1.3,0.4-2.3,0.5
		c-0.6,0.1-1,0.2-1.2,0.3c-0.2,0.1-0.4,0.3-0.6,0.5c-0.1,0.2-0.2,0.4-0.2,0.7c0,0.4,0.1,0.7,0.4,0.9s0.7,0.4,1.2,0.4s1-0.1,1.4-0.4
		c0.4-0.2,0.7-0.6,0.9-1c0.2-0.3,0.2-0.8,0.2-1.4v-0.5H178.3z"/>
	<path class="st0" d="M187.9,63.4v8.3h-1.4v-3.2h-0.8c-0.5,0-0.9,0.1-1.1,0.2c-0.2,0.1-0.6,0.5-1.1,1.2l-1.2,1.8h-1.8l1.5-2.2
		c0.5-0.7,0.9-1.1,1.4-1.2c-0.8-0.1-1.4-0.4-1.8-0.9s-0.6-1-0.6-1.6c0-0.7,0.3-1.3,0.8-1.8c0.5-0.4,1.2-0.7,2.2-0.7L187.9,63.4
		L187.9,63.4z M186.5,64.5h-2c-0.8,0-1.4,0.1-1.6,0.4c-0.2,0.3-0.4,0.6-0.4,0.9c0,0.5,0.2,0.9,0.5,1.1c0.4,0.2,1,0.3,1.9,0.3h1.6
		V64.5z"/>
	<path class="st0" d="M193.3,63.4h1.4V67c0.4,0,0.8-0.1,0.9-0.3s0.4-0.7,0.8-1.5c0.3-0.7,0.5-1.1,0.7-1.3s0.4-0.3,0.6-0.4
		c0.2-0.1,0.6-0.1,1.1-0.1h0.3v1.2h-0.4c-0.4,0-0.6,0.1-0.7,0.2c-0.1,0.1-0.3,0.5-0.5,1s-0.4,0.9-0.6,1.1c-0.2,0.2-0.5,0.4-0.8,0.6
		c0.6,0.2,1.2,0.7,1.8,1.7l1.5,2.6h-1.5l-1.5-2.6c-0.3-0.5-0.6-0.9-0.8-1s-0.5-0.2-0.8-0.2v3.8h-1.4v-8.4H193.3z"/>
	<path class="st0" d="M199.8,63.4h1.4v6.3l3.9-6.3h1.5v8.3h-1.4v-6.3l-3.9,6.3h-1.5V63.4z"/>
	<path class="st0" d="M213.6,68.6l1.4,0.2c-0.2,1-0.5,1.7-1.2,2.2s-1.4,0.8-2.3,0.8c-1.1,0-2-0.4-2.7-1.1s-1-1.8-1-3.2
		c0-0.9,0.1-1.7,0.4-2.4s0.7-1.2,1.4-1.5s1.3-0.5,2-0.5c0.9,0,1.6,0.2,2.2,0.7c0.6,0.5,0.9,1.1,1.1,1.9l-1.4,0.2
		c-0.1-0.6-0.4-1-0.7-1.3s-0.7-0.4-1.2-0.4c-0.7,0-1.3,0.3-1.7,0.8s-0.7,1.3-0.7,2.4s0.2,1.9,0.6,2.4c0.4,0.5,1,0.8,1.7,0.8
		c0.6,0,1-0.2,1.4-0.5C213.2,69.8,213.5,69.3,213.6,68.6z"/>
	<path class="st0" d="M216.3,63.4h6.5v8.3h-1.4v-7.1h-3.7v4.1c0,1,0,1.6-0.1,1.9s-0.2,0.6-0.5,0.8c-0.3,0.2-0.7,0.3-1.2,0.3
		c-0.3,0-0.7,0-1.1-0.1v-1.2h0.6c0.3,0,0.5,0,0.6-0.1s0.2-0.2,0.2-0.3c0-0.1,0.1-0.6,0.1-1.3L216.3,63.4L216.3,63.4z"/>
	<path class="st0" d="M224,67.5c0-1.5,0.4-2.7,1.3-3.4c0.7-0.6,1.6-0.9,2.6-0.9c1.1,0,2.1,0.4,2.8,1.1s1.1,1.8,1.1,3.1
		c0,1.1-0.2,1.9-0.5,2.5s-0.8,1.1-1.4,1.4s-1.3,0.5-2,0.5c-1.2,0-2.1-0.4-2.8-1.1C224.4,70,224,68.9,224,67.5z M225.5,67.5
		c0,1.1,0.2,1.9,0.7,2.4s1,0.8,1.8,0.8c0.7,0,1.3-0.3,1.7-0.8s0.7-1.3,0.7-2.4c0-1-0.2-1.8-0.7-2.3s-1-0.8-1.7-0.8s-1.3,0.3-1.8,0.8
		C225.7,65.6,225.5,66.4,225.5,67.5z"/>
	<path class="st0" d="M73.9,63.4h1.4V67c0.4,0,0.8-0.1,0.9-0.3s0.4-0.7,0.8-1.5c0.3-0.7,0.5-1.1,0.7-1.3s0.4-0.3,0.6-0.4
		c0.2-0.1,0.6-0.1,1.1-0.1h0.3v1.2h-0.4c-0.4,0-0.6,0.1-0.7,0.2c-0.1,0.1-0.3,0.5-0.5,1s-0.4,0.9-0.6,1.1c-0.2,0.2-0.5,0.4-0.8,0.6
		c0.6,0.2,1.2,0.7,1.8,1.7l1.5,2.6h-1.5L77,69.2c-0.3-0.5-0.6-0.9-0.8-1S75.7,68,75.4,68v3.8H74v-8.4H73.9z"/>
	<path class="st0" d="M80,67.5c0-1.5,0.4-2.7,1.3-3.4c0.7-0.6,1.6-0.9,2.6-0.9c1.1,0,2.1,0.4,2.8,1.1s1.1,1.8,1.1,3.1
		c0,1.1-0.2,1.9-0.5,2.5S86.6,71,86,71.3s-1.3,0.5-2,0.5c-1.2,0-2.1-0.4-2.8-1.1C80.4,70,80,68.9,80,67.5z M81.5,67.5
		c0,1.1,0.2,1.9,0.7,2.4s1,0.8,1.8,0.8c0.7,0,1.3-0.3,1.7-0.8s0.7-1.3,0.7-2.4c0-1-0.2-1.8-0.7-2.3s-1-0.8-1.7-0.8s-1.3,0.3-1.8,0.8
		C81.7,65.6,81.5,66.4,81.5,67.5z"/>
	<path class="st0" d="M231.8,63.4h6.7v1.2h-2.7v7.1h-1.4v-7.1h-2.7L231.8,63.4L231.8,63.4z"/>
	<path class="st0" d="M244.5,70.6c-0.5,0.4-1,0.8-1.5,0.9s-1,0.3-1.6,0.3c-0.9,0-1.6-0.2-2.1-0.7s-0.7-1-0.7-1.7
		c0-0.4,0.1-0.8,0.3-1.1s0.4-0.6,0.7-0.8s0.6-0.4,1-0.5c0.3-0.1,0.7-0.1,1.2-0.2c1.1-0.1,2-0.3,2.5-0.5c0-0.2,0-0.3,0-0.4
		c0-0.6-0.1-1-0.4-1.2c-0.4-0.3-0.9-0.5-1.6-0.5c-0.7,0-1.1,0.1-1.5,0.3c-0.3,0.2-0.5,0.6-0.7,1.2l-1.4-0.2c0.1-0.6,0.3-1.1,0.6-1.4
		c0.3-0.4,0.7-0.6,1.2-0.8s1.2-0.3,1.9-0.3s1.3,0.1,1.7,0.2c0.4,0.2,0.8,0.4,1,0.6c0.2,0.3,0.4,0.6,0.4,1c0,0.2,0.1,0.7,0.1,1.3V68
		c0,1.3,0,2.1,0.1,2.5c0.1,0.3,0.2,0.7,0.4,1h-1.5C244.7,71.4,244.6,71,244.5,70.6z M244.4,67.5c-0.5,0.2-1.3,0.4-2.3,0.5
		c-0.6,0.1-1,0.2-1.2,0.3c-0.2,0.1-0.4,0.3-0.6,0.5c-0.1,0.2-0.2,0.4-0.2,0.7c0,0.4,0.1,0.7,0.4,0.9s0.7,0.4,1.2,0.4s1-0.1,1.4-0.4
		c0.4-0.2,0.7-0.6,0.9-1c0.2-0.3,0.2-0.8,0.2-1.4v-0.5H244.4z"/>
	<path class="st0" d="M3.4,95c-0.8-1-1.4-2.1-2-3.4s-0.8-2.7-0.8-4.1c0-1.2,0.2-2.4,0.6-3.6c0.5-1.3,1.2-2.6,2.2-3.9h1
		c-0.6,1.1-1,1.9-1.2,2.3c-0.3,0.7-0.6,1.5-0.8,2.2c-0.2,1-0.3,2-0.3,2.9c0,2.5,0.8,5,2.3,7.5L3.4,95L3.4,95z"/>
	<path class="st0" d="M6.7,80.2h7v10.1h1v4h-1.4v-2.7H5.8v2.7H4.5v-4h0.9c0.9-1.4,1.4-4.2,1.4-8.4v-1.7H6.7z M12.2,81.5h-4v0.6
		c0,1-0.1,2.3-0.3,4s-0.5,3.1-1,4.2h5.3V81.5z"/>
	<path class="st0" d="M16,80.2h7.4v1.4h-5.9v10.1H16V80.2z"/>
	<path class="st0" d="M24.1,80.2h1.5v5c0.7,0,1.2-0.1,1.5-0.4s0.6-0.9,1.1-1.9c0.3-0.8,0.6-1.3,0.8-1.6c0.2-0.3,0.5-0.6,0.9-0.8
		c0.4-0.2,0.8-0.3,1.3-0.3c0.6,0,0.9,0,0.9,0v1.3c-0.1,0-0.2,0-0.3,0c-0.2,0-0.3,0-0.3,0c-0.5,0-0.8,0.1-1.1,0.4
		c-0.2,0.2-0.5,0.7-0.8,1.5c-0.4,1-0.7,1.6-1,1.8c-0.3,0.3-0.6,0.5-1,0.6c0.7,0.2,1.5,0.9,2.2,2l2.4,3.8h-1.9l-1.9-3.1
		c-0.5-0.9-1-1.4-1.3-1.8c-0.4-0.3-0.8-0.5-1.4-0.5v5.4h-1.5V80.2H24.1z"/>
	<path class="st0" d="M33.6,95h-1c1.6-2.5,2.3-5,2.3-7.5c0-1-0.1-2-0.3-2.9c-0.2-0.8-0.4-1.5-0.7-2.2c-0.2-0.5-0.6-1.2-1.3-2.3h1
		c1,1.3,1.7,2.6,2.2,3.9c0.4,1.1,0.6,2.3,0.6,3.6c0,1.4-0.3,2.8-0.8,4.1S34.4,94,33.6,95z"/>
	<path class="st0" d="M37.8,91.6V90h1.6v1.6c0,0.6-0.1,1.1-0.3,1.4c-0.2,0.4-0.5,0.6-1,0.8l-0.4-0.6c0.3-0.1,0.5-0.3,0.7-0.6
		c0.1-0.3,0.2-0.6,0.2-1.1L37.8,91.6L37.8,91.6z"/>
	<path class="st0" d="M45.2,83.4h2.2l2.2,6.6l2.4-6.6h2v8.3h-1.4V85l-2.5,6.7h-1.3l-2.3-7v7h-1.4L45.2,83.4L45.2,83.4z"/>
	<path class="st0" d="M61.1,90.6c-0.5,0.4-1,0.8-1.5,0.9c-0.5,0.2-1,0.3-1.6,0.3c-0.9,0-1.6-0.2-2.1-0.7c-0.5-0.4-0.7-1-0.7-1.7
		c0-0.4,0.1-0.8,0.3-1.1c0.2-0.3,0.4-0.6,0.7-0.8c0.3-0.2,0.6-0.4,1-0.5c0.3-0.1,0.7-0.1,1.2-0.2c1.1-0.1,2-0.3,2.5-0.5
		c0-0.2,0-0.3,0-0.4c0-0.6-0.1-1-0.4-1.2c-0.4-0.3-0.9-0.5-1.6-0.5c-0.7,0-1.2,0.1-1.5,0.3c-0.3,0.2-0.5,0.6-0.7,1.2l-1.4-0.2
		c0.1-0.6,0.3-1.1,0.6-1.4c0.3-0.4,0.7-0.6,1.2-0.8c0.5-0.2,1.2-0.3,1.9-0.3s1.3,0.1,1.7,0.2c0.4,0.2,0.8,0.4,1,0.6
		c0.2,0.3,0.4,0.6,0.4,1c0,0.2,0.1,0.7,0.1,1.3V88c0,1.3,0,2.1,0.1,2.5c0.1,0.3,0.2,0.7,0.4,1h-1.5C61.2,91.4,61.1,91,61.1,90.6z
		 M60.9,87.5c-0.5,0.2-1.3,0.4-2.3,0.5c-0.6,0.1-1,0.2-1.2,0.3c-0.2,0.1-0.4,0.3-0.6,0.5c-0.1,0.2-0.2,0.4-0.2,0.7
		c0,0.4,0.1,0.7,0.4,0.9c0.3,0.2,0.7,0.4,1.2,0.4s1-0.1,1.4-0.4c0.4-0.2,0.7-0.6,0.9-1c0.2-0.3,0.2-0.8,0.2-1.4v-0.5H60.9z"/>
	<path class="st0" d="M64,94.8V83.4h1.3v1.1c0.3-0.4,0.6-0.7,1-0.9s0.8-0.3,1.4-0.3c0.7,0,1.3,0.2,1.9,0.5c0.5,0.4,1,0.9,1.2,1.5
		s0.4,1.4,0.4,2.2c0,0.8-0.2,1.6-0.5,2.3S70,91,69.4,91.4s-1.2,0.5-1.8,0.5c-0.5,0-0.9-0.1-1.3-0.3s-0.7-0.4-0.9-0.8v4L64,94.8
		L64,94.8z M65.3,87.5c0,1.1,0.2,1.9,0.6,2.4s1,0.8,1.6,0.8s1.2-0.3,1.6-0.8s0.7-1.3,0.7-2.5c0-1.1-0.2-1.8-0.7-2.4
		c-0.4-0.5-1-0.8-1.6-0.8s-1.1,0.3-1.6,0.8C65.5,85.7,65.3,86.5,65.3,87.5z"/>
	<path class="st0" d="M72.3,83.4h4.8v1.2h-3.4v7.1h-1.4V83.4z"/>
	<path class="st0" d="M82.7,90.6c-0.5,0.4-1,0.8-1.5,0.9s-1,0.3-1.6,0.3c-0.9,0-1.6-0.2-2.1-0.7s-0.7-1-0.7-1.7
		c0-0.4,0.1-0.8,0.3-1.1s0.4-0.6,0.7-0.8s0.6-0.4,1-0.5c0.3-0.1,0.7-0.1,1.2-0.2c1.1-0.1,2-0.3,2.5-0.5c0-0.2,0-0.3,0-0.4
		c0-0.6-0.1-1-0.4-1.2c-0.4-0.3-0.9-0.5-1.6-0.5s-1.1,0.1-1.5,0.3c-0.3,0.2-0.5,0.6-0.7,1.2l-1.3,0c0.1-0.6,0.3-1.1,0.6-1.4
		c0.3-0.4,0.7-0.6,1.2-0.8s1.2-0.3,1.9-0.3c0.7,0,1.3,0.1,1.7,0.2c0.4,0.2,0.8,0.4,1,0.6c0.2,0.3,0.4,0.6,0.4,1
		c0,0.2,0.1,0.7,0.1,1.3v1.9c0,1.3,0,2.1,0.1,2.5c0.1,0.3,0.2,0.7,0.4,1h-1.5C82.8,91.4,82.7,91,82.7,90.6z M82.5,87.5
		c-0.5,0.2-1.3,0.4-2.3,0.5c-0.6,0.1-1,0.2-1.2,0.3c-0.2,0.1-0.4,0.3-0.6,0.5c-0.1,0.2-0.2,0.4-0.2,0.7c0,0.4,0.1,0.7,0.4,0.9
		s0.7,0.4,1.2,0.4s1-0.1,1.4-0.4c0.4-0.2,0.7-0.6,0.9-1c0.2-0.3,0.2-0.8,0.2-1.4v-0.5H82.5z"/>
	<path class="st0" d="M85.6,83.4H87v3.5h3.9v-3.5h1.4v8.3h-1.4V88H87v3.7h-1.4V83.4z"/>
	<path class="st0" d="M99.5,89l1.5,0.2c-0.2,0.8-0.7,1.5-1.3,2c-0.6,0.5-1.4,0.7-2.4,0.7c-1.2,0-2.2-0.4-2.9-1.1
		c-0.7-0.7-1.1-1.8-1.1-3.1c0-1.4,0.4-2.5,1.1-3.2c0.7-0.8,1.7-1.2,2.8-1.2c1.1,0,2,0.4,2.7,1.1c0.7,0.8,1.1,1.8,1.1,3.2
		c0,0.1,0,0.2,0,0.4h-6.2c0.1,0.9,0.3,1.6,0.8,2.1s1,0.7,1.7,0.7c0.5,0,1-0.1,1.3-0.4C99,90,99.3,89.6,99.5,89z M94.9,86.7h4.6
		c-0.1-0.7-0.2-1.2-0.5-1.6c-0.4-0.5-1-0.8-1.7-0.8c-0.6,0-1.2,0.2-1.6,0.6C95.2,85.4,95,86,94.9,86.7z"/>
	<path class="st0" d="M102.2,83.4h1.4v7.1h3.9v-7.1h1.4v7.1h0.9V94h-1.2v-2.4h-6.5L102.2,83.4L102.2,83.4z"/>
	<path class="st0" d="M111.2,91.6V90h1.6v1.6c0,0.6-0.1,1.1-0.3,1.4c-0.2,0.4-0.5,0.6-1,0.8l-0.4-0.6c0.3-0.1,0.5-0.3,0.7-0.6
		c0.1-0.3,0.2-0.6,0.2-1.1L111.2,91.6L111.2,91.6z"/>
	<path class="st0" d="M118.6,83.4h2.2L123,90l2.4-6.6h2v8.3H126V85l-2.5,6.7h-1.3l-2.3-7v7h-1.4v-8.3H118.6z"/>
	<path class="st0" d="M134.7,89l1.5,0.2c-0.2,0.8-0.7,1.5-1.3,2s-1.4,0.7-2.4,0.7c-1.2,0-2.2-0.4-2.9-1.1s-1.1-1.8-1.1-3.1
		c0-1.4,0.4-2.5,1.1-3.2c0.7-0.8,1.7-1.2,2.8-1.2s2,0.4,2.7,1.1c0.7,0.8,1.1,1.8,1.1,3.2c0,0.1,0,0.2,0,0.4H130
		c0.1,0.9,0.3,1.6,0.8,2.1s1,0.7,1.7,0.7c0.5,0,1-0.1,1.3-0.4C134.2,90,134.5,89.6,134.7,89z M130.1,86.7h4.6
		c-0.1-0.7-0.2-1.2-0.5-1.6c-0.4-0.5-1-0.8-1.7-0.8c-0.6,0-1.2,0.2-1.6,0.6C130.4,85.4,130.1,86,130.1,86.7z"/>
	<path class="st0" d="M138.1,83.4h5.8v7.1h0.9V94h-1.2v-2.4h-6.5V94h-1.2v-3.5h0.7C137.7,89.1,138.2,86.8,138.1,83.4z M139.3,84.5
		c-0.1,2.7-0.5,4.7-1.2,6h4.5v-6H139.3z"/>
	<path class="st0" d="M145.8,83.4h1.4v3.2h1.8c1.2,0,2.1,0.2,2.7,0.7c0.6,0.5,0.9,1.1,0.9,1.9c0,0.7-0.3,1.3-0.8,1.8
		s-1.4,0.7-2.5,0.7h-3.5L145.8,83.4L145.8,83.4z M147.2,90.5h1.5c0.9,0,1.5-0.1,1.9-0.3s0.6-0.6,0.6-1s-0.1-0.7-0.4-1
		s-0.9-0.4-1.9-0.4h-1.7L147.2,90.5L147.2,90.5z"/>
	<path class="st0" d="M153.9,91.6V90h1.6v1.6c0,0.6-0.1,1.1-0.3,1.4c-0.2,0.4-0.5,0.6-1,0.8l-0.4-0.6c0.3-0.1,0.5-0.3,0.7-0.6
		c0.1-0.3,0.2-0.6,0.2-1.1L153.9,91.6L153.9,91.6z"/>
	<path class="st0" d="M161.3,83.4h1.4v7.1h3.9v-7.1h1.4v7.1h0.9V94h-1.2v-2.4h-6.5v-8.2H161.3z"/>
	<path class="st0" d="M169.9,83.4h1.4v6.3l3.9-6.3h1.5v8.3h-1.4v-6.3l-3.9,6.3h-1.5V83.4z"/>
	<path class="st0" d="M178.3,83.4h1.4v3.5h3.9v-3.5h1.4v8.3h-1.4V88h-3.9v3.7h-1.4V83.4z"/>
	<path class="st0" d="M186.6,83.4h1.4V87c0.4,0,0.8-0.1,0.9-0.3s0.4-0.7,0.8-1.5c0.3-0.7,0.5-1.1,0.7-1.3c0.2-0.2,0.4-0.3,0.6-0.4
		c0.2-0.1,0.6-0.1,1.1-0.1h0.3v1.2H192c-0.4,0-0.6,0.1-0.7,0.2c-0.1,0.1-0.3,0.5-0.5,1s-0.4,0.9-0.6,1.1c-0.2,0.2-0.5,0.4-0.8,0.6
		c0.6,0.2,1.2,0.7,1.8,1.7l1.5,2.6h-1.5l-1.5-2.6c-0.3-0.5-0.6-0.9-0.8-1s-0.5-0.2-0.8-0.2v3.8h-1.4v-8.4H186.6z"/>
	<path class="st0" d="M193.4,91.6V90h1.6v1.6c0,0.6-0.1,1.1-0.3,1.4c-0.2,0.4-0.5,0.6-1,0.8l-0.4-0.6c0.3-0.1,0.5-0.3,0.7-0.6
		c0.1-0.3,0.2-0.6,0.2-1.1L193.4,91.6L193.4,91.6z"/>
	<path class="st0" d="M206.2,88.6l1.4,0.2c-0.2,1-0.5,1.7-1.2,2.2s-1.4,0.8-2.3,0.8c-1.1,0-2-0.4-2.7-1.1s-1-1.8-1-3.2
		c0-0.9,0.1-1.7,0.4-2.4s0.7-1.2,1.4-1.5s1.3-0.5,2-0.5c0.9,0,1.6,0.2,2.2,0.7c0.6,0.5,0.9,1.1,1.1,1.9l-1.4,0.2
		c-0.1-0.6-0.4-1-0.7-1.3s-0.7-0.4-1.2-0.4c-0.7,0-1.3,0.3-1.7,0.8s-0.7,1.3-0.7,2.4s0.2,1.9,0.6,2.4c0.4,0.5,1,0.8,1.7,0.8
		c0.6,0,1-0.2,1.4-0.5C205.9,89.8,206.1,89.3,206.2,88.6z"/>
	<path class="st0" d="M213.9,89l1.5,0.2c-0.2,0.8-0.7,1.5-1.3,2s-1.4,0.7-2.4,0.7c-1.2,0-2.2-0.4-2.9-1.1s-1.1-1.8-1.1-3.1
		c0-1.4,0.4-2.5,1.1-3.2c0.7-0.8,1.7-1.2,2.8-1.2s2,0.4,2.7,1.1c0.7,0.8,1.1,1.8,1.1,3.2c0,0.1,0,0.2,0,0.4h-6.2
		c0.1,0.9,0.3,1.6,0.8,2.1s1,0.7,1.7,0.7c0.5,0,1-0.1,1.3-0.4C213.4,90,213.7,89.6,213.9,89z M209.3,86.7h4.6
		c-0.1-0.7-0.2-1.2-0.5-1.6c-0.4-0.5-1-0.8-1.7-0.8c-0.6,0-1.2,0.2-1.6,0.6C209.6,85.4,209.3,86,209.3,86.7z"/>
	<path class="st0" d="M216.7,83.4h6.5v8.3h-1.4v-7.1h-3.7v4.1c0,1,0,1.6-0.1,1.9s-0.2,0.6-0.5,0.8c-0.3,0.2-0.7,0.3-1.2,0.3
		c-0.3,0-0.7,0-1.1-0.1v-1.2h0.6c0.3,0,0.5,0,0.6-0.1s0.2-0.2,0.2-0.3c0-0.1,0.1-0.6,0.1-1.3L216.7,83.4L216.7,83.4z"/>
	<path class="st0" d="M230.5,89l1.5,0.2c-0.2,0.8-0.7,1.5-1.3,2s-1.4,0.7-2.4,0.7c-1.2,0-2.2-0.4-2.9-1.1s-1.1-1.8-1.1-3.1
		c0-1.4,0.4-2.5,1.1-3.2c0.7-0.8,1.7-1.2,2.8-1.2s2,0.4,2.7,1.1c0.7,0.8,1.1,1.8,1.1,3.2c0,0.1,0,0.2,0,0.4h-6.2
		c0.1,0.9,0.3,1.6,0.8,2.1s1,0.7,1.7,0.7c0.5,0,1-0.1,1.3-0.4C230,90,230.3,89.6,230.5,89z M225.9,86.7h4.6
		c-0.1-0.7-0.2-1.2-0.5-1.6c-0.4-0.5-1-0.8-1.7-0.8c-0.6,0-1.2,0.2-1.6,0.6C226.2,85.4,225.9,86,225.9,86.7z"/>
	<path class="st0" d="M233.2,83.4h1.4v3.5h3.9v-3.5h1.4v8.3h-1.4V88h-3.9v3.7h-1.4V83.4z"/>
	<path class="st0" d="M241.8,91.6V90h1.6v1.6c0,0.6-0.1,1.1-0.3,1.4c-0.2,0.4-0.5,0.6-1,0.8l-0.4-0.6c0.3-0.1,0.5-0.3,0.7-0.6
		c0.1-0.3,0.2-0.6,0.2-1.1L241.8,91.6L241.8,91.6z"/>
	<path class="st0" d="M0.8,103.4H4c0.8,0,1.4,0.1,1.8,0.2s0.7,0.4,1,0.7c0.3,0.4,0.4,0.8,0.4,1.3c0,0.4-0.1,0.7-0.2,1
		c-0.2,0.3-0.4,0.5-0.7,0.7c0.4,0.1,0.7,0.4,1,0.7c0.3,0.4,0.4,0.8,0.4,1.3c-0.1,0.8-0.3,1.4-0.8,1.8s-1.3,0.6-2.2,0.6H0.8V103.4z
		 M2.2,106.8h1.5c0.6,0,1,0,1.2-0.1s0.4-0.2,0.6-0.4c0.2-0.2,0.3-0.4,0.3-0.7c0-0.4-0.2-0.7-0.5-0.9s-0.8-0.3-1.6-0.3H2.2V106.8z
		 M2.2,110.5H4c0.8,0,1.3-0.1,1.6-0.3c0.3-0.2,0.5-0.5,0.5-1c0-0.3-0.1-0.5-0.3-0.7s-0.4-0.4-0.7-0.4C4.9,108,4.5,108,3.9,108H2.2
		V110.5z"/>
	<path class="st0" d="M8.7,103.4h1.4v6.3l3.9-6.3h1.5v8.3h-1.4v-6.3l-3.9,6.3H8.7V103.4z"/>
	<path class="st0" d="M16.3,103.4H23v1.2h-2.7v7.1H19v-7.1h-2.7V103.4z"/>
	<path class="st0" d="M29.1,110.6c-0.5,0.4-1,0.8-1.5,0.9c-0.5,0.2-1,0.3-1.6,0.3c-0.9,0-1.6-0.2-2.1-0.7c-0.5-0.4-0.7-1-0.7-1.7
		c0-0.4,0.1-0.8,0.3-1.1c0.2-0.3,0.4-0.6,0.7-0.8c0.3-0.2,0.6-0.4,1-0.5c0.3-0.1,0.7-0.1,1.2-0.2c1.1-0.1,2-0.3,2.5-0.5
		c0-0.2,0-0.3,0-0.4c0-0.6-0.1-1-0.4-1.2c-0.4-0.3-0.9-0.5-1.6-0.5s-1.2,0.1-1.5,0.3c-0.3,0.2-0.5,0.6-0.7,1.2l-1.4-0.2
		c0.1-0.6,0.3-1.1,0.6-1.4c0.3-0.4,0.7-0.6,1.2-0.8c0.5-0.2,1.2-0.3,1.9-0.3c0.7,0,1.3,0.1,1.7,0.2c0.4,0.2,0.8,0.4,1,0.6
		c0.2,0.3,0.4,0.6,0.4,1c0,0.2,0.1,0.7,0.1,1.3v1.9c0,1.3,0,2.1,0.1,2.5c0.1,0.3,0.2,0.7,0.4,1h-1.5C29.2,111.4,29.1,111,29.1,110.6
		z M29,107.5c-0.5,0.2-1.3,0.4-2.3,0.5c-0.6,0.1-1,0.2-1.2,0.3c-0.2,0.1-0.4,0.3-0.6,0.5c-0.1,0.2-0.2,0.4-0.2,0.7
		c0,0.4,0.1,0.7,0.4,0.9c0.3,0.2,0.7,0.4,1.2,0.4s1-0.1,1.4-0.4c0.4-0.2,0.7-0.6,0.9-1c0.2-0.3,0.2-0.8,0.2-1.4v-0.5H29z"/>
	<path class="st0" d="M32,103.4h2.2l2.2,6.6l2.4-6.6h2v8.3h-1.4V105l-2.5,6.7h-1.3l-2.3-7v7H32V103.4z"/>
	<path class="st0" d="M42.4,103.4h1.4v6.3l3.9-6.3h1.5v8.3h-1.4v-6.3l-3.9,6.3h-1.5V103.4z"/>
	<path class="st0" d="M50.8,103.4h1.4v3.5h3.9v-3.5h1.4v8.3h-1.4V108h-3.9v3.7h-1.4V103.4z"/>
	<path class="st0" d="M59.1,103.4h1.4v3.2h1.8c1.2,0,2.1,0.2,2.7,0.7s0.9,1.1,0.9,1.9c0,0.7-0.3,1.3-0.8,1.8s-1.4,0.7-2.5,0.7h-3.5
		V103.4z M60.5,110.5H62c0.9,0,1.5-0.1,1.9-0.3s0.6-0.6,0.6-1s-0.1-0.7-0.4-1s-0.9-0.4-1.9-0.4h-1.7
		C60.5,107.8,60.5,110.5,60.5,110.5z M67,103.4h1.4v8.3H67V103.4z"/>
	<path class="st0" d="M82.3,107.6l1.5,0.4c-0.3,1.2-0.9,2.2-1.7,2.8c-0.8,0.7-1.8,1-3,1s-2.2-0.3-3-0.8s-1.4-1.2-1.8-2.2
		s-0.6-2-0.6-3.1c0-1.2,0.2-2.2,0.7-3.1s1.1-1.6,1.9-2s1.8-0.7,2.8-0.7c1.1,0,2.1,0.3,2.9,0.9s1.3,1.4,1.6,2.5l-1.5,0.4
		c-0.3-0.8-0.7-1.4-1.2-1.8s-1.1-0.6-1.9-0.6c-0.9,0-1.6,0.2-2.2,0.6s-1,1-1.2,1.7s-0.4,1.4-0.4,2.2c0,1,0.1,1.8,0.4,2.6
		s0.7,1.3,1.3,1.6s1.2,0.5,1.9,0.5c0.8,0,1.6-0.2,2.2-0.7C81.7,109.3,82.1,108.6,82.3,107.6z"/>
	<path class="st0" d="M85.3,111.6V110h1.6v1.6c0,0.6-0.1,1.1-0.3,1.4c-0.2,0.4-0.5,0.6-1,0.8l-0.4-0.6c0.3-0.1,0.5-0.3,0.7-0.6
		c0.1-0.3,0.2-0.6,0.2-1.1L85.3,111.6L85.3,111.6z"/>
	<path class="st0" d="M92.9,111.6v-11.5h8.3v1.4h-6.8v3.5h6.3v1.3h-6.3v3.9h7v1.4C101.4,111.6,92.9,111.6,92.9,111.6z"/>
	<path class="st0" d="M103.2,111.6V110h1.6v1.6c0,0.6-0.1,1.1-0.3,1.4c-0.2,0.4-0.5,0.6-1,0.8l-0.4-0.6c0.3-0.1,0.5-0.3,0.7-0.6
		c0.1-0.3,0.2-0.6,0.2-1.1L103.2,111.6L103.2,111.6z"/>
	<path class="st0" d="M110.6,103.4h3.2c0.8,0,1.4,0.1,1.8,0.2s0.7,0.4,1,0.7c0.3,0.4,0.4,0.8,0.4,1.3c0,0.4-0.1,0.7-0.2,1
		c-0.2,0.3-0.4,0.5-0.7,0.7c0.4,0.1,0.7,0.4,1,0.7c0.3,0.4,0.4,0.8,0.4,1.3c-0.1,0.8-0.3,1.4-0.8,1.8s-1.3,0.6-2.2,0.6h-3.7v-8.3
		H110.6z M112,106.8h1.5c0.6,0,1,0,1.2-0.1s0.4-0.2,0.6-0.4c0.2-0.2,0.3-0.4,0.3-0.7c0-0.4-0.2-0.7-0.5-0.9
		c-0.3-0.2-0.8-0.3-1.6-0.3H112V106.8z M112,110.5h1.9c0.8,0,1.3-0.1,1.6-0.3c0.3-0.2,0.5-0.5,0.5-1c0-0.3-0.1-0.5-0.3-0.7
		s-0.4-0.4-0.7-0.4c-0.3-0.1-0.7-0.1-1.3-0.1H112V110.5z"/>
	<path class="st0" d="M118.5,103.4h1.4v6.3l3.9-6.3h1.5v8.3h-1.4v-6.3l-3.9,6.3h-1.5V103.4z"/>
	<path class="st0" d="M126.1,103.4h6.7v1.2h-2.7v7.1h-1.4v-7.1H126L126.1,103.4L126.1,103.4z"/>
	<path class="st0" d="M138.9,110.6c-0.5,0.4-1,0.8-1.5,0.9s-1,0.3-1.6,0.3c-0.9,0-1.6-0.2-2.1-0.7c-0.5-0.4-0.7-1-0.7-1.7
		c0-0.4,0.1-0.8,0.3-1.1c0.2-0.3,0.4-0.6,0.7-0.8s0.6-0.4,1-0.5c0.3-0.1,0.7-0.1,1.2-0.2c1.1-0.1,2-0.3,2.5-0.5c0-0.2,0-0.3,0-0.4
		c0-0.6-0.1-1-0.4-1.2c-0.4-0.3-0.9-0.5-1.6-0.5c-0.7,0-1.1,0.1-1.5,0.3c-0.3,0.2-0.5,0.6-0.7,1.2l-1.4-0.2c0.1-0.6,0.3-1.1,0.6-1.4
		c0.3-0.4,0.7-0.6,1.2-0.8s1.2-0.3,1.9-0.3s1.3,0.1,1.7,0.2c0.4,0.2,0.8,0.4,1,0.6c0.2,0.3,0.4,0.6,0.4,1c0,0.2,0.1,0.7,0.1,1.3v1.9
		c0,1.3,0,2.1,0.1,2.5c0.1,0.3,0.2,0.7,0.4,1H139C139,111.4,138.9,111,138.9,110.6z M138.8,107.5c-0.5,0.2-1.3,0.4-2.3,0.5
		c-0.6,0.1-1,0.2-1.2,0.3c-0.2,0.1-0.4,0.3-0.6,0.5c-0.1,0.2-0.2,0.4-0.2,0.7c0,0.4,0.1,0.7,0.4,0.9s0.7,0.4,1.2,0.4s1-0.1,1.4-0.4
		c0.4-0.2,0.7-0.6,0.9-1c0.2-0.3,0.2-0.8,0.2-1.4v-0.5H138.8z"/>
	<path class="st0" d="M141.9,103.4h2.2l2.2,6.6l2.4-6.6h2v8.3h-1.4V105l-2.5,6.7h-1.3l-2.3-7v7h-1.4v-8.3H141.9z"/>
	<path class="st0" d="M152.3,103.4h1.4v6.3l3.9-6.3h1.5v8.3h-1.4v-6.3l-3.9,6.3h-1.5V103.4z"/>
	<path class="st0" d="M160.6,103.4h1.4v3.5h3.9v-3.5h1.4v8.3h-1.4V108H162v3.7h-1.4V103.4z"/>
	<path class="st0" d="M168.9,103.4h1.4v3.2h1.8c1.2,0,2.1,0.2,2.7,0.7c0.6,0.5,0.9,1.1,0.9,1.9c0,0.7-0.3,1.3-0.8,1.8
		s-1.4,0.7-2.5,0.7h-3.5L168.9,103.4L168.9,103.4z M170.3,110.5h1.5c0.9,0,1.5-0.1,1.9-0.3s0.6-0.6,0.6-1s-0.1-0.7-0.4-1
		s-0.9-0.4-1.9-0.4h-1.7L170.3,110.5L170.3,110.5z M176.8,103.4h1.4v8.3h-1.4V103.4z"/>
	<path class="st0" d="M183.7,103.4h4.8v1.2h-3.4v7.1h-1.4L183.7,103.4L183.7,103.4z"/>
	<path class="st0" d="M189,114.8v-11.5h1.3v1.1c0.3-0.4,0.6-0.7,1-0.9s0.8-0.3,1.4-0.3c0.7,0,1.3,0.2,1.9,0.5c0.5,0.4,1,0.9,1.2,1.5
		s0.4,1.4,0.4,2.2c0,0.8-0.2,1.6-0.5,2.3s-0.7,1.2-1.3,1.6s-1.2,0.5-1.8,0.5c-0.5,0-0.9-0.1-1.3-0.3s-0.7-0.4-0.9-0.8v4H189V114.8z
		 M190.3,107.5c0,1.1,0.2,1.9,0.6,2.4c0.4,0.5,1,0.8,1.6,0.8s1.2-0.3,1.6-0.8c0.4-0.5,0.7-1.3,0.7-2.5c0-1.1-0.2-1.8-0.7-2.4
		c-0.4-0.5-1-0.8-1.6-0.8s-1.1,0.3-1.6,0.8C190.5,105.7,190.3,106.5,190.3,107.5z"/>
	<path class="st0" d="M197.1,114.8l-0.2-1.3c0.3,0.1,0.6,0.1,0.8,0.1c0.3,0,0.6-0.1,0.8-0.2s0.3-0.2,0.5-0.4c0.1-0.1,0.2-0.5,0.4-1
		c0-0.1,0.1-0.2,0.1-0.3l-3.1-8.3h1.5l1.7,4.8c0.2,0.6,0.4,1.2,0.6,1.9c0.2-0.6,0.4-1.3,0.6-1.9l1.8-4.8h1.4l-3.2,8.4
		c-0.3,0.9-0.6,1.5-0.8,1.9c-0.2,0.5-0.5,0.8-0.9,1c-0.3,0.2-0.7,0.3-1.2,0.3C197.7,115,197.4,115,197.1,114.8z"/>
	<path class="st0" d="M204.6,103.4h6.5v8.3h-1.4v-7.1H206v7.1h-1.4V103.4z"/>
	<path class="st0" d="M212.7,103.4h6.5v8.3h-1.4v-7.1h-3.7v7.1h-1.4L212.7,103.4L212.7,103.4z"/>
	<path class="st0" d="M220.8,103.4h1.4v3.2h1.8c1.2,0,2.1,0.2,2.7,0.7c0.6,0.5,0.9,1.1,0.9,1.9c0,0.7-0.3,1.3-0.8,1.8
		s-1.4,0.7-2.5,0.7h-3.5L220.8,103.4L220.8,103.4z M222.3,110.5h1.5c0.9,0,1.5-0.1,1.9-0.3s0.6-0.6,0.6-1s-0.1-0.7-0.4-1
		s-0.9-0.4-1.9-0.4h-1.7L222.3,110.5L222.3,110.5z M228.7,103.4h1.4v8.3h-1.4V103.4z"/>
	<path class="st0" d="M235.8,111.6v-11.5h4.3c0.9,0,1.6,0.1,2.1,0.3c0.5,0.2,0.9,0.6,1.2,1.1s0.4,1,0.4,1.5s-0.1,1-0.4,1.4
		c-0.3,0.4-0.7,0.8-1.2,1c0.7,0.2,1.2,0.5,1.6,1c0.4,0.5,0.6,1.1,0.6,1.7c0,0.5-0.1,1-0.3,1.5s-0.5,0.8-0.8,1.1s-0.8,0.4-1.3,0.6
		c-0.5,0.1-1.1,0.2-1.8,0.2h-4.4V111.6z M237.3,105h2.5c0.7,0,1.2,0,1.4-0.1c0.4-0.1,0.7-0.3,0.9-0.6s0.3-0.6,0.3-1s-0.1-0.7-0.3-1
		s-0.4-0.5-0.8-0.6c-0.3-0.1-0.9-0.2-1.7-0.2h-2.3L237.3,105L237.3,105z M237.3,110.3h2.9c0.5,0,0.8,0,1-0.1
		c0.3-0.1,0.6-0.2,0.9-0.3c0.2-0.1,0.4-0.4,0.6-0.6c0.2-0.3,0.2-0.6,0.2-1s-0.1-0.8-0.3-1.1c-0.2-0.3-0.5-0.5-0.9-0.7
		c-0.4-0.1-0.9-0.2-1.7-0.2h-2.6L237.3,110.3L237.3,110.3z"/>
	<path class="st0" d="M246.1,105v-1.6h1.6v1.6H246.1z M246.1,111.6V110h1.6v1.6H246.1z"/>
	<path class="st0" d="M0.9,131.6v-11.5h4.3c0.9,0,1.6,0.1,2.1,0.3c0.5,0.2,0.9,0.6,1.2,1.1s0.4,1,0.4,1.5s-0.1,1-0.4,1.4
		c-0.3,0.4-0.7,0.8-1.2,1c0.7,0.2,1.2,0.5,1.6,1c0.4,0.5,0.6,1.1,0.6,1.7c0,0.5-0.1,1-0.3,1.5s-0.5,0.8-0.8,1.1s-0.8,0.4-1.3,0.6
		c-0.5,0.1-1.1,0.2-1.8,0.2L0.9,131.6L0.9,131.6z M2.4,125h2.5c0.7,0,1.2,0,1.4-0.1c0.4-0.1,0.7-0.3,0.9-0.6s0.3-0.6,0.3-1
		s-0.1-0.7-0.3-1s-0.4-0.5-0.8-0.6c-0.3-0.1-0.9-0.2-1.7-0.2H2.4V125z M2.4,130.3h2.9c0.5,0,0.8,0,1-0.1c0.3-0.1,0.6-0.2,0.9-0.3
		c0.2-0.1,0.4-0.4,0.6-0.6c0.2-0.3,0.2-0.6,0.2-1c0-0.4-0.1-0.8-0.3-1.1c-0.2-0.3-0.5-0.5-0.9-0.7c-0.4-0.1-0.9-0.2-1.7-0.2H2.4
		V130.3z"/>
	<path class="st0" d="M15.8,131.6h-1.4v-9c-0.3,0.3-0.8,0.6-1.3,1c-0.5,0.3-1,0.6-1.5,0.7V123c0.8-0.4,1.5-0.8,2.1-1.3s1-1,1.2-1.5
		h0.9V131.6z"/>
	<path class="st0" d="M19.6,131.6V130h1.6v1.6c0,0.6-0.1,1.1-0.3,1.4c-0.2,0.4-0.5,0.6-1,0.8l-0.4-0.6c0.3-0.1,0.5-0.3,0.7-0.6
		c0.1-0.3,0.2-0.6,0.2-1.1h-0.8V131.6z"/>
	<path class="st0" d="M27.1,131.6v-11.5h4.3c0.9,0,1.6,0.1,2.1,0.3c0.5,0.2,0.9,0.6,1.2,1.1s0.4,1,0.4,1.5s-0.1,1-0.4,1.4
		c-0.3,0.4-0.7,0.8-1.2,1c0.7,0.2,1.2,0.5,1.6,1c0.4,0.5,0.6,1.1,0.6,1.7c0,0.5-0.1,1-0.3,1.5s-0.5,0.8-0.8,1.1s-0.8,0.4-1.3,0.6
		c-0.5,0.1-1.1,0.2-1.8,0.2L27.1,131.6L27.1,131.6z M28.6,125h2.5c0.7,0,1.2,0,1.4-0.1c0.4-0.1,0.7-0.3,0.9-0.6s0.3-0.6,0.3-1
		s-0.1-0.7-0.3-1s-0.4-0.5-0.8-0.6c-0.3-0.1-0.9-0.2-1.7-0.2h-2.3C28.6,121.5,28.6,125,28.6,125z M28.6,130.3h2.9c0.5,0,0.8,0,1-0.1
		c0.3-0.1,0.6-0.2,0.9-0.3c0.2-0.1,0.4-0.4,0.6-0.6c0.2-0.3,0.2-0.6,0.2-1c0-0.4-0.1-0.8-0.3-1.1c-0.2-0.3-0.5-0.5-0.9-0.7
		c-0.4-0.1-0.9-0.2-1.7-0.2h-2.6L28.6,130.3L28.6,130.3z"/>
	<path class="st0" d="M44.1,130.3v1.4h-7.6c0-0.3,0-0.7,0.2-1c0.2-0.5,0.5-1,0.9-1.5s1-1.1,1.8-1.7c1.2-1,2.1-1.8,2.5-2.4
		s0.7-1.2,0.7-1.7c0-0.6-0.2-1-0.6-1.4s-0.9-0.6-1.6-0.6c-0.7,0-1.2,0.2-1.6,0.6s-0.6,1-0.6,1.7l-1.4-0.1c0.1-1.1,0.5-1.9,1.1-2.5
		s1.5-0.8,2.6-0.8s2,0.3,2.6,0.9s1,1.4,1,2.3c0,0.5-0.1,0.9-0.3,1.4c-0.2,0.4-0.5,0.9-0.9,1.4s-1.2,1.2-2.2,2
		c-0.8,0.7-1.4,1.2-1.6,1.4c-0.2,0.3-0.4,0.5-0.6,0.8h5.6V130.3z"/>
	<path class="st0" d="M45.8,131.6V130h1.6v1.6c0,0.6-0.1,1.1-0.3,1.4c-0.2,0.4-0.5,0.6-1,0.8l-0.4-0.6c0.3-0.1,0.5-0.3,0.7-0.6
		c0.1-0.3,0.2-0.6,0.2-1.1h-0.8V131.6z"/>
	<path class="st0" d="M53.3,131.6v-11.5h4.3c0.9,0,1.6,0.1,2.1,0.3c0.5,0.2,0.9,0.6,1.2,1.1s0.4,1,0.4,1.5s-0.1,1-0.4,1.4
		c-0.3,0.4-0.7,0.8-1.2,1c0.7,0.2,1.2,0.5,1.6,1c0.4,0.5,0.6,1.1,0.6,1.7c0,0.5-0.1,1-0.3,1.5s-0.5,0.8-0.8,1.1
		c-0.3,0.2-0.8,0.4-1.3,0.6c-0.5,0.1-1.1,0.2-1.8,0.2L53.3,131.6L53.3,131.6z M54.8,125h2.5c0.7,0,1.2,0,1.4-0.1
		c0.4-0.1,0.7-0.3,0.9-0.6s0.3-0.6,0.3-1s-0.1-0.7-0.3-1s-0.4-0.5-0.8-0.6c-0.3-0.1-0.9-0.2-1.7-0.2h-2.3
		C54.8,121.5,54.8,125,54.8,125z M54.8,130.3h2.9c0.5,0,0.8,0,1-0.1c0.3-0.1,0.6-0.2,0.9-0.3c0.2-0.1,0.4-0.4,0.6-0.6
		c0.2-0.3,0.2-0.6,0.2-1c0-0.4-0.1-0.8-0.3-1.1c-0.2-0.3-0.5-0.5-0.9-0.7c-0.4-0.1-0.9-0.2-1.7-0.2h-2.6v4H54.8z"/>
	<path class="st0" d="M62.9,128.6l1.4-0.2c0.2,0.8,0.4,1.4,0.8,1.7s0.9,0.5,1.4,0.5c0.7,0,1.2-0.2,1.7-0.7s0.7-1,0.7-1.7
		c0-0.6-0.2-1.2-0.6-1.6s-1-0.6-1.6-0.6c-0.3,0-0.6,0.1-1,0.2l0.2-1.2c0.1,0,0.2,0,0.2,0c0.6,0,1.1-0.2,1.6-0.5s0.7-0.8,0.7-1.4
		c0-0.5-0.2-0.9-0.5-1.3c-0.3-0.3-0.8-0.5-1.4-0.5c-0.5,0-1,0.2-1.4,0.5s-0.6,0.9-0.7,1.5l-1.4-0.2c0.2-0.9,0.6-1.7,1.2-2.2
		s1.4-0.8,2.3-0.8c0.6,0,1.2,0.1,1.7,0.4s0.9,0.6,1.2,1.1c0.3,0.5,0.4,1,0.4,1.5s-0.1,0.9-0.4,1.4s-0.7,0.7-1.2,1
		c0.7,0.2,1.2,0.5,1.6,1s0.6,1.1,0.6,1.8c0,1-0.4,1.8-1.1,2.5s-1.7,1-2.8,1c-1,0-1.8-0.3-2.5-0.9C63.4,130.4,63,129.6,62.9,128.6z"
		/>
	<path class="st0" d="M78.2,135c-0.8-1-1.4-2.1-2-3.4s-0.8-2.7-0.8-4.1c0-1.2,0.2-2.4,0.6-3.6c0.5-1.3,1.2-2.6,2.2-3.9h1
		c-0.6,1.1-1,1.9-1.2,2.3c-0.3,0.7-0.6,1.5-0.8,2.2c-0.2,1-0.3,2-0.3,2.9c0,2.5,0.8,5,2.3,7.5L78.2,135L78.2,135z"/>
	<path class="st0" d="M80.3,123.4h1.4v3.5h3.9v-3.5H87v8.3h-1.4V128h-3.9v3.7h-1.4C80.3,131.7,80.3,123.4,80.3,123.4z"/>
	<path class="st0" d="M88.6,123.4H90v6.3l3.9-6.3h1.5v8.3H94v-6.3l-3.9,6.3h-1.5V123.4z"/>
	<path class="st0" d="M102.4,130.6c-0.5,0.4-1,0.8-1.5,0.9s-1,0.3-1.6,0.3c-0.9,0-1.6-0.2-2.1-0.7s-0.7-1-0.7-1.7
		c0-0.4,0.1-0.8,0.3-1.1s0.4-0.6,0.7-0.8s0.6-0.4,1-0.5c0.3-0.1,0.7-0.1,1.2-0.2c1.1-0.1,2-0.3,2.5-0.5c0-0.2,0-0.3,0-0.4
		c0-0.6-0.1-1-0.4-1.2c-0.4-0.3-0.9-0.5-1.6-0.5s-1.1,0.1-1.5,0.3c-0.3,0.2-0.5,0.6-0.7,1.2l-1.4-0.2c0.1-0.6,0.3-1.1,0.6-1.4
		c0.3-0.4,0.7-0.6,1.2-0.8s1.2-0.3,1.9-0.3c0.7,0,1.3,0.1,1.7,0.2c0.4,0.2,0.8,0.4,1,0.6c0.2,0.3,0.4,0.6,0.4,1
		c0,0.2,0.1,0.7,0.1,1.3v1.9c0,1.3,0,2.1,0.1,2.5c0.1,0.3,0.2,0.7,0.4,1h-1.5C102.5,131.4,102.4,131,102.4,130.6z M102.3,127.5
		c-0.5,0.2-1.3,0.4-2.3,0.5c-0.6,0.1-1,0.2-1.2,0.3s-0.4,0.3-0.6,0.5c-0.1,0.2-0.2,0.4-0.2,0.7c0,0.4,0.1,0.7,0.4,0.9
		s0.7,0.4,1.2,0.4s1-0.1,1.4-0.4c0.4-0.2,0.7-0.6,0.9-1c0.2-0.3,0.2-0.8,0.2-1.4v-0.5H102.3z"/>
	<path class="st0" d="M105.3,123.4h1.4v7.1h3.9v-7.1h1.4v7.1h0.9v3.5h-1.2v-2.4h-6.5L105.3,123.4L105.3,123.4z"/>
	<path class="st0" d="M113.9,123.4h1.4v6.3l3.9-6.3h1.5v8.3h-1.4v-6.3l-3.9,6.3h-1.5V123.4z"/>
	<path class="st0" d="M122.3,123.4h1.4v3.5h3.9v-3.5h1.4v8.3h-1.4V128h-3.9v3.7h-1.4C122.3,131.7,122.3,123.4,122.3,123.4z"/>
	<path class="st0" d="M131.5,135h-1c1.6-2.5,2.3-5,2.3-7.5c0-1-0.1-2-0.3-2.9c-0.2-0.8-0.4-1.5-0.7-2.2c-0.2-0.5-0.6-1.2-1.3-2.3h1
		c1,1.3,1.7,2.6,2.2,3.9c0.4,1.1,0.6,2.3,0.6,3.6c0,1.4-0.3,2.8-0.8,4.1S132.2,134,131.5,135z"/>
	<path class="st0" d="M135.7,131.6V130h1.6v1.6c0,0.6-0.1,1.1-0.3,1.4c-0.2,0.4-0.5,0.6-1,0.8l-0.4-0.6c0.3-0.1,0.5-0.3,0.7-0.6
		c0.1-0.3,0.2-0.6,0.2-1.1h-0.8V131.6z"/>
	<path class="st0" d="M143.2,131.6v-11.5h4.3c0.9,0,1.6,0.1,2.1,0.3c0.5,0.2,0.9,0.6,1.2,1.1s0.4,1,0.4,1.5s-0.1,1-0.4,1.4
		c-0.3,0.4-0.7,0.8-1.2,1c0.7,0.2,1.2,0.5,1.6,1c0.4,0.5,0.6,1.1,0.6,1.7c0,0.5-0.1,1-0.3,1.5s-0.5,0.8-0.8,1.1s-0.8,0.4-1.3,0.6
		c-0.5,0.1-1.1,0.2-1.8,0.2L143.2,131.6L143.2,131.6z M144.7,125h2.5c0.7,0,1.2,0,1.4-0.1c0.4-0.1,0.7-0.3,0.9-0.6s0.3-0.6,0.3-1
		s-0.1-0.7-0.3-1s-0.4-0.5-0.8-0.6c-0.3-0.1-0.9-0.2-1.7-0.2h-2.3L144.7,125L144.7,125z M144.7,130.3h2.9c0.5,0,0.8,0,1-0.1
		c0.3-0.1,0.6-0.2,0.9-0.3c0.2-0.1,0.4-0.4,0.6-0.6c0.2-0.3,0.2-0.6,0.2-1c0-0.4-0.1-0.8-0.3-1.1c-0.2-0.3-0.5-0.5-0.9-0.7
		c-0.4-0.1-0.9-0.2-1.7-0.2h-2.6L144.7,130.3L144.7,130.3z"/>
	<path class="st0" d="M160.1,123l-1.4,0.1c-0.1-0.6-0.3-1-0.5-1.2c-0.4-0.4-0.8-0.6-1.4-0.6c-0.4,0-0.8,0.1-1.2,0.4s-0.8,0.8-1,1.4
		c-0.3,0.6-0.4,1.5-0.4,2.6c0.3-0.5,0.8-0.9,1.2-1.1s1-0.4,1.5-0.4c0.9,0,1.7,0.3,2.4,1s1,1.6,1,2.7c0,0.7-0.2,1.4-0.5,2
		s-0.7,1.1-1.3,1.4s-1.2,0.5-1.8,0.5c-1.2,0-2.1-0.4-2.9-1.3c-0.7-0.9-1.1-2.3-1.1-4.3c0-2.2,0.4-3.8,1.2-4.8
		c0.7-0.9,1.7-1.3,2.9-1.3c0.9,0,1.6,0.3,2.2,0.8C159.6,121.4,160,122.1,160.1,123z M154.4,127.9c0,0.5,0.1,0.9,0.3,1.4
		c0.2,0.4,0.5,0.8,0.9,1s0.8,0.3,1.2,0.3c0.6,0,1.1-0.2,1.5-0.7s0.6-1.1,0.6-2c0-0.8-0.2-1.4-0.6-1.9c-0.4-0.5-1-0.7-1.6-0.7
		s-1.2,0.2-1.6,0.7C154.6,126.6,154.4,127.2,154.4,127.9z"/>
	<path class="st0" d="M161.9,131.6V130h1.6v1.6c0,0.6-0.1,1.1-0.3,1.4c-0.2,0.4-0.5,0.6-1,0.8l-0.4-0.6c0.3-0.1,0.5-0.3,0.7-0.6
		c0.1-0.3,0.2-0.6,0.2-1.1h-0.8V131.6z"/>
	<path class="st0" d="M169.4,131.6v-11.5h4.3c0.9,0,1.6,0.1,2.1,0.3c0.5,0.2,0.9,0.6,1.2,1.1s0.4,1,0.4,1.5s-0.1,1-0.4,1.4
		c-0.3,0.4-0.7,0.8-1.2,1c0.7,0.2,1.2,0.5,1.6,1c0.4,0.5,0.6,1.1,0.6,1.7c0,0.5-0.1,1-0.3,1.5s-0.5,0.8-0.8,1.1s-0.8,0.4-1.3,0.6
		c-0.5,0.1-1.1,0.2-1.8,0.2L169.4,131.6L169.4,131.6z M170.9,125h2.5c0.7,0,1.2,0,1.4-0.1c0.4-0.1,0.7-0.3,0.9-0.6s0.3-0.6,0.3-1
		s-0.1-0.7-0.3-1s-0.4-0.5-0.8-0.6c-0.3-0.1-0.9-0.2-1.7-0.2h-2.3L170.9,125L170.9,125z M170.9,130.3h2.9c0.5,0,0.8,0,1-0.1
		c0.3-0.1,0.6-0.2,0.9-0.3c0.2-0.1,0.4-0.4,0.6-0.6c0.2-0.3,0.2-0.6,0.2-1c0-0.4-0.1-0.8-0.3-1.1c-0.2-0.3-0.5-0.5-0.9-0.7
		c-0.4-0.1-0.9-0.2-1.7-0.2H171L170.9,130.3L170.9,130.3z"/>
	<path class="st0" d="M179.2,129l1.4-0.1c0.1,0.6,0.3,1.1,0.7,1.4c0.3,0.3,0.7,0.4,1.2,0.4c0.4,0,0.8-0.1,1.1-0.3s0.6-0.5,0.8-0.8
		s0.4-0.8,0.5-1.3s0.2-1.1,0.2-1.7c0-0.1,0-0.2,0-0.3c-0.3,0.4-0.7,0.8-1.2,1.1c-0.5,0.3-1,0.4-1.6,0.4c-0.9,0-1.8-0.3-2.4-1
		s-1-1.6-1-2.7c0-1.2,0.3-2.1,1-2.8c0.7-0.7,1.5-1.1,2.6-1.1c0.7,0,1.4,0.2,2,0.6s1.1,1,1.4,1.7s0.5,1.8,0.5,3.2
		c0,1.5-0.2,2.6-0.5,3.5s-0.8,1.5-1.4,2s-1.4,0.7-2.2,0.7c-0.9,0-1.6-0.2-2.2-0.7C179.7,130.6,179.4,129.9,179.2,129z M185,123.9
		c0-0.8-0.2-1.4-0.6-1.9c-0.4-0.5-0.9-0.7-1.6-0.7c-0.6,0-1.2,0.3-1.6,0.8c-0.5,0.5-0.7,1.2-0.7,2c0,0.7,0.2,1.3,0.7,1.8
		c0.4,0.5,1,0.7,1.6,0.7c0.7,0,1.2-0.2,1.6-0.7C184.8,125.4,185,124.8,185,123.9z"/>
	<path class="st0" d="M3.4,155c-0.8-1-1.4-2.1-2-3.4s-0.8-2.7-0.8-4.1c0-1.2,0.2-2.4,0.6-3.6c0.5-1.3,1.2-2.6,2.2-3.9h1
		c-0.6,1.1-1,1.9-1.2,2.3c-0.3,0.7-0.6,1.5-0.8,2.2c-0.2,1-0.3,2-0.3,2.9c0,2.5,0.8,5,2.3,7.5h-1V155z"/>
	<path class="st0" d="M10.4,140.2h1.4v4c0.3-0.3,0.6-0.6,1-0.7c0.3-0.2,0.7-0.2,1.1-0.2c1,0,1.8,0.4,2.3,1.2
		c0.6,0.8,0.9,1.9,0.9,3.1c0,1.3-0.3,2.3-0.9,3.1s-1.4,1.2-2.3,1.2c-0.3,0-0.6,0-0.9-0.1s-0.7-0.3-1.1-0.8v3.9h-1.4V151
		c-0.3,0.3-0.6,0.5-0.9,0.7c-0.3,0.2-0.7,0.2-1.1,0.2c-0.9,0-1.6-0.4-2.3-1.1c-0.7-0.8-1-1.9-1-3.3c0-1.2,0.3-2.2,0.9-3
		s1.4-1.2,2.4-1.2c0.4,0,0.8,0.1,1.1,0.2c0.3,0.2,0.6,0.4,0.9,0.7L10.4,140.2L10.4,140.2z M6.5,147.4c0,1.2,0.2,2,0.6,2.5
		s0.9,0.8,1.5,0.8s1.1-0.3,1.4-0.8c0.3-0.5,0.5-1.3,0.5-2.3c0-1.1-0.2-1.9-0.5-2.5c-0.3-0.5-0.8-0.8-1.4-0.8c-0.6,0-1,0.3-1.4,0.8
		C6.7,145.7,6.5,146.4,6.5,147.4z M11.8,147.5c0,1.2,0.2,2.1,0.5,2.5s0.8,0.6,1.3,0.6c0.6,0,1.1-0.3,1.5-0.8s0.6-1.4,0.6-2.5
		s-0.2-1.8-0.6-2.4c-0.4-0.5-0.9-0.8-1.4-0.8c-0.6,0-1.1,0.3-1.4,0.8C11.9,145.7,11.8,146.5,11.8,147.5z"/>
	<path class="st0" d="M17.6,147.5c0-1.5,0.4-2.7,1.3-3.4c0.7-0.6,1.6-0.9,2.6-0.9c1.1,0,2.1,0.4,2.8,1.1c0.7,0.7,1.1,1.8,1.1,3.1
		c0,1.1-0.2,1.9-0.5,2.5s-0.8,1.1-1.4,1.4s-1.3,0.5-2,0.5c-1.2,0-2.1-0.4-2.8-1.1C18,150,17.6,148.9,17.6,147.5z M19.1,147.5
		c0,1.1,0.2,1.9,0.7,2.4s1,0.8,1.8,0.8c0.7,0,1.3-0.3,1.7-0.8s0.7-1.3,0.7-2.4c0-1-0.2-1.8-0.7-2.3s-1-0.8-1.7-0.8s-1.3,0.3-1.8,0.8
		C19.3,145.6,19.1,146.4,19.1,147.5z"/>
	<path class="st0" d="M26.8,143.4h6.5v8.3h-1.4v-7.1h-3.7v4.1c0,1,0,1.6-0.1,1.9c-0.1,0.3-0.2,0.6-0.5,0.8s-0.7,0.3-1.2,0.3
		c-0.3,0-0.7,0-1.1-0.1v-1.2h0.6c0.3,0,0.5,0,0.6-0.1s0.2-0.2,0.2-0.3s0.1-0.6,0.1-1.3V143.4z"/>
	<path class="st0" d="M34.9,143.4h1.4v6.3l3.9-6.3h1.5v8.3h-1.4v-6.3l-3.9,6.3h-1.5V143.4z"/>
	<path class="st0" d="M49,149l1.5,0.2c-0.2,0.8-0.7,1.5-1.3,2s-1.4,0.7-2.4,0.7c-1.2,0-2.2-0.4-2.9-1.1c-0.7-0.7-1.1-1.8-1.1-3.1
		c0-1.4,0.4-2.5,1.1-3.2c0.7-0.8,1.7-1.2,2.8-1.2s2,0.4,2.7,1.1c0.7,0.8,1.1,1.8,1.1,3.2c0,0.1,0,0.2,0,0.4h-6.2
		c0.1,0.9,0.3,1.6,0.8,2.1s1,0.7,1.7,0.7c0.5,0,1-0.1,1.3-0.4C48.4,150,48.7,149.6,49,149z M44.3,146.7H49c-0.1-0.7-0.2-1.2-0.5-1.6
		c-0.4-0.5-1-0.8-1.7-0.8c-0.6,0-1.2,0.2-1.6,0.6C44.6,145.4,44.4,146,44.3,146.7z"/>
	<path class="st0" d="M51.6,143.4h3.2c0.8,0,1.4,0.1,1.8,0.2c0.4,0.1,0.7,0.4,1,0.7c0.3,0.4,0.4,0.8,0.4,1.3c0,0.4-0.1,0.7-0.2,1
		c-0.2,0.3-0.4,0.5-0.7,0.7c0.4,0.1,0.7,0.4,1,0.7c0.3,0.4,0.4,0.8,0.4,1.3c-0.1,0.8-0.3,1.4-0.8,1.8c-0.5,0.4-1.3,0.6-2.2,0.6h-3.7
		v-8.3H51.6z M53,146.8h1.5c0.6,0,1,0,1.2-0.1s0.4-0.2,0.6-0.4c0.2-0.2,0.3-0.4,0.3-0.7c0-0.4-0.2-0.7-0.5-0.9s-0.8-0.3-1.6-0.3H53
		V146.8z M53,150.5h1.9c0.8,0,1.3-0.1,1.6-0.3s0.5-0.5,0.5-1c0-0.3-0.1-0.5-0.3-0.7s-0.4-0.4-0.7-0.4c-0.3-0.1-0.7-0.1-1.3-0.1H53
		V150.5z"/>
	<path class="st0" d="M64.8,150.6c-0.5,0.4-1,0.8-1.5,0.9s-1,0.3-1.6,0.3c-0.9,0-1.6-0.2-2.1-0.7s-0.7-1-0.7-1.7
		c0-0.4,0.1-0.8,0.3-1.1s0.4-0.6,0.7-0.8s0.6-0.4,1-0.5c0.3-0.1,0.7-0.1,1.2-0.2c1.1-0.1,2-0.3,2.5-0.5c0-0.2,0-0.3,0-0.4
		c0-0.6-0.1-1-0.4-1.2c-0.4-0.3-0.9-0.5-1.6-0.5c-0.7,0-1.1,0.1-1.5,0.3c-0.3,0.2-0.5,0.6-0.7,1.2l-1.4-0.2c0.1-0.6,0.3-1.1,0.6-1.4
		c0.3-0.4,0.7-0.6,1.2-0.8s1.2-0.3,1.9-0.3s1.3,0.1,1.7,0.2c0.4,0.2,0.8,0.4,1,0.6c0.2,0.3,0.4,0.6,0.4,1c0,0.2,0.1,0.7,0.1,1.3v1.9
		c0,1.3,0,2.1,0.1,2.5c0.1,0.3,0.2,0.7,0.4,1h-1.5C64.9,151.4,64.8,151,64.8,150.6z M64.7,147.5c-0.5,0.2-1.3,0.4-2.3,0.5
		c-0.6,0.1-1,0.2-1.2,0.3s-0.4,0.3-0.6,0.5c-0.1,0.2-0.2,0.4-0.2,0.7c0,0.4,0.1,0.7,0.4,0.9s0.7,0.4,1.2,0.4s1-0.1,1.4-0.4
		c0.4-0.2,0.7-0.6,0.9-1c0.2-0.3,0.2-0.8,0.2-1.4v-0.5H64.7z"/>
	<path class="st0" d="M74.2,143.4v8.3h-1.4v-3.2H72c-0.5,0-0.9,0.1-1.1,0.2c-0.2,0.1-0.6,0.5-1.1,1.2l-1.2,1.8h-1.7l1.5-2.2
		c0.5-0.7,0.9-1.1,1.4-1.2c-0.8-0.1-1.4-0.4-1.8-0.9s-0.6-1-0.6-1.6c0-0.7,0.3-1.3,0.8-1.8c0.5-0.4,1.2-0.7,2.2-0.7L74.2,143.4
		L74.2,143.4z M72.8,144.5h-2c-0.8,0-1.4,0.1-1.6,0.4c-0.2,0.3-0.4,0.6-0.4,0.9c0,0.5,0.2,0.9,0.5,1.1c0.4,0.2,1,0.3,1.9,0.3h1.6
		V144.5z"/>
	<path class="st0" d="M79.7,143.4h1.4v3.6c0.4,0,0.8-0.1,0.9-0.3s0.4-0.7,0.8-1.5c0.3-0.7,0.5-1.1,0.7-1.3s0.4-0.3,0.6-0.4
		c0.2-0.1,0.6-0.1,1.1-0.1h0.3v1.2h-0.4c-0.4,0-0.6,0.1-0.7,0.2c-0.1,0.1-0.3,0.5-0.5,1s-0.4,0.9-0.6,1.1c-0.2,0.2-0.5,0.4-0.8,0.6
		c0.6,0.2,1.2,0.7,1.8,1.7l1.5,2.6h-1.5l-1.5-2.6c-0.3-0.5-0.6-0.9-0.8-1c-0.2-0.2-0.5-0.2-0.8-0.2v3.8h-1.4L79.7,143.4L79.7,143.4z
		"/>
	<path class="st0" d="M86.1,143.4h1.4v6.3l3.9-6.3H93v8.3h-1.4v-6.3l-3.9,6.3h-1.5L86.1,143.4L86.1,143.4z"/>
	<path class="st0" d="M99.9,148.6l1.4,0.2c-0.2,1-0.5,1.7-1.2,2.2c-0.6,0.5-1.4,0.8-2.3,0.8c-1.1,0-2-0.4-2.7-1.1
		c-0.7-0.7-1-1.8-1-3.2c0-0.9,0.1-1.7,0.4-2.4s0.7-1.2,1.4-1.5c0.6-0.3,1.3-0.5,2-0.5c0.9,0,1.6,0.2,2.2,0.7s0.9,1.1,1.1,1.9
		l-1.4,0.2c-0.1-0.6-0.4-1-0.7-1.3c-0.3-0.3-0.7-0.4-1.2-0.4c-0.7,0-1.3,0.3-1.7,0.8c-0.4,0.5-0.7,1.3-0.7,2.4
		c0,1.1,0.2,1.9,0.6,2.4s1,0.8,1.7,0.8c0.6,0,1-0.2,1.4-0.5C99.6,149.8,99.8,149.3,99.9,148.6z"/>
	<path class="st0" d="M102.6,143.4h6.5v8.3h-1.4v-7.1H104v4.1c0,1,0,1.6-0.1,1.9c-0.1,0.3-0.2,0.6-0.5,0.8s-0.7,0.3-1.2,0.3
		c-0.3,0-0.7,0-1.1-0.1v-1.2h0.6c0.3,0,0.5,0,0.6-0.1s0.2-0.2,0.2-0.3s0.1-0.6,0.1-1.3V143.4z"/>
	<path class="st0" d="M110.4,147.5c0-1.5,0.4-2.7,1.3-3.4c0.7-0.6,1.6-0.9,2.6-0.9c1.1,0,2.1,0.4,2.8,1.1c0.7,0.7,1.1,1.8,1.1,3.1
		c0,1.1-0.2,1.9-0.5,2.5s-0.8,1.1-1.4,1.4s-1.3,0.5-2,0.5c-1.2,0-2.1-0.4-2.8-1.1C110.7,150,110.4,148.9,110.4,147.5z M111.8,147.5
		c0,1.1,0.2,1.9,0.7,2.4s1,0.8,1.8,0.8c0.7,0,1.3-0.3,1.7-0.8s0.7-1.3,0.7-2.4c0-1-0.2-1.8-0.7-2.3s-1-0.8-1.7-0.8s-1.3,0.3-1.8,0.8
		C112.1,145.6,111.8,146.4,111.8,147.5z"/>
	<path class="st0" d="M118.1,143.4h6.7v1.2h-2.7v7.1h-1.4v-7.1H118L118.1,143.4L118.1,143.4z"/>
	<path class="st0" d="M130.9,150.6c-0.5,0.4-1,0.8-1.5,0.9s-1,0.3-1.6,0.3c-0.9,0-1.6-0.2-2.1-0.7s-0.7-1-0.7-1.7
		c0-0.4,0.1-0.8,0.3-1.1s0.4-0.6,0.7-0.8s0.6-0.4,1-0.5c0.3-0.1,0.7-0.1,1.2-0.2c1.1-0.1,2-0.3,2.5-0.5c0-0.2,0-0.3,0-0.4
		c0-0.6-0.1-1-0.4-1.2c-0.4-0.3-0.9-0.5-1.6-0.5c-0.7,0-1.1,0.1-1.5,0.3c-0.3,0.2-0.5,0.6-0.7,1.2l-1.4-0.2c0.1-0.6,0.3-1.1,0.6-1.4
		c0.3-0.4,0.7-0.6,1.2-0.8s1.2-0.3,1.9-0.3s1.3,0.1,1.7,0.2c0.4,0.2,0.8,0.4,1,0.6c0.2,0.3,0.4,0.6,0.4,1c0,0.2,0.1,0.7,0.1,1.3v1.9
		c0,1.3,0,2.1,0.1,2.5c0.1,0.3,0.2,0.7,0.4,1H131C131,151.4,130.9,151,130.9,150.6z M130.8,147.5c-0.5,0.2-1.3,0.4-2.3,0.5
		c-0.6,0.1-1,0.2-1.2,0.3s-0.4,0.3-0.6,0.5c-0.1,0.2-0.2,0.4-0.2,0.7c0,0.4,0.1,0.7,0.4,0.9s0.7,0.4,1.2,0.4s1-0.1,1.4-0.4
		c0.4-0.2,0.7-0.6,0.9-1c0.2-0.3,0.2-0.8,0.2-1.4v-0.5H130.8z"/>
	<path class="st0" d="M134.7,155h-1c1.6-2.5,2.3-5,2.3-7.5c0-1-0.1-2-0.3-2.9c-0.2-0.8-0.4-1.5-0.7-2.2c-0.2-0.5-0.6-1.2-1.3-2.3h1
		c1,1.3,1.7,2.6,2.2,3.9c0.4,1.1,0.6,2.3,0.6,3.6c0,1.4-0.3,2.8-0.8,4.1S135.5,154,134.7,155z"/>
	<path class="st0" d="M139,151.6V150h1.6v1.6c0,0.6-0.1,1.1-0.3,1.4c-0.2,0.4-0.5,0.6-1,0.8l-0.4-0.6c0.3-0.1,0.5-0.3,0.7-0.6
		c0.1-0.3,0.2-0.6,0.2-1.1H139V151.6z"/>
	<path class="st0" d="M146.5,151.6v-11.5h4.3c0.9,0,1.6,0.1,2.1,0.3s0.9,0.6,1.2,1.1s0.4,1,0.4,1.5s-0.1,1-0.4,1.4
		c-0.3,0.4-0.7,0.8-1.2,1c0.7,0.2,1.2,0.5,1.6,1c0.4,0.5,0.6,1.1,0.6,1.7c0,0.5-0.1,1-0.3,1.5s-0.5,0.8-0.8,1.1s-0.8,0.4-1.3,0.6
		c-0.5,0.1-1.1,0.2-1.8,0.2L146.5,151.6L146.5,151.6z M148,145h2.5c0.7,0,1.2,0,1.4-0.1c0.4-0.1,0.7-0.3,0.9-0.6s0.3-0.6,0.3-1
		s-0.1-0.7-0.3-1s-0.4-0.5-0.8-0.6c-0.3-0.1-0.9-0.2-1.7-0.2H148V145z M148,150.3h2.9c0.5,0,0.8,0,1-0.1c0.3-0.1,0.6-0.2,0.9-0.3
		c0.2-0.1,0.4-0.4,0.6-0.6c0.2-0.3,0.2-0.6,0.2-1s-0.1-0.8-0.3-1.1s-0.5-0.5-0.9-0.7c-0.4-0.1-0.9-0.2-1.7-0.2H148V150.3z"/>
	<path class="st0" d="M161.4,151.6H160v-9c-0.3,0.3-0.8,0.6-1.3,1c-0.5,0.3-1,0.6-1.5,0.7V143c0.8-0.4,1.5-0.8,2.1-1.3s1-1,1.2-1.5
		h0.9V151.6z"/>
	<path class="st0" d="M171.8,150.3v1.4h-7.6c0-0.3,0-0.7,0.2-1c0.2-0.5,0.5-1,0.9-1.5s1-1.1,1.8-1.7c1.2-1,2.1-1.8,2.5-2.4
		c0.4-0.6,0.7-1.2,0.7-1.7c0-0.6-0.2-1-0.6-1.4s-0.9-0.6-1.6-0.6c-0.7,0-1.2,0.2-1.6,0.6s-0.6,1-0.6,1.7l-1.4-0.1
		c0.1-1.1,0.5-1.9,1.1-2.5s1.5-0.8,2.6-0.8s2,0.3,2.6,0.9s1,1.4,1,2.3c0,0.5-0.1,0.9-0.3,1.4c-0.2,0.4-0.5,0.9-0.9,1.4
		s-1.2,1.2-2.2,2c-0.8,0.7-1.4,1.2-1.6,1.4c-0.2,0.3-0.4,0.5-0.6,0.8h5.6V150.3z"/>
	<path class="st0" d="M173.5,151.6V150h1.6v1.6H173.5z"/>
	<path class="st0" d="M181,151.6v-11.5h4.3c0.9,0,1.6,0.1,2.1,0.3s0.9,0.6,1.2,1.1s0.4,1,0.4,1.5s-0.1,1-0.4,1.4
		c-0.3,0.4-0.7,0.8-1.2,1c0.7,0.2,1.2,0.5,1.6,1c0.4,0.5,0.6,1.1,0.6,1.7c0,0.5-0.1,1-0.3,1.5s-0.5,0.8-0.8,1.1s-0.8,0.4-1.3,0.6
		c-0.5,0.1-1.1,0.2-1.8,0.2L181,151.6L181,151.6z M182.6,145h2.5c0.7,0,1.2,0,1.4-0.1c0.4-0.1,0.7-0.3,0.9-0.6s0.3-0.6,0.3-1
		s-0.1-0.7-0.3-1s-0.4-0.5-0.8-0.6c-0.3-0.1-0.9-0.2-1.7-0.2h-2.3L182.6,145L182.6,145z M182.6,150.3h2.9c0.5,0,0.8,0,1-0.1
		c0.3-0.1,0.6-0.2,0.9-0.3c0.2-0.1,0.4-0.4,0.6-0.6c0.2-0.3,0.2-0.6,0.2-1s-0.1-0.8-0.3-1.1s-0.5-0.5-0.9-0.7
		c-0.4-0.1-0.9-0.2-1.7-0.2h-2.6L182.6,150.3L182.6,150.3z"/>
	<path class="st0" d="M192.9,147.9v-1.1c0.6,0,1,0,1.2-0.1c0.2,0,0.4-0.2,0.6-0.4c0.2-0.2,0.3-0.5,0.3-0.8c0-0.4-0.1-0.7-0.4-0.9
		s-0.6-0.3-1-0.3c-0.8,0-1.3,0.5-1.7,1.4l-1.3-0.2c0.4-1.6,1.4-2.3,3-2.3c0.9,0,1.6,0.2,2.1,0.7s0.8,1.1,0.8,1.7
		c0,0.7-0.3,1.2-1,1.6c0.4,0.2,0.7,0.5,0.9,0.9c0.2,0.3,0.3,0.8,0.3,1.2c0,0.7-0.3,1.3-0.8,1.8s-1.3,0.7-2.3,0.7
		c-1.9,0-3-0.8-3.3-2.5l1.3-0.3c0.1,0.5,0.4,0.9,0.7,1.2c0.4,0.3,0.8,0.4,1.3,0.4s0.9-0.1,1.2-0.4c0.3-0.3,0.5-0.6,0.5-1
		c0-0.3-0.1-0.6-0.3-0.8s-0.4-0.4-0.6-0.4c-0.2-0.1-0.6-0.1-1.2-0.1C193.1,147.9,193,147.9,192.9,147.9z"/>
	<path class="st0" d="M197.8,154.8v-11.5h1.3v1.1c0.3-0.4,0.6-0.7,1-0.9s0.8-0.3,1.4-0.3c0.7,0,1.3,0.2,1.9,0.5
		c0.5,0.4,1,0.9,1.2,1.5s0.4,1.4,0.4,2.2s-0.2,1.6-0.5,2.3s-0.7,1.2-1.3,1.6s-1.2,0.5-1.8,0.5c-0.5,0-0.9-0.1-1.3-0.3
		s-0.7-0.4-0.9-0.8v4L197.8,154.8L197.8,154.8z M199.1,147.5c0,1.1,0.2,1.9,0.6,2.4c0.4,0.5,1,0.8,1.6,0.8s1.2-0.3,1.6-0.8
		c0.4-0.5,0.7-1.3,0.7-2.5c0-1.1-0.2-1.8-0.7-2.4c-0.4-0.5-1-0.8-1.6-0.8s-1.1,0.3-1.6,0.8C199.3,145.7,199.1,146.5,199.1,147.5z"/>
	<path class="st0" d="M205.6,147.5c0-1.5,0.4-2.7,1.3-3.4c0.7-0.6,1.6-0.9,2.6-0.9c1.1,0,2.1,0.4,2.8,1.1c0.7,0.7,1.1,1.8,1.1,3.1
		c0,1.1-0.2,1.9-0.5,2.5s-0.8,1.1-1.4,1.4s-1.3,0.5-2,0.5c-1.2,0-2.1-0.4-2.8-1.1C206,150,205.6,148.9,205.6,147.5z M207.1,147.5
		c0,1.1,0.2,1.9,0.7,2.4s1,0.8,1.8,0.8c0.7,0,1.3-0.3,1.7-0.8s0.7-1.3,0.7-2.4c0-1-0.2-1.8-0.7-2.3s-1-0.8-1.7-0.8s-1.3,0.3-1.8,0.8
		C207.3,145.6,207.1,146.4,207.1,147.5z"/>
	<path class="st0" d="M219.9,148.6l1.4,0.2c-0.2,1-0.5,1.7-1.2,2.2s-1.4,0.8-2.3,0.8c-1.1,0-2-0.4-2.7-1.1s-1-1.8-1-3.2
		c0-0.9,0.1-1.7,0.4-2.4s0.7-1.2,1.4-1.5s1.3-0.5,2-0.5c0.9,0,1.6,0.2,2.2,0.7c0.6,0.5,0.9,1.1,1.1,1.9l-1.4,0.2
		c-0.1-0.6-0.4-1-0.7-1.3s-0.7-0.4-1.2-0.4c-0.7,0-1.3,0.3-1.7,0.8s-0.7,1.3-0.7,2.4c0,1.1,0.2,1.9,0.6,2.4c0.4,0.5,1,0.8,1.7,0.8
		c0.6,0,1-0.2,1.4-0.5C219.6,149.8,219.8,149.3,219.9,148.6z"/>
	<path class="st0" d="M222.6,143.4h6.5v8.3h-1.4v-7.1H224v4.1c0,1,0,1.6-0.1,1.9c-0.1,0.3-0.2,0.6-0.5,0.8s-0.7,0.3-1.2,0.3
		c-0.3,0-0.7,0-1.1-0.1v-1.2h0.6c0.3,0,0.5,0,0.6-0.1s0.2-0.2,0.2-0.3s0.1-0.6,0.1-1.3V143.4z"/>
	<path class="st0" d="M230.7,143.4h1.4v3.2h1.8c1.2,0,2.1,0.2,2.7,0.7c0.6,0.5,0.9,1.1,0.9,1.9c0,0.7-0.3,1.3-0.8,1.8
		s-1.4,0.7-2.5,0.7h-3.5L230.7,143.4L230.7,143.4z M232.1,150.5h1.5c0.9,0,1.5-0.1,1.9-0.3s0.6-0.6,0.6-1s-0.1-0.7-0.4-1
		s-0.9-0.4-1.9-0.4h-1.7L232.1,150.5L232.1,150.5z M238.6,143.4h1.4v8.3h-1.4V143.4z"/>
	<path class="st0" d="M241.7,143.4h2.2l2.2,6.6l2.4-6.6h2v8.3h-1.4V145l-2.5,6.7h-1.3l-2.3-7v7h-1.4v-8.3H241.7z"/>
	<path class="st0" d="M0.8,163.4h6.5v8.3H5.9v-7.1H2.2v7.1H0.8V163.4z"/>
	<path class="st0" d="M8.3,167.5c0-1.5,0.4-2.7,1.3-3.4c0.7-0.6,1.6-0.9,2.6-0.9c1.1,0,2.1,0.4,2.8,1.1c0.7,0.7,1.1,1.8,1.1,3.1
		c0,1.1-0.2,1.9-0.5,2.5s-0.8,1.1-1.4,1.4c-0.6,0.3-1.3,0.5-2,0.5c-1.2,0-2.1-0.4-2.8-1.1C8.7,170,8.3,168.9,8.3,167.5z M9.8,167.5
		c0,1.1,0.2,1.9,0.7,2.4s1,0.8,1.8,0.8c0.7,0,1.3-0.3,1.7-0.8c0.5-0.5,0.7-1.3,0.7-2.4c0-1-0.2-1.8-0.7-2.3s-1-0.8-1.7-0.8
		s-1.3,0.3-1.8,0.8C10,165.6,9.8,166.4,9.8,167.5z"/>
	<path class="st0" d="M26,171.6h-1.4v-9c-0.3,0.3-0.8,0.6-1.3,1c-0.5,0.3-1,0.6-1.5,0.7V163c0.8-0.4,1.5-0.8,2.1-1.3s1-1,1.2-1.5H26
		V171.6z"/>
	<path class="st0" d="M33.3,163.4h1.4v3.6c0.4,0,0.8-0.1,0.9-0.3s0.4-0.7,0.8-1.5c0.3-0.7,0.5-1.1,0.7-1.3s0.4-0.3,0.6-0.4
		c0.2-0.1,0.6-0.1,1.1-0.1h0.3v1.2h-0.4c-0.4,0-0.6,0.1-0.7,0.2c-0.1,0.1-0.3,0.5-0.5,1s-0.4,0.9-0.6,1.1c-0.2,0.2-0.5,0.4-0.8,0.6
		c0.6,0.2,1.2,0.7,1.8,1.7l1.5,2.6h-1.5l-1.5-2.6c-0.3-0.5-0.6-0.9-0.8-1s-0.5-0.2-0.8-0.2v3.8h-1.4L33.3,163.4L33.3,163.4z"/>
	<path class="st0" d="M45.5,170.6c-0.5,0.4-1,0.8-1.5,0.9c-0.5,0.2-1,0.3-1.6,0.3c-0.9,0-1.6-0.2-2.1-0.7c-0.5-0.4-0.7-1-0.7-1.7
		c0-0.4,0.1-0.8,0.3-1.1s0.4-0.6,0.7-0.8s0.6-0.4,1-0.5c0.3-0.1,0.7-0.1,1.2-0.2c1.1-0.1,2-0.3,2.5-0.5c0-0.2,0-0.3,0-0.4
		c0-0.6-0.1-1-0.4-1.2c-0.4-0.3-0.9-0.5-1.6-0.5c-0.7,0-1.2,0.1-1.5,0.3s-0.5,0.6-0.7,1.2l-1.4-0.2c0.1-0.6,0.3-1.1,0.6-1.4
		c0.3-0.4,0.7-0.6,1.2-0.8s1.2-0.3,1.9-0.3s1.3,0.1,1.7,0.2c0.4,0.2,0.8,0.4,1,0.6c0.2,0.3,0.4,0.6,0.4,1c0,0.2,0.1,0.7,0.1,1.3v1.9
		c0,1.3,0,2.1,0.1,2.5c0.1,0.3,0.2,0.7,0.4,1h-1.5C45.7,171.4,45.6,171,45.5,170.6z M45.4,167.5c-0.5,0.2-1.3,0.4-2.3,0.5
		c-0.6,0.1-1,0.2-1.2,0.3s-0.4,0.3-0.6,0.5c-0.1,0.2-0.2,0.4-0.2,0.7c0,0.4,0.1,0.7,0.4,0.9c0.3,0.2,0.7,0.4,1.2,0.4s1-0.1,1.4-0.4
		c0.4-0.2,0.7-0.6,0.9-1c0.2-0.3,0.2-0.8,0.2-1.4v-0.5H45.4z"/>
	<path class="st0" d="M48.4,163.4H55v8.3h-1.4v-7.1h-3.7v7.1h-1.4L48.4,163.4L48.4,163.4z"/>
	<path class="st0" d="M62,168.6l1.4,0.2c-0.2,1-0.5,1.7-1.2,2.2c-0.6,0.5-1.4,0.8-2.3,0.8c-1.1,0-2-0.4-2.7-1.1
		c-0.7-0.7-1-1.8-1-3.2c0-0.9,0.1-1.7,0.4-2.4s0.7-1.2,1.4-1.5c0.6-0.3,1.3-0.5,2-0.5c0.9,0,1.6,0.2,2.2,0.7
		c0.6,0.5,0.9,1.1,1.1,1.9l-1.4,0.2c-0.1-0.6-0.4-1-0.7-1.3s-0.7-0.4-1.2-0.4c-0.7,0-1.3,0.3-1.7,0.8s-0.7,1.3-0.7,2.4
		c0,1.1,0.2,1.9,0.6,2.4c0.4,0.5,1,0.8,1.7,0.8c0.6,0,1-0.2,1.4-0.5C61.6,169.8,61.9,169.3,62,168.6z"/>
	<path class="st0" d="M63.9,174.8l-0.2-1.3c0.3,0.1,0.6,0.1,0.8,0.1c0.3,0,0.6-0.1,0.8-0.2c0.2-0.1,0.3-0.2,0.5-0.4
		c0.1-0.1,0.2-0.5,0.4-1c0-0.1,0.1-0.2,0.1-0.3l-3.1-8.3h1.5l1.7,4.8c0.2,0.6,0.4,1.2,0.6,1.9c0.2-0.6,0.4-1.3,0.6-1.9l1.8-4.8h1.4
		l-3.2,8.4c-0.3,0.9-0.6,1.5-0.8,1.9c-0.2,0.5-0.5,0.8-0.9,1c-0.3,0.2-0.7,0.3-1.2,0.3C64.6,175,64.3,175,63.9,174.8z"/>
	<path class="st0" d="M71.8,163.4h6.5v8.3h-1.4v-7.1h-3.7v4.1c0,1,0,1.6-0.1,1.9c-0.1,0.3-0.2,0.6-0.5,0.8s-0.7,0.3-1.2,0.3
		c-0.3,0-0.7,0-1.1-0.1v-1.2h0.6c0.3,0,0.5,0,0.6-0.1s0.2-0.2,0.2-0.3s0.1-0.6,0.1-1.3V163.4z"/>
	<path class="st0" d="M85.5,169l1.5,0.2c-0.2,0.8-0.7,1.5-1.3,2s-1.4,0.7-2.4,0.7c-1.2,0-2.2-0.4-2.9-1.1c-0.7-0.7-1.1-1.8-1.1-3.1
		c0-1.4,0.4-2.5,1.1-3.2c0.7-0.8,1.7-1.2,2.8-1.2c1.1,0,2,0.4,2.7,1.1c0.7,0.8,1.1,1.8,1.1,3.2c0,0.1,0,0.2,0,0.4h-6.2
		c0.1,0.9,0.3,1.6,0.8,2.1s1,0.7,1.7,0.7c0.5,0,1-0.1,1.3-0.4C85,170,85.3,169.6,85.5,169z M80.9,166.7h4.6
		c-0.1-0.7-0.2-1.2-0.5-1.6c-0.4-0.5-1-0.8-1.7-0.8c-0.6,0-1.2,0.2-1.6,0.6C81.2,165.4,81,166,80.9,166.7z"/>
	<path class="st0" d="M92.1,163.4h3.2c0.8,0,1.4,0.1,1.8,0.2c0.4,0.1,0.7,0.4,1,0.7c0.3,0.4,0.4,0.8,0.4,1.3c0,0.4-0.1,0.7-0.2,1
		c-0.2,0.3-0.4,0.5-0.7,0.7c0.4,0.1,0.7,0.4,1,0.7c0.3,0.4,0.4,0.8,0.4,1.3c-0.1,0.8-0.3,1.4-0.8,1.8c-0.5,0.4-1.3,0.6-2.2,0.6h-3.7
		v-8.3H92.1z M93.5,166.8H95c0.6,0,1,0,1.2-0.1s0.4-0.2,0.6-0.4s0.3-0.4,0.3-0.7c0-0.4-0.2-0.7-0.5-0.9s-0.8-0.3-1.6-0.3h-1.5V166.8
		z M93.5,170.5h1.9c0.8,0,1.3-0.1,1.6-0.3c0.3-0.2,0.5-0.5,0.5-1c0-0.3-0.1-0.5-0.3-0.7s-0.4-0.4-0.7-0.4c-0.3-0.1-0.7-0.1-1.3-0.1
		h-1.7V170.5z"/>
	<path class="st0" d="M105,163.4h5.8v7.1h0.9v3.5h-1.2v-2.4H104v2.4h-1.2v-3.5h0.7C104.6,169.1,105,166.8,105,163.4z M106.2,164.5
		c-0.1,2.7-0.5,4.7-1.2,6h4.5v-6H106.2z"/>
	<path class="st0" d="M118.4,169l1.5,0.2c-0.2,0.8-0.7,1.5-1.3,2s-1.4,0.7-2.4,0.7c-1.2,0-2.2-0.4-2.9-1.1c-0.7-0.7-1.1-1.8-1.1-3.1
		c0-1.4,0.4-2.5,1.1-3.2c0.7-0.8,1.7-1.2,2.8-1.2c1.1,0,2,0.4,2.7,1.1c0.7,0.8,1.1,1.8,1.1,3.2c0,0.1,0,0.2,0,0.4h-6.2
		c0.1,0.9,0.3,1.6,0.8,2.1s1,0.7,1.7,0.7c0.5,0,1-0.1,1.3-0.4C117.8,170,118.1,169.6,118.4,169z M113.7,166.7h4.6
		c-0.1-0.7-0.2-1.2-0.5-1.6c-0.4-0.5-1-0.8-1.7-0.8c-0.6,0-1.2,0.2-1.6,0.6C114,165.4,113.8,166,113.7,166.7z"/>
	<path class="st0" d="M121,163.4h1.4v3.5h3.9v-3.5h1.4v8.3h-1.4V168h-3.9v3.7H121V163.4z"/>
	<path class="st0" d="M129.3,163.4h1.4v3.2h1.8c1.2,0,2.1,0.2,2.7,0.7c0.6,0.5,0.9,1.1,0.9,1.9c0,0.7-0.3,1.3-0.8,1.8
		s-1.4,0.7-2.5,0.7h-3.5L129.3,163.4L129.3,163.4z M130.7,170.5h1.5c0.9,0,1.5-0.1,1.9-0.3s0.6-0.6,0.6-1s-0.1-0.7-0.4-1
		s-0.9-0.4-1.9-0.4h-1.7L130.7,170.5L130.7,170.5z"/>
</g>
</svg>
