<svg version="1.1" id="Layer_1" xmlns="http://www.w3.org/2000/svg" x="0" y="0" viewBox="0 0 300.1 29.1" style="enable-background:new 0 0 300.1 29.1" xml:space="preserve"><style>.st0{fill:#147bb8}</style><path class="st0" d="M0 .2h2.7v3.4h-.5v-3H.5v3H0V.2zM3.3 3.6V.2h2.5v.4h-2v1h1.9V2h-2v1.2h2.1v.4H3.3zM6.3 3.6V.2h1.8c.2 0 .3.1.4.2l.3.3c.1.1.1.3.1.5 0 .3-.1.5-.3.7-.2.2-.5.3-1 .3h-.9v1.4h-.4zm.4-1.8h.9c.3 0 .5-.1.6-.2.1-.1.2-.3.2-.5 0-.1 0-.3-.1-.4S8.2.6 8 .6H6.7v1.2zM9.3 3.6V.2h2.5v.4h-2v1h1.9V2H9.8v1.2h2.1v.4H9.3zM12.6.2h2.1v3h.3v1.2h-.4v-.8h-2.3v.8H12V3.2h.3c.3-.4.4-1.3.4-2.5l-.1-.5zm1.7.4h-1.2v.2c0 .3 0 .7-.1 1.2s-.2.9-.3 1.2h1.6V.6zM16.6.2h2.7v3.4h-.5v-3H17v3h-.5V.2h.1zM19.8 3.6V.2h1.8c.2 0 .3.1.4.2l.3.3c.1.1.1.3.1.5 0 .3-.1.5-.3.7-.2.2-.5.3-1 .3h-.9v1.4h-.4zm.5-1.8h.9c.3 0 .5-.1.6-.2s.2-.2.2-.4c0-.1 0-.3-.1-.4s-.2-.2-.3-.2h-1.3v1.2zM22.9.2h.4v2.7L25.1.2h.5v3.4h-.4V.9l-1.8 2.7h-.5V.2zM26.1 3.6V.2h.7l.8 2.4c.1.2.1.4.2.5 0-.1.1-.3.2-.5l.8-2.4h.6v3.4H29V.7l-1 2.9h-.4l-1-2.9v2.9h-.5zM30 3.6V.2h2.5v.4h-2v1h1.9V2h-1.9v1.2h2.1v.4H30zM33 3.6V.2h.5v1.4h1.8V.2h.5v3.4h-.5V2h-1.8v1.6H33zM36.3 3.6V.2h2.5v.4h-2v1h1.9V2h-1.9v1.2h2.1v.4h-2.6zM39.3 3.6V.2h.5v1.4h1.8V.2h.4v3.4h-.5V2h-1.8v1.6h-.4zM42.6.2h.4v2.7L44.8.2h.5v3.4h-.4V.9L43 3.6h-.5l.1-3.4zM45.8 3.6V.2h2.5v.4h-2v1h1.9V2h-1.9v1.2h2.1v.4h-2.6zM48.8 3.6V.2h.7l.8 2.4c.1.2.1.4.2.5 0-.1.1-.3.2-.5l.8-2.4h.6v3.4h-.4V.7l-1 2.9h-.4l-1-2.9v2.9h-.5zM53.8 3.6V.2h.5v1.4h1.8V.2h.5v3.4h-.5V2h-1.8v1.6h-.5zM57.1 3.6V.2h2.5v.4h-2v1h1.9V2h-1.9v1.2h2.1v.4h-2.6zM60 1.9c0-.6.2-1 .5-1.3s.7-.5 1.1-.5c.3 0 .6.1.9.2.3.2.4.4.6.6.1.3.2.6.2.9s-.1.7-.2.9c-.1.3-.3.5-.6.6s-.5.2-.8.2-.6-.1-.9-.2c-.3-.2-.4-.4-.6-.6-.1-.2-.2-.5-.2-.8zm.5 0c0 .4.1.7.3 1 .2.2.5.4.8.4s.6-.1.8-.4c.2-.2.3-.6.3-1 0-.3 0-.5-.1-.7s-.2-.4-.4-.5-.4-.2-.6-.2c-.3 0-.6.1-.8.3s-.3.6-.3 1.1zM63.7.2h2.2v.4h-1.8v1.1h.9c.3 0 .5 0 .7.1s.3.2.4.3c.1.2.2.3.2.6 0 .2 0 .3-.1.5s-.2.3-.3.4c-.2.1-.4.1-.8.1h-1.3L63.7.2zm.5 3h.9c.2 0 .4 0 .5-.1s.2-.2.2-.4c0-.1 0-.3-.1-.4-.1-.1-.2-.2-.3-.2h-1.2v1.1z"/><path class="st0" d="m66.2 3.6 1.3-1.8L66.3.2h.5l.6.9c.1.2.2.3.3.4l.4-.4.7-.9h.5l-1.2 1.6 1.3 1.8h-.6l-.9-1.2c0-.1-.1-.1-.1-.2-.1.1-.1.2-.2.3l-.9 1.2-.5-.1z"/><path class="st0" d="M69.3 1.9c0-.6.2-1 .5-1.3.2-.3.6-.5 1.1-.5.3 0 .6.1.9.2.3.2.4.4.6.6.1.3.2.6.2.9s-.1.7-.2.9c-.2.4-.4.6-.6.7-.3.1-.5.2-.8.2s-.6-.1-.9-.2c-.3-.2-.4-.4-.6-.6-.1-.3-.2-.6-.2-.9zm.5 0c0 .4.1.7.3 1 .2.2.5.4.8.4s.6-.1.8-.4c.2-.2.3-.6.3-1 0-.3 0-.5-.1-.7s-.2-.4-.4-.5c-.2-.1-.4-.2-.6-.2-.3 0-.6.1-.8.3-.2.2-.3.6-.3 1.1zM73.2.2h2.1v3h.3v1.2h-.4v-.8h-2.3v.8h-.4V3.2h.3c.3-.4.4-1.3.4-2.5V.2zm1.6.4h-1.2v.2c0 .3 0 .7-.1 1.2s-.2.9-.3 1.2h1.6V.6zM76 .2h.4v2.7L78.2.2h.5v3.4h-.4V.9l-1.8 2.7H76V.2zM79.2 3.6V.2h.7l.8 2.4c.1.2.1.4.2.5 0-.1.1-.3.2-.5l.8-2.4h.6v3.4H82V.7l-1 2.9h-.4l-1-2.9v2.9h-.4zM82.9 1.9c0-.6.2-1 .5-1.3s.6-.5 1.1-.5c.3 0 .6.1.9.2s.4.4.6.6c.1.3.2.6.2.9s-.1.7-.2.9c-.1.3-.3.5-.6.6-.3.1-.5.2-.8.2s-.6-.1-.9-.2c-.3-.2-.4-.4-.6-.6-.1-.2-.2-.5-.2-.8zm.5 0c0 .4.1.7.3 1 .2.2.5.4.8.4s.6-.1.8-.4c.2-.2.3-.6.3-1 0-.3 0-.5-.1-.7s-.2-.4-.4-.5-.4-.2-.6-.2c-.3 0-.6.1-.8.3-.2.2-.3.6-.3 1.1zM87.6 1.9c0-.6.2-1 .5-1.3s.7-.5 1.1-.5c.3 0 .6.1.9.2.3.2.4.4.6.6.1.3.2.6.2.9s-.1.7-.2.9c-.1.3-.3.5-.6.6-.3.1-.5.2-.8.2s-.6-.1-.9-.2c-.3-.2-.4-.4-.6-.6-.1-.2-.2-.5-.2-.8zm.5 0c0 .4.1.7.3 1 .2.2.5.4.8.4s.6-.1.8-.4.3-.6.3-1c0-.3 0-.5-.1-.7s-.2-.4-.4-.5-.4-.2-.6-.2c-.3 0-.6.1-.8.3-.2.2-.3.6-.3 1.1zM91.1 2.6l.4-.1c0 .2.1.3.3.5.1.2.3.2.6.2.2 0 .4-.1.6-.2.1-.1.2-.3.2-.4 0-.2-.1-.3-.2-.4s-.3-.2-.6-.2h-.2v-.4h.5c.1 0 .2-.1.3-.2v-.3c0-.1-.1-.3-.2-.4s-.3-.2-.5-.2-.3 0-.4.1l-.3.3c0 .1-.1.2-.1.3l-.4-.1c.2-.6.6-1 1.3-1 .3 0 .6.1.8.3.2.2.3.4.3.7s-.2.6-.5.7c.2 0 .3.1.4.3.1.1.2.3.2.5 0 .3-.1.5-.3.7-.2.2-.5.3-.9.3-.7 0-1.1-.3-1.3-1zM94 3.6V.2h.5v1.4h1.8V.2h.5v3.4h-.5V2h-1.8v1.6H94zM96.9 3.6 98.2.2h.5l1.4 3.4h-.5l-.4-1h-1.4l-.4 1h-.5zm1-1.4h1.2l-.4-.9c-.1-.3-.2-.5-.2-.7 0 .2-.1.4-.2.7l-.4.9zM100.3.2h.5v1.5c.2 0 .4 0 .4-.1.1-.1.2-.3.3-.6.1-.2.2-.4.2-.5.1-.1.1-.2.3-.2.1-.1.2-.1.4-.1h.3v.4h-.2c-.1 0-.3 0-.3.1-.1.1-.2.2-.2.4-.1.3-.2.5-.3.5-.1.1-.2.1-.3.2.2.1.4.3.7.6l.7 1.1h-.6l-.6-.9c-.2-.3-.3-.4-.4-.5-.1-.1-.2-.1-.4-.1v1.6h-.5V.2zM102.8 1.9c0-.6.2-1 .5-1.3s.7-.5 1.2-.5c.3 0 .6.1.9.2.3.2.4.4.6.6.1.3.2.6.2.9s-.1.7-.2.9c-.1.3-.3.5-.6.6-.3.1-.5.2-.8.2s-.6-.1-.9-.2c-.3-.2-.4-.4-.6-.6-.3-.2-.3-.5-.3-.8zm.4 0c0 .4.1.7.3 1 .2.2.5.4.8.4s.6-.1.8-.4c.2-.2.3-.6.3-1 0-.3 0-.5-.1-.7s-.2-.4-.4-.5c-.2-.1-.4-.2-.6-.2-.3 0-.6.1-.8.3s-.3.6-.3 1.1zM106.4 3.6V.2h.7l.8 2.4c.1.2.1.4.2.5 0-.1.1-.3.2-.5l.8-2.4h.6v3.4h-.4V.7l-1 2.9h-.4l-1-2.9v2.9h-.5zM110.3.2h.4v2.7l1.8-2.7h.5v3.4h-.4V.9l-1.8 2.7h-.5V.2zM114.4 3.6v-3h-1.1V.2h2.7v.4h-1.1v3h-.5zM116.3.2h.5v1.5h.8c.4 0 .7 0 .8.1.2.1.3.2.4.4s.1.3.1.5c0 .3-.1.5-.3.7-.2.2-.5.3-1 .3h-1.3V.2zm.5 3h.8c.3 0 .6-.1.7-.2.1-.1.2-.3.2-.4 0-.1 0-.3-.1-.3-.2-.2-.3-.2-.4-.2h-1.2v1.1zM121.6 2.4l.5.1c-.1.4-.3.7-.5.9-.2.2-.5.3-.9.3s-.7-.1-.9-.2c-.2-.2-.4-.4-.5-.7s-.2-.6-.2-.9c0-.4.1-.7.2-.9.1-.3.3-.5.6-.6.3-.1.5-.2.8-.2s.6.1.9.3c.2.2.4.4.5.7l-.4.1c-.1-.2-.2-.4-.3-.5-.2-.1-.3-.2-.6-.2s-.5.1-.7.2-.3.3-.4.5-.1.4-.1.7 0 .5.1.8c.1.2.2.4.4.5.2.1.4.2.6.2.3 0 .5-.1.6-.2.1-.4.2-.6.3-.9zM124.7 3.6V2.1h-.8c-.1 0-.1 0-.2.1-.1 0-.1.1-.2.2s-.2.3-.3.5l-.5.7h-.6l.6-.9c.1-.2.2-.3.4-.5.1-.1.2-.1.3-.2-.3 0-.6-.2-.7-.3-.2-.2-.2-.4-.2-.6s0-.4.1-.5c.1-.2.2-.3.4-.3.2-.1.4-.1.7-.1h1.5v3.4h-.5zm0-3.1h-1.1c-.3 0-.4.1-.6.2-.1.1-.2.2-.2.4 0 .1 0 .2.1.3s.1.2.3.2c.1 0 .3.1.5.1h1V.5zM129.3 2.4l.5.1c-.1.4-.3.7-.5.9-.2.2-.5.3-.9.3s-.7-.1-.9-.2c-.2-.2-.4-.4-.5-.7s-.2-.6-.2-.9c0-.4.1-.7.2-.9.1-.3.3-.5.6-.6.3-.1.5-.2.8-.2s.6.1.9.3c.2.2.4.4.5.7l-.4.1c-.1-.2-.2-.4-.3-.5-.2-.1-.3-.2-.6-.2s-.5.1-.7.2-.3.3-.4.5-.1.4-.1.7 0 .5.1.8c.1.2.2.4.4.5.2.1.4.2.6.2.3 0 .5-.1.6-.2.1-.4.3-.6.3-.9zM131.2 1.9c0-.6.2-1 .5-1.3s.7-.5 1.2-.5c.3 0 .6.1.9.2.3.2.4.4.6.6.1.3.2.6.2.9s-.1.7-.2.9c-.1.3-.3.5-.6.6s-.5.2-.8.2-.6-.1-.9-.2c-.3-.2-.4-.4-.6-.6-.2-.2-.3-.5-.3-.8zm.5 0c0 .4.1.7.3 1 .2.2.5.4.8.4s.6-.1.8-.4.3-.6.3-1c0-.3 0-.5-.1-.7s-.2-.4-.4-.5-.4-.2-.6-.2c-.3 0-.6.1-.8.3s-.3.6-.3 1.1zM137.3 2.4l.5.1c-.1.4-.3.7-.5.9-.2.2-.5.3-.9.3s-.7-.1-.9-.2c-.2-.2-.4-.4-.5-.7s-.2-.6-.2-.9c0-.4.1-.7.2-.9.1-.3.3-.5.6-.6s.5-.2.8-.2.6.1.9.3c.2.2.4.4.5.7l-.4.1c-.1-.2-.2-.4-.3-.5-.2-.1-.3-.2-.6-.2s-.5.1-.7.2-.3.3-.4.5c-.1.2-.1.4-.1.7s0 .5.1.8c.1.2.2.4.4.5s.4.2.6.2c.3 0 .5-.1.6-.2.1-.4.3-.6.3-.9zM138.2 3.6V.2h.5v1.4h1.8V.2h.5v3.4h-.5V2h-1.8v1.6h-.5zM141.3 1.9c0-.6.2-1 .5-1.3s.7-.5 1.2-.5c.3 0 .6.1.9.2.3.2.4.4.6.6.1.3.2.6.2.9s-.1.7-.2.9c-.1.3-.3.5-.6.6s-.5.2-.8.2-.6-.1-.9-.2c-.3-.2-.4-.4-.6-.6-.2-.2-.3-.5-.3-.8zm.5 0c0 .4.1.7.3 1 .2.2.5.4.8.4s.6-.1.8-.4c.2-.2.3-.6.3-1 0-.3 0-.5-.1-.7s-.2-.4-.4-.5-.4-.2-.6-.2c-.3 0-.6.1-.8.3-.2.2-.3.6-.3 1.1zM145 3.6V.2h1.3c.3 0 .5 0 .6.1.2.1.3.2.4.3.1.1.1.3.1.5 0 .1 0 .3-.1.4s-.2.2-.4.3c.2.1.4.2.5.3s.2.3.2.5 0 .3-.1.4l-.3.3c-.1.1-.2.1-.4.2-.2 0-.3.1-.6.1H145zm.4-2h1.1c.1 0 .2-.1.3-.2s.1-.2.1-.3c0-.1 0-.2-.1-.3l-.2-.2c-.1-.1-.3 0-.5 0h-.7v1zm0 1.6h1.2c.1 0 .2 0 .3-.1.1 0 .1-.1.2-.2 0-.1.1-.2.1-.3s0-.2-.1-.3-.2-.2-.3-.2-.3-.1-.5-.1h-.8l-.1 1.2zM148 3.6V.2h.5v1.4h1.8V.2h.5v3.4h-.5V2h-1.8v1.6h-.5zM151.3.2h.5v1.5h.8c.5 0 .9.1 1.1.3.2.2.3.4.3.7s-.1.5-.3.7-.5.3-1 .3h-1.3V.2h-.1zm.5 3h.8c.3 0 .5 0 .6-.1s.2-.2.2-.5c0-.1 0-.3-.1-.4-.1-.1-.2-.1-.3-.1h-1.2v1.1zm2.5-3h.5v3.4h-.5V.2zM155.4 3.6V.2h.7l.8 2.4c.1.2.1.4.2.5 0-.1.1-.3.2-.5l.8-2.4h.6v3.4h-.4V.7l-1 2.9h-.4l-1-2.9v2.9h-.5zM159.2.2h.4v2.7l1.8-2.7h.5v3.4h-.4V.9l-1.8 2.7h-.5V.2zM163.6.2h2.7v3.4h-.5v-3H164v3h-.5V.2h.1zM166.8 1.9c0-.6.2-1 .5-1.3s.7-.5 1.2-.5c.3 0 .6.1.9.2.3.2.4.4.6.6.1.3.2.6.2.9s-.1.7-.2.9c-.1.3-.3.5-.6.6s-.5.2-.8.2-.6-.1-.9-.2c-.3-.2-.4-.4-.6-.6-.3-.2-.3-.5-.3-.8zm.4 0c0 .4.1.7.3 1 .2.2.5.4.8.4s.6-.1.8-.4.3-.6.3-1c0-.3 0-.5-.1-.7s-.2-.4-.4-.5-.4-.2-.6-.2c-.3 0-.6.1-.8.3s-.3.6-.3 1.1zM170.5.2h.5v1.5c.2 0 .4 0 .4-.1.1-.1.2-.3.3-.6.1-.2.2-.4.2-.5.1-.1.1-.2.3-.2.1-.1.2-.1.4-.1h.3v.4h-.2c-.1 0-.3 0-.3.1-.1.1-.2.2-.2.4-.1.3-.2.5-.3.5-.1.1-.2.1-.3.2.2.1.4.3.7.6l.7 1.1h-.6l-.6-.9c-.2-.3-.3-.4-.4-.5-.1-.1-.2-.1-.4-.1v1.6h-.5V.2z"/><path class="st0" d="M172.7 3.6 174 .2h.5l1.4 3.4h-.5l-.4-1h-1.4l-.4 1h-.5zm1-1.4h1.2l-.4-.9c-.1-.3-.2-.5-.2-.7 0 .2-.1.4-.2.7l-.4.9zM175.9 2.6l.4-.1c0 .2.1.3.3.5.1.2.3.2.6.2.2 0 .4-.1.6-.2.1-.1.2-.3.2-.4 0-.2-.1-.3-.2-.4s-.3-.2-.6-.2h-.2v-.4h.5c.1 0 .2-.1.3-.2s.1-.2.1-.3c0-.1-.1-.3-.2-.4-.1-.1-.3-.2-.5-.2s-.3 0-.4.1l-.3.3c0 .1-.1.2-.1.3l-.4-.1c.1-.7.5-1.1 1.2-1.1.3 0 .6.1.8.3s.3.4.3.7-.2.6-.5.7c.2 0 .3.1.4.3.1.1.2.3.2.5 0 .3-.1.5-.3.7s-.5.3-.9.3c-.7.1-1.1-.2-1.3-.9zM178.4 3.6l1.3-3.4h.5l1.4 3.4h-.5l-.4-1h-1.4l-.4 1h-.5zm1-1.4h1.2l-.4-.9c-.1-.3-.2-.5-.2-.7 0 .2-.1.4-.2.7l-.4.9zM181.8 3.6V.2h.5v1.4h1.8V.2h.5v3.4h-.6V2h-1.8v1.6h-.4zM185.1.2h.4v2.7l1.8-2.7h.5v3.4h-.4V.9l-1.8 2.7h-.5V.2zM190.6 3.6V2.1h-.8c-.1 0-.1 0-.2.1-.1 0-.1.1-.2.2s-.2.3-.3.5l-.5.7h-.6l.6-.9c.1-.2.2-.3.4-.5.1-.1.2-.1.3-.2-.3 0-.6-.2-.7-.3-.2-.2-.2-.4-.2-.6s0-.4.1-.5c.1-.2.2-.3.4-.3.2-.1.4-.1.7-.1h1.5v3.4h-.5zm0-3.1h-1.1c-.3 0-.4.1-.6.2-.1.1-.2.2-.2.4 0 .1 0 .2.1.3.1.1.1.2.3.2.1 0 .3.1.5.1h1V.5zM191.6 3.6V.2h.7l.8 2.4c.1.2.1.4.2.5 0-.1.1-.3.2-.5l.8-2.4h.6v3.4h-.4V.7l-1 2.9h-.5l-1-2.9v2.9h-.4zM195.5.2h.4v2.7l1.8-2.7h.5v3.4h-.4V.9L196 3.6h-.5V.2zM199.9.2h.4v2.7l1.8-2.7h.5v3.4h-.4V.9l-1.8 2.7h-.5V.2zM204.3.2h2.7v3.4h-.5v-3h-1.8v3h-.5V.2h.1zM207.6 3.6V.2h1.8c.2 0 .3.1.4.2l.3.3c.1.1.1.3.1.5 0 .3-.1.5-.3.7s-.5.3-1 .3h-.9v1.4h-.4zm.4-1.8h.9c.3 0 .5-.1.6-.2s.2-.3.2-.5c0-.1 0-.3-.1-.4s-.2-.2-.3-.2H208v1.3zM210.4 1.9c0-.6.2-1 .5-1.3s.7-.5 1.2-.5c.3 0 .6.1.9.2.3.2.4.4.6.6.1.3.2.6.2.9s-.1.7-.2.9c-.1.3-.3.5-.6.6s-.5.2-.8.2-.6-.1-.9-.2c-.3-.2-.4-.4-.6-.6-.3-.2-.3-.5-.3-.8zm.4 0c0 .4.1.7.3 1 .2.2.5.4.8.4s.6-.1.8-.4c.2-.2.3-.6.3-1 0-.3 0-.5-.1-.7s-.2-.4-.4-.5-.4-.2-.6-.2c-.3 0-.6.1-.8.3-.2.2-.3.6-.3 1.1zM214.9 3.6v-3h-1.1V.2h2.7v.4h-1.1v3h-.5zM216.8.2h.4v2.7L219 .2h.5v3.4h-.4V.9l-1.8 2.7h-.5V.2zM220.1 3.6V.2h1.3c.3 0 .5 0 .6.1.2.1.3.2.4.3.1.1.1.3.1.5 0 .1 0 .3-.1.4s-.2.2-.4.3c.2.1.4.2.5.3s.2.3.2.5 0 .3-.1.4l-.3.3c-.1.1-.2.1-.4.2-.2 0-.3.1-.6.1h-1.2zm.4-2h1.1c.1 0 .2-.1.3-.2.1-.1.1-.2.1-.3s0-.2-.1-.3l-.2-.2c-.1-.1-.3 0-.5 0h-.7v1zm0 1.6h1.2c.1 0 .2 0 .3-.1.1 0 .1-.1.2-.2 0-.1.1-.2.1-.3s0-.2-.1-.3c-.2-.1-.3-.2-.4-.2-.1 0-.3-.1-.5-.1h-.8v1.2zM222.8 1.9c0-.6.2-1 .5-1.3s.7-.5 1.2-.5c.3 0 .6.1.9.2.3.2.4.4.6.6.1.3.2.6.2.9s-.1.7-.2.9c-.1.3-.3.5-.6.6s-.5.2-.8.2-.6-.1-.9-.2c-.3-.2-.4-.4-.6-.6-.2-.2-.3-.5-.3-.8zm.5 0c0 .4.1.7.3 1 .2.2.5.4.8.4s.6-.1.8-.4.3-.6.3-1c0-.3 0-.5-.1-.7s-.2-.4-.4-.5-.4-.2-.6-.2c-.3 0-.6.1-.8.3-.2.2-.3.6-.3 1.1zM226.5.2h2.7v3.4h-.5v-3h-1.8v3h-.5V.2h.1zM229.6 1.9c0-.6.2-1 .5-1.3s.7-.5 1.2-.5c.3 0 .6.1.9.2.3.2.4.4.6.6.1.3.2.6.2.9s-.1.7-.2.9c-.1.3-.3.5-.6.6s-.5.2-.8.2-.6-.1-.9-.2c-.3-.2-.4-.4-.6-.6-.2-.2-.3-.5-.3-.8zm.5 0c0 .4.1.7.3 1 .2.2.5.4.8.4s.6-.1.8-.4c.2-.2.3-.6.3-1 0-.3 0-.5-.1-.7s-.2-.4-.4-.5-.4-.2-.6-.2c-.3 0-.6.1-.8.3-.2.2-.3.6-.3 1.1zM233.3.2h.5v1.5c.2 0 .4 0 .4-.1.1-.1.2-.3.3-.6.1-.2.2-.4.2-.5.1-.1.1-.2.3-.2.1-.1.2-.1.4-.1h.3v.4h-.2c-.1 0-.3 0-.3.1-.1.1-.2.2-.2.4-.1.3-.2.5-.3.5-.1.1-.2.1-.3.2.2.1.4.3.7.6l.7 1.1h-.6l-.6-.9c-.2-.3-.3-.4-.4-.5-.1-.1-.2-.1-.4-.1v1.6h-.5V.2z"/><path class="st0" d="m235.6 3.6 1.3-3.4h.5l1.4 3.4h-.5l-.4-1h-1.4l-.4 1h-.5zm.9-1.4h1.2l-.4-.9c-.1-.3-.2-.5-.2-.7 0 .2-.1.4-.2.7l-.4.9zM238.7 2.6l.4-.1c0 .2.1.3.3.5.1.2.3.2.6.2.2 0 .4-.1.6-.2.1-.1.2-.3.2-.4 0-.2-.1-.3-.2-.4s-.3-.2-.6-.2h-.2v-.4h.5c.1 0 .2-.1.3-.2s.1-.2.1-.3c0-.1-.1-.3-.2-.4-.1-.1-.3-.2-.5-.2s-.3 0-.4.1l-.3.3c0 .1-.1.2-.1.3l-.4-.1c.1-.7.5-1.1 1.2-1.1.3 0 .6.1.8.3s.3.4.3.7-.2.6-.5.7c.2 0 .3.1.4.3.1.1.2.3.2.5 0 .3-.1.5-.3.7s-.5.3-.9.3c-.7.1-1.1-.2-1.3-.9zM241.2 3.6l1.3-3.4h.5l1.4 3.4h-.5l-.4-1h-1.4l-.4 1h-.5zm1-1.4h1.2l-.4-1c-.1-.3-.2-.5-.2-.7 0 .2-.1.4-.2.7l-.4 1zM244.7 3.6V.2h.5v1.4h1.8V.2h.5v3.4h-.5V2h-1.8v1.6h-.5zM247.9.2h.4v2.7l1.8-2.7h.5v3.4h-.4V.9l-1.8 2.7h-.5V.2zM253.5 3.6V2.1h-.8c-.1 0-.1 0-.2.1-.1 0-.1.1-.2.2s-.2.3-.3.5l-.5.7h-.6l.6-.9c.1-.2.2-.3.4-.5.1-.1.2-.1.3-.2-.3 0-.6-.2-.7-.3-.2-.2-.2-.4-.2-.6s0-.4.1-.5c.1-.2.2-.3.4-.3.2-.1.4-.1.7-.1h1.5v3.4h-.5zm0-3.1h-1.1c-.3 0-.4.1-.6.2-.1.1-.2.2-.2.4 0 .1 0 .2.1.3s.1.2.3.2c.1 0 .3.1.5.1h1V.5zM254.5 3.6V.2h.7l.8 2.4c.1.2.1.4.2.5 0-.1.1-.3.2-.5l.8-2.4h.6v3.4h-.4V.7l-1 2.9h-.4l-1-2.9v2.9h-.5zM258.3.2h.4v2.7l1.8-2.7h.5v3.4h-.4V.9l-1.8 2.7h-.5V.2zM262.7.2h.5v1.5c.2 0 .4 0 .4-.1.1-.1.2-.3.3-.6.1-.2.2-.4.2-.5.1-.1.1-.2.3-.2.1-.1.2-.1.4-.1h.3v.4h-.2c-.1 0-.3 0-.3.1-.1.1-.2.2-.2.4-.1.3-.2.5-.3.5-.1.1-.2.1-.3.2.2.1.4.3.7.6l.7 1.1h-.6l-.6-.8c-.2-.3-.3-.4-.4-.5-.1-.1-.2-.1-.4-.1v1.6h-.5V.2zM266.5.2h2.7v3.4h-.5v-3H267v3h-.5V.2zM269.8 3.6V.2h1.8c.2 0 .3.1.4.2l.3.3c.1.1.1.3.1.5 0 .3-.1.5-.3.7-.2.2-.5.3-1 .3h-.9v1.4h-.4zm.4-1.8h.9c.3 0 .5-.1.6-.2s.2-.3.2-.5c0-.1 0-.3-.1-.4s-.2-.2-.3-.2h-1.3v1.3zM272.8.2h.4v2.7L275 .2h.5v3.4h-.4V.9l-1.8 2.7h-.5V.2zM276.1 3.6V.2h.7l.8 2.4c.1.2.1.4.2.5 0-.1.1-.3.2-.5l.8-2.4h.6v3.4h-.4V.7l-1 2.9h-.4l-1-2.9v2.9h-.5zM279.9 3.6V.2h2.5v.4h-2v1h1.9V2h-1.9v1.2h2.1v.4h-2.6zM282.9 3.6V.2h.5v1.4h1.8V.2h.5v3.4h-.5V2h-1.8v1.6h-.5zM286.2 3.6V.2h2.5v.4h-2v1h1.9V2h-1.9v1.2h2.1v.4h-2.6zM289.2 3.6V.2h.5v1.4h1.8V.2h.5v3.4h-.5V2h-1.8v1.6h-.5zM292.5.2h.4v2.7l1.8-2.7h.5v3.4h-.4V.9L293 3.6h-.5V.2zM295.8.2h.5v1.5h.7c0-.5.2-.9.5-1.2s.6-.4 1.1-.4c.4 0 .8.2 1.1.5.3.3.4.7.4 1.3s-.1 1-.4 1.3-.7.5-1.1.5-.8-.1-1-.4-.6-.7-.7-1.2h-.7v1.5h-.5V.2h.1zm1.6 1.7c0 .4.1.8.3 1s.5.4.8.4.6-.1.8-.4c.2-.2.3-.6.3-1s-.1-.8-.3-1c-.2-.2-.5-.4-.8-.4s-.6.1-.8.4c-.2.2-.3.5-.3 1z"/><g style="opacity:.5"><path class="st0" d="M0 6.1h5.5v2.2H1.1v5.8h2c.7 0 1.3.2 1.8.5.4.3.8.9 1.1 1.7.3.9.4 1.9.4 3.1 0 .9-.1 1.9-.3 2.6-.2.9-.5 1.5-.9 2.1-.4.5-1 .9-1.9.9H0V6.1zm1.1 16.7h2.2c.6 0 1.1-.3 1.4-.9s.5-1.4.5-2.4c0-.9-.1-1.4-.3-1.9-.2-.5-.4-.9-.7-1s-.8-.2-1.6-.2H1.1v6.4zM6.5 24.8 9.8 6.1H11l3.5 18.7h-1.3l-1-5.7H8.6l-.9 5.7H6.5zm2.4-7.7h2.9l-.9-5.1c-.3-1.5-.5-2.9-.6-3.9-.1 1.2-.3 2.4-.5 3.6l-.9 5.4zM16.5 6.1h5.1v16.4h.8V29h-1v-4.3h-5.6V29h-1v-6.5h.7c.7-2.2 1-6.9 1-13.7V6.1zm4 2.3h-2.9v1c0 1.5-.1 3.8-.2 6.5s-.4 5-.8 6.9h3.9V8.4zM23.9 24.8v-2.6H25v2.6h-1.1zM30.3 24.8V6.1h1.1v7.7h4.4V6.1h1.1v18.7h-1.1v-8.7h-4.4v8.7h-1.1zM38.8 24.8V6.1h6.1v2.2h-5V14h4.7v2.2h-4.7v6.3h5.2v2.2h-6.3zM55.5 24.8v-8.2h-1.3c-.3 0-.5 0-.6.2l-.5.5c-.2.2-.4.7-.6 1.2-.2.5-.5 1.3-.8 2.5l-1.1 4h-1.4l1.5-5.1c.3-1 .6-1.9.9-2.4.2-.3.4-.7.7-.9-.8-.2-1.4-.9-1.8-1.7-.4-.9-.6-2.1-.6-3.4 0-1 .1-1.9.4-2.7.2-.9.5-1.4.9-1.7.4-.3 1-.5 1.7-.5h3.7v18.7h-1.1v-.5zm0-16.6h-2.7c-.6 0-1.1.3-1.4.9-.2.7-.4 1.4-.4 2.2 0 .7.1 1.2.2 1.7s.4.9.7 1.2c.3.2.7.3 1.2.3h2.4V8.2zM58.4 24.8V6.1h3.2c.6 0 1.2.2 1.6.5.4.3.7 1 .9 1.7.2.9.3 1.5.3 2.4s-.1 1.5-.3 2.2c-.2.7-.5 1.2-.9 1.7.5.3.9.9 1.2 1.7.3.9.4 1.7.4 2.7 0 .9-.1 1.7-.3 2.4-.2.7-.4 1.4-.6 1.7-.2.3-.6.7-.9.9-.4.2-.8.3-1.4.3h-3.2v.5zM59.5 14h1.8c.5 0 .9 0 1.1-.2.3-.2.5-.5.6-.9.1-.5.2-1 .2-1.7s-.1-1.2-.2-1.7-.3-.9-.6-1c-.2-.2-.7-.3-1.3-.3h-1.7V14h.1zm0 8.6h2.1c.4 0 .6 0 .8-.2.3-.2.5-.3.6-.5.1-.2.3-.5.4-1 .1-.5.2-1 .2-1.5 0-.7-.1-1.4-.2-1.9-.2-.5-.4-.9-.7-1-.3-.2-.7-.3-1.2-.3h-2v6.4zM66.8 6.1h5.3v18.7H71V8.4h-3.1V18c0 1.9 0 3.4-.1 4.3s-.3 1.5-.5 2.1c-.3.5-.6.7-1 .7-.2 0-.5-.2-.9-.3l.2-2.2c.2.2.3.2.5.2.3 0 .4-.2.6-.7s.2-1.4.2-2.9l-.1-13.1zM79.5 24.8v-8.2h-1.3c-.3 0-.5 0-.6.2l-.5.5c-.2.2-.4.7-.6 1.2s-.5 1.3-.8 2.5l-1.1 4h-1.4l1.5-5.1c.3-1 .6-1.9.9-2.4.2-.3.4-.7.7-.9-.8-.2-1.4-.9-1.8-1.7s-.6-2.1-.6-3.4c0-1 .1-1.9.4-2.7.2-.9.5-1.4.9-1.7.4-.3 1-.5 1.7-.5h3.7v18.7h-1.1v-.5zm0-16.6h-2.7c-.6 0-1.1.3-1.4.9-.2.7-.4 1.4-.4 2.2 0 .7.1 1.2.2 1.7s.4.9.7 1.2c.3.2.7.3 1.2.3h2.4V8.2zM82.5 24.8V6.1h6.1v2.2h-5V14h4.7v2.2h-4.7v6.3h5.2v2.2h-6.3zM92.5 24.8V8.4h-2.8V6.1h6.7v2.2h-2.8v16.4h-1.1zM103.6 18.3l1.1.7c-.2 2.1-.7 3.6-1.3 4.6-.6 1-1.4 1.5-2.2 1.5-.9 0-1.7-.3-2.2-1.2-.6-.9-1-2.1-1.3-3.6s-.4-3.3-.4-5c0-1.9.2-3.6.5-5.1.3-1.4.8-2.6 1.4-3.3s1.3-1.2 2-1.2c.8 0 1.6.5 2.1 1.4.6 1 1 2.2 1.2 3.9l-1.1.5c-.2-1.4-.5-2.4-.9-2.9-.4-.7-.8-.9-1.4-.9s-1.2.3-1.6 1-.7 1.5-.9 2.7c-.2 1.2-.3 2.4-.3 3.6 0 1.5.1 2.9.3 4.1.2 1.2.5 2.1 1 2.6.4.5.9.9 1.4.9.6 0 1.2-.3 1.6-1.2.5-.4.8-1.6 1-3.1zM111.6 24.8v-8.2h-1.3c-.3 0-.5 0-.6.2l-.5.5c-.2.2-.4.7-.6 1.2s-.5 1.4-.8 2.6l-1.1 3.9h-1.4l1.5-5.1c.3-1 .6-1.9.9-2.4.2-.3.4-.7.7-.9-.8-.2-1.4-.9-1.8-1.7s-.6-2.1-.6-3.4c0-1 .1-1.9.4-2.7.2-.9.5-1.4.9-1.7.4-.3 1-.5 1.7-.5h3.7v18.7h-1.1v-.5zm0-16.6H109c-.6 0-1.1.3-1.4.9-.3.5-.4 1.4-.4 2.2 0 .7.1 1.2.2 1.7s.4.9.7 1.2c.3.2.7.3 1.2.3h2.4l-.1-6.3zM118.5 6.1h5.3v18.7h-1.1V8.4h-3.1V18c0 1.9 0 3.4-.1 4.3s-.3 1.5-.5 2.1c-.3.5-.6.7-1 .7-.2 0-.5-.2-.9-.3l.2-2.2c.2.2.3.2.5.2.3 0 .4-.2.6-.7s.2-1.4.2-2.9l-.1-13.1zM125.7 24.8V6.1h6.1v2.2h-5V14h4.7v2.2h-4.7v6.3h5.2v2.2h-6.3zM133.5 6.1h1.1v8.2c.5 0 .9-.2 1.1-.7.2-.5.5-1.5.8-3.1.2-1.2.4-2.1.6-2.6.2-.5.4-.9.6-1.2.3-.3.6-.5.9-.5h.7v2.1h-.4c-.4 0-.6.2-.8.5-.2.3-.4 1.2-.6 2.4-.3 1.5-.5 2.6-.7 2.9s-.4.7-.7 1c.5.3 1.1 1.4 1.6 3.3l1.7 6.2H138l-1.4-5.1c-.4-1.4-.7-2.4-1-2.9-.3-.5-.6-.9-1-.9v8.7h-1.1V6.1zM139.5 24.8l3.2-18.7h1.2l3.5 18.7h-1.3l-1-5.7h-3.5l-.9 5.7h-1.2zm2.4-7.7h2.9l-.9-5.1c-.3-1.5-.5-2.9-.6-3.9-.1 1.2-.3 2.4-.5 3.6l-.9 5.4zM148.3 24.8V6.1h3.2c.6 0 1 0 1.3.2.4.2.8.5 1 .9.3.5.5 1 .7 1.9.2.9.3 1.5.3 2.6 0 1.5-.2 2.9-.7 4.1-.5 1-1.3 1.7-2.5 1.7h-2.2V25h-1.1v-.2zm1.1-9.7h2.2c.7 0 1.2-.3 1.5-.9.3-.5.5-1.4.5-2.6 0-.9-.1-1.4-.3-2.1-.2-.5-.4-.9-.7-1-.2-.2-.5-.2-1-.2h-2.2v6.8zM162 18.3l1.1.7c-.2 2.1-.7 3.6-1.3 4.6s-1.4 1.5-2.2 1.5c-.9 0-1.7-.3-2.2-1.2-.6-.9-1-2.1-1.3-3.6s-.4-3.3-.4-5c0-1.9.2-3.6.5-5.1.3-1.4.8-2.6 1.4-3.3.6-.7 1.3-1.2 2-1.2.8 0 1.6.5 2.1 1.4.6 1 1 2.2 1.2 3.9l-1.1.5c-.2-1.4-.5-2.4-.9-2.9-.4-.7-.8-.9-1.4-.9-.6 0-1.2.3-1.6 1-.4.7-.7 1.5-.9 2.7s-.3 2.4-.3 3.6c0 1.5.1 2.9.3 4.1s.5 2.1 1 2.6c.4.5.9.9 1.4.9.6 0 1.2-.3 1.6-1.2.6-.4.9-1.6 1-3.1zM166.3 24.8V8.4h-2.8V6.1h6.7v2.2h-2.8v16.4h-1.1zM171.3 24.8V6.1h3.2c.6 0 1.2.2 1.6.5.4.3.7 1 .9 1.7.2.9.3 1.5.3 2.4s-.1 1.5-.3 2.2c-.2.7-.5 1.2-.9 1.7.5.3.9.9 1.2 1.7.3.9.4 1.7.4 2.7 0 .9-.1 1.7-.3 2.4-.2.7-.4 1.4-.6 1.7-.2.3-.6.7-.9.9-.4.2-.8.3-1.4.3h-3.2v.5zm1.1-10.8h1.8c.5 0 .9 0 1.1-.2.3-.2.5-.5.6-.9.1-.5.2-1 .2-1.7s-.1-1.2-.2-1.7-.3-.9-.6-1c-.2-.2-.7-.3-1.3-.3h-1.7l.1 5.8zm0 8.6h2.1c.4 0 .6 0 .8-.2.3-.2.5-.3.6-.5.1-.2.3-.5.4-1 .1-.5.2-1 .2-1.5 0-.7-.1-1.4-.2-1.9-.2-.5-.4-.9-.7-1-.3-.2-.7-.3-1.2-.3h-2v6.4zM179.2 24.8V6.1h6.1v2.2h-5V14h4.7v2.2h-4.7v6.3h5.2v2.2h-6.3zM187.1 24.8V6.1h1.1v7.7h4.4V6.1h1.1v18.7h-1.1v-8.7h-4.4v8.7h-1.1zM195.6 24.8V6.1h1.1v7.7h4.4V6.1h1.1v18.7h-1.1v-8.7h-4.4v8.7h-1.1zM204.2 6.1h1.1V14h2c1.3 0 2.2.5 2.6 1.5.4 1 .6 2.2.6 3.6s-.2 2.7-.7 3.8c-.4 1-1.3 1.5-2.5 1.5h-3.2l.1-18.3zm1.1 16.7h2c.7 0 1.2-.3 1.5-.9s.5-1.4.5-2.6c0-.9-.1-1.4-.3-1.9s-.4-.9-.7-1c-.3-.2-.8-.2-1.5-.2h-1.5v6.6zm6.3-16.7h1.1v18.7h-1.1V6.1zM214.6 24.8V6.1h1.7l2 13.2c.2 1.2.3 2.2.4 2.7.1-.7.2-1.7.4-2.9l2-13h1.5v18.7h-1.1V9.2L219 24.8h-1l-2.4-15.9v15.9h-1zM233.7 18.3l1.1.7c-.2 2.1-.7 3.6-1.3 4.6s-1.4 1.5-2.2 1.5c-.9 0-1.7-.3-2.2-1.2-.6-.9-1-2.1-1.3-3.6s-.4-3.3-.4-5c0-1.9.2-3.6.5-5.1.3-1.4.8-2.6 1.4-3.3.6-.7 1.3-1.2 2-1.2.8 0 1.6.5 2.1 1.4s1 2.2 1.2 3.9l-1.1.5c-.2-1.4-.5-2.4-.9-2.9-.4-.7-.8-.9-1.4-.9-.6 0-1.2.3-1.6 1-.4.7-.7 1.5-.9 2.7s-.3 2.4-.3 3.6c0 1.5.1 2.9.3 4.1s.5 2.1 1 2.6c.4.5.9.9 1.4.9.6 0 1.2-.3 1.6-1.2.6-.4.9-1.6 1-3.1zM236.2 24.8V6.1h3.2c.6 0 1 0 1.3.2.4.2.8.5 1 .9.3.5.5 1 .7 1.9.2.9.3 1.5.3 2.6 0 1.5-.2 2.9-.7 4.1-.5 1-1.3 1.7-2.5 1.7h-2.2V25h-1.1v-.2zm1.1-9.7h2.2c.7 0 1.2-.3 1.5-.9.3-.5.5-1.4.5-2.6 0-.9-.1-1.4-.3-2.1-.2-.5-.4-.9-.7-1-.2-.2-.5-.2-1-.2h-2.2v6.8zM244.1 24.8V6.1h6.1v2.2h-5V14h4.7v2.2h-4.7v6.3h5.2v2.2h-6.3zM252.7 6.1h5.1v16.4h.8V29h-1v-4.3H252V29h-1v-6.5h.7c.7-2.2 1-6.9 1-13.7V6.1zm4.1 2.3h-2.9v1c0 1.5-.1 3.8-.2 6.5s-.4 5-.8 6.9h3.9V8.4zM266 18.3l1.1.7c-.2 2.1-.7 3.6-1.3 4.6-.6 1-1.4 1.5-2.2 1.5-.9 0-1.7-.3-2.2-1.2-.6-.9-1-2.1-1.3-3.6s-.4-3.3-.4-5c0-1.9.2-3.6.5-5.1.3-1.4.8-2.6 1.4-3.3s1.3-1.2 2-1.2c.8 0 1.6.5 2.1 1.4.6 1 1 2.2 1.2 3.9l-1.1.5c-.2-1.4-.5-2.4-.9-2.9-.4-.7-.8-.9-1.4-.9s-1.2.3-1.6 1-.7 1.5-.9 2.7c-.2 1.2-.3 2.4-.3 3.6 0 1.5.1 2.9.3 4.1.2 1.2.5 2.1 1 2.6.4.5.9.9 1.4.9.6 0 1.2-.3 1.6-1.2.5-.4.8-1.6 1-3.1zM270.2 24.8V8.4h-2.8V6.1h6.7v2.2h-2.8v16.4h-1.1zM275.3 24.8V6.1h3.2c.6 0 1.2.2 1.6.5.4.3.7 1 .9 1.7.2.9.3 1.5.3 2.4s-.1 1.5-.3 2.2c-.2.7-.5 1.2-.9 1.7.5.3.9.9 1.2 1.7.3.9.4 1.7.4 2.7 0 .9-.1 1.7-.3 2.4-.2.7-.4 1.4-.6 1.7-.2.3-.6.7-.9.9-.4.2-.8.3-1.4.3h-3.2v.5zm1.1-10.8h1.8c.5 0 .9 0 1.1-.2.3-.2.5-.5.6-.9.1-.5.2-1 .2-1.7s-.1-1.2-.2-1.7-.3-.9-.6-1c-.2-.2-.7-.3-1.3-.3h-1.7V14h.1zm0 8.6h2.1c.4 0 .6 0 .8-.2.3-.2.5-.3.6-.5.1-.2.3-.5.4-1s.2-1 .2-1.5c0-.7-.1-1.4-.2-1.9-.2-.5-.4-.9-.7-1-.3-.2-.7-.3-1.2-.3h-2v6.4zM282.4 15.7c0-3.1.4-5.5 1.1-7.2.8-1.7 1.7-2.6 2.9-2.6.8 0 1.5.3 2.1 1.2s1.1 1.9 1.4 3.4.5 3.1.5 5-.2 3.6-.5 5.1c-.3 1.5-.8 2.6-1.5 3.4-.6.7-1.3 1.2-2.1 1.2s-1.5-.3-2.1-1.2-1.1-2.1-1.4-3.4c-.2-1.6-.4-3.1-.4-4.9zm1.2 0c0 2.2.3 3.9.8 5.3s1.2 1.9 2.1 1.9c.8 0 1.5-.7 2.1-1.9.5-1.4.8-3.1.8-5.5 0-1.5-.1-2.9-.3-3.9-.2-1.2-.6-2.1-1-2.6-.4-.7-1-.9-1.5-.9-.8 0-1.5.7-2 1.9-.7.9-1 3-1 5.7zM291.9 24.8V6.1h1.7l2 13.2c.2 1.2.3 2.2.4 2.7.1-.7.2-1.7.4-2.9l2-13h1.5v18.7h-1.1V9.2l-2.5 15.6h-1L293 8.9v15.9h-1.1z"/></g></svg>