<?xml version="1.0" encoding="utf-8"?>
<!-- Generator: Adobe Illustrator 25.2.3, SVG Export Plug-In . SVG Version: 6.00 Build 0)  -->
<svg version="1.1" id="Layer_1" xmlns="http://www.w3.org/2000/svg" xmlns:xlink="http://www.w3.org/1999/xlink" x="0px" y="0px"
	 viewBox="0 0 25.9 290" style="enable-background:new 0 0 25.9 290;" xml:space="preserve">
<style type="text/css">
	.st0{fill:#FFFFFF;}
</style>
<g>
	<path class="st0" d="M25.5,280.3l-25,9.7v-3.6l18.2-6.5c1.5-0.5,2.8-1,4.1-1.3c-1.4-0.4-2.7-0.8-4.1-1.3l-18.2-6.8v-3.4l25,9.8
		V280.3z"/>
	<path class="st0" d="M25.5,263.6h-25v-3.3h25V263.6z"/>
	<path class="st0" d="M17.4,255.5l-0.3-3.1c1.3-0.1,2.3-0.5,3.1-1c0.8-0.5,1.5-1.4,1.9-2.5c0.5-1.1,0.7-2.4,0.7-3.8
		c0-1.3-0.2-2.4-0.6-3.3c-0.4-1-0.9-1.7-1.5-2.2c-0.7-0.5-1.4-0.7-2.1-0.7c-0.8,0-1.5,0.2-2.1,0.7c-0.6,0.5-1.1,1.2-1.5,2.3
		c-0.3,0.7-0.7,2.2-1.2,4.5c-0.6,2.3-1.1,3.9-1.6,4.8c-0.6,1.2-1.4,2.1-2.3,2.7s-2,0.9-3.1,0.9c-1.3,0-2.4-0.4-3.5-1.1
		c-1.1-0.7-1.9-1.8-2.5-3.1S0,247.5,0,245.8c0-1.9,0.3-3.5,0.9-4.9c0.6-1.4,1.5-2.5,2.6-3.3s2.5-1.2,3.9-1.2l0.2,3.2
		c-1.6,0.2-2.8,0.7-3.6,1.7c-0.8,1-1.2,2.4-1.2,4.4c0,2,0.4,3.5,1.1,4.4c0.7,0.9,1.6,1.4,2.7,1.4c0.9,0,1.6-0.3,2.2-1
		c0.6-0.6,1.2-2.3,1.8-5c0.6-2.7,1.1-4.5,1.6-5.5c0.7-1.5,1.5-2.5,2.6-3.2s2.2-1,3.6-1c1.3,0,2.6,0.4,3.8,1.1
		c1.2,0.8,2.1,1.9,2.7,3.3c0.7,1.4,1,3,1,4.8c0,2.3-0.3,4.2-1,5.7c-0.7,1.5-1.7,2.7-3,3.6S19.1,255.5,17.4,255.5z"/>
	<path class="st0" d="M17.9,232.7h-3.1v-9.4h3.1V232.7z"/>
	<path class="st0" d="M25.5,219.6h-25v-3.3h12.4L0.4,203.8v-4.5l10.1,10.5l14.9-11v4.4l-12.7,8.9l4,4.1h8.7V219.6z"/>
	<path class="st0" d="M25.5,198.1h-3.1l-16-12.8c-1.1-0.9-2.1-1.8-3-2.6v14h-3v-17.9h3l17.4,14.1l1.8,1.5v-16h3V198.1z"/>
	<path class="st0" d="M17.9,176.4h-3.1v-9.4h3.1V176.4z"/>
	<path class="st0" d="M13.1,164.4c-3,0-5.3-0.3-7.1-0.9c-1.8-0.6-3.2-1.5-4.2-2.7c-1-1.2-1.5-2.7-1.5-4.5c0-1.3,0.3-2.5,0.8-3.5
		c0.5-1,1.3-1.8,2.3-2.5s2.3-1.2,3.7-1.6c1.5-0.4,3.4-0.6,5.9-0.6c2.9,0,5.3,0.3,7.1,0.9c1.8,0.6,3.2,1.5,4.2,2.7
		c1,1.2,1.5,2.7,1.5,4.6c0,2.4-0.9,4.3-2.6,5.7C21.2,163.5,17.8,164.4,13.1,164.4z M13.1,161.2c4.1,0,6.8-0.5,8.2-1.4s2-2.1,2-3.6
		s-0.7-2.6-2-3.6c-1.4-1-4.1-1.4-8.2-1.4c-4.1,0-6.9,0.5-8.2,1.4c-1.4,1-2,2.2-2,3.6c0,1.4,0.6,2.5,1.8,3.4
		C6.2,160.7,9,161.2,13.1,161.2z"/>
	<path class="st0" d="M25.5,133.3v3.1H5.9c0.7,0.7,1.4,1.7,2.1,2.9s1.2,2.3,1.6,3.2h-3c-0.8-1.7-1.8-3.2-2.9-4.5
		c-1.1-1.3-2.3-2.2-3.3-2.7v-2H25.5z"/>
	<path class="st0" d="M22.5,109.3h3v16.5c-0.7,0-1.5-0.1-2.1-0.4c-1.1-0.4-2.2-1.1-3.3-2s-2.4-2.3-3.8-4c-2.2-2.7-4-4.6-5.3-5.5
		c-1.3-1-2.5-1.4-3.7-1.4c-1.2,0-2.2,0.4-3.1,1.3c-0.8,0.9-1.3,2-1.3,3.4c0,1.5,0.4,2.7,1.3,3.6c0.9,0.9,2.1,1.3,3.7,1.3l-0.3,3.2
		c-2.4-0.2-4.2-1-5.4-2.4c-1.2-1.4-1.9-3.3-1.9-5.7c0-2.4,0.7-4.3,2-5.7c1.3-1.4,3-2.1,5-2.1c1,0,2,0.2,3,0.6c1,0.4,2,1.1,3.1,2
		s2.5,2.5,4.4,4.7c1.5,1.8,2.6,3,3.1,3.6c0.6,0.5,1.1,1,1.7,1.3V109.3z"/>
	<path class="st0" d="M13.1,106c-3,0-5.3-0.3-7.1-0.9c-1.8-0.6-3.2-1.5-4.2-2.7c-1-1.2-1.5-2.7-1.5-4.5c0-1.3,0.3-2.5,0.8-3.5
		c0.5-1,1.3-1.8,2.3-2.5s2.3-1.2,3.7-1.6c1.5-0.4,3.4-0.6,5.9-0.6c2.9,0,5.3,0.3,7.1,0.9c1.8,0.6,3.2,1.5,4.2,2.7
		c1,1.2,1.5,2.7,1.5,4.6c0,2.4-0.9,4.3-2.6,5.7C21.2,105.2,17.8,106,13.1,106z M13.1,102.9c4.1,0,6.8-0.5,8.2-1.4s2-2.1,2-3.6
		s-0.7-2.6-2-3.6c-1.4-1-4.1-1.4-8.2-1.4c-4.1,0-6.9,0.5-8.2,1.4c-1.4,1-2,2.2-2,3.6c0,1.4,0.6,2.5,1.8,3.4
		C6.2,102.3,9,102.9,13.1,102.9z"/>
	<path class="st0" d="M22.5,70.4h3V87c-0.7,0-1.5-0.1-2.1-0.4c-1.1-0.4-2.2-1.1-3.3-2s-2.4-2.3-3.8-4c-2.2-2.7-4-4.6-5.3-5.5
		c-1.3-1-2.5-1.4-3.7-1.4c-1.2,0-2.2,0.4-3.1,1.3c-0.8,0.9-1.3,2-1.3,3.4c0,1.5,0.4,2.7,1.3,3.6c0.9,0.9,2.1,1.3,3.7,1.3l-0.3,3.2
		c-2.4-0.2-4.2-1-5.4-2.4c-1.2-1.4-1.9-3.3-1.9-5.7c0-2.4,0.7-4.3,2-5.7c1.3-1.4,3-2.1,5-2.1c1,0,2,0.2,3,0.6c1,0.4,2,1.1,3.1,2
		s2.5,2.5,4.4,4.7c1.5,1.8,2.6,3,3.1,3.6c0.6,0.5,1.1,1,1.7,1.3V70.4z"/>
	<path class="st0" d="M18.9,67.1l-0.3-3.2c1.6-0.2,2.8-0.8,3.5-1.7c0.8-0.9,1.2-1.9,1.2-3.2c0-1.5-0.6-2.7-1.7-3.8s-2.6-1.5-4.4-1.5
		c-1.8,0-3.1,0.5-4.1,1.5c-1,1-1.5,2.3-1.5,3.9c0,1,0.2,1.9,0.7,2.7c0.5,0.8,1,1.4,1.8,1.9l-0.4,2.9L0.8,64.2V51.7h2.9v10l6.7,1.3
		c-1-1.5-1.6-3.1-1.6-4.7c0-2.2,0.8-4,2.3-5.5c1.5-1.5,3.5-2.3,5.8-2.3c2.3,0,4.2,0.7,5.9,2c2,1.6,3,3.8,3,6.6
		c0,2.3-0.6,4.1-1.9,5.6C22.7,66.1,21,66.9,18.9,67.1z"/>
	<path class="st0" d="M17.9,48h-3.1v-9.4h3.1V48z"/>
	<path class="st0" d="M13.1,36c-3,0-5.3-0.3-7.1-0.9c-1.8-0.6-3.2-1.5-4.2-2.7c-1-1.2-1.5-2.7-1.5-4.5c0-1.3,0.3-2.5,0.8-3.5
		c0.5-1,1.3-1.8,2.3-2.5s2.3-1.2,3.7-1.6c1.5-0.4,3.4-0.6,5.9-0.6c2.9,0,5.3,0.3,7.1,0.9c1.8,0.6,3.2,1.5,4.2,2.7
		c1,1.2,1.5,2.7,1.5,4.6c0,2.4-0.9,4.3-2.6,5.7C21.2,35.2,17.8,36,13.1,36z M13.1,32.9c4.1,0,6.8-0.5,8.2-1.4s2-2.1,2-3.6
		s-0.7-2.6-2-3.6c-1.4-1-4.1-1.4-8.2-1.4c-4.1,0-6.9,0.5-8.2,1.4c-1.4,1-2,2.2-2,3.6c0,1.4,0.6,2.5,1.8,3.4
		C6.2,32.4,9,32.9,13.1,32.9z"/>
	<path class="st0" d="M18.9,16.6l-0.3-3.2c1.6-0.2,2.8-0.8,3.5-1.7c0.8-0.9,1.2-1.9,1.2-3.2c0-1.5-0.6-2.7-1.7-3.8s-2.6-1.5-4.4-1.5
		c-1.8,0-3.1,0.5-4.1,1.5c-1,1-1.5,2.3-1.5,3.9c0,1,0.2,1.9,0.7,2.7c0.5,0.8,1,1.4,1.8,1.9L13.6,16L0.8,13.6V1.2h2.9v10l6.7,1.3
		c-1-1.5-1.6-3.1-1.6-4.7c0-2.2,0.8-4,2.3-5.5C12.6,0.8,14.6,0,17,0c2.3,0,4.2,0.7,5.9,2c2,1.6,3,3.8,3,6.6c0,2.3-0.6,4.1-1.9,5.6
		C22.7,15.6,21,16.4,18.9,16.6z"/>
</g>
</svg>
