<svg version="1.1" id="Layer_1" xmlns="http://www.w3.org/2000/svg" x="0" y="0" viewBox="0 0 346.4 100.2" style="enable-background:new 0 0 346.4 100.2" xml:space="preserve"><style>.st0{fill:#147bb8}</style><path class="st0" d="M.1.6h30.2v38h-7.7V7H7.7v31.6H.1V.6zM36.6 19.9c0-3.9.6-7.1 1.7-9.7.9-1.9 2-3.7 3.5-5.2s3.1-2.7 4.9-3.4C49.1.6 51.8.1 54.9.1 60.5 0 65 1.7 68.4 5.2c3.4 3.5 5 8.3 5 14.5 0 6.1-1.7 10.9-5 14.4s-7.8 5.2-13.4 5.2c-5.6 0-10.1-1.7-13.5-5.2-3.3-3.4-4.9-8.2-4.9-14.2zm7.9-.3c0 4.3 1 7.6 3 9.8 2 2.2 4.5 3.3 7.6 3.3s5.6-1.1 7.5-3.3c2-2.2 2.9-5.5 2.9-9.9s-1-7.6-2.9-9.7c-1.9-2.1-4.4-3.2-7.6-3.2s-5.7 1.1-7.6 3.3c-2 2.1-2.9 5.3-2.9 9.7zM81.8.6H108v31.6h3.3v14.7H105v-8.3H81.1v8.3h-6.4V32.3h3.2c1.6-3.2 2.6-7 3.1-11.3.5-4.3.8-9.7.8-16.3V.6zM89.1 7c0 11.5-1 20-3.1 25.2h14.4V7H89.1zM119.6.6h26.3v31.6h3.3v14.7h-6.4v-8.3h-23.9v8.3h-6.4V32.3h3.2c1.6-3.2 2.6-7 3.1-11.3.5-4.3.8-9.7.8-16.3V.6zm7.3 6.4c0 11.5-1 20-3.1 25.2h14.4V7h-11.3zM154.3 38.6V.6h28.2V7H162v8.4h19.1v6.4H162v10.3h21.2v6.4h-28.9zM189.7 38.6V.6H202c4.7 0 7.7.2 9.1.6 2.2.6 4 1.8 5.5 3.7 1.5 1.9 2.2 4.4 2.2 7.4 0 2.3-.4 4.3-1.3 5.9-.8 1.6-1.9 2.8-3.2 3.7-1.3.9-2.6 1.5-4 1.8-1.8.4-4.5.5-8 .5h-5v14.3h-7.6zm7.7-31.5v10.8h4.2c3 0 5-.2 6.1-.6 1-.4 1.8-1 2.4-1.9.6-.8.9-1.8.9-3 0-1.4-.4-2.5-1.2-3.4-.8-.9-1.8-1.5-3.1-1.7-.9-.2-2.8-.3-5.5-.3h-3.8zM248.3.6v16.2c1.3-.1 2.2-.6 2.9-1.4.7-.8 1.6-2.8 2.7-5.8 1.5-4 3.1-6.5 4.7-7.6 1.6-1.1 4.2-1.6 7.9-1.6h1.1v5.7h-1.1c-1.6 0-2.7.2-3.4.6-.7.4-1.3 1-1.8 1.8-.4.8-1.1 2.4-2 4.9-.5 1.3-1 2.4-1.5 3.3-.5.9-1.5 1.7-2.9 2.5 1.7.5 3.1 1.5 4.2 2.9 1.1 1.5 2.3 3.5 3.7 6.2l5.2 10.4h-9l-4.6-9.8c-.1-.1-.2-.4-.4-.8-.1-.3-.4-.9-.9-1.8-1-1.8-1.8-3-2.4-3.5-.6-.5-1.4-.8-2.3-.8v16.6h-7.5V22c-.9 0-1.6.2-2.3.7-.6.5-1.4 1.6-2.4 3.5-.5 1-.9 1.6-1 1.8-.2.3-.3.5-.4.8l-4.6 9.8h-9l5.2-10.4c1.3-2.6 2.5-4.6 3.6-6.1s2.6-2.5 4.3-3c-1.4-.8-2.3-1.6-2.9-2.5-.5-.9-1.1-2-1.5-3.3-.9-2.4-1.5-4-2-4.8-.4-.8-1-1.4-1.8-1.8-.7-.4-1.9-.6-3.6-.6h-1V.4h1.1c3.7 0 6.4.5 7.9 1.6 1.6 1.1 3.1 3.6 4.6 7.5 1.2 3 2.1 5 2.7 5.8.6.8 1.6 1.3 2.9 1.4V.6h7.6zM272.5.6h7.7v16.2c1.7-.2 2.9-.6 3.5-1.3.6-.7 1.5-2.7 2.8-5.9 1.6-4.1 3.2-6.7 4.8-7.7 1.6-1 4.2-1.5 7.7-1.5h1.1v5.7L299 6c-1.6 0-2.7.2-3.4.6s-1.3 1-1.8 1.8c-.4.8-1.1 2.4-2 4.9-.5 1.3-1 2.4-1.5 3.3-.5.9-1.5 1.7-2.9 2.5 1.7.5 3.1 1.5 4.2 2.9 1.1 1.5 2.3 3.5 3.7 6.2l5.2 10.4h-9l-4.5-9.8c-.1-.1-.2-.4-.4-.8-.1-.1-.4-.7-1-1.8-1-1.9-1.8-3-2.4-3.5-.6-.5-1.6-.7-2.9-.7v16.6h-7.7V.6zM339 38.6h-8.3l-3.3-8.6h-15.2l-3.1 8.6H301l14.8-38h8.1l15.1 38zm-14.1-15-5.2-14.1-5.1 14.1h10.3zM0 61.5h15.2c3 0 5.2.1 6.7.4 1.5.3 2.8.8 4 1.6 1.2.8 2.1 1.9 2.9 3.2.8 1.3 1.2 2.8 1.2 4.4 0 1.8-.5 3.4-1.4 4.9-1 1.5-2.3 2.6-3.9 3.3 2.3.7 4.1 1.8 5.3 3.4 1.2 1.6 1.9 3.5 1.9 5.7 0 1.7-.4 3.4-1.2 5-.8 1.6-1.9 2.9-3.3 3.9s-3.1 1.6-5.1 1.8c-1.3.1-4.4.2-9.3.3H0V61.5zm7.7 6.3v8.8h5c3 0 4.8 0 5.6-.1 1.3-.2 2.3-.6 3.1-1.4.8-.8 1.1-1.7 1.1-3 0-1.2-.3-2.1-1-2.9-.6-.7-1.6-1.2-2.9-1.3-.8-.1-2.9-.1-6.6-.1H7.7zm0 15.1v10.2h7.1c2.8 0 4.5-.1 5.3-.2 1.1-.2 2.1-.7 2.8-1.5.7-.8 1.1-1.9 1.1-3.2 0-1.1-.3-2.1-.8-2.9-.6-.8-1.4-1.4-2.4-1.7-1-.4-3.3-.5-6.8-.5H7.7zM69.9 99.5h-8.3l-3.3-8.6H43.1L40 99.5h-8.1l14.8-38h8.1l15.1 38zm-14.1-15-5.2-14.1-5.1 14.1h10.3zM74.1 61.5h7.7v31.6h11V61.5h7.6v31.6h11.3V61.5h7.6l.1 38H74.1v-38zM127.4 61.5h7.2v25.3L150 61.5h7.6v38h-7.2V74.7L135 99.5h-7.7v-38zM161.6 99.5l13-19.8-11.8-18.2h9l7.6 12.2 7.5-12.2h8.9L183.9 80l13 19.5h-9.3l-8.4-13.1-8.4 13.1h-9.2zM216 61.5h25.7v6.4h-18.1v31.6H216v-38zM247.1 61.5h26.6v38H266V67.9h-11.4v16.2c0 4.6-.2 7.9-.5 9.7-.3 1.8-1.1 3.3-2.3 4.3s-3.1 1.5-5.6 1.5c-.9 0-2.5-.1-4.9-.3v-5.9h1.7c1.6 0 2.7-.2 3.2-.6.6-.4.8-1.5.8-3.2V61.5zM315.9 99.5h-8.3l-3.3-8.6H289l-3.1 8.6h-8.1l14.8-38h8.1l15.2 38zm-14.2-15-5.2-14.1-5.1 14.1h10.3zM325.3 71.9l-7.5-1.7c1.6-6.2 6.2-9.3 13.7-9.3 4.5 0 7.8 1 10.1 2.9 2.3 2 3.4 4.3 3.4 6.9 0 1.8-.5 3.5-1.6 4.9-1 1.5-2.6 2.7-4.7 3.8 2.5.9 4.4 2.1 5.7 3.7 1.3 1.6 1.9 3.5 1.9 5.8 0 3.3-1.2 6-3.7 8.1-2.4 2.1-6.1 3.1-11 3.1-4 0-7.1-.7-9.4-2-2.3-1.3-4-3.8-5.2-7.4l7-2.3c.7 2.3 1.7 3.8 2.9 4.4 1.2.7 2.7 1 4.4 1 2.4 0 4.2-.5 5.3-1.6 1.1-1 1.7-2.2 1.7-3.6 0-1.6-.6-2.8-1.9-3.8-1.3-1-3.1-1.4-5.7-1.4H329v-5.7h.9c2.3 0 4.1-.5 5.4-1.6 1.2-1.1 1.9-2.5 1.9-4.2 0-1.4-.5-2.5-1.5-3.5s-2.5-1.4-4.3-1.4c-3.1.1-5.2 1.7-6.1 4.9z"/></svg>