<?xml version="1.0" encoding="utf-8"?>
<!-- Generator: Adobe Illustrator 25.2.3, SVG Export Plug-In . SVG Version: 6.00 Build 0)  -->
<svg version="1.1" id="Layer_1" xmlns="http://www.w3.org/2000/svg" xmlns:xlink="http://www.w3.org/1999/xlink" x="0px" y="0px"
	 viewBox="0 0 262 72.7" style="enable-background:new 0 0 262 72.7;" xml:space="preserve">
<style type="text/css">
	.st0{fill:#147BB8;}
</style>
<g>
	<path class="st0" d="M9.1,8.2l1.6,0.4c-0.3,1.3-0.9,2.3-1.8,3c-0.9,0.7-1.9,1-3.2,1c-1.3,0-2.4-0.3-3.2-0.8
		c-0.8-0.5-1.4-1.3-1.9-2.3S0,7.4,0,6.3C0,5,0.2,3.9,0.7,3C1.2,2,1.9,1.3,2.8,0.8c0.9-0.5,1.9-0.7,3-0.7C7,0.1,8,0.4,8.8,1
		s1.4,1.5,1.7,2.6L9,4C8.7,3.1,8.3,2.5,7.7,2.1c-0.5-0.4-1.2-0.6-2-0.6C4.8,1.5,4,1.7,3.4,2.1S2.3,3.2,2,3.9
		C1.8,4.7,1.7,5.5,1.7,6.3c0,1,0.2,1.9,0.5,2.7c0.3,0.8,0.8,1.3,1.4,1.7c0.6,0.4,1.3,0.6,2.1,0.6c0.9,0,1.7-0.3,2.3-0.8
		C8.5,10,8.9,9.2,9.1,8.2z"/>
	<path class="st0" d="M12.6,3.6h7v8.8H18V4.9h-4v7.6h-1.5V3.6z"/>
	<path class="st0" d="M21.2,8.1c0-1.6,0.5-2.8,1.4-3.6c0.8-0.7,1.7-1,2.8-1c1.2,0,2.2,0.4,3,1.2c0.8,0.8,1.2,1.9,1.2,3.3
		c0,1.1-0.2,2-0.5,2.7c-0.3,0.7-0.8,1.2-1.5,1.5c-0.6,0.4-1.4,0.5-2.1,0.5c-1.2,0-2.2-0.4-3-1.2S21.2,9.5,21.2,8.1z M22.7,8.1
		c0,1.1,0.2,2,0.7,2.5c0.5,0.6,1.1,0.8,1.9,0.8c0.7,0,1.4-0.3,1.9-0.8c0.5-0.6,0.7-1.4,0.7-2.6c0-1.1-0.2-1.9-0.7-2.5
		c-0.5-0.6-1.1-0.8-1.8-0.8c-0.7,0-1.4,0.3-1.9,0.8C23,6.1,22.7,6.9,22.7,8.1z"/>
	<path class="st0" d="M37,9.2l1.5,0.2c-0.2,1-0.6,1.8-1.2,2.4c-0.7,0.6-1.5,0.9-2.4,0.9c-1.2,0-2.2-0.4-2.9-1.2
		c-0.7-0.8-1.1-1.9-1.1-3.4c0-1,0.2-1.8,0.5-2.5S32,4.3,32.7,4c0.6-0.4,1.3-0.5,2.1-0.5c1,0,1.7,0.2,2.3,0.7c0.6,0.5,1,1.2,1.2,2.1
		l-1.5,0.2c-0.1-0.6-0.4-1-0.7-1.3s-0.8-0.4-1.3-0.4c-0.8,0-1.4,0.3-1.8,0.8C32.5,6,32.3,6.9,32.3,8c0,1.2,0.2,2,0.7,2.6
		c0.5,0.5,1,0.8,1.8,0.8c0.6,0,1.1-0.2,1.5-0.5C36.6,10.5,36.9,10,37,9.2z"/>
	<path class="st0" d="M39.3,8.1c0-1.6,0.5-2.8,1.4-3.6c0.8-0.7,1.7-1,2.8-1c1.2,0,2.2,0.4,3,1.2c0.8,0.8,1.2,1.9,1.2,3.3
		c0,1.1-0.2,2-0.5,2.7c-0.3,0.7-0.8,1.2-1.5,1.5c-0.6,0.4-1.4,0.5-2.1,0.5c-1.2,0-2.2-0.4-3-1.2S39.3,9.5,39.3,8.1z M40.9,8.1
		c0,1.1,0.2,2,0.7,2.5c0.5,0.6,1.1,0.8,1.9,0.8c0.7,0,1.4-0.3,1.9-0.8c0.5-0.6,0.7-1.4,0.7-2.6c0-1.1-0.2-1.9-0.7-2.5
		c-0.5-0.6-1.1-0.8-1.8-0.8c-0.7,0-1.4,0.3-1.9,0.8C41.1,6.1,40.9,6.9,40.9,8.1z"/>
	<path class="st0" d="M55.8,0l1.3,0c-0.1,0.6-0.2,1-0.4,1.2S56.3,1.6,56,1.7S55,1.8,54.1,1.8c-1.2,0-2.1,0.1-2.5,0.4s-0.8,0.6-1,1.1
		c-0.2,0.5-0.3,1.2-0.3,2c0.4-0.6,0.8-1,1.3-1.3c0.5-0.3,1.1-0.4,1.7-0.4c1.2,0,2.1,0.4,2.9,1.2c0.8,0.8,1.1,1.9,1.1,3.2
		c0,1-0.2,1.9-0.6,2.5s-0.8,1.2-1.4,1.5c-0.5,0.4-1.2,0.5-2.1,0.5c-1,0-1.9-0.2-2.4-0.7c-0.6-0.5-1-1.1-1.3-1.8
		c-0.3-0.7-0.5-2-0.5-3.9c0-2.3,0.4-3.9,1.2-4.7c0.8-0.8,2-1.2,3.6-1.2c1,0,1.6,0,1.7,0C55.7,0.2,55.8,0.1,55.8,0z M55.7,8
		c0-0.9-0.2-1.7-0.7-2.3c-0.4-0.6-1-0.9-1.8-0.9c-0.8,0-1.5,0.3-1.9,0.9s-0.7,1.4-0.7,2.5c0,1,0.2,1.8,0.7,2.3s1.1,0.8,1.8,0.8
		c0.7,0,1.3-0.3,1.8-0.9C55.5,9.9,55.7,9.1,55.7,8z"/>
	<path class="st0" d="M64.7,9.2l1.5,0.2c-0.2,1-0.6,1.8-1.2,2.4c-0.7,0.6-1.5,0.9-2.4,0.9c-1.2,0-2.2-0.4-2.9-1.2
		c-0.7-0.8-1.1-1.9-1.1-3.4c0-1,0.2-1.8,0.5-2.5s0.8-1.2,1.4-1.6c0.6-0.4,1.3-0.5,2.1-0.5c1,0,1.7,0.2,2.3,0.7
		c0.6,0.5,1,1.2,1.2,2.1l-1.5,0.2c-0.1-0.6-0.4-1-0.7-1.3S63,4.7,62.5,4.7c-0.8,0-1.4,0.3-1.8,0.8C60.2,6,60,6.9,60,8
		c0,1.2,0.2,2,0.7,2.6c0.5,0.5,1,0.8,1.8,0.8c0.6,0,1.1-0.2,1.5-0.5C64.3,10.5,64.5,10,64.7,9.2z"/>
	<path class="st0" d="M66.6,3.6h7.2v1.2h-2.8v7.6h-1.5V4.9h-2.8V3.6z"/>
	<path class="st0" d="M75.2,3.6h3.4c0.8,0,1.5,0.1,1.9,0.2c0.4,0.1,0.8,0.4,1.1,0.8S82,5.5,82,6c0,0.4-0.1,0.8-0.3,1.1
		c-0.2,0.3-0.4,0.6-0.8,0.8c0.4,0.1,0.8,0.4,1,0.8c0.3,0.4,0.4,0.8,0.4,1.3c-0.1,0.8-0.4,1.5-0.9,1.9c-0.5,0.4-1.3,0.6-2.4,0.6h-4
		V3.6z M76.7,7.4h1.6c0.6,0,1.1,0,1.3-0.1c0.2-0.1,0.5-0.2,0.6-0.4c0.2-0.2,0.3-0.4,0.3-0.7c0-0.5-0.2-0.8-0.5-1
		c-0.3-0.2-0.9-0.3-1.7-0.3h-1.6V7.4z M76.7,11.2h2c0.8,0,1.4-0.1,1.7-0.3c0.3-0.2,0.5-0.5,0.5-1c0-0.3-0.1-0.5-0.3-0.8
		c-0.2-0.2-0.4-0.4-0.7-0.5c-0.3-0.1-0.8-0.1-1.4-0.1h-1.8V11.2z"/>
	<path class="st0" d="M83.8,15.9l-0.2-1.4c0.3,0.1,0.6,0.1,0.9,0.1c0.3,0,0.6-0.1,0.8-0.2s0.4-0.3,0.5-0.5c0.1-0.1,0.2-0.5,0.5-1.1
		c0-0.1,0.1-0.2,0.1-0.4L83,3.6h1.6l1.8,5.1c0.2,0.6,0.5,1.3,0.6,2c0.2-0.7,0.4-1.4,0.6-2l1.9-5.1h1.5l-3.4,9c-0.4,1-0.6,1.6-0.8,2
		c-0.3,0.5-0.6,0.9-0.9,1.1c-0.3,0.2-0.8,0.3-1.2,0.3C84.5,16,84.1,16,83.8,15.9z"/>
	<path class="st0" d="M98.2,9.6l1.5,0.2c-0.2,0.9-0.7,1.6-1.4,2.1c-0.7,0.5-1.5,0.7-2.5,0.7c-1.3,0-2.3-0.4-3.1-1.2
		c-0.8-0.8-1.1-1.9-1.1-3.3c0-1.5,0.4-2.6,1.1-3.5s1.8-1.2,3-1.2c1.2,0,2.1,0.4,2.9,1.2s1.1,1.9,1.1,3.4c0,0.1,0,0.2,0,0.4h-6.6
		c0.1,1,0.3,1.7,0.8,2.2c0.5,0.5,1.1,0.8,1.8,0.8c0.5,0,1-0.1,1.4-0.4C97.7,10.7,98,10.3,98.2,9.6z M93.3,7.2h4.9
		c-0.1-0.7-0.3-1.3-0.6-1.7c-0.5-0.6-1.1-0.9-1.9-0.9c-0.7,0-1.3,0.2-1.7,0.7S93.3,6.4,93.3,7.2z"/>
	<path class="st0" d="M100.2,3.6h7.2v1.2h-2.8v7.6h-1.5V4.9h-2.8V3.6z"/>
	<path class="st0" d="M115.5,8.5V7.3c0.6,0,1.1,0,1.3-0.1c0.2,0,0.4-0.2,0.7-0.4c0.2-0.2,0.3-0.5,0.3-0.8c0-0.4-0.1-0.7-0.4-1
		c-0.3-0.2-0.6-0.4-1-0.4c-0.8,0-1.4,0.5-1.8,1.5l-1.4-0.2c0.4-1.7,1.5-2.5,3.2-2.5c0.9,0,1.7,0.3,2.2,0.8c0.5,0.5,0.8,1.1,0.8,1.8
		c0,0.7-0.3,1.3-1,1.7c0.4,0.2,0.8,0.5,1,0.9c0.2,0.4,0.3,0.8,0.3,1.3c0,0.8-0.3,1.4-0.9,1.9c-0.6,0.5-1.4,0.7-2.4,0.7
		c-2,0-3.2-0.9-3.5-2.7l1.4-0.3c0.1,0.6,0.4,1,0.8,1.3c0.4,0.3,0.8,0.5,1.3,0.5c0.5,0,0.9-0.1,1.3-0.4c0.3-0.3,0.5-0.6,0.5-1.1
		c0-0.3-0.1-0.6-0.3-0.9c-0.2-0.3-0.4-0.4-0.7-0.5c-0.2-0.1-0.7-0.1-1.3-0.1C115.8,8.5,115.7,8.5,115.5,8.5z"/>
	<path class="st0" d="M127.1,11.4c-0.6,0.5-1.1,0.8-1.6,1c-0.5,0.2-1.1,0.3-1.6,0.3c-1,0-1.7-0.2-2.2-0.7c-0.5-0.5-0.8-1.1-0.8-1.8
		c0-0.4,0.1-0.8,0.3-1.2c0.2-0.4,0.5-0.6,0.8-0.9c0.3-0.2,0.7-0.4,1.1-0.5c0.3-0.1,0.7-0.2,1.3-0.2c1.2-0.1,2.1-0.3,2.7-0.5
		c0-0.2,0-0.3,0-0.4c0-0.6-0.1-1-0.4-1.3c-0.4-0.3-0.9-0.5-1.7-0.5c-0.7,0-1.2,0.1-1.6,0.4c-0.3,0.2-0.6,0.7-0.7,1.3l-1.5-0.2
		c0.1-0.6,0.4-1.1,0.7-1.5c0.3-0.4,0.7-0.7,1.3-0.9c0.6-0.2,1.2-0.3,2-0.3c0.8,0,1.4,0.1,1.8,0.3c0.5,0.2,0.8,0.4,1,0.7
		c0.2,0.3,0.4,0.6,0.5,1c0,0.3,0.1,0.7,0.1,1.4v2c0,1.4,0,2.3,0.1,2.6c0.1,0.4,0.2,0.7,0.4,1.1h-1.6
		C127.2,12.1,127.1,11.8,127.1,11.4z M127,8c-0.5,0.2-1.4,0.4-2.4,0.6c-0.6,0.1-1,0.2-1.3,0.3c-0.3,0.1-0.5,0.3-0.6,0.5
		c-0.1,0.2-0.2,0.4-0.2,0.7c0,0.4,0.2,0.7,0.5,1c0.3,0.3,0.7,0.4,1.3,0.4c0.6,0,1.1-0.1,1.5-0.4c0.4-0.3,0.8-0.6,1-1
		c0.2-0.3,0.2-0.8,0.2-1.5V8z"/>
	<path class="st0" d="M130.9,3.6h1.5v7.6h3.4V3.6h1.5v7.6h3.4V3.6h1.5v7.6h1V15h-1.2v-2.5h-11V3.6z"/>
	<path class="st0" d="M144.8,3.6h1.5v6.7l4.1-6.7h1.6v8.8h-1.5V5.8l-4.1,6.7h-1.6V3.6z"/>
	<path class="st0" d="M153.5,3.6h7.2v1.2h-2.8v7.6h-1.5V4.9h-2.8V3.6z"/>
	<path class="st0" d="M167.9,9.6l1.5,0.2c-0.2,0.9-0.7,1.6-1.4,2.1c-0.7,0.5-1.5,0.7-2.5,0.7c-1.3,0-2.3-0.4-3.1-1.2
		c-0.8-0.8-1.1-1.9-1.1-3.3c0-1.5,0.4-2.6,1.1-3.5s1.8-1.2,3-1.2c1.2,0,2.1,0.4,2.9,1.2c0.7,0.8,1.1,1.9,1.1,3.4c0,0.1,0,0.2,0,0.4
		h-6.6c0.1,1,0.3,1.7,0.8,2.2s1.1,0.8,1.8,0.8c0.5,0,1-0.1,1.4-0.4C167.4,10.7,167.7,10.3,167.9,9.6z M163,7.2h4.9
		c-0.1-0.7-0.3-1.3-0.6-1.7c-0.5-0.6-1.1-0.9-1.9-0.9c-0.7,0-1.3,0.2-1.7,0.7S163.1,6.4,163,7.2z"/>
	<path class="st0" d="M181.8,9.2l1.5,0.2c-0.2,1-0.6,1.8-1.2,2.4c-0.7,0.6-1.5,0.9-2.4,0.9c-1.2,0-2.2-0.4-2.9-1.2
		c-0.7-0.8-1.1-1.9-1.1-3.4c0-1,0.2-1.8,0.5-2.5c0.3-0.7,0.8-1.2,1.4-1.6c0.6-0.4,1.3-0.5,2.1-0.5c1,0,1.7,0.2,2.3,0.7
		c0.6,0.5,1,1.2,1.2,2.1l-1.5,0.2c-0.1-0.6-0.4-1-0.7-1.3s-0.8-0.4-1.3-0.4c-0.8,0-1.4,0.3-1.8,0.8c-0.5,0.5-0.7,1.4-0.7,2.6
		c0,1.2,0.2,2,0.7,2.6c0.5,0.5,1,0.8,1.8,0.8c0.6,0,1.1-0.2,1.5-0.5S181.7,10,181.8,9.2z"/>
	<path class="st0" d="M190.6,9.6l1.5,0.2c-0.2,0.9-0.7,1.6-1.4,2.1c-0.7,0.5-1.5,0.7-2.5,0.7c-1.3,0-2.3-0.4-3.1-1.2
		c-0.8-0.8-1.1-1.9-1.1-3.3c0-1.5,0.4-2.6,1.1-3.5s1.8-1.2,3-1.2c1.2,0,2.1,0.4,2.9,1.2c0.7,0.8,1.1,1.9,1.1,3.4c0,0.1,0,0.2,0,0.4
		h-6.6c0.1,1,0.3,1.7,0.8,2.2s1.1,0.8,1.8,0.8c0.5,0,1-0.1,1.4-0.4C190.1,10.7,190.4,10.3,190.6,9.6z M185.7,7.2h4.9
		c-0.1-0.7-0.3-1.3-0.6-1.7c-0.5-0.6-1.1-0.9-1.9-0.9c-0.7,0-1.3,0.2-1.7,0.7S185.7,6.4,185.7,7.2z"/>
	<path class="st0" d="M192.6,3.6h7.2v1.2H197v7.6h-1.5V4.9h-2.8V3.6z"/>
	<path class="st0" d="M200.7,3.6h1.5v1.7c0,0.7,0,1.2,0.1,1.6c0.1,0.3,0.3,0.6,0.6,0.8c0.3,0.2,0.7,0.4,1.2,0.4
		c0.6,0,1.3-0.1,2.2-0.4v-4h1.5v8.8h-1.5V8.9c-0.9,0.3-1.8,0.4-2.6,0.4c-0.7,0-1.3-0.2-1.8-0.5c-0.5-0.3-0.9-0.8-1-1.2
		s-0.3-1-0.3-1.6V3.6z"/>
	<path class="st0" d="M215.8,11.4c-0.6,0.5-1.1,0.8-1.6,1c-0.5,0.2-1.1,0.3-1.6,0.3c-1,0-1.7-0.2-2.2-0.7c-0.5-0.5-0.8-1.1-0.8-1.8
		c0-0.4,0.1-0.8,0.3-1.2c0.2-0.4,0.5-0.6,0.8-0.9s0.7-0.4,1.1-0.5c0.3-0.1,0.7-0.2,1.3-0.2c1.2-0.1,2.1-0.3,2.7-0.5
		c0-0.2,0-0.3,0-0.4c0-0.6-0.1-1-0.4-1.3c-0.4-0.3-0.9-0.5-1.7-0.5c-0.7,0-1.2,0.1-1.6,0.4c-0.3,0.2-0.6,0.7-0.7,1.3l-1.5-0.2
		c0.1-0.6,0.4-1.1,0.7-1.5c0.3-0.4,0.7-0.7,1.3-0.9c0.6-0.2,1.2-0.3,2-0.3c0.8,0,1.4,0.1,1.8,0.3c0.5,0.2,0.8,0.4,1,0.7
		c0.2,0.3,0.4,0.6,0.5,1c0,0.3,0.1,0.7,0.1,1.4v2c0,1.4,0,2.3,0.1,2.6c0.1,0.4,0.2,0.7,0.4,1.1h-1.6C216,12.1,215.9,11.8,215.8,11.4
		z M215.7,8c-0.5,0.2-1.4,0.4-2.4,0.6c-0.6,0.1-1,0.2-1.3,0.3s-0.5,0.3-0.6,0.5c-0.1,0.2-0.2,0.4-0.2,0.7c0,0.4,0.2,0.7,0.5,1
		s0.7,0.4,1.3,0.4c0.6,0,1.1-0.1,1.5-0.4c0.4-0.3,0.8-0.6,1-1c0.2-0.3,0.2-0.8,0.2-1.5V8z"/>
	<path class="st0" d="M218.4,3.6h7.2v1.2h-2.8v7.6h-1.5V4.9h-2.8V3.6z"/>
	<path class="st0" d="M227,3.6h1.5v3.8c0.5,0,0.8-0.1,1-0.3c0.2-0.2,0.5-0.7,0.8-1.6c0.3-0.7,0.5-1.2,0.7-1.4s0.4-0.4,0.6-0.4
		s0.6-0.1,1.1-0.1h0.3v1.2l-0.4,0c-0.4,0-0.6,0.1-0.8,0.2c-0.1,0.1-0.3,0.5-0.5,1.1c-0.2,0.6-0.4,1-0.6,1.2s-0.5,0.4-0.9,0.6
		c0.6,0.2,1.3,0.8,1.9,1.8l1.6,2.7h-1.6l-1.6-2.7c-0.3-0.5-0.6-0.9-0.9-1.1c-0.2-0.2-0.5-0.3-0.9-0.3v4.1H227V3.6z"/>
	<path class="st0" d="M234.4,3.6h1.5v6.7l4.1-6.7h1.6v8.8h-1.5V5.8l-4.1,6.7h-1.6V3.6z"/>
	<path class="st0" d="M0.3,23.6h1.5v6.7l4.1-6.7h1.6v8.8H6v-6.7l-4.1,6.7H0.3V23.6z"/>
	<path class="st0" d="M14.4,35.9l-0.2-1.4c0.3,0.1,0.6,0.1,0.9,0.1c0.3,0,0.6-0.1,0.8-0.2s0.4-0.3,0.5-0.5c0.1-0.1,0.2-0.5,0.5-1.1
		c0-0.1,0.1-0.2,0.1-0.4l-3.3-8.8h1.6l1.8,5.1c0.2,0.6,0.5,1.3,0.6,2c0.2-0.7,0.4-1.4,0.6-2l1.9-5.1h1.5l-3.4,9
		c-0.4,1-0.6,1.6-0.8,2c-0.3,0.5-0.6,0.9-0.9,1.1c-0.3,0.2-0.8,0.3-1.2,0.3C15.1,36,14.8,36,14.4,35.9z"/>
	<path class="st0" d="M23,23.6h1.5v3.8c0.5,0,0.8-0.1,1-0.3c0.2-0.2,0.5-0.7,0.8-1.6c0.3-0.7,0.5-1.2,0.7-1.4s0.4-0.4,0.6-0.4
		c0.2-0.1,0.6-0.1,1.1-0.1h0.3v1.2l-0.4,0c-0.4,0-0.6,0.1-0.8,0.2c-0.1,0.1-0.3,0.5-0.5,1.1c-0.2,0.6-0.4,1-0.6,1.2
		c-0.2,0.2-0.5,0.4-0.9,0.6c0.6,0.2,1.3,0.8,1.9,1.8l1.6,2.7h-1.6l-1.6-2.7c-0.3-0.5-0.6-0.9-0.9-1.1c-0.2-0.2-0.5-0.3-0.9-0.3v4.1
		H23V23.6z"/>
	<path class="st0" d="M30.4,35.8V23.6h1.4v1.1c0.3-0.4,0.7-0.8,1.1-1c0.4-0.2,0.9-0.3,1.5-0.3c0.8,0,1.4,0.2,2,0.6
		c0.6,0.4,1,0.9,1.3,1.6c0.3,0.7,0.4,1.5,0.4,2.3c0,0.9-0.2,1.7-0.5,2.4c-0.3,0.7-0.8,1.3-1.4,1.7c-0.6,0.4-1.3,0.6-1.9,0.6
		c-0.5,0-0.9-0.1-1.3-0.3s-0.7-0.5-1-0.8v4.3H30.4z M31.8,28.1c0,1.1,0.2,2,0.7,2.5c0.5,0.5,1,0.8,1.7,0.8c0.7,0,1.2-0.3,1.7-0.8
		c0.5-0.6,0.7-1.4,0.7-2.6c0-1.1-0.2-2-0.7-2.5c-0.5-0.6-1-0.8-1.7-0.8c-0.6,0-1.2,0.3-1.7,0.9C32,26.1,31.8,27,31.8,28.1z"/>
	<path class="st0" d="M45.9,29.6l1.5,0.2c-0.2,0.9-0.7,1.6-1.4,2.1c-0.7,0.5-1.5,0.7-2.5,0.7c-1.3,0-2.3-0.4-3.1-1.2
		c-0.8-0.8-1.1-1.9-1.1-3.3c0-1.5,0.4-2.6,1.1-3.5s1.8-1.2,3-1.2c1.2,0,2.1,0.4,2.9,1.2c0.7,0.8,1.1,1.9,1.1,3.4c0,0.1,0,0.2,0,0.4
		h-6.6c0.1,1,0.3,1.7,0.8,2.2c0.5,0.5,1.1,0.8,1.8,0.8c0.5,0,1-0.1,1.4-0.4C45.4,30.7,45.7,30.3,45.9,29.6z M41,27.2h4.9
		c-0.1-0.7-0.3-1.3-0.6-1.7c-0.5-0.6-1.1-0.9-1.9-0.9c-0.7,0-1.3,0.2-1.7,0.7C41.3,25.8,41.1,26.4,41,27.2z"/>
	<path class="st0" d="M49.3,23.6h7v8.8h-1.5v-7.6h-4v7.6h-1.5V23.6z"/>
	<path class="st0" d="M59.3,23.6h6.9v8.8h-1.5v-7.6h-4v4.4c0,1,0,1.7-0.1,2s-0.2,0.6-0.5,0.9c-0.3,0.2-0.7,0.4-1.3,0.4
		c-0.3,0-0.8,0-1.2-0.1v-1.2h0.7c0.3,0,0.5,0,0.7-0.1s0.2-0.2,0.3-0.3c0-0.1,0.1-0.6,0.1-1.4V23.6z"/>
	<path class="st0" d="M74.5,29.6l1.5,0.2c-0.2,0.9-0.7,1.6-1.4,2.1c-0.7,0.5-1.5,0.7-2.5,0.7c-1.3,0-2.3-0.4-3.1-1.2
		c-0.8-0.8-1.1-1.9-1.1-3.3c0-1.5,0.4-2.6,1.1-3.5s1.8-1.2,3-1.2c1.2,0,2.1,0.4,2.9,1.2c0.7,0.8,1.1,1.9,1.1,3.4c0,0.1,0,0.2,0,0.4
		h-6.6c0.1,1,0.3,1.7,0.8,2.2c0.5,0.5,1.1,0.8,1.8,0.8c0.5,0,1-0.1,1.4-0.4C74,30.7,74.3,30.3,74.5,29.6z M69.6,27.2h4.9
		c-0.1-0.7-0.3-1.3-0.6-1.7c-0.5-0.6-1.1-0.9-1.9-0.9c-0.7,0-1.3,0.2-1.7,0.7C69.9,25.8,69.6,26.4,69.6,27.2z"/>
	<path class="st0" d="M77.9,23.6h1.5v3.7h4.1v-3.7h1.5v8.8h-1.5v-3.9h-4.1v3.9h-1.5V23.6z"/>
	<path class="st0" d="M87.3,23.6h1.5v6.7l4.1-6.7h1.6v8.8h-1.5v-6.7l-4.1,6.7h-1.6V23.6z"/>
	<path class="st0" d="M96.8,23.6h1.5v3.7h1.8c0.1-1.3,0.5-2.2,1.2-2.9c0.7-0.7,1.5-1,2.6-1c0.9,0,1.6,0.2,2.1,0.5
		c0.5,0.4,0.9,0.9,1.3,1.5s0.5,1.5,0.5,2.5c0,1.5-0.3,2.7-1,3.5c-0.7,0.8-1.6,1.2-2.8,1.2c-1.1,0-2-0.4-2.6-1.1s-1-1.7-1.1-3h-1.8
		v3.9h-1.5V23.6z M103.9,24.7c-0.7,0-1.3,0.3-1.7,0.8c-0.4,0.6-0.6,1.3-0.6,2.4c0,1.2,0.2,2.1,0.6,2.7c0.4,0.6,1,0.8,1.6,0.8
		c0.7,0,1.2-0.3,1.7-0.8c0.4-0.5,0.7-1.4,0.7-2.5c0-1.1-0.2-2-0.6-2.6C105.3,25,104.7,24.7,103.9,24.7z"/>
	<path class="st0" d="M120,29.2l1.5,0.2c-0.2,1-0.6,1.8-1.2,2.4c-0.7,0.6-1.5,0.9-2.4,0.9c-1.2,0-2.2-0.4-2.9-1.2
		c-0.7-0.8-1.1-1.9-1.1-3.4c0-1,0.2-1.8,0.5-2.5s0.8-1.2,1.4-1.6c0.6-0.4,1.3-0.5,2.1-0.5c1,0,1.7,0.2,2.3,0.7
		c0.6,0.5,1,1.2,1.2,2.1l-1.5,0.2c-0.1-0.6-0.4-1-0.7-1.3c-0.4-0.3-0.8-0.4-1.3-0.4c-0.8,0-1.4,0.3-1.8,0.8
		c-0.5,0.5-0.7,1.4-0.7,2.6c0,1.2,0.2,2,0.7,2.6c0.5,0.5,1,0.8,1.8,0.8c0.6,0,1.1-0.2,1.5-0.5C119.7,30.5,119.9,30,120,29.2z"/>
	<path class="st0" d="M122.4,28.1c0-1.6,0.5-2.8,1.4-3.6c0.8-0.7,1.7-1,2.8-1c1.2,0,2.2,0.4,3,1.2c0.8,0.8,1.2,1.9,1.2,3.3
		c0,1.1-0.2,2-0.5,2.7c-0.3,0.7-0.8,1.2-1.5,1.5c-0.7,0.4-1.4,0.5-2.1,0.5c-1.2,0-2.2-0.4-3-1.2C122.8,30.7,122.4,29.5,122.4,28.1z
		 M123.9,28.1c0,1.1,0.2,2,0.7,2.5c0.5,0.6,1.1,0.8,1.9,0.8c0.7,0,1.4-0.3,1.9-0.8c0.5-0.6,0.7-1.4,0.7-2.6c0-1.1-0.2-1.9-0.7-2.5
		c-0.5-0.6-1.1-0.8-1.8-0.8c-0.7,0-1.4,0.3-1.9,0.8C124.2,26.1,123.9,26.9,123.9,28.1z"/>
	<path class="st0" d="M138.2,29.2l1.5,0.2c-0.2,1-0.6,1.8-1.2,2.4c-0.7,0.6-1.5,0.9-2.4,0.9c-1.2,0-2.2-0.4-2.9-1.2
		c-0.7-0.8-1.1-1.9-1.1-3.4c0-1,0.2-1.8,0.5-2.5c0.3-0.7,0.8-1.2,1.4-1.6c0.6-0.4,1.3-0.5,2.1-0.5c1,0,1.7,0.2,2.3,0.7
		c0.6,0.5,1,1.2,1.2,2.1l-1.5,0.2c-0.1-0.6-0.4-1-0.7-1.3s-0.8-0.4-1.3-0.4c-0.8,0-1.4,0.3-1.8,0.8c-0.5,0.5-0.7,1.4-0.7,2.6
		c0,1.2,0.2,2,0.7,2.6c0.5,0.5,1,0.8,1.8,0.8c0.6,0,1.1-0.2,1.5-0.5C137.8,30.5,138.1,30,138.2,29.2z"/>
	<path class="st0" d="M140.9,35.9l-0.2-1.4c0.3,0.1,0.6,0.1,0.9,0.1c0.3,0,0.6-0.1,0.8-0.2s0.4-0.3,0.5-0.5c0.1-0.1,0.2-0.5,0.5-1.1
		c0-0.1,0.1-0.2,0.1-0.4l-3.3-8.8h1.6l1.8,5.1c0.2,0.6,0.5,1.3,0.6,2c0.2-0.7,0.4-1.4,0.6-2l1.9-5.1h1.5l-3.4,9
		c-0.4,1-0.6,1.6-0.8,2c-0.3,0.5-0.6,0.9-0.9,1.1c-0.3,0.2-0.8,0.3-1.2,0.3C141.5,36,141.2,36,140.9,35.9z"/>
	<path class="st0" d="M150,23.6h6.1v7.6h1V35h-1.2v-2.5H149V35h-1.2v-3.7h0.8C149.6,29.8,150.1,27.3,150,23.6z M151.3,24.9
		c-0.1,2.9-0.6,5-1.3,6.3h4.7v-6.3H151.3z"/>
	<path class="st0" d="M158.8,23.6h1.5v6.7l4.1-6.7h1.6v8.8h-1.5v-6.7l-4.1,6.7h-1.6V23.6z"/>
	<path class="st0" d="M174,29.2l1.5,0.2c-0.2,1-0.6,1.8-1.2,2.4c-0.7,0.6-1.5,0.9-2.4,0.9c-1.2,0-2.2-0.4-2.9-1.2
		c-0.7-0.8-1.1-1.9-1.1-3.4c0-1,0.2-1.8,0.5-2.5c0.3-0.7,0.8-1.2,1.4-1.6c0.6-0.4,1.3-0.5,2.1-0.5c1,0,1.7,0.2,2.3,0.7
		c0.6,0.5,1,1.2,1.2,2.1l-1.5,0.2c-0.1-0.6-0.4-1-0.7-1.3s-0.8-0.4-1.3-0.4c-0.8,0-1.4,0.3-1.8,0.8c-0.5,0.5-0.7,1.4-0.7,2.6
		c0,1.2,0.2,2,0.7,2.6c0.5,0.5,1,0.8,1.8,0.8c0.6,0,1.1-0.2,1.5-0.5C173.7,30.5,173.9,30,174,29.2z"/>
	<path class="st0" d="M176,23.6h7.2v1.2h-2.8v7.6h-1.5v-7.6H176V23.6z"/>
	<path class="st0" d="M183.8,28.1c0-1.6,0.5-2.8,1.4-3.6c0.8-0.7,1.7-1,2.8-1c1.2,0,2.2,0.4,3,1.2s1.2,1.9,1.2,3.3
		c0,1.1-0.2,2-0.5,2.7c-0.3,0.7-0.8,1.2-1.5,1.5c-0.7,0.4-1.4,0.5-2.1,0.5c-1.2,0-2.2-0.4-3-1.2C184.2,30.7,183.8,29.5,183.8,28.1z
		 M185.3,28.1c0,1.1,0.2,2,0.7,2.5s1.1,0.8,1.9,0.8c0.7,0,1.4-0.3,1.9-0.8c0.5-0.6,0.7-1.4,0.7-2.6c0-1.1-0.2-1.9-0.7-2.5
		c-0.5-0.6-1.1-0.8-1.8-0.8c-0.7,0-1.4,0.3-1.9,0.8S185.3,26.9,185.3,28.1z"/>
	<path class="st0" d="M193.8,23.6h1.5v6.7l4.1-6.7h1.6v8.8h-1.5v-6.7l-4.1,6.7h-1.6V23.6z M199,20.3h1c-0.1,0.7-0.3,1.2-0.8,1.6
		c-0.4,0.4-1,0.6-1.7,0.6c-0.7,0-1.3-0.2-1.7-0.6c-0.4-0.4-0.7-0.9-0.8-1.6h1c0.1,0.4,0.2,0.7,0.5,0.8c0.2,0.2,0.5,0.3,0.9,0.3
		c0.4,0,0.8-0.1,1-0.3C198.8,21,198.9,20.7,199,20.3z"/>
	<path class="st0" d="M213.8,29.2l1.5,0.2c-0.2,1-0.6,1.8-1.2,2.4c-0.7,0.6-1.5,0.9-2.4,0.9c-1.2,0-2.2-0.4-2.9-1.2
		c-0.7-0.8-1.1-1.9-1.1-3.4c0-1,0.2-1.8,0.5-2.5c0.3-0.7,0.8-1.2,1.4-1.6c0.6-0.4,1.3-0.5,2.1-0.5c1,0,1.7,0.2,2.3,0.7
		c0.6,0.5,1,1.2,1.2,2.1l-1.5,0.2c-0.1-0.6-0.4-1-0.7-1.3s-0.8-0.4-1.3-0.4c-0.8,0-1.4,0.3-1.8,0.8c-0.5,0.5-0.7,1.4-0.7,2.6
		c0,1.2,0.2,2,0.7,2.6c0.5,0.5,1,0.8,1.8,0.8c0.6,0,1.1-0.2,1.5-0.5C213.4,30.5,213.7,30,213.8,29.2z"/>
	<path class="st0" d="M215.7,23.6h7.2v1.2h-2.8v7.6h-1.5v-7.6h-2.8V23.6z"/>
	<path class="st0" d="M230.2,29.6l1.5,0.2c-0.2,0.9-0.7,1.6-1.4,2.1c-0.7,0.5-1.5,0.7-2.5,0.7c-1.3,0-2.3-0.4-3.1-1.2
		c-0.8-0.8-1.1-1.9-1.1-3.3c0-1.5,0.4-2.6,1.1-3.5s1.8-1.2,3-1.2c1.2,0,2.1,0.4,2.9,1.2c0.7,0.8,1.1,1.9,1.1,3.4c0,0.1,0,0.2,0,0.4
		h-6.6c0.1,1,0.3,1.7,0.8,2.2c0.5,0.5,1.1,0.8,1.8,0.8c0.5,0,1-0.1,1.4-0.4C229.6,30.7,229.9,30.3,230.2,29.6z M225.3,27.2h4.9
		c-0.1-0.7-0.3-1.3-0.6-1.7c-0.5-0.6-1.1-0.9-1.9-0.9c-0.7,0-1.3,0.2-1.7,0.7C225.6,25.8,225.3,26.4,225.3,27.2z"/>
	<path class="st0" d="M233.6,23.6h1.5v3.7h4.1v-3.7h1.5v8.8h-1.5v-3.9h-4.1v3.9h-1.5V23.6z"/>
	<path class="st0" d="M243,23.6h1.5v3.8c0.5,0,0.8-0.1,1-0.3c0.2-0.2,0.5-0.7,0.8-1.6c0.3-0.7,0.5-1.2,0.7-1.4s0.4-0.4,0.6-0.4
		s0.6-0.1,1.1-0.1h0.3v1.2l-0.4,0c-0.4,0-0.6,0.1-0.8,0.2c-0.1,0.1-0.3,0.5-0.5,1.1c-0.2,0.6-0.4,1-0.6,1.2s-0.5,0.4-0.9,0.6
		c0.6,0.2,1.3,0.8,1.9,1.8l1.6,2.7h-1.6l-1.6-2.7c-0.3-0.5-0.6-0.9-0.9-1.1c-0.2-0.2-0.5-0.3-0.9-0.3v4.1H243V23.6z"/>
	<path class="st0" d="M250.4,23.6h1.5v6.7l4.1-6.7h1.6v8.8h-1.5v-6.7l-4.1,6.7h-1.6V23.6z"/>
	<path class="st0" d="M260.3,32.5v-1.7h1.7v1.7c0,0.6-0.1,1.1-0.3,1.5c-0.2,0.4-0.6,0.7-1.1,0.9l-0.4-0.6c0.3-0.1,0.5-0.3,0.7-0.6
		c0.1-0.3,0.2-0.7,0.2-1.2H260.3z"/>
	<path class="st0" d="M0.3,43.6h7v8.8H5.7v-7.6h-4v7.6H0.3V43.6z"/>
	<path class="st0" d="M8.9,48.1c0-1.6,0.5-2.8,1.4-3.6c0.8-0.7,1.7-1,2.8-1c1.2,0,2.2,0.4,3,1.2c0.8,0.8,1.2,1.9,1.2,3.3
		c0,1.1-0.2,2-0.5,2.7c-0.3,0.7-0.8,1.2-1.5,1.5c-0.7,0.4-1.4,0.5-2.1,0.5c-1.2,0-2.2-0.4-3-1.2C9.3,50.7,8.9,49.5,8.9,48.1z
		 M10.5,48.1c0,1.1,0.2,2,0.7,2.5c0.5,0.6,1.1,0.8,1.9,0.8c0.7,0,1.4-0.3,1.9-0.8c0.5-0.6,0.7-1.4,0.7-2.6c0-1.1-0.2-1.9-0.7-2.5
		c-0.5-0.6-1.1-0.8-1.8-0.8c-0.7,0-1.4,0.3-1.9,0.8C10.7,46.1,10.5,46.9,10.5,48.1z"/>
	<path class="st0" d="M19.7,43.6h6.1v7.6h1V55h-1.2v-2.5h-6.9V55h-1.2v-3.7h0.8C19.3,49.8,19.8,47.3,19.7,43.6z M21,44.9
		c-0.1,2.9-0.6,5-1.3,6.3h4.7v-6.3H21z"/>
	<path class="st0" d="M29.7,43.6h6.1v7.6h1V55h-1.2v-2.5h-6.9V55h-1.2v-3.7h0.8C29.2,49.8,29.7,47.3,29.7,43.6z M30.9,44.9
		c-0.1,2.9-0.6,5-1.3,6.3h4.7v-6.3H30.9z"/>
	<path class="st0" d="M44.4,49.6l1.5,0.2c-0.2,0.9-0.7,1.6-1.4,2.1c-0.7,0.5-1.5,0.7-2.5,0.7c-1.3,0-2.3-0.4-3.1-1.2
		c-0.8-0.8-1.1-1.9-1.1-3.3c0-1.5,0.4-2.6,1.1-3.5s1.8-1.2,3-1.2c1.2,0,2.1,0.4,2.9,1.2c0.7,0.8,1.1,1.9,1.1,3.4c0,0.1,0,0.2,0,0.4
		h-6.6c0.1,1,0.3,1.7,0.8,2.2c0.5,0.5,1.1,0.8,1.8,0.8c0.5,0,1-0.1,1.4-0.4C43.9,50.7,44.2,50.3,44.4,49.6z M39.5,47.2h4.9
		c-0.1-0.7-0.3-1.3-0.6-1.7c-0.5-0.6-1.1-0.9-1.9-0.9c-0.7,0-1.3,0.2-1.7,0.7C39.8,45.8,39.6,46.4,39.5,47.2z"/>
	<path class="st0" d="M47.9,55.8V43.6h1.4v1.1c0.3-0.4,0.7-0.8,1.1-1c0.4-0.2,0.9-0.3,1.5-0.3c0.8,0,1.4,0.2,2,0.6
		c0.6,0.4,1,0.9,1.3,1.6c0.3,0.7,0.4,1.5,0.4,2.3c0,0.9-0.2,1.7-0.5,2.4c-0.3,0.7-0.8,1.3-1.4,1.7c-0.6,0.4-1.3,0.6-1.9,0.6
		c-0.5,0-0.9-0.1-1.3-0.3c-0.4-0.2-0.7-0.5-1-0.8v4.3H47.9z M49.2,48.1c0,1.1,0.2,2,0.7,2.5c0.5,0.5,1,0.8,1.7,0.8
		c0.7,0,1.2-0.3,1.7-0.8C53.7,50,54,49.2,54,48c0-1.1-0.2-2-0.7-2.5s-1-0.8-1.7-0.8c-0.6,0-1.2,0.3-1.7,0.9
		C49.5,46.1,49.2,47,49.2,48.1z"/>
	<path class="st0" d="M62.6,43.6v3.8c0.5,0,0.8-0.1,1-0.3c0.2-0.2,0.5-0.7,0.8-1.6c0.3-0.8,0.7-1.4,0.9-1.6c0.3-0.2,0.7-0.3,1.3-0.3
		h0.5v1.2l-0.4,0c-0.4,0-0.7,0.1-0.8,0.2c-0.1,0.1-0.3,0.5-0.5,1.1c-0.2,0.6-0.4,1-0.6,1.2c-0.2,0.2-0.5,0.4-0.9,0.6
		c0.6,0.2,1.3,0.8,1.9,1.8l1.6,2.7H66l-1.6-2.7c-0.3-0.6-0.6-0.9-0.9-1.1c-0.2-0.2-0.5-0.3-0.9-0.3v4.1h-1.5v-4.1
		c-0.3,0-0.6,0.1-0.9,0.3c-0.2,0.2-0.5,0.5-0.9,1.1l-1.6,2.7h-1.6l1.6-2.7c0.6-1,1.3-1.6,1.9-1.8c-0.4-0.2-0.8-0.4-0.9-0.7
		c-0.2-0.2-0.4-0.8-0.8-1.7c-0.1-0.3-0.3-0.5-0.4-0.6c-0.1-0.1-0.4-0.1-0.6-0.1c-0.1,0-0.2,0-0.4,0v-1.2h0.2c0.6,0,1,0,1.2,0.1
		c0.2,0.1,0.4,0.2,0.6,0.4c0.2,0.2,0.4,0.7,0.7,1.4c0.4,0.9,0.6,1.4,0.8,1.6c0.2,0.2,0.5,0.3,1,0.3v-3.8H62.6z"/>
	<path class="st0" d="M68.7,43.6h1.5v6.7l4.1-6.7h1.6v8.8h-1.5v-6.7l-4.1,6.7h-1.6V43.6z"/>
	<path class="st0" d="M78.2,43.6h3.4c0.8,0,1.5,0.1,1.9,0.2c0.4,0.1,0.8,0.4,1.1,0.8C84.9,45,85,45.5,85,46c0,0.4-0.1,0.8-0.3,1.1
		c-0.2,0.3-0.4,0.6-0.8,0.8c0.4,0.1,0.8,0.4,1,0.8c0.3,0.4,0.4,0.8,0.4,1.3c-0.1,0.8-0.4,1.5-0.9,1.9c-0.5,0.4-1.3,0.6-2.4,0.6h-4
		V43.6z M79.7,47.4h1.6c0.6,0,1.1,0,1.3-0.1c0.2-0.1,0.5-0.2,0.6-0.4c0.2-0.2,0.3-0.4,0.3-0.7c0-0.5-0.2-0.8-0.5-1
		c-0.3-0.2-0.9-0.3-1.7-0.3h-1.6V47.4z M79.7,51.2h2c0.8,0,1.4-0.1,1.7-0.3c0.3-0.2,0.5-0.5,0.5-1c0-0.3-0.1-0.5-0.3-0.8
		c-0.2-0.2-0.4-0.4-0.7-0.5c-0.3-0.1-0.8-0.1-1.4-0.1h-1.8V51.2z"/>
	<path class="st0" d="M92.8,51.4c-0.6,0.5-1.1,0.8-1.6,1c-0.5,0.2-1.1,0.3-1.6,0.3c-1,0-1.7-0.2-2.2-0.7c-0.5-0.5-0.8-1.1-0.8-1.8
		c0-0.4,0.1-0.8,0.3-1.2c0.2-0.4,0.5-0.6,0.8-0.9c0.3-0.2,0.7-0.4,1.1-0.5c0.3-0.1,0.7-0.2,1.3-0.2c1.2-0.1,2.1-0.3,2.7-0.5
		c0-0.2,0-0.3,0-0.4c0-0.6-0.1-1-0.4-1.3c-0.4-0.3-0.9-0.5-1.7-0.5c-0.7,0-1.2,0.1-1.6,0.4c-0.3,0.2-0.6,0.7-0.7,1.3l-1.5-0.2
		c0.1-0.6,0.4-1.1,0.7-1.5c0.3-0.4,0.7-0.7,1.3-0.9c0.6-0.2,1.2-0.3,2-0.3c0.8,0,1.4,0.1,1.8,0.3c0.5,0.2,0.8,0.4,1,0.7
		c0.2,0.3,0.4,0.6,0.5,1c0,0.3,0.1,0.7,0.1,1.4v2c0,1.4,0,2.3,0.1,2.6c0.1,0.4,0.2,0.7,0.4,1.1h-1.6C92.9,52.1,92.8,51.8,92.8,51.4z
		 M92.6,48c-0.5,0.2-1.4,0.4-2.4,0.6c-0.6,0.1-1,0.2-1.3,0.3c-0.3,0.1-0.5,0.3-0.6,0.5c-0.1,0.2-0.2,0.4-0.2,0.7
		c0,0.4,0.2,0.7,0.5,1c0.3,0.3,0.7,0.4,1.3,0.4c0.6,0,1.1-0.1,1.5-0.4c0.4-0.3,0.8-0.6,1-1c0.2-0.3,0.2-0.8,0.2-1.5V48z"/>
	<path class="st0" d="M102.5,49.6l1.5,0.2c-0.2,0.9-0.7,1.6-1.4,2.1c-0.7,0.5-1.5,0.7-2.5,0.7c-1.3,0-2.3-0.4-3.1-1.2
		c-0.8-0.8-1.1-1.9-1.1-3.3c0-1.5,0.4-2.6,1.1-3.5s1.8-1.2,3-1.2c1.2,0,2.1,0.4,2.9,1.2c0.7,0.8,1.1,1.9,1.1,3.4c0,0.1,0,0.2,0,0.4
		h-6.6c0.1,1,0.3,1.7,0.8,2.2c0.5,0.5,1.1,0.8,1.8,0.8c0.5,0,1-0.1,1.4-0.4C102,50.7,102.3,50.3,102.5,49.6z M97.6,47.2h4.9
		c-0.1-0.7-0.3-1.3-0.6-1.7c-0.5-0.6-1.1-0.9-1.9-0.9c-0.7,0-1.3,0.2-1.7,0.7C97.9,45.8,97.7,46.4,97.6,47.2z"/>
	<path class="st0" d="M104.6,43.6h7.2v1.2h-2.8v7.6h-1.5v-7.6h-2.8V43.6z"/>
	<path class="st0" d="M117.9,43.6h1.5v3.7h4.1v-3.7h1.5v8.8h-1.5v-3.9h-4.1v3.9h-1.5V43.6z"/>
	<path class="st0" d="M133.3,49.6l1.5,0.2c-0.2,0.9-0.7,1.6-1.4,2.1c-0.7,0.5-1.5,0.7-2.5,0.7c-1.3,0-2.3-0.4-3.1-1.2
		c-0.8-0.8-1.1-1.9-1.1-3.3c0-1.5,0.4-2.6,1.1-3.5s1.8-1.2,3-1.2c1.2,0,2.1,0.4,2.9,1.2c0.7,0.8,1.1,1.9,1.1,3.4c0,0.1,0,0.2,0,0.4
		h-6.6c0.1,1,0.3,1.7,0.8,2.2c0.5,0.5,1.1,0.8,1.8,0.8c0.5,0,1-0.1,1.4-0.4C132.8,50.7,133.1,50.3,133.3,49.6z M128.4,47.2h4.9
		c-0.1-0.7-0.3-1.3-0.6-1.7c-0.5-0.6-1.1-0.9-1.9-0.9c-0.7,0-1.3,0.2-1.7,0.7C128.7,45.8,128.4,46.4,128.4,47.2z"/>
	<path class="st0" d="M136.7,55.8V43.6h1.4v1.1c0.3-0.4,0.7-0.8,1.1-1c0.4-0.2,0.9-0.3,1.5-0.3c0.8,0,1.4,0.2,2,0.6
		c0.6,0.4,1,0.9,1.3,1.6c0.3,0.7,0.4,1.5,0.4,2.3c0,0.9-0.2,1.7-0.5,2.4c-0.3,0.7-0.8,1.3-1.4,1.7c-0.6,0.4-1.3,0.6-1.9,0.6
		c-0.5,0-0.9-0.1-1.3-0.3s-0.7-0.5-1-0.8v4.3H136.7z M138.1,48.1c0,1.1,0.2,2,0.7,2.5c0.5,0.5,1,0.8,1.7,0.8c0.7,0,1.2-0.3,1.7-0.8
		c0.5-0.6,0.7-1.4,0.7-2.6c0-1.1-0.2-2-0.7-2.5s-1-0.8-1.7-0.8c-0.6,0-1.2,0.3-1.7,0.9C138.3,46.1,138.1,47,138.1,48.1z"/>
	<path class="st0" d="M146.2,43.6h3.4c0.8,0,1.5,0.1,1.9,0.2c0.4,0.1,0.8,0.4,1.1,0.8c0.3,0.4,0.4,0.8,0.4,1.4
		c0,0.4-0.1,0.8-0.3,1.1c-0.2,0.3-0.4,0.6-0.8,0.8c0.4,0.1,0.8,0.4,1,0.8c0.3,0.4,0.4,0.8,0.4,1.3c-0.1,0.8-0.4,1.5-0.9,1.9
		c-0.5,0.4-1.3,0.6-2.4,0.6h-4V43.6z M147.7,47.4h1.6c0.6,0,1.1,0,1.3-0.1s0.5-0.2,0.6-0.4c0.2-0.2,0.3-0.4,0.3-0.7
		c0-0.5-0.2-0.8-0.5-1s-0.9-0.3-1.7-0.3h-1.6V47.4z M147.7,51.2h2c0.8,0,1.4-0.1,1.7-0.3c0.3-0.2,0.5-0.5,0.5-1
		c0-0.3-0.1-0.5-0.3-0.8c-0.2-0.2-0.4-0.4-0.7-0.5c-0.3-0.1-0.8-0.1-1.4-0.1h-1.8V51.2z"/>
	<path class="st0" d="M155.2,43.6h1.5v3.7h4.1v-3.7h1.5v8.8h-1.5v-3.9h-4.1v3.9h-1.5V43.6z"/>
	<path class="st0" d="M164.5,55.9l-0.2-1.4c0.3,0.1,0.6,0.1,0.9,0.1c0.3,0,0.6-0.1,0.8-0.2s0.4-0.3,0.5-0.5c0.1-0.1,0.2-0.5,0.5-1.1
		c0-0.1,0.1-0.2,0.1-0.4l-3.3-8.8h1.6l1.8,5.1c0.2,0.6,0.5,1.3,0.6,2c0.2-0.7,0.4-1.4,0.6-2l1.9-5.1h1.5l-3.4,9
		c-0.4,1-0.6,1.6-0.8,2c-0.3,0.5-0.6,0.9-0.9,1.1c-0.3,0.2-0.8,0.3-1.2,0.3C165.2,56,164.9,56,164.5,55.9z"/>
	<path class="st0" d="M173.1,43.6h1.5v3.7h1.8c0.1-1.3,0.5-2.2,1.2-2.9c0.7-0.7,1.5-1,2.6-1c0.9,0,1.6,0.2,2.1,0.5
		c0.5,0.4,0.9,0.9,1.3,1.5S184,47,184,48c0,1.5-0.3,2.7-1,3.5s-1.6,1.2-2.8,1.2c-1.1,0-2-0.4-2.6-1.1s-1-1.7-1.1-3h-1.8v3.9h-1.5
		V43.6z M180.2,44.7c-0.7,0-1.3,0.3-1.7,0.8c-0.4,0.6-0.6,1.3-0.6,2.4c0,1.2,0.2,2.1,0.6,2.7s1,0.8,1.6,0.8c0.7,0,1.2-0.3,1.7-0.8
		c0.4-0.5,0.7-1.4,0.7-2.5c0-1.1-0.2-2-0.6-2.6S181,44.7,180.2,44.7z"/>
	<path class="st0" d="M196.3,49.2l1.5,0.2c-0.2,1-0.6,1.8-1.2,2.4c-0.7,0.6-1.5,0.9-2.4,0.9c-1.2,0-2.2-0.4-2.9-1.2
		c-0.7-0.8-1.1-1.9-1.1-3.4c0-1,0.2-1.8,0.5-2.5c0.3-0.7,0.8-1.2,1.4-1.6c0.6-0.4,1.3-0.5,2.1-0.5c1,0,1.7,0.2,2.3,0.7
		c0.6,0.5,1,1.2,1.2,2.1l-1.5,0.2c-0.1-0.6-0.4-1-0.7-1.3s-0.8-0.4-1.3-0.4c-0.8,0-1.4,0.3-1.8,0.8c-0.5,0.5-0.7,1.4-0.7,2.6
		c0,1.2,0.2,2,0.7,2.6c0.5,0.5,1,0.8,1.8,0.8c0.6,0,1.1-0.2,1.5-0.5C196,50.5,196.2,50,196.3,49.2z"/>
	<path class="st0" d="M199.1,43.6h1.5v6.7l4.1-6.7h1.6v8.8h-1.5v-6.7l-4.1,6.7h-1.6V43.6z"/>
	<path class="st0" d="M214.3,49.2l1.5,0.2c-0.2,1-0.6,1.8-1.2,2.4c-0.7,0.6-1.5,0.9-2.4,0.9c-1.2,0-2.2-0.4-2.9-1.2
		c-0.7-0.8-1.1-1.9-1.1-3.4c0-1,0.2-1.8,0.5-2.5c0.3-0.7,0.8-1.2,1.4-1.6c0.6-0.4,1.3-0.5,2.1-0.5c1,0,1.7,0.2,2.3,0.7
		c0.6,0.5,1,1.2,1.2,2.1l-1.5,0.2c-0.1-0.6-0.4-1-0.7-1.3s-0.8-0.4-1.3-0.4c-0.8,0-1.4,0.3-1.8,0.8c-0.5,0.5-0.7,1.4-0.7,2.6
		c0,1.2,0.2,2,0.7,2.6c0.5,0.5,1,0.8,1.8,0.8c0.6,0,1.1-0.2,1.5-0.5C214,50.5,214.2,50,214.3,49.2z"/>
	<path class="st0" d="M216.3,43.6h7.2v1.2h-2.8v7.6h-1.5v-7.6h-2.8V43.6z"/>
	<path class="st0" d="M230.7,49.6l1.5,0.2c-0.2,0.9-0.7,1.6-1.4,2.1c-0.7,0.5-1.5,0.7-2.5,0.7c-1.3,0-2.3-0.4-3.1-1.2
		c-0.8-0.8-1.1-1.9-1.1-3.3c0-1.5,0.4-2.6,1.1-3.5s1.8-1.2,3-1.2c1.2,0,2.1,0.4,2.9,1.2c0.7,0.8,1.1,1.9,1.1,3.4c0,0.1,0,0.2,0,0.4
		h-6.6c0.1,1,0.3,1.7,0.8,2.2c0.5,0.5,1.1,0.8,1.8,0.8c0.5,0,1-0.1,1.4-0.4C230.2,50.7,230.5,50.3,230.7,49.6z M225.8,47.2h4.9
		c-0.1-0.7-0.3-1.3-0.6-1.7c-0.5-0.6-1.1-0.9-1.9-0.9c-0.7,0-1.3,0.2-1.7,0.7C226.1,45.8,225.8,46.4,225.8,47.2z"/>
	<path class="st0" d="M234.1,43.6h2.3l2.3,7.1l2.6-7.1h2.2v8.8H242v-7.1l-2.6,7.1h-1.3l-2.5-7.4v7.4h-1.5V43.6z"/>
	<path class="st0" d="M245.9,55.9l-0.2-1.4c0.3,0.1,0.6,0.1,0.9,0.1c0.3,0,0.6-0.1,0.8-0.2s0.4-0.3,0.5-0.5c0.1-0.1,0.2-0.5,0.5-1.1
		c0-0.1,0.1-0.2,0.1-0.4l-3.3-8.8h1.6l1.8,5.1c0.2,0.6,0.5,1.3,0.6,2c0.2-0.7,0.4-1.4,0.6-2l1.9-5.1h1.5l-3.4,9
		c-0.4,1-0.6,1.6-0.8,2c-0.3,0.5-0.6,0.9-0.9,1.1c-0.3,0.2-0.8,0.3-1.2,0.3C246.6,56,246.3,56,245.9,55.9z"/>
	<path class="st0" d="M0.3,63.6h5.1v1.2H1.8v7.6H0.3V63.6z"/>
	<path class="st0" d="M6.8,63.6h6.9v8.8h-1.5v-7.6h-4v4.4c0,1,0,1.7-0.1,2S8,71.9,7.7,72.2c-0.3,0.2-0.7,0.4-1.3,0.4
		c-0.3,0-0.8,0-1.2-0.1v-1.2h0.7c0.3,0,0.5,0,0.7-0.1s0.2-0.2,0.3-0.3c0-0.1,0.1-0.6,0.1-1.4V63.6z"/>
	<path class="st0" d="M21.8,71.4c-0.6,0.5-1.1,0.8-1.6,1c-0.5,0.2-1.1,0.3-1.6,0.3c-1,0-1.7-0.2-2.2-0.7c-0.5-0.5-0.8-1.1-0.8-1.8
		c0-0.4,0.1-0.8,0.3-1.2c0.2-0.4,0.5-0.6,0.8-0.9s0.7-0.4,1.1-0.5c0.3-0.1,0.7-0.2,1.3-0.2c1.2-0.1,2.1-0.3,2.7-0.5
		c0-0.2,0-0.3,0-0.4c0-0.6-0.1-1-0.4-1.3c-0.4-0.3-0.9-0.5-1.7-0.5c-0.7,0-1.2,0.1-1.6,0.4s-0.6,0.7-0.7,1.3l-1.5-0.2
		c0.1-0.6,0.4-1.1,0.7-1.5c0.3-0.4,0.7-0.7,1.3-0.9c0.6-0.2,1.2-0.3,2-0.3c0.8,0,1.4,0.1,1.8,0.3c0.5,0.2,0.8,0.4,1,0.7
		c0.2,0.3,0.4,0.6,0.5,1c0,0.3,0.1,0.7,0.1,1.4v2c0,1.4,0,2.3,0.1,2.6c0.1,0.4,0.2,0.7,0.4,1.1h-1.6C21.9,72.1,21.8,71.8,21.8,71.4z
		 M21.6,68c-0.5,0.2-1.4,0.4-2.4,0.6c-0.6,0.1-1,0.2-1.3,0.3c-0.3,0.1-0.5,0.3-0.6,0.5c-0.1,0.2-0.2,0.4-0.2,0.7
		c0,0.4,0.2,0.7,0.5,1s0.7,0.4,1.3,0.4c0.6,0,1.1-0.1,1.5-0.4c0.4-0.3,0.8-0.6,1-1c0.2-0.3,0.2-0.8,0.2-1.5V68z"/>
	<path class="st0" d="M27.2,68.5v-1.2c0.6,0,1.1,0,1.3-0.1c0.2,0,0.4-0.2,0.7-0.4c0.2-0.2,0.3-0.5,0.3-0.8c0-0.4-0.1-0.7-0.4-1
		c-0.3-0.2-0.6-0.4-1-0.4c-0.8,0-1.4,0.5-1.8,1.5l-1.4-0.2c0.4-1.7,1.5-2.5,3.2-2.5c0.9,0,1.7,0.3,2.2,0.8c0.5,0.5,0.8,1.1,0.8,1.8
		c0,0.7-0.3,1.3-1,1.7c0.4,0.2,0.8,0.5,1,0.9c0.2,0.4,0.3,0.8,0.3,1.3c0,0.8-0.3,1.4-0.9,1.9c-0.6,0.5-1.4,0.7-2.4,0.7
		c-2,0-3.2-0.9-3.5-2.7l1.4-0.3c0.1,0.6,0.4,1,0.8,1.3c0.4,0.3,0.8,0.5,1.3,0.5c0.5,0,0.9-0.1,1.3-0.4c0.3-0.3,0.5-0.6,0.5-1.1
		c0-0.3-0.1-0.6-0.3-0.9c-0.2-0.3-0.4-0.4-0.7-0.5c-0.2-0.1-0.7-0.1-1.3-0.1C27.5,68.5,27.4,68.5,27.2,68.5z"/>
	<path class="st0" d="M38.8,71.4c-0.6,0.5-1.1,0.8-1.6,1c-0.5,0.2-1.1,0.3-1.6,0.3c-1,0-1.7-0.2-2.2-0.7c-0.5-0.5-0.8-1.1-0.8-1.8
		c0-0.4,0.1-0.8,0.3-1.2c0.2-0.4,0.5-0.6,0.8-0.9c0.3-0.2,0.7-0.4,1.1-0.5c0.3-0.1,0.7-0.2,1.3-0.2c1.2-0.1,2.1-0.3,2.7-0.5
		c0-0.2,0-0.3,0-0.4c0-0.6-0.1-1-0.4-1.3c-0.4-0.3-0.9-0.5-1.7-0.5c-0.7,0-1.2,0.1-1.6,0.4c-0.3,0.2-0.6,0.7-0.7,1.3l-1.5-0.2
		c0.1-0.6,0.4-1.1,0.7-1.5c0.3-0.4,0.7-0.7,1.3-0.9c0.6-0.2,1.2-0.3,2-0.3c0.8,0,1.4,0.1,1.8,0.3c0.5,0.2,0.8,0.4,1,0.7
		c0.2,0.3,0.4,0.6,0.5,1c0,0.3,0.1,0.7,0.1,1.4v2c0,1.4,0,2.3,0.1,2.6c0.1,0.4,0.2,0.7,0.4,1.1h-1.6C39,72.1,38.9,71.8,38.8,71.4z
		 M38.7,68c-0.5,0.2-1.4,0.4-2.4,0.6c-0.6,0.1-1,0.2-1.3,0.3c-0.3,0.1-0.5,0.3-0.6,0.5c-0.1,0.2-0.2,0.4-0.2,0.7
		c0,0.4,0.2,0.7,0.5,1c0.3,0.3,0.7,0.4,1.3,0.4c0.6,0,1.1-0.1,1.5-0.4c0.4-0.3,0.8-0.6,1-1c0.2-0.3,0.2-0.8,0.2-1.5V68z"/>
</g>
</svg>
